<svg width="322" height="308" viewBox="0 0 322 308" fill="none" xmlns="http://www.w3.org/2000/svg">
<path d="M310.581 179.867C310.214 182.257 309.847 184.462 309.663 186.85C308.929 190.709 308.192 194.568 307.458 198.241C307.458 198.425 307.458 198.609 307.274 198.793C306.54 203.018 305.621 207.06 304.702 210.734C303.784 214.961 302.681 218.818 301.579 222.493C300.293 227.086 298.823 231.495 297.354 235.537C295.883 239.947 294.413 243.989 292.759 247.663C290.738 252.625 288.534 257.218 286.512 261.259C285.594 262.913 284.675 263.831 283.757 265.302V266.22C282.103 269.16 280.451 271.915 278.796 274.12C278.245 274.855 277.878 275.59 277.326 276.142C275.673 280.551 271.447 284.776 264.833 288.451L264.649 288.635C258.953 291.941 251.789 294.881 243.154 297.453C231.579 300.944 217.431 303.7 201.631 305.353C190.792 306.639 179.217 307.374 167.091 307.557H160.109C145.41 307.557 131.263 306.639 118.404 304.985C110.136 303.883 102.603 302.597 95.4373 301.128C88.6395 299.657 82.5766 298.003 76.8815 296.167C74.6769 295.432 72.4722 294.696 70.4501 293.778C70.2676 293.778 70.2676 293.594 70.0837 293.594C63.2859 290.839 57.5908 287.899 53.5479 284.592C53.1801 284.408 52.9976 284.041 52.6298 283.858C52.0782 283.306 51.3433 282.756 50.793 282.203C49.5065 280.917 47.8528 279.081 46.1999 276.692C43.8113 273.385 41.055 269.16 38.4826 264.015C37.5645 262.545 36.6458 260.892 35.9102 259.238C34.4411 256.666 33.1553 253.727 31.6848 250.603C30.0304 246.744 28.1943 242.335 26.54 237.558C25.2534 233.884 23.7836 229.842 22.681 225.617C21.3951 221.574 20.1085 217.349 19.0059 212.94C18.0878 209.266 17.3529 205.591 16.6173 201.548C15.6993 197.506 14.7805 193.466 14.2288 189.055C13.6785 186.115 13.1268 182.992 12.7598 179.867L19.7414 180.419C19.7414 180.419 19.7414 180.419 19.9239 180.419L35.5424 181.337L76.3284 184.093L161.579 189.972L229.557 185.379C229.557 185.379 229.557 185.379 229.741 185.379L242.601 184.461L283.389 181.705L291.84 181.153C292.024 181.153 292.024 181.153 292.024 181.153L310.581 179.867Z" fill="#F29736"/>
<path opacity="0.4" d="M247.001 295.293C235.426 298.784 221.279 301.54 205.479 303.193C194.64 304.478 183.064 305.213 170.938 305.397H163.956C149.259 305.397 135.111 304.479 122.252 302.825C113.983 301.723 106.45 300.436 99.2856 298.967C92.4878 297.497 86.4249 295.843 80.729 294.006C78.5244 293.271 76.3198 292.536 74.2976 291.616C74.1151 291.616 74.1151 291.434 73.9312 291.434C67.1335 288.678 61.4383 285.737 57.3955 282.43C57.0277 282.246 56.8452 281.88 56.4774 281.696C55.9257 281.144 55.1908 280.594 54.6391 280.041C53.3533 278.755 51.7003 276.919 50.046 274.53C47.6574 271.224 44.9011 266.998 42.3287 261.853C41.4106 260.383 40.4919 258.731 39.7563 257.076C38.2872 254.504 37.0014 251.565 35.5309 248.443C33.878 244.584 32.0404 240.175 30.3875 235.398C29.1016 231.724 27.6312 227.681 26.5292 223.455C25.2434 219.412 23.9568 215.188 22.8548 210.778C21.9368 207.104 21.2019 203.429 20.4663 199.386C19.5482 195.345 18.6295 191.304 18.0778 186.893C17.6764 184.753 17.3379 182.469 17.0073 180.203L12.7598 179.867C13.1261 182.991 13.6778 186.115 14.2288 189.055C14.7805 193.466 15.6993 197.506 16.6173 201.548C17.3529 205.591 18.0878 209.265 19.0059 212.94C20.1078 217.349 21.3944 221.575 22.681 225.617C23.7829 229.842 25.2534 233.883 26.5399 237.558C28.1943 242.335 30.0304 246.744 31.6848 250.603C33.1553 253.727 34.4411 256.666 35.9102 259.238C36.6457 260.892 37.5645 262.545 38.4826 264.015C41.055 269.16 43.8113 273.385 46.1999 276.692C47.8528 279.081 49.5064 280.917 50.793 282.203C51.3433 282.755 52.0782 283.305 52.6298 283.858C52.9976 284.041 53.1801 284.408 53.5479 284.592C57.5908 287.898 63.2859 290.839 70.0837 293.594C70.2676 293.594 70.2676 293.778 70.4501 293.778C72.4722 294.696 74.6768 295.432 76.8815 296.167C82.5766 298.003 88.6402 299.657 95.4373 301.128C102.603 302.597 110.136 303.882 118.404 304.985C131.263 306.639 145.41 307.557 160.109 307.557H167.091C179.217 307.374 190.792 306.639 201.631 305.353C217.43 303.7 231.579 300.944 243.154 297.453C251.788 294.881 258.953 291.942 264.649 288.635L264.833 288.451C265.169 288.264 265.333 288.044 265.657 287.855C260.43 290.582 254.364 293.1 247.001 295.293Z" fill="#F2C636"/>
<g opacity="0.4">
<path opacity="0.4" d="M35.545 185.028V195.686C26.909 193.297 20.6622 191.275 14.2308 189.071C13.6805 186.13 13.1288 183.008 12.7617 179.883L19.7434 180.435C19.7434 180.435 19.7434 180.435 19.9259 180.435C24.5205 181.905 29.4814 183.375 35.545 185.028Z" fill="#B06E27"/>
<path opacity="0.4" d="M76.3892 194.526C59.8999 191.49 51.7018 189.581 35.4851 184.985C35.4644 180.728 35.4543 178.6 35.4336 174.344C51.6488 178.941 59.8484 180.849 76.3362 183.885C76.357 188.142 76.3684 190.27 76.3892 194.526Z" fill="#B06E27"/>
<path opacity="0.4" d="M117.887 210.807C101.239 209.328 92.9307 208.201 76.4421 205.163C76.4214 200.907 76.4114 198.78 76.3906 194.523C92.8785 197.56 101.187 198.689 117.836 200.166C117.856 204.422 117.866 206.549 117.887 210.807Z" fill="#B06E27"/>
<path opacity="0.4" d="M159.543 201.909C142.844 201.99 134.485 201.641 117.835 200.164C117.814 195.908 117.804 193.781 117.783 189.523C134.431 191.002 142.793 191.35 159.492 191.268C159.511 195.524 159.522 197.652 159.543 201.909Z" fill="#B06E27"/>
<path opacity="0.4" d="M201.286 210.399C184.652 212.039 176.295 212.47 159.596 212.551C159.577 208.294 159.566 206.167 159.545 201.911C176.244 201.829 184.599 201.398 201.234 199.758C201.254 204.014 201.265 206.142 201.286 210.399Z" fill="#B06E27"/>
<path opacity="0.4" d="M242.622 193.71C226.165 196.908 217.868 198.118 201.233 199.758C201.212 195.502 201.202 193.374 201.182 189.118C217.816 187.478 226.112 186.267 242.571 183.07C242.592 187.326 242.602 189.454 242.622 193.71Z" fill="#B06E27"/>
<path opacity="0.4" d="M283.482 194.407C267.313 199.162 259.132 201.15 242.674 204.348C242.653 200.091 242.642 197.964 242.621 193.707C259.08 190.509 267.26 188.521 283.431 183.766C283.451 188.023 283.461 190.149 283.482 194.407Z" fill="#B06E27"/>
<path opacity="0.4" d="M291.842 181.172C289.27 181.907 286.513 182.826 283.391 183.744V181.724L291.842 181.172Z" fill="#B06E27"/>
<path opacity="0.4" d="M35.7288 217.914C29.1135 216.078 23.7847 214.424 19.0077 212.955C18.0896 209.281 17.3547 205.605 16.6191 201.562C22.3143 203.401 28.0115 205.053 35.5449 207.259C35.5449 211.484 35.5449 213.505 35.7288 217.914Z" fill="#B06E27"/>
<path opacity="0.4" d="M76.4986 216.745C60.0093 213.709 51.8111 211.8 35.5945 207.202C35.5737 202.946 35.5637 200.819 35.543 196.562C51.7582 201.16 59.9578 203.068 76.4456 206.104C76.4664 210.361 76.4778 212.489 76.4986 216.745Z" fill="#B06E27"/>
<path opacity="0.4" d="M117.997 233.032C101.348 231.555 93.0401 230.426 76.5515 227.39C76.5308 223.133 76.5208 221.006 76.5 216.75C92.9878 219.787 101.296 220.915 117.945 222.392C117.966 226.648 117.976 228.776 117.997 233.032Z" fill="#B06E27"/>
<path opacity="0.4" d="M159.652 224.136C142.954 224.216 134.594 223.868 117.944 222.391C117.923 218.135 117.913 216.008 117.893 211.75C134.541 213.228 142.902 213.577 159.601 213.495C159.622 217.75 159.631 219.878 159.652 224.136Z" fill="#B06E27"/>
<path opacity="0.4" d="M201.394 232.616C184.759 234.256 176.402 234.687 159.704 234.769C159.685 230.513 159.673 228.386 159.652 224.13C176.351 224.047 184.708 223.617 201.343 221.977C201.363 226.232 201.373 228.36 201.394 232.616Z" fill="#B06E27"/>
<path opacity="0.4" d="M242.731 215.929C226.273 219.127 217.977 220.337 201.342 221.977C201.321 217.72 201.31 215.593 201.289 211.337C217.924 209.697 226.22 208.487 242.678 205.289C242.699 209.545 242.71 211.673 242.731 215.929Z" fill="#B06E27"/>
<path opacity="0.4" d="M283.59 216.633C267.421 221.388 259.24 223.377 242.782 226.574C242.761 222.318 242.75 220.191 242.73 215.933C259.188 212.737 267.368 210.746 283.539 205.992C283.559 210.248 283.569 212.376 283.59 216.633Z" fill="#B06E27"/>
<path opacity="0.4" d="M309.664 186.867C308.93 190.726 308.194 194.584 307.459 198.258C300.11 201.014 293.312 203.035 283.574 205.975V195.319C294.415 192.197 301.397 189.808 309.664 186.867Z" fill="#B06E27"/>
<path opacity="0.4" d="M35.7284 229.49V240.146C32.4204 239.228 29.2977 238.308 26.5406 237.574C25.2541 233.9 23.7843 229.858 22.6816 225.633C26.5406 226.918 30.7674 228.02 35.7284 229.49Z" fill="#B06E27"/>
<path opacity="0.4" d="M76.6079 238.962C60.1179 235.926 51.9198 234.018 35.7039 229.421C35.6831 225.165 35.6731 223.037 35.6523 218.781C51.8676 223.377 60.0671 225.286 76.555 228.322C76.5757 232.578 76.5872 234.706 76.6079 238.962Z" fill="#B06E27"/>
<path opacity="0.4" d="M118.104 255.244C101.455 253.767 93.1475 252.638 76.6589 249.602C76.6382 245.345 76.6282 243.218 76.6074 238.961C93.0953 241.998 101.404 243.126 118.052 244.603C118.073 248.86 118.084 250.988 118.104 255.244Z" fill="#B06E27"/>
<path opacity="0.4" d="M159.76 246.353C143.061 246.435 134.702 246.087 118.052 244.608C118.031 240.352 118.021 238.225 118 233.969C134.65 235.446 143.009 235.794 159.708 235.713C159.73 239.969 159.739 242.097 159.76 246.353Z" fill="#B06E27"/>
<path opacity="0.4" d="M201.502 254.843C184.867 256.483 176.51 256.914 159.813 256.994C159.792 252.738 159.781 250.611 159.76 246.355C176.459 246.274 184.816 245.843 201.45 244.203C201.471 248.459 201.481 250.587 201.502 254.843Z" fill="#B06E27"/>
<path opacity="0.4" d="M242.839 238.155C226.379 241.353 218.084 242.563 201.449 244.203C201.429 239.946 201.417 237.82 201.396 233.562C218.031 231.922 226.328 230.713 242.786 227.516C242.806 231.772 242.818 233.9 242.839 238.155Z" fill="#B06E27"/>
<path opacity="0.4" d="M283.7 238.851C267.53 243.607 259.349 245.595 242.891 248.792C242.871 244.536 242.861 242.408 242.84 238.152C259.298 234.954 267.477 232.965 283.648 228.211C283.669 232.467 283.679 234.594 283.7 238.851Z" fill="#B06E27"/>
<path opacity="0.4" d="M304.702 210.75C303.784 214.977 302.682 218.834 301.58 222.509C296.251 224.347 290.74 226.183 283.574 228.204V217.549C292.026 214.977 298.272 213.139 304.702 210.75Z" fill="#B06E27"/>
<path opacity="0.4" d="M35.9109 259.245C34.4419 256.672 33.156 253.733 31.6855 250.609C32.9721 250.977 34.258 251.345 35.7284 251.711C35.9109 254.835 35.9109 256.672 35.9109 259.245Z" fill="#B06E27"/>
<path opacity="0.4" d="M76.7173 261.182C60.228 258.146 52.0299 256.236 35.8132 251.641C35.7925 247.383 35.7825 245.258 35.7617 241C51.9769 245.597 60.1765 247.505 76.6644 250.543C76.6851 254.799 76.6958 256.926 76.7173 261.182Z" fill="#B06E27"/>
<path opacity="0.4" d="M118.213 277.461C101.564 275.985 93.2569 274.855 76.7683 271.819C76.7476 267.563 76.7375 265.436 76.7168 261.18C93.2054 264.217 101.513 265.345 118.162 266.822C118.183 271.078 118.193 273.206 118.213 277.461Z" fill="#B06E27"/>
<path opacity="0.4" d="M159.869 268.572C143.17 268.652 134.81 268.304 118.161 266.827C118.14 262.571 118.13 260.444 118.109 256.188C134.76 257.664 143.119 258.013 159.818 257.931C159.839 262.187 159.848 264.314 159.869 268.572Z" fill="#B06E27"/>
<path opacity="0.4" d="M201.611 277.054C184.977 278.694 176.62 279.124 159.921 279.207C159.901 274.951 159.89 272.823 159.869 268.567C176.568 268.485 184.925 268.054 201.56 266.414C201.58 270.669 201.59 272.798 201.611 277.054Z" fill="#B06E27"/>
<path opacity="0.4" d="M242.948 260.368C226.489 263.564 218.193 264.774 201.559 266.414C201.538 262.158 201.527 260.031 201.506 255.774C218.14 254.134 226.437 252.924 242.895 249.727C242.916 253.983 242.927 256.11 242.948 260.368Z" fill="#B06E27"/>
<path opacity="0.4" d="M283.807 261.069C267.638 265.824 259.457 267.813 242.999 271.011C242.978 266.754 242.968 264.627 242.947 260.371C259.405 257.173 267.585 255.184 283.755 250.43C283.776 254.686 283.786 256.814 283.807 261.069Z" fill="#B06E27"/>
<path opacity="0.4" d="M297.355 235.547C295.884 239.956 294.415 243.998 292.76 247.672C290.004 248.591 287.065 249.51 283.758 250.428V239.772C288.902 238.302 293.313 236.833 297.355 235.547Z" fill="#B06E27"/>
<path opacity="0.4" d="M76.8826 283.322C64.2058 281.117 56.4899 279.464 46.2016 276.708C43.8131 273.401 41.0568 269.176 38.4844 264.031C52.9994 268.074 61.2655 269.91 76.6994 272.85C76.8826 277.076 76.8826 279.097 76.8826 283.322Z" fill="#B06E27"/>
<path opacity="0.4" d="M118.323 299.688C101.675 298.213 93.3663 297.083 76.8777 294.047C76.8569 289.79 76.8469 287.662 76.8262 283.406C93.314 286.442 101.622 287.571 118.271 289.048C118.292 293.304 118.303 295.432 118.323 299.688Z" fill="#B06E27"/>
<path opacity="0.4" d="M159.979 290.79C143.28 290.871 134.92 290.523 118.27 289.046C118.25 284.79 118.24 282.662 118.219 278.406C134.868 279.883 143.228 280.232 159.927 280.151C159.948 284.407 159.958 286.534 159.979 290.79Z" fill="#B06E27"/>
<path opacity="0.4" d="M201.72 299.28C185.085 300.92 176.728 301.35 160.03 301.432C160.011 297.176 159.999 295.048 159.979 290.792C176.677 290.71 185.034 290.279 201.669 288.641C201.689 292.897 201.699 295.023 201.72 299.28Z" fill="#B06E27"/>
<path opacity="0.4" d="M243.057 282.593C226.598 285.791 218.303 287.001 201.668 288.641C201.647 284.383 201.636 282.256 201.615 278C218.25 276.36 226.547 275.15 243.004 271.953C243.025 276.209 243.037 278.337 243.057 282.593Z" fill="#B06E27"/>
<path opacity="0.4" d="M278.797 274.133C278.245 274.868 277.879 275.603 277.327 276.155C275.674 280.564 271.448 284.79 264.834 288.464L264.65 288.648C258.22 290.301 251.789 291.587 243.155 293.241C243.155 289.014 243.155 286.81 242.971 282.585C257.668 279.828 265.752 277.991 278.797 274.133Z" fill="#B06E27"/>
<path opacity="0.4" d="M286.515 261.273C285.597 262.928 284.678 263.846 283.76 265.316V262.01C284.678 261.641 285.596 261.457 286.515 261.273Z" fill="#B06E27"/>
<path opacity="0.4" d="M76.8806 294.9V296.185C74.676 295.451 72.4714 294.715 70.4492 293.797C72.4721 294.165 74.6767 294.533 76.8806 294.9Z" fill="#B06E27"/>
<path opacity="0.4" d="M160.11 302.432V307.575C145.411 307.575 131.264 306.657 118.404 305.003V300.594C134.939 302.064 143.39 302.432 160.11 302.432Z" fill="#B06E27"/>
<path opacity="0.4" d="M243.154 294.164V297.471C231.579 300.961 217.431 303.717 201.631 305.37C201.815 303.9 201.631 302.248 201.631 300.227C218.351 298.573 226.618 297.287 243.154 294.164Z" fill="#B06E27"/>
</g>
<path opacity="0.3" d="M310.581 179.867C310.214 182.257 309.847 184.462 309.663 186.85C308.929 190.709 308.192 194.568 307.458 198.241C307.458 198.425 307.458 198.609 307.274 198.793C212.103 241.416 70.4501 219.369 70.4501 219.369C70.4501 219.369 70.8179 293.778 167.091 307.557H160.109C145.41 307.557 131.263 306.639 118.404 304.985C110.136 303.883 102.603 302.597 95.4373 301.128C88.6395 299.657 82.5766 298.003 76.8815 296.167C74.6769 295.432 72.4722 294.696 70.4501 293.778C70.2676 293.778 70.2676 293.594 70.0837 293.594C63.2859 290.839 57.5908 287.899 53.5479 284.592C53.1801 284.408 52.9976 284.041 52.6298 283.858C52.0782 283.306 51.3433 282.756 50.793 282.203C49.5065 280.917 47.8528 279.081 46.1999 276.692C43.8113 273.385 41.055 269.16 38.4826 264.015C37.5645 262.545 36.6458 260.892 35.9102 259.238C34.4411 256.666 33.1553 253.727 31.6848 250.603C30.0304 246.744 28.1943 242.335 26.54 237.558C25.2534 233.884 23.7836 229.842 22.681 225.617C21.3951 221.574 20.1085 217.349 19.0059 212.94C18.0878 209.266 17.3529 205.591 16.6173 201.548C15.6993 197.506 14.7805 193.466 14.2288 189.055C13.6785 186.115 13.1268 182.992 12.7598 179.867L19.7414 180.419C19.7414 180.419 19.7414 180.419 19.9239 180.419L35.5424 181.337L76.3284 184.093L161.579 189.972L229.557 185.379C229.557 185.379 229.557 185.379 229.741 185.379L242.601 184.461L283.389 181.705L291.84 181.153C292.024 181.153 292.024 181.153 292.024 181.153L310.581 179.867Z" fill="#B06E27"/>
<path d="M318.156 179.934C318.156 198.598 248.298 213.727 162.125 213.727C75.9519 213.727 6.09645 198.598 6.09645 179.934C6.09645 177.879 0.626741 160.852 2.24748 158.899C15.3579 143.107 85.4395 146.14 162.126 146.14C238.679 146.14 307.706 143.725 320.968 159.476C322.634 161.455 318.156 177.851 318.156 179.934Z" fill="#F29736"/>
<path opacity="0.3" d="M191.862 211.591C105.688 211.591 35.8323 196.46 35.8323 177.797C35.8323 175.743 30.3626 158.717 31.9833 156.762C36.3468 151.508 47.1173 148.367 62.2371 146.477C31.5239 147.571 9.08767 150.665 2.24552 158.906C0.624788 160.86 6.0945 177.887 6.0945 179.942C6.0945 198.606 75.9507 213.735 162.124 213.735C184.884 213.735 206.445 212.655 225.941 210.758C214.961 211.288 203.583 211.591 191.862 211.591Z" fill="#F29736"/>
<path d="M162.124 190.136C250.423 190.136 322.002 177.246 322.002 161.345C322.002 145.445 250.423 132.555 162.124 132.555C73.826 132.555 2.24609 145.445 2.24609 161.345C2.24609 177.246 73.826 190.136 162.124 190.136Z" fill="#FFA938"/>
<path opacity="0.2" d="M170.035 186.244C81.7365 186.244 10.1566 173.355 10.1566 157.453C10.1566 154.703 12.4306 152.051 16.432 149.531C7.39524 153.139 2.24609 157.13 2.24609 161.344C2.24609 177.245 73.8261 190.135 162.124 190.135C235.143 190.135 296.598 181.311 315.726 169.268C290.668 179.27 234.927 186.244 170.035 186.244Z" fill="#FFA938"/>
<path d="M300.475 157.452C300.475 159.288 298.638 161.311 295.146 162.963C292.39 164.433 288.533 165.719 283.755 167.006C273.833 169.761 259.87 172.149 242.968 173.804C231.025 175.09 217.797 176.192 203.467 176.742C203.467 176.742 203.467 176.742 203.283 176.742C199.056 176.926 194.648 177.11 190.239 177.11C188.586 177.11 186.932 177.294 185.462 177.294C185.095 177.476 185.095 177.476 184.911 177.294C184.727 177.476 184.543 177.294 184.543 177.294C177.194 177.66 169.846 177.66 162.129 177.66H159.74C128.507 177.66 99.6627 176.007 76.6955 173.435C59.0578 171.414 44.9119 168.658 35.7256 165.719C28.0083 163.147 23.5977 160.39 23.5977 157.452C23.5977 156.534 24.1493 155.431 25.0674 154.695C26.7218 153.042 29.4781 151.389 33.3364 149.918C34.0705 149.736 34.8054 149.552 35.7249 149.184C40.5005 147.714 46.5642 146.061 53.729 144.775C53.9129 144.775 53.9129 144.775 53.9129 144.775C60.5268 143.673 68.2426 142.57 76.5102 141.652C80.7355 141.1 85.3287 140.55 90.105 140.182C98.7418 139.448 108.112 138.712 117.849 138.346C130.893 137.61 145.039 137.242 159.554 137.242H162.127C175.723 137.242 188.951 137.61 201.26 138.162C210.814 138.528 219.816 139.08 228.451 139.631C233.412 139.999 238.189 140.55 242.783 141.101C249.764 141.835 256.378 142.572 262.441 143.49C270.709 144.776 277.874 146.246 283.57 147.899C284.488 148.083 285.407 148.267 286.325 148.635C295.33 151.204 300.475 154.328 300.475 157.452Z" fill="#E38B32"/>
<path opacity="0.3" d="M294.582 163.203C292.924 160.753 288.344 158.371 281.224 156.338C280.306 155.97 279.388 155.786 278.469 155.602C272.774 153.949 265.609 152.479 257.341 151.193C251.278 150.275 244.664 149.538 237.682 148.804C233.089 148.254 228.31 147.702 223.351 147.334C214.716 146.784 205.713 146.232 196.159 145.865C183.85 145.313 170.622 144.945 157.026 144.945H154.454C139.938 144.945 125.793 145.313 112.748 146.049C103.01 146.415 93.6398 147.151 85.0045 147.886C80.2275 148.253 75.6343 148.804 71.4089 149.356C63.1414 150.274 55.4256 151.377 48.8117 152.479C48.8117 152.479 48.8117 152.479 48.6278 152.479C41.4622 153.765 35.3993 155.417 30.6222 156.888C29.7027 157.256 28.9679 157.44 28.2337 157.622C26.7203 158.199 25.516 158.821 24.3418 159.442C25.8566 161.642 29.7779 163.737 35.727 165.719C41.7642 167.651 50.1197 169.479 60.0244 171.097C63.6616 170.594 67.4605 170.11 71.4097 169.671C75.635 169.12 80.2282 168.569 85.0052 168.201C93.6406 167.467 103.011 166.73 112.749 166.364C125.793 165.628 139.939 165.261 154.454 165.261H157.027C170.622 165.261 183.851 165.628 196.16 166.18C205.714 166.547 214.716 167.098 223.352 167.649C228.311 168.017 233.09 168.569 237.683 169.12C244.664 169.854 251.278 170.59 257.341 171.508C257.987 171.608 258.51 171.727 259.139 171.83C268.831 170.441 277.239 168.816 283.757 167.006C288.259 165.794 291.864 164.57 294.582 163.203Z" fill="#D98530"/>
<g opacity="0.4">
<path opacity="0.4" d="M118.035 154.158C101.316 152.687 93.0475 151.586 76.5117 148.647V141.665C80.7371 141.113 85.3302 140.563 90.1066 140.195C99.1104 141.665 106.46 142.584 117.85 143.502C118.035 147.911 118.035 149.931 118.035 154.158Z" fill="#B06E27"/>
<path opacity="0.4" d="M159.739 145.341C143.019 145.341 134.569 144.975 117.85 143.505V138.361C130.894 137.626 145.04 137.258 159.555 137.258C159.555 140.013 159.555 142.034 159.739 145.341Z" fill="#B06E27"/>
<path opacity="0.4" d="M201.392 153.811C184.757 155.452 176.4 155.882 159.702 155.965C159.683 151.708 159.671 149.581 159.65 145.324C176.349 145.243 184.706 144.812 201.341 143.172C201.361 147.428 201.371 149.556 201.392 153.811Z" fill="#B06E27"/>
<path opacity="0.4" d="M228.454 139.641C219.818 141.111 212.47 142.029 201.262 143.131V138.172C210.816 138.539 219.818 139.091 228.454 139.641Z" fill="#B06E27"/>
<path opacity="0.4" d="M262.444 143.506C256.565 144.976 250.685 146.262 242.785 147.731V141.117C249.767 141.851 256.38 142.587 262.444 143.506Z" fill="#B06E27"/>
<path opacity="0.4" d="M35.7266 150.666V161.322C32.4186 160.403 29.2959 159.484 26.5388 158.75C26.171 157.463 25.6208 156.177 25.0684 154.707C26.7227 153.054 29.479 151.4 33.3373 149.93C34.0722 150.114 34.9903 150.482 35.7266 150.666Z" fill="#B06E27"/>
<path opacity="0.4" d="M76.6965 160.221C60.1607 157.099 51.8946 155.262 35.7266 150.669V149.198C40.5022 147.728 46.5658 146.076 53.7307 144.789C53.9146 144.789 53.9146 144.789 53.9146 144.789C60.7124 146.442 67.3262 147.912 76.5118 149.566C76.5126 153.791 76.5126 155.812 76.6965 160.221Z" fill="#B06E27"/>
<path opacity="0.4" d="M118.102 176.438C101.453 174.963 93.1456 173.833 76.657 170.797C76.6362 166.54 76.6262 164.412 76.6055 160.156C93.0933 163.192 101.402 164.322 118.05 165.798C118.071 170.056 118.082 172.183 118.102 176.438Z" fill="#B06E27"/>
<path opacity="0.4" d="M159.758 167.54C143.059 167.623 134.7 167.273 118.05 165.796C118.029 161.54 118.019 159.412 117.998 155.156C134.648 156.633 143.007 156.982 159.706 156.901C159.728 161.156 159.737 163.284 159.758 167.54Z" fill="#B06E27"/>
<path opacity="0.4" d="M201.5 176.03C184.865 177.67 176.508 178.101 159.811 178.182C159.79 173.926 159.779 171.798 159.758 167.542C176.457 167.46 184.814 167.031 201.448 165.391C201.469 169.646 201.479 171.774 201.5 176.03Z" fill="#B06E27"/>
<path opacity="0.4" d="M242.839 159.343C226.379 162.541 218.084 163.751 201.449 165.391C201.429 161.134 201.417 159.006 201.396 154.75C218.031 153.11 226.328 151.9 242.786 148.703C242.806 152.959 242.818 155.087 242.839 159.343Z" fill="#B06E27"/>
<path opacity="0.4" d="M283.698 160.038C267.528 164.794 259.347 166.783 242.889 169.979C242.869 165.723 242.859 163.596 242.838 159.34C259.296 156.142 267.475 154.153 283.646 149.398C283.667 153.654 283.677 155.782 283.698 160.038Z" fill="#B06E27"/>
<path opacity="0.4" d="M286.327 148.65C285.409 148.833 284.49 149.201 283.572 149.385V147.914C284.49 148.099 285.408 148.283 286.327 148.65Z" fill="#B06E27"/>
<path opacity="0.4" d="M76.6965 171.802V173.456C59.0587 171.436 44.9129 168.679 35.7266 165.74V162.25C51.8946 166.842 60.1614 168.679 76.6965 171.802Z" fill="#B06E27"/>
<path opacity="0.4" d="M242.97 170.875V173.815C231.027 175.102 217.798 176.204 203.469 176.754C218.9 175.102 227.169 173.998 242.97 170.875Z" fill="#B06E27"/>
<path opacity="0.4" d="M297.353 156.734C296.617 158.939 295.882 161.144 295.147 162.98C292.39 164.451 288.534 165.737 283.756 167.023V160.96C288.9 159.489 293.311 158.02 297.353 156.734Z" fill="#B06E27"/>
</g>
<path d="M35.7281 165.721C37.7238 166.361 40.0565 166.984 42.5066 167.6C45.8926 166.712 49.5634 165.839 53.7329 165.092C53.9168 165.092 53.9168 165.092 53.9168 165.092C60.5307 163.99 68.2466 162.888 76.5141 161.97C80.7395 161.418 85.3326 160.868 90.109 160.499C98.7457 159.765 108.116 159.029 117.853 158.662C130.897 157.927 145.043 157.559 159.558 157.559H162.13C175.727 157.559 188.954 157.927 201.263 158.478C210.818 158.845 219.82 159.397 228.455 159.948C233.416 160.315 238.193 160.867 242.786 161.417C249.768 162.151 256.382 162.888 262.445 163.806C269.686 164.932 275.885 166.225 281.188 167.633C282.018 167.421 282.979 167.223 283.758 167.007C288.535 165.721 292.392 164.435 295.149 162.964C298.641 161.311 300.478 159.29 300.478 157.453C300.478 154.33 295.333 151.206 286.329 148.635C285.411 148.267 284.492 148.083 283.574 147.899C277.878 146.246 270.713 144.776 262.445 143.49C256.382 142.572 249.768 141.835 242.786 141.101C238.193 140.551 233.416 139.999 228.455 139.631C219.82 139.08 210.818 138.529 201.263 138.162C188.954 137.61 175.727 137.242 162.13 137.242H159.558C145.043 137.242 130.897 137.61 117.853 138.346C108.116 138.712 98.7457 139.448 90.109 140.182C85.3319 140.55 80.7387 141.1 76.5141 141.652C68.2466 142.57 60.53 143.673 53.9168 144.775C53.9168 144.775 53.9168 144.775 53.7329 144.775C46.5673 146.061 40.5044 147.714 35.7288 149.184C34.8093 149.552 34.0744 149.736 33.3403 149.918C29.4813 151.389 26.725 153.042 25.0713 154.695C24.1533 155.431 23.6016 156.534 23.6016 157.452C23.6001 160.393 28.0108 163.149 35.7281 165.721Z" fill="#D98530"/>
<path opacity="0.2" d="M286.327 148.635C285.409 148.267 284.49 148.083 283.572 147.899C277.876 146.246 270.711 144.776 262.443 143.49C256.38 142.572 249.766 141.835 242.784 141.101C238.191 140.551 233.414 139.999 228.453 139.631C219.818 139.08 210.815 138.529 201.261 138.162C188.952 137.61 175.725 137.242 162.128 137.242H159.556C145.041 137.242 130.895 137.61 117.85 138.346C108.114 138.712 98.7436 139.448 90.1068 140.182C85.3298 140.55 80.7366 141.1 76.512 141.652C68.2444 142.57 60.5279 143.673 53.9147 144.775C53.9147 144.775 53.9147 144.775 53.7308 144.775C46.5652 146.061 40.5023 147.714 35.7267 149.184C34.8072 149.552 34.0723 149.736 33.3381 149.918C32.2584 150.33 31.4698 150.781 30.5625 151.216C35.9399 150.392 41.6901 149.585 47.9341 148.891C52.1594 148.34 56.7526 147.789 61.5289 147.421C70.1643 146.687 79.5345 145.951 89.271 145.584C102.316 144.849 116.463 144.481 130.978 144.481H133.55C147.146 144.481 160.373 144.849 172.683 145.4C182.238 145.767 191.24 146.318 199.875 146.869C204.835 147.237 209.612 147.789 214.205 148.34C221.187 149.074 227.801 149.81 233.864 150.728C242.131 152.015 249.298 153.485 254.994 155.138C255.912 155.321 256.831 155.505 257.749 155.873C266.753 158.444 271.896 161.568 271.896 164.692C271.896 164.933 271.603 165.186 271.54 165.433C275.022 166.128 278.271 166.858 281.186 167.632C282.015 167.42 282.977 167.222 283.756 167.006C288.533 165.72 292.39 164.434 295.147 162.964C298.639 161.311 300.475 159.289 300.475 157.452C300.475 154.33 295.33 151.206 286.327 148.635Z" fill="#D98530"/>
<path opacity="0.2" d="M273.764 211.58C268.079 265.246 260.883 284.588 260.883 284.588C260.883 284.588 285.137 275.229 289.28 247.987C293.422 220.745 300.476 200.703 300.476 200.703C300.476 200.703 274.518 204.455 273.764 211.58Z" fill="#F2C636"/>
<path d="M320.501 138.16C320.501 140.365 320.501 142.386 320.318 144.222C320.134 151.755 319.582 156.532 319.399 157.266C318.664 162.227 313.887 165.534 308.927 164.798C304.15 164.064 300.66 159.287 301.394 154.328C301.394 154.144 301.394 153.592 301.578 152.305C301.762 151.571 301.762 150.653 301.946 149.367C302.129 147.712 302.13 145.692 302.13 143.303C302.496 138.344 302.312 132.097 301.578 125.115C301.578 123.277 301.21 121.256 301.028 119.236C300.292 113.356 299.005 106.926 296.985 100.495C296.617 98.4741 296.067 96.6373 295.33 94.7998C293.86 90.0241 291.84 85.431 289.635 80.6539C288.716 78.9996 287.797 77.3473 286.879 75.5091C284.123 70.9159 281 66.1389 277.509 61.7296C276.958 61.1793 276.407 60.443 275.856 59.8928C275.12 58.9747 274.201 58.0545 273.467 57.5043C268.138 51.4413 262.259 46.2965 255.462 41.8872C253.809 40.7838 252.155 39.6812 250.318 38.947C244.255 34.9056 237.641 31.7814 230.476 29.2104C228.638 28.4748 226.618 27.74 224.595 27.1883C217.247 24.6173 209.53 22.779 201.263 21.4932C199.426 20.9429 197.405 20.759 195.385 20.3912C186.381 19.1046 176.645 18.3705 166.356 18.1866C164.334 18.0027 162.313 18.0027 160.293 18.0027C160.109 18.0027 160.109 18.0027 159.926 18.0027C156.619 18.0027 153.126 18.0027 150.004 18.1866C143.206 18.3705 136.959 18.9222 130.713 19.8409C128.692 19.8409 126.67 20.0248 124.834 20.3912C116.383 21.4932 108.482 23.3314 100.95 25.5361C98.928 25.9024 97.0919 26.638 95.2536 27.189C87.7202 29.7614 80.5561 32.7016 74.1246 36.5592C72.4717 37.1109 70.818 38.0297 69.1651 39.3155C61.8156 43.5409 55.2018 48.8696 49.6891 54.7486C48.0362 56.0352 46.9342 57.3211 45.6476 58.7915C45.2798 59.1579 44.9135 59.5257 44.545 60.0781C41.0545 64.1196 37.9311 68.5281 35.3587 72.7549C34.2567 74.4078 33.3379 76.2454 32.4184 77.8983C29.6635 83.0432 27.4575 88.3705 25.6207 93.5153C24.8851 95.5361 24.3348 97.3729 23.7824 99.2105C21.7617 105.64 20.6597 112.07 19.7409 117.951C19.3731 119.972 19.1892 121.992 19.0053 123.83C18.2712 130.812 18.0873 137.058 18.2712 142.018C18.2712 144.223 18.4551 146.427 18.639 148.082C18.8214 152.307 19.1892 154.695 19.1892 154.879C20.1073 159.84 16.6168 164.433 11.6573 165.351H10.1868C9.63513 165.351 9.08415 165.351 8.53245 164.984C4.8595 164.433 1.91856 161.677 1.3683 157.82C1.1844 157.084 0.26563 151.204 0.0817324 142.019C0.0817324 140.182 -0.102166 138.161 0.0817324 135.957C0.0817324 130.445 0.448096 124.382 1.3683 117.584C1.55077 115.746 1.91857 113.909 2.10246 111.889C3.20442 106.01 4.67489 99.5782 6.51172 93.1483C7.06341 91.4939 7.61368 89.6578 8.34855 88.0034C10.0029 83.0439 12.0229 77.899 14.78 72.7556C15.5141 70.551 16.6168 68.5288 17.9027 66.3242C18.8207 64.8552 19.9234 63.2015 20.8429 61.5471C23.7817 56.954 26.9058 52.5447 30.5809 48.3187C31.6828 47.0321 32.6016 45.9301 33.7036 44.8282C34.9901 43.3577 36.276 42.0718 37.5626 40.7853C44.1765 34.1714 51.7098 28.4763 59.9774 23.3329C61.6303 22.4134 63.284 21.4946 64.9369 20.5765C72.4703 16.3512 80.921 12.8607 89.9241 10.1044C91.761 9.37021 93.5985 8.8178 95.4353 8.26754C103.887 5.69511 112.889 3.85828 122.443 2.57243C124.282 2.20463 126.118 2.02073 128.138 1.65437C138.06 0.55241 148.715 0 159.923 0H161.76C163.782 0 165.803 -2.13252e-08 167.641 0.183898C178.295 0.367796 188.401 1.10196 197.771 2.57243C199.792 2.75632 201.813 3.12269 203.649 3.67438C213.203 5.14485 222.021 7.16486 230.291 10.1044C232.127 10.4722 233.965 11.2063 235.802 11.9426C244.438 15.0653 252.521 18.9243 260.053 23.1497C261.708 24.2516 263.177 25.3543 264.83 26.2724C272.546 31.5997 279.712 37.4787 285.959 44.2765C287.246 45.5623 288.532 46.8489 289.634 48.3194L289.818 48.5033C294.228 53.832 298.086 59.1593 301.393 64.8566C302.496 66.5095 303.415 68.1632 304.333 70C307.825 76.6139 310.579 83.2285 312.784 89.8424C313.52 91.6792 314.071 93.5175 314.439 95.3536C316.459 101.784 317.745 108.03 318.664 114.094C318.848 116.115 319.216 118.137 319.399 119.973C320.134 126.769 320.501 133.015 320.501 138.16Z" fill="#FFA938"/>
<path opacity="0.3" d="M18.6395 148.086C11.29 146.432 5.04321 144.227 0.0836856 142.022C0.0836856 140.186 -0.100212 138.165 0.0836856 135.961C5.22711 138.166 11.29 140.37 18.2717 142.022C18.2717 144.227 18.4556 146.432 18.6395 148.086Z" fill="#D98530"/>
<path opacity="0.3" d="M19.7411 117.954C19.3733 119.974 19.1894 121.995 19.0055 123.833C12.0238 122.178 6.14476 119.974 1.36914 117.586C1.55161 115.747 1.9194 113.911 2.1033 111.891C7.06425 114.279 12.9418 116.3 19.7411 117.954Z" fill="#D98530"/>
<path opacity="0.3" d="M25.6199 93.5212C24.8843 95.5419 24.3341 97.3787 23.7817 99.2163C16.9839 97.378 11.2888 95.3573 6.51172 93.1527C7.06341 91.4983 7.61368 89.6622 8.34855 88.0078C13.1256 90.03 19.0046 92.0507 25.6199 93.5212Z" fill="#D98530"/>
<path opacity="0.3" d="M35.3576 72.7632C34.2557 74.4161 33.3369 76.2536 32.4174 77.9066C26.5384 74.049 21.7613 70.1907 17.9023 66.3317C18.8204 64.8627 19.9231 63.2091 20.8426 61.5547C24.6994 65.2298 29.4779 69.0888 35.3576 72.7632Z" fill="#D98530"/>
<path opacity="0.3" d="M49.6872 54.7539C48.0343 56.0404 46.9323 57.3263 45.6458 58.7968C40.6848 53.8358 36.6433 49.2412 33.7031 44.832C34.9897 43.3615 36.2755 42.0756 37.5621 40.7891C40.6855 45.1998 44.7277 49.9768 49.6872 54.7539Z" fill="#D98530"/>
<path opacity="0.3" d="M74.1224 36.5622C72.4695 37.1139 70.8158 38.0327 69.1629 39.3185C65.12 33.6234 62.1812 28.1115 59.9766 23.3344C61.6295 22.415 63.2831 21.4962 64.9361 20.5781C67.3253 25.5398 70.2656 30.8671 74.1224 36.5622Z" fill="#D98530"/>
<path opacity="0.3" d="M100.95 25.5434C98.9275 25.9098 97.0914 26.6453 95.2531 27.1963C92.6807 20.9502 91.0277 15.2551 89.9258 10.1103C91.7626 9.37611 93.6002 8.8237 95.437 8.27344C96.7236 13.6008 98.3772 19.2959 100.95 25.5434Z" fill="#D98530"/>
<path opacity="0.3" d="M130.711 19.8443C128.69 19.8443 126.668 20.0282 124.832 20.3945C123.545 13.9645 122.811 7.90163 122.443 2.57431C124.282 2.20651 126.118 2.02261 128.138 1.65625C128.506 7.16675 129.241 13.2289 130.711 19.8443Z" fill="#D98530"/>
<path opacity="0.3" d="M320.502 138.164C320.502 140.369 320.502 142.389 320.318 144.226C315.173 146.248 308.927 148.085 301.945 149.37C302.129 147.716 302.129 145.696 302.129 143.307C309.112 142.021 315.173 140.185 320.502 138.164Z" fill="#D98530"/>
<path opacity="0.3" d="M319.399 119.973C314.438 121.993 308.559 123.832 301.578 125.118C301.578 123.279 301.21 121.259 301.027 119.239C307.641 117.952 313.52 116.114 318.664 114.094C318.848 116.114 319.215 118.137 319.399 119.973Z" fill="#D98530"/>
<path opacity="0.3" d="M314.438 95.355C309.477 97.3757 303.782 99.0293 296.984 100.498C296.617 98.4777 296.066 96.6408 295.33 94.8033C301.945 93.5188 307.824 91.8645 312.784 89.8438C313.52 91.6806 314.071 93.5189 314.438 95.355Z" fill="#D98530"/>
<path opacity="0.3" d="M304.334 70.0028C300.291 73.4933 295.515 77.1684 289.635 80.6589C288.716 79.0045 287.797 77.3523 286.879 75.514C292.39 72.0235 297.169 68.5323 301.394 64.8594C302.496 66.5123 303.416 68.166 304.334 70.0028Z" fill="#D98530"/>
<path opacity="0.3" d="M289.819 48.508C286.695 52.7348 282.469 57.1434 277.508 61.7365C276.958 61.1863 276.406 60.45 275.855 59.8997C275.12 58.9816 274.201 58.0614 273.467 57.5112C278.426 53.1005 282.653 48.5073 285.96 44.2812C287.246 45.5671 288.532 46.8537 289.635 48.3241L289.819 48.508Z" fill="#D98530"/>
<path opacity="0.3" d="M264.832 26.2789C262.443 31.056 259.505 36.1994 255.462 41.896C253.809 40.7926 252.155 39.6899 250.318 38.9557C254.36 33.4445 257.484 28.1172 260.055 23.1562C261.709 24.2582 263.179 25.3609 264.832 26.2789Z" fill="#D98530"/>
<path opacity="0.3" d="M235.803 11.9398C234.702 17.0832 232.865 22.963 230.476 29.2098C228.638 28.4742 226.618 27.7393 224.596 27.1876C227.168 21.1254 229.006 15.4303 230.292 10.1016C232.129 10.4701 233.967 11.2042 235.803 11.9398Z" fill="#D98530"/>
<path opacity="0.3" d="M203.651 3.68008C203.285 9.0074 202.549 15.071 201.262 21.5003C199.426 20.95 197.405 20.7661 195.385 20.3983C196.67 13.9684 197.589 8.08934 197.773 2.57812C199.794 2.76202 201.814 3.12839 203.651 3.68008Z" fill="#D98530"/>
<path opacity="0.3" d="M167.64 0.183979C167.64 5.5113 167.273 11.5749 166.354 18.1881C164.332 18.0042 162.311 18.0042 160.291 18.0042C161.209 11.5742 161.76 5.5113 161.76 8.14176e-05C163.782 -0.000634139 165.803 -0.000634149 167.64 0.183979Z" fill="#D98530"/>
<path opacity="0.4" d="M302.68 150.837C302.496 151.388 302.13 151.939 301.578 152.306C301.762 151.572 301.762 150.654 301.946 149.368C302.13 147.713 302.13 145.693 302.13 143.304C302.496 138.345 302.312 132.098 301.578 125.116C301.578 123.278 301.21 121.257 301.028 119.237C300.292 113.357 299.006 106.927 296.985 100.496C296.617 98.4752 296.067 96.6383 295.331 94.8008C293.86 90.0252 291.84 85.432 289.635 80.6549C288.716 79.0006 287.797 77.3484 286.879 75.5101C284.123 70.9169 281 66.1399 277.509 61.7306C276.959 61.1804 276.407 60.4441 275.856 59.8938C275.12 58.9757 274.202 58.0555 273.467 57.5053C268.139 51.4424 262.259 46.2975 255.462 41.8883C253.809 40.7849 252.155 39.6822 250.318 38.948C244.255 34.9066 237.642 31.7825 230.476 29.2115C228.638 28.4759 226.618 27.741 224.596 27.1893C217.248 24.6183 209.53 22.78 201.263 21.4942C199.426 20.9439 197.405 20.76 195.385 20.3922C186.381 19.1057 176.645 18.3715 166.357 18.1876C164.334 18.0037 162.314 18.0037 160.294 18.0037C160.11 18.0037 160.11 18.0037 159.926 18.0037C156.619 18.0037 153.127 18.0037 150.004 18.1876C150.004 18.1876 201.631 8.08323 251.238 32.5188C301.028 56.9529 314.071 127.504 302.68 150.837Z" fill="#D98530"/>
<path opacity="0.3" d="M8.53441 164.986C4.86146 164.436 1.92052 161.679 1.37026 157.822C1.18636 157.086 0.267584 151.206 0.0836856 142.021C0.0836856 140.184 -0.100212 138.163 0.0836856 135.959C0.0836856 130.447 0.450051 124.384 1.37026 117.586C1.55272 115.748 1.92052 113.912 2.10442 111.891C3.20637 106.012 4.67684 99.5804 6.51367 93.1504C7.06537 91.4961 7.61563 89.66 8.35051 88.0056C10.0049 83.0461 12.0249 77.9012 14.7819 72.7578C3.39099 109.133 4.49294 141.654 8.53441 164.986Z" fill="#D98530"/>
</svg>
