<svg width="364" height="208" viewBox="0 0 364 208" fill="none" xmlns="http://www.w3.org/2000/svg">
<path d="M9.87021 42.3508C13.2852 40.7567 17.72 40.0457 21.4542 40.618L21.6385 40.6262L23.9713 40.7376C23.9423 41.2519 23.9207 41.6133 23.6646 42.0779C22.9596 42.2656 22.2733 42.1291 21.5692 42.2666L21.4127 42.3156C19.2111 42.3332 16.9756 42.3156 14.8014 42.7044C13.4853 42.9395 12.1163 43.5028 10.8539 43.9513C10.1767 44.1921 9.16606 44.4884 8.62437 44.9718C7.80467 45.7036 8.13626 47.3953 7.92985 48.4175L7.77937 47.1852C7.62978 47.7305 7.60726 48.4497 7.87284 48.9605C7.23695 49.0417 6.62358 49.0775 6.00399 49.1949H5.4433L5.16295 49.4278L4.88261 49.3818L4.70447 49.4663C4.34506 49.6252 4.00852 49.6996 3.62109 49.7549C3.92224 49.5085 4.2152 49.3657 4.56831 49.2051L4.47564 48.976C5.11153 48.6048 6.03587 48.5446 6.75884 48.4126C6.65077 47.3571 6.54748 45.9787 6.87141 44.9471C7.29702 43.5924 8.68218 42.9174 9.87021 42.3508Z" fill="#1B191B"/>
<path d="M9.86914 42.3508C13.2842 40.7567 17.7189 40.0457 21.4531 40.618C20.7171 40.6651 20.2337 40.7096 19.5521 40.9806L18.103 41.3723C16.6081 41.8021 14.9945 41.5032 13.4783 41.8331L13.1972 41.8787C12.8943 41.931 12.6377 42.0174 12.3461 42.1119C11.4197 42.4124 10.8256 42.6659 9.86914 42.3508Z" fill="#2C2D31"/>
<path d="M352.969 133.363L360.152 132.711C360.162 134.459 360.171 136.208 360.166 137.957C360.163 139.017 360.291 140.18 359.87 141.169L359.768 141.414C358.613 144.012 355.408 146.436 352.85 147.516L352.969 133.363Z" fill="#BA4D1B"/>
<path d="M4.47597 48.9861L4.56863 49.2152C4.21543 49.3759 3.92257 49.5187 3.62142 49.765C4.00884 49.7097 4.3453 49.6353 4.7048 49.4764L4.88294 49.392L5.16328 49.4379L5.44362 49.205H6.00432C6.62391 49.0877 7.23728 49.0517 7.87317 48.9707C7.60769 48.4597 7.63011 47.7406 7.77969 47.1953L7.93018 48.4276C9.91376 48.4437 12.5774 48.1414 14.4372 48.8406C15.2102 50.1668 14.1637 73.9762 14.0122 77.5973C10.967 77.6672 5.21128 78.2032 2.79533 75.9699C2.30533 75.5169 2.09721 74.9185 1.89062 74.3029L2.10883 73.7721L2.54696 73.7029C2.96941 74.1668 3.41447 74.7215 3.92689 75.0855C5.33502 76.0849 7.53393 76.3196 9.21222 76.4916L9.8301 76.4426L10.1645 75.6951C10.7439 73.8617 10.9504 71.7795 11.296 69.8855C12.3115 64.3205 13.1919 58.9049 13.4249 53.246C13.459 52.4185 13.702 50.8385 13.3485 50.1306C12.1657 49.2953 10.7445 49.3606 9.34911 49.2358C7.60768 49.2952 4.43905 49.2463 3.13179 50.5672C2.29327 51.4142 2.38936 53.456 2.36009 54.6017L2.10199 54.4835L2.05885 51.4608C2.14837 51.0471 2.23338 50.6378 2.43952 50.2633C2.86432 49.4911 3.68257 49.2261 4.47597 48.9861Z" fill="url(#paint0_linear_4689_7440)"/>
<path d="M9.34737 49.2266C10.7428 49.3514 12.164 49.286 13.3468 50.1214C13.7002 50.8293 13.4573 52.4093 13.4231 53.2368C13.1902 58.8957 12.3098 64.3112 11.2943 69.8762C10.9487 71.7701 10.7422 73.8524 10.1627 75.6858L9.82836 76.4334L9.21048 76.4823C8.90879 76.3089 8.63601 76.1045 8.27794 76.094C7.95527 76.085 7.71608 76.106 7.40097 75.9983C7.15367 75.9138 7.26742 75.9363 6.98338 75.8955L6.79688 75.8735C6.96933 75.1188 7.28741 73.7131 6.92079 73.0695C7.23896 71.2821 7.34838 69.4319 7.57343 67.6277C8.04335 63.8608 8.50408 60.1022 8.8879 56.3256C9.03964 54.8324 9.21975 53.328 9.33926 51.8332C9.39149 51.1806 9.34934 50.4921 9.59187 49.874L9.72146 49.569L9.34737 49.2266Z" fill="#454C55"/>
<path d="M284.977 30.2891C297.018 32.84 309.038 35.5402 321.091 38.0246C326.289 39.0958 331.494 40.1494 336.696 41.2019C338.504 41.5678 340.311 41.9327 342.115 42.3173C343.15 42.5378 344.331 42.6769 345.259 43.2043L345.163 43.4087C346.117 43.8654 346.689 44.4388 347.529 45.0264L347.815 45.2249C347.393 45.1946 347.006 45.1751 346.6 45.0399C346.311 44.9434 346.037 44.9341 345.76 44.853C345.202 44.69 344.637 44.6373 344.083 44.4717L343.423 44.2923C342.657 44.0497 341.904 44.1701 341.137 43.9907L340.433 43.8136C339.802 43.7149 339.193 43.5557 338.564 43.4604L336.696 43.0806L335.668 42.8799L335.2 42.8025C334.306 42.5682 333.369 42.4789 332.472 42.2359C332.025 42.1148 331.539 42.0038 331.089 41.9155C330.624 41.824 330.102 41.6958 329.637 41.6385C328.685 41.5212 327.783 41.248 326.843 41.0868L325.669 40.8637C325.325 40.8069 325.019 40.7639 324.682 40.6667C324.126 40.5063 323.598 40.5045 323.053 40.3789C322.664 40.2892 322.317 40.2653 321.932 40.1872C321.517 40.1034 321.37 39.9805 320.888 39.9894L320.717 39.9939C320.338 39.7521 320.218 39.8123 319.782 39.807L319.502 39.6284C318.833 39.6321 318.191 39.4897 317.539 39.3492L315.297 38.8839C314.985 38.7927 314.709 38.7209 314.386 38.6731L313.054 38.4323L312.401 38.312C311.943 38.1842 311.686 38.1797 311.205 38.2119C310.613 38.1375 309.973 38.0972 309.405 37.9169C309.057 37.8063 309.228 37.8459 308.904 37.7805C303.488 36.6857 298.101 35.4474 292.684 34.3586C289.411 33.7008 285.732 33.2814 282.6 32.1743C283.077 32.1556 283.607 32.0906 284.076 32.1837L284.273 32.2372L284.49 32.2902L284.93 32.2364C285.024 31.7146 285.074 31.2279 285.098 30.6983L284.798 30.5211L284.977 30.2891Z" fill="#E19C48"/>
<path d="M2.05737 51.4516L2.10051 54.4742L2.35861 54.5924C2.38788 53.4468 2.29188 51.4048 3.1303 50.558C4.43757 49.2371 7.6062 49.286 9.34763 49.2266L9.72181 49.569L9.59222 49.874C9.34979 50.4922 9.39184 51.1807 9.33961 51.8332C9.22002 53.328 9.04 54.8324 8.88825 56.3256C8.50452 60.1022 8.04379 63.8608 7.57379 67.6277C7.34864 69.4319 7.23931 71.282 6.92114 73.0695C7.28777 73.7131 6.96969 75.1189 6.79723 75.8735L6.98373 75.8955C7.26768 75.9363 7.15403 75.9138 7.40132 75.9983C7.71643 76.1059 7.95562 76.085 8.2783 76.094C8.63636 76.1045 8.90914 76.3089 9.21083 76.4823C7.53254 76.3104 5.33363 76.0757 3.92551 75.0762C3.41308 74.7122 2.96802 74.1575 2.54557 73.6937L2.10744 73.7628L1.88923 74.2936C1.61384 72.6494 1.72074 70.9241 1.7256 69.2615C1.73326 66.6481 1.74974 64.0347 1.77315 61.4217C1.79143 59.3839 1.81404 57.3461 1.84367 55.3083C1.86213 54.0385 1.78459 52.6959 2.05737 51.4516Z" fill="url(#paint1_linear_4689_7440)"/>
<path d="M21.7676 40.5333C22.6621 36.3822 24.0253 32.2887 25.3839 28.2707C26.7851 24.1267 28.2859 19.9483 30.3211 16.0671C31.1613 14.4651 32.0789 12.7492 33.2843 11.3875C35.1808 9.24578 37.5808 7.76155 40.2581 6.78416C44.1112 5.3773 48.6377 4.86975 52.6911 4.22386C57.626 3.43785 62.5755 2.63869 67.5421 2.0807C73.802 1.37727 80.0959 0.982907 86.3812 0.585938C85.828 2.3053 85.4049 4.09715 85.2472 5.89873L83.6347 6.02211C74.5596 6.42953 65.4792 7.33369 56.4422 8.24191C51.1194 8.77675 45.237 9.01676 40.1104 10.5773C38.2 11.1585 36.2845 12.1912 34.9266 13.6713C33.6348 15.0801 32.7946 16.8873 31.9282 18.5714C28.377 25.4738 26.0795 32.9533 24.201 40.4627L21.7676 40.5333Z" fill="#F8AE33"/>
<path d="M311.205 38.2121C311.686 38.1799 311.943 38.1844 312.401 38.3122L313.054 38.4325L314.386 38.6733C314.709 38.7211 314.986 38.7928 315.298 38.8841L317.539 39.3494C318.192 39.49 318.834 39.6324 319.502 39.6286L319.783 39.8072C320.219 39.8125 320.339 39.7523 320.717 39.9941L320.888 39.9896C321.371 39.9806 321.517 40.1036 321.932 40.1874C322.318 40.2655 322.665 40.2894 323.053 40.3791C323.599 40.5047 324.126 40.5065 324.683 40.6669C325.019 40.7641 325.325 40.8071 325.67 40.8639L326.844 41.087C327.784 41.2482 328.685 41.5214 329.637 41.6387C330.102 41.6959 330.624 41.8242 331.089 41.9157C331.539 42.0039 332.025 42.1149 332.473 42.2361C333.369 42.479 334.306 42.5684 335.201 42.8027L335.668 42.8801L336.696 43.0808L338.565 43.4606C339.193 43.5558 339.803 43.7151 340.434 43.8138L341.138 43.9909C341.904 44.1703 342.657 44.05 343.424 44.2925L344.083 44.4719C344.637 44.6375 345.202 44.6902 345.76 44.8532C346.038 44.9343 346.312 44.9436 346.601 45.0401C347.007 45.1753 347.393 45.1948 347.816 45.225L347.529 45.0266C346.689 44.439 346.118 43.8656 345.163 43.4089L345.26 43.2044C347.907 44.2405 350.255 46.9321 351.37 49.4995C352.329 51.7055 352.556 54.3851 352.986 56.7375C353.618 60.1957 354.268 63.6515 354.916 67.1066C356.151 73.6895 357.359 80.2752 358.587 86.8596C359.205 90.1743 359.987 93.5 360.455 96.8359L353.077 96.8886C353.084 85.3129 351.855 73.8905 350.728 62.3908C350.523 60.291 350.502 54.7518 349.45 53.1561C349.173 52.7356 348.781 52.5584 348.305 52.4403C345.732 51.8026 342.838 51.68 340.203 51.2408C335.332 50.4298 330.483 49.4935 325.608 48.704C320.902 47.9419 315.987 47.3199 311.348 46.2379C311.949 46.1628 312.635 46.1475 313.221 46.3246C313.527 46.4173 313.332 46.3893 313.668 46.4169L315.111 46.5807C315.684 46.5582 315.906 46.8075 316.606 46.722L316.84 46.9537L317.447 46.9088C317.766 47.1096 317.955 47.1586 318.323 47.1682C318.623 47.1764 318.813 47.1948 319.117 47.2617L319.409 47.3282C319.824 47.3435 319.663 47.2639 320.017 47.5144L320.717 47.5151L321.03 47.6081C321.585 47.6989 322.089 47.8925 322.622 47.9546C323.151 48.0163 323.755 47.9113 324.231 48.1486C324.634 48.3493 324.775 48.2095 325.203 48.2626C325.597 48.3116 326.132 48.393 326.51 48.5245C326.843 48.6404 326.916 48.7069 327.288 48.6464C327.767 48.5679 327.7 48.8026 328.099 48.8692C328.286 48.9003 328.473 48.7466 328.66 48.7776C329.208 48.8688 329.124 49.0717 329.781 48.9645C330.258 49.2792 330.69 49.086 331.23 49.383C331.478 49.3419 331.616 49.3278 331.863 49.3916C332.345 49.5164 332.774 49.454 333.239 49.6685C333.615 49.842 333.599 49.7878 333.986 49.7118C333.899 49.2787 333.667 49.2431 333.324 48.9879L333.499 48.6104L333.008 48.1136L333.107 47.5739L332.902 47.2928C332.326 47.079 332.213 46.6777 331.71 46.3861L331.444 46.2485C331.232 45.6079 331.008 45.1366 330.597 44.5999L330.378 44.5131C329.379 43.9749 329.762 42.8854 329.454 42.001L328.608 41.8302L326.894 41.4784L326.419 41.4231C325.898 41.2893 325.527 41.1589 324.985 41.1043C324.363 41.0419 323.796 40.7979 323.156 40.7306C321.782 40.5863 320.091 40.2783 318.757 39.8971C318.126 39.7174 317.509 39.6837 316.888 39.5234C316.527 39.4307 316.25 39.3395 315.874 39.3077C315.452 39.2719 315.632 39.3182 315.206 39.1732C314.605 38.9687 314.048 38.9702 313.429 38.8648C312.858 38.768 312.281 38.4948 311.705 38.4675C311.464 38.4561 311.399 38.3534 311.205 38.2121Z" fill="url(#paint2_linear_4689_7440)"/>
<path d="M130.754 0.648438C137.022 0.978135 143.538 0.936619 149.754 1.76379C152.971 2.19174 156.146 3.00846 159.313 3.70847C161.132 4.11066 163.121 4.69189 164.991 4.61408L212.719 2.57331L283.869 20.1431L283.877 30.1141C284.263 30.1343 284.637 30.0988 284.978 30.2928L284.798 30.5249L285.098 30.702C285.074 31.2316 285.024 31.7183 284.931 32.2401L284.491 32.2939L284.274 32.2409L284.077 32.1874C283.608 32.0944 283.077 32.1594 282.6 32.178L150.95 6.76022C150.658 6.68998 150.812 6.678 150.509 6.8238L151.236 7.72311L150.653 7.94437C150.291 7.59603 149.885 7.25517 149.625 6.82191L149.532 6.63612C149.098 6.42836 148.749 6.1454 148.329 5.93458L146.355 4.95422L145.607 4.6728L143.832 3.92037C142.93 3.6195 142.037 3.33501 141.122 3.08537C140.873 3.01702 140.622 2.96614 140.375 2.89851C140.207 2.85258 140.043 2.79161 139.872 2.75757L138.693 2.5191L136.637 2.13447L135.982 2.03207C134.627 1.64518 133.099 1.63104 131.684 1.3914C131.404 1.09809 131.082 0.883215 130.754 0.648438Z" fill="#FDD298"/>
<path d="M164.99 4.61108L212.719 2.57031C212.741 5.4315 212.757 8.29269 212.789 11.154C212.802 12.2772 213.035 13.9262 212.712 14.9878C208.47 13.8242 203.998 13.0991 199.686 12.1991C191.271 10.4423 182.868 8.70695 174.479 6.8299C172.476 6.38178 170.461 5.97472 168.453 5.54596C167.306 5.30101 166.041 5.13251 164.99 4.61108Z" fill="#DB7714"/>
<path d="M212.72 2.57031L283.869 20.1401L283.878 30.1111L212.713 14.9877C213.036 13.9262 212.803 12.2771 212.791 11.1539C212.758 8.29269 212.742 5.4315 212.72 2.57031Z" fill="#F8AE33"/>
<path d="M86.3813 0.591419C87.3265 0.357091 88.3944 0.408244 89.3673 0.376094C91.0903 0.319268 92.8138 0.265857 94.5372 0.214615C102.284 -0.0148496 110.092 -0.0918468 117.839 0.1414C121.119 0.240462 124.398 0.423189 127.679 0.522612C128.695 0.553231 129.742 0.687775 130.754 0.645538C131.083 0.880226 131.405 1.09519 131.684 1.38859C133.099 1.62814 134.627 1.64237 135.982 2.02926L136.637 2.13166L138.693 2.51629L139.872 2.75475C140.043 2.7888 140.207 2.84968 140.375 2.8957C140.623 2.96333 140.873 3.01421 141.122 3.08256C142.037 3.33229 142.93 3.61668 143.833 3.91756L145.607 4.66998L146.355 4.95141L148.329 5.93177C148.749 6.14259 149.098 6.42555 149.532 6.63331L149.625 6.8191C149.885 7.25227 150.292 7.59313 150.653 7.94156L151.236 7.7203C152.349 8.99145 153.412 10.651 153.275 12.4062C153.056 15.2046 152.131 18.1021 151.473 20.8295C150.515 24.7947 149.648 28.7818 148.934 32.798C148.587 34.7464 148.139 36.652 147.982 38.6314C146.706 38.8646 145.262 39.0746 144.093 39.6552L143.148 40.5616L142.063 41.0355L141.836 40.9059C141.823 39.1481 142.127 37.3517 142.287 35.5972C142.503 34.991 142.629 34.3798 142.761 33.7508L110.841 34.1904L80.1196 34.6549L80.141 33.8633L79.9186 33.4522L79.5527 33.8229L84.1146 6.14638L83.6347 6.02751L85.2472 5.90412C85.405 4.10263 85.8281 2.31078 86.3813 0.591419Z" fill="url(#paint3_linear_4689_7440)"/>
<path d="M84.1145 6.14844L84.6767 6.16897L80.141 33.8653L79.9186 33.4542L79.5527 33.825L84.1145 6.14844Z" fill="#1B191B"/>
<path d="M139.324 10.0391C139.702 10.0872 140.128 10.1198 140.487 10.2465C141.024 10.4356 141.4 10.877 141.619 11.3857C141.901 12.0409 141.919 12.8124 141.61 13.4624C141.113 14.5056 139.958 14.9649 138.95 15.3537C138.407 15.3212 137.871 15.3055 137.384 15.0307C136.85 14.7291 136.425 14.1493 136.304 13.5502C136.16 12.8374 136.333 12.1875 136.726 11.5879C137.363 10.6188 138.227 10.26 139.324 10.0391Z" fill="#DB7714"/>
<path d="M86.3804 0.591419C87.3256 0.357091 88.3935 0.408244 89.3664 0.376094C91.0894 0.319268 92.8129 0.265857 94.5363 0.214615C102.283 -0.0148496 110.091 -0.0918468 117.838 0.1414C121.118 0.240462 124.397 0.423189 127.678 0.522612C128.694 0.553231 129.741 0.687775 130.753 0.645538C131.082 0.880226 131.404 1.09519 131.683 1.38859C133.098 1.62814 134.626 1.64237 135.981 2.02926L136.636 2.13166L138.692 2.51629L139.872 2.75475C140.042 2.7888 140.206 2.84968 140.374 2.8957C140.622 2.96333 140.872 3.01421 141.121 3.08256C142.036 3.33229 142.929 3.61668 143.832 3.91756L145.606 4.66998L146.354 4.95141L148.328 5.93177C148.748 6.14259 149.097 6.42555 149.531 6.63331L149.624 6.81909C149.884 7.25227 150.291 7.59313 150.652 7.94156L151.235 7.7203C152.348 8.99145 153.411 10.651 153.274 12.4062C153.055 15.2046 152.13 18.1021 151.472 20.8295C150.514 24.7947 149.647 28.7818 148.933 32.798C148.586 34.7464 148.138 36.652 147.981 38.6314C146.705 38.8646 145.261 39.0746 144.092 39.6552C143.651 38.5107 147.643 20.0733 148.069 17.0062C148.125 16.6029 148.209 16.2011 148.175 15.7914C147.977 13.4192 146.514 10.9324 144.765 9.38048C143.974 8.67858 143.121 8.19263 142.101 7.90598C138.808 6.98011 134.697 7.06198 131.28 6.79587C115.997 5.60694 100.564 5.0294 85.2461 5.90403C85.4041 4.10263 85.8271 2.31078 86.3804 0.591419Z" fill="#FBD67C"/>
<path d="M219.624 169.469C221.816 169.407 224.083 168.853 226.25 168.489C229.463 167.948 232.683 167.455 235.902 166.954C247.922 165.083 259.939 163.248 271.987 161.564C274.761 161.177 277.534 160.789 280.307 160.398C281.805 160.187 283.38 159.822 284.896 159.902L285.284 161.467C285.917 163.985 286.975 168.091 289.369 169.475C291.075 170.461 297.293 169.972 299.413 169.707C299.876 169.538 300.234 169.278 300.634 168.997C300.799 169.166 301.187 169.673 301.375 169.754C301.946 170.002 303.268 169.924 303.924 169.932L308.058 169.916C310.62 169.951 313.34 170.157 315.856 169.639C318.054 167.659 318.772 165.233 319.73 162.524C323.393 163.12 327.368 163.029 331.086 163.224C342.036 163.796 353.081 163.813 364 164.83C348.711 168.657 333.037 171.189 317.575 174.235C287.412 180.175 257.21 185.922 227.042 191.835C209.496 195.274 191.911 198.532 174.381 202.046C168.474 203.229 162.56 204.37 156.654 205.56C153.646 206.166 150.344 207.134 147.288 207.369C142.919 207.705 138.382 207.425 133.99 207.397C125.565 207.345 117.145 207.274 108.72 207.167C88.4885 206.911 68.2929 206.19 48.088 205.141C32.0578 204.309 15.9562 203.354 0 201.565C20.7951 198.824 41.5231 195.283 62.2266 191.926C65.6413 191.372 69.0546 190.79 72.4764 190.28C73.9054 190.068 76.056 190.104 77.3354 189.55L93.8863 189.579C97.307 189.691 100.459 189.306 103.051 186.949C104.135 187.064 105.515 186.586 106.6 186.393C109.041 185.959 111.492 185.568 113.943 185.204C125.269 183.523 136.554 181.577 147.869 179.83C155.517 178.65 163.195 177.69 170.836 176.449L170.978 176.167L171.222 176.139L171.273 176.476C172.758 175.896 175.141 175.967 176.772 175.796C181.094 175.341 185.375 174.791 189.716 174.538C190.277 178.589 191.726 182.226 193.758 185.758C194.684 187.368 195.678 189.016 197.187 190.155L199.237 191.44C201.546 191.465 204.341 191.834 206.355 190.509C211.938 186.834 213.364 178.328 214.629 172.247C214.831 171.179 214.901 169.951 215.317 168.951L219.624 169.469Z" fill="#67747E"/>
<path d="M219.624 169.469C221.816 169.407 224.083 168.853 226.25 168.489C229.463 167.948 232.683 167.455 235.902 166.954C247.922 165.083 259.939 163.248 271.987 161.564C274.761 161.177 277.534 160.789 280.307 160.398C281.805 160.187 283.38 159.822 284.896 159.902L285.284 161.467C271.785 163.734 258.185 165.425 244.677 167.64C238.131 168.713 231.569 169.66 225.018 170.693C221.653 171.224 218.018 172.127 214.629 172.246C214.831 171.179 214.901 169.951 215.317 168.951L219.624 169.469Z" fill="white"/>
<path d="M171.273 176.477C172.758 175.898 175.142 175.969 176.773 175.797C181.094 175.343 185.376 174.792 189.716 174.539C190.278 178.591 191.727 182.227 193.758 185.759C194.685 187.369 195.679 189.017 197.187 190.157L199.238 191.441C195.04 191.492 190.844 191.581 186.646 191.621C184.929 191.637 182.911 191.842 181.225 191.587C180.219 191.434 179.318 190.932 178.499 190.351C174.383 187.433 172.161 181.234 171.273 176.477Z" fill="#1B191B"/>
<path d="M24.2 40.4718C26.0785 32.9625 28.376 25.4829 31.9272 18.5805C32.7937 16.8963 33.6339 15.0891 34.9256 13.6805C36.2835 12.2003 38.199 11.1676 40.1094 10.5864C45.2361 9.02589 51.1184 8.78598 56.4413 8.25105C65.4783 7.34283 74.5587 6.43867 83.6337 6.03125L84.1137 6.15012L79.5518 33.8267L79.9176 33.4559L80.14 33.867L80.1187 34.6587L110.84 34.1941L142.76 33.7545C142.628 34.3836 142.502 34.9947 142.286 35.601C142.126 37.3554 141.822 39.1518 141.835 40.9096L142.062 41.0393L143.147 40.5653L144.092 39.6589C145.261 39.0784 146.705 38.8684 147.981 38.6351L148.54 38.64C149.06 39.1808 149.226 39.127 149.947 39.2395L155.865 39.0702L155.604 38.6972L156.423 38.5182L166.383 39.8421C167.383 39.9482 168.455 40.1534 169.456 40.0383L170.068 40.3706L170.131 41.8657C169.868 41.9293 169.666 41.9737 169.393 41.9763C169.334 44.2126 169.674 46.5214 169.866 48.752C170.172 52.3073 170.435 55.8753 170.68 59.4359C171.091 65.3918 171.679 71.3329 172.102 77.2856C172.675 85.356 173.074 93.4474 173.702 101.512L174.666 101.163L175.077 101.51L175.601 101.18C175.934 101.537 175.949 102.103 176.052 102.579L177.595 145.483L177.58 148.41L177.639 151.152L177.589 151.32L176.95 151.656C176.793 153.401 177.124 155.529 176.672 157.185L176.62 172.696C170.063 173.478 163.523 174.255 156.949 174.882C152.48 175.307 147.902 175.811 143.412 175.591L67.5705 175.373L18.8514 175.305C17.2405 173.611 16.2704 171.313 15.35 169.195C13.8217 165.677 12.4774 162.069 11.4848 158.362C10.3159 154.472 9.77675 150.273 9.61113 146.223C9.50559 143.642 9.69462 141.011 9.79737 138.429C10.0008 133.315 10.3057 128.217 10.6136 123.109C11.6939 105.191 13.0182 87.3531 15.9105 69.6181C17.4041 60.46 19.7338 51.4443 21.4114 42.3224L21.5679 42.2734C22.2722 42.1359 22.9583 42.2723 23.6634 42.0847C23.9195 41.6201 23.941 41.2587 23.97 40.7444L21.6373 40.6329L21.7663 40.5424L24.2 40.4718Z" fill="#F8AE33"/>
<path d="M143.291 151.555L176.649 148.43L176.599 151.261L143.508 154.215L143.03 153.899L143.008 151.843L143.291 151.555Z" fill="white"/>
<path d="M22.8958 147.981C20.4412 147.086 15.1456 145.855 13.6168 143.715C12.4883 142.136 12.2779 138.784 12.6529 136.922L12.7 136.707L12.9175 135.773C13.1517 134.941 13.6305 134.15 14.4239 133.749C14.8595 133.529 15.1264 133.513 15.5761 133.653C18.1421 134.455 20.6572 135.672 23.1124 136.769C24.6688 137.465 26.4711 138.124 27.8679 139.102C28.5194 139.558 28.9245 140.099 29.2912 140.793C30.7459 142.587 33.3489 148.872 33.3586 151.191C32.6775 151.443 31.9647 151.11 31.3267 150.857C30.377 150.787 29.3289 150.282 28.4285 149.976C26.565 149.345 24.7257 148.71 22.8958 147.981Z" fill="#8D949E"/>
<path d="M16.1252 137.699L16.1172 137.492C17.0638 136.936 17.6692 136.8 18.7487 137.076L19.0239 137.15L19.2481 137.201C20.3088 137.457 20.9747 138.051 21.5161 138.969C21.8499 139.535 21.9774 140.65 21.7921 141.285C21.6067 141.921 21.1446 142.87 20.6099 143.272L20.5243 143.242L21.0913 141.537C21.1248 140.524 20.9159 139.501 20.3004 138.674C19.5875 137.715 18.6968 137.486 17.5634 137.318L16.1252 137.699Z" fill="#67747E"/>
<path d="M22.9825 146.019C22.9032 144.665 22.7811 143.667 23.5712 142.502L23.8831 142.453C23.3534 143.591 23.0883 144.753 23.4768 145.992C23.571 146.292 23.7364 146.637 23.9614 146.854C25.2919 148.288 27.0738 148.852 28.9723 149.097L28.9899 149.325C29.5652 149.751 30.0099 150.09 30.6712 150.355C30.9619 150.472 31.1313 150.623 31.3275 150.858C30.3777 150.788 29.3297 150.283 28.4293 149.977C26.5657 149.346 24.7264 148.71 22.8965 147.982C23.3235 147.997 23.6797 147.984 24.0989 147.899C24.0794 147.289 23.3333 146.558 22.9825 146.019Z" fill="#5B6872"/>
<path d="M17.5627 137.32C18.6961 137.488 19.5868 137.717 20.2997 138.676C20.9152 139.503 21.1241 140.526 21.0906 141.539L20.5236 143.244C19.9664 143.584 19.4201 143.923 18.7773 144.072C18.0708 144.236 17.2526 144.146 16.647 143.717C15.8168 143.128 15.1863 142.111 15.0573 141.1C14.8734 139.66 15.2495 138.807 16.1246 137.701L17.5627 137.32Z" fill="white"/>
<path d="M23.8824 142.448C24.704 141.695 25.5084 140.92 26.6921 140.954C28.0571 140.994 28.8961 141.702 29.8003 142.636L30.3459 143.805C30.7803 145.18 31.1698 146.451 31.0341 147.916C30.4353 148.714 29.9064 148.864 28.9716 149.092C27.073 148.847 25.2911 148.283 23.9607 146.849C23.7356 146.632 23.5703 146.287 23.4761 145.987C23.0876 144.748 23.3527 143.586 23.8824 142.448Z" fill="white"/>
<path d="M112.831 151.209L105.416 152.783C104.927 152.835 104.159 152.917 103.781 152.541C103.444 152.206 103.239 151.899 103.208 151.432C103.033 148.747 105.449 144.695 106.634 142.343C107.092 141.435 107.624 140.018 108.352 139.304C109.495 138.184 112.843 137.931 114.415 137.548C118.64 136.52 122.855 135.465 127.096 134.5C128.728 134.129 131.058 133.324 132.711 133.535C133.258 133.605 133.482 133.967 133.799 134.369C134.307 137.064 131.875 144.161 130.445 146.558C128.931 147.612 126.642 147.908 124.862 148.283C122.978 148.68 121.11 149.151 119.216 149.495L112.831 151.209Z" fill="#8D949E"/>
<path d="M120.582 142.756L120.502 143.003L120.337 143.018C119.941 142.377 119.691 142.075 119.873 141.283C120.097 140.313 120.684 139.428 121.471 138.836L121.946 139.414C121.015 140.565 120.716 141.281 120.582 142.756Z" fill="#7C8085"/>
<path d="M121.471 138.839C122.662 137.913 123.64 137.472 125.143 137.237L125.445 137.187C126.732 136.993 127.679 137.324 128.701 138.098C129.507 138.709 130.294 139.927 130.411 140.95C130.491 141.65 130.28 142.463 130.158 143.155L129.872 143.335L129.673 143.245C129.735 142.547 129.811 141.841 129.601 141.159C129.252 140.027 128.313 138.976 127.292 138.404C126.451 137.933 125.238 137.851 124.317 138.123L124.115 138.188C123.245 138.46 122.656 138.864 121.946 139.417L121.471 138.839Z" fill="#7C8085"/>
<path d="M110.086 149.142L109.819 149.315C109.217 148.729 108.754 148.325 108.431 147.54L108.286 147.243C108.123 146.826 108.154 146.449 108.145 146.013C108.14 145.746 108.036 145.625 108.008 145.392C107.993 145.271 108.056 145.028 108.075 144.926L108.109 144.711C108.2 144.174 108.297 143.883 108.621 143.431L108.728 143.276C109.333 142.411 110.263 141.78 111.235 141.398L111.426 141.322C112.349 140.976 113.69 140.995 114.581 141.399L114.843 141.515C116.172 142.127 117.717 143.389 118.153 144.831C118.64 146.447 118.114 147.718 117.351 149.13L117.413 149.511C117.888 149.521 118.368 149.594 118.789 149.339L119.217 149.492L112.832 151.206L113.718 150.152L113.904 150.071L114.211 149.929C114.767 149.676 115.271 149.43 115.747 149.039C116.583 148.351 117.309 147.368 117.386 146.255C117.484 144.823 116.652 143.845 115.747 142.841C114.702 142.152 113.833 141.683 112.541 141.989C111.088 142.334 109.846 143.209 108.922 144.358C108.537 145.256 108.446 146.314 108.822 147.236C109.1 147.919 109.616 148.576 110.086 149.142Z" fill="#7C8085"/>
<path d="M108.92 144.363C109.843 143.214 111.086 142.339 112.539 141.994C113.831 141.688 114.7 142.157 115.745 142.846C116.65 143.85 117.482 144.828 117.383 146.26C117.307 147.372 116.581 148.356 115.745 149.043C115.269 149.435 114.765 149.681 114.209 149.934L113.902 150.076L113.716 150.157C112.251 150.152 111.333 149.876 110.084 149.147C109.615 148.581 109.098 147.924 108.82 147.24C108.444 146.319 108.535 145.26 108.92 144.363Z" fill="white"/>
<path d="M121.945 139.417C122.654 138.865 123.244 138.461 124.113 138.188L124.315 138.123C125.237 137.852 126.449 137.934 127.29 138.404C128.312 138.976 129.25 140.027 129.599 141.16C129.809 141.842 129.733 142.547 129.671 143.246C129.065 144.507 128.283 145.604 126.961 146.184C125.818 146.686 124.71 146.679 123.553 146.22C122.297 145.722 121.4 144.693 120.881 143.473L120.788 143.249L120.58 142.76C120.715 141.284 121.013 140.568 121.945 139.417Z" fill="white"/>
<path d="M69.1087 107.964L70.0109 107.953C70.6732 108.262 71.4933 108.183 72.2158 108.196C73.9247 108.227 75.6313 108.235 77.3405 108.2C81.1867 108.201 85.0327 108.235 88.8788 108.26C89.6178 108.265 91.318 108.502 91.9691 108.281C92.1258 108.228 92.2514 108.108 92.3926 108.021L92.6019 108.15L92.7293 108.287C93.7359 109.389 94.6411 110.591 95.5569 111.768C95.7703 112.042 96.3082 112.573 96.4207 112.882C96.4839 113.056 96.463 113.624 96.4421 113.816L96.3352 114.234C97.2352 115.235 98.4066 115.933 99.4244 116.807C100.94 118.108 102.33 119.527 103.898 120.778C104.69 121.411 105.75 121.978 106.448 122.676L60.842 123.335C60.6812 122.057 60.1834 120.841 59.933 119.575C59.1877 115.808 59.1357 112.173 59.5057 108.362C57.9661 108.366 50.8014 108.732 49.9746 108.166L55.8585 108.134C58.9272 108.122 61.9955 108.115 65.0641 108.11C66.2221 108.108 68.0408 108.327 69.1087 107.964Z" fill="url(#paint4_linear_4689_7440)"/>
<path d="M33.6845 142.71C33.2996 142.001 33.0305 141.437 32.9355 140.631C33.0885 140.392 33.109 140.23 33.4016 140.151C34.2919 139.91 35.6222 140.103 36.5532 140.124C38.6381 140.172 40.723 140.195 42.8083 140.227C52.8358 140.38 62.8576 140.592 72.887 140.67C80.0267 140.725 87.1542 140.723 94.2935 140.659C95.9126 140.644 97.5319 140.635 99.1506 140.624C99.7091 140.62 100.471 140.505 100.955 140.798C101.254 141.416 101.192 141.772 100.967 142.42C99.8944 145.511 98.3893 148.51 97.0011 151.47C96.1141 153.361 95.2723 155.596 93.984 157.236L42.0995 156.769C41.6293 156.238 41.2372 155.755 40.8934 155.134C40.4916 154.512 40.1884 153.819 39.8592 153.156L39.1401 151.845L38.0165 149.779L37.044 148.351L35.7844 146.368L34.9367 144.92C34.4575 144.234 34.0859 143.445 33.6845 142.71Z" fill="#67747E"/>
<path d="M61.2234 153.12C60.4672 153.035 59.5687 153.031 58.8652 152.743C59.9185 152.469 73.1365 152.367 73.9132 152.71C73.0741 152.779 70.1498 152.554 69.591 152.916C70.5202 152.96 71.4804 152.856 72.3943 152.945C72.6899 152.974 72.9108 152.871 73.1885 152.871C73.6815 152.871 74.058 152.945 74.573 152.888C74.8451 152.858 75.0824 152.919 75.3493 152.945C76.2321 153.032 77.1568 152.846 78.0476 152.871C79.0369 152.898 80.0393 153.069 81.0377 152.962C82.0973 152.85 83.274 152.749 84.3325 152.922C84.8345 153.004 85.3611 152.904 85.8967 152.962H87.9524V153.064C87.2146 153.081 86.4607 153.066 85.7292 153.17L61.2234 153.12Z" fill="#7C8085"/>
<path d="M39.8613 153.157C40.4407 152.829 41.5919 152.962 42.2598 152.974C44.1601 153.005 46.0596 153.07 47.9598 153.094C52.3786 153.152 56.8055 153.19 61.2242 153.125L85.73 153.174L94.3095 153.394C94.2419 153.969 93.9836 154.612 93.5597 155.024C93.4655 155.116 93.2334 155.298 93.0787 155.335C91.652 155.677 89.5354 155.395 88.0339 155.393C82.6794 155.384 77.328 155.283 71.9745 155.253C65.0052 155.213 58.0356 155.248 51.0662 155.231C47.7171 155.223 44.2217 155.429 40.8955 155.135C40.4938 154.513 40.1907 153.821 39.8613 153.157Z" fill="#4C4745"/>
<path d="M38.0176 149.777C39.0884 149.362 40.9554 149.672 42.11 149.701C44.3594 149.757 46.6117 149.763 48.8618 149.776C59.3333 149.835 69.8274 149.957 80.2973 149.827L95.9612 149.932L94.8055 152.042L88.5034 152.063L39.1411 151.844L38.0176 149.777Z" fill="#4C4745"/>
<path d="M35.7852 146.367L97.5939 146.59L96.6475 148.565L90.9655 148.629L37.0448 148.35L35.7852 146.367Z" fill="#4C4745"/>
<path d="M33.6855 142.712C39.5381 142.624 45.3789 142.797 51.2292 142.852C60.7756 142.943 70.327 143.002 79.8738 143.05C84.7746 143.075 89.6762 143.065 94.5775 143.062C95.5781 143.061 96.579 143.06 97.5796 143.059C97.7421 143.059 98.27 143.004 98.4176 143.059C98.5316 143.101 98.6251 143.185 98.7289 143.249C98.6889 143.915 98.5641 144.409 98.3058 145.024C97.7635 145.378 97.167 145.255 96.5315 145.254C95.0454 145.251 93.5589 145.249 92.0728 145.246C85.6903 145.233 79.3115 145.184 72.9299 145.123C60.2684 145.003 47.5998 144.947 34.9377 144.922C34.4585 144.236 34.0869 143.447 33.6855 142.712Z" fill="#4C4745"/>
<path d="M11.4844 158.359C17.8101 158.985 24.1842 159.236 30.5258 159.666C35.2353 159.985 39.9354 160.484 44.6382 160.886C46.6229 161.057 48.6076 161.226 50.592 161.399C51.4075 161.47 52.5222 161.401 53.2091 161.864C57.3935 162.155 61.6492 161.982 65.847 162.1C67.3253 162.142 68.9235 162.068 70.3805 162.281L79.191 162.344L134.319 163.25L142.567 173.689L143.411 175.588L67.5702 175.37L18.851 175.303C17.2402 173.608 16.27 171.31 15.3496 169.192C13.8213 165.674 12.4769 162.066 11.4844 158.359Z" fill="#DB7714"/>
<path d="M118.145 169.507L118.471 169.37C120.078 168.775 120.98 167.393 122.722 166.891C122.956 167.88 123.153 168.824 122.526 169.721C122.129 170.287 121.474 170.661 120.794 170.758C120.017 170.868 119.403 170.686 118.781 170.216C118.512 170.012 118.34 169.778 118.145 169.507Z" fill="white"/>
<path d="M118.145 169.505C117.902 168.874 117.841 168.321 117.923 167.649C118.015 166.89 118.504 166.076 119.137 165.641C119.607 165.318 120.322 165.229 120.871 165.346C121.708 165.525 122.304 166.19 122.722 166.889C120.98 167.391 120.078 168.773 118.472 169.368L118.145 169.505Z" fill="#BABDC6"/>
<path d="M21.7699 168.492C21.5528 168.146 21.2834 167.762 21.1871 167.357C20.9987 166.566 21.1548 165.643 21.6344 164.987C22.2043 164.208 23.0391 163.737 24.0037 163.657C24.6547 163.603 25.4327 163.805 25.907 164.272C26.8558 165.206 26.9264 166.065 26.8936 167.332C26.4115 166.589 24.1495 166.051 23.2437 165.774L22.8367 165.762C22.3872 166.113 21.9346 166.591 21.8094 167.17C21.7195 167.586 21.7549 168.069 21.7699 168.492Z" fill="#BABDC6"/>
<path d="M22.8366 165.758L22.4648 165.485C22.5014 164.982 22.6512 164.993 23.0051 164.662C23.6964 164.573 23.8011 164.639 24.4118 164.912L24.5484 165.298C24.0814 165.65 23.804 165.691 23.2436 165.771L22.8366 165.758Z" fill="#ACABAE"/>
<path d="M22.8365 165.758L23.2434 165.77C24.1492 166.048 26.4111 166.585 26.8934 167.328C26.4798 168.338 26.1259 169.145 25.0355 169.559C24.3737 169.811 23.6583 169.826 23.0125 169.521C22.5297 169.293 22.0989 168.905 21.7697 168.489C21.7546 168.065 21.7191 167.583 21.8091 167.167C21.9344 166.587 22.3869 166.109 22.8365 165.758Z" fill="white"/>
<path d="M53.2092 161.859C57.3936 162.15 61.6493 161.977 65.8471 162.096C67.3254 162.137 68.9236 162.063 70.3806 162.276L79.1911 162.339L84.8484 162.458L84.8615 173.125L52.7109 172.866L52.7711 162.636L52.7464 162.212L53.2092 161.859Z" fill="white"/>
<path d="M53.2108 161.859C57.3951 162.15 61.6509 161.977 65.8487 162.096C67.3269 162.137 68.9252 162.063 70.3821 162.276C68.6438 162.386 66.0419 161.814 64.6425 162.864L53.4231 162.901L53.315 169.239C53.0239 167.195 53.2063 164.848 53.1973 162.772L52.7727 162.636L52.748 162.212L53.2108 161.859Z" fill="#2C2D31"/>
<path d="M70.3806 162.285L79.1911 162.348L84.8484 162.467L84.8615 173.135L52.7109 172.875L52.7711 162.645L53.1957 162.782C53.2047 164.858 53.0223 167.205 53.3134 169.248L53.3231 172.542L84.4963 172.865L84.5236 163.015L64.6409 162.873C66.0403 161.823 68.6421 162.395 70.3806 162.285Z" fill="#1B191B"/>
<path d="M24.2004 40.4718C26.0789 32.9625 28.3764 25.4829 31.9276 18.5805C32.794 16.8963 33.6343 15.0891 34.9259 13.6805C36.2838 12.2003 38.1994 11.1676 40.1098 10.5864C45.2364 9.02589 51.1187 8.78598 56.4416 8.25105C65.4786 7.34283 74.559 6.43867 83.6341 6.03125L84.114 6.15012L79.5521 33.8267L79.918 33.4559L80.1404 33.867L80.119 34.6587L72.9453 84.8691L70.012 107.953L69.1097 107.964C68.0418 108.327 66.2231 108.108 65.0652 108.11C61.9965 108.115 58.9283 108.122 55.8596 108.134L49.9756 108.167C50.8025 108.732 57.9673 108.366 59.5068 108.362C59.1367 112.173 59.1887 115.808 59.934 119.576C60.1845 120.842 60.6823 122.057 60.843 123.335C53.1797 123.068 45.4527 123.195 37.7807 123.094C33.5366 123.039 29.0872 123.076 24.8786 122.498C21.9806 122.101 18.7807 121.423 16.1319 120.162C15.3444 119.788 14.4646 119.289 13.9699 118.541C13.3981 117.677 13.5252 116.52 13.5675 115.539C13.6514 113.593 13.8071 111.65 13.9225 109.705C15.2652 87.0741 18.2584 64.6438 23.7115 42.6135L23.4769 42.3387L21.5683 42.2737C22.2725 42.1362 22.9587 42.2726 23.6637 42.0849C23.9199 41.6203 23.9414 41.2589 23.9704 40.7446L21.6377 40.6332L21.7667 40.5427L24.2004 40.4718Z" fill="#96B5BA"/>
<path d="M36.8906 107.927C38.4339 104.457 40.9516 101.266 43.266 98.2792C45.1879 95.7978 47.0941 93.2042 48.8258 90.5859L49.1978 90.6367L49.3121 91.0105C47.5917 93.69 45.5135 96.1139 43.7695 98.7662C43.392 99.34 43.312 99.9761 42.9786 100.542C42.5338 101.296 41.8024 101.996 41.2821 102.716C40.0314 104.447 38.8862 106.39 37.5025 108.004L37.4135 108.116L36.8906 107.927Z" fill="#1B191B"/>
<path d="M56.5818 89.3438L57.3473 90.6953C56.8839 91.0418 56.8009 91.081 56.2268 91.1438C54.1445 92.911 52.4831 95.5483 50.8463 97.7352L50.8677 97.9535L51.3887 98.109C51.3282 99.045 49.8753 100.461 49.2538 101.235C47.432 103.503 45.685 105.881 43.7418 108.045L43.476 108.014L43.9922 107.062C44.1196 106.807 44.246 106.652 44.4067 106.425L45.1562 105.396L45.3412 105.117L45.5647 104.848C45.7729 104.594 45.9172 104.362 46.0906 104.088C46.3022 103.753 46.2443 103.851 46.5006 103.54C46.7986 103.179 46.6711 103.355 46.8763 103.019C47.3551 102.237 48.0339 101.811 48.3313 100.912L48.1463 100.727C47.7169 101.143 47.404 101.429 47.1192 101.941L44.9712 104.744L44.4105 105.491L43.8503 106.239L43.6242 106.508C43.2889 106.913 43.4773 106.66 43.2593 107.018C43 107.444 42.6041 107.74 42.3357 108.142L42.2266 107.645C42.7465 106.343 44.2501 104.766 45.1158 103.613C46.0054 102.43 46.769 101.128 47.6642 99.9684C48.8214 98.4699 50.18 97.1105 51.3652 95.6259C52.4955 94.2093 53.5522 92.6436 54.8611 91.3862L56.5818 89.3438Z" fill="#1B191B"/>
<path d="M79.5518 33.8239L79.9177 33.4531L80.14 33.8642L80.1187 34.6559L72.945 84.8663L70.0116 107.95L69.1094 107.962L71.5052 88.9554L79.1473 34.628L79.5518 33.8239Z" fill="#2C2D31"/>
<path d="M55.8594 108.128C57.7054 105.774 70.3295 88.4326 71.3192 88.1875L71.5053 88.9526L69.1095 107.959C68.0416 108.322 66.2229 108.102 65.065 108.104C61.9963 108.11 58.9281 108.116 55.8594 108.128Z" fill="#B5CBCD"/>
<path d="M24.2005 40.4718C26.079 32.9625 28.3765 25.4829 31.9277 18.5805C32.7941 16.8963 33.6344 15.0891 34.926 13.6805C36.2839 12.2003 38.1995 11.1676 40.1099 10.5864C45.2365 9.02589 51.1188 8.78598 56.4417 8.25105C65.4787 7.34283 74.5591 6.43867 83.6342 6.03125L84.1141 6.15012L79.5522 33.8267L79.1478 34.6307L59.0673 35.0657C52.5088 35.3326 45.9394 35.395 39.3771 35.555C36.1488 35.6339 32.5543 35.3536 29.4049 36.1082C27.9498 38.6315 27.3713 42.1076 26.6811 44.9262C24.4276 54.128 22.7976 63.3542 21.3195 72.7018C20.234 79.5665 19.1636 86.4517 18.4581 93.3668L16.9403 108.142C21.9193 108.163 26.8983 108.176 31.8774 108.174C32.9445 108.174 35.9889 108.511 36.8489 107.978L36.8901 107.933L37.4129 108.122L37.5019 108.01C38.7537 108.275 40.0114 108.042 41.2729 108.16L41.4359 108.21L42.226 107.654L42.3352 108.151C42.6035 107.749 42.9993 107.453 43.2588 107.027C43.4767 106.669 43.2883 106.922 43.6236 106.517L43.8497 106.248L44.41 105.5L44.9707 104.753L47.1187 101.95C47.4036 101.438 47.7163 101.152 48.1458 100.736L48.3308 100.921C48.0332 101.82 47.3545 102.246 46.8757 103.028C46.6705 103.364 46.798 103.188 46.5001 103.549C46.2437 103.86 46.3016 103.762 46.0901 104.097C45.9166 104.371 45.7724 104.603 45.5641 104.857L45.3406 105.126L45.1556 105.405L44.4062 106.434C44.2454 106.661 44.1191 106.816 43.9917 107.071L43.4755 108.023L43.7412 108.054L49.9757 108.166C50.8025 108.732 57.9673 108.366 59.5068 108.362C59.1367 112.173 59.1887 115.808 59.934 119.575C60.1845 120.841 60.6823 122.057 60.843 123.335C53.1797 123.067 45.4527 123.194 37.7807 123.094C33.5366 123.039 29.0872 123.076 24.8786 122.498C21.9806 122.101 18.7807 121.423 16.1319 120.162C15.3444 119.788 14.4646 119.288 13.9699 118.541C13.3981 117.677 13.5252 116.52 13.5675 115.539C13.6514 113.592 13.8071 111.65 13.9225 109.705C15.2652 87.0739 18.2584 64.6436 23.7115 42.6132L23.4769 42.3384L21.5683 42.2734C22.2725 42.1359 22.9587 42.2723 23.6637 42.0847C23.9199 41.6201 23.9414 41.2587 23.9704 40.7444L21.6377 40.633L21.7667 40.5424L24.2005 40.4718Z" fill="#2C2D31"/>
<path d="M32.5434 119.165L33.2883 119.263C35.1314 119.427 36.0751 117.492 37.386 116.447L37.6174 116.266C37.7112 117.171 37.1494 117.773 36.594 118.479C35.9148 119.341 34.6066 120.727 33.4752 120.833C32.6114 120.913 31.739 120.825 30.9523 120.454L30.6309 120.072C30.7071 119.531 30.7591 119.302 31.1111 118.859L31.3672 118.87C31.7858 119.033 32.0871 119.159 32.5434 119.165Z" fill="#1B191B"/>
<path d="M38.4326 13.9062C38.827 13.9287 39.1899 13.9926 39.5419 14.1854C40.1661 14.5266 40.6632 15.2257 40.8497 15.9041C41.0298 16.5585 40.9458 17.2496 40.5933 17.835C40.0555 18.7287 39.3169 18.9267 38.3537 19.1611L37.8955 19.0605C37.0209 18.8531 36.4158 18.584 35.9437 17.7819C35.6548 17.2904 35.5938 16.5896 35.7886 16.0417C36.1841 14.9289 37.4239 14.3305 38.4326 13.9062Z" fill="#E25F1A"/>
<path d="M37.4129 108.121L37.5018 108.008C38.7536 108.273 40.0114 108.04 41.2728 108.158L39.2687 110.918L39.3602 111.198C38.2715 112.8 36.7793 114.144 35.6225 115.684C34.7827 116.802 33.7372 118.417 32.5434 119.168C32.087 119.162 31.7858 119.037 31.3672 118.873C32.4231 117.249 33.5032 115.651 34.4269 113.945C34.9348 113.007 35.4585 112.072 35.9432 111.122C36.2655 110.49 36.539 109.698 36.9726 109.14C37.2686 108.759 37.3392 108.611 37.4129 108.121Z" fill="url(#paint5_linear_4689_7440)"/>
<path d="M110.84 34.1896L142.76 33.75C142.628 34.379 142.501 34.9902 142.285 35.5964C142.125 37.3509 141.822 39.1473 141.835 40.9051L142.062 41.0348L143.147 40.5608L144.092 39.6544C145.261 39.0739 146.705 38.8639 147.981 38.6306L148.54 38.6355C149.06 39.1763 149.226 39.1225 149.947 39.235L155.865 39.0657L155.604 38.6927L156.423 38.5136L166.383 39.8376C167.383 39.9437 168.455 40.1489 169.456 40.0338L170.068 40.3661L170.131 41.8612C169.868 41.9248 169.666 41.9692 169.393 41.9718C169.334 44.2081 169.674 46.5169 169.866 48.7475C170.172 52.3028 170.435 55.8708 170.68 59.4313C171.091 65.3873 171.679 71.3284 172.102 77.2811C172.675 85.3515 173.074 93.4429 173.702 101.507L174.666 101.159L175.077 101.505L175.601 101.176C175.934 101.533 175.949 102.099 176.051 102.574L177.594 145.478L177.579 148.406L177.639 151.148L177.589 151.315L176.95 151.651C176.793 153.397 177.124 155.525 176.672 157.18L176.599 151.261L176.649 148.43L176.616 145.539L143.685 148.591L143.176 148.495C142.802 148.022 142.908 147.262 142.882 146.657C142.826 145.304 142.785 143.93 142.568 142.592C142.406 141.597 142.088 140.577 141.716 139.641C140.455 136.469 138.468 133.81 136.812 130.869C135.673 128.848 134.818 126.684 133.744 124.631C132.902 123.022 131.881 121.529 131.01 119.941L113.365 122.18C111.183 122.455 108.624 122.734 106.448 122.671C105.751 121.973 104.691 121.406 103.899 120.774C102.331 119.522 100.941 118.103 99.4252 116.802C98.4074 115.928 97.236 115.231 96.336 114.229L96.4429 113.812C96.4638 113.619 96.4847 113.051 96.4215 112.877C96.309 112.569 95.7711 112.038 95.5577 111.764C94.6419 110.587 93.7367 109.385 92.7301 108.283L92.6027 108.145L92.3934 108.017C92.2521 108.104 92.1265 108.223 91.9699 108.276C91.3188 108.497 89.6186 108.261 88.8796 108.256C85.0335 108.23 81.1875 108.197 77.3413 108.195C75.6321 108.231 73.9255 108.223 72.2166 108.192C71.494 108.179 70.674 108.258 70.0117 107.949L72.945 84.8645L80.1188 34.6541L110.84 34.1896Z" fill="#FBD67C"/>
<path d="M175.078 101.509L175.602 101.18C175.935 101.537 175.95 102.103 176.053 102.578L177.595 145.482L177.581 148.41L177.64 151.152L177.59 151.319L176.951 151.655C176.794 153.401 177.125 155.529 176.673 157.184L176.6 151.264L176.65 148.434L176.617 145.543L175.078 101.509Z" fill="#DB7714"/>
<path d="M143.584 73.8672L143.722 73.8731L145.22 74.4779C143.482 86.711 141.914 99.0513 142.014 111.43C142.031 113.55 141.88 115.897 142.317 117.964C141.323 118.17 140.263 118.496 139.254 118.268L139.587 118.218C140.101 117.757 139.832 113.32 139.826 112.363C139.769 103.525 140.626 94.8973 141.627 86.1338C142.085 82.1241 142.272 77.6998 143.584 73.8672Z" fill="#FECE3D"/>
<path d="M141.836 40.9062L142.063 41.0359L142.149 41.4957L142.343 41.4844C142.891 41.4571 143.25 41.4669 143.764 41.6586C143.292 42.6236 143.312 43.9651 143.179 45.0393C142.93 47.0487 142.635 49.0521 142.321 51.0526C140.794 60.7867 139.48 70.5447 138.199 80.3139C137.128 88.4774 135.97 96.7591 135.556 104.987C135.323 109.617 135.404 114.284 135.464 118.918C134.435 119.591 132.229 119.723 131.011 119.942L113.366 122.181C111.184 122.456 108.624 122.736 106.449 122.672C105.752 121.974 104.692 121.407 103.9 120.775C102.332 119.523 100.942 118.105 99.426 116.803C98.4082 115.93 97.2368 115.232 96.3368 114.23L96.4437 113.813C96.4646 113.62 96.4856 113.052 96.4224 112.879C96.3099 112.57 95.772 112.039 95.5585 111.765C94.6428 110.588 93.7375 109.386 92.7309 108.284L92.6035 108.146L93.5017 107.868L94.0242 108.337L96.9269 108.293L93.486 103.895L94.3594 103.582L97.0831 106.756C97.5077 107.251 98.0373 108.062 98.6342 108.324L98.66 108.465C99.5854 108.462 100.563 108.392 101.481 108.49L116.494 108.627L130.24 108.652C131.167 108.491 132.184 108.557 133.127 108.545L137.564 66.1244L138.585 58.7092C138.924 57.8507 138.934 56.378 139.072 55.4454C139.474 52.7229 139.902 50.0048 140.335 47.2872C140.689 45.0596 140.785 42.9359 141.836 40.9062Z" fill="url(#paint6_linear_4689_7440)"/>
<path d="M98.6582 108.464C99.5836 108.462 100.561 108.391 101.479 108.49C102.461 109.205 104.315 108.713 105.517 109.025L99.0724 109.028L98.6582 108.464Z" fill="#4C4745"/>
<path d="M101.48 108.484L116.493 108.622L130.239 108.646L133.085 108.677L133.43 108.676L133.545 109.322C133.22 109.587 133.389 109.547 133.07 109.54C128.901 109.451 124.733 109.326 120.564 109.259C117.732 109.213 114.89 109.306 112.067 109.051C111.384 109.194 110.596 109.098 109.894 109.088C108.436 109.067 106.977 109.044 105.519 109.02C104.317 108.708 102.462 109.199 101.48 108.484Z" fill="#2C2D31"/>
<path d="M94.3596 103.578L97.0833 106.753C97.5079 107.248 98.0375 108.059 98.6344 108.321L98.6602 108.461L99.0744 109.025L110.33 121.131C111.142 121.096 111.998 120.946 112.734 121.343L113.366 122.177C111.184 122.453 108.624 122.732 106.449 122.669C105.752 121.971 104.692 121.404 103.9 120.771C102.332 119.52 100.942 118.101 99.426 116.799C98.4082 115.926 97.2368 115.228 96.3368 114.227L96.4437 113.809C96.4646 113.616 96.4856 113.049 96.4224 112.875C96.3099 112.566 95.772 112.035 95.5585 111.761C94.6428 110.584 93.7375 109.382 92.7309 108.28L92.6035 108.143L93.5017 107.864L94.0242 108.333L96.9269 108.29L93.486 103.892L94.3596 103.578Z" fill="#5B6872"/>
<path d="M94.3598 103.578L97.0835 106.753C97.5081 107.248 98.0377 108.059 98.6346 108.321L98.6603 108.461L99.0745 109.025L110.33 121.131C109.665 121.025 109.021 121.132 108.358 121.206L96.9273 108.29L93.4863 103.892L94.3598 103.578Z" fill="url(#paint7_linear_4689_7440)"/>
<path d="M93.5019 107.867L94.0244 108.336C96.1702 111.381 98.9686 113.89 101.542 116.561C102.793 117.858 103.995 119.142 105.369 120.317C105.76 120.651 106.301 121.183 106.786 121.339C107.224 121.48 107.919 121.318 108.358 121.209C109.02 121.135 109.665 121.028 110.33 121.133C111.142 121.098 111.998 120.949 112.734 121.346L113.366 122.18C111.184 122.455 108.624 122.734 106.449 122.671C105.752 121.973 104.692 121.406 103.9 120.774C102.332 119.522 100.942 118.103 99.426 116.802C98.4082 115.929 97.2368 115.231 96.3368 114.229L96.4437 113.812C96.4646 113.619 96.4856 113.051 96.4224 112.877C96.3099 112.569 95.772 112.038 95.5585 111.764C94.6428 110.587 93.7375 109.385 92.7309 108.283L92.6035 108.145L93.5019 107.867Z" fill="#1B191B"/>
<path d="M101.382 108.257C102.834 106.32 104.465 104.541 105.995 102.67C109.788 98.0332 113.565 93.3813 117.348 88.7358C120.796 84.5006 124.334 80.351 127.83 76.1566C129.401 74.2721 130.985 72.4185 132.617 70.586C133.611 69.4684 134.586 68.2854 135.748 67.3382C136.354 66.8441 136.813 66.3818 137.564 66.125L133.127 108.546C132.185 108.557 131.168 108.492 130.24 108.652L116.494 108.628L101.481 108.491C100.564 108.392 99.5859 108.463 98.6605 108.466L98.6348 108.325L101.382 108.257Z" fill="#96B5BA"/>
<path d="M156.423 38.5156L166.383 39.8395C167.384 39.9457 168.455 40.1509 169.457 40.0358L170.069 40.3681L170.132 41.8632C169.868 41.9268 169.667 41.9712 169.393 41.9738C169.334 44.2101 169.674 46.5189 169.866 48.7495C170.172 52.3048 170.435 55.8728 170.68 59.4333C171.091 65.3893 171.679 71.3304 172.102 77.2831C172.675 85.3535 173.074 93.4449 173.703 101.509C173.502 102.064 173.267 102.423 172.878 102.858C171.14 104.799 169.254 106.62 167.448 108.499C162.489 113.659 157.447 118.737 152.467 123.878C150.532 125.876 148.593 127.872 146.669 129.881C146.05 130.528 145.139 131.763 144.391 132.217C143.899 132.516 143.584 132.34 143.083 132.211C142.93 132.059 142.715 131.95 142.624 131.755C142.551 131.598 142.577 130.94 142.567 130.737C142.518 129.689 142.525 128.638 142.521 127.588C142.513 125.436 142.513 123.283 142.511 121.131C142.51 120.163 142.643 118.867 142.316 117.962C141.88 115.894 142.031 113.547 142.014 111.428C141.914 99.0488 143.482 86.7085 145.219 74.4754L143.722 73.8707L143.583 73.8647L142.709 72.964C142.269 70.9161 142.805 68.2694 142.988 66.1584C143.276 62.843 143.468 59.5143 143.841 56.2071C143.993 53.9888 144.161 51.775 144.392 49.5634C144.491 48.6103 144.504 47.4449 144.879 46.5587C145.227 45.7353 145.898 45.4687 146.68 45.1533C146.682 43.751 146.573 42.245 147.007 40.8991L143.763 41.6597C143.249 41.4679 142.89 41.4582 142.343 41.4855L142.149 41.4968L142.063 41.037L143.148 40.5631L144.092 39.6566C145.261 39.0761 146.705 38.8661 147.982 38.6329L148.54 38.6377C149.061 39.1785 149.227 39.1248 149.947 39.2372L155.866 39.0679L155.604 38.6949L156.423 38.5156Z" fill="url(#paint8_linear_4689_7440)"/>
<path d="M156.422 38.5156L166.383 39.8395C167.383 39.9457 168.455 40.1509 169.456 40.0358L170.068 40.3681L170.131 41.8632C169.867 41.9268 169.666 41.9712 169.393 41.9738C168.627 41.5627 167.36 41.6475 166.492 41.6165C163.673 41.5985 160.835 40.9709 158.034 40.6831C155.929 40.4671 153.875 40.5105 151.768 40.6031C151.449 42.0227 151.126 43.4942 151.008 44.9449L148.413 44.8828L146.68 45.1531C146.682 43.7507 146.572 42.2448 147.007 40.8988L143.763 41.6594C143.249 41.4677 142.89 41.458 142.342 41.4852L142.149 41.4965L142.062 41.0368L143.148 40.5628L144.092 39.6564C145.261 39.0759 146.705 38.8659 147.982 38.6326L148.54 38.6375C149.061 39.1783 149.227 39.1245 149.947 39.237L155.865 39.0677L155.604 38.6946L156.422 38.5156Z" fill="url(#paint9_linear_4689_7440)"/>
<path d="M147.982 38.6328L148.541 38.6377C149.061 39.1785 149.227 39.1247 149.948 39.2372C148.419 39.4032 146.951 39.7145 145.453 40.0535C144.635 40.2384 144 40.5117 143.148 40.5629L144.093 39.6565C145.262 39.0761 146.706 38.8661 147.982 38.6328Z" fill="#4C4745"/>
<path d="M148.447 40.7185C149.393 40.4584 150.769 40.6034 151.77 40.5978C151.45 42.0173 151.127 43.4889 151.009 44.9395L148.414 44.8774L146.681 45.1477C146.683 43.7453 146.573 42.2394 147.008 40.8934L148.447 40.7185Z" fill="#454C55"/>
<path d="M148.447 40.7266L148.885 40.9313L148.414 44.8855L146.681 45.1557C146.683 43.7534 146.573 42.2474 147.008 40.9014L148.447 40.7266Z" fill="#FECE3D"/>
<path d="M166.832 76.4922L167.514 82.2781C164.837 85.1255 161.991 87.8103 159.324 90.6677C156.631 93.5525 153.965 96.466 151.296 99.3736C150.278 100.483 148.995 102.286 147.755 103.075L147.51 102.687L145.848 99.3612L166.832 76.4922Z" fill="white"/>
<path d="M148.414 44.8828L151.01 44.9449L154.194 45.2084C155.354 45.362 156.931 45.4468 157.916 46.1025C158.748 47.3011 158.395 50.2902 158.344 51.7505C158.236 54.8846 157.937 57.994 157.685 61.1176C157.369 65.0253 157.052 69.0199 156.397 72.8861C156.274 73.6135 156.167 74.423 155.663 74.9859C153.598 75.7551 149.907 75.5387 147.743 75.156C146.871 74.9792 146.061 74.7765 145.221 74.4753L143.723 73.8706L143.585 73.8646L142.711 72.9639C142.27 70.916 142.806 68.2693 142.989 66.1583C143.277 62.843 143.469 59.5142 143.842 56.2071C143.994 53.9887 144.163 51.7749 144.393 49.5633C144.492 48.6103 144.506 47.4448 144.88 46.5586C145.229 45.7352 145.9 45.4686 146.682 45.1533L148.414 44.8828Z" fill="url(#paint10_linear_4689_7440)"/>
<path d="M154.194 45.2031C155.354 45.3568 156.931 45.4416 157.916 46.0972C158.748 47.2959 158.395 50.2849 158.344 51.7453C158.236 54.8793 157.937 57.9887 157.685 61.1123C157.369 65.0201 157.052 69.0146 156.397 72.8808C156.274 73.6082 156.167 74.4178 155.663 74.9807C153.598 75.7499 149.907 75.5335 147.743 75.1507C146.871 74.9739 146.061 74.7713 145.221 74.4701L143.723 73.8653L143.585 73.8594L142.711 72.9586C142.27 70.9108 142.806 68.2641 142.989 66.1531C143.277 62.8377 143.469 59.509 143.842 56.2018L144.082 56.749L144.458 56.8025C144.79 62.1915 143.173 68.0395 144.839 73.3074C145.566 74.0038 146.533 74.1006 147.49 74.2217C149.982 74.5375 152.48 74.4748 154.983 74.4221C155.874 71.5489 156.044 68.3794 156.342 65.3959C156.78 61.0206 157.201 56.6261 157.361 52.2306C157.412 50.8234 157.731 48.1573 157.157 46.904C156.12 46.1408 154.435 46.0058 153.184 45.7749C153.777 45.6476 153.807 45.6629 154.194 45.2031Z" fill="#1B191B"/>
<path d="M148.412 44.8828L151.008 44.9449L154.191 45.2084C153.805 45.6681 153.775 45.6528 153.182 45.7799L151.345 45.6053C151.786 47.648 151.71 49.9676 151.606 52.0518C151.565 52.8786 151.572 53.8806 151.136 54.6177C150.296 56.0365 147.601 56.4999 146.072 56.7212L144.896 56.8427C144.597 56.331 144.668 55.7998 144.652 55.2182L144.456 56.8075L144.079 56.754L143.84 56.2068C143.992 53.9884 144.161 51.7747 144.391 49.5631C144.49 48.61 144.504 47.4446 144.878 46.5583C145.227 45.7349 145.897 45.4684 146.679 45.153L148.412 44.8828Z" fill="url(#paint11_linear_4689_7440)"/>
<path d="M148.412 44.8828L151.008 44.9449L154.191 45.2084C153.805 45.6681 153.775 45.6528 153.182 45.7799L151.345 45.6053C149.651 45.4921 147.498 45.3707 145.903 45.9884C144.916 46.9147 145.016 48.7125 144.931 49.9912C144.826 51.543 144.695 53.1103 144.65 54.6648L144.652 55.2183L144.456 56.8076L144.079 56.7541L143.84 56.2069C143.992 53.9885 144.161 51.7748 144.391 49.5631C144.49 48.6101 144.504 47.4447 144.878 46.5584C145.227 45.735 145.897 45.4685 146.679 45.1531L148.412 44.8828Z" fill="#1B191B"/>
<path d="M166.492 41.6172C167.361 41.6482 168.628 41.5633 169.393 41.9745C169.334 44.2108 169.674 46.5196 169.866 48.7502C170.172 52.3055 170.435 55.8735 170.68 59.4341C171.091 65.39 171.679 71.3312 172.102 77.2838C172.675 85.3542 173.074 93.4456 173.703 101.51C173.502 102.065 173.267 102.424 172.878 102.859C171.14 104.799 169.254 106.621 167.448 108.5C162.489 113.66 157.447 118.738 152.467 123.879C150.532 125.877 148.593 127.873 146.669 129.882C146.05 130.529 145.139 131.764 144.391 132.218C143.899 132.516 143.584 132.341 143.083 132.211C142.93 132.059 142.715 131.951 142.624 131.756C142.551 131.599 142.577 130.94 142.567 130.738C142.518 129.689 142.525 128.638 142.521 127.589C142.513 125.437 142.513 123.284 142.511 121.132C142.51 120.164 142.643 118.867 142.316 117.963C141.88 115.895 142.031 113.548 142.014 111.428C141.914 99.0496 143.482 86.7092 145.219 74.4761C146.06 74.7774 146.869 74.98 147.742 75.1568C147.122 82.579 145.801 89.936 145.228 97.3707C144.469 107.239 144.876 117.244 145.307 127.117L171.161 100.609L166.492 41.6172Z" fill="#454C55"/>
<path d="M110.84 34.1896L142.76 33.75C142.628 34.379 142.502 34.9902 142.286 35.5964C142.126 37.3509 141.823 39.1473 141.835 40.9051C140.785 42.9347 140.689 45.0584 140.334 47.286C139.901 50.0037 139.473 52.7218 139.071 55.4443C138.933 56.3768 138.924 57.8495 138.584 58.708L137.563 66.1233C136.812 66.38 136.352 66.8424 135.747 67.3365C134.585 68.2836 133.61 69.4666 132.615 70.5842C130.984 72.4168 129.399 74.2703 127.829 76.1549C124.333 80.3493 120.795 84.4989 117.346 88.734C113.564 93.3796 109.786 98.0316 105.994 102.668C104.463 104.539 102.833 106.319 101.381 108.255L98.6334 108.323C98.0365 108.061 97.5069 107.25 97.0823 106.755L94.3586 103.58L93.4851 103.894L96.9261 108.292L94.0234 108.336L93.5009 107.867L92.6027 108.145L92.3934 108.017C92.2521 108.103 92.1265 108.223 91.9699 108.276C91.3188 108.497 89.6186 108.26 88.8797 108.256C85.0335 108.23 81.1875 108.197 77.3413 108.195C75.6321 108.231 73.9255 108.223 72.2166 108.192C71.4941 108.179 70.674 108.257 70.0117 107.948L72.945 84.8644L80.1188 34.654L110.84 34.1896Z" fill="#B5CBCD"/>
<path d="M87.7135 97.1481L82.0781 90.7338L82.2598 90.4535L82.7183 90.3672L88.2879 96.4301L94.3579 103.583L93.4844 103.896L87.7135 97.1481Z" fill="#1B191B"/>
<path d="M85.0009 99.2635L79.5645 92.8803C79.8217 92.5308 79.8833 92.4071 80.291 92.2266L85.7451 98.5586L93.5023 107.867L92.6041 108.145L92.3948 108.016L85.0009 99.2635Z" fill="#1B191B"/>
<path d="M85.7441 98.5617C86.4618 98.2115 87.0983 97.6527 87.7147 97.1484L93.4857 103.897L96.9266 108.295L94.0239 108.339L93.5014 107.87L85.7441 98.5617Z" fill="#96B5BA"/>
<path d="M84.9999 99.2656L92.3939 108.019C92.2526 108.105 92.127 108.225 91.9704 108.278C91.3193 108.499 89.619 108.262 88.8801 108.257C85.034 108.232 81.1879 108.198 77.3418 108.197L84.9999 99.2656Z" fill="#96B5BA"/>
<path d="M80.119 34.6521L110.841 34.1875C101.983 46.0898 93.5855 58.3323 84.7582 70.2656C82.3646 73.5017 80.0473 76.7856 77.6114 79.9933C76.5765 81.3564 75.5576 82.8844 74.3581 84.1059C73.9421 84.5298 73.5283 84.7406 72.9453 84.8625L80.119 34.6521Z" fill="#96B5BA"/>
<path d="M88.2891 96.4252L142.286 35.5938C142.126 37.3482 141.823 39.1446 141.836 40.9024C140.785 42.932 140.689 45.0557 140.334 47.2834C139.901 50.001 139.474 52.7191 139.072 55.4416C138.934 56.3741 138.924 57.8468 138.584 58.7053L137.563 66.1206C136.812 66.3773 136.353 66.8397 135.747 67.3338C134.585 68.2809 133.61 69.4639 132.616 70.5815C130.984 72.4141 129.4 74.2676 127.829 76.1522C124.333 80.3466 120.795 84.4962 117.347 88.7313C113.564 93.3769 109.787 98.0289 105.994 102.665C104.464 104.537 102.833 106.316 101.381 108.252L98.6339 108.32C98.037 108.059 97.5073 107.247 97.0827 106.752L94.3591 103.578L88.2891 96.4252Z" fill="#96B5BA"/>
<path d="M97.082 106.758C98.5663 105.484 99.8498 103.883 101.125 102.405C103.513 99.6392 105.811 96.8173 108.109 93.9781C114.936 85.5444 121.985 77.2911 129.066 69.0727C132.073 65.5835 134.953 61.5315 138.362 58.4609L138.583 58.7106L137.562 66.1258C136.811 66.3826 136.352 66.8449 135.746 67.3391C134.585 68.2862 133.61 69.4692 132.615 70.5868C130.984 72.4193 129.399 74.2729 127.828 76.1574C124.332 80.3519 120.794 84.5014 117.346 88.7366C113.564 93.3822 109.786 98.0341 105.993 102.671C104.463 104.542 102.832 106.321 101.381 108.257L98.6331 108.325C98.0363 108.064 97.5066 107.253 97.082 106.758Z" fill="#B5CBCD"/>
<path d="M151.235 7.72423L150.508 6.82492C150.812 6.67912 150.658 6.6911 150.949 6.76134L282.6 32.1792C285.732 33.2862 289.411 33.7056 292.684 34.3635C298.101 35.4523 303.488 36.6906 308.904 37.7854C309.228 37.8508 309.057 37.8111 309.405 37.9218C309.973 38.1019 310.613 38.1424 311.205 38.2168C311.399 38.358 311.464 38.4608 311.705 38.4724C312.281 38.4997 312.857 38.7729 313.429 38.8697C314.048 38.9751 314.604 38.9737 315.205 39.1781C315.632 39.3231 315.451 39.2768 315.873 39.3126C316.25 39.3444 316.527 39.4356 316.887 39.5283C317.509 39.6887 318.126 39.7223 318.756 39.9021C320.09 40.2833 321.782 40.5913 323.156 40.7355C323.795 40.8028 324.362 41.0469 324.985 41.1093C325.526 41.1638 325.897 41.2942 326.419 41.4281L326.893 41.4834L328.608 41.8351L329.454 42.006C329.762 42.8903 329.379 43.9798 330.377 44.5181L330.596 44.6048C331.007 45.1416 331.232 45.6128 331.444 46.2535L331.71 46.391C332.213 46.6825 332.325 47.084 332.901 47.2978L333.106 47.5788L333.007 48.1186L333.498 48.6153L333.324 48.9928C333.667 49.2481 333.898 49.2836 333.986 49.7168C333.599 49.7927 333.614 49.8468 333.238 49.6735C332.774 49.459 332.345 49.5214 331.862 49.3965C331.615 49.3326 331.477 49.3468 331.229 49.388C330.69 49.0908 330.258 49.2841 329.781 48.9694C329.124 49.0767 329.207 48.8737 328.66 48.7825C328.473 48.7516 328.286 48.9051 328.099 48.8741C327.7 48.8076 327.767 48.5729 327.287 48.6513C326.916 48.7118 326.842 48.6454 326.509 48.5295C326.131 48.3979 325.596 48.3164 325.202 48.2675C324.775 48.2145 324.634 48.3542 324.231 48.1535C323.754 47.9162 323.15 48.0212 322.622 47.9595C322.088 47.8975 321.584 47.7038 321.03 47.6131L320.717 47.52L320.016 47.5193C319.663 47.2689 319.823 47.3485 319.409 47.3332L319.116 47.2666C318.813 47.1997 318.623 47.1814 318.322 47.1731C317.955 47.1634 317.766 47.1144 317.446 46.9138L316.839 46.9586L316.605 46.7269C315.906 46.8126 315.683 46.5632 315.11 46.5856L313.668 46.4219C313.331 46.3942 313.527 46.4222 313.221 46.3296C312.634 46.1524 311.949 46.1677 311.347 46.2429C315.987 47.325 320.902 47.9469 325.607 48.709C330.482 49.4984 335.332 50.4346 340.202 51.2458C342.838 51.685 345.731 51.8075 348.305 52.4452C348.78 52.5634 349.173 52.7405 349.45 53.161C350.501 54.7566 350.522 60.2959 350.728 62.3958C351.854 73.8955 353.084 85.3179 353.077 96.8935L360.454 96.8409L360.52 99.0002L360.147 128.099L360.153 130.12L360.151 132.717L352.968 133.369L352.849 147.522C345.205 148.692 337.647 150.372 330.02 151.651C328.39 151.925 326.742 152.372 325.109 152.572C323.863 152.724 322.575 152.714 321.32 152.812C321.075 155.859 320.861 159.693 319.729 162.528C318.771 165.237 318.053 167.663 315.855 169.643C313.34 170.16 310.619 169.954 308.057 169.919L303.923 169.936C303.268 169.928 301.945 170.005 301.374 169.758C301.186 169.676 300.798 169.169 300.633 169.001C300.234 169.281 299.875 169.541 299.412 169.71C297.292 169.975 291.074 170.464 289.368 169.478C286.975 168.095 285.917 163.988 285.283 161.47L284.895 159.905C283.379 159.825 281.805 160.191 280.306 160.402C277.533 160.793 274.76 161.18 271.986 161.568C259.938 163.252 247.921 165.087 235.901 166.957C232.682 167.458 229.462 167.951 226.249 168.492C224.082 168.856 221.815 169.411 219.623 169.472L215.317 168.954C214.901 169.954 214.83 171.183 214.628 172.25C213.363 178.332 211.937 186.837 206.355 190.512C204.341 191.838 201.545 191.469 199.236 191.443L197.186 190.159C195.677 189.02 194.683 187.372 193.757 185.761C191.725 182.229 190.277 178.593 189.715 174.541C185.375 174.795 181.093 175.345 176.772 175.799C175.14 175.971 172.757 175.9 171.272 176.48L171.221 176.143L170.977 176.17L170.835 176.453C163.194 177.694 155.516 178.653 147.869 179.834C136.553 181.58 125.268 183.526 113.943 185.207C111.491 185.571 109.04 185.963 106.6 186.397C105.514 186.59 104.134 187.067 103.05 186.952C100.459 189.31 97.3063 189.694 93.8856 189.582L77.3347 189.553L76.8174 189.341C71.3241 186.701 69.3222 180.715 67.5703 175.373L143.412 175.591C147.902 175.812 152.48 175.308 156.949 174.882C163.523 174.255 170.063 173.479 176.62 172.697L176.671 157.185C177.124 155.53 176.793 153.402 176.95 151.656L177.589 151.32L177.638 151.153L177.579 148.411L177.594 145.483L176.051 102.579C175.949 102.104 175.934 101.538 175.601 101.181L175.077 101.51L174.666 101.164L173.702 101.512C173.074 93.4477 172.675 85.3564 172.101 77.286C171.679 71.3333 171.091 65.3922 170.68 59.4362C170.435 55.8757 170.172 52.3077 169.865 48.7524C169.674 46.5217 169.334 44.213 169.393 41.9767C169.666 41.9741 169.867 41.9296 170.131 41.8661L170.068 40.371L169.456 40.0387C168.454 40.1538 167.383 39.9486 166.383 39.8425L156.422 38.5185L155.604 38.6976L155.865 39.0706L149.946 39.2399C149.226 39.1274 149.06 39.1812 148.54 38.6404L147.981 38.6355C148.138 36.6561 148.586 34.7506 148.932 32.8021C149.647 28.7859 150.514 24.799 151.471 20.8336C152.13 18.1062 153.055 15.2087 153.274 12.4103C153.411 10.6549 152.348 8.99538 151.235 7.72423Z" fill="url(#paint12_linear_4689_7440)"/>
<path d="M313.27 136.287C313.597 135.834 313.831 135.442 314.363 135.211C315.029 135.31 315.431 135.663 315.833 136.183C316.313 136.806 316.604 137.49 316.89 138.216L315.749 137.626L315.462 137.742C314.868 137.573 314.288 137.675 313.684 137.734C313.587 137.25 313.739 136.921 313.875 136.458L313.27 136.287Z" fill="#ACABAE"/>
<path d="M313.875 136.459C314.448 136.431 314.74 136.403 315.168 136.835L315.748 137.626L315.461 137.743C314.867 137.574 314.287 137.676 313.683 137.734C313.586 137.25 313.738 136.922 313.875 136.459Z" fill="#454C55"/>
<path d="M311.363 147.734L311.244 147.59C310.779 146.835 311.164 145.294 311.266 144.456C311.446 142.98 311.422 141.451 311.817 140.013C312.167 138.737 312.448 137.358 313.269 136.289L313.875 136.46C313.739 136.923 313.586 137.252 313.683 137.736C313.586 138.909 312.841 140.171 312.562 141.367C312.071 143.469 311.801 145.62 311.363 147.734Z" fill="#7C8085"/>
<path d="M318.062 152.891L318.195 151.195L318.386 151.288L318.482 153.241C318.249 156.126 317.949 160.663 315.565 162.673C315.215 162.968 314.896 163.071 314.458 163.178L313.424 162.801L314.13 162.318C316.984 160.315 317.486 156.111 318.062 152.891Z" fill="white"/>
<path d="M315.748 137.625L316.889 138.216C318.333 141.764 318.68 146.162 318.667 149.966C318.663 151.031 318.759 152.208 318.481 153.241L318.385 151.287L318.194 151.195L318.06 152.89L317.607 152.85C318.075 147.872 318.063 142.163 315.461 137.742L315.748 137.625Z" fill="#8D949E"/>
<path d="M317.609 152.852L318.062 152.892C317.485 156.112 316.984 160.316 314.129 162.319L313.424 162.802C312.669 161.89 312.165 160.799 311.862 159.655L311.775 159.319C311.427 158.091 311.356 156.911 311.119 155.676L310.987 155.115C310.913 154.596 310.81 153.861 311.094 153.435C311.385 153.726 311.279 153.878 311.279 154.274L311.465 154.555L311.44 155.115C311.502 155.465 311.62 155.393 311.611 155.845C311.606 156.146 311.608 156.268 311.696 156.575L312.194 158.666L312.569 158.715C312.867 159.083 312.995 159.574 313.256 159.975C313.621 160.534 313.821 160.703 314.457 160.829C316.419 159.283 317.236 155.192 317.609 152.852Z" fill="#5B6872"/>
<path d="M305.373 47.8516L310.044 48.6234C309.435 49.9051 306.567 56.4135 306.019 56.8172L305.774 56.5336L305.373 47.8516Z" fill="#B5CBCD"/>
<path d="M329.645 51.7734L335.904 52.6854C335.381 54.0617 334.227 55.2443 333.328 56.406C332.2 57.8629 331.14 59.3662 330.091 60.8803L329.645 51.7734Z" fill="#B5CBCD"/>
<path d="M252.131 39.5391L260.491 40.7504C258.706 43.557 256.807 46.2983 255.07 49.1348C254.252 50.471 253.601 52.1635 252.664 53.3826L252.131 39.5391Z" fill="#B5CBCD"/>
<path d="M324.044 136.183L331.161 135.562L331.091 149.346C328.942 150.244 325.878 150.288 323.562 150.65C324.874 146.154 324.457 140.803 324.044 136.183Z" fill="#BA4D1B"/>
<path d="M293.898 158.625C294.373 161.272 295.028 164.037 296.142 166.49L296.258 166.75C296.974 168.328 297.801 168.957 299.346 169.67L299.413 169.71C297.293 169.975 291.075 170.464 289.369 169.478C286.976 168.095 285.918 163.988 285.284 161.47L284.896 159.905L293.898 158.625Z" fill="#1B191B"/>
<path d="M313.684 137.733C314.289 137.674 314.869 137.572 315.462 137.741C318.065 142.163 318.077 147.871 317.609 152.849C317.236 155.19 316.419 159.281 314.457 160.827C313.821 160.701 313.621 160.532 313.256 159.972C312.995 159.572 312.867 159.081 312.569 158.713C311.548 154.984 311.234 151.581 311.364 147.731C311.802 145.617 312.072 143.466 312.563 141.364C312.842 140.168 313.587 138.906 313.684 137.733Z" fill="white"/>
<path d="M314.055 143.727C314.46 143.817 314.315 143.71 314.526 143.995L314.13 144.369C314.468 144.558 314.728 144.568 315.111 144.627L314.644 144.686C314.143 144.807 313.448 145.56 313.267 146.034L313.19 146.331L312.975 147.094C312.648 148.746 312.51 151.697 313.605 153.067L313.756 153.224L313.664 153.807L314.4 154.568C314.794 154.524 314.636 154.469 314.894 154.648L314.741 154.928C314.175 155.088 313.88 155.3 313.335 155.045C312.349 153.24 312.254 151.902 312.239 149.882C312.221 147.433 312.256 145.556 314.055 143.727Z" fill="#4C4745"/>
<path d="M296.852 158.123C299.879 157.665 303.318 157.378 306.242 156.492C306.602 160.952 307.852 166.338 310.929 169.722C310.324 169.73 308.47 169.589 308.058 169.913L303.924 169.93C303.268 169.921 301.946 169.999 301.375 169.751C301.187 169.67 300.799 169.163 300.634 168.994C300.418 168.504 300.199 168.041 299.931 167.577C299.296 166.482 298.938 165.122 298.567 163.914C297.976 161.989 297.42 160.054 296.852 158.123Z" fill="#1B191B"/>
<path d="M85.8359 178.359C89.8443 178.436 93.8357 178.575 97.8459 178.572C101.088 178.57 104.681 178.268 107.874 178.752C106.737 182.05 105.492 184.429 103.051 186.95C100.459 189.308 97.3069 189.692 93.8862 189.58L94.0323 189.316C89.7149 186.887 87.4308 182.931 85.8359 178.359Z" fill="#2C2D31"/>
<path d="M170.978 176.164L170.835 176.447C163.195 177.688 155.517 178.647 147.869 179.828C136.554 181.574 125.269 183.52 113.943 185.201C111.492 185.565 109.04 185.957 106.6 186.391C105.514 186.584 104.135 187.061 103.051 186.946C105.491 184.425 106.737 182.046 107.874 178.748C110.793 178.521 113.889 178.766 116.827 178.792C125.469 178.872 134.232 179.339 142.861 179.054C149.196 178.844 155.581 178.018 161.872 177.234C164.873 176.86 167.958 176.286 170.978 176.164Z" fill="white"/>
<path d="M283.895 99.3828L301.026 99.5283C300.288 100.596 299.372 101.527 298.586 102.561C296.52 105.282 294.511 108.052 292.462 110.788C290.564 113.321 288.616 115.795 286.686 118.3C285.848 119.388 285.232 120.444 284.275 121.456L284.275 134.747L284.602 134.794L284.836 134.562C285.253 134.617 286.169 134.602 286.472 134.831L283.91 135.047L283.895 99.3828Z" fill="#E19C48"/>
<path d="M200.471 130.874C201.917 129.326 204.107 128.202 206.25 128.059C208.141 127.933 209.504 128.412 211.109 129.352L211.35 129.492C212.678 130.293 213.952 131.672 214.795 132.964L214.943 133.187C216.603 135.742 217.598 138.707 218.302 141.65C220.493 150.813 219.455 160.171 219.623 169.464L215.316 168.946C215.834 160.499 216.273 151.499 213.576 143.335C213.207 142.216 212.781 140.745 212.05 139.823C210.887 137.437 209.454 135.737 207.558 133.886L207.047 133.42C205.274 131.904 202.848 130.683 200.471 130.874Z" fill="#1B191B"/>
<path d="M360.52 99L360.148 128.099L360.153 130.12L360.152 132.717L352.969 133.369L352.96 130.727L352.928 128.859L353.003 99.3067L360.244 99.3295L360.52 99Z" fill="#BA8942"/>
<path d="M352.928 128.854L360.148 128.094L360.154 130.115L352.96 130.722L352.928 128.854Z" fill="#BA4D1B"/>
<path d="M360.152 130.117L360.151 132.714L352.968 133.366L352.959 130.724L360.152 130.117Z" fill="#CEA594"/>
<path d="M177.638 151.154L191.168 149.789C190.563 154.076 189.978 158.354 189.491 162.656C189.183 165.372 189.126 168.169 188.513 170.838L177.705 172.518L176.619 172.698L176.671 157.186C177.123 155.531 176.792 153.403 176.949 151.657L177.588 151.321L177.638 151.154Z" fill="#F8AE33"/>
<path d="M176.671 157.186C177.123 155.53 176.792 153.402 176.949 151.656L177.588 151.32L177.615 159.578L177.749 160.114C177.682 161.046 177.609 161.776 177.929 162.678L177.579 162.874L177.454 172.312L177.705 172.517L176.619 172.697L176.671 157.186Z" fill="#E25F1A"/>
<path d="M177.615 159.574C179.23 158.964 182.166 158.254 183.867 158.57C184.457 159.505 184.528 160.259 184.435 161.347C183.018 162.379 179.649 162.723 177.93 162.673C177.609 161.771 177.682 161.041 177.749 160.109L177.615 159.574Z" fill="#AE3B40"/>
<path d="M177.615 159.574C179.23 158.964 182.166 158.254 183.867 158.57C182.736 159.581 179.249 160.114 177.749 160.109L177.615 159.574Z" fill="#BA4D1B"/>
<path d="M220.555 70.1562L223.948 70.3031L224.004 70.8496C224.027 70.6313 224.1 70.4938 224.191 70.2964L225.644 70.287L225.72 70.3592L226.102 80.6632L226.186 84.0892L226.697 93.8416L226.436 92.9748L226.249 92.6944C226.313 92.1513 226.468 91.3463 226.234 90.8484C226.083 90.5251 226.11 90.7426 226.101 90.3173L226.108 89.9846V89.424L226.154 89.1436C226.154 88.771 226.048 88.5119 226.108 88.1157C226.127 87.9871 226.175 87.7801 226.154 87.6485C226.071 87.1443 225.865 86.7948 225.921 86.2468L225.967 85.9665L224.972 86.3302C224.846 87.1222 224.7 88.4513 224.891 89.237C225.143 90.2682 225.178 91.0546 224.893 92.1094L224.846 92.2716L224.921 95.7903L219.671 95.818L219.507 95.9054L202.74 96.2026L220.421 70.2044L220.555 70.1562Z" fill="#92A055"/>
<path d="M219.507 95.9061L218.398 95.7611L218.303 95.405C218.862 93.8561 219.744 92.4264 220.56 91.0005C221.834 88.7739 223.148 86.5575 224.481 84.3672L224.541 85.8465C224.515 86.356 224.533 87 224.394 87.4896C224.278 87.897 223.904 88.3082 223.709 88.7006C222.492 91.1481 221.083 93.4819 219.671 95.8187L219.507 95.9061Z" fill="#AEBA8F"/>
<path d="M224.542 85.8438C224.611 87.9096 224.477 90.2576 224.846 92.2696L224.921 95.7883L219.672 95.816C221.084 93.4792 222.492 91.1454 223.709 88.6979C223.905 88.3054 224.279 87.8943 224.395 87.4869C224.534 86.9972 224.516 86.3532 224.542 85.8438Z" fill="#92A055"/>
<path d="M224.004 70.8516C224.027 70.6333 224.1 70.4958 224.191 70.2984L225.644 70.2891L225.719 70.3612L226.102 80.6653L226.186 84.0912L226.697 93.8436L226.436 92.9768L226.249 92.6965C226.312 92.1533 226.468 91.3483 226.234 90.8504C226.083 90.5271 226.109 90.7447 226.101 90.3193L226.108 89.9867V89.426L226.153 89.1456C226.153 88.773 226.048 88.514 226.108 88.1177C226.127 87.9891 226.175 87.7821 226.153 87.6505C226.071 87.1463 225.865 86.7969 225.921 86.2489L225.967 85.9685L224.972 86.3322C224.846 87.1242 224.7 88.4534 224.891 89.239C225.143 90.2703 225.178 91.0566 224.893 92.1115L224.846 92.2737C224.476 90.2616 224.61 87.9137 224.541 85.8478L224.481 84.3684L224.004 70.8516Z" fill="#454C55"/>
<path d="M335.905 52.6953C338.117 52.9977 340.315 53.3913 342.527 53.6921C343.932 53.8835 345.748 53.9508 347.069 54.4547C347.441 54.5967 347.753 54.8306 347.989 55.1525C348.914 56.4147 348.773 59.0901 348.937 60.6324C349.496 65.8857 349.938 71.1285 350.353 76.3946L330.88 74.8273L330.629 73.6473C330.83 71.9512 330.563 69.9332 330.452 68.2198C330.295 65.7784 330.201 63.3342 330.092 60.8902C331.141 59.3761 332.201 57.8728 333.328 56.4158C334.228 55.2541 335.382 54.0715 335.905 52.6953Z" fill="#96B5BA"/>
<path d="M306.672 75.1562L316.111 75.7954L316.303 75.7449L319.433 75.9871L319.573 75.9483L329.315 76.5945L329.574 96.5351L307.615 96.3602L307.465 91.7543L307.429 89.49L306.672 75.1562Z" fill="#7A8846"/>
<path d="M316.304 75.7422L319.434 75.9843L307.466 91.7515L307.43 89.4872C309.244 86.7774 310.993 84.0645 312.753 81.3177C313.911 79.5123 315.157 77.7126 316.112 75.7926L316.304 75.7422Z" fill="#92A055"/>
<path d="M306.672 75.1562L316.111 75.7954C315.156 77.7154 313.91 79.5151 312.753 81.3204C310.992 84.0673 309.243 86.7801 307.429 89.4899L306.672 75.1562Z" fill="#7A8846"/>
<path d="M286.472 134.828L306.423 133.133L306.109 134.885L305.764 137.835L305.403 154.016L283.919 156.965L283.9 139.972L283.903 137.06L283.91 135.044L286.472 134.828Z" fill="#BA4D1B"/>
<path d="M286.472 134.828L306.423 133.133L306.109 134.885L305.764 137.835L283.9 139.972L283.903 137.06L283.91 135.044L286.472 134.828Z" fill="#CEA594"/>
<path d="M286.472 134.828L306.422 133.133L306.108 134.885C301.613 135.257 297.129 135.745 292.637 136.151C289.788 136.408 286.69 136.5 283.902 137.06L283.91 135.044L286.472 134.828Z" fill="#BA4D1B"/>
<path d="M283.541 73.3594C285.126 73.4322 286.703 73.5646 288.286 73.6689C289.192 73.7287 290.184 73.7059 291.068 73.9093L291.205 73.8569L298.286 74.4632C300.392 74.6721 302.678 75.0806 304.78 74.9707L304.911 74.3413L305.617 93.241L305.553 96.2356C303.565 96.4501 301.322 96.2547 299.308 96.2535C294.175 96.2506 289.046 96.1803 283.914 96.0599L283.585 95.685L283.879 91.5403C283.592 89.3504 283.744 86.9975 283.732 84.7901C283.711 80.9768 283.671 77.1703 283.541 73.3594Z" fill="#7A8846"/>
<path d="M305.553 96.2369L303.99 96.0832L303.906 95.7797C304.419 94.8647 304.903 94.0174 305.617 93.2422L305.553 96.2369Z" fill="#92A055"/>
<path d="M283.541 73.3594C285.126 73.4322 286.703 73.5646 288.286 73.6689C289.192 73.7287 290.184 73.7059 291.068 73.9093L291.205 73.8569L298.286 74.4632C294.582 80.3557 290.788 86.1667 286.824 91.889C285.936 93.1704 285.011 95.0081 283.914 96.0599L283.585 95.685L283.879 91.5403C283.592 89.3504 283.744 86.9975 283.732 84.7901C283.711 80.9768 283.671 77.1703 283.541 73.3594Z" fill="#92A055"/>
<path d="M283.541 73.3594C285.126 73.4322 286.703 73.5646 288.286 73.6689C289.192 73.7287 290.184 73.7059 291.068 73.9093C289.787 77.5333 288.033 81.0505 286.582 84.6189C285.984 86.0886 285.413 87.5803 284.887 89.0768C284.591 89.9186 284.389 90.7984 283.879 91.5403C283.592 89.3504 283.744 86.9975 283.732 84.7901C283.711 80.9768 283.671 77.1703 283.541 73.3594Z" fill="#7A8846"/>
<path d="M310.044 48.6172L328.345 51.5962L328.371 53.6646L328.74 63.6633L329.315 76.5931L319.573 75.9468L319.434 75.9856L316.303 75.7435L316.112 75.7939L306.672 75.1548L305.773 56.5272L306.019 56.8109C306.567 56.4073 309.435 49.8988 310.044 48.6172Z" fill="#96B5BA"/>
<path d="M316.303 75.743L328.37 53.6641L328.74 63.6628L329.314 76.5926L319.573 75.9463L319.433 75.9851L316.303 75.743Z" fill="#B5CBCD"/>
<path d="M319.574 75.9477C320.337 74.4899 321.753 73.005 322.761 71.6691C324.756 69.0247 326.665 66.2322 328.741 63.6641L329.316 76.5939L319.574 75.9477Z" fill="#96B5BA"/>
<path d="M342.228 79.3359L350.381 79.9661C350.675 84.994 351.039 90.0508 351.134 95.0866C351.32 104.997 351.013 114.949 351.006 124.865C351.003 129.985 351.015 135.105 351.015 140.225C351.015 141.43 351.015 142.634 351.017 143.838C351.018 144.447 351.113 145.188 350.864 145.748L349.619 146.016L342.131 147.244L342.228 79.3359Z" fill="#4C4745"/>
<path d="M252.87 143.398L252.885 161.503L221.683 166.509C221.687 159.997 221.967 153.288 221.127 146.82L252.87 143.398Z" fill="#DB7714"/>
<path d="M282.01 44.2891L303.737 47.7042C303.871 47.844 304.06 47.9468 304.139 48.1236C304.355 48.6054 304.211 50.457 304.226 51.0603C304.342 55.4644 304.488 59.9067 304.465 64.3101L304.911 74.342L304.781 74.9714C302.678 75.0813 300.393 74.6728 298.286 74.4639L291.205 73.8576L291.068 73.9099C290.184 73.7066 289.192 73.7293 288.287 73.6696C286.704 73.5653 285.126 73.433 283.541 73.36L282.01 44.2891Z" fill="#96B5BA"/>
<path d="M303.737 47.7031C303.871 47.8429 304.06 47.9457 304.139 48.1225C304.355 48.6043 304.211 50.456 304.226 51.0593C304.342 55.4634 304.488 59.9056 304.465 64.309L304.912 74.3409L304.781 74.9704C302.678 75.0802 300.393 74.6717 298.286 74.4628L291.205 73.8565L303.22 47.8422L303.737 47.7031Z" fill="#B5CBCD"/>
<path d="M298.285 74.4664L304.464 64.3125L304.91 74.3444L304.779 74.9738C302.677 75.0838 300.391 74.6753 298.285 74.4664Z" fill="#96B5BA"/>
<path d="M225.721 70.3594L232.872 70.7731L233.108 70.7144L235.052 70.9626L250.637 71.977C250.997 71.6095 250.882 70.9618 250.904 70.4524L251.198 96.0171L226.769 95.7379L226.698 93.8418L226.187 84.0894L226.103 80.6635L225.721 70.3594Z" fill="#92A055"/>
<path d="M233.107 70.7188L235.051 70.967C232.984 73.6397 231.191 76.5252 229.385 79.3772C228.405 80.925 227.421 82.7493 226.186 84.0938L226.102 80.6678C227.723 78.7025 229.193 76.3695 230.638 74.2581C231.393 73.1559 232.369 72.0094 232.871 70.7776L233.107 70.7188Z" fill="#AEBA8F"/>
<path d="M225.721 70.3594L232.872 70.7731C232.37 72.005 231.394 73.1514 230.64 74.2536C229.194 76.3651 227.725 78.6982 226.103 80.6634L225.721 70.3594Z" fill="#92A055"/>
<path d="M330.627 73.6484L330.878 74.8285C331.071 76.0043 331.031 77.209 331.041 78.3972L340.688 79.2128L340.562 147.529C338.781 147.859 337.004 148.191 335.216 148.472C333.815 148.691 332.413 148.814 331.09 149.349L331.16 135.566L331.133 132.758L331.114 131.261C330.768 123.441 331.018 115.518 331.017 107.684C331.016 105.971 331.015 104.259 331.013 102.547C331.012 101.54 331.131 100.407 330.884 99.4265C330.646 98.227 330.775 96.8259 330.773 95.5984C330.77 93.321 330.762 91.0432 330.754 88.7659C330.737 83.7275 330.466 78.6771 330.627 73.6484Z" fill="#4C4745"/>
<path d="M260.492 40.75L280.575 44.0694L281.863 70.967L253.23 69.1613L252.664 53.3822C253.601 52.163 254.252 50.4705 255.07 49.1344C256.807 46.2978 258.706 43.5566 260.492 40.75Z" fill="#96B5BA"/>
<path d="M224.183 35.0312L231.55 36.2109L242.078 38.0203L249.979 39.2089L250.236 44.8932L250.264 47.8449L250.902 70.4538C250.879 70.9633 250.995 71.611 250.635 71.9784L235.05 70.964L233.106 70.7158L232.87 70.7745L225.719 70.3608L225.643 70.2887L224.19 70.298C224.099 70.4953 224.026 70.633 224.003 70.8513L223.947 70.3048L223.844 65.3093L223.908 65.0549C224.382 64.4845 224.844 63.9358 225.389 63.4319L225.388 62.8997L224.555 46.6695L224.618 46.3937C224.05 42.7694 224.248 38.7118 224.183 35.0312Z" fill="#96B5BA"/>
<path d="M223.908 65.0526C224.382 64.4823 224.844 63.9336 225.389 63.4297L225.643 70.2865L224.19 70.2959C224.099 70.4932 224.026 70.6308 224.003 70.8491L223.947 70.3026L223.844 65.3072L223.908 65.0526Z" fill="#5B6872"/>
<path d="M233.107 70.7132C234.741 68.6728 236.06 66.3419 237.511 64.1681C240.259 60.051 243.052 55.9489 245.716 51.7781C246.69 50.2542 247.651 48.7225 248.621 47.1968C249.13 46.3962 249.567 45.5716 250.237 44.8906L250.266 47.8423C248.288 49.907 246.832 52.9521 245.271 55.3746C241.913 60.5845 238.519 65.8233 235.051 70.9615L233.107 70.7132Z" fill="#B5CBCD"/>
<path d="M235.051 70.963C238.518 65.8248 241.912 60.586 245.27 55.376C246.832 52.9536 248.287 49.9085 250.265 47.8438L250.903 70.4527C250.88 70.9622 250.995 71.6099 250.635 71.9773L235.051 70.963Z" fill="#96B5BA"/>
<path d="M224.184 35.0312L231.55 36.2109L242.078 38.0203L225.389 62.8995L224.556 46.6694L224.618 46.3935C224.05 42.7694 224.248 38.7118 224.184 35.0312Z" fill="#B5CBCD"/>
<path d="M224.184 35.0312L231.55 36.2109C230.001 38.313 228.528 40.4607 227.098 42.6454C226.294 43.8732 225.587 45.2983 224.618 46.3935C224.05 42.7694 224.248 38.7118 224.184 35.0312Z" fill="#96B5BA"/>
<path d="M176.066 66.75C179.202 67.3283 182.537 67.3622 185.721 67.5936C186.805 67.6724 187.991 67.6664 189.053 67.8833L189.221 67.8567L194.653 68.4491L194.779 68.3138L208.298 69.4646L208.439 69.4094L220.422 70.2032L202.741 96.2015L189.022 96.3487L188.734 96.4062C187.584 96.2067 186.265 96.361 185.088 96.3771C182.838 96.408 180.59 96.4223 178.34 96.4156L177.571 86.1089L177.291 81.5422L176.066 66.75Z" fill="#92A055"/>
<path d="M189.053 67.886L189.221 67.8594L194.653 68.4518C191.297 72.0605 187.923 75.6472 184.551 79.2403C182.505 81.4201 180.15 84.6199 177.571 86.1117L177.291 81.545C177.71 79.697 180.223 77.573 181.505 76.2083C184.009 73.5441 186.898 70.8305 189.053 67.886Z" fill="#AEBA8F"/>
<path d="M176.066 66.75C179.202 67.3283 182.537 67.3622 185.721 67.5936C186.805 67.6724 187.991 67.6664 189.053 67.8833C186.898 70.8278 184.009 73.5414 181.505 76.2057C180.222 77.5703 177.71 79.6944 177.291 81.5423L176.066 66.75Z" fill="#92A055"/>
<path d="M208.439 69.4062L220.422 70.2001L202.741 96.1984L189.021 96.3456L208.298 69.4615L208.439 69.4062Z" fill="#AEBA8F"/>
<path d="M269.518 73.8984L282.029 74.5462L282.217 157.335L280.719 157.584L269.582 159.184L269.518 73.8984Z" fill="#7E674D"/>
<path d="M254.199 72.9453L267.531 73.7418L267.498 159.436L265.397 159.727L254.554 161.282L254.199 72.9453Z" fill="#7E674D"/>
<path d="M200.471 130.879C202.848 130.688 205.274 131.909 207.047 133.425L207.558 133.891C209.454 135.741 210.887 137.442 212.051 139.828C212.781 140.75 213.207 142.22 213.576 143.34C216.273 151.504 215.834 160.504 215.317 168.951C214.901 169.951 214.83 171.18 214.628 172.247C213.363 178.329 211.937 186.834 206.355 190.509C204.34 191.835 201.545 191.466 199.236 191.44L197.186 190.156C195.677 189.016 194.683 187.368 193.757 185.758C191.725 182.226 190.277 178.59 189.715 174.538C190.036 174.495 190.384 174.521 190.648 174.316C190.936 174.093 191.069 173.854 191.14 173.505C191.494 171.773 191.394 169.791 191.456 168.022C191.547 165.402 191.697 162.764 191.879 160.149C192.16 156.126 192.55 152.074 193.285 148.107C193.792 145.374 194.628 142.645 195.434 139.986C196.326 137.04 197.375 133.54 199.765 131.487L200.471 130.879Z" fill="#4C4745"/>
<path d="M196.862 145.996C196.244 149.331 195.225 152.537 195.038 155.956L194.772 155.832C194.506 155.203 194.553 154.483 194.534 153.81C194.483 151.93 194.654 149.88 194.918 148.022L194.966 147.733C195.01 147.43 195.024 147.145 195.132 146.855L195.547 145.797L195.565 145.981C195.641 146.87 195.376 147.634 195.356 148.513C195.348 148.854 195.352 148.635 195.272 149.082C195.198 149.491 195.275 149.69 195.412 150.07L195.646 149.975L195.617 149.759C195.585 149.432 195.675 149.289 195.792 148.994C196.013 148.438 195.765 149.106 195.88 148.481C195.934 148.183 196.039 148.065 196.067 147.733C196.12 147.093 196.45 146.474 196.862 145.996Z" fill="#454C55"/>
<path d="M195.548 145.797C196.325 143.448 197.127 140.979 198.456 138.876L198.857 138.245C200.038 136.397 201.716 134.555 203.933 134.075L204.196 134.02C205.295 133.767 206.437 133.868 207.56 133.89C209.456 135.741 210.889 137.441 212.053 139.827L211.82 139.977L211.67 139.778C210.258 137.941 208.71 136.366 206.303 136.049C204.702 135.839 202.963 136.486 201.74 137.492C199.168 139.608 197.859 142.908 196.862 145.996C196.451 146.474 196.12 147.094 196.067 147.733C196.04 148.065 195.935 148.183 195.881 148.481C195.766 149.106 196.013 148.438 195.792 148.994C195.675 149.289 195.586 149.432 195.618 149.759L195.647 149.975L195.412 150.07C195.276 149.69 195.199 149.491 195.273 149.082C195.353 148.635 195.349 148.854 195.357 148.513C195.377 147.634 195.642 146.87 195.566 145.981L195.548 145.797Z" fill="#67747E"/>
<path d="M204.179 143.621C204.724 143.596 205.226 143.594 205.747 143.783C207.164 144.296 208.002 145.664 208.626 146.958C212.565 155.132 211.81 166.433 208.786 174.743C207.887 177.217 206.942 179.197 204.426 180.357L202.887 180.212C201.383 179.799 200.144 178.014 199.468 176.697C198.353 174.527 197.87 172.172 197.515 169.782C196.579 163.475 197.149 156.862 199.067 150.795C200.021 147.773 201.266 145.125 204.179 143.621Z" fill="white"/>
<path d="M200.657 150.32C201.304 148.961 202.269 148.231 203.454 147.375C202.199 149.53 201.28 151.694 200.684 154.118C200.456 155.044 200.382 156.036 200.096 156.939C199.946 157.715 199.824 158.506 199.59 159.26C199.462 159.673 199.417 160.068 199.36 160.494C199.315 160.832 199.34 160.686 199.251 161.046C199.222 158.67 199.385 156.274 199.817 153.933C200.036 152.741 200.707 151.507 200.657 150.32Z" fill="#7C8085"/>
<path d="M200.657 150.312C200.707 151.5 200.037 152.734 199.818 153.925C199.386 156.266 199.223 158.662 199.252 161.038C199.176 167.054 199.221 172.617 201.943 178.143C200.303 176.503 199.553 174.198 198.979 172C198.075 168.535 197.918 164.791 198.075 161.224C198.239 157.504 198.732 153.57 200.657 150.312Z" fill="#454C55"/>
<path d="M199.252 161.044C199.341 160.685 199.316 160.83 199.361 160.493C199.418 160.066 199.463 159.672 199.591 159.259C199.825 158.505 199.947 157.713 200.097 156.938L200.475 158.797C200.726 160.039 200.463 161.676 200.476 162.966C200.515 166.632 201.122 172.542 204.256 174.927C204.699 175.265 205.169 175.51 205.676 175.736L207.999 175.029C207.165 176.857 206.088 178.302 204.278 179.26C203.436 179.333 203.029 179.146 202.385 178.605C202.207 178.455 202.078 178.339 201.944 178.149C199.221 172.623 199.176 167.06 199.252 161.044Z" fill="#B5CBCD"/>
<path d="M330.886 99.4219C331.132 100.402 331.013 101.535 331.014 102.543C331.017 104.254 331.018 105.967 331.018 107.679C331.019 115.513 330.769 123.436 331.115 131.257L331.134 132.753L331.161 135.561L324.044 136.181L323.579 133.412L323.229 131.876C322.107 128.112 320.69 122.819 316.989 120.772C316.044 120.249 314.944 120.224 313.932 120.56C311.495 121.369 309.614 124.174 308.571 126.408C307.561 128.57 306.91 130.802 306.423 133.132L286.473 134.828C286.169 134.598 285.254 134.613 284.836 134.559L284.602 134.79L284.275 134.743L284.276 121.453C285.233 120.44 285.849 119.384 286.686 118.296C288.617 115.791 290.565 113.317 292.462 110.784C294.511 108.048 296.52 105.278 298.587 102.557C299.372 101.523 300.289 100.592 301.027 99.5244L330.886 99.4219Z" fill="#BA8942"/>
<path d="M331.115 131.258L331.134 132.754L323.578 133.413L323.229 131.878L331.115 131.258Z" fill="#BA4D1B"/>
<path d="M331.133 132.75L331.16 135.558L324.043 136.178L323.578 133.409L331.133 132.75Z" fill="#CEA594"/>
<path d="M176.066 66.7561C176.027 62.7863 175.525 58.7047 175.199 54.7458C174.758 49.3968 174.424 44.0392 174 38.6898C173.76 35.6634 173.462 32.643 173.236 29.6151C173.171 28.7363 172.813 27.2764 173.231 26.4922L218.809 34.1896L222.16 34.7234L222.61 34.8332C223.136 34.8885 223.668 34.9229 224.185 35.0347C224.25 38.7152 224.051 42.7729 224.619 46.3969L224.557 46.6728L225.39 62.9029L225.391 63.4352C224.846 63.939 224.384 64.4878 223.91 65.0581L223.846 65.3126L223.949 70.308L220.556 70.1611L220.422 70.2093L208.439 69.4155L208.298 69.4708L194.779 68.3199L194.652 68.4552L189.221 67.8628L189.053 67.8894C187.991 67.6726 186.805 67.6786 185.721 67.5997C182.537 67.3684 179.202 67.3344 176.066 66.7561Z" fill="#96B5BA"/>
<path d="M189.221 67.8607L216.091 36.4775C216.56 35.9288 217.458 34.5889 218.024 34.248C218.126 34.1867 218.66 34.199 218.809 34.1875L222.159 34.7213L194.778 68.3179L194.652 68.4532L189.221 67.8607Z" fill="#B5CBCD"/>
<path d="M222.158 34.7188L222.609 34.8286C223.134 34.8839 223.667 34.9183 224.184 35.0301C224.248 38.7106 224.05 42.7683 224.618 46.3923L224.556 46.6682L225.389 62.8983L225.39 63.4306C224.845 63.9344 224.383 64.4832 223.909 65.0535L223.844 65.308L223.947 70.3034L220.554 70.1565L220.421 70.2047L208.438 69.4109L208.297 69.4662L194.777 68.3153L222.158 34.7188Z" fill="#96B5BA"/>
<path d="M222.609 34.8281C223.135 34.8834 223.668 34.9178 224.184 35.0296C224.249 38.7101 224.051 42.7678 224.619 46.3918L224.556 46.6677C224.276 47.3382 223.7 47.8444 223.207 48.3653L222.609 34.8281Z" fill="#5B6872"/>
<path d="M223.206 48.3617C223.699 47.8406 224.275 47.3346 224.555 46.6641L225.388 62.8942L225.389 63.4265C224.844 63.9303 224.382 64.4791 223.908 65.0494L223.844 65.3039L223.947 70.2993L220.554 70.1524L220.42 70.2006L208.438 69.4067L223.154 48.5627L223.206 48.3617Z" fill="#B5CBCD"/>
<path d="M220.555 70.1532C221.552 68.5404 223.108 67.0143 223.845 65.3047L223.948 70.3001L220.555 70.1532Z" fill="#96B5BA"/>
<path d="M223.206 48.3617C223.699 47.8406 224.276 47.3346 224.556 46.6641L225.389 62.8942L225.39 63.4265C224.845 63.9303 224.383 64.4791 223.909 65.0494L223.154 48.5627L223.206 48.3617Z" fill="#67747E"/>
<path d="M151.236 7.72423L150.509 6.82492C150.813 6.67912 150.658 6.6911 150.95 6.76134L282.6 32.1792C285.733 33.2862 289.412 33.7056 292.685 34.3635C298.102 35.4523 303.489 36.6906 308.905 37.7854C309.228 37.8508 309.058 37.8111 309.406 37.9218C309.973 38.1019 310.614 38.1424 311.206 38.2167C311.4 38.358 311.465 38.4608 311.705 38.4724C312.281 38.4997 312.858 38.7729 313.429 38.8697C314.048 38.9751 314.605 38.9737 315.206 39.1781C315.633 39.3231 315.452 39.2768 315.874 39.3126C316.251 39.3444 316.527 39.4356 316.888 39.5283C317.51 39.6887 318.126 39.7223 318.757 39.9021C320.091 40.2833 321.782 40.5913 323.156 40.7355C323.796 40.8028 324.363 41.0469 324.985 41.1093C325.527 41.1638 325.898 41.2942 326.419 41.4281L326.894 41.4834L328.608 41.8351L329.455 42.006C329.763 42.8903 329.38 43.9798 330.378 44.5181L330.597 44.6048C331.008 45.1416 331.232 45.6128 331.445 46.2535L331.71 46.391C332.214 46.6825 332.326 47.084 332.902 47.2978L333.107 47.5788L333.008 48.1185L333.499 48.6153L333.324 48.9928C333.667 49.2481 333.899 49.2836 333.987 49.7168C333.6 49.7927 333.615 49.8468 333.239 49.6735C332.774 49.459 332.345 49.5214 331.863 49.3965C331.616 49.3326 331.478 49.3468 331.23 49.388C330.691 49.0908 330.259 49.2841 329.782 48.9694C329.124 49.0767 329.208 48.8737 328.66 48.7825C328.473 48.7516 328.287 48.9051 328.1 48.8741C327.7 48.8076 327.768 48.5729 327.288 48.6513C326.917 48.7118 326.843 48.6454 326.51 48.5295C326.132 48.3979 325.597 48.3164 325.203 48.2675C324.775 48.2145 324.635 48.3542 324.231 48.1535C323.755 47.9162 323.151 48.0212 322.622 47.9595C322.089 47.8975 321.585 47.7038 321.03 47.6131L320.718 47.52L320.017 47.5193C319.664 47.2689 319.824 47.3485 319.409 47.3332L319.117 47.2666C318.814 47.1997 318.623 47.1814 318.323 47.1731C317.955 47.1634 317.767 47.1144 317.447 46.9138L316.84 46.9586L316.606 46.7269C315.906 46.8125 315.684 46.5632 315.111 46.5856L313.669 46.4219C313.332 46.3942 313.527 46.4222 313.221 46.3296C312.635 46.1524 311.95 46.1677 311.348 46.2429C308.075 46.0635 304.512 45.1332 301.266 44.5942C291.963 43.0486 282.704 41.271 273.394 39.7546C239.119 34.1731 204.897 28.2672 170.635 22.6076L170.829 25.9678C171.733 25.9282 172.402 26.1816 173.23 26.4915C172.812 27.2757 173.17 28.7356 173.236 29.6144C173.462 32.6422 173.759 35.6627 173.999 38.6891C174.423 44.0385 174.758 49.3961 175.199 54.7451C175.525 58.7041 176.027 62.7856 176.066 66.7554L177.29 81.5477L177.57 86.1144L178.339 96.4211C180.589 96.4278 182.838 96.4136 185.087 96.3826C186.265 96.3665 187.583 96.2121 188.734 96.4117L188.472 96.4921C186.784 96.9716 184.716 96.3014 182.982 96.7123C182.549 96.8147 182.245 96.7882 181.807 96.7635C180.627 96.6959 179.155 96.9526 178.031 96.6215C177.867 96.2911 177.858 96.3483 177.892 95.9693L177.891 94.9407C177.289 95.0812 176.921 95.3582 176.436 95.7166L176.106 95.5813C176.065 96.4459 176.066 96.9187 176.285 97.7462C176.545 98.7311 175.954 100.007 176.63 100.828C177.387 100.823 177.798 100.701 178.498 100.55C178.61 100.526 178.973 100.588 179.059 100.595C179.627 100.644 180.178 100.633 180.741 100.595C181.628 100.536 182.745 100.562 183.638 100.641L183.922 100.657L185.438 100.852L176.043 101.046L176.053 102.579C175.95 102.104 175.935 101.538 175.602 101.181L175.078 101.51L174.667 101.164L173.703 101.512C173.075 93.4476 172.676 85.3563 172.103 77.2859C171.68 71.3332 171.092 65.3921 170.681 59.4361C170.436 55.8756 170.173 52.3076 169.867 48.7523C169.675 46.5216 169.335 44.2129 169.394 41.9766C169.667 41.974 169.869 41.9295 170.132 41.866L170.069 40.3709L169.457 40.0386C168.456 40.1537 167.384 39.9485 166.384 39.8424L156.424 38.5184L155.605 38.6975L155.866 39.0705L149.948 39.2398C149.227 39.1273 149.061 39.1811 148.541 38.6403L147.982 38.6354C148.139 36.656 148.587 34.7505 148.934 32.802C149.648 28.7858 150.515 24.7989 151.473 20.8335C152.131 18.1061 153.056 15.2086 153.275 12.4102C153.412 10.6549 152.349 8.99538 151.236 7.72423Z" fill="#F8AE33"/>
<path d="M152.999 20.0234L167.924 22.5968C168.153 26.8424 168.619 31.0638 168.95 35.302C169.037 36.4158 168.9 39.2258 169.457 40.0287C168.456 40.1438 167.385 39.9386 166.384 39.8325C166.449 38.244 166.201 36.5758 166.081 34.9843C165.836 31.728 165.546 28.4754 165.308 25.2188L155.116 23.3328L152.21 38.1759L156.424 38.5085L155.605 38.6876L155.866 39.0606L149.948 39.2299C149.228 39.1174 149.062 39.1712 148.541 38.6304L149.695 38.3052C150.186 36.5735 150.311 34.6302 150.625 32.8485C151.38 28.5652 152.121 24.2845 152.999 20.0234Z" fill="#454C55"/>
<path d="M170.828 25.965C171.733 25.9254 172.402 26.1788 173.23 26.4887C172.812 27.2729 173.17 28.7328 173.236 29.6116C173.461 32.6395 173.759 35.66 173.999 38.6863C174.423 44.0357 174.757 49.3933 175.198 54.7423C175.524 58.7013 176.026 62.7829 176.065 66.7526L177.29 81.545L177.57 86.1116L178.339 96.4183C180.589 96.425 182.837 96.4109 185.087 96.3798C186.264 96.3638 187.583 96.2093 188.733 96.409L188.472 96.4893C186.783 96.9689 184.716 96.2987 182.982 96.7095C182.549 96.8119 182.244 96.7854 181.807 96.7607C180.627 96.6931 179.155 96.9499 178.031 96.6187C177.866 96.2883 177.858 96.3455 177.891 95.9665L177.891 94.9379C177.289 95.0785 176.921 95.3554 176.436 95.7138L176.106 95.5786C176.065 96.4431 176.066 96.9159 176.285 97.7434C176.545 98.7283 175.954 100.004 176.629 100.826C177.386 100.82 177.798 100.698 178.498 100.547C178.61 100.523 178.972 100.586 179.059 100.593C179.626 100.641 180.178 100.63 180.741 100.593C181.628 100.534 182.744 100.559 183.638 100.639L183.922 100.655L185.437 100.849L176.042 101.044L170.828 25.965Z" fill="url(#paint13_linear_4689_7440)"/>
<path d="M155.115 23.3438L165.307 25.2298C165.546 28.4864 165.836 31.739 166.08 34.9953C166.2 36.5867 166.448 38.2549 166.383 39.8435L156.423 38.5195L152.209 38.1869L155.115 23.3438Z" fill="#B5CBCD"/>
<path d="M185.436 100.849L252.888 99.4922L252.859 138.377L252.865 140.423L252.868 143.4L221.125 146.821L220.685 143.667L220.308 141.313C219.308 136.192 217.134 130.417 212.603 127.39C210.438 125.943 207.807 125.378 205.252 125.936C201.404 126.778 198.639 129.699 196.642 132.93C194.472 136.44 193.373 140.391 192.26 144.329L191.667 147.153L191.168 149.784L177.638 151.149L177.579 148.407L177.594 145.48L176.051 102.576L176.041 101.043L185.436 100.849Z" fill="url(#paint14_linear_4689_7440)"/>
<path d="M220.309 141.311L252.86 138.375L252.865 140.42L220.685 143.664L220.309 141.311Z" fill="#E25F1A"/>
<path d="M177.595 145.479L192.261 144.328L191.669 147.153L191.169 149.784L177.639 151.148L177.58 148.406L177.595 145.479Z" fill="#F8AE33"/>
<path d="M177.58 148.41L191.669 147.156L191.169 149.787L177.639 151.152L177.58 148.41Z" fill="white"/>
<path d="M220.686 143.666L252.865 140.422L252.869 143.399L221.126 146.82L220.686 143.666Z" fill="#CEA594"/>
<defs>
<linearGradient id="paint0_linear_4689_7440" x1="3.70783" y1="60.8411" x2="17.4696" y2="65.7702" gradientUnits="userSpaceOnUse">
<stop stop-color="#171415"/>
<stop offset="1" stop-color="#333940"/>
</linearGradient>
<linearGradient id="paint1_linear_4689_7440" x1="12.7143" y1="70.0188" x2="-0.75701" y2="54.2489" gradientUnits="userSpaceOnUse">
<stop stop-color="#41474E"/>
<stop offset="1" stop-color="#616C75"/>
</linearGradient>
<linearGradient id="paint2_linear_4689_7440" x1="359.837" y1="67.4217" x2="329.792" y2="67.5531" gradientUnits="userSpaceOnUse">
<stop stop-color="#C05013"/>
<stop offset="1" stop-color="#DE8434"/>
</linearGradient>
<linearGradient id="paint3_linear_4689_7440" x1="82.7578" y1="14.7788" x2="146.928" y2="22.9035" gradientUnits="userSpaceOnUse">
<stop stop-color="#31353B"/>
<stop offset="1" stop-color="#6C7075"/>
</linearGradient>
<linearGradient id="paint4_linear_4689_7440" x1="59.4069" y1="115.513" x2="105.486" y2="115.957" gradientUnits="userSpaceOnUse">
<stop stop-color="#393C3F"/>
<stop offset="1" stop-color="#565B5E"/>
</linearGradient>
<linearGradient id="paint5_linear_4689_7440" x1="38.8789" y1="114.236" x2="33.3796" y2="112.742" gradientUnits="userSpaceOnUse">
<stop stop-color="#2A2A2A"/>
<stop offset="1" stop-color="#454646"/>
</linearGradient>
<linearGradient id="paint6_linear_4689_7440" x1="110.1" y1="63.0405" x2="143.438" y2="112.977" gradientUnits="userSpaceOnUse">
<stop stop-color="#42484F"/>
<stop offset="1" stop-color="#677384"/>
</linearGradient>
<linearGradient id="paint7_linear_4689_7440" x1="103.608" y1="109.84" x2="100.022" y2="115.475" gradientUnits="userSpaceOnUse">
<stop stop-color="#130F11"/>
<stop offset="1" stop-color="#232625"/>
</linearGradient>
<linearGradient id="paint8_linear_4689_7440" x1="172.996" y1="96.7768" x2="132.762" y2="71.0793" gradientUnits="userSpaceOnUse">
<stop stop-color="#9AB5B8"/>
<stop offset="1" stop-color="#B5D5D7"/>
</linearGradient>
<linearGradient id="paint9_linear_4689_7440" x1="152.146" y1="47.3759" x2="160.685" y2="34.5671" gradientUnits="userSpaceOnUse">
<stop stop-color="#131613"/>
<stop offset="1" stop-color="#261F21"/>
</linearGradient>
<linearGradient id="paint10_linear_4689_7440" x1="155.194" y1="73.7643" x2="146.339" y2="47.73" gradientUnits="userSpaceOnUse">
<stop stop-color="#45494D"/>
<stop offset="1" stop-color="#5C6269"/>
</linearGradient>
<linearGradient id="paint11_linear_4689_7440" x1="149.658" y1="55.8909" x2="148.4" y2="45.7432" gradientUnits="userSpaceOnUse">
<stop stop-color="#5C636A"/>
<stop offset="1" stop-color="#767D85"/>
</linearGradient>
<linearGradient id="paint12_linear_4689_7440" x1="213.098" y1="191.948" x2="216.479" y2="23.976" gradientUnits="userSpaceOnUse">
<stop stop-color="#25282C"/>
<stop offset="1" stop-color="#4B484F"/>
</linearGradient>
<linearGradient id="paint13_linear_4689_7440" x1="179.445" y1="63.1595" x2="170.299" y2="64.8854" gradientUnits="userSpaceOnUse">
<stop stop-color="#626364"/>
<stop offset="1" stop-color="#575C6D"/>
</linearGradient>
<linearGradient id="paint14_linear_4689_7440" x1="253.166" y1="128.946" x2="174.339" y2="121.406" gradientUnits="userSpaceOnUse">
<stop stop-color="#E9AA45"/>
<stop offset="1" stop-color="#FAD67C"/>
</linearGradient>
</defs>
</svg>
