<svg width="228" height="343" viewBox="0 0 228 343" fill="none" xmlns="http://www.w3.org/2000/svg">
<path d="M225.271 325.977C225.255 335.396 217.607 343.019 208.19 343L17.0224 342.67C7.60699 342.654 -0.0162804 335.008 2.61114e-05 325.589L0.534859 18.7239C0.551165 9.30524 8.20055 1.68522 17.6159 1.70316L208.783 2.03418C218.199 2.05048 225.822 9.69822 225.806 19.1152L225.271 325.977Z" fill="#828282"/>
<path d="M226.977 324.274C226.961 333.693 219.313 341.316 209.896 341.296L18.7288 340.967C9.31339 340.951 1.6901 333.305 1.70804 323.886L2.2429 17.0207C2.2592 7.60212 9.90859 -0.0179055 19.3239 3.16024e-05L210.491 0.331055C219.907 0.347361 227.53 7.9951 227.514 17.4121L226.977 324.274Z" fill="url(#paint0_linear_4689_7213)"/>
<path d="M30.9921 59.4054C30.9953 53.4877 23.3558 50.4645 20.7793 44.9594L20.7418 44.8828L20.7027 44.9578C18.1214 50.4645 10.4818 53.4796 10.4785 59.394C10.4801 64.343 17.0191 66.2541 20.2102 62.1155C20.2803 61.9068 20.2037 63.4298 19.9901 64.2924C19.2237 66.8313 16.4711 70.5313 15.1308 71.6776C16.9848 70.0877 24.4826 70.0894 26.335 71.6809C24.9978 70.5313 22.3773 66.9618 21.4805 64.2908C21.2962 63.5505 21.1854 62.8036 21.1381 62.0601C24.2493 66.5509 30.9904 64.4506 30.9921 59.4054Z" fill="black"/>
<path d="M210.555 276.349C210.604 275.604 210.714 274.857 210.899 274.118C211.796 271.447 214.418 267.878 215.754 266.727C213.903 268.318 206.404 268.32 204.55 266.73C205.89 267.876 208.643 271.576 209.409 274.115C209.623 274.976 209.699 276.499 209.629 276.292C206.438 272.152 199.899 274.064 199.897 279.014C199.901 284.928 207.54 287.945 210.122 293.45L210.162 293.525L210.2 293.448C212.776 287.943 220.416 284.921 220.413 279.002C220.409 273.957 213.668 271.857 210.555 276.349Z" fill="black"/>
<path d="M22.8748 30.6478C22.834 30.488 22.7166 30.3591 22.5177 30.3591H19.5792C19.4602 30.3591 19.382 30.4537 19.3428 30.5842L18.746 34.0998C18.7069 34.3232 18.7851 34.5173 18.9466 34.6771L19.819 35.4109C19.9771 35.5707 20.2152 35.7011 20.2152 35.7957C20.2152 35.8903 20.1353 35.9881 19.9364 35.9881H15.3722C15.214 35.9881 15.1357 35.8919 15.1357 35.7957C15.1357 35.7011 15.2939 35.5707 15.4129 35.4761L16.525 34.5809C16.7631 34.3885 16.8039 34.0689 16.843 33.7819L20.4533 12.2948C20.4924 12.135 20.5739 12.0078 20.7713 12.0078H22.2388C22.4378 12.0078 22.5552 12.1676 22.596 12.3584L26.366 33.8145C26.4068 34.1341 26.5258 34.4863 26.803 34.6803L27.9543 35.5103C28.0733 35.6066 28.1923 35.7044 28.1923 35.799C28.1923 35.8936 28.1124 35.9914 27.9135 35.9914H22.1997C22.0008 35.9914 21.9225 35.8952 21.9225 35.799C21.9225 35.7044 22.0807 35.6066 22.1997 35.5103L23.271 34.6477C23.4292 34.5205 23.5091 34.2955 23.47 34.0069L22.8748 30.6478ZM22.3204 28.6649C22.4394 28.6649 22.5193 28.5687 22.4785 28.4415L21.0909 20.6079H21.011L19.7016 28.4741C19.6608 28.6029 19.7423 28.6665 19.8222 28.6665L22.3204 28.6649Z" fill="black"/>
<path d="M22.8748 30.6478C22.834 30.488 22.7166 30.3591 22.5177 30.3591H19.5792C19.4602 30.3591 19.382 30.4537 19.3428 30.5842L18.746 34.0998C18.7069 34.3232 18.7851 34.5173 18.9466 34.6771L19.819 35.4109C19.9771 35.5707 20.2152 35.7011 20.2152 35.7957C20.2152 35.8903 20.1353 35.9881 19.9364 35.9881H15.3722C15.214 35.9881 15.1357 35.8919 15.1357 35.7957C15.1357 35.7011 15.2939 35.5707 15.4129 35.4761L16.525 34.5809C16.7631 34.3885 16.8039 34.0689 16.843 33.7819L20.4533 12.2948C20.4924 12.135 20.5739 12.0078 20.7713 12.0078H22.2388C22.4378 12.0078 22.5552 12.1676 22.596 12.3584L26.366 33.8145C26.4068 34.1341 26.5258 34.4863 26.803 34.6803L27.9543 35.5103C28.0733 35.6066 28.1923 35.7044 28.1923 35.799C28.1923 35.8936 28.1124 35.9914 27.9135 35.9914H22.1997C22.0008 35.9914 21.9225 35.8952 21.9225 35.799C21.9225 35.7044 22.0807 35.6066 22.1997 35.5103L23.271 34.6477C23.4292 34.5205 23.5091 34.2955 23.47 34.0069L22.8748 30.6478ZM22.3204 28.6649C22.4394 28.6649 22.5193 28.5687 22.4785 28.4415L21.0909 20.6079H21.011L19.7016 28.4741C19.6608 28.6029 19.7423 28.6665 19.8222 28.6665L22.3204 28.6649Z" fill="black"/>
<path d="M208.171 307.458C208.211 307.617 208.329 307.746 208.528 307.746H211.466C211.585 307.746 211.665 307.65 211.703 307.521L212.3 304.005C212.337 303.782 212.259 303.59 212.101 303.428L211.227 302.693C211.067 302.533 210.83 302.404 210.83 302.31C210.83 302.213 210.909 302.117 211.108 302.117H215.672C215.83 302.117 215.91 302.212 215.91 302.31C215.91 302.404 215.75 302.533 215.631 302.629L214.519 303.524C214.281 303.715 214.24 304.036 214.203 304.325L210.591 325.812C210.55 325.972 210.47 326.099 210.273 326.099H208.805C208.606 326.099 208.489 325.939 208.448 325.747L204.678 304.292C204.637 303.973 204.518 303.621 204.241 303.428L203.09 302.598C202.971 302.502 202.852 302.404 202.852 302.31C202.852 302.213 202.931 302.117 203.13 302.117H208.844C209.043 302.117 209.123 302.212 209.123 302.31C209.123 302.404 208.963 302.502 208.844 302.598L207.773 303.461C207.615 303.588 207.535 303.813 207.574 304.098L208.171 307.458ZM208.727 309.44C208.606 309.44 208.526 309.535 208.567 309.664L209.956 317.497H210.035L211.344 309.631C211.385 309.502 211.303 309.439 211.225 309.439L208.727 309.44Z" fill="black"/>
<path d="M149.717 174.477C149.717 154.235 123.572 143.895 114.746 125.053L114.612 124.789L114.477 125.053C105.648 143.894 79.5059 154.235 79.5059 174.477C79.5059 191.412 101.9 197.955 112.818 183.781C113.05 183.062 112.796 188.285 112.062 191.222C109.443 199.92 100.021 212.577 95.4406 216.513C101.777 211.067 127.449 211.067 133.785 216.513C129.205 212.577 120.241 200.36 117.162 191.218C116.531 188.688 116.151 186.137 115.987 183.584C126.643 198.953 149.717 191.76 149.717 174.477Z" fill="black"/>
<defs>
<linearGradient id="paint0_linear_4689_7213" x1="37.8612" y1="350.603" x2="216.694" y2="-68.7161" gradientUnits="userSpaceOnUse">
<stop stop-color="#E1E1E1"/>
<stop offset="0.1158" stop-color="#ECECEC"/>
<stop offset="0.3159" stop-color="#FAFAFA"/>
<stop offset="0.4909" stop-color="white"/>
<stop offset="0.6975" stop-color="#FCFCFC"/>
<stop offset="0.8527" stop-color="#F2F2F2"/>
<stop offset="0.991" stop-color="#E2E2E2"/>
<stop offset="1" stop-color="#E1E1E1"/>
</linearGradient>
</defs>
</svg>
