<svg width="278" height="364" viewBox="0 0 278 364" fill="none" xmlns="http://www.w3.org/2000/svg">
<path d="M211.802 251.308L213.066 250.828C216.532 254.565 217.336 270.686 217.145 275.836C216.224 300.557 202.305 325.677 184.396 342.215C170.032 355.478 150.841 364.757 130.969 363.95C128.945 363.868 123.179 363.786 121.736 362.421C125.211 361.81 128.716 361.49 132.149 360.64C148.952 356.491 163.341 346.808 175.5 334.763C193.031 317.394 206.686 293.781 210.656 269.23C211.618 263.275 211.777 257.325 211.802 251.308Z" fill="#833102"/>
<path d="M54.8926 112.724C53.0514 109.45 51.6508 105.808 50.6818 102.183C45.5882 83.1389 50.0284 64.3401 59.7627 47.5974C72.1088 26.3623 94.7726 8.39005 118.598 2.12726C130.894 -1.10464 144.545 -1.13596 155.793 5.43052C155.707 5.46897 155.624 5.5102 155.538 5.54574C154.389 6.01925 148.865 5.42091 147.19 5.46403C142.859 5.57458 138.369 6.3745 134.169 7.40616C104.363 14.727 75.201 38.3617 62.0554 66.1262C57.868 74.9707 55.0268 84.5422 54.3211 94.3305C54.0363 98.2837 54.1427 102.474 54.4943 106.423C54.6561 108.237 55.1434 110.361 55.0941 112.159C55.0878 112.378 54.9908 112.537 54.8926 112.724Z" fill="#833102"/>
<path d="M64.5984 125.164C63.9521 124.459 63.9329 123.929 63.8959 123.015C63.7452 119.295 64.9212 114.733 66.1559 111.235C74.8521 86.5949 102.573 75.888 122.552 62.1773C129.5 57.4098 135.981 51.992 141.433 45.5489C142.197 44.6393 142.941 43.713 143.664 42.7702C144.387 41.8274 145.088 40.8692 145.769 39.8953C146.449 38.9212 147.107 37.9326 147.743 36.9294C148.38 35.926 148.993 34.909 149.584 33.8785C150.175 32.848 150.743 31.8047 151.287 30.7488C151.832 29.6929 152.353 28.6254 152.85 27.5464C153.347 26.4676 153.819 25.3781 154.268 24.278C154.716 23.1778 155.14 22.0683 155.539 20.9494C156.266 18.9095 158.797 8.31161 159.265 7.79688L159.67 7.99497C161.784 14.7448 160.039 21.7222 161.749 28.4377C154.401 54.194 141.778 73.4806 118.047 86.644C111.767 90.1276 105.102 92.8972 98.6742 96.0975C87.3618 101.73 80.5487 108.026 72.1807 117.223C70.4215 120.097 67.2675 123.127 64.5984 125.164Z" fill="#501802"/>
<path d="M159.671 7.99219C170.26 17.6853 174.231 30.421 174.856 44.4362C175.85 66.7342 165.153 89.2509 150.302 105.415C136.356 120.595 117.57 132.809 96.4454 133.711C84.2503 134.231 74.7677 132.026 64.5986 125.161C67.2677 123.124 70.4217 120.094 72.181 117.22C73.3919 118.246 75.4626 119.033 76.9426 119.608C88.4401 124.079 101.176 122.898 112.316 118.017C133.322 108.813 151.341 89.9234 159.598 68.5874C159.848 67.9306 160.089 67.2701 160.318 66.6055C160.548 65.9411 160.767 65.2733 160.976 64.6022C161.185 63.9307 161.382 63.2562 161.57 62.5786C161.757 61.9013 161.934 61.221 162.1 60.5377C162.266 59.8546 162.421 59.1692 162.565 58.4811C162.709 57.793 162.843 57.1029 162.965 56.4106C163.088 55.7186 163.199 55.0246 163.3 54.3288C163.401 53.6332 163.49 52.9361 163.569 52.2374C163.647 51.539 163.715 50.8393 163.772 50.1385C163.828 49.4379 163.873 48.7366 163.908 48.0343C163.942 47.3322 163.966 46.6299 163.978 45.9268C163.99 45.224 163.991 44.5213 163.981 43.8183C163.971 43.1154 163.951 42.4128 163.918 41.7106C163.886 41.0084 163.843 40.3068 163.789 39.606C163.735 38.9052 163.67 38.2055 163.593 37.5065C163.517 36.8078 163.43 36.1104 163.331 35.4143C163.017 33.1689 162.669 30.5126 161.75 28.4345C160.039 21.7196 161.785 14.742 159.671 7.99219Z" fill="#833102"/>
<path d="M161.748 28.4453C162.668 30.5236 163.016 33.1799 163.33 35.4252C163.428 36.1212 163.516 36.8186 163.592 37.5173C163.668 38.2162 163.733 38.916 163.788 39.6169C163.842 40.3176 163.885 41.0193 163.917 41.7215C163.949 42.4236 163.97 43.1263 163.98 43.8292C163.99 44.5321 163.989 45.2349 163.977 45.9377C163.964 46.6406 163.941 47.3431 163.906 48.0451C163.872 48.7473 163.827 49.4488 163.77 50.1494C163.714 50.8503 163.646 51.5498 163.567 52.2482C163.489 52.9469 163.399 53.644 163.299 54.3397C163.198 55.0355 163.086 55.7295 162.964 56.4215C162.841 57.1138 162.708 57.8039 162.564 58.4919C162.419 59.1799 162.264 59.8655 162.098 60.5486C161.932 61.2318 161.756 61.9122 161.568 62.5895C161.381 63.267 161.183 63.9416 160.974 64.613C160.766 65.2842 160.547 65.952 160.317 66.6163C160.087 67.281 159.847 67.9415 159.596 68.5982C151.339 89.9342 133.321 108.824 112.315 118.028C101.175 122.909 88.4388 124.09 76.9412 119.619C75.4612 119.044 73.3905 118.257 72.1797 117.231C80.5478 108.034 87.361 101.738 98.6733 96.1054C105.101 92.9053 111.766 90.1355 118.046 86.6519C141.777 73.4883 154.4 54.2016 161.748 28.4453Z" fill="#D7873B"/>
<path d="M155.794 5.42969L156.384 5.89476C156.555 7.63487 155.608 9.859 155.01 11.5091C154.63 12.5797 154.225 13.6412 153.797 14.6937C153.37 15.7464 152.919 16.7892 152.445 17.8217C151.972 18.8545 151.475 19.8764 150.957 20.8871C150.438 21.898 149.897 22.8968 149.334 23.8839C148.771 24.8707 148.187 25.8449 147.581 26.8062C146.975 27.7675 146.348 28.7148 145.7 29.6485C145.053 30.5819 144.385 31.5009 143.697 32.4049C143.008 33.3092 142.3 34.1976 141.573 35.0705C140.797 36.0262 140.004 36.9674 139.194 37.8943C138.383 38.821 137.556 39.7326 136.713 40.6292C135.869 41.5257 135.009 42.4068 134.134 43.272C133.258 44.137 132.366 44.986 131.46 45.8187C130.553 46.6513 129.631 47.4672 128.695 48.2663C127.758 49.0652 126.807 49.8468 125.842 50.6111C124.877 51.3754 123.898 52.122 122.906 52.8508C121.914 53.5794 120.908 54.2896 119.89 54.9818C112.167 60.2933 103.865 64.5156 95.9012 69.4179C82.823 77.4688 69.9838 88.2256 64.7685 103.176C62.9352 108.432 61.8623 114.323 62.4116 119.887C62.5447 121.115 62.7054 122.34 62.8933 123.562C60.163 120.517 56.3485 116.621 54.8934 112.723C54.9916 112.536 55.0886 112.377 55.0946 112.159C55.1439 110.36 54.6566 108.236 54.4948 106.422C54.1431 102.473 54.0368 98.2828 54.3216 94.3297C55.0273 84.5413 57.8684 74.9699 62.0559 66.1254C75.2015 38.3608 104.364 14.7261 134.169 7.40533C138.37 6.37367 142.859 5.57374 147.191 5.46319C148.865 5.42023 154.389 6.01842 155.538 5.5449C155.624 5.50936 155.708 5.46799 155.794 5.42969Z" fill="#B95B19"/>
<path d="M211.804 251.305C211.778 257.323 211.62 263.272 210.657 269.227C206.687 293.778 193.033 317.391 175.502 334.76C163.342 346.805 148.953 356.489 132.15 360.637C128.717 361.487 125.213 361.807 121.738 362.418C121.51 362.486 121.326 362.55 121.084 362.532C118.713 362.362 112.07 359.944 110.666 358.081C111.08 358.117 111.469 358.088 111.868 357.96C114.293 357.182 116.57 355.682 118.6 354.16C130.779 345.041 136.068 329.99 142.919 316.993C155.187 293.722 171.892 272.798 194.802 259.249C200.163 256.079 205.839 253.151 211.804 251.305Z" fill="#B95B19"/>
<path d="M187.99 90.4918C189.285 90.3453 190.669 90.3521 191.974 90.3912C213.57 91.0386 234.074 104.131 248.475 119.437C265.649 137.69 278.175 164.044 277.361 189.457C276.907 203.648 271.995 216.192 261.582 225.96L259.047 228.078C259.198 226.911 259.311 225.741 259.387 224.567C259.463 223.393 259.501 222.218 259.501 221.042C259.502 219.865 259.464 218.69 259.389 217.517C259.313 216.343 259.2 215.172 259.05 214.006C256.889 196.253 246.197 179.144 233.045 167.348C226.435 161.42 218.988 156.373 211.999 150.896C197.41 139.46 182.379 125.175 176.683 107.005C175.33 102.691 174.713 98.3371 174.17 93.8606C178.675 91.9017 183.114 90.9219 187.99 90.4918Z" fill="#501802"/>
<path d="M130.751 166.125C131.756 166.809 132.537 169.77 132.934 171.03C138.523 188.781 134.699 207.873 126.274 224.053C114.532 246.601 90.6183 267.132 66.3385 274.745C51.9227 279.265 36.8556 279.519 23.2484 272.392C19.0236 270.085 15.5059 267.167 12.2275 263.669C31.9826 263.693 43.7202 250.26 54.3056 235.366C59.8887 227.51 65.01 219.359 70.7648 211.622C85.7448 191.482 105.892 172.56 130.751 166.125Z" fill="#501802"/>
<path d="M173.173 94.3594C173.274 94.4906 173.436 94.5918 173.475 94.7525C173.602 95.2645 172.989 102.336 173.036 103.927C173.676 125.515 190.041 144.038 206.375 156.467C214.49 162.641 223.39 167.883 230.833 174.912C245.221 188.501 257.637 208.327 258.181 228.589C251.569 233.361 244.122 235.051 236.091 235.193C230.752 234.931 225.615 234.23 220.467 232.754C195.805 225.685 175.077 205.287 162.903 183.276C152.661 164.758 146.266 141.626 152.344 120.693C155.708 109.105 162.574 100.18 173.173 94.3594Z" fill="#501802"/>
<path d="M165.685 113.961C166.172 116.015 166.275 118.245 166.6 120.341C167.293 124.823 168.398 128.971 170.036 133.2C176.829 150.74 191.051 167.449 205.52 179.21C217.83 189.216 231.194 195.101 240.692 208.533C242.49 211.074 244.294 213.905 245.264 216.874C245.749 218.357 245.997 220.091 245.196 221.515C244.294 223.12 242.725 223.603 241.067 224.004C234.703 224.372 228.489 222.865 222.568 220.629C197.955 211.329 178.011 186.346 167.451 162.897C159.723 145.736 159.03 131.5 165.685 113.961Z" fill="#B95B19"/>
<path d="M86.0171 140.529C92.9348 140.057 100.511 141.3 107.011 143.682C117.705 147.599 125.935 155.287 130.717 165.58C96.9825 167.393 73.5514 191.871 56.3324 218.615C49.1404 229.786 42.8697 241.78 33.7926 251.591C27.3976 257.912 20.2732 261.368 11.4625 262.927C4.66855 255.259 0.703733 244.623 0.0982533 234.452C-1.19252 212.758 10.4106 188.98 24.5403 173.149C40.1121 155.701 62.2687 141.908 86.0171 140.529Z" fill="#501802"/>
<path d="M90.921 152.233C99.7122 151.733 107.183 154.765 114.207 159.844C109.973 159.727 105.903 160.012 101.751 160.865C75.812 166.19 53.89 185.23 42.3103 208.645C36.6234 220.145 33.4694 230.915 26.161 241.985L25.8926 242.363C24.0883 244.894 21.0175 249.483 17.7476 249.893C16.7367 250.019 15.8681 249.667 15.1212 248.995C12.1261 246.298 10.9783 239.238 10.7471 235.318C9.68165 217.252 21.8096 196.481 33.3874 183.445C48.0324 166.956 68.4196 153.577 90.921 152.233Z" fill="#B95B19"/>
<path d="M166.714 225.899C172.313 224.92 180.301 226.031 185.723 227.645C197.602 231.181 207.108 239.567 212.966 250.366C190.967 249.118 165.701 271.028 152.754 286.77C151.207 288.663 149.711 290.596 148.265 292.568C146.819 294.54 145.426 296.548 144.085 298.594C142.745 300.639 141.458 302.717 140.226 304.829C138.994 306.941 137.818 309.083 136.698 311.257C135.099 314.352 133.605 317.498 132.217 320.695C130.112 325.647 124.551 341.567 121.227 344.347C120.35 346.92 116.77 350.834 114.838 352.861C113.638 354.116 110.68 357.394 109.021 357.436C108.942 357.447 108.864 357.461 108.785 357.465C107.832 357.522 105.993 355.893 105.233 355.296C95.3462 347.496 89.6138 336.586 88.1387 324.133C85.46 301.513 94.6327 277.62 108.546 260.085C122.61 242.36 143.967 228.505 166.714 225.899Z" fill="#501802"/>
<path d="M172.318 238.101C180.964 237.221 189.612 239.653 197.064 243.912C191.705 244.728 186.508 245.636 181.352 247.369C154.486 256.399 131.175 279.924 121.55 306.481C119.417 312.368 117.771 318.404 116.089 324.43C115.313 327.21 114.681 330.953 113.371 333.495C113.348 333.541 113.324 333.584 113.3 333.627C112.741 336.446 111.608 340.029 110.129 342.496C109.594 343.389 109.095 343.915 108.075 344.181C107.338 344.121 106.866 343.94 106.299 343.456C101.396 339.265 99.378 329.951 98.9012 323.676C97.3252 302.94 107.239 281.291 120.532 265.884C133.568 250.775 152.163 239.599 172.318 238.101Z" fill="#D7873B"/>
</svg>
