<svg width="364" height="324" viewBox="0 0 364 324" fill="none" xmlns="http://www.w3.org/2000/svg">
<path d="M259.953 41.4161L272.062 85.3208L274.482 84.7016L262.373 40.7969L259.953 41.4161Z" fill="#35B36F"/>
<path d="M267.313 39.5312L264.805 40.173L276.913 84.0779L279.422 83.436L267.313 39.5312Z" fill="#35B36F"/>
<path d="M262.367 40.8029L274.476 84.7076L276.911 84.0846L264.802 40.1797L262.367 40.8029Z" fill="#35B36F"/>
<path d="M261.554 32.9298L261.528 30.7343L263.381 32.4624L260.457 27.2015C260.069 26.5037 259.533 26.641 259.555 27.4322L259.727 33.3972L260.466 31.0058L261.554 32.9298Z" fill="#35B36F"/>
<path d="M261.515 30.7188L261.542 32.9142L260.454 30.9903L259.715 33.3816L259.947 41.4226L267.31 39.5385L263.368 32.4469L261.515 30.7188Z" fill="#F1C080"/>
<path d="M279.641 37.9844L280.074 83.5261L282.572 83.5489L282.139 38.0071L279.641 37.9844Z" fill="#E16751"/>
<path d="M287.237 38.0314L284.648 38.0078L285.082 83.5496L287.671 83.5732L287.237 38.0314Z" fill="#E16751"/>
<path d="M282.141 37.9922L282.574 83.5339L285.087 83.5567L284.654 38.015L282.141 37.9922Z" fill="#E16751"/>
<path d="M283.359 30.167L283.897 28.0384L285.244 30.1841L283.768 24.3492C283.573 23.5751 283.019 23.57 282.838 24.3408L281.473 30.15L282.801 28.0285L283.359 30.167Z" fill="#CF5540"/>
<path d="M283.904 28.0336L283.366 30.1622L282.808 28.0234L281.48 30.1449L279.641 37.9761L287.241 38.0453L285.252 30.1793L283.904 28.0336Z" fill="#F1C080"/>
<path d="M300.112 40.6562L287.848 84.5178L290.24 85.2352L302.505 41.3737L300.112 40.6562Z" fill="#F8DC6D"/>
<path d="M307.389 42.8217L304.909 42.0781L292.645 85.9396L295.124 86.6832L307.389 42.8217Z" fill="#F8DC6D"/>
<path d="M302.499 41.3828L290.234 85.2443L292.642 85.9659L304.906 42.1045L302.499 41.3828Z" fill="#F8DC6D"/>
<path d="M305.869 34.1532L306.978 32.2586L307.675 34.6946L307.882 28.6794C307.91 27.8815 307.379 27.7225 306.991 28.4121L304.062 33.6116L305.929 31.9438L305.869 34.1532Z" fill="#F8DC6D"/>
<path d="M306.965 32.2679L305.855 34.1625L305.915 31.9531L304.049 33.6211L300.102 40.6301L307.382 42.8128L307.662 34.7039L306.965 32.2679Z" fill="#F1C080"/>
<path d="M311.878 58.1953L307.486 78.5786L306.237 84.3676L301.295 107.323H267.079L262.063 84.0501L260.952 78.8961L256.496 58.1953H311.878Z" fill="#508AC2"/>
<path d="M307.487 78.5781L306.239 84.3671C299.889 84.3247 293.528 84.2083 287.189 84.166C280.342 84.1236 273.494 84.1025 266.647 84.039C265.134 84.0285 263.599 84.039 262.064 84.0496L260.953 78.8956C263.048 78.8956 265.123 78.9275 267.176 78.9062C273.844 78.8533 280.521 78.8214 287.189 78.7793C293.952 78.7369 300.714 78.6097 307.487 78.5781Z" fill="#F1C080"/>
<path d="M221.411 88.8809V89.9479C220.978 90.6284 220.128 91.2316 219.107 91.2779C205.312 91.9892 190.636 95.0358 176.826 94.6338C171.027 94.4637 165.212 94.3245 159.428 94.0306C158.02 93.9689 156.412 94.046 154.912 93.8605C154.046 93.7677 153.195 93.5822 152.453 93.2266L153.118 89.2521C151.974 88.7108 152.484 87.1954 153.427 86.8397C155.268 86.1128 158.454 86.5304 160.665 86.5612C166.434 86.6232 172.186 86.7931 177.955 86.9169C191.641 87.2415 206.905 87.3809 220.592 88.1076C220.653 88.1076 220.715 88.1076 220.762 88.123C220.808 88.123 220.855 88.1384 220.901 88.154C220.994 88.2004 221.086 88.2467 221.164 88.3241C221.318 88.4635 221.411 88.68 221.411 88.8809Z" fill="#545354"/>
<path d="M162.806 91.9349L162.791 91.8112L162.636 90.3886L152.569 1.06312C152.522 0.661079 152.166 0.367188 151.78 0.367188C151.764 0.367188 151.764 0.367188 151.749 0.367188L34.7409 8.0995C34.5246 8.11489 34.3233 8.22326 34.184 8.39339C34.0604 8.54813 33.9986 8.76465 34.014 8.98116L45.2262 94.6105L45.4271 96.1261L46.2004 102.018C46.2472 102.405 46.5719 102.699 46.9585 102.699H163.146C163.301 102.699 163.44 102.652 163.564 102.575C163.626 102.529 163.672 102.482 163.719 102.436C163.873 102.281 163.935 102.065 163.92 101.833L162.806 91.9349Z" fill="#807E7D"/>
<path d="M221.162 88.3415C221.084 88.2641 220.991 88.2178 220.899 88.1714C220.853 88.156 220.806 88.1404 220.76 88.1404C220.713 88.125 220.651 88.125 220.59 88.125L165.782 91.6046L162.797 91.8057L162.148 91.8367L158.096 92.0996L155.637 92.2544C155.22 92.2851 154.91 92.6254 154.91 93.0277V106.699C154.91 107.132 155.251 107.472 155.683 107.472H220.636C221.054 107.472 221.409 107.132 221.409 106.699V88.8985C221.409 88.6972 221.316 88.4807 221.162 88.3415Z" fill="#807E7D"/>
<path d="M96.2064 63.5222C102.078 63.5222 106.839 58.762 106.839 52.89C106.839 47.018 102.078 42.2578 96.2064 42.2578C90.3344 42.2578 85.5742 47.018 85.5742 52.89C85.5742 58.762 90.3344 63.5222 96.2064 63.5222Z" fill="#E3DFE0"/>
<path d="M151.762 0.372104C152.927 18.2462 155.886 34.5012 157.885 52.2986C158.858 60.9627 159.831 69.6269 160.805 78.2912C161.788 87.0481 162.292 96.03 163.932 104.69C164.252 106.384 167.005 105.995 166.934 104.284C166.564 95.3712 164.986 86.386 163.947 77.5268C162.9 68.6078 161.853 59.6887 160.807 50.7697C158.763 33.3575 157.404 17.3011 154.552 0L151.762 0.372104Z" fill="#545354"/>
<path d="M151.762 0.372104C152.927 18.2462 155.886 34.5012 157.885 52.2986C158.858 60.9627 159.831 69.6269 160.805 78.2912C161.788 87.0481 162.292 96.03 163.932 104.69C164.252 106.384 167.005 105.995 166.934 104.284C166.564 95.3712 164.986 86.386 163.947 77.5268C162.9 68.6078 161.853 59.6887 160.807 50.7697C158.763 33.3575 157.404 17.3011 154.552 0L151.762 0.372104Z" fill="#545354"/>
<path d="M321.671 118.344H47.5547V194.315H321.671V118.344Z" fill="#E3AF6B"/>
<path d="M64.1802 123.953H29.7656V323.393H64.1802V123.953Z" fill="#BA8847"/>
<path d="M338.873 123.953H304.461V323.393H338.873V123.953Z" fill="#BA8847"/>
<path opacity="0.2" d="M338.873 131.961H29.7617V140.183H338.873V131.961Z" fill="black"/>
<path d="M364 101.922H0V134.785H364V101.922Z" fill="#F1C080"/>
</svg>
