<svg width="277" height="359" viewBox="0 0 277 359" fill="none" xmlns="http://www.w3.org/2000/svg">
<g opacity="0.2">
<path d="M148.357 234.256C163.391 232.938 243.709 244.966 257.453 252.398C263.641 255.744 270.017 257.811 269.657 265.647C269.253 274.456 260.29 278.172 253.253 281.32C239.593 287.431 223.977 294.977 196.493 296.386C169.01 297.795 126.834 285.839 99.1006 277.915C91.2644 275.676 85.1904 269.1 88.9915 264.166C90.0903 262.74 96.1938 258.121 97.7645 257.512C108.016 253.534 111.76 251.448 122.609 251.048" fill="#221C18"/>
</g>
<path d="M162.812 337.023L202.614 338.863L203.215 330.057L163.156 328.016L162.812 337.023Z" fill="#488BC9"/>
<path d="M163.173 328.016L152.781 332.135L162.83 337.023L163.173 328.016Z" fill="#FCCDAC"/>
<path d="M158.566 334.92L152.781 332.106L159.335 329.508C158.901 331.264 158.652 333.088 158.566 334.92Z" fill="#29688E"/>
<path d="M203.232 330.023L206.16 330.258L205.559 339.064L202.461 338.921C202.556 336.328 203.297 332.618 203.232 330.023Z" fill="#4D433B"/>
<path d="M191.373 324.217L231.065 316.712L229.205 308.234L189.645 315.496L191.373 324.217Z" fill="#67468E"/>
<path d="M189.66 315.531L180.352 321.903L191.388 324.252L189.66 315.531Z" fill="#E9C2A6"/>
<path d="M186.705 323.239L180.352 321.886L186.222 317.867C186.196 319.653 186.37 321.46 186.705 323.239Z" fill="#4D356E"/>
<path d="M229.199 308.254L232.142 307.797L234.002 316.275L230.914 316.86C230.412 314.35 229.859 310.727 229.199 308.254Z" fill="#4D433B"/>
<path d="M238.831 309.053L198.922 302.799L199.757 294.406L240.284 300.282L238.831 309.053Z" fill="#E54625"/>
<path d="M240.309 300.312L249.812 306.389L238.855 309.083L240.309 300.312Z" fill="#E9C2A6"/>
<path d="M243.48 307.938L249.788 306.387L243.794 302.555C243.876 304.339 243.76 306.151 243.48 307.938Z" fill="#C33B27"/>
<path d="M200.323 294.302L197.367 293.938L195.969 302.447L199.075 302.934C199.496 300.409 199.741 296.795 200.323 294.302Z" fill="#4D433B"/>
<path d="M97.9957 246.384C99.1825 244.895 100.284 243.353 101.188 241.699C101.533 241.419 101.879 241.139 102.229 240.864L184.704 228.969L199.377 259.945C131.918 279.106 118.693 275.616 113.785 274.618C93.823 270.556 94.4841 256.773 97.0301 248.228C97.3623 247.619 97.6816 247.003 97.9957 246.384Z" fill="#956B50"/>
<path d="M139.057 250.149C139.057 250.149 123.316 277.549 152.914 283.571C157.822 284.569 195.397 286.367 224.299 261.594L223.833 237.922L139.057 250.149Z" fill="#AF7B58"/>
<path d="M234.782 252.964L221.83 264.926L209.535 250.415L222.838 234.547L234.782 252.964Z" fill="white"/>
<path d="M224.736 238.798L222.277 232.711L204.582 244.396L209.531 250.406C214.681 246.613 219.707 242.302 224.736 238.798Z" fill="#E4E7E7"/>
<path d="M231.136 253.284C231.136 253.284 248.498 279.747 263.917 266.451L267.641 262.94L236.388 221.789C227.107 227.185 217.957 235.307 217.957 235.307L231.136 253.284Z" fill="#6D482E"/>
<path d="M233.586 256.813C233.627 253.964 247.197 242.76 250.762 240.727C259.129 251.73 268.163 263.554 268.163 263.554L264.439 267.064C253.68 280.607 234.058 272.459 233.586 256.813Z" fill="#FFCD38"/>
<path d="M231.77 225.412L236.388 221.789C238.471 224.749 268.17 263.549 268.17 263.549L264.772 266.752C253.989 253.144 242.662 238.939 231.77 225.412Z" fill="#442F2A"/>
<path d="M231.663 254.227L236.228 245.414L233.907 244.219L229.715 251.543L231.663 254.227Z" fill="#100F22"/>
<path d="M228.238 249.61L232.729 241.094L230.208 239.914L226.426 246.958L228.238 249.61Z" fill="#100F22"/>
<path d="M227.085 216.75C227.085 216.75 231.989 238.746 218.131 244.452C218.131 244.452 188.22 263.562 186.424 263.499C186.424 263.499 163.515 244.452 139.06 250.158L131.171 246.501C121.697 243.818 112.067 240.343 102.234 240.86L132.539 219.182" fill="#47331C"/>
<path d="M139.057 250.15L161.881 235.477L147.209 233.031L125.199 244.444C125.199 244.444 134.981 247.704 139.057 250.15Z" fill="#281A0C"/>
<path d="M205.899 233.04C211.127 227.325 210.768 224.312 211.396 217.153L227.08 216.75C227.08 216.75 231.984 238.746 218.127 244.452C218.127 244.452 188.216 263.562 186.42 263.499C186.42 263.499 179.198 258.32 173.293 255.049C183.614 248.237 200.586 238.848 205.899 233.04Z" fill="#281A0C"/>
<path d="M156.089 128.469C156.089 128.469 126.18 128.063 96.4297 174.551L138.644 192.713L165.181 148.454L156.089 128.469Z" fill="#3D803E"/>
<path d="M135.491 191.668L122.797 186.021L139.66 152.203L135.491 191.668Z" fill="#386230"/>
<path d="M96.4336 174.571L139.662 195.032L141.726 185.226L101.645 166.43L96.4336 174.571Z" fill="#F8CD19"/>
<path d="M227.884 220.882C228.654 160.5 216.382 153.209 215.159 145.135C215.159 145.135 218.637 140.571 206.247 132.658C203.734 133.148 187.469 132.085 171.317 131.977C159.265 136.269 150.561 141.8 139.148 147.555C137.904 158.726 136.052 183.167 130.891 219.334C130.89 219.334 186.315 227.849 227.884 220.882Z" fill="#3D803E"/>
<path d="M199.016 127.401C199.016 127.401 227.918 123.272 252.692 163.528L202.563 196.624L183.32 148.741L199.016 127.401Z" fill="#3D803E"/>
<path d="M216.401 181.523L230.496 183.17L209.852 152.203L216.401 181.523Z" fill="#386230"/>
<path d="M207.425 129.234C207.425 129.234 206.666 154.182 178.912 154.029C178.912 154.029 155.665 155.857 150.609 129.899L178.792 126.141L207.425 129.234Z" fill="#F8CD19"/>
<path d="M195.481 134.333C195.481 134.333 194.638 145.645 179.634 146.307C163.225 147.03 161.258 130.328 161.258 130.328L195.481 134.333Z" fill="#956B50"/>
<path d="M224.472 76.393C226.775 75.2864 228.639 75.1133 230.14 75.4613C230.319 75.503 230.505 75.4582 230.639 75.3312C234.914 71.3023 239.034 67.1204 242.459 62.3063C242.806 61.8178 243.2 61.3783 243.631 61.0021C243.932 60.739 243.876 60.2554 243.519 60.0792C243.511 60.0751 243.503 60.0709 243.494 60.0671C243.047 59.8477 243.088 59.1763 243.566 59.0417C251.046 56.9365 250.174 45.8844 242.056 46.1066C241.553 46.1203 241.32 45.4916 241.69 45.1444C246.682 40.4605 244.542 29.2529 241.92 26.7337C233.822 18.9552 228.384 18.377 219.048 22.27C218.625 22.4462 218.181 22.0441 218.321 21.6025C221.284 12.2791 207.578 6.113 202.208 14.9132C201.942 15.3499 201.286 15.2361 201.207 14.729C198.332 -3.73503 166.782 -5.03356 164.289 13.5169C164.223 14.0033 163.624 14.1815 163.326 13.7947C157.839 6.65502 146.812 10.451 146.866 18.4911C146.869 18.9371 146.359 19.1899 146.004 18.926C138.481 13.3233 130.729 15.2407 123.573 21.9088C117.827 27.2613 116.107 39.7107 121.663 45.523C122.012 45.8885 123.972 43.945 123.488 43.8151C110.001 40.2044 105.9 61.3343 119.275 65.4971C119.76 65.6482 119.804 66.3349 119.333 66.5302C108.518 71.0162 113.197 94.4327 130.855 83.3255C130.994 83.238 131.091 83.0887 131.113 82.9242L133.344 66.7126C133.387 66.4016 133.677 66.1954 133.981 66.2459C141.225 67.4505 143.196 62.7896 143.714 59.6622C143.801 59.1369 144.495 59.0415 144.736 59.5139C145.728 61.4611 147.838 64.1603 152.276 66.11C160.763 69.8377 167.998 61.7746 169.6 59.8026C169.788 59.5703 169.366 59.6171 169.6 59.8026C184.163 71.3782 194.856 58.5869 198.108 53.3322C198.404 52.8536 199.131 53.0927 199.108 53.6575C198.453 69.4465 207.089 67.8062 209.968 66.8296C210.363 66.6958 210.752 67.0474 210.668 67.4613C207.645 82.3415 217.402 83.6137 219.576 83.7138C219.823 83.7252 220.041 83.563 220.116 83.3236C221.421 79.2043 223.901 76.869 224.335 76.4841C224.376 76.4478 224.423 76.4168 224.472 76.393Z" fill="#35302C"/>
<path d="M133.424 66.1386C133.424 66.1386 128.101 63.7596 126.102 59.1044C124.616 60.701 119.379 60.4884 117.049 56.473C114.938 52.8327 114.684 47.1305 116.841 44.4297C108.293 46.559 107.167 63.1503 121.19 65.9784C108.007 68.435 112.293 95.2299 131.079 83.1791L133.424 66.1386Z" fill="#2D2723"/>
<path d="M132.541 82.8835C132.541 82.8835 126.715 77.2291 121.943 84.7851C117.166 92.3396 128.597 101.846 132.805 98.359L132.541 82.8835Z" fill="#AF7B58"/>
<path d="M122.254 87.8821C122.027 86.3308 122.426 84.7849 122.937 83.4297C122.607 83.8271 122.274 84.2799 121.943 84.8069C117.166 92.3613 128.597 101.868 132.805 98.3808L132.639 96.5255C128.07 95.6606 123.068 93.4084 122.254 87.8821Z" fill="#956B50"/>
<path d="M237.708 69.9212C232.224 70.5532 226.66 69.6894 221.516 67.6705C212.312 64.0577 203.665 57.8192 197.103 50.3462C196.915 50.1328 196.751 49.909 196.583 49.6875C194.92 51.9221 193.367 54.2188 192.116 56.694C190.104 60.6762 185.756 62.2428 181.545 62.0255C181.193 62.1489 180.845 62.3121 180.474 62.3525C173.969 63.0604 171.025 61.8374 168.19 58.3102C167.995 58.6753 169.486 60.3981 167.887 58.9842C167.191 59.7852 166.494 60.5859 165.798 61.3869C164.161 62.8348 162.282 63.7869 160.159 64.243C159.059 64.3196 157.96 64.3964 156.86 64.4735C156.208 64.4554 155.578 64.3747 154.968 64.2339C154.344 64.2984 153.716 64.3253 153.088 64.2836C148.94 64.0096 145.813 60.8361 143.879 57.0075C141.876 61.0703 137.245 65.3475 132.76 65.5138C131.826 74.2431 130.812 85.6725 130.651 95.3466C128.991 117.719 141.731 137.5 172.132 139.063C178.079 139.369 181.685 138.874 181.685 138.874C193.729 137.653 217.331 131.665 223.252 109.565L238.334 85.2577C237.137 80.0463 237.416 75.0115 237.708 69.9212Z" fill="#C88B65"/>
<path d="M161.824 91.3274C160.903 100.384 154.091 101.903 148.428 100.563C142.035 99.049 139.065 93.9783 140.059 88.097C141.051 82.2165 147.683 78.7917 152.118 79.3772C157.883 80.143 162.433 85.3946 161.824 91.3274Z" fill="#AF7B58"/>
<path d="M160.5 92.7686C159.603 98.066 154.652 101.631 149.44 100.727C144.229 99.8291 140.728 94.8032 141.625 89.5059C142.52 84.208 147.469 80.6456 152.681 81.5452C157.894 82.4471 161.396 87.4697 160.5 92.7686Z" fill="white"/>
<path d="M158.565 94.1548C157.81 98.6082 153.651 101.607 149.267 100.849C144.883 100.091 141.939 95.8666 142.692 91.4111C143.441 86.959 147.608 83.9617 151.992 84.7184C156.375 85.4775 159.315 89.7025 158.565 94.1548Z" fill="#35302C"/>
<path d="M155.233 89.7149C155.044 90.8197 154.013 91.5607 152.93 91.3736C151.845 91.1868 151.116 90.1405 151.303 89.0371C151.49 87.9334 152.52 87.1942 153.605 87.3802C154.686 87.5683 155.417 88.6141 155.233 89.7149Z" fill="#FFFFF9"/>
<g opacity="0.5">
<path d="M207.905 88.6766C206.549 94.5819 202.565 98.7259 196.674 98.2977C188.48 97.7032 184.168 90.3228 185.483 84.4118C186.996 77.597 193.488 75.2398 199.312 76.2455C205.131 77.2527 209.213 82.9723 207.905 88.6766Z" fill="#AF7B58"/>
</g>
<path d="M206.59 89.7733C205.658 95.305 200.485 99.028 195.04 98.086C189.598 97.1458 185.942 91.8992 186.876 86.3651C187.808 80.8341 192.981 77.1111 198.427 78.0516C203.867 78.9936 207.523 84.241 206.59 89.7733Z" fill="white"/>
<path d="M204.581 91.2156C203.798 95.8405 199.477 98.9545 194.924 98.1701C190.369 97.3804 187.314 92.9907 188.094 88.3624C188.878 83.738 193.2 80.6243 197.753 81.4105C202.307 82.1986 205.363 86.5855 204.581 91.2156Z" fill="#35302C"/>
<path d="M201.492 86.5855C201.302 87.696 200.266 88.4416 199.171 88.2522C198.08 88.0649 197.345 87.0119 197.534 85.9004C197.719 84.7908 198.756 84.0431 199.85 84.2325C200.943 84.4203 201.677 85.4769 201.492 86.5855Z" fill="#FFFFF9"/>
<path d="M143.388 77.505C143.388 77.505 147.56 74.4885 152.015 76.9104C152.015 76.9104 154.403 75.401 151.431 74.1879C151.431 74.1879 146.082 71.462 141.904 76.2946C141.904 76.2946 141.006 77.8051 143.388 77.505Z" fill="#2D2723"/>
<path d="M203.199 73.8074C203.199 73.8074 199.049 70.7687 194.575 73.1717C194.575 73.1717 192.201 71.6499 195.184 70.4538C195.184 70.4538 200.554 67.751 204.695 72.6025C204.695 72.6025 205.577 74.1171 203.199 73.8074Z" fill="#2D2723"/>
<path d="M181.525 62.0424C181.174 62.1658 180.817 62.276 180.455 62.3694C175.621 63.6126 170.957 62.2113 168.171 58.3271C165.966 62.6605 160.961 64.5804 156.139 64.2617C155.924 64.2475 155.718 64.2118 155.507 64.1869C154.701 64.3098 153.885 64.3543 153.069 64.3005C148.92 64.0263 145.565 61.7151 143.573 58.4441C141.586 62.4804 137.288 65.3253 132.835 65.5279L132.594 70.5166C132.594 70.5166 138.784 71.2426 144.166 70.0136C153.979 72.5633 163.398 71.6011 168.904 68.4789C184.648 75.445 196.888 65.976 198.089 53.3203C196.181 54.2494 183.701 62.1547 181.525 62.0424Z" fill="#AF7B58"/>
<path d="M196.575 49.6875C194.989 51.822 193.501 54.0126 192.281 56.3613C193.899 54.5047 195.458 52.4393 196.944 50.1547C196.815 50.0016 196.695 49.8445 196.575 49.6875Z" fill="#AF7B58"/>
<path d="M224.207 85.0341C224.207 85.0341 224.305 80.5313 227.992 80.4426C227.992 80.4426 231.547 79.6912 232.163 84.3896C232.163 84.3896 233.301 90.0109 227.486 91.2393C227.486 91.2393 232.374 87.1036 228.85 83.0194C228.85 83.0194 225.799 81.2513 224.207 85.0341Z" fill="#9A6F52"/>
<path d="M197.02 43.5391C197.02 43.5391 196.461 45.2787 195.196 47.615C194.018 50.8914 191.553 53.9521 189.257 56.3427C186.365 59.3514 182.817 61.3749 178.497 61.7958C172.557 62.3738 172.092 60.519 169.18 59.0479C170.117 60.918 171.182 68.1082 182.838 65.6971C195.856 63.003 198.218 50.2335 198.218 50.2335L197.02 43.5391Z" fill="#2D2723"/>
<path d="M197.023 43.5391C197.023 43.5391 196.38 57.536 209.054 55.0952C209.054 55.0952 201.639 63.5945 195.223 52.3933L197.023 43.5391Z" fill="#2D2723"/>
<path d="M123.562 21.873C123.562 21.873 134.444 9.64761 146.941 19.6366L149.214 28.3706C149.214 28.3706 136.593 13.7266 123.562 21.873Z" fill="#514E47"/>
<path d="M181.078 0.0135278C181.078 0.0135278 200.921 -1.08449 201.393 16.5043L196.538 25.4468C196.538 25.4468 197.029 5.76002 181.078 0.0135278Z" fill="#514E47"/>
<path d="M231.422 20.586C231.422 20.586 242.781 20.4714 245.646 32.2942C247.608 40.3946 241.425 45.8774 241.425 45.8774L232.783 46.6479C232.783 46.6479 242.901 30.6035 231.422 20.586Z" fill="#514E47"/>
<path d="M143.871 56.9949C143.871 56.9949 146.912 63.0588 153.774 62.7543C160.069 62.4757 166.475 59.0525 167.621 49.5703L169.922 59.3397C169.922 59.3397 167.061 66.6711 157.44 67.2276C152.609 67.5065 147.527 66.1966 143.871 56.9949Z" fill="#2D2723"/>
<path d="M210.44 68.5144C206.741 82.6006 220.005 83.6834 220.005 83.6834C221.391 78.9006 224.41 76.3897 224.41 76.3897C233.463 71.9837 235.796 81.8803 235.796 81.8803C236.713 95.959 225.482 94.8827 225.482 94.8827L223.261 109.556C232.937 114.062 240.028 102.983 234.77 96.9243C256.608 94.2152 255.28 63.7089 241.785 59.315C249.819 58.6907 250.54 50.5715 245.111 48.0469C245.415 49.7115 246.8 51.5321 243.669 53.5649C239.104 56.5299 236.813 55.4016 234.298 55.651C241.463 61.5243 228.895 72.6338 220.387 59.4221C218.167 66.8648 207.769 63.933 210.078 55.0642C210.078 55.0642 202.497 57.3568 198.918 56.9433C198.918 56.9438 196.224 70.4831 210.44 68.5144Z" fill="#2D2723"/>
<path d="M130.848 65.1718C130.848 65.1718 140.852 72.0217 145.074 58.4388L141.66 50.3594C141.66 50.3594 142.732 66.5073 130.848 65.1718Z" fill="#2D2723"/>
<path d="M150.305 11.2298C150.305 11.2298 160.335 5.24214 164.163 14.9668L163.98 22.3497C163.98 22.3497 158.974 11.4944 150.305 11.2298Z" fill="#514E47"/>
<path d="M217.877 22.7163L210.805 24.9931C210.805 24.9931 219.265 17.4984 212.48 11.4844C212.48 11.4844 221.192 13.3004 217.877 22.7163Z" fill="#514E47"/>
<path d="M195.356 116.218C195.356 116.218 193.806 129.229 175.609 128.6C158.203 127.064 157.713 115.857 157.713 115.857C157.713 115.857 156.643 108.775 163.505 109.995C166.931 110.603 173.69 114.79 187.651 109.225C190.133 108.236 192.19 108.828 193.189 109.416C196.239 111.211 195.356 116.218 195.356 116.218Z" fill="#F26E4C"/>
<path d="M162.125 123.677C164.804 126.053 168.908 128.171 175.174 128.643C185.645 128.885 191.521 125.15 193.703 120.39C188.769 116.475 168.441 117.994 162.125 123.677Z" fill="#C93B27"/>
<path d="M175.814 116.022C176.056 116.021 189.428 115.787 194.568 110.771C194.238 110.239 193.8 109.765 193.207 109.416C192.208 108.828 190.15 108.236 187.669 109.225C173.708 114.79 166.948 110.603 163.523 109.995C159.895 109.349 158.488 111.024 157.965 112.747C162.112 114.743 167.235 116.108 175.814 116.022Z" fill="white"/>
<mask id="mask0_4698_40893" style="mask-type:luminance" maskUnits="userSpaceOnUse" x="167" y="96" width="14" height="12">
<path d="M177.363 107.22C173.261 108.371 169.522 106.463 168.359 104.141C167.645 102.717 167.302 101.303 168.77 98.625C172.912 94.3326 177.996 97.7167 180.361 100.368L178.046 106.009L177.363 107.22Z" fill="white"/>
</mask>
<g mask="url(#mask0_4698_40893)">
<path d="M169.672 94.5234L167.487 104.348L166.949 94.6838L169.672 94.5234Z" fill="#896647"/>
</g>
<mask id="mask1_4698_40893" style="mask-type:luminance" maskUnits="userSpaceOnUse" x="167" y="96" width="14" height="12">
<path d="M177.363 107.22C173.261 108.371 169.522 106.463 168.359 104.141C167.645 102.717 167.302 101.303 168.77 98.625C172.912 94.3326 177.996 97.7167 180.361 100.368L178.046 106.009L177.363 107.22Z" fill="white"/>
</mask>
<g mask="url(#mask1_4698_40893)">
<path d="M169.822 94.5234L167.502 104.955L167.469 104.358L169.654 94.5333L169.822 94.5234Z" fill="#896647"/>
</g>
<mask id="mask2_4698_40893" style="mask-type:luminance" maskUnits="userSpaceOnUse" x="167" y="96" width="14" height="12">
<path d="M177.363 107.22C173.261 108.371 169.522 106.463 168.359 104.141C167.645 102.717 167.302 101.303 168.77 98.625C172.912 94.3326 177.996 97.7167 180.361 100.368L178.046 106.009L177.363 107.22Z" fill="white"/>
</mask>
<g mask="url(#mask2_4698_40893)">
<path d="M169.992 94.5078L167.537 105.546L167.504 104.949L169.824 94.5176L169.992 94.5078Z" fill="#886647"/>
</g>
<mask id="mask3_4698_40893" style="mask-type:luminance" maskUnits="userSpaceOnUse" x="167" y="96" width="14" height="12">
<path d="M177.363 107.22C173.261 108.371 169.522 106.463 168.359 104.141C167.645 102.717 167.302 101.303 168.77 98.625C172.912 94.3326 177.996 97.7167 180.361 100.368L178.046 106.009L177.363 107.22Z" fill="white"/>
</mask>
<g mask="url(#mask3_4698_40893)">
<path d="M170.17 94.5L167.58 106.144L167.547 105.548L170.002 94.5101L170.17 94.5Z" fill="#896647"/>
</g>
<mask id="mask4_4698_40893" style="mask-type:luminance" maskUnits="userSpaceOnUse" x="167" y="96" width="14" height="12">
<path d="M177.363 107.22C173.261 108.371 169.522 106.463 168.359 104.141C167.645 102.717 167.302 101.303 168.77 98.625C172.912 94.3326 177.996 97.7167 180.361 100.368L178.046 106.009L177.363 107.22Z" fill="white"/>
</mask>
<g mask="url(#mask4_4698_40893)">
<path d="M170.32 94.5078L167.596 106.759L167.562 106.162L170.152 94.5176L170.32 94.5078Z" fill="#8A6949"/>
</g>
<mask id="mask5_4698_40893" style="mask-type:luminance" maskUnits="userSpaceOnUse" x="167" y="96" width="14" height="12">
<path d="M177.363 107.22C173.261 108.371 169.522 106.463 168.359 104.141C167.645 102.717 167.302 101.303 168.77 98.625C172.912 94.3326 177.996 97.7167 180.361 100.368L178.046 106.009L177.363 107.22Z" fill="white"/>
</mask>
<g mask="url(#mask5_4698_40893)">
<path d="M170.495 94.4375L167.635 107.295L167.602 106.698L170.326 94.4473L170.495 94.4375Z" fill="#8C6949"/>
</g>
<mask id="mask6_4698_40893" style="mask-type:luminance" maskUnits="userSpaceOnUse" x="167" y="96" width="14" height="12">
<path d="M177.363 107.22C173.261 108.371 169.522 106.463 168.359 104.141C167.645 102.717 167.302 101.303 168.77 98.625C172.912 94.3326 177.996 97.7167 180.361 100.368L178.046 106.009L177.363 107.22Z" fill="white"/>
</mask>
<g mask="url(#mask6_4698_40893)">
<path d="M170.668 94.4922L167.674 107.956L167.641 107.36L170.501 94.502L170.668 94.4922Z" fill="#8C6848"/>
</g>
<mask id="mask7_4698_40893" style="mask-type:luminance" maskUnits="userSpaceOnUse" x="167" y="96" width="14" height="12">
<path d="M177.363 107.22C173.261 108.371 169.522 106.463 168.359 104.141C167.645 102.717 167.302 101.303 168.77 98.625C172.912 94.3326 177.996 97.7167 180.361 100.368L178.046 106.009L177.363 107.22Z" fill="white"/>
</mask>
<g mask="url(#mask7_4698_40893)">
<path d="M170.835 94.4297L167.705 108.5L167.672 107.904L170.666 94.4398L170.835 94.4297Z" fill="#8E694B"/>
</g>
<mask id="mask8_4698_40893" style="mask-type:luminance" maskUnits="userSpaceOnUse" x="167" y="96" width="14" height="12">
<path d="M177.363 107.22C173.261 108.371 169.522 106.463 168.359 104.141C167.645 102.717 167.302 101.303 168.77 98.625C172.912 94.3326 177.996 97.7167 180.361 100.368L178.046 106.009L177.363 107.22Z" fill="white"/>
</mask>
<g mask="url(#mask8_4698_40893)">
<path d="M170.993 94.4375L167.824 108.684L167.705 108.691L167.695 108.518L170.825 94.4473L170.993 94.4375Z" fill="#8E694B"/>
</g>
<mask id="mask9_4698_40893" style="mask-type:luminance" maskUnits="userSpaceOnUse" x="167" y="96" width="14" height="12">
<path d="M177.363 107.22C173.261 108.371 169.522 106.463 168.359 104.141C167.645 102.717 167.302 101.303 168.77 98.625C172.912 94.3326 177.996 97.7167 180.361 100.368L178.046 106.009L177.363 107.22Z" fill="white"/>
</mask>
<g mask="url(#mask9_4698_40893)">
<path d="M171.184 94.4141L168.016 108.66L167.848 108.67L171.016 94.4239L171.184 94.4141Z" fill="#8F694A"/>
</g>
<mask id="mask10_4698_40893" style="mask-type:luminance" maskUnits="userSpaceOnUse" x="167" y="96" width="14" height="12">
<path d="M177.363 107.22C173.261 108.371 169.522 106.463 168.359 104.141C167.645 102.717 167.302 101.303 168.77 98.625C172.912 94.3326 177.996 97.7167 180.361 100.368L178.046 106.009L177.363 107.22Z" fill="white"/>
</mask>
<g mask="url(#mask10_4698_40893)">
<path d="M171.344 94.4062L168.176 108.652L168.008 108.662L171.176 94.4161L171.344 94.4062Z" fill="#906C4E"/>
</g>
<mask id="mask11_4698_40893" style="mask-type:luminance" maskUnits="userSpaceOnUse" x="167" y="96" width="14" height="12">
<path d="M177.363 107.22C173.261 108.371 169.522 106.463 168.359 104.141C167.645 102.717 167.302 101.303 168.77 98.625C172.912 94.3326 177.996 97.7167 180.361 100.368L178.046 106.009L177.363 107.22Z" fill="white"/>
</mask>
<g mask="url(#mask11_4698_40893)">
<path d="M171.513 94.4141L168.344 108.66L168.176 108.67L171.344 94.4239L171.513 94.4141Z" fill="#906C4E"/>
</g>
<mask id="mask12_4698_40893" style="mask-type:luminance" maskUnits="userSpaceOnUse" x="167" y="96" width="14" height="12">
<path d="M177.363 107.22C173.261 108.371 169.522 106.463 168.359 104.141C167.645 102.717 167.302 101.303 168.77 98.625C172.912 94.3326 177.996 97.7167 180.361 100.368L178.046 106.009L177.363 107.22Z" fill="white"/>
</mask>
<g mask="url(#mask12_4698_40893)">
<path d="M171.676 94.3984L168.508 108.644L168.34 108.654L171.508 94.4085L171.676 94.3984Z" fill="#926D4E"/>
</g>
<mask id="mask13_4698_40893" style="mask-type:luminance" maskUnits="userSpaceOnUse" x="167" y="96" width="14" height="12">
<path d="M177.363 107.22C173.261 108.371 169.522 106.463 168.359 104.141C167.645 102.717 167.302 101.303 168.77 98.625C172.912 94.3326 177.996 97.7167 180.361 100.368L178.046 106.009L177.363 107.22Z" fill="white"/>
</mask>
<g mask="url(#mask13_4698_40893)">
<path d="M171.844 94.3984L168.676 108.644L168.508 108.654L171.676 94.4083L171.844 94.3984Z" fill="#916B4E"/>
</g>
<mask id="mask14_4698_40893" style="mask-type:luminance" maskUnits="userSpaceOnUse" x="167" y="96" width="14" height="12">
<path d="M177.363 107.22C173.261 108.371 169.522 106.463 168.359 104.141C167.645 102.717 167.302 101.303 168.77 98.625C172.912 94.3326 177.996 97.7167 180.361 100.368L178.046 106.009L177.363 107.22Z" fill="white"/>
</mask>
<g mask="url(#mask14_4698_40893)">
<path d="M172.028 94.3906L168.86 108.637L168.691 108.647L171.86 94.4007L172.028 94.3906Z" fill="#946F50"/>
</g>
<mask id="mask15_4698_40893" style="mask-type:luminance" maskUnits="userSpaceOnUse" x="167" y="96" width="14" height="12">
<path d="M177.363 107.22C173.261 108.371 169.522 106.463 168.359 104.141C167.645 102.717 167.302 101.303 168.77 98.625C172.912 94.3326 177.996 97.7167 180.361 100.368L178.046 106.009L177.363 107.22Z" fill="white"/>
</mask>
<g mask="url(#mask15_4698_40893)">
<path d="M172.18 94.3906L169.012 108.637L168.844 108.647L172.012 94.4005L172.18 94.3906Z" fill="#957050"/>
</g>
<mask id="mask16_4698_40893" style="mask-type:luminance" maskUnits="userSpaceOnUse" x="167" y="96" width="14" height="12">
<path d="M177.363 107.22C173.261 108.371 169.522 106.463 168.359 104.141C167.645 102.717 167.302 101.303 168.77 98.625C172.912 94.3326 177.996 97.7167 180.361 100.368L178.046 106.009L177.363 107.22Z" fill="white"/>
</mask>
<g mask="url(#mask16_4698_40893)">
<path d="M172.352 94.3281L169.184 108.574L169.016 108.584L172.184 94.3382L172.352 94.3281Z" fill="#966E4F"/>
</g>
<mask id="mask17_4698_40893" style="mask-type:luminance" maskUnits="userSpaceOnUse" x="167" y="96" width="14" height="12">
<path d="M177.363 107.22C173.261 108.371 169.522 106.463 168.359 104.141C167.645 102.717 167.302 101.303 168.77 98.625C172.912 94.3326 177.996 97.7167 180.361 100.368L178.046 106.009L177.363 107.22Z" fill="white"/>
</mask>
<g mask="url(#mask17_4698_40893)">
<path d="M172.52 94.3203L169.352 108.566L169.184 108.576L172.352 94.3301L172.52 94.3203Z" fill="#956F50"/>
</g>
<mask id="mask18_4698_40893" style="mask-type:luminance" maskUnits="userSpaceOnUse" x="167" y="96" width="14" height="12">
<path d="M177.363 107.22C173.261 108.371 169.522 106.463 168.359 104.141C167.645 102.717 167.302 101.303 168.77 98.625C172.912 94.3326 177.996 97.7167 180.361 100.368L178.046 106.009L177.363 107.22Z" fill="white"/>
</mask>
<g mask="url(#mask18_4698_40893)">
<path d="M172.688 94.3281L169.519 108.574L169.352 108.584L172.52 94.338L172.688 94.3281Z" fill="#987152"/>
</g>
<mask id="mask19_4698_40893" style="mask-type:luminance" maskUnits="userSpaceOnUse" x="167" y="96" width="14" height="12">
<path d="M177.363 107.22C173.261 108.371 169.522 106.463 168.359 104.141C167.645 102.717 167.302 101.303 168.77 98.625C172.912 94.3326 177.996 97.7167 180.361 100.368L178.046 106.009L177.363 107.22Z" fill="white"/>
</mask>
<g mask="url(#mask19_4698_40893)">
<path d="M172.84 94.3047L169.672 108.55L169.504 108.56L172.672 94.3145L172.84 94.3047Z" fill="#997051"/>
</g>
<mask id="mask20_4698_40893" style="mask-type:luminance" maskUnits="userSpaceOnUse" x="167" y="96" width="14" height="12">
<path d="M177.363 107.22C173.261 108.371 169.522 106.463 168.359 104.141C167.645 102.717 167.302 101.303 168.77 98.625C172.912 94.3326 177.996 97.7167 180.361 100.368L178.046 106.009L177.363 107.22Z" fill="white"/>
</mask>
<g mask="url(#mask20_4698_40893)">
<path d="M173.028 94.3125L169.86 108.559L169.691 108.568L172.86 94.3226L173.028 94.3125Z" fill="#9A7253"/>
</g>
<mask id="mask21_4698_40893" style="mask-type:luminance" maskUnits="userSpaceOnUse" x="167" y="96" width="14" height="12">
<path d="M177.363 107.22C173.261 108.371 169.522 106.463 168.359 104.141C167.645 102.717 167.302 101.303 168.77 98.625C172.912 94.3326 177.996 97.7167 180.361 100.368L178.046 106.009L177.363 107.22Z" fill="white"/>
</mask>
<g mask="url(#mask21_4698_40893)">
<path d="M173.192 94.2969L170.023 108.543L169.855 108.553L173.024 94.3067L173.192 94.2969Z" fill="#9C7352"/>
</g>
<mask id="mask22_4698_40893" style="mask-type:luminance" maskUnits="userSpaceOnUse" x="167" y="96" width="14" height="12">
<path d="M177.363 107.22C173.261 108.371 169.522 106.463 168.359 104.141C167.645 102.717 167.302 101.303 168.77 98.625C172.912 94.3326 177.996 97.7167 180.361 100.368L178.046 106.009L177.363 107.22Z" fill="white"/>
</mask>
<g mask="url(#mask22_4698_40893)">
<path d="M173.348 94.3047L170.18 108.551L170.012 108.561L173.18 94.3145L173.348 94.3047Z" fill="#9D7454"/>
</g>
<mask id="mask23_4698_40893" style="mask-type:luminance" maskUnits="userSpaceOnUse" x="167" y="96" width="14" height="12">
<path d="M177.363 107.22C173.261 108.371 169.522 106.463 168.359 104.141C167.645 102.717 167.302 101.303 168.77 98.625C172.912 94.3326 177.996 97.7167 180.361 100.368L178.046 106.009L177.363 107.22Z" fill="white"/>
</mask>
<g mask="url(#mask23_4698_40893)">
<path d="M173.532 94.2891L170.363 108.535L170.195 108.545L173.364 94.2989L173.532 94.2891Z" fill="#9F7354"/>
</g>
<mask id="mask24_4698_40893" style="mask-type:luminance" maskUnits="userSpaceOnUse" x="167" y="96" width="14" height="12">
<path d="M177.363 107.22C173.261 108.371 169.522 106.463 168.359 104.141C167.645 102.717 167.302 101.303 168.77 98.625C172.912 94.3326 177.996 97.7167 180.361 100.368L178.046 106.009L177.363 107.22Z" fill="white"/>
</mask>
<g mask="url(#mask24_4698_40893)">
<path d="M173.7 94.2891L170.532 108.535L170.363 108.545L173.532 94.2992L173.7 94.2891Z" fill="#9E7455"/>
</g>
<mask id="mask25_4698_40893" style="mask-type:luminance" maskUnits="userSpaceOnUse" x="167" y="96" width="14" height="12">
<path d="M177.363 107.22C173.261 108.371 169.522 106.463 168.359 104.141C167.645 102.717 167.302 101.303 168.77 98.625C172.912 94.3326 177.996 97.7167 180.361 100.368L178.046 106.009L177.363 107.22Z" fill="white"/>
</mask>
<g mask="url(#mask25_4698_40893)">
<path d="M173.864 94.2812L170.695 108.528L170.527 108.537L173.696 94.2913L173.864 94.2812Z" fill="#A07455"/>
</g>
<mask id="mask26_4698_40893" style="mask-type:luminance" maskUnits="userSpaceOnUse" x="167" y="96" width="14" height="12">
<path d="M177.363 107.22C173.261 108.371 169.522 106.463 168.359 104.141C167.645 102.717 167.302 101.303 168.77 98.625C172.912 94.3326 177.996 97.7167 180.361 100.368L178.046 106.009L177.363 107.22Z" fill="white"/>
</mask>
<g mask="url(#mask26_4698_40893)">
<path d="M174.028 94.25L170.859 108.496L170.691 108.506L173.86 94.2596L174.028 94.25Z" fill="#A27455"/>
</g>
<mask id="mask27_4698_40893" style="mask-type:luminance" maskUnits="userSpaceOnUse" x="167" y="96" width="14" height="12">
<path d="M177.363 107.22C173.261 108.371 169.522 106.463 168.359 104.141C167.645 102.717 167.302 101.303 168.77 98.625C172.912 94.3326 177.996 97.7167 180.361 100.368L178.046 106.009L177.363 107.22Z" fill="white"/>
</mask>
<g mask="url(#mask27_4698_40893)">
<path d="M174.188 94.25L171.02 108.496L170.852 108.506L174.02 94.2601L174.188 94.25Z" fill="#A17653"/>
</g>
<mask id="mask28_4698_40893" style="mask-type:luminance" maskUnits="userSpaceOnUse" x="167" y="96" width="14" height="12">
<path d="M177.363 107.22C173.261 108.371 169.522 106.463 168.359 104.141C167.645 102.717 167.302 101.303 168.77 98.625C172.912 94.3326 177.996 97.7167 180.361 100.368L178.046 106.009L177.363 107.22Z" fill="white"/>
</mask>
<g mask="url(#mask28_4698_40893)">
<path d="M174.372 94.2031L171.203 108.449L171.035 108.459L174.204 94.213L174.372 94.2031Z" fill="#A27656"/>
</g>
<mask id="mask29_4698_40893" style="mask-type:luminance" maskUnits="userSpaceOnUse" x="167" y="96" width="14" height="12">
<path d="M177.363 107.22C173.261 108.371 169.522 106.463 168.359 104.141C167.645 102.717 167.302 101.303 168.77 98.625C172.912 94.3326 177.996 97.7167 180.361 100.368L178.046 106.009L177.363 107.22Z" fill="white"/>
</mask>
<g mask="url(#mask29_4698_40893)">
<path d="M174.536 94.2422L171.367 108.488L171.199 108.498L174.368 94.252L174.536 94.2422Z" fill="#A37653"/>
</g>
<mask id="mask30_4698_40893" style="mask-type:luminance" maskUnits="userSpaceOnUse" x="167" y="96" width="14" height="12">
<path d="M177.363 107.22C173.261 108.371 169.522 106.463 168.359 104.141C167.645 102.717 167.302 101.303 168.77 98.625C172.912 94.3326 177.996 97.7167 180.361 100.368L178.046 106.009L177.363 107.22Z" fill="white"/>
</mask>
<g mask="url(#mask30_4698_40893)">
<path d="M174.7 94.1953L171.531 108.441L171.363 108.451L174.532 94.2051L174.7 94.1953Z" fill="#A47756"/>
</g>
<mask id="mask31_4698_40893" style="mask-type:luminance" maskUnits="userSpaceOnUse" x="167" y="96" width="14" height="12">
<path d="M177.363 107.22C173.261 108.371 169.522 106.463 168.359 104.141C167.645 102.717 167.302 101.303 168.77 98.625C172.912 94.3326 177.996 97.7167 180.361 100.368L178.046 106.009L177.363 107.22Z" fill="white"/>
</mask>
<g mask="url(#mask31_4698_40893)">
<path d="M174.875 94.1953L171.707 108.442L171.539 108.451L174.707 94.2054L174.875 94.1953Z" fill="#A57755"/>
</g>
<mask id="mask32_4698_40893" style="mask-type:luminance" maskUnits="userSpaceOnUse" x="167" y="96" width="14" height="12">
<path d="M177.363 107.22C173.261 108.371 169.522 106.463 168.359 104.141C167.645 102.717 167.302 101.303 168.77 98.625C172.912 94.3326 177.996 97.7167 180.361 100.368L178.046 106.009L177.363 107.22Z" fill="white"/>
</mask>
<g mask="url(#mask32_4698_40893)">
<path d="M175.024 94.1875L171.855 108.434L171.688 108.444L174.856 94.1973L175.024 94.1875Z" fill="#A67856"/>
</g>
<mask id="mask33_4698_40893" style="mask-type:luminance" maskUnits="userSpaceOnUse" x="167" y="96" width="14" height="12">
<path d="M177.363 107.22C173.261 108.371 169.522 106.463 168.359 104.141C167.645 102.717 167.302 101.303 168.77 98.625C172.912 94.3326 177.996 97.7167 180.361 100.368L178.046 106.009L177.363 107.22Z" fill="white"/>
</mask>
<g mask="url(#mask33_4698_40893)">
<path d="M175.196 94.1875L172.028 108.434L171.859 108.444L175.028 94.1973L175.196 94.1875Z" fill="#A87A55"/>
</g>
<mask id="mask34_4698_40893" style="mask-type:luminance" maskUnits="userSpaceOnUse" x="167" y="96" width="14" height="12">
<path d="M177.363 107.22C173.261 108.371 169.522 106.463 168.359 104.141C167.645 102.717 167.302 101.303 168.77 98.625C172.912 94.3326 177.996 97.7167 180.361 100.368L178.046 106.009L177.363 107.22Z" fill="white"/>
</mask>
<g mask="url(#mask34_4698_40893)">
<path d="M175.383 94.1797L172.215 108.426L172.047 108.436L175.215 94.1898L175.383 94.1797Z" fill="#A97B56"/>
</g>
<mask id="mask35_4698_40893" style="mask-type:luminance" maskUnits="userSpaceOnUse" x="167" y="96" width="14" height="12">
<path d="M177.363 107.22C173.261 108.371 169.522 106.463 168.359 104.141C167.645 102.717 167.302 101.303 168.77 98.625C172.912 94.3326 177.996 97.7167 180.361 100.368L178.046 106.009L177.363 107.22Z" fill="white"/>
</mask>
<g mask="url(#mask35_4698_40893)">
<path d="M175.54 94.1797L172.371 108.426L172.203 108.436L175.371 94.1895L175.54 94.1797Z" fill="#AA7A57"/>
</g>
<mask id="mask36_4698_40893" style="mask-type:luminance" maskUnits="userSpaceOnUse" x="167" y="96" width="14" height="12">
<path d="M177.363 107.22C173.261 108.371 169.522 106.463 168.359 104.141C167.645 102.717 167.302 101.303 168.77 98.625C172.912 94.3326 177.996 97.7167 180.361 100.368L178.046 106.009L177.363 107.22Z" fill="white"/>
</mask>
<g mask="url(#mask36_4698_40893)">
<path d="M175.704 94.1406L172.535 108.387L172.367 108.397L175.536 94.1505L175.704 94.1406Z" fill="#AF7B57"/>
</g>
<mask id="mask37_4698_40893" style="mask-type:luminance" maskUnits="userSpaceOnUse" x="167" y="96" width="14" height="12">
<path d="M177.363 107.22C173.261 108.371 169.522 106.463 168.359 104.141C167.645 102.717 167.302 101.303 168.77 98.625C172.912 94.3326 177.996 97.7167 180.361 100.368L178.046 106.009L177.363 107.22Z" fill="white"/>
</mask>
<g mask="url(#mask37_4698_40893)">
<path d="M175.887 94.1406L172.719 108.387L172.551 108.397L175.719 94.1507L175.887 94.1406Z" fill="#AC7C58"/>
</g>
<mask id="mask38_4698_40893" style="mask-type:luminance" maskUnits="userSpaceOnUse" x="167" y="96" width="14" height="12">
<path d="M177.363 107.22C173.261 108.371 169.522 106.463 168.359 104.141C167.645 102.717 167.302 101.303 168.77 98.625C172.912 94.3326 177.996 97.7167 180.361 100.368L178.046 106.009L177.363 107.22Z" fill="white"/>
</mask>
<g mask="url(#mask38_4698_40893)">
<path d="M176.044 94.1406L172.875 108.387L172.707 108.397L175.875 94.1505L176.044 94.1406Z" fill="#AD7C58"/>
</g>
<mask id="mask39_4698_40893" style="mask-type:luminance" maskUnits="userSpaceOnUse" x="167" y="96" width="14" height="12">
<path d="M177.363 107.22C173.261 108.371 169.522 106.463 168.359 104.141C167.645 102.717 167.302 101.303 168.77 98.625C172.912 94.3326 177.996 97.7167 180.361 100.368L178.046 106.009L177.363 107.22Z" fill="white"/>
</mask>
<g mask="url(#mask39_4698_40893)">
<path d="M176.192 94.1328L173.024 108.379L172.855 108.389L176.024 94.1426L176.192 94.1328Z" fill="#AE7D59"/>
</g>
<mask id="mask40_4698_40893" style="mask-type:luminance" maskUnits="userSpaceOnUse" x="167" y="96" width="14" height="12">
<path d="M177.363 107.22C173.261 108.371 169.522 106.463 168.359 104.141C167.645 102.717 167.302 101.303 168.77 98.625C172.912 94.3326 177.996 97.7167 180.361 100.368L178.046 106.009L177.363 107.22Z" fill="white"/>
</mask>
<g mask="url(#mask40_4698_40893)">
<path d="M176.379 94.1328L173.211 108.379L173.043 108.389L176.211 94.1429L176.379 94.1328Z" fill="#B17E59"/>
</g>
<mask id="mask41_4698_40893" style="mask-type:luminance" maskUnits="userSpaceOnUse" x="167" y="96" width="14" height="12">
<path d="M177.363 107.22C173.261 108.371 169.522 106.463 168.359 104.141C167.645 102.717 167.302 101.303 168.77 98.625C172.912 94.3326 177.996 97.7167 180.361 100.368L178.046 106.009L177.363 107.22Z" fill="white"/>
</mask>
<g mask="url(#mask41_4698_40893)">
<path d="M176.552 94.1172L173.383 108.364L173.215 108.373L176.383 94.127L176.552 94.1172Z" fill="#AC7E5A"/>
</g>
<mask id="mask42_4698_40893" style="mask-type:luminance" maskUnits="userSpaceOnUse" x="167" y="96" width="14" height="12">
<path d="M177.363 107.22C173.261 108.371 169.522 106.463 168.359 104.141C167.645 102.717 167.302 101.303 168.77 98.625C172.912 94.3326 177.996 97.7167 180.361 100.368L178.046 106.009L177.363 107.22Z" fill="white"/>
</mask>
<g mask="url(#mask42_4698_40893)">
<path d="M176.723 94.1172L173.555 108.363L173.387 108.374L176.555 94.1273L176.723 94.1172Z" fill="#B17F5A"/>
</g>
<mask id="mask43_4698_40893" style="mask-type:luminance" maskUnits="userSpaceOnUse" x="167" y="96" width="14" height="12">
<path d="M177.363 107.22C173.261 108.371 169.522 106.463 168.359 104.141C167.645 102.717 167.302 101.303 168.77 98.625C172.912 94.3326 177.996 97.7167 180.361 100.368L178.046 106.009L177.363 107.22Z" fill="white"/>
</mask>
<g mask="url(#mask43_4698_40893)">
<path d="M176.879 94.1094L173.711 108.356L173.543 108.366L176.711 94.1192L176.879 94.1094Z" fill="#B0805B"/>
</g>
<mask id="mask44_4698_40893" style="mask-type:luminance" maskUnits="userSpaceOnUse" x="167" y="96" width="14" height="12">
<path d="M177.363 107.22C173.261 108.371 169.522 106.463 168.359 104.141C167.645 102.717 167.302 101.303 168.77 98.625C172.912 94.3326 177.996 97.7167 180.361 100.368L178.046 106.009L177.363 107.22Z" fill="white"/>
</mask>
<g mask="url(#mask44_4698_40893)">
<path d="M177.055 94.1094L173.887 108.355L173.719 108.365L176.887 94.119L177.055 94.1094Z" fill="#B1805B"/>
</g>
<mask id="mask45_4698_40893" style="mask-type:luminance" maskUnits="userSpaceOnUse" x="167" y="96" width="14" height="12">
<path d="M177.363 107.22C173.261 108.371 169.522 106.463 168.359 104.141C167.645 102.717 167.302 101.303 168.77 98.625C172.912 94.3326 177.996 97.7167 180.361 100.368L178.046 106.009L177.363 107.22Z" fill="white"/>
</mask>
<g mask="url(#mask45_4698_40893)">
<path d="M177.215 94.0703L174.047 108.316L173.879 108.326L177.047 94.0804L177.215 94.0703Z" fill="#B1805C"/>
</g>
<mask id="mask46_4698_40893" style="mask-type:luminance" maskUnits="userSpaceOnUse" x="167" y="96" width="14" height="12">
<path d="M177.363 107.22C173.261 108.371 169.522 106.463 168.359 104.141C167.645 102.717 167.302 101.303 168.77 98.625C172.912 94.3326 177.996 97.7167 180.361 100.368L178.046 106.009L177.363 107.22Z" fill="white"/>
</mask>
<g mask="url(#mask46_4698_40893)">
<path d="M177.387 94.0703L174.219 108.316L174.051 108.326L177.219 94.0801L177.387 94.0703Z" fill="#B2805C"/>
</g>
<mask id="mask47_4698_40893" style="mask-type:luminance" maskUnits="userSpaceOnUse" x="167" y="96" width="14" height="12">
<path d="M177.363 107.22C173.261 108.371 169.522 106.463 168.359 104.141C167.645 102.717 167.302 101.303 168.77 98.625C172.912 94.3326 177.996 97.7167 180.361 100.368L178.046 106.009L177.363 107.22Z" fill="white"/>
</mask>
<g mask="url(#mask47_4698_40893)">
<path d="M177.543 94.0312L174.375 108.277L174.207 108.287L177.375 94.0413L177.543 94.0312Z" fill="#B4805D"/>
</g>
<mask id="mask48_4698_40893" style="mask-type:luminance" maskUnits="userSpaceOnUse" x="167" y="96" width="14" height="12">
<path d="M177.363 107.22C173.261 108.371 169.522 106.463 168.359 104.141C167.645 102.717 167.302 101.303 168.77 98.625C172.912 94.3326 177.996 97.7167 180.361 100.368L178.046 106.009L177.363 107.22Z" fill="white"/>
</mask>
<g mask="url(#mask48_4698_40893)">
<path d="M177.719 94.0312L174.551 108.278L174.383 108.287L177.551 94.0411L177.719 94.0312Z" fill="#B6805D"/>
</g>
<mask id="mask49_4698_40893" style="mask-type:luminance" maskUnits="userSpaceOnUse" x="167" y="96" width="14" height="12">
<path d="M177.363 107.22C173.261 108.371 169.522 106.463 168.359 104.141C167.645 102.717 167.302 101.303 168.77 98.625C172.912 94.3326 177.996 97.7167 180.361 100.368L178.046 106.009L177.363 107.22Z" fill="white"/>
</mask>
<g mask="url(#mask49_4698_40893)">
<path d="M177.891 94.0312L174.723 108.277L174.555 108.287L177.723 94.0411L177.891 94.0312Z" fill="#B7805D"/>
</g>
<mask id="mask50_4698_40893" style="mask-type:luminance" maskUnits="userSpaceOnUse" x="167" y="96" width="14" height="12">
<path d="M177.363 107.22C173.261 108.371 169.522 106.463 168.359 104.141C167.645 102.717 167.302 101.303 168.77 98.625C172.912 94.3326 177.996 97.7167 180.361 100.368L178.046 106.009L177.363 107.22Z" fill="white"/>
</mask>
<g mask="url(#mask50_4698_40893)">
<path d="M178.079 94.0156L174.91 108.261L174.742 108.271L177.911 94.0252L178.079 94.0156Z" fill="#B7805D"/>
</g>
<mask id="mask51_4698_40893" style="mask-type:luminance" maskUnits="userSpaceOnUse" x="167" y="96" width="14" height="12">
<path d="M177.363 107.22C173.261 108.371 169.522 106.463 168.359 104.141C167.645 102.717 167.302 101.303 168.77 98.625C172.912 94.3326 177.996 97.7167 180.361 100.368L178.046 106.009L177.363 107.22Z" fill="white"/>
</mask>
<g mask="url(#mask51_4698_40893)">
<path d="M178.227 94.0234L175.059 108.269L174.891 108.279L178.059 94.0335L178.227 94.0234Z" fill="#B9805F"/>
</g>
<mask id="mask52_4698_40893" style="mask-type:luminance" maskUnits="userSpaceOnUse" x="167" y="96" width="14" height="12">
<path d="M177.363 107.22C173.261 108.371 169.522 106.463 168.359 104.141C167.645 102.717 167.302 101.303 168.77 98.625C172.912 94.3326 177.996 97.7167 180.361 100.368L178.046 106.009L177.363 107.22Z" fill="white"/>
</mask>
<g mask="url(#mask52_4698_40893)">
<path d="M178.399 94.0078L175.23 108.254L175.062 108.264L178.231 94.0177L178.399 94.0078Z" fill="#B8825F"/>
</g>
<mask id="mask53_4698_40893" style="mask-type:luminance" maskUnits="userSpaceOnUse" x="167" y="96" width="14" height="12">
<path d="M177.363 107.22C173.261 108.371 169.522 106.463 168.359 104.141C167.645 102.717 167.302 101.303 168.77 98.625C172.912 94.3326 177.996 97.7167 180.361 100.368L178.046 106.009L177.363 107.22Z" fill="white"/>
</mask>
<g mask="url(#mask53_4698_40893)">
<path d="M178.563 94.0078L175.395 108.254L175.227 108.264L178.395 94.0179L178.563 94.0078Z" fill="#BA8260"/>
</g>
<mask id="mask54_4698_40893" style="mask-type:luminance" maskUnits="userSpaceOnUse" x="167" y="96" width="14" height="12">
<path d="M177.363 107.22C173.261 108.371 169.522 106.463 168.359 104.141C167.645 102.717 167.302 101.303 168.77 98.625C172.912 94.3326 177.996 97.7167 180.361 100.368L178.046 106.009L177.363 107.22Z" fill="white"/>
</mask>
<g mask="url(#mask54_4698_40893)">
<path d="M178.735 94L175.567 108.246L175.398 108.256L178.567 94.0098L178.735 94Z" fill="#BA835F"/>
</g>
<mask id="mask55_4698_40893" style="mask-type:luminance" maskUnits="userSpaceOnUse" x="167" y="96" width="14" height="12">
<path d="M177.363 107.22C173.261 108.371 169.522 106.463 168.359 104.141C167.645 102.717 167.302 101.303 168.77 98.625C172.912 94.3326 177.996 97.7167 180.361 100.368L178.046 106.009L177.363 107.22Z" fill="white"/>
</mask>
<g mask="url(#mask55_4698_40893)">
<path d="M178.887 94L175.719 108.246L175.551 108.256L178.719 94.0098L178.887 94Z" fill="#BC8360"/>
</g>
<mask id="mask56_4698_40893" style="mask-type:luminance" maskUnits="userSpaceOnUse" x="167" y="96" width="14" height="12">
<path d="M177.363 107.22C173.261 108.371 169.522 106.463 168.359 104.141C167.645 102.717 167.302 101.303 168.77 98.625C172.912 94.3326 177.996 97.7167 180.361 100.368L178.046 106.009L177.363 107.22Z" fill="white"/>
</mask>
<g mask="url(#mask56_4698_40893)">
<path d="M179.067 93.9922L175.898 108.238L175.73 108.248L178.899 94.002L179.067 93.9922Z" fill="#BD8460"/>
</g>
<mask id="mask57_4698_40893" style="mask-type:luminance" maskUnits="userSpaceOnUse" x="167" y="96" width="14" height="12">
<path d="M177.363 107.22C173.261 108.371 169.522 106.463 168.359 104.141C167.645 102.717 167.302 101.303 168.77 98.625C172.912 94.3326 177.996 97.7167 180.361 100.368L178.046 106.009L177.363 107.22Z" fill="white"/>
</mask>
<g mask="url(#mask57_4698_40893)">
<path d="M179.247 93.9219L176.078 108.168L175.91 108.178L179.079 93.932L179.247 93.9219Z" fill="#BD8562"/>
</g>
<mask id="mask58_4698_40893" style="mask-type:luminance" maskUnits="userSpaceOnUse" x="167" y="96" width="14" height="12">
<path d="M177.363 107.22C173.261 108.371 169.522 106.463 168.359 104.141C167.645 102.717 167.302 101.303 168.77 98.625C172.912 94.3326 177.996 97.7167 180.361 100.368L178.046 106.009L177.363 107.22Z" fill="white"/>
</mask>
<g mask="url(#mask58_4698_40893)">
<path d="M179.395 93.9297L176.227 108.176L176.059 108.186L179.227 93.9398L179.395 93.9297Z" fill="#BD8661"/>
</g>
<mask id="mask59_4698_40893" style="mask-type:luminance" maskUnits="userSpaceOnUse" x="167" y="96" width="14" height="12">
<path d="M177.363 107.22C173.261 108.371 169.522 106.463 168.359 104.141C167.645 102.717 167.302 101.303 168.77 98.625C172.912 94.3326 177.996 97.7167 180.361 100.368L178.046 106.009L177.363 107.22Z" fill="white"/>
</mask>
<g mask="url(#mask59_4698_40893)">
<path d="M179.575 93.9219L176.406 108.168L176.238 108.178L179.407 93.9317L179.575 93.9219Z" fill="#BF8563"/>
</g>
<mask id="mask60_4698_40893" style="mask-type:luminance" maskUnits="userSpaceOnUse" x="167" y="96" width="14" height="12">
<path d="M177.363 107.22C173.261 108.371 169.522 106.463 168.359 104.141C167.645 102.717 167.302 101.303 168.77 98.625C172.912 94.3326 177.996 97.7167 180.361 100.368L178.046 106.009L177.363 107.22Z" fill="white"/>
</mask>
<g mask="url(#mask60_4698_40893)">
<path d="M179.751 93.9219L176.582 108.168L176.414 108.178L179.582 93.9317L179.751 93.9219Z" fill="#BF8762"/>
</g>
<mask id="mask61_4698_40893" style="mask-type:luminance" maskUnits="userSpaceOnUse" x="167" y="96" width="14" height="12">
<path d="M177.363 107.22C173.261 108.371 169.522 106.463 168.359 104.141C167.645 102.717 167.302 101.303 168.77 98.625C172.912 94.3326 177.996 97.7167 180.361 100.368L178.046 106.009L177.363 107.22Z" fill="white"/>
</mask>
<g mask="url(#mask61_4698_40893)">
<path d="M179.911 93.9062L176.742 108.152L176.574 108.162L179.743 93.9161L179.911 93.9062Z" fill="#C18764"/>
</g>
<mask id="mask62_4698_40893" style="mask-type:luminance" maskUnits="userSpaceOnUse" x="167" y="96" width="14" height="12">
<path d="M177.363 107.22C173.261 108.371 169.522 106.463 168.359 104.141C167.645 102.717 167.302 101.303 168.77 98.625C172.912 94.3326 177.996 97.7167 180.361 100.368L178.046 106.009L177.363 107.22Z" fill="white"/>
</mask>
<g mask="url(#mask62_4698_40893)">
<path d="M180.022 94.1756L176.914 108.148L176.746 108.158L179.914 93.9117L180.007 93.9062L180.022 94.1756Z" fill="#C28863"/>
</g>
<mask id="mask63_4698_40893" style="mask-type:luminance" maskUnits="userSpaceOnUse" x="167" y="96" width="14" height="12">
<path d="M177.363 107.22C173.261 108.371 169.522 106.463 168.359 104.141C167.645 102.717 167.302 101.303 168.77 98.625C172.912 94.3326 177.996 97.7167 180.361 100.368L178.046 106.009L177.363 107.22Z" fill="white"/>
</mask>
<g mask="url(#mask63_4698_40893)">
<path d="M180.039 94.7841L177.067 108.15L176.898 108.16L180.006 94.1875L180.039 94.7841Z" fill="#C38764"/>
</g>
<mask id="mask64_4698_40893" style="mask-type:luminance" maskUnits="userSpaceOnUse" x="167" y="96" width="14" height="12">
<path d="M177.363 107.22C173.261 108.371 169.522 106.463 168.359 104.141C167.645 102.717 167.302 101.303 168.77 98.625C172.912 94.3326 177.996 97.7167 180.361 100.368L178.046 106.009L177.363 107.22Z" fill="white"/>
</mask>
<g mask="url(#mask64_4698_40893)">
<path d="M180.088 95.3935L177.25 108.153L177.082 108.162L180.054 94.7969L180.088 95.3935Z" fill="#C38A64"/>
</g>
<mask id="mask65_4698_40893" style="mask-type:luminance" maskUnits="userSpaceOnUse" x="167" y="96" width="14" height="12">
<path d="M177.363 107.22C173.261 108.371 169.522 106.463 168.359 104.141C167.645 102.717 167.302 101.303 168.77 98.625C172.912 94.3326 177.996 97.7167 180.361 100.368L178.046 106.009L177.363 107.22Z" fill="white"/>
</mask>
<g mask="url(#mask65_4698_40893)">
<path d="M180.105 96.0029L177.403 108.156L177.234 108.165L180.072 95.4062L180.105 96.0029Z" fill="#C58965"/>
</g>
<mask id="mask66_4698_40893" style="mask-type:luminance" maskUnits="userSpaceOnUse" x="167" y="96" width="14" height="12">
<path d="M177.363 107.22C173.261 108.371 169.522 106.463 168.359 104.141C167.645 102.717 167.302 101.303 168.77 98.625C172.912 94.3326 177.996 97.7167 180.361 100.368L178.046 106.009L177.363 107.22Z" fill="white"/>
</mask>
<g mask="url(#mask66_4698_40893)">
<path d="M180.138 96.5734L177.571 108.119L177.402 108.129L180.105 95.9766L180.138 96.5734Z" fill="#C68A66"/>
</g>
<mask id="mask67_4698_40893" style="mask-type:luminance" maskUnits="userSpaceOnUse" x="167" y="96" width="14" height="12">
<path d="M177.363 107.22C173.261 108.371 169.522 106.463 168.359 104.141C167.645 102.717 167.302 101.303 168.77 98.625C172.912 94.3326 177.996 97.7167 180.361 100.368L178.046 106.009L177.363 107.22Z" fill="white"/>
</mask>
<g mask="url(#mask67_4698_40893)">
<path d="M180.187 97.1826L177.754 108.122L177.586 108.132L180.154 96.5859L180.187 97.1826Z" fill="#C88B65"/>
</g>
<mask id="mask68_4698_40893" style="mask-type:luminance" maskUnits="userSpaceOnUse" x="167" y="96" width="14" height="12">
<path d="M177.363 107.22C173.261 108.371 169.522 106.463 168.359 104.141C167.645 102.717 167.302 101.303 168.77 98.625C172.912 94.3326 177.996 97.7167 180.361 100.368L178.046 106.009L177.363 107.22Z" fill="white"/>
</mask>
<g mask="url(#mask68_4698_40893)">
<path d="M177.742 108.104L180.175 97.1641L180.773 107.925L177.742 108.104Z" fill="#C88B65"/>
</g>
<path d="M223.052 94.1953C223.052 94.1953 225.497 134.355 178.125 139.318C179.197 139.35 181.279 139.257 182.352 139.286C197.282 138.352 225.136 130.45 225.463 94.8644L223.052 94.1953Z" fill="#9A6F52"/>
<path d="M251.89 172.031C243.43 176.806 235.112 181.853 226.465 186.23C233.071 196.502 246.771 227.446 244.927 244.498L244.927 244.499C244.906 244.509 232.815 250.419 237.203 256.255C240.606 260.78 246.524 254.018 247.01 253.448C247.014 253.443 247.021 253.449 247.017 253.454C246.574 254.259 240.287 265.88 245.608 267.757C245.608 267.757 250.933 270.259 253.163 258.181C253.163 258.181 251.253 270.329 255.977 270.45C259.781 271.007 261.134 266.504 260.756 261.825C260.755 261.818 260.764 261.816 260.766 261.823C261.463 264.742 263.249 268.739 267.74 267.265C267.74 267.265 270.773 264.688 267.434 255.519C267.432 255.513 267.44 255.505 267.443 255.511C267.856 256.24 271.913 263.19 274.566 259.919C274.566 259.919 279.142 256.888 272.267 247.763C272.267 247.763 271.348 204.31 251.89 172.031Z" fill="#C88B65"/>
<path d="M249.812 173.155C267.643 201.451 270.878 246.403 270.747 248.245C270.746 248.249 270.751 248.251 270.756 248.249L271.815 247.877C272.081 247.783 272.265 247.552 272.284 247.287C273.705 227.273 263.663 189.706 253.266 171.203C252.113 171.849 250.961 172.5 249.812 173.155Z" fill="#9A6F52"/>
<path d="M266.417 267.522C266.708 267.528 271.913 267.48 267.509 255.716C267.441 255.533 267.288 255.385 267.096 255.316L265.451 254.728C265.446 254.726 265.44 254.726 265.442 254.73C265.569 255.029 269.849 265.132 266.416 267.514C266.412 267.516 266.412 267.522 266.417 267.522Z" fill="#9A6F52"/>
<path d="M256.406 270.417C256.748 270.481 262.561 271.386 260.352 258.225C260.352 258.223 260.351 258.222 260.35 258.221L258.446 256.697C258.442 256.694 258.436 256.696 258.437 256.7C258.509 257.145 260.422 269.07 256.406 270.408C256.402 270.41 256.401 270.416 256.406 270.417Z" fill="#9A6F52"/>
<path d="M245.621 267.733C245.974 267.825 251.791 269.142 253.197 257.459C253.197 257.458 253.196 257.456 253.195 257.455L251.287 255.637C251.284 255.633 251.279 255.631 251.278 255.635C251.253 255.944 250.35 266.548 245.622 267.724C245.616 267.726 245.616 267.732 245.621 267.733Z" fill="#9A6F52"/>
<path d="M237.118 255.869C237.3 256.221 239.9 260.873 247.035 253.381C247.036 253.38 247.037 253.379 247.037 253.378L247.032 250.523C247.032 250.518 247.028 250.513 247.025 250.517C246.792 250.781 240.979 257.296 237.131 255.857C237.122 255.854 237.114 255.861 237.118 255.869Z" fill="#9A6F52"/>
<path d="M272.592 248.181C274.035 250.069 279.381 257.68 274.057 260.41C274.052 260.413 274.045 260.408 274.049 260.404C274.289 260.113 277.274 256.189 270.747 248.371C270.745 248.368 270.746 248.365 270.749 248.363L271.739 247.961C272.046 247.837 272.399 247.928 272.592 248.181Z" fill="#9A6F52"/>
<path d="M219.659 192.441L256.819 172.829L252.69 163.539L216.402 182.021C217.15 185.418 219.01 189.021 219.659 192.441Z" fill="#F8CD19"/>
<path d="M127.013 148.433L95.9648 114.478L104.183 108.961L134.464 141.881L127.013 148.433Z" fill="#F7991C"/>
<path d="M134.447 141.844L138.619 153.9L126.996 148.396L134.447 141.844Z" fill="#E9C2A6"/>
<path d="M131.941 150.763L138.632 153.932L136.002 146.328C134.821 147.931 133.445 149.416 131.941 150.763Z" fill="#D97527"/>
<path d="M122.453 126.275C122.453 126.275 134.641 124.193 133.842 132.824C133.045 141.455 124.284 136.858 125.954 129.774L124.529 130.316L122.453 126.275Z" fill="#C88B65"/>
<path d="M129.088 133.834C128.847 132.911 128.76 131.984 128.804 131.079C128.589 129.521 128.696 127.94 129.21 126.495C126.052 125.668 122.449 126.281 122.449 126.281L118.867 130.228L122.351 130.114C126.324 135.523 128.251 137.992 130.941 137.457C130.091 136.405 129.442 135.185 129.088 133.834Z" fill="#956B50"/>
<path d="M106.811 147.576C97.5767 147.293 93.7859 114.926 116.752 119.164C121.608 120.061 131.115 121.203 127.525 126.935C124.842 131.224 116.72 129.052 112.731 128.031C118.038 127.792 127.594 130.289 126.668 134.495C125.695 138.919 122.764 139.379 113.965 139.417C119.509 138.769 125.37 140.395 123.312 146.102C121.753 150.426 108.953 148.868 106.811 147.576Z" fill="#C88B65"/>
<path d="M128.627 124.781C128.627 124.781 130.301 133.067 113.402 128.846L114.763 127.932C114.763 127.932 125.388 130.682 128.627 124.781Z" fill="#9A6F52"/>
<path d="M126.67 134.508C126.67 134.508 128.263 141.758 109.469 138.33L111.147 137.034C111.147 137.034 119.13 140.839 126.67 134.508Z" fill="#9A6F52"/>
<path d="M100.14 145.373C100.304 145.536 99.15 144.63 100.14 145.373C101.383 146.303 103.797 147.257 104.324 147.363C113.038 149.913 120.22 149.143 122.246 147.307C124.182 145.55 123.56 143.008 123.56 143.008C122.389 148.202 107.428 146.534 100.14 145.373Z" fill="#9A6F52"/>
<path d="M104.183 108.969L102.17 106.375L93.6055 111.999L96.1133 114.562C98.1344 113.256 101.984 110.79 104.183 108.969Z" fill="#4E4743"/>
<path d="M102.988 122.938C102.988 122.938 95.3816 130.728 88.7751 149.804C86.3419 156.829 83.5629 163.72 83.1295 169.575C82.0442 184.236 95.3128 187.421 95.3128 187.421C95.3128 187.421 110.751 193.602 118.006 184.695L108.335 178.907C108.241 171.709 115.542 153.543 117.846 145.984L102.988 122.938Z" fill="#C88B65"/>
<path d="M108.358 178.898L108.344 188.964C108.344 188.964 111.961 189.54 118.034 184.679L108.358 178.898Z" fill="#9A6F52"/>
<g opacity="0.2">
<path d="M31.9179 262.974C28.8479 261.841 25.5653 261.801 22.4745 262.86C20.234 263.628 17.9867 265.091 16.7006 267.733C15.4145 270.376 15.0634 272.04 16.5806 274.422C19.2012 278.537 25.779 278.831 27.1378 279.042C42.0741 281.366 57.9002 279.692 66.095 277.24C67.8103 276.727 69.7756 276.367 70.7458 274.35C72.0148 271.713 70.7574 267.926 68.7637 266.376C66.77 264.827 64.3447 264.891 62.0522 264.997" fill="#1F2C1A"/>
</g>
<path d="M18.1197 229.772C18.1197 229.772 15.1897 219.446 43.8269 219.603C72.4644 219.761 69.3287 228.352 69.6845 230.165C69.6845 230.165 67.2799 239.701 56.0883 242.334C44.8967 244.967 24.6512 242.514 24.6512 242.514L18.1197 229.772Z" fill="#184986"/>
<path d="M69.6918 230.167C68.8254 234.072 57.9287 235.903 57.9287 235.903C27.1348 239.932 18.1271 229.774 18.1271 229.774C18.0533 230.619 17.22 228.737 18.1271 229.774L24.0604 271.421C24.0604 271.421 29.0529 274.282 43.9965 274.197C59.5595 274.108 62.9661 270.877 62.9661 270.877L69.6918 230.167Z" fill="#2081BE"/>
<path d="M57.9267 235.902C27.1327 239.932 18.125 229.773 18.125 229.773L19.1563 238.687C19.1563 238.687 23.6493 241.572 30.3634 242.982C39.207 244.839 45.5263 244.839 52.9967 244.686V245.243C53.1923 242.89 50.745 272.481 50.3192 273.957C50.6863 271.677 49.7026 276.094 50.3192 273.957C60.5183 273.193 62.964 270.877 62.964 270.877L69.6897 230.166C68.8233 234.071 57.9267 235.902 57.9267 235.902Z" fill="#126893"/>
<path d="M15.5404 230.498C15.5404 230.498 13.3244 219.783 32.3025 218.069C51.2806 216.355 58.4516 218.562 62.1902 219.183C65.9287 219.804 74.8448 224.037 73.924 230.878L69.1032 231.347C69.1032 231.347 71.2416 224.911 60.3354 222.726C52.063 221.068 42.2734 220.229 32.6295 221.247C22.9856 222.265 17.9266 226.406 18.1866 230.512L15.5404 230.498Z" fill="#60BBE0"/>
<path d="M63.351 237.683L72.8555 211.397L64.285 208.453L54.4805 238.693C57.4459 238.493 60.4013 238.129 63.351 237.683Z" fill="#6D482E"/>
<path d="M64.2773 208.465L72.1932 200.156L72.8478 211.409L64.2773 208.465Z" fill="#E9C2A6"/>
<path d="M72.5802 206.634L72.2033 200.156L67.2109 205.396C69.0251 205.623 70.8302 206.051 72.5802 206.634Z" fill="#47331C"/>
<path d="M39.1114 238.251L19.2759 211.594L12.0938 217.12L27.704 236.697C31.5 237.09 35.3718 237.463 39.1114 238.251Z" fill="#E2519C"/>
<path d="M12.0928 217.13L9.52734 205.945L19.275 211.605L12.0928 217.13Z" fill="#E9C2A6"/>
<path d="M15.1388 209.203L9.52734 205.945L11.1451 212.999C12.335 211.612 13.6873 210.342 15.1388 209.203Z" fill="#AA3C7D"/>
<path d="M32.9263 238.423C32.9783 238.43 33.0305 238.434 33.0825 238.441L36.0118 203.359L26.9702 202.75L25.2852 236.51C27.1461 237.676 30.6751 238.129 32.9263 238.423Z" fill="#405FAA"/>
<path d="M26.9727 202.756L32.4496 192.672L36.014 203.365L26.9727 202.756Z" fill="#E9C2A6"/>
<path d="M34.4947 198.828L32.4427 192.672L28.9883 199.032C30.7991 198.779 32.6533 198.721 34.4947 198.828Z" fill="#1A4460"/>
<path d="M44.6915 238.834C45.226 238.867 45.7593 238.886 46.292 238.902L58.6851 214.126L50.5164 210.203L37.5898 238.36C39.9533 238.566 42.3258 238.688 44.6915 238.834Z" fill="#FBE400"/>
<path d="M50.5195 210.212L59.35 202.883L58.6882 214.135L50.5195 210.212Z" fill="#FCCDAC"/>
<path d="M58.9577 209.36L59.3388 202.883L53.7695 207.505C55.5446 207.942 57.2876 208.577 58.9577 209.36Z" fill="#B5A03B"/>
<path d="M53.8996 238.86L46.4166 208.18L37.6484 210.468L45.7102 239.299C48.4605 239.338 51.1882 239.171 53.8996 238.86Z" fill="#68A543"/>
<path d="M37.6484 210.464L39.6466 199.164L46.4166 208.176L37.6484 210.464Z" fill="#E9C2A6"/>
<path d="M43.5446 204.352L39.6472 199.164L38.3867 206.291C40.0239 205.477 41.7643 204.834 43.5446 204.352Z" fill="#4D6C32"/>
<path d="M15.5413 230.504C15.5413 230.504 13.9253 240.017 41.4436 241.322C67.3443 242.551 74.2533 234.093 73.9249 230.883L68.9523 228.983C68.9523 228.983 68.3997 237.914 40.1831 236.334C17.751 235.079 18.6648 228.75 18.6648 228.75L15.5413 230.504Z" fill="#60BBE0"/>
<path d="M180.107 296.475L72.9195 268.109L0 325.189L116.61 356.925L180.107 296.475Z" fill="#F7F0E4"/>
<path d="M97.5391 283.367C99.0133 283.75 100.456 284.166 101.845 284.634C101.797 284.675 101.752 284.716 101.709 284.759C100.303 284.314 98.9131 283.849 97.5391 283.367Z" fill="#405FAA"/>
<path d="M123.66 291.222C123.653 291.202 123.656 291.181 123.646 291.161C123.552 290.964 123.433 290.78 123.305 290.602C124.119 290.771 124.937 290.935 125.76 291.092C126.193 291.28 126.613 291.478 127.023 291.684C125.878 291.574 124.756 291.422 123.66 291.222Z" fill="#405FAA"/>
<path d="M77.2488 286.774C77.6045 286.929 77.9701 287.073 78.3395 287.213C79.6807 287.437 81.0339 287.65 82.3645 287.898C83.7349 288.155 85.0849 288.441 86.4443 288.713C86.7664 288.778 87.1679 288.889 87.6 289.008C94.8921 291.171 97.1603 291.202 89.2574 287.506C88.9249 287.35 99.1732 290.781 99.5341 290.723C99.4135 290.679 90.1037 287.262 89.9823 287.216C87.3467 286.626 84.4262 285.873 82.0279 284.782C80.5112 284.477 78.9579 284.186 77.2953 284.222C77.2933 284.222 77.2917 284.222 77.2896 284.222C76.5494 284.559 75.8095 284.928 75.0703 285.32C75.4341 285.844 76.4622 286.43 77.2488 286.774Z" fill="#488BC9"/>
<path d="M140.064 298.67C137.046 298.141 134.115 297.502 131.408 296.538C130.181 296.102 131.596 294.511 132.961 294.747C134.84 295.07 136.647 295.51 138.424 295.999C139.863 295.489 141.287 295.095 142.724 294.796C142.771 294.743 142.815 294.69 142.861 294.637C141.477 293.236 139.534 292.236 137.364 291.472C137.264 292.053 136.374 292.682 135.387 292.571C134.379 292.456 133.383 292.326 132.392 292.189C132.899 292.739 131.987 293.756 130.894 293.779C126.596 293.871 122.671 293.258 118.972 292.295C118.819 292.751 118.249 293.193 117.415 293.256C113.981 293.516 110.621 292.766 107.642 292.183C103.87 291.444 100.218 290.523 96.7094 289.453C95.1469 289.889 93.5853 290.323 91.997 290.655C91.8226 290.949 91.4542 291.206 90.8705 291.294C89.8154 291.454 88.7384 291.396 87.6748 291.235C87.1992 291.623 86.437 291.888 85.7708 291.673C83.9316 291.078 81.9707 290.617 80.0727 290.084C79.6125 290.36 78.9876 290.512 78.4174 290.342C75.5453 289.487 72.8432 289.016 69.2788 289.735C68.7262 289.847 68.2933 289.94 67.8913 289.995C67.2263 290.512 66.5697 291.04 65.9327 291.586C60.017 296.66 53.4307 302.374 49.8365 308.396C49.2599 309.363 46.0331 315.275 45.7174 317.647C43.2114 321.25 44.7806 324.211 46.8793 325.97C52.1451 330.382 61.9176 332.464 69.6498 334.11C77.5802 335.797 85.5108 337.485 93.4412 339.173C97.7411 340.087 102.687 340.885 108.292 337.997C111.224 336.487 113.904 334.167 116.576 332C122.515 327.183 128.863 322.814 134.384 317.583C139.905 312.352 144.668 305.842 144.998 300.569C145.007 300.42 145.008 300.277 145.011 300.133C143.353 299.657 141.714 299.155 140.064 298.67Z" fill="#FBE400"/>
<path d="M94.9657 287.08C96.1398 287.14 97.3033 287.235 98.4199 287.434C104.247 288.469 109.29 290.508 114.803 291.934C115.03 291.993 115.249 291.994 115.456 291.961C116.447 292.197 117.226 292.324 117.689 292.289C119.105 292.182 119.521 291.942 118.618 291.436C117.917 291.043 117.243 290.693 116.584 290.375C116.479 290.237 116.309 290.123 116.051 290.056C115.927 290.024 115.806 289.989 115.682 289.956C112.894 288.716 110.319 288.053 107.136 287.416C105.462 286.917 104.048 286.771 102.291 286.368C100.495 285.956 98.3599 285.28 96.3996 285.121C87.5564 283.87 88.9706 283.359 89.0612 283.269C89.072 283.258 87.4584 282.777 87.448 282.759C86.905 281.802 88.8772 281.675 89.7501 281.754C91.4269 281.908 93.0147 282.218 94.5844 282.532C106.746 284.966 118.907 287.4 131.068 289.833C135.499 290.72 140.193 291.936 142.849 294.615C142.795 294.69 142.778 294.712 142.724 294.786C142.414 297.09 140.288 297.09 138.424 295.989C136.647 295.5 134.84 295.061 132.961 294.737C131.596 294.502 130.181 296.093 131.408 296.529C134.115 297.492 137.046 298.131 140.064 298.66C141.715 299.146 143.353 299.648 145.011 300.123C145.008 300.268 144.882 300.455 144.998 300.559C148.193 303.432 139.905 312.342 134.384 317.573C130.982 320.796 127.266 323.692 123.525 326.567C120.996 321.838 119.529 316.372 117.3 311.471C108.718 292.604 93.0859 292.783 85.7148 288.231C86.7896 288.488 92.6111 287.194 94.9657 287.08Z" fill="#488BC9"/>
<path d="M180.107 296.461C179.593 296.587 116.609 356.912 116.609 356.912L0 325.176L0.472429 326.178L116.936 358.009L180.19 297.638" fill="#D1C5B2"/>
<path d="M84.8153 302.675L70.4634 307.991C70.4634 307.991 67.8055 301.612 60.3639 304.802C52.9222 307.991 58.2377 313.306 58.2377 313.306C74.1843 329.253 84.8153 304.802 84.8153 304.802L101.561 309.047L122.555 314.37C122.555 314.37 137.221 305.274 130.154 302.115C123.087 298.955 117.771 310.649 117.771 310.649C117.771 310.649 127.056 299.872 117.364 297.021C107.672 294.171 110.861 317.559 110.861 317.559L96.5093 312.775C96.5093 312.775 107.672 299.486 99.1671 295.765C90.6624 292.044 92.2569 311.18 92.2569 311.18L88.0045 311.712C88.0045 311.712 98.4903 297.256 88.7292 292.79C78.9681 288.323 85.3467 320.748 85.3467 320.748" fill="#76A641"/>
<path d="M84.8168 301.609C84.8168 301.609 69.793 326.52 91.727 332.971C118.836 340.944 126.81 311.177 126.81 311.177L84.8168 301.609Z" fill="#F7991C"/>
<path d="M62.4414 311.283C63.2217 312.074 64.7138 310.539 63.9003 309.781Z" fill="#4D433B"/>
<path d="M65.1467 310.915C65.1467 312.236 64.3136 313.307 63.2863 313.307C62.2589 313.307 61.4258 312.236 61.4258 310.915C61.4258 309.594 62.2586 308.523 63.2863 308.523C64.3136 308.523 65.1467 309.594 65.1467 310.915Z" fill="#4D433B"/>
<path d="M70.419 308.012C71.1925 308.967 70.896 310.602 69.9025 311.279C68.4977 312.237 69.8257 314.541 71.244 313.574C73.7485 311.866 74.1911 308.469 72.2981 306.133C71.221 304.804 69.3509 306.694 70.419 308.012Z" fill="#E54625"/>
<path d="M113.171 308.078L95.2043 303.984C94.9904 304.256 94.7601 304.512 94.5205 304.758C92.3506 309.687 85.9571 312.107 81.2755 309.681C80.6569 311.617 80.1366 313.759 79.9141 315.959C81.2087 316.582 82.3678 317.317 83.3908 318.15C85.1022 319.067 86.675 320.223 87.9898 321.489C91.2756 324.653 93.0605 329.264 90.9858 332.746C91.229 332.825 91.472 332.904 91.725 332.979C92.5778 333.229 93.4116 333.443 94.2269 333.621C95.8183 328.512 100.527 325.193 106.409 325.399C109.896 325.521 113.142 326.802 115.538 328.954C117.931 326.992 119.876 324.693 121.436 322.412C115.162 319.72 110.253 313.857 113.171 308.078ZM102.982 317.737C102.475 320.157 100.777 322.289 98.0759 321.719C98.0332 321.71 97.9936 321.694 97.9512 321.684C95.0499 322.242 90.8381 322.383 90.6291 318.655C90.4979 316.318 92.2637 314.066 93.8636 312.553C95.513 310.993 98.0097 309.23 100.421 309.85C103.791 310.715 103.534 315.106 102.982 317.737Z" fill="#775234"/>
</svg>
