<svg width="323" height="243" viewBox="0 0 323 243" fill="none" xmlns="http://www.w3.org/2000/svg">
<path d="M319.157 59.4357C322.152 60.4605 323.731 63.7362 322.668 66.7183C321.605 69.7005 318.31 71.2386 315.342 70.138L232.127 38.4613C232.113 38.4556 232.1 38.4508 232.088 38.4467L232.017 38.4197L165.584 13.1308L160.915 11.3538L162.364 7.28906L167.145 8.87957L313.751 57.638L319.157 59.4357Z" fill="#FCD6B1"/>
<path opacity="0.5" d="M167.145 8.87957C167.306 9.66293 167.269 10.4492 167.003 11.1951C166.728 11.9668 166.236 12.6174 165.583 13.1308L160.915 11.3538L162.364 7.28906L167.145 8.87957Z" fill="#EDB174"/>
<path d="M165.507 10.6503C166.554 7.71307 164.051 4.13756 159.916 2.66415C155.782 1.19074 151.582 2.37738 150.535 5.31457C149.488 8.25176 151.991 11.8272 156.126 13.3007C160.26 14.7741 164.461 13.5874 165.507 10.6503Z" fill="#BA0808"/>
<path opacity="0.2" d="M163.5 8.13767C163.82 7.23968 161.941 5.74966 159.303 4.80961C156.665 3.86955 154.268 3.83545 153.948 4.73343C153.628 5.63142 155.507 7.12144 158.144 8.06149C160.782 9.00154 163.18 9.03565 163.5 8.13767Z" fill="white"/>
<path opacity="0.5" d="M319.157 59.4353C322.152 60.4601 323.732 63.7358 322.669 66.7179C321.606 69.7001 318.311 71.2382 315.343 70.1375L232.128 38.4609C235.681 39.79 323.668 72.5957 313.752 57.6376L319.157 59.4353Z" fill="#EDB174"/>
<path d="M4.81697 63.3464C1.68838 63.828 -0.442949 66.7747 0.0785323 69.8973C0.600013 73.0199 3.57326 75.1141 6.68854 74.553L94.1794 58.0166C94.1942 58.0135 94.2083 58.011 94.2204 58.0091L94.2953 57.9951L164.143 44.7932L169.051 43.8656L168.34 39.6094L163.353 40.3335L10.4545 62.5281L4.81697 63.3464Z" fill="#FCD6B1"/>
<path opacity="0.5" d="M163.354 40.3336C163.058 41.0764 162.956 41.8569 163.086 42.6379C163.221 43.4459 163.591 44.1731 164.143 44.7932L169.051 43.8656L168.341 39.6094L163.354 40.3336Z" fill="#EDB174"/>
<path d="M173.405 46.6481C177.734 45.9253 180.827 42.8462 180.313 39.7709C179.8 36.6956 175.874 34.7885 171.545 35.5114C167.216 36.2343 164.123 39.3133 164.637 42.3887C165.15 45.464 169.076 47.371 173.405 46.6481Z" fill="#BA0808"/>
<path opacity="0.2" d="M172.339 41.1322C175.101 40.671 177.212 39.535 177.055 38.5948C176.898 37.6545 174.532 37.2662 171.77 37.7274C169.008 38.1886 166.897 39.3247 167.054 40.2649C167.211 41.2051 169.577 41.5934 172.339 41.1322Z" fill="white"/>
<path opacity="0.5" d="M4.81697 63.3532C1.68838 63.8348 -0.442949 66.7815 0.0785323 69.9041C0.600013 73.0267 3.57326 75.1209 6.68854 74.5598L94.1794 58.0234C90.4478 58.7065 -1.93909 75.5143 10.4545 62.5349L4.81697 63.3532Z" fill="#EDB174"/>
<path d="M237.991 205.807C221.343 199.795 193.418 195.852 161.776 195.852C130.135 195.852 102.21 199.795 85.5613 205.807H69.3984V218.749C69.3984 231.395 110.757 241.646 161.776 241.646C212.795 241.646 254.154 231.395 254.154 218.749V205.807H237.991Z" fill="#A9BEC9"/>
<path d="M161.776 228.709C212.795 228.709 254.154 218.457 254.154 205.811C254.154 193.166 212.795 182.914 161.776 182.914C110.757 182.914 69.3984 193.166 69.3984 205.811C69.3984 218.457 110.757 228.709 161.776 228.709Z" fill="#CEE6ED"/>
<path d="M249.756 101.203V206.244C249.756 211.341 238.757 215.929 221.207 219.127C205.489 221.989 184.517 223.738 161.485 223.738C142.858 223.738 125.578 222.594 111.336 220.641C110.396 220.513 109.469 220.381 108.556 220.245C105.617 219.809 102.821 219.336 100.182 218.831C93.7129 217.593 88.1951 216.161 83.8677 214.583C82.3255 214.02 80.9351 213.44 79.7064 212.841C78.7042 212.354 77.8107 211.856 77.0301 211.348C74.5487 209.734 73.2139 208.021 73.2139 206.244V101.203H249.756Z" fill="#BA0808"/>
<path opacity="0.2" d="M108.556 109.414V220.243C105.617 219.806 102.821 219.333 100.182 218.829C93.7131 217.59 88.1953 216.158 83.8679 214.581C82.3257 214.018 80.9353 213.437 79.7066 212.839C78.7044 212.352 77.8109 211.854 77.0303 211.346V109.414H108.556Z" fill="white"/>
<path opacity="0.2" d="M249.756 109.742V205.895C249.756 211.092 238.793 215.77 221.3 219.03V109.742H249.756Z" fill="#561F0B"/>
<path opacity="0.2" d="M249.756 102.749V116.749C237.784 125.971 202.79 132.646 161.485 132.646C120.18 132.646 85.1865 125.971 73.2139 116.749V102.749C75.0035 101.371 77.3074 100.049 80.0691 98.798C95.7881 91.6807 126.354 86.8516 161.485 86.8516C196.616 86.8516 227.182 91.6807 242.901 98.798C245.663 100.049 247.967 101.371 249.756 102.749Z" fill="#561F0B"/>
<path d="M237.991 91.9008C221.343 85.8888 193.418 81.9453 161.776 81.9453C130.135 81.9453 102.21 85.8888 85.5613 91.9008H69.3984V104.843C69.3984 117.489 110.757 127.74 161.776 127.74C212.795 127.74 254.154 117.489 254.154 104.843V91.9008H237.991Z" fill="#A9BEC9"/>
<path d="M161.776 114.803C212.795 114.803 254.154 104.551 254.154 91.9052C254.154 79.2593 212.795 69.0078 161.776 69.0078C110.757 69.0078 69.3984 79.2593 69.3984 91.9052C69.3984 104.551 110.757 114.803 161.776 114.803Z" fill="#CEE6ED"/>
<path d="M161.776 109.744C208.579 109.744 246.521 101.758 246.521 91.9071C246.521 82.0561 208.579 74.0703 161.776 74.0703C114.972 74.0703 77.0303 82.0561 77.0303 91.9071C77.0303 101.758 114.972 109.744 161.776 109.744Z" fill="#FCCBA2"/>
<path d="M161.776 77.8865C205.516 77.8865 241.516 84.8615 246.04 93.8152C246.357 93.1882 246.521 92.5517 246.521 91.9071C246.521 82.0561 208.579 74.0703 161.776 74.0703C114.972 74.0703 77.0303 82.0561 77.0303 91.9071C77.0303 92.5517 77.1943 93.1882 77.5111 93.8152C82.0353 84.8615 118.035 77.8865 161.776 77.8865Z" fill="#BDCCD4"/>
<path opacity="0.2" d="M142.736 102.939C168.532 102.939 189.443 98.8533 189.443 93.8133C189.443 88.7733 168.532 84.6875 142.736 84.6875C116.94 84.6875 96.0283 88.7733 96.0283 93.8133C96.0283 98.8533 116.94 102.939 142.736 102.939Z" fill="white"/>
<path d="M161.319 241.447C161.318 241.447 161.317 241.447 161.316 241.447C160.456 241.446 159.708 240.857 159.505 240.021L130.947 122.488L102.055 233.797C101.838 234.632 101.08 235.21 100.216 235.194C99.3537 235.179 98.6139 234.576 98.4262 233.734L68.4465 99.3251C68.2221 98.3189 68.8558 97.3213 69.8621 97.0968C70.8685 96.8726 71.8659 97.5062 72.0903 98.5124L100.385 225.369L129.201 114.359C129.414 113.535 130.158 112.961 131.007 112.961C131.012 112.961 131.017 112.961 131.022 112.961C131.878 112.968 132.619 113.556 132.821 114.387L161.332 231.726L190.247 114.359C190.451 113.529 191.193 112.944 192.048 112.939C192.052 112.939 192.056 112.939 192.059 112.939C192.91 112.939 193.653 113.515 193.866 114.339L222.688 225.879L251.794 98.4203C252.024 97.4151 253.025 96.7865 254.029 97.016C255.035 97.2455 255.663 98.2463 255.434 99.2514L224.62 234.189C224.428 235.028 223.687 235.627 222.826 235.64C222.817 235.64 222.808 235.64 222.8 235.64C221.95 235.64 221.206 235.065 220.993 234.24L192.102 122.434L163.131 240.027C162.926 240.861 162.178 241.447 161.319 241.447Z" fill="#FCCBA2"/>
<path d="M99.7194 233.773C102.491 233.773 104.739 231.526 104.739 228.754C104.739 225.982 102.491 223.734 99.7194 223.734C96.9474 223.734 94.7002 225.982 94.7002 228.754C94.7002 231.526 96.9474 233.773 99.7194 233.773Z" fill="#BA0808"/>
<path opacity="0.2" d="M98.048 228.211C98.5402 226.83 98.5019 225.554 97.9624 225.362C97.4229 225.17 96.5865 226.134 96.0943 227.515C95.6021 228.896 95.6405 230.171 96.18 230.364C96.7195 230.556 97.5558 229.592 98.048 228.211Z" fill="white"/>
<path d="M130.832 126.257C133.604 126.257 135.851 124.01 135.851 121.238C135.851 118.466 133.604 116.219 130.832 116.219C128.06 116.219 125.812 118.466 125.812 121.238C125.812 124.01 128.06 126.257 130.832 126.257Z" fill="#BA0808"/>
<path opacity="0.2" d="M129.154 120.703C129.646 119.322 129.607 118.047 129.068 117.854C128.528 117.662 127.692 118.626 127.2 120.007C126.708 121.388 126.746 122.664 127.285 122.856C127.825 123.048 128.661 122.084 129.154 120.703Z" fill="white"/>
<path d="M191.89 126.257C194.662 126.257 196.909 124.01 196.909 121.238C196.909 118.466 194.662 116.219 191.89 116.219C189.118 116.219 186.871 118.466 186.871 121.238C186.871 124.01 189.118 126.257 191.89 126.257Z" fill="#BA0808"/>
<path opacity="0.2" d="M190.209 120.695C190.701 119.314 190.663 118.039 190.124 117.847C189.584 117.654 188.748 118.618 188.255 119.999C187.763 121.38 187.802 122.656 188.341 122.848C188.881 123.04 189.717 122.077 190.209 120.695Z" fill="white"/>
<path d="M254.195 108.913C255.455 108.913 256.476 106.666 256.476 103.894C256.476 101.122 255.455 98.875 254.195 98.875C252.935 98.875 251.913 101.122 251.913 103.894C251.913 106.666 252.935 108.913 254.195 108.913Z" fill="#BA0808"/>
<path d="M69.3557 108.913C70.6157 108.913 71.6371 106.666 71.6371 103.894C71.6371 101.122 70.6157 98.875 69.3557 98.875C68.0957 98.875 67.0742 101.122 67.0742 103.894C67.0742 106.666 68.0957 108.913 69.3557 108.913Z" fill="#BA0808"/>
<path d="M222.337 233.773C225.109 233.773 227.356 231.526 227.356 228.754C227.356 225.982 225.109 223.734 222.337 223.734C219.565 223.734 217.317 225.982 217.317 228.754C217.317 231.526 219.565 233.773 222.337 233.773Z" fill="#BA0808"/>
<path opacity="0.2" d="M220.658 228.203C221.151 226.822 221.112 225.547 220.573 225.354C220.033 225.162 219.197 226.126 218.705 227.507C218.212 228.888 218.251 230.164 218.79 230.356C219.33 230.548 220.166 229.584 220.658 228.203Z" fill="white"/>
<path d="M164.99 238.94C166.95 236.98 166.95 233.802 164.99 231.842C163.03 229.881 159.852 229.881 157.892 231.842C155.932 233.802 155.932 236.98 157.892 238.94C159.852 240.9 163.03 240.9 164.99 238.94Z" fill="#BA0808"/>
<path opacity="0.2" d="M159.77 234.844C160.262 233.463 160.224 232.187 159.684 231.995C159.145 231.803 158.308 232.766 157.816 234.148C157.324 235.529 157.362 236.804 157.902 236.997C158.441 237.189 159.278 236.225 159.77 234.844Z" fill="white"/>
</svg>
