<svg width="340" height="364" viewBox="0 0 340 364" fill="none" xmlns="http://www.w3.org/2000/svg">
<path d="M237.681 30.5859C242.57 37.1593 244.427 44.3617 244.736 52.4227C244.225 52.6325 243.735 52.7103 243.478 53.2534C243.298 53.6361 243.279 54.3174 243.191 54.745L243.152 53.1969C243.422 47.7301 242.891 41.7539 240.478 36.7562C239.602 34.9404 238.443 33.2591 237.498 31.4768C237.487 31.052 237.487 30.9592 237.681 30.5859Z" fill="#990113"/>
<path d="M181.434 16.1581C183.15 15.2428 185.047 14.6176 186.904 14.0549C196.064 11.279 205.391 11.9563 214.473 14.736C223.297 17.4368 232.39 22.835 237.682 30.5828C237.487 30.9561 237.487 31.0487 237.498 31.4735C236.614 30.485 235.889 29.3046 235.023 28.2845C231.53 24.1724 227.63 21.181 222.78 18.8352C212.887 14.0508 200.918 11.8721 190.043 13.9492C187.136 14.5045 184.356 15.4921 181.573 16.4724L181.434 16.1581Z" fill="#BA0214"/>
<path d="M27.6873 93.8743C27.1439 83.9446 31.215 73.9284 36.929 65.9628C41.854 59.0967 48.0159 54.2531 55.4589 50.38C57.3037 49.4201 59.4774 48.2098 61.5422 47.875L62.1485 48.5194C47.3892 54.4739 37.6009 63.2992 31.3077 78.1559C29.2263 83.0687 27.8302 88.3973 27.8856 93.7678L27.6873 93.8743Z" fill="#990113"/>
<path d="M110.541 11.8193C112.183 11.3084 115.754 8.28305 117.512 7.22621C119.628 5.95352 122.022 4.97942 124.317 4.07084C135.886 -0.510596 151.437 -1.79607 163.042 3.20666C164.371 3.57229 165.658 4.19855 166.89 4.81232C171.261 7.0628 176.016 9.74594 179.034 13.7271C179.68 14.459 180.475 16.0131 181.434 16.1638L181.573 16.4782L180.365 17.1353L179.86 16.6407C179.448 15.6565 178.823 14.8926 178.17 14.0633C175.085 10.5702 171.05 8.42259 167.139 6.04004C164.711 5.28824 162.457 4.00788 159.977 3.26773C155.087 1.99361 149.671 0.725651 144.596 0.689865C135.239 0.623877 122.401 5.64194 114.468 10.2857C113.349 10.9408 112.259 11.6138 111.239 12.4178L110.541 11.8193Z" fill="#7C0104"/>
<path d="M62.3931 45.8408C66.7299 33.4898 75.4993 22.3768 87.0578 16.0672C93.8064 12.3832 102.882 9.56818 110.541 11.8203L111.239 12.4189C106.4 16.6402 101.856 22.9108 99.8906 29.0688C98.939 32.0507 98.4992 35.2618 98.2194 38.3758C97.9837 38.9844 98.3927 39.2276 98.4851 39.8253C95.3354 42.0073 92.2905 44.5613 89.8799 47.5594C87.1224 47.0194 84.2956 46.3735 81.4948 46.1385C75.5879 45.3204 69.743 46.2021 64.0589 47.8863L62.1493 48.5209L61.543 47.8764C61.9798 47.3299 62.1665 46.4989 62.3931 45.8408Z" fill="#640503"/>
<path d="M62.3933 45.8438C62.91 46.4111 63.424 47.0335 63.7466 47.7346L64.0589 47.8894L62.1493 48.524L61.543 47.8795C61.98 47.3329 62.1667 46.5019 62.3933 45.8438Z" fill="#7C0104"/>
<path d="M104.137 12.681C105.126 12.5308 107.497 12.6227 108.306 13.2064C108.128 13.5179 108.082 13.5316 107.79 13.7175C98.4623 19.6611 93.3294 31.0756 91.0272 41.4769C83.2241 37.935 77.8122 37.2423 69.6219 40.3083C67.7747 41.1312 66.0686 42.3296 64.3711 43.4235C67.0871 38.2065 69.9735 33.0576 73.9114 28.6422C81.8205 19.774 92.0422 13.3388 104.137 12.681Z" fill="#BA0214"/>
<path d="M99.0437 15.0167C99.6103 14.9261 100.169 14.9678 100.74 14.9907L100.712 15.2167C97.002 18.5813 92.3237 21.1751 88.2361 24.0667C82.4992 28.1242 76.9688 32.5282 71.3758 36.7852C71.107 36.9847 70.8681 37.1022 70.5565 37.2241L70.3125 36.927C70.5051 35.7046 71.4971 34.3906 72.2198 33.4004C78.126 25.3088 88.9881 16.5599 99.0437 15.0167Z" fill="#F01539"/>
<path d="M67.6484 279.066C70.5702 278.716 75.043 281.903 77.212 283.599C82.5302 287.758 86.959 292.731 91.8384 297.357C101.882 306.878 113.465 312.897 127.667 311.204C136.978 310.094 143.089 306.279 151.224 302.495C154.318 301.055 157.542 299.884 160.774 298.794C161.84 298.434 162.935 298.084 164.047 297.899C165.582 297.644 167.899 297.83 169.264 297.191C169.3 297.218 169.332 297.254 169.374 297.271C169.854 297.464 170.027 297.256 170.451 297.029C173.051 298.497 181.749 303.714 183.358 305.701C180.356 308.679 177.222 311.666 173.754 314.1C167.657 318.378 159.831 321.295 152.587 322.948C125.593 329.111 101.582 320.774 84.5813 298.759C79.1228 291.691 75.5056 284.018 67.6484 279.066Z" fill="#1F8115"/>
<path d="M182.02 209.521C185.648 209.326 189.994 211.341 194.334 210.987C197.469 217.238 200.859 223.346 203.541 229.82C204.945 232.395 205.993 235.305 207.091 238.024C210.55 246.587 213.698 255.373 215.878 264.354C216.812 268.204 217.147 272.267 218.26 276.049C218.539 278.171 218.694 281.936 219.603 283.725L219.598 284.062C219.588 286.321 220.114 288.811 220.37 291.072C220.733 294.288 220.941 297.512 221.111 300.742C222.015 317.917 219.952 335.165 214.733 351.569C213.878 354.257 212.259 360.485 210.466 362.316C209.103 363.708 207.182 364.043 205.31 364.001C204.322 363.979 203.358 363.802 202.389 363.626C199.998 362.823 198.279 361.774 196.661 359.804C198.612 354.773 204.725 340.729 204.753 335.84C206.406 333.542 205.736 330.491 206.681 327.958C207.121 326.615 207.326 325.058 207.561 323.661C208.697 316.917 209.119 309.964 209.163 303.129C209.325 278.208 203.314 254.484 193.532 231.676C190.288 224.111 186.8 216.256 182.02 209.521Z" fill="#233D07"/>
<path d="M195.035 224.648C197.171 225.511 199.039 226.447 200.895 227.827C201.679 228.41 202.405 229.095 203.231 229.618L203.54 229.81C204.944 232.386 205.993 235.296 207.091 238.015C210.549 246.578 213.698 255.364 215.877 264.345C216.812 268.195 217.146 272.258 218.26 276.04C218.538 278.162 218.693 281.927 219.602 283.716L219.597 284.053C219.588 286.312 220.114 288.802 220.369 291.063C220.732 294.279 220.94 297.503 221.11 300.733C222.014 317.908 219.952 335.156 214.733 351.559C213.877 354.248 212.258 360.476 210.465 362.307C209.103 363.699 207.182 364.034 205.309 363.992C204.322 363.97 203.357 363.793 202.388 363.617C203.424 361.559 204.395 359.468 205.307 357.353C208.398 350.189 210.569 342.76 212.241 335.148C217.485 311.275 216.164 286.956 209.395 263.494C205.539 250.129 200.157 237.538 195.035 224.648Z" fill="#1F8115"/>
<path d="M111.239 12.4161C112.259 11.612 113.349 10.9391 114.468 10.284C122.401 5.64022 135.239 0.622157 144.596 0.688144C149.67 0.72393 155.087 1.9918 159.977 3.26601C162.457 4.00607 164.711 5.28653 167.139 6.03833C171.049 8.42088 175.084 10.5684 178.169 14.0616C178.822 14.8908 179.447 15.6548 179.859 16.639L180.365 17.1336C178.414 18.1509 176.623 19.1248 174.48 19.6877C170.995 20.2464 167.596 21.1423 164.27 22.3168C159.683 23.2449 152.462 27.3263 149.668 31.2092C149.523 31.4097 149.429 31.612 149.327 31.8356C143.902 32.1115 137.376 34.6227 133.732 38.7964C133.65 38.8899 133.572 38.9866 133.491 39.0816C130.238 38.2568 127.329 36.5326 123.876 36.3888L123.809 36.799C121.568 37.2277 118.702 37.0084 116.403 36.8945C116.277 36.865 116.098 36.8182 115.973 36.8131C115.481 36.7923 115.221 36.8002 114.73 36.641L114.655 36.4135L115.294 36.1263C114.975 35.8217 113.518 35.9982 113.052 36.0088L113.107 35.8056C107.884 35.8111 102.977 37.1357 98.4843 39.8225C98.392 39.2248 97.9829 38.9816 98.2187 38.373C98.4984 35.259 98.9381 32.0479 99.8899 29.066C101.855 22.908 106.4 16.6374 111.239 12.4161Z" fill="#BA0214"/>
<path d="M140.663 3.63595L141.021 3.60054C148.095 2.96112 158.396 5.03181 164.803 8.08171C167.883 9.54811 170.582 11.42 173.186 13.6107C170.735 13.0176 168.252 12.555 165.807 11.9438C157.517 9.87085 151.952 8.26728 143.144 8.39149C139.751 8.46287 136.372 8.70438 133.043 9.39502C125.932 10.8702 119.163 13.8678 112.076 15.5749C119.367 8.41061 130.602 4.29525 140.663 3.63595Z" fill="#F00B25"/>
<path d="M179.859 16.6406L180.365 17.1352C178.414 18.1526 176.623 19.1265 174.48 19.6893C170.995 20.2481 167.596 21.144 164.27 22.3185C159.683 23.2466 152.462 27.3279 149.668 31.2109C149.523 31.4113 149.429 31.6136 149.327 31.8372C143.902 32.1131 137.376 34.6243 133.732 38.798C133.65 38.8915 133.572 38.9882 133.491 39.0832C130.238 38.2584 127.329 36.5343 123.876 36.3904L123.809 36.8007C121.568 37.2293 118.702 37.0101 116.403 36.8961C116.277 36.8666 116.098 36.8199 115.973 36.8148C115.481 36.7939 115.221 36.8018 114.73 36.6426L114.655 36.4152L115.294 36.1279C114.975 35.8233 113.518 35.9998 113.052 36.0104L113.107 35.8073C107.884 35.8127 102.977 37.1373 98.4843 39.8241C98.392 39.2265 97.9829 38.9833 98.2187 38.3746L98.3515 38.5597C99.1515 38.2238 100.222 36.4854 100.847 35.7435C105.876 29.7757 111.816 24.2067 119.856 23.0841C126.57 22.1462 133.039 24.6165 138.352 28.5805C141.625 25.7789 144.976 23.0189 148.768 20.9387C157.19 16.3183 167.571 15.7395 176.693 18.3923C177.736 17.772 178.772 17.1785 179.859 16.6406Z" fill="#7C0104"/>
<path d="M113.106 35.8021C116.738 35.6469 120.281 35.7769 123.875 36.3852L123.808 36.7954C121.567 37.2241 118.701 37.0048 116.402 36.8908C116.276 36.8614 116.096 36.8146 115.972 36.8095C115.48 36.7887 115.22 36.7965 114.729 36.6374L114.654 36.4099L115.293 36.1226C114.974 35.8181 113.516 35.9946 113.051 36.0052L113.106 35.8021Z" fill="#F85F7C"/>
<path d="M23.2812 182.603C23.642 182.555 23.9869 182.497 24.3398 182.621C25.7186 183.106 27.2039 184.246 28.4723 184.994C30.5804 186.238 32.789 187.445 35.0366 188.413C40.6976 190.851 46.9899 192.761 53.1213 193.495C63.0537 194.684 72.8019 193.442 82.2991 190.426C83.4339 190.065 87.4964 187.932 88.0889 187.951C88.5711 188.19 88.9282 188.272 89.4508 188.351C89.6807 188.682 89.8905 189.014 90.0921 189.362C91.5314 189.403 95.1848 187.421 96.6281 186.729C99.7162 187.057 102.692 187.283 105.805 187.17C111.104 195.324 120.71 199.286 129.931 201.233C138.202 202.979 147.414 203.6 155.809 202.493C158.507 202.137 161.298 201.16 163.92 200.894C165.317 203.186 166.506 205.494 167.223 208.094C170.017 218.227 166.432 225.742 161.574 234.371C160.302 232.513 158.696 230.872 156.957 229.448C150.896 224.484 143.194 222.278 135.531 224.405C131.554 225.509 127.881 227.128 123.714 227.506C116.35 228.173 109.553 225.238 103.976 220.572C94.3215 212.493 90.9477 201.944 89.8601 189.823C87.6447 190.543 85.4829 191.428 83.2593 192.136C79.0015 193.492 74.5739 194.433 70.1464 195.019C53.9196 197.166 36.2955 192.564 23.2812 182.603Z" fill="#7C0104"/>
<path d="M96.4449 195.401C96.3239 195.001 96.2477 194.66 96.2213 194.242C96.6193 194.778 96.9962 195.321 97.3615 195.879C104.533 198.02 111.573 200.854 118.812 202.735C121.684 203.482 124.837 203.926 127.779 204.335C132.808 205.034 137.929 205.419 142.997 205.708C146.567 205.912 150.478 205.816 153.963 206.641C156.724 207.295 158.997 208.774 160.485 211.223C164.294 217.491 163.174 225.671 161.572 232.407C160.071 229.431 158.32 226.884 155.596 224.902C150.056 220.871 142.307 219.899 135.789 221.793C131.887 222.927 128.324 224.624 124.248 225.242C117.039 226.334 110.898 224.103 105.113 219.789C97.3249 213.982 93.0648 204.849 91.6895 195.407L96.4449 195.401Z" fill="#BA0214"/>
<path d="M96.4443 195.401C96.3233 195.001 96.2471 194.66 96.2207 194.242C96.6187 194.778 96.9956 195.321 97.3609 195.879C98.0525 197.413 98.9055 198.88 99.8608 200.263C104.143 206.465 110.041 211.262 117.35 213.35C119.364 213.925 121.377 214.17 123.425 214.553C124.82 214.814 126.475 215.157 127.325 216.391C127.402 216.908 127.453 217.075 127.209 217.559C126.536 218.892 124.232 219.914 122.865 220.238C119.394 221.061 116.132 220.108 113.153 218.294C105.461 213.606 98.5413 204.165 96.4443 195.401Z" fill="#EF3D56"/>
<path d="M49.7693 138.766C51.1229 139.839 52.6188 140.515 54.2145 141.147C52.0305 149.03 53.1504 157.067 57.1626 164.182C63.1567 174.811 74.6012 181.375 86.1051 184.539C88.078 185.082 90.0874 185.498 92.0879 185.927C90.7622 186.612 89.4384 187.319 88.0875 187.953C87.4949 187.935 83.4324 190.068 82.2976 190.428C72.8005 193.444 63.0522 194.686 53.1198 193.497C46.9884 192.764 40.696 190.853 35.0351 188.415C32.7875 187.448 30.5789 186.241 28.4708 184.997C27.2024 184.248 25.7171 183.108 24.3383 182.624C23.9854 182.499 23.6405 182.558 23.2798 182.606C20.5261 180.774 18.1343 178.081 15.8196 175.739C15.6153 171.108 15.8439 166.469 17.1308 161.992C19.1595 154.936 24.1808 148.072 30.6732 144.497L30.9502 144.662C31.602 144.332 32.8119 143.331 33.4689 143.36L33.7026 143.368C34.0456 143.383 33.839 143.371 34.158 143.41C35.2319 143.541 38.4265 141.888 39.6964 141.494C42.9924 140.47 46.4082 139.55 49.7693 138.766Z" fill="url(#paint0_linear_4691_32158)"/>
<path d="M38.053 150.516L38.0832 150.782C36.5622 154.231 35.8879 157.467 36.5379 161.222C38.1198 170.364 45.5764 176.496 52.7133 181.595L43.5595 179.258C36.7747 177.162 30.003 175.014 25.168 169.506C26.7429 161.768 32.6467 155.824 38.053 150.516Z" fill="#EF3D56"/>
<path d="M259.382 96.2542L259.774 96.2334C262.262 96.0923 264.659 95.64 267.171 95.7009C275.556 95.9037 284.145 99.7037 290.408 105.189C294.505 108.776 298.868 113.839 300.129 119.269C295.546 136.463 287.287 148.445 271.697 157.466C262.661 162.695 252.45 166.677 242.015 167.72C240.112 167.91 238.119 168.125 236.213 167.928C236.244 167.751 236.256 167.721 236.251 167.514C236.148 163.667 233.628 158.832 230.895 156.243C237.632 152.73 243.53 147.981 248.351 142.098C256.659 131.96 261.965 119.897 260.365 106.587C259.987 103.443 258.379 100.536 258.095 97.4478C258.089 97.3897 258.085 97.3307 258.081 97.2722L257.188 96.6604L257.238 96.4954C257.977 96.3205 258.622 96.2436 259.382 96.2542Z" fill="url(#paint1_linear_4691_32158)"/>
<path d="M265.322 105.172C271.399 105.788 277.824 108.964 282.369 112.973C284.287 114.666 286.86 117.057 286.955 119.775C287.201 126.734 278.186 136.502 273.617 141.263C271.669 143.203 269.605 145.023 267.565 146.864L267.92 146.402C273.267 139.319 277.615 129.492 276.252 120.449C275.205 113.506 270.733 109.168 265.322 105.172Z" fill="#EF3D56"/>
<path d="M258.242 197.23C262.831 194.397 268.01 192.072 273.201 190.612C285.917 187.035 301.978 187.232 314.804 190.276C323.324 192.299 331.605 195.487 339.185 199.878L338.934 199.898C336.4 200.088 333.825 199.874 331.303 200.168C318.766 201.632 304.502 206.146 293.805 212.856C292.612 213.605 289.062 215.613 288.366 216.509C288.315 216.574 288.279 216.649 288.236 216.72L288.058 216.796C285.722 217.696 283.266 218.283 280.906 219.134C278.69 219.932 276.546 221.042 274.308 221.751L266.52 225.693C264.459 227.222 262.111 228.414 259.94 229.787C257.655 231.231 255.485 232.883 253.189 234.296C251.264 235.73 249.388 237.209 247.53 238.728C244.871 241.616 241.638 244.02 238.899 246.875C235.704 250.205 233.041 253.966 229.933 257.336C229.566 255.89 229.197 254.442 228.918 252.977C226.389 239.697 231.142 226.313 238.515 215.407C239.347 213.835 240.619 212.351 241.773 211.005C246.583 205.394 252.067 201.22 258.242 197.23Z" fill="#5EB643"/>
<path d="M306.09 194.062C301.439 198.735 297.504 202.206 293.517 207.621C292.467 209.048 287.858 215.456 288.058 216.798C285.722 217.698 283.266 218.286 280.906 219.136C278.691 219.935 276.547 221.044 274.309 221.754C275.017 220.093 276.628 218.212 277.709 216.701C285.883 205.267 294.095 200.715 306.09 194.062Z" fill="#1F8115"/>
<path d="M253.189 234.301C254.461 228.194 255.786 222.083 258.036 216.247C262.681 204.202 270.751 197.685 282.271 192.555C277.389 199.76 268.129 217.226 266.52 225.698C264.459 227.226 262.112 228.419 259.941 229.791C257.656 231.236 255.485 232.888 253.189 234.301Z" fill="#1F8115"/>
<path d="M259.126 197.426L259.851 197.117L260.022 197.273C259.412 198.337 258.518 199.204 257.771 200.173C256.871 201.34 256.097 202.661 255.404 203.96C250.197 213.719 247.66 227.738 247.53 238.738C244.871 241.626 241.638 244.03 238.899 246.886C235.704 250.216 233.041 253.976 229.933 257.346C229.566 255.901 229.197 254.453 228.918 252.988C226.389 239.707 231.142 226.323 238.515 215.417C238.561 215.56 238.66 215.696 238.654 215.846C238.627 216.566 237.384 219.483 237.122 220.365C236.588 222.162 236.171 223.993 235.84 225.838C234.43 233.703 234.367 241.67 234.673 249.626C236.831 244.415 237.246 238.387 238.418 232.887C240.766 221.874 244.109 212.786 251.705 204.175C253.909 201.676 256.321 199.246 259.126 197.426Z" fill="#1F8115"/>
<path d="M85.2389 274.796C93.7977 274.093 102.232 274.493 110.777 275.076C115.113 275.373 119.433 275.603 123.748 276.153C127.39 276.618 130.975 277.401 134.6 277.906C137.652 278.599 140.741 279.174 143.758 280.009C153.721 282.767 164.537 287.181 173.214 292.835C174.909 293.939 176.587 295.076 178.21 296.285C179.696 297.392 183.65 300.911 184.925 301.389C193.428 309.036 201.3 317.794 206.682 327.955C205.737 330.488 206.407 333.538 204.754 335.837C203.165 333.192 202.133 330.097 200.608 327.371C196.119 319.345 189.995 312.026 183.358 305.697C181.749 303.711 173.051 298.494 170.451 297.026C170.027 297.252 169.854 297.46 169.374 297.267C169.332 297.25 169.301 297.215 169.264 297.188C167.899 297.826 165.582 297.641 164.047 297.896C162.935 298.081 161.84 298.431 160.774 298.791C157.542 299.88 154.318 301.052 151.224 302.491C143.089 306.276 136.978 310.09 127.668 311.201C113.465 312.894 101.882 306.875 91.8385 297.353C86.9591 292.728 82.5303 287.755 77.2121 283.596C75.0431 281.899 70.5704 278.713 67.6485 279.062C66.144 278.559 64.6811 277.883 63.1699 277.364C63.2348 277.331 63.3055 277.309 63.364 277.266C63.685 277.03 63.8756 276.768 64.274 276.622C68.234 275.162 82.2334 275.084 87.3068 275.002C86.6165 274.951 85.919 274.926 85.2389 274.796Z" fill="#5EB643"/>
<path d="M104.055 275.633C108.171 275.789 115.911 276.856 119.783 278.012C117.485 278.465 114.955 278.115 112.61 278.237C106.993 278.528 98.3258 279.695 93.4589 282.321C92.0883 283.061 91.0769 284.277 89.75 285.069L89.7889 284.845C94.8667 279.638 98.0224 278.825 104.055 275.633Z" fill="#1F8115"/>
<path d="M148.051 286.062C155.84 288.534 163.637 292.537 170.449 297.033C170.025 297.26 169.852 297.467 169.372 297.274C169.33 297.257 169.298 297.222 169.262 297.195C155.478 293.328 137.122 295.05 123.355 298.614C119.65 299.573 116.113 300.973 112.461 302.094C114.626 300.34 116.669 298.457 118.927 296.815C124.854 292.504 132.517 288.766 139.669 287.19C142.435 286.58 145.239 286.346 148.051 286.062Z" fill="#1F8115"/>
<path d="M85.2363 274.796C93.7952 274.093 102.229 274.493 110.774 275.076C115.111 275.373 119.43 275.603 123.746 276.153C127.388 276.618 130.973 277.401 134.598 277.906C137.65 278.599 140.739 279.174 143.756 280.009C153.718 282.767 164.535 287.181 173.211 292.835C174.906 293.939 176.584 295.076 178.207 296.285C179.693 297.392 183.647 300.911 184.923 301.389C193.426 309.036 201.298 317.794 206.679 327.955C205.735 330.488 206.405 333.538 204.752 335.837C203.162 333.192 202.13 330.097 200.605 327.371C196.116 319.345 189.993 312.026 183.356 305.697C181.747 303.711 173.049 298.494 170.449 297.026C163.636 292.53 155.839 288.527 148.051 286.055C145.831 285.404 143.634 284.478 141.431 283.747C134.461 281.431 127.074 279.072 119.781 278.018C115.909 276.862 108.169 275.795 104.054 275.639C99.1594 274.636 92.3879 275.009 87.3042 275.002C86.6139 274.951 85.9165 274.926 85.2363 274.796Z" fill="#640503"/>
<path d="M61.5528 275.811C61.6919 275.63 61.8247 275.459 61.985 275.296C65.5984 271.625 70.0047 268.335 74.1545 265.29C90.1445 253.557 108.131 245.189 128.236 244.767C140.329 244.513 152.979 247.045 161.997 255.69C173.145 264.982 183.555 282.096 184.919 296.686C185.068 298.274 185.044 299.799 184.924 301.388C183.649 300.909 179.694 297.391 178.208 296.284C176.585 295.074 174.908 293.937 173.212 292.833C164.536 287.18 153.72 282.766 143.757 280.008C140.74 279.173 137.651 278.598 134.599 277.905C130.974 277.4 127.389 276.617 123.747 276.152C119.431 275.601 115.112 275.371 110.775 275.075C102.23 274.492 93.7964 274.091 85.2376 274.795C85.9177 274.925 86.6151 274.949 87.3056 275.001C82.232 275.082 68.2327 275.161 64.2728 276.62C63.8744 276.767 63.6838 277.029 63.3628 277.265C63.3043 277.308 63.2335 277.33 63.1687 277.363C62.2021 277.184 61.2269 277.052 60.2539 276.909L61.5528 275.811Z" fill="#5EB643"/>
<path d="M88.711 263.363C96.9453 262.903 106.099 265.668 113.457 269.274C115.445 270.248 117.184 271.861 119.226 272.67C121.958 273.751 125.007 274.207 127.847 274.95C129.95 275.5 131.946 276.276 134.005 276.951C134.476 277.287 134.444 277.335 134.599 277.902C130.974 277.397 127.389 276.614 123.747 276.149C119.431 275.599 115.112 275.369 110.775 275.072C102.23 274.489 93.7964 274.088 85.2376 274.792C85.9177 274.922 86.6151 274.947 87.3056 274.998C82.232 275.08 68.2327 275.158 64.2728 276.618C63.8744 276.764 63.6838 277.026 63.3628 277.262C63.3043 277.305 63.2335 277.327 63.1687 277.36C62.2021 277.181 61.2269 277.049 60.2539 276.906L61.5529 275.808C71.2076 271.589 101.261 270.786 111.069 273.836C105.074 269.343 96.0368 264.666 88.711 263.363Z" fill="#1F8115"/>
<path d="M130.332 249.382C136.208 248.939 142.665 250.643 147.768 253.507C160.823 260.834 166.179 272.434 170.001 286.169C170.956 286.744 171.858 287.339 172.751 288.008C171.888 281.501 171.023 275.036 168.651 268.867C167.662 266.295 166.565 263.364 165.17 260.997C164.336 259.58 162.203 257.28 161.997 255.691C173.145 264.983 183.555 282.098 184.919 296.688C185.068 298.275 185.044 299.801 184.924 301.389C183.649 300.911 179.694 297.392 178.208 296.285C176.585 295.076 174.908 293.939 173.213 292.835C164.536 287.181 153.72 282.767 143.757 280.009C140.74 279.174 137.651 278.6 134.599 277.906C134.444 277.339 134.476 277.291 134.005 276.955C130.961 272.628 128.385 268.296 124.708 264.416C118.44 257.802 111.493 254.241 102.316 254.005C110.174 251.331 123.506 252.485 130.902 256.159C139.022 260.193 143.664 269.021 146.411 277.263C149.64 277.937 153.048 279.13 155.796 280.98C153.686 274.107 152.952 267.708 148.731 261.561C144.421 255.283 137.842 250.76 130.332 249.382Z" fill="#1F8115"/>
<path d="M339.187 199.883L339.461 200.133C338.832 201.028 336.974 201.836 335.999 202.426C334.236 203.761 332.521 205.067 331.086 206.769C324.395 214.705 321.811 228.111 316.701 237.475C304.229 260.332 277.162 273.278 251.481 269.787C244.4 268.825 238.103 266.396 231.845 263.065C226.993 269.409 222.702 276.348 219.604 283.723C218.695 281.933 218.54 278.168 218.262 276.047C221.894 269.557 225.683 263.438 229.935 257.34C233.043 253.97 235.707 250.21 238.901 246.88C241.641 244.025 244.873 241.62 247.532 238.733C249.391 237.214 251.266 235.735 253.191 234.301C255.487 232.888 257.658 231.236 259.943 229.792C262.113 228.419 264.461 227.226 266.522 225.698L274.311 221.756C276.549 221.046 278.693 219.937 280.908 219.138C283.268 218.288 285.724 217.701 288.06 216.8L288.238 216.725C288.282 216.654 288.317 216.579 288.368 216.514C289.064 215.618 292.614 213.61 293.807 212.861C304.504 206.15 318.769 201.637 331.306 200.173C333.827 199.878 336.402 200.093 338.936 199.903L339.187 199.883Z" fill="#5EB643"/>
<path d="M339.187 199.883L339.461 200.133C338.832 201.028 336.974 201.836 335.999 202.426C335.074 202.196 334.595 202.382 333.699 202.532C325.877 203.401 316.998 206.469 309.822 209.678C306.641 211.1 303.457 212.848 300.181 214.011C308.207 213.24 310.259 214.261 317.75 215.612C310.899 216.105 304.147 216.544 297.365 217.673C296.275 217.854 295.244 218.119 294.142 217.928C297.033 216.781 300.146 216.272 303.204 215.794C298.212 214.774 293.183 216.26 288.238 216.725C288.282 216.654 288.317 216.579 288.368 216.514C289.064 215.618 292.614 213.61 293.807 212.861C304.504 206.151 318.769 201.637 331.306 200.173C333.827 199.879 336.402 200.093 338.936 199.903L339.187 199.883Z" fill="#1F8115"/>
<path d="M288.238 216.727C293.184 216.262 298.212 214.776 303.204 215.796C300.146 216.274 297.033 216.783 294.142 217.93C281.929 221.446 272.08 228.02 261.75 235.195C259.286 236.682 256.996 238.559 254.759 240.362C248.3 245.57 242.447 251.206 236.81 257.282C235.144 259.077 233.159 261.002 231.845 263.067C226.993 269.411 222.702 276.35 219.604 283.725C218.695 281.936 218.54 278.17 218.262 276.049C221.894 269.559 225.683 263.44 229.935 257.343C233.043 253.973 235.707 250.212 238.901 246.882C241.641 244.027 244.873 241.623 247.532 238.735C249.391 237.216 251.266 235.737 253.191 234.303C255.487 232.891 257.658 231.238 259.943 229.794C262.113 228.421 264.461 227.229 266.522 225.7L274.311 221.758C276.549 221.049 278.693 219.939 280.908 219.141C283.268 218.29 285.724 217.703 288.06 216.803L288.238 216.727Z" fill="#640503"/>
<path d="M333.697 202.527C334.594 202.376 335.072 202.191 335.998 202.42C334.234 203.755 332.519 205.061 331.084 206.764C324.393 214.7 321.809 228.106 316.7 237.47C304.227 260.326 277.16 273.273 251.479 269.782C244.399 268.819 238.101 266.39 231.844 263.06C233.158 260.994 235.142 259.069 236.808 257.274C242.445 251.198 248.298 245.562 254.757 240.355C256.994 238.552 259.285 236.674 261.748 235.187C269.582 235.151 276.942 235.595 284.62 237.257C290.197 238.464 295.715 240.182 301.337 241.144C282.376 242.209 266.311 243.347 248.344 250.155C255.946 252.053 263.923 254.551 271.783 254.832C279.452 255.107 287.228 253.223 294.003 249.632C301.618 245.595 308.945 238.752 313.605 231.442C318.08 224.421 322.375 212.166 327.736 206.623C329.512 204.787 331.395 203.597 333.697 202.527Z" fill="#1F8115"/>
<path d="M181.574 16.4734C184.358 15.4932 187.137 14.5054 190.044 13.9503C200.919 11.8731 212.889 14.0518 222.781 18.8363C227.631 21.1821 231.531 24.1735 235.024 28.2855C235.89 29.3055 236.615 30.4859 237.5 31.4746C238.444 33.2569 239.604 34.9383 240.48 36.754C242.892 41.7517 243.424 47.7277 243.153 53.1947L243.193 54.7427C243.28 54.3152 243.299 53.6339 243.48 53.2512C243.737 52.7081 244.227 52.6303 244.738 52.4205L244.683 52.9886C248.646 53.6857 252.598 55.6963 256.301 57.235C263.822 60.36 273.188 63.1208 281.406 62.8665L281.963 62.9699C282.683 64.4807 280.612 70.5027 280.038 72.1058C277.354 79.5947 272.576 86.9362 266.244 91.8483C264.094 93.5158 261.717 94.8625 259.383 96.2495C258.623 96.2389 257.977 96.3159 257.239 96.4908L257.189 96.6558L258.081 97.2676C258.086 97.3261 258.09 97.3851 258.095 97.4432C258.38 100.531 259.987 103.439 260.365 106.582C261.965 119.893 256.659 131.955 248.352 142.093C243.531 147.977 237.632 152.725 230.895 156.238C233.629 158.827 236.148 163.662 236.251 167.51C236.257 167.716 236.244 167.746 236.213 167.923C235.809 169.288 235.965 170.964 235.871 172.4C235.636 175.957 235.319 179.911 234.237 183.307C230.39 195.386 220.121 200.467 222.238 215.556C216.402 215.07 210.569 214.474 204.818 213.339C201.307 212.646 197.87 211.54 194.336 210.978C189.996 211.332 185.65 209.317 182.021 209.513C181.229 208.771 179.427 208.442 178.383 208.066C173.97 206.473 170.541 203.728 167.782 199.981C166.499 200.326 165.227 200.645 163.921 200.889C161.298 201.154 158.507 202.132 155.81 202.487C147.414 203.594 138.203 202.974 129.932 201.227C120.711 199.28 111.104 195.319 105.806 187.165C102.693 187.278 99.7169 187.051 96.6288 186.724C95.1856 187.416 91.5321 189.397 90.0927 189.357C89.8912 189.009 89.6814 188.676 89.4515 188.345C88.9289 188.266 88.5717 188.184 88.0896 187.945C89.4405 187.311 90.7644 186.605 92.0901 185.919C90.0896 185.49 88.0802 185.074 86.1073 184.532C74.6034 181.367 63.1589 174.803 57.1648 164.174C53.1525 157.059 52.0327 149.022 54.2167 141.139C52.6209 140.507 51.1251 139.831 49.7715 138.758C46.4104 139.542 42.9945 140.462 39.6987 141.486C38.4287 141.88 35.2342 143.533 34.1603 143.402C33.8412 143.363 34.0479 143.376 33.7049 143.361L33.4712 143.352C32.8142 143.324 31.6043 144.324 30.9525 144.655L30.6755 144.489C31.2991 143.871 32.4307 143.3 33.1816 142.807C31.9403 142.799 30.6826 142.732 29.4479 142.61C19.4121 141.612 7.61483 136.951 1.11456 128.984L0.287112 127.79L0.00195312 127.224L0.211183 126.883C2.72154 124.691 5.28246 122.38 7.40608 119.808C12.2113 113.988 15.8459 107.262 20.6675 101.427C22.5705 98.6501 25.31 96.2512 27.6897 93.8701L27.8881 93.7636C27.8327 88.3931 29.2288 83.0645 31.3102 78.1517C37.6034 63.295 47.3917 54.4697 62.1509 48.5152L64.0606 47.8806C69.7448 46.1965 75.5896 45.3148 81.4965 46.1329C84.2973 46.3678 87.1241 47.0138 89.8816 47.5537C92.2923 44.5557 95.3371 42.0016 98.4868 39.8197C102.979 37.1328 107.887 35.8083 113.109 35.8028L113.054 36.0059C113.52 35.9953 114.977 35.8189 115.296 36.1234L114.657 36.4107L114.733 36.6382C115.223 36.7973 115.484 36.7895 115.975 36.8103C116.1 36.8154 116.279 36.8622 116.406 36.8916C118.705 37.0056 121.57 37.2249 123.812 36.7962L123.879 36.386C127.331 36.5298 130.24 38.254 133.494 39.0787C133.574 38.9837 133.652 38.887 133.734 38.7935C137.378 34.6198 143.905 32.1085 149.329 31.8327C149.431 31.6091 149.525 31.4068 149.67 31.2064C152.464 27.3234 159.685 23.2421 164.272 22.314C167.598 21.1395 170.998 20.2437 174.483 19.6848C176.626 19.122 178.417 18.1481 180.367 17.1307L181.574 16.4734Z" fill="#640503"/>
<path d="M153.556 162.695C156.493 163.225 159.417 163.831 162.361 164.318C176.505 166.66 190.237 165.486 202.25 156.906C201.696 159.42 201.569 162.093 201.145 164.645C192.99 166.537 184.253 168.398 175.854 168.168C170.274 168.015 164.687 166.704 159.105 167.453C145.404 169.293 136.07 179.571 123.994 185.137C121.856 186.122 119.56 186.931 117.273 187.492C115.707 187.877 113.249 187.951 111.879 188.679C110.925 188.149 110.048 186.778 109.361 185.931C120.029 183.272 131.884 178.897 140.771 172.31C144.622 169.455 149.166 164.397 153.556 162.695Z" fill="#7C0104"/>
<path d="M227.752 157.641C230.541 160.455 232.329 163.93 232.963 167.837C226.167 168.001 216.85 168.89 211.897 174.085C209.047 177.075 206.837 180.647 204.193 183.815C196.449 193.091 186.276 197.574 174.537 199.362C174.173 199.055 173.838 198.779 173.559 198.387C173.672 197.983 173.758 197.914 174.166 197.739C175.21 197.289 176.486 197.071 177.578 196.69C180.904 195.531 184.101 194.041 187.061 192.124C193.555 187.915 200.07 181.332 202.994 174.059C203.983 171.599 204.491 168.985 205.052 166.404C212.767 164.311 220.593 161.215 227.752 157.641Z" fill="#7C0104"/>
<path d="M40.8022 136.389C38.9189 134.791 37.1004 133.166 35.4517 131.32C30.3196 125.57 26.0036 117.904 26.4948 109.95C26.5825 108.529 27.4205 102.327 28.2803 101.57C30.2677 114.077 36.379 124.527 46.6459 132.028C59.2236 141.217 73.9821 143.906 88.7107 147.783C90.622 148.286 96.5773 150.317 97.9293 150.262C99.0145 150.537 104.338 154.521 105.492 155.441C100.053 154.655 93.3084 151.417 88.047 151.908C85.4254 150.75 81.48 150.117 78.6296 149.17C74.8646 147.92 58.611 141.322 56.3673 141.428L55.8463 142.423C55.8172 141.249 55.9331 140.11 55.8361 138.932L55.6718 138.819C55.2077 139.144 54.7736 139.564 54.1783 139.532C47.4972 136.17 41.9333 131.695 37.5199 125.615C36.8248 124.658 36.2999 123.604 35.6406 122.623L35.3313 122.655L35.3015 123.097C37.9903 128.915 42.7853 133.012 47.7908 136.749C48.2199 136.989 48.6509 137.361 49.0537 137.65C46.4705 137.778 43.9106 138.15 41.3743 138.646C39.6811 138.977 37.8984 139.483 36.175 139.568C29.7124 139.884 16.0746 135.924 10.2828 133.166C7.44228 131.813 4.87975 129.698 1.94998 128.601L1.1126 128.99L0.285156 127.796C7.04398 128.201 15.2769 132.146 21.9277 134.077C28.0493 135.854 34.4599 136.25 40.8022 136.389Z" fill="#7C0104"/>
<path d="M55.8457 142.418L56.3667 141.423C58.6104 141.317 74.864 147.916 78.629 149.166C81.4794 150.113 85.4248 150.745 88.0464 151.903C93.3078 151.413 100.053 154.65 105.491 155.436C107.33 155.953 109.115 156.633 110.947 157.169C114.185 158.116 117.547 158.787 120.888 159.254C131.024 160.673 141.397 160.313 151.457 162.135C150.228 162.962 148.657 164.283 147.273 164.745C144.967 166.214 139.518 170.193 137.208 170.902C135.224 170.344 132.431 170.476 130.335 170.312C125.164 169.909 120.041 169.454 115.001 168.154C109.056 166.619 103.479 164.412 98.0532 161.544C93.1832 158.971 88.4955 156.063 83.4256 153.881C76.5756 150.932 69.2585 149.184 62.3558 146.328C60.0906 145.392 57.9012 144.51 55.8725 143.104L55.8457 142.418Z" fill="#B3041B"/>
<path d="M88.0469 151.902C93.3083 151.411 100.053 154.649 105.491 155.435C107.33 155.951 109.115 156.632 110.947 157.168C114.186 158.115 117.548 158.786 120.889 159.253C131.025 160.672 141.398 160.311 151.457 162.134C150.228 162.961 148.657 164.282 147.274 164.744C145.007 163.612 125.75 162.157 121.505 161.523C114.67 160.501 107.999 158.847 101.444 156.656C96.95 155.154 92.5522 153.376 88.0469 151.902Z" fill="#990113"/>
<path d="M27.6876 93.8721L27.886 93.7656C27.8475 96.383 28.1084 98.959 28.2802 101.567C27.4204 102.323 26.5823 108.525 26.4947 109.947C26.0035 117.9 30.3195 125.566 35.4516 131.316C37.1003 133.163 38.9188 134.788 40.8021 136.385C34.4598 136.246 28.0492 135.85 21.9277 134.073C15.2769 132.142 7.04398 128.197 0.285153 127.792L0 127.226L0.209224 126.885C2.71958 124.693 5.2805 122.382 7.40412 119.81C12.2094 113.99 15.844 107.264 20.6656 101.429C22.5685 98.6522 25.3081 96.2534 27.6876 93.8721Z" fill="#BA0214"/>
<path d="M20.6653 101.43C20.8559 101.937 20.9212 102.124 20.7015 102.635C19.8304 104.662 18.0056 106.642 16.7321 108.479C12.3259 114.832 8.38432 121.564 2.7007 126.919C1.87732 126.914 1.02838 126.954 0.208984 126.885C2.71934 124.694 5.28026 122.382 7.40388 119.81C12.209 113.99 15.8436 107.264 20.6653 101.43Z" fill="#7C0104"/>
<path d="M21.7745 103.758C21.754 104.213 17.8004 113.721 17.2687 115.385C15.9638 119.467 16.2565 122.43 18.2128 126.26C14.7884 125.417 11.3577 125.916 7.91077 126.311C6.99036 126.492 6.03671 126.55 5.10352 126.644C10.147 121.951 13.5381 118.089 16.9559 112.092C18.5036 109.375 19.8309 106.541 21.6247 103.969L21.7745 103.758Z" fill="#EF3D56"/>
<path d="M244.683 52.9922C248.646 53.6893 252.598 55.6998 256.301 57.2386C263.822 60.3636 273.188 63.1243 281.406 62.87C277.846 64.9982 277.152 67.186 274.712 70.1821C267.921 78.5217 262.262 83.4844 252.362 88.0306C249.956 85.3182 242.653 77.9052 239.056 77.7248C238.929 77.7186 238.803 77.7496 238.677 77.7621L238.209 77.9637C238.763 75.9413 240.15 73.9322 240.987 71.9782C243.772 65.4803 244.688 59.9868 244.683 52.9922Z" fill="#BA0214"/>
<path d="M256.352 61.8438C262.907 63.5734 270.055 64.3259 276.83 64.5223C275.669 65.3915 274.526 66.1959 273.261 66.9062C269.335 68.7329 265.636 69.4344 261.378 69.9911C259.887 67.0976 258.329 64.4347 256.352 61.8438Z" fill="#EF3D56"/>
<path d="M232.962 167.836C233.472 171.382 233.507 174.747 232.731 178.262C230.01 190.579 217.422 200.975 220.6 214.351C208.394 212.877 182.973 208.33 174.537 199.36C186.276 197.573 196.449 193.089 204.192 183.813C206.837 180.645 209.046 177.073 211.896 174.084C216.849 168.888 226.167 168 232.962 167.836Z" fill="#BA0214"/>
<path d="M219.856 182.859C220.136 182.969 220.198 183.032 220.344 183.312C220.693 183.982 220.779 185.041 220.865 185.795C221.48 191.168 218.368 194.936 216.528 199.675C215.442 202.47 214.73 205.353 214.068 208.27C211.301 207.058 208.578 205.836 205.96 204.322C204.613 203.539 203.254 202.54 202.272 201.324C201.318 200.144 200.914 198.942 201.092 197.426C201.742 191.867 209.335 194.301 212.694 192.59C216.118 190.845 216.329 185.696 219.856 182.859Z" fill="#EF3D56"/>
<path d="M55.8743 143.109C57.903 144.516 60.0924 145.397 62.3577 146.334C69.2603 149.19 76.5774 150.938 83.4274 153.887C88.4973 156.069 93.1851 158.976 98.055 161.55C103.481 164.418 109.057 166.625 115.003 168.159C120.043 169.46 125.166 169.914 130.337 170.318C132.433 170.481 135.226 170.35 137.209 170.908C134.239 173.027 130.82 174.634 127.501 176.132C119.084 179.929 109.883 183.366 100.503 182.913C87.559 182.289 72.7958 177.107 64.0213 167.283C57.9302 160.463 55.3899 152.179 55.8743 143.109Z" fill="#F01539"/>
<path d="M60.0703 150.266C61.6534 151.206 63.0668 152.755 64.4735 153.954C66.1332 155.368 67.9325 156.657 69.7438 157.869C80.0202 164.745 91.9975 171.197 104.307 173.271C106.541 173.647 108.838 174.017 111.098 174.162C112.574 174.257 114.103 174.078 115.56 174.301L115.204 174.335C107.995 176.09 98.0332 175.423 90.8111 173.739C76.4736 170.397 67.7077 162.493 60.0703 150.266Z" fill="#F85F7C"/>
<path d="M111.881 188.674C113.251 187.947 115.709 187.873 117.275 187.488C119.562 186.926 121.858 186.118 123.996 185.132C136.072 179.567 145.406 169.288 159.107 167.449C164.689 166.7 170.276 168.01 175.856 168.163C184.255 168.393 192.992 166.533 201.147 164.641C198.687 175.55 193.852 184.296 184.171 190.418C169.602 199.63 146.295 201.121 129.721 197.267C123.036 195.712 117.048 193.29 111.881 188.674Z" fill="#BA0214"/>
<path d="M186.713 175.93L186.799 176.119C182.946 182.412 176.169 186.527 169.46 189.165C162.513 191.898 147.259 194.53 140.163 191.454C139.909 191.182 139.653 190.923 139.483 190.587C139.144 189.916 139.071 189.113 139.338 188.404C140.171 186.189 143.394 184.424 145.343 183.309C151.621 179.717 159.286 177.223 166.573 177.227C173.575 177.232 180.011 179.017 186.713 175.93Z" fill="#F01539"/>
<path d="M238.208 77.9672L238.675 77.7656L238.911 77.9644C240.74 79.4831 242.931 80.5209 244.731 82.1213C251.592 88.2184 255.862 97.4263 257.101 106.426C258.512 117.166 255.221 128.044 248.672 136.605C240.699 147.029 229.435 155.549 216.118 157.298C211.617 157.89 207.236 157.289 202.777 156.681C209.709 151.359 214.277 144.005 216.924 135.734C217.622 133.554 217.844 131.11 218.628 128.995C221.268 129.045 223.723 128.788 226.082 127.504C230.304 125.206 233.184 120.341 234.453 115.832C235.618 111.691 235.452 106.724 233.292 102.919C231.531 99.8162 228.44 98.1769 224.964 97.8409C223.767 97.7254 222.586 97.8378 221.413 97.5156L221.124 97.2382C226.681 93.0936 230.854 88.2589 235.211 82.9356C236.351 81.3657 237.157 79.5943 238.208 77.9672Z" fill="#BA0214"/>
<path d="M238.209 77.9672L238.676 77.7656L238.911 77.9644C240.741 79.4831 242.932 80.5209 244.732 82.1213C251.593 88.2184 255.863 97.4263 257.102 106.426C256.244 108.238 256.171 110.69 255.683 112.656C255.065 115.145 254.25 117.623 253.403 120.043C249.752 130.473 243.346 138.468 233.31 143.283C230.794 144.49 226.498 146.052 223.732 144.964C223.089 144.71 222.583 144.272 222.318 143.625C221.829 142.433 222.234 140.926 222.63 139.757C225.036 132.638 230.201 131.131 234.957 126.177C237.821 123.193 240.157 119.707 241.698 115.859C244.929 107.793 243.028 98.1913 239.322 90.5664C238.06 87.9719 236.349 85.5856 235.212 82.9353C236.352 81.3657 237.158 79.5943 238.209 77.9672Z" fill="#F00B25"/>
<path d="M239.885 85.9844C240.408 86.085 240.865 86.325 241.319 86.5946C246.499 89.6674 250.888 93.9173 252.404 99.9064C254.124 106.697 252.344 113.163 248.823 119.023L246.695 122.118C248.037 117.01 249.01 112.04 248.884 106.721C248.696 98.8265 245.623 91.4154 239.885 85.9844Z" fill="#EF3D56"/>
<path d="M221.124 97.2344L221.413 97.5118C222.586 97.8339 223.767 97.7216 224.964 97.8371C228.44 98.1731 231.531 99.8123 233.292 102.915C235.451 106.72 235.618 111.687 234.453 115.828C233.183 120.338 230.304 125.202 226.082 127.5C223.723 128.784 221.268 129.041 218.628 128.991C219.896 122.141 220.769 112.308 219.756 105.502C219.723 105.588 219.688 105.673 219.657 105.759C219.227 106.947 218.799 114.737 218.505 116.741C216.028 133.594 209.839 150.151 193.713 158.339C178.734 165.943 164.447 161.853 148.933 159.721C145.338 159.227 141.738 158.759 138.124 158.415C135.749 158.189 133.308 158.107 130.951 157.762C126.847 158.154 114.603 155.516 111.045 153.631C114.344 153.498 117.488 153.186 120.67 152.255C129.878 149.563 138.655 143.166 143.273 134.685C149.001 135.642 154.441 136.713 159.908 138.748C154.595 135.354 145.851 131.725 139.743 130.427C141.659 124.508 147.649 120.3 152.409 116.757C153.11 117.918 153.655 119.236 154.521 120.283C157.207 123.53 163.286 125.273 167.184 126.251C171.604 127.36 176.302 127.685 180.354 125.233C182.283 124.066 184.527 121.698 186.697 121.231C186.264 122.378 185.788 123.528 185.412 124.695C185.518 124.928 185.628 125 185.534 125.251C184.955 126.803 181.819 130.886 181.995 132.127L182.199 132.484C196.163 127.227 209.64 117.127 217.474 104.303C217.588 103.717 217.983 103.063 218.232 102.516C218.652 100.957 219.3 99.4747 219.705 97.8905L221.124 97.2344Z" fill="#B3041B"/>
<path d="M185.412 124.695C185.519 124.928 185.628 125 185.534 125.251C184.956 126.803 181.82 130.886 181.995 132.127L182.199 132.484C179.51 133.594 176.649 134.98 173.816 135.665C173.93 135.013 176.842 133.924 177.526 133.593C182.365 131.255 182.861 128.893 185.412 124.695Z" fill="#7C0104"/>
<path d="M218.233 102.523C218.397 104.316 217.149 108.635 216.603 110.463C213.355 121.331 208.981 132.064 201.648 140.868C195.853 147.824 188.661 152.828 179.47 153.606C175.135 153.973 170.738 153.636 166.4 153.442C161.917 153.241 157.445 153.159 152.96 153.393C150.711 153.51 148.475 153.688 146.247 154.031C143.347 154.479 139.204 155.673 136.38 155.381C136.093 155.351 135.846 155.385 135.564 155.439C136.613 154.995 137.623 154.438 138.725 154.14C141.976 152.208 145.044 149.965 148.269 147.986C152.22 145.561 156.406 143.423 160.556 141.362C164.717 139.295 169.562 137.835 173.504 135.835L173.818 135.673C176.651 134.987 179.512 133.601 182.2 132.492C196.165 127.235 209.642 117.135 217.476 104.311C217.59 103.725 217.984 103.071 218.233 102.523Z" fill="#F01539"/>
<path d="M217.474 104.305C217.486 107.106 212.161 115.289 210.371 117.667C208.77 119.794 206.976 121.827 205.106 123.722C201.526 127.348 197.348 130.343 192.859 132.742C186.319 136.236 179.009 138.477 172.154 141.278L158.773 146.763C154.83 148.414 142.752 153.953 139.143 154.173C138.953 154.184 138.89 154.165 138.723 154.134C141.973 152.202 145.042 149.959 148.267 147.98C152.217 145.555 156.404 143.417 160.554 141.356C164.715 139.289 169.56 137.829 173.502 135.829L173.816 135.667C176.649 134.982 179.509 133.596 182.198 132.486C196.162 127.229 209.64 117.129 217.474 104.305Z" fill="#F85F7C"/>
<path d="M181.575 16.4734C184.358 15.4932 187.138 14.5054 190.045 13.9503C200.92 11.8731 212.889 14.0518 222.782 18.8363C227.632 21.1821 231.532 24.1735 235.025 28.2855C235.891 29.3055 236.616 30.4859 237.5 31.4746C238.445 33.2569 239.604 34.9383 240.481 36.754C242.893 41.7517 243.424 47.7277 243.154 53.1947L243.193 54.7427C243.281 54.3152 243.3 53.6339 243.481 53.2512C243.737 52.7081 244.227 52.6303 244.738 52.4205L244.684 52.9886C244.689 59.9832 243.773 65.4768 240.987 71.9747C240.15 73.9288 238.764 75.9378 238.209 77.9603C237.159 79.5874 236.353 81.3587 235.213 82.9284C230.856 88.2518 226.683 93.0865 221.126 97.2311L219.707 97.8873C219.301 99.4716 218.654 100.954 218.233 102.513C217.985 103.06 217.59 103.714 217.476 104.3C209.642 117.124 196.165 127.224 182.2 132.481L181.997 132.124C181.821 130.883 184.957 126.8 185.536 125.248C185.63 124.997 185.52 124.925 185.413 124.692C185.79 123.525 186.266 122.375 186.699 121.227C184.529 121.695 182.285 124.063 180.356 125.23C176.304 127.682 171.606 127.357 167.186 126.247C163.288 125.269 157.209 123.526 154.523 120.28C153.657 119.233 153.112 117.915 152.411 116.754C147.651 120.297 141.661 124.505 139.745 130.424L139.487 130.445C139.263 129.199 139.17 127.899 139.404 126.648C141.008 118.093 156.095 109.788 162.849 105.27C164.902 103.885 167.035 102.529 168.954 100.962L171.62 98.914C171.587 98.3254 171.594 97.7278 171.583 97.1376C174.082 94.5977 176.692 90.4692 177.764 87.0656C180.917 79.7342 181.567 71.0202 180.448 63.1789C178.483 54.1917 172.767 44.1548 165.38 38.5272C163.436 36.3802 160.011 34.8525 157.427 33.6815C154.717 32.7715 152.184 32.0807 149.329 31.8324C149.431 31.6087 149.525 31.4064 149.67 31.206C152.464 27.3231 159.685 23.2417 164.272 22.3136C167.598 21.1391 170.997 20.2433 174.482 19.6844C176.626 19.1216 178.416 18.1477 180.367 17.1303L181.575 16.4734Z" fill="#F85F7C"/>
<path d="M207.921 30.3707C208.352 30.2363 208.341 30.2088 208.745 30.4202C210.305 31.2367 211.7 32.7404 212.891 34.0104C218.217 39.6851 221.902 46.2494 224.09 53.7186C228.314 68.1333 223.609 85.7837 216.597 98.644C220.245 96.0754 223.087 92.7005 225.839 89.2314C226.271 88.6867 227.049 87.9088 227.251 87.2605C234.708 77.2222 240.76 67.201 243.192 54.7438C243.279 54.3163 243.298 53.635 243.479 53.2523C243.736 52.7092 244.226 52.6314 244.737 52.4216L244.682 52.9897C244.687 59.9843 243.771 65.4779 240.986 71.9758C240.149 73.9299 238.762 75.9389 238.208 77.9613C237.157 79.5885 236.352 81.3598 235.211 82.9295C230.854 88.2529 226.682 93.0876 221.124 97.2322L219.706 97.8884C218.674 98.4652 216.771 99.1033 215.966 99.866C214.45 101.301 213.203 103.296 211.898 104.94C208.815 108.826 205.16 112.312 201.065 115.12C200.337 115.619 198.444 116.859 197.606 116.487C197.506 116.443 197.424 116.365 197.334 116.303C200.384 113.909 203.232 111.365 205.859 108.51C217.029 96.3701 224.498 79.1683 223.762 62.5136C223.169 49.0647 217.667 39.3106 207.921 30.3707Z" fill="#640503"/>
<path d="M171.268 21.5289C179.848 21.2946 188.06 21.6 196.04 25.1085C207.018 29.9352 213.334 38.7908 217.598 49.6867C221.353 59.2829 222.597 69.1769 218.36 78.8808C217.948 79.7252 217.382 80.5149 216.876 81.3063L217.2 80.2269C220.256 69.8127 215.323 55.7528 210.178 46.4636C203.12 33.7239 192.632 27.0115 178.951 23.1525C176.544 22.4735 173.975 22.343 171.605 21.6331L171.268 21.5289Z" fill="#FDAABF"/>
<path d="M195.709 23.1063C199.266 22.9197 209.548 28.2993 212.768 30.2549C214.82 31.5016 216.82 32.9465 218.603 34.5555C226.825 41.974 230.531 54.6159 230.998 65.3715C231.214 70.3685 230.532 75.5449 229.274 80.3808C228.868 81.9407 227.071 85.9164 227.25 87.2578C227.049 87.9061 226.27 88.6842 225.838 89.2287C223.087 92.6979 220.244 96.0729 216.597 98.6414C223.609 85.7811 228.314 68.1307 224.09 53.716C221.901 46.2467 218.217 39.6825 212.891 34.0077C211.7 32.7378 210.305 31.234 208.744 30.4175C208.34 30.2061 208.352 30.2337 207.921 30.368C206.748 29.924 204.092 27.6281 202.837 26.8061C200.568 25.3205 198.186 24.1877 195.709 23.1063Z" fill="#990113"/>
<path d="M191.402 21.5577C193.153 21.4996 195.126 22.303 196.882 22.5663C208.478 24.3035 217.266 26.5601 226.137 34.8243C229.867 38.299 233.842 42.9634 236.062 47.5898C237.3 50.1702 238.073 52.9683 239.283 55.5498C239.556 56.1314 240.004 57.2413 240.665 57.3796C241.884 56.4307 242.514 54.5662 243.153 53.1996L243.193 54.7477C240.76 67.2048 234.709 77.2261 227.251 87.2643C227.072 85.9229 228.869 81.9472 229.275 80.3872C230.533 75.5514 231.215 70.375 230.999 65.378C230.532 54.6223 226.826 41.9805 218.604 34.562C216.821 32.9529 214.821 31.5081 212.769 30.2614C209.549 28.3058 199.267 22.9262 195.71 23.1128C194.283 22.7565 192.826 22.0194 191.402 21.5577Z" fill="#F00B25"/>
<path d="M181.573 16.4734C184.356 15.4932 187.136 14.5054 190.043 13.9503C200.918 11.8731 212.888 14.0518 222.78 18.8363C227.63 21.1821 231.53 24.1735 235.023 28.2855C235.889 29.3055 236.614 30.4859 237.498 31.4746C238.443 33.2569 239.602 34.9383 240.479 36.7539C242.891 41.7517 243.422 47.7277 243.152 53.1946C242.513 54.5613 241.883 56.4258 240.664 57.3747C240.003 57.2363 239.555 56.1263 239.282 55.5448C238.072 52.9633 237.299 50.1652 236.061 47.5849C233.841 42.9585 229.866 38.294 226.136 34.8193C217.265 26.5552 208.476 24.2985 196.881 22.5614C195.125 22.2981 193.152 21.4946 191.401 21.5527C189.362 21.5319 186.74 20.425 184.595 20.1441C181.295 19.7122 177.815 19.8741 174.48 19.6847C176.624 19.1219 178.415 18.148 180.365 17.1306L181.573 16.4734Z" fill="#EF3D56"/>
<path d="M198.487 16.0165C206.259 14.9215 215.586 17.5365 222.275 21.4197C230.808 26.3734 235.59 33.5393 238.059 42.9853C237.012 40.9374 235.837 38.9908 234.589 37.0619C226.294 24.4759 214.91 19.2672 200.313 17.8073C197.529 17.529 191.401 17.4313 189.066 16.6858C192.186 16.3553 195.35 16.3378 198.487 16.0165Z" fill="#FD8FA8"/>
<path d="M164.272 22.3177C164.361 22.3275 164.452 22.3401 164.541 22.3475C165.101 22.3954 165.606 22.0449 166.11 22.0807C166.046 22.1074 165.981 22.133 165.917 22.16C163.911 23.0166 162.15 24.6336 161.122 26.5471C163.183 27.0029 165.243 27.4599 167.323 27.8238C168.992 28.1154 170.77 28.2682 172.389 28.7578C173.195 29.0018 174.285 29.4529 174.789 30.1704C175.162 30.7005 175.159 31.2938 175.024 31.9052C174.529 34.148 170.664 36.7324 172.065 39.0476C173.359 41.184 177.217 42.0814 179.498 42.5313C182.509 43.125 189.404 43.173 191.322 45.9062C194.144 49.9294 186.954 56.2309 197.029 58.3865C200.389 59.1052 204.378 58.8274 206.507 62.0125C210.845 68.5014 210.58 81.0956 208.991 88.4312C207.394 95.8077 204.215 102.124 199.812 108.19C198.827 109.549 197.838 111.07 196.632 112.236C194.754 115.368 192.086 118.507 189.406 120.961C192.175 119.61 194.751 117.977 197.335 116.307C197.426 116.368 197.507 116.446 197.607 116.49C198.446 116.862 200.338 115.622 201.067 115.123C205.162 112.315 208.816 108.829 211.899 104.943C213.205 103.299 214.451 101.304 215.967 99.8691C216.773 99.1064 218.676 98.4683 219.707 97.8914C219.301 99.4757 218.654 100.958 218.233 102.517C217.985 103.064 217.59 103.718 217.476 104.304C209.642 117.128 196.165 127.228 182.2 132.485L181.997 132.128C181.821 130.887 184.957 126.804 185.536 125.252C185.63 125.001 185.52 124.929 185.413 124.696C185.79 123.529 186.266 122.379 186.699 121.232C184.529 121.699 182.285 124.067 180.356 125.234C176.304 127.686 171.606 127.361 167.186 126.252C163.288 125.274 157.209 123.531 154.523 120.284C153.657 119.237 153.112 117.919 152.411 116.758C147.651 120.301 141.661 124.509 139.745 130.428L139.487 130.449C139.263 129.203 139.17 127.903 139.404 126.652C141.008 118.098 156.095 109.792 162.849 105.274C164.902 103.889 167.035 102.533 168.954 100.966L171.62 98.9182C171.587 98.3296 171.594 97.7319 171.583 97.1417C174.082 94.6018 176.692 90.4733 177.764 87.0697C180.917 79.7384 181.567 71.0244 180.448 63.183C178.483 54.1959 172.767 44.1589 165.379 38.5313C163.436 36.3843 160.011 34.8567 157.427 33.6857C154.717 32.7757 152.184 32.0848 149.329 31.8365C149.431 31.6129 149.525 31.4106 149.67 31.2101C152.464 27.3271 159.685 23.2458 164.272 22.3177Z" fill="#F01539"/>
<path d="M157.424 33.6844C157.985 33.4817 158.912 34.0338 159.464 34.2938C162.152 35.5638 164.622 37.1712 166.842 39.152C170.249 42.1913 172.612 45.7859 175.61 49.1423C177.78 51.5718 180.637 53.3911 182.883 55.8158C185.263 58.3864 186.692 61.4517 188.747 64.2324C192.446 69.2352 197.014 72.858 199.156 78.9626C202.107 87.3741 201.586 97.3542 199.07 105.817C198.438 107.944 197.01 110.092 196.629 112.235C194.752 115.367 192.083 118.506 189.403 120.959C192.173 119.609 194.748 117.976 197.333 116.305C197.423 116.366 197.504 116.444 197.605 116.489C198.443 116.861 200.335 115.621 201.064 115.122C205.159 112.314 208.813 108.827 211.897 104.942C213.202 103.297 214.448 101.303 215.965 99.8677C216.77 99.105 218.673 98.4669 219.705 97.8901C219.299 99.4744 218.651 100.957 218.231 102.516C217.982 103.063 217.587 103.717 217.473 104.303C209.639 117.127 196.162 127.227 182.198 132.484L181.994 132.127C181.819 130.886 184.954 126.803 185.533 125.251C185.627 125 185.517 124.928 185.411 124.695C185.787 123.528 186.263 122.378 186.696 121.23C186.976 119.44 188.304 116.869 188.823 114.953C190.604 108.374 192.151 95.6206 190.079 89.1855C191.07 86.9085 191.757 84.7395 191.735 82.2279C191.685 76.4892 187.518 72.203 183.642 68.4407C182.194 67.3932 181.592 64.6324 180.445 63.1817C178.481 54.1946 172.764 44.1576 165.377 38.53C163.433 36.3831 160.008 34.8553 157.424 33.6844Z" fill="#990113"/>
<path d="M180.448 63.1875C181.595 64.6382 182.197 67.399 183.645 68.4465C187.52 72.2088 191.687 76.4949 191.738 82.2337C191.76 84.7453 191.073 86.9143 190.081 89.1913C192.153 95.6264 190.607 108.38 188.826 114.959C188.307 116.875 186.978 119.446 186.699 121.236C184.529 121.704 182.285 124.072 180.356 125.239C176.304 127.691 171.606 127.365 167.186 126.256C163.288 125.278 157.209 123.535 154.523 120.288C153.657 119.242 153.112 117.923 152.411 116.763C147.651 120.305 141.661 124.514 139.745 130.432L139.487 130.453C139.263 129.207 139.17 127.907 139.404 126.656C141.008 118.102 156.095 109.797 162.849 105.278C164.902 103.894 167.035 102.538 168.954 100.971L171.62 98.9226C171.587 98.334 171.594 97.7364 171.583 97.1462C174.082 94.6063 176.692 90.4778 177.764 87.0742C180.917 79.7428 181.567 71.0288 180.448 63.1875Z" fill="#F01539"/>
<path d="M185.535 95.4862C187.33 93.5358 188.742 91.4728 190.079 89.1875C192.15 95.6225 190.604 108.376 188.823 114.955C188.304 116.871 186.976 119.442 186.696 121.232C184.526 121.7 182.282 124.068 180.353 125.235C176.301 127.687 171.603 127.362 167.183 126.252C163.285 125.274 157.206 123.531 154.52 120.284C153.654 119.238 153.109 117.919 152.408 116.759C154.389 115.322 156.437 114.022 158.558 112.801C158.558 114.284 157.936 115.886 157.798 117.413C158.182 118.016 158.593 118.595 159.114 119.09C161.353 121.215 165.134 121.888 168.138 121.839C172.355 121.771 176.225 120.142 179.159 117.102C184.574 111.488 185.646 102.945 185.535 95.4862Z" fill="#F00B25"/>
<path d="M180.448 63.1875C181.595 64.6382 182.197 67.399 183.645 68.4465C187.52 72.2088 191.687 76.4949 191.738 82.2337C191.76 84.7453 191.073 86.9143 190.081 89.1913C188.745 91.4767 187.333 93.5395 185.538 95.4901C180.01 101.034 172.982 104.886 166.127 108.547C164.208 109.572 160.007 111.401 158.561 112.805C156.44 114.026 154.392 115.326 152.411 116.763C147.651 120.305 141.661 124.514 139.745 130.432L139.487 130.453C139.263 129.208 139.17 127.907 139.404 126.656C141.008 118.102 156.095 109.797 162.849 105.278C164.902 103.894 167.035 102.538 168.954 100.971L171.62 98.9227C171.587 98.3341 171.594 97.7365 171.583 97.1463C174.082 94.6064 176.692 90.4779 177.764 87.0743C180.917 79.7428 181.567 71.0288 180.448 63.1875Z" fill="#FD8FA8"/>
<path d="M180.445 63.1875C181.592 64.6382 182.194 67.399 183.642 68.4465L183.718 68.6005C184.236 69.6386 184.905 70.5793 185.407 71.6289C187.08 75.1244 187.477 79.1181 186.265 82.8301C184.029 89.6765 177.187 94.7729 171.618 98.9226C171.584 98.334 171.591 97.7364 171.58 97.1462C174.079 94.6063 176.689 90.4778 177.761 87.0742C180.914 79.7428 181.564 71.0288 180.445 63.1875Z" fill="#BA0214"/>
<path d="M149.328 31.8359C152.183 32.0843 154.716 32.775 157.425 33.6851C160.01 34.856 163.434 36.3838 165.378 38.5308C172.765 44.1583 178.482 54.1954 180.447 63.1825C181.565 71.0238 180.916 79.7378 177.762 87.0691C176.69 90.4727 174.081 94.6013 171.582 97.1411C171.592 97.7313 171.586 98.329 171.619 98.9176L168.952 100.966C167.034 102.533 164.901 103.889 162.848 105.273C156.094 109.792 141.006 118.097 139.403 126.651C139.169 127.902 139.262 129.202 139.486 130.448L139.744 130.427C145.852 131.726 154.595 135.354 159.908 138.748C154.441 136.713 149.002 135.643 143.274 134.686C138.655 143.167 129.879 149.563 120.671 152.256C117.489 153.187 114.345 153.499 111.046 153.632C108.219 152.954 105.165 151.237 102.751 149.649C99.7654 147.686 97.1764 145.223 94.8361 142.533C87.5167 134.122 85.6797 126.214 83.4702 115.696C83.1818 115.29 82.7744 114.904 82.4384 114.531C80.807 118.094 83.8538 129.585 85.2805 133.427C86.0876 135.6 87.0974 137.48 88.2817 139.466C88.8374 140.397 89.5701 141.39 89.9964 142.379C90.6015 143.207 91.3269 144.048 91.8138 144.947C93.7458 146.807 95.7309 148.716 97.9298 150.26C96.5777 150.315 90.6224 148.284 88.7112 147.781C73.9826 143.904 59.2241 141.215 46.6464 132.025C36.3794 124.524 30.2682 114.074 28.2808 101.568C28.109 98.9606 27.8481 96.3845 27.8866 93.7672C27.8313 88.3967 29.2273 83.068 31.3087 78.1553C37.6019 63.2985 47.3902 54.4733 62.1495 48.5188L64.0592 47.8842C69.7433 46.2001 75.5882 45.3184 81.4951 46.1364C84.2959 46.3714 87.1226 47.0174 89.8802 47.5573C92.2909 44.5593 95.3356 42.0052 98.4853 39.8232C102.978 37.1364 107.885 35.8118 113.108 35.8063L113.053 36.0095C113.519 35.9989 114.976 35.8224 115.295 36.127L114.656 36.4142L114.731 36.6417C115.222 36.8009 115.482 36.793 115.974 36.8139C116.099 36.819 116.278 36.8657 116.404 36.8952C118.703 37.0092 121.569 37.2284 123.81 36.7998L123.877 36.3895C127.33 36.5333 130.239 38.2575 133.492 39.0823C133.573 38.9873 133.651 38.8906 133.733 38.7971C137.377 34.623 143.903 32.1118 149.328 31.8359Z" fill="#B3041B"/>
<path d="M113.553 55.4348C114.029 54.6022 114.787 53.8883 115.491 53.2427C120.346 48.7891 128.334 47.6603 134.649 47.959C132.742 49.0042 129.958 49.4018 127.864 50.0289C124.341 51.0839 120.659 52.4345 117.328 53.9787C116.526 54.35 114.572 55.7563 113.787 55.6384L113.553 55.4348Z" fill="#EF3D56"/>
<path d="M82.3206 89.5469C84.0385 97.2166 86.9171 104.589 91.5128 111.026C92.5273 112.446 94.9482 114.528 95.6005 115.872C92.841 114.734 90.1168 112.626 87.872 110.682C83.5069 106.903 79.7953 102.554 79.3477 96.6197C80.139 94.1933 81.4272 91.9406 82.3206 89.5469Z" fill="#F01539"/>
<path d="M77.7523 101.523C77.755 102.234 77.6226 103.27 77.9648 103.897C78.4779 108.02 79.8411 111.274 82.4391 114.529C80.8077 118.091 83.8544 129.583 85.2812 133.425C86.0883 135.598 87.098 137.478 88.2824 139.464C88.838 140.395 89.5708 141.388 89.9971 142.377C89.6659 142.362 89.4207 142.378 89.1315 142.197C88.0467 141.518 87.0431 140.181 86.1814 139.22C82.0973 134.662 79.1801 130.392 77.4544 124.451C75.3495 117.204 73.9785 108.435 77.7523 101.523Z" fill="#990113"/>
<path d="M97.839 81.0004C99.0229 80.198 99.7329 78.3226 100.373 77.0703C100.426 77.7835 100.408 79.0204 100.818 79.6157L101.078 81.2754C100.948 89.6165 105.063 104.61 109.14 112.021C110.08 114.176 111.226 116.132 112.713 117.959C113.564 119.886 114.83 121.367 116.264 122.899C116.696 123.36 117.295 123.813 117.666 124.314C117.889 124.616 117.842 124.736 117.749 125.077C115.741 124.556 113.779 123.902 111.832 123.19C110.037 119.993 107.74 117.057 105.938 113.835C100.355 103.851 97.7023 92.4131 97.839 81.0004Z" fill="#640503"/>
<path d="M79.3471 96.6172C79.7946 102.552 83.5063 106.901 87.8714 110.68C90.1162 112.624 92.8404 114.732 95.6 115.87C100.512 118.983 106.319 121.395 111.832 123.189C113.779 123.901 115.742 124.555 117.75 125.076C122.934 126.795 128.576 127.581 133.901 128.827C135.666 129.24 137.916 129.55 139.485 130.445L139.743 130.424C145.851 131.722 154.594 135.351 159.907 138.745C154.44 136.71 149.001 135.639 143.272 134.682C141.687 134.48 140.108 134.202 138.529 133.953C122.799 132.139 105.23 129.754 91.3505 121.592C89.1512 120.299 87.185 118.769 85.2034 117.175L83.8485 115.861L83.469 115.693C83.1806 115.286 82.7732 114.901 82.4372 114.527C79.8391 111.273 78.476 108.018 77.9629 103.895C77.9963 102.832 78.0344 101.81 78.234 100.761C78.4783 99.3547 78.938 97.9834 79.3471 96.6172Z" fill="#FDAABF"/>
<path d="M78.2339 100.766C79.2579 103.357 79.0041 106.386 80.2571 109.152C81.0061 110.804 83.9577 114.32 83.8485 115.865L83.469 115.697C83.1806 115.29 82.7732 114.905 82.4372 114.532C79.8391 111.277 78.476 108.023 77.9629 103.9C77.9962 102.837 78.0343 101.815 78.2339 100.766Z" fill="#FD8FA8"/>
<path d="M149.326 31.8359C152.182 32.0843 154.714 32.775 157.424 33.6851C160.008 34.856 163.433 36.3838 165.377 38.5308C172.764 44.1583 178.481 54.1954 180.445 63.1825C181.564 71.0238 180.914 79.7378 177.761 87.0691C176.689 90.4727 174.079 94.6013 171.58 97.1411C171.603 94.5227 171.481 91.9033 171.37 89.2876C171.459 89.1666 171.548 89.0452 171.63 88.9198C174.483 84.5779 174.541 71.915 173.42 67.0112C171.571 58.9219 166.26 51.6566 159.225 47.2786C151.911 42.7265 143.266 42.5107 135.026 44.2385C133.163 44.6291 131.385 45.3725 129.533 45.7635C129.11 45.8527 128.982 45.9494 128.602 45.7081L128.851 45.3577C129.43 44.3093 130.232 43.3215 130.933 42.3467C131.871 41.351 132.667 40.1757 133.491 39.0821C133.571 38.9871 133.649 38.8904 133.731 38.7969C137.375 34.623 143.901 32.1118 149.326 31.8359Z" fill="#F01539"/>
<path d="M149.327 31.8359C152.183 32.0843 154.715 32.775 157.425 33.6851C160.009 34.856 163.434 36.3838 165.378 38.5308C165.398 38.6125 165.409 38.697 165.438 38.7756C165.607 39.2366 165.967 39.495 166.327 39.8043L166.341 40.1685C166.272 40.2043 166.203 40.2389 166.134 40.2754C165.411 40.6637 164.985 41.0443 164.478 41.6837C163.822 41.2542 163.118 40.6538 162.315 40.6063C155.189 36.9371 147.507 35.3374 139.668 37.8703C137.267 38.6464 134.774 39.9961 132.788 41.5513C131.834 42.2994 129.786 45.1035 128.852 45.3577C129.431 44.3093 130.233 43.3215 130.934 42.3467C131.872 41.351 132.668 40.1757 133.492 39.0821C133.572 38.9871 133.65 38.8904 133.732 38.7969C137.376 34.623 143.903 32.1118 149.327 31.8359Z" fill="#F85F7C"/>
<path d="M165.379 38.5312C172.766 44.1588 178.483 54.1959 180.448 63.183C181.566 71.0243 180.917 79.7383 177.763 87.0696C177.702 85.2221 178.123 83.1765 178.225 81.3053C178.486 76.5088 178.226 71.6204 177.418 66.8883C175.511 55.7334 171.772 47.3089 162.316 40.6067C163.119 40.6542 163.823 41.2546 164.479 41.6841C164.987 41.0447 165.413 40.6641 166.136 40.2758C166.204 40.2393 166.274 40.2047 166.342 40.1689L166.329 39.8047C165.968 39.4955 165.609 39.2369 165.439 38.776C165.41 38.6974 165.399 38.613 165.379 38.5312Z" fill="url(#paint2_linear_4691_32158)"/>
<path d="M83.4688 115.695L83.8483 115.863L85.2032 117.177C87.1847 118.772 89.151 120.302 91.3502 121.595C105.23 129.756 122.798 132.141 138.529 133.956C140.107 134.204 141.687 134.483 143.272 134.685C138.654 143.166 129.878 149.562 120.67 152.255C117.487 153.186 114.343 153.498 111.044 153.631C108.217 152.953 105.164 151.236 102.75 149.648C99.7641 147.685 97.1751 145.222 94.8349 142.532C87.5152 134.121 85.6782 126.213 83.4688 115.695Z" fill="#F01539"/>
<path d="M83.4688 115.695L83.8483 115.863L85.2032 117.177C86.0326 120.301 87.657 123.097 89.2303 125.893C93.1039 132.776 97.5514 140.221 104.545 144.33C110.16 147.63 117.141 148.643 123.444 146.93C129.116 145.389 134.574 141.527 137.475 136.358C137.899 135.602 138.305 134.798 138.529 133.956C140.107 134.204 141.687 134.483 143.272 134.685C138.654 143.166 129.877 149.562 120.669 152.255C117.487 153.186 114.343 153.498 111.044 153.631C108.217 152.953 105.164 151.236 102.75 149.648C99.7639 147.685 97.1749 145.222 94.8347 142.532C87.5152 134.121 85.6782 126.213 83.4688 115.695Z" fill="#BA0214"/>
<path d="M98.4848 39.8216C102.977 37.1348 107.885 35.8102 113.107 35.8047L113.052 36.0079C113.518 35.9973 114.975 35.8208 115.294 36.1253L114.655 36.4126L114.731 36.6401C115.221 36.7992 115.482 36.7914 115.973 36.8122C116.098 36.8173 116.277 36.8641 116.404 36.8935C118.703 37.0075 121.568 37.2268 123.81 36.7981L123.877 36.3879C127.33 36.5317 130.238 38.2559 133.492 39.0807C132.668 40.1742 131.872 41.3494 130.934 42.3452C120.963 42.2006 111.393 45.3142 104.179 52.3673C96.8459 59.536 94.2797 70.3192 94.194 80.2761C94.1241 88.4211 95.9752 97.602 99.1854 105.116C100.246 107.599 101.586 109.953 102.908 112.303C100.781 111.187 97.7119 109.493 96.4133 107.378C92.3626 103.992 88.0815 97.1135 86.032 92.2557C81.3687 81.2021 80.7314 68.1918 85.2906 57.0254C84.8159 54.9334 86.2528 53.612 86.915 51.7668L87.0065 51.5048C87.9503 50.1782 88.9111 48.8647 89.8797 47.5558C92.2902 44.5576 95.3351 42.0035 98.4848 39.8216Z" fill="#F01539"/>
<path d="M98.4846 39.8216C102.977 37.1348 107.885 35.8102 113.107 35.8047L113.052 36.0079C113.518 35.9973 114.975 35.8208 115.294 36.1253L114.655 36.4126L114.731 36.6401C115.221 36.7992 115.482 36.7914 115.973 36.8122C116.098 36.8173 116.277 36.8641 116.404 36.8935C106.897 38.0342 99.0088 43.1478 93.1464 50.6677C87.1848 58.3142 83.2465 68.1053 84.4925 77.9081C85.5263 86.041 89.135 94.7185 92.9256 101.921C93.8686 103.714 95.7598 105.528 96.4133 107.378C92.3626 103.992 88.0815 97.1134 86.032 92.2556C81.3687 81.202 80.7314 68.1917 85.2906 57.0253C84.8159 54.9333 86.2528 53.6119 86.915 51.7667L87.0065 51.5047C87.9503 50.1781 88.9111 48.8646 89.8797 47.5557C92.29 44.5576 95.3349 42.0035 98.4846 39.8216Z" fill="url(#paint3_linear_4691_32158)"/>
<path d="M98.4838 39.8216C102.976 37.1348 107.884 35.8102 113.106 35.8047L113.051 36.0079C105.689 36.0614 97.289 42.2201 92.3817 47.2252C89.492 50.1726 87.2507 53.4116 85.2897 57.0253C84.815 54.9333 86.2519 53.6119 86.9141 51.7667L87.0056 51.5047C87.9494 50.1781 88.9102 48.8646 89.8788 47.5557C92.2893 44.5576 95.3341 42.0035 98.4838 39.8216Z" fill="#EF3D56"/>
<path d="M64.0593 47.8851C69.7434 46.2009 75.5883 45.3192 81.4952 46.1373C84.296 46.3723 87.1227 47.0182 89.8803 47.5582C88.9117 48.867 87.951 50.1806 87.0071 51.5071C85.3891 52.3931 83.3356 58.1488 82.8039 59.9496C81.0797 65.7886 81.8031 72.9426 79.0259 78.2912C76.2808 83.5785 70.3806 85.1121 66.9247 89.6084C62.6453 95.1773 63.2591 112.363 64.4077 119C64.9228 121.978 65.7527 125.066 67.1986 127.737C68.3719 129.905 69.9024 131.733 71.5763 133.524C72.2526 134.248 73.2545 135.073 73.7484 135.921C79.596 140.072 85.4892 141.933 91.8138 144.948C93.7458 146.807 95.7309 148.716 97.9298 150.26C96.5777 150.316 90.6224 148.284 88.7113 147.781C73.9826 143.905 59.2241 141.215 46.6464 132.026C36.3794 124.525 30.2682 114.075 28.2808 101.569C28.109 98.9613 27.8481 96.3852 27.8866 93.7678C27.8313 88.3973 29.2273 83.0687 31.3087 78.1559C37.6019 63.2992 47.3902 54.4739 62.1495 48.5195L64.0593 47.8851Z" fill="#F85F7C"/>
<path d="M70.6046 49.0221C71.4045 48.9176 72.2541 48.9384 73.0624 48.9062C67.6316 50.4446 62.5255 52.342 57.8658 55.6093C47.8657 62.6216 40.7913 74.2905 38.7379 86.2972C36.8165 97.5312 39.0703 108.368 44.9136 118.134C46.3694 120.568 48.1137 122.834 49.7459 125.152C48.8402 124.337 48.0135 123.44 47.1715 122.561C45.425 120.644 43.4662 118.908 41.707 116.992C35.995 110.771 32.591 103.699 31.7038 95.2568C30.4872 83.681 35.78 71.1336 43.0057 62.3079C44.4261 60.5731 45.9244 58.8792 47.665 57.4571C51.8195 54.0634 58.0514 51.2096 63.2448 50.0374C65.6567 49.4932 68.1467 49.263 70.6046 49.0221Z" fill="#FDAABF"/>
<path d="M81.4942 46.1328C84.295 46.3678 87.1218 47.0138 89.8793 47.5537C88.9107 48.8625 87.9501 50.1761 87.0062 51.5026C85.3881 52.3886 83.3346 58.1443 82.8029 59.9451C81.0788 65.7841 81.8022 72.9382 79.0249 78.2867C76.2799 83.574 70.3796 85.1077 66.9238 89.6039C62.6443 95.1729 63.2581 112.359 64.4067 118.996C64.9218 121.973 65.7517 125.062 67.1977 127.733C68.3709 129.901 69.9014 131.728 71.5753 133.52C72.2516 134.244 73.2535 135.068 73.7474 135.917C67.0051 133.288 60.3469 128.294 56.4997 122.133C53.1206 116.722 50.0817 108.175 51.6518 101.74C52.5846 97.916 54.6688 97.6531 57.6255 95.7953C63.015 92.4087 58.8149 86.6251 60.9619 81.4022C63.0563 76.3071 68.8398 73.2262 70.5235 68.2257C70.6264 67.9192 70.7141 67.6068 70.773 67.2885C71.6461 62.5714 66.3293 63.8186 64.934 61.2571C64.6272 60.6932 64.7112 60.0571 64.9242 59.4822C66.2743 55.8433 75.197 53.8881 78.597 52.224C79.9565 51.5584 81.5927 50.5627 82.0492 49.0188C82.3818 47.8962 82.0345 47.1108 81.4942 46.1328Z" fill="#F01539"/>
<path d="M136.325 47.9387C135.603 47.8325 134.895 47.7178 134.183 47.5548C136.206 47.2012 138.32 47.123 140.366 46.9567C146.426 46.4655 151.237 46.5449 156.402 50.2067C165.078 56.3584 168.394 67.8222 170.037 77.8207C170.664 81.6353 170.811 85.486 171.371 89.29C171.483 91.9057 171.605 94.5251 171.582 97.1435C171.593 97.7337 171.586 98.3314 171.619 98.92L168.952 100.968C167.034 102.535 164.901 103.891 162.848 105.276C156.094 109.794 141.007 118.099 139.403 126.654C139.169 127.905 139.262 129.205 139.486 130.451C137.918 129.556 135.667 129.246 133.902 128.833C128.577 127.587 122.936 126.8 117.751 125.082C117.843 124.741 117.891 124.621 117.667 124.319C117.297 123.818 116.697 123.364 116.265 122.903C114.831 121.372 113.566 119.891 112.714 117.963C111.228 116.137 110.081 114.18 109.141 112.026C105.065 104.614 100.95 89.6213 101.079 81.2802L100.819 79.6204C100.409 79.0251 100.428 77.7882 100.374 77.0751C99.7344 78.3273 99.0244 80.2028 97.8405 81.0051C97.7509 77.1681 98.5937 73.2758 100.053 69.735C102.209 64.5055 105.571 60.386 110.172 57.1054C111.128 56.424 112.148 55.6257 113.237 55.1773L113.43 55.4001L113.554 55.4377L113.788 55.6413C114.574 55.7592 116.527 54.3529 117.329 53.9816C120.66 52.4374 124.343 51.0868 127.865 50.0318C129.96 49.4047 132.744 49.0071 134.65 47.9619L136.325 47.9387Z" fill="#F01539"/>
<path d="M152.593 78.4329C152.979 78.0714 153.155 77.8513 153.703 77.7861L153.708 77.8706L153.934 77.9083C154.206 77.6784 154.089 77.7491 154.4 77.5947C154.472 77.5593 154.544 77.5264 154.616 77.4922C151.888 82.4148 146.978 86.7111 142.251 89.6644C141.284 90.2691 140.229 90.7061 139.242 91.2755L139.072 91.226L139.276 91.0767C139.761 90.7164 140.13 90.4712 140.383 89.901C144.937 86.4141 149.162 83.1032 152.593 78.4329Z" fill="#BA0214"/>
<path d="M166.855 89.4922C167.885 92.3107 168.311 97.7076 168.952 100.963C167.034 102.53 164.901 103.886 162.847 105.271C161.676 104.515 160.285 102.908 159.617 101.679C160.734 101.478 161.782 101.104 162.724 100.46C166.216 98.073 166.228 93.2223 166.855 89.4922Z" fill="#BA0214"/>
<path d="M154.271 65.3672C155.261 66.1896 154.934 67.7 155.432 68.7295C156.32 69.7511 156.483 70.7335 156.408 72.0675C156.315 73.71 155.711 76.1756 154.616 77.4864C154.544 77.5206 154.472 77.5536 154.4 77.589C154.089 77.7434 154.206 77.6726 153.934 77.9025L153.708 77.8648L153.703 77.7804C153.155 77.8456 152.979 78.0656 152.593 78.4271C149.162 83.0975 144.937 86.4083 140.383 89.8952C138.996 90.8138 137.592 91.7125 136.28 92.7384C135.243 93.4626 133.204 95.2209 131.949 95.195C139.983 88.5517 148.716 83.457 153.272 73.5571C154.575 70.8828 154.583 68.258 154.271 65.3672Z" fill="#FD8FA8"/>
<path d="M155.433 68.7266C156.321 69.7482 156.484 70.7305 156.409 72.0646C156.316 73.707 155.712 76.1726 154.617 77.4835C154.545 77.5176 154.472 77.5507 154.401 77.586C154.09 77.7404 154.207 77.6697 153.935 77.8996L153.709 77.8619L153.704 77.7774C153.156 77.8427 152.979 78.0627 152.594 78.4241C154.503 75.2853 155.406 72.3993 155.433 68.7266Z" fill="#BA0214"/>
<path d="M136.325 47.9387C135.603 47.8325 134.895 47.7178 134.184 47.5548C136.206 47.2012 138.32 47.123 140.367 46.9567C146.427 46.4655 151.238 46.5449 156.402 50.2067C165.078 56.3584 168.395 67.8221 170.038 77.8207C170.665 81.6353 170.812 85.486 171.372 89.29C171.483 91.9057 171.605 94.5251 171.582 97.1435C171.593 97.7337 171.586 98.3314 171.62 98.92L168.953 100.968C168.312 97.7125 167.886 92.3156 166.856 89.4971C166.807 86.8637 165.69 83.8416 165.09 81.259C163.086 72.64 161.891 63.1515 155.673 56.3333C150.61 50.7815 143.71 48.2974 136.325 47.9387Z" fill="#640503"/>
<path d="M97.8405 81.0075C97.7509 77.1705 98.5937 73.2782 100.053 69.7374C102.209 64.5079 105.571 60.3884 110.172 57.1078C111.128 56.4264 112.148 55.6281 113.237 55.1797L113.43 55.4025C112.013 58.3652 112.218 60.4579 112.757 63.6041C109.821 65.2717 107.452 66.4647 106.514 70.0305C105.398 74.2734 107.502 79.3898 109.676 82.9741C112.19 87.1199 115.776 90.1836 120.216 92.1219C114.661 81.9808 113.35 75.932 115.074 64.5102C115.488 65.3448 115.213 68.6698 115.24 69.8203C116.49 65.7696 117.553 62.9342 121.204 60.4237C117.897 65.6261 117.805 71.8408 119.13 77.7076C120.54 83.9528 122.811 90.0233 127.317 94.6759C127.792 95.2453 128.323 95.7647 128.493 96.5054L128.385 96.8008C119.817 95.1431 109.47 91.6637 103.779 84.6801C102.56 83.1838 102.044 81.35 100.97 79.8302C100.92 79.7602 100.87 79.6919 100.819 79.6227C100.409 79.0274 100.428 77.7905 100.374 77.0774C99.7344 78.3297 99.0244 80.2052 97.8405 81.0075Z" fill="url(#paint4_linear_4691_32158)"/>
<path d="M115.074 64.5032C115.203 62.4725 115.919 60.6568 117.448 59.2783C121.292 55.8142 128.394 54.8575 133.35 55.2445C139.493 55.7247 147.769 57.5313 151.922 62.4524C152.708 63.3833 153.431 64.4984 154.271 65.366C154.583 68.2568 154.575 70.8816 153.272 73.5559C148.716 83.4558 139.983 88.5506 131.949 95.1938C131.089 95.689 130.349 96.3923 129.628 97.0685L128.976 96.9726L128.385 96.7939L128.494 96.4984C128.324 95.7578 127.792 95.2383 127.317 94.6689C122.811 90.0162 120.54 83.9459 119.13 77.7006C117.806 71.8338 117.897 65.6192 121.204 60.4168C117.554 62.9272 116.49 65.7626 115.241 69.8133C115.213 68.6627 115.488 65.3378 115.074 64.5032Z" fill="#F01539"/>
<path d="M122.164 75.9219C125.928 78.4681 130.13 79.7986 134.718 79.4806C137.774 79.3046 139.988 78.5655 142.694 77.16L143.061 77.3014C141.95 78.4453 137.678 80.1149 136.08 80.5317C132.496 81.4661 128.655 81.1286 125.438 79.248C124.297 78.5808 122.507 77.2291 122.164 75.9219Z" fill="#F85F7C"/>
<path d="M119.949 73.8615C119.26 72.9975 119.153 72.436 119.23 71.3409C119.437 68.39 121.705 65.8386 123.873 64.0103C128.364 60.2233 134.274 58.2751 140.146 58.8154C143.932 59.1639 147.807 60.6099 150.286 63.5915L149.906 63.7161L150.345 64.1444L150.219 64.3514L149.67 64.0233L149.405 64.127C145.437 61.3792 140.997 60.4437 136.228 61.2791C132.393 61.951 128.528 63.8767 126.306 67.1758C125.879 67.8088 125.548 68.4807 125.297 69.2002C123.958 69.056 123.22 69.2199 122.173 70.093C121.477 70.6741 120.627 71.4757 120.56 72.4474C120.519 73.0462 120.785 73.6293 121.213 74.0392C122.487 75.2592 124.882 75.4902 126.436 76.3528C124.739 76.1764 123.04 75.3355 121.422 74.8007C124.75 77.3115 129.299 79.3736 133.567 79.1375C134.055 79.1104 134.293 79.2597 134.718 79.4711C130.13 79.789 125.928 78.4585 122.164 75.9124C121.638 75.1743 120.641 74.4678 119.949 73.8615Z" fill="#7C0104"/>
<path d="M149.405 64.1293L149.67 64.0255L150.219 64.3537L150.345 64.1466L149.906 63.7183L150.287 63.5938C152.61 66.5969 153.556 69.7682 153.272 73.5609C148.716 83.4608 139.983 88.5555 131.948 95.1988C131.089 95.6939 130.348 96.3972 129.627 97.0735L128.976 96.9776L128.384 96.7988L128.493 96.5033C128.323 95.7627 127.791 95.2432 127.316 94.6739C127.501 94.2487 127.512 93.7505 127.694 93.3089C128.593 91.1191 131.129 89.5823 133.205 88.6574C134.484 88.6444 135.693 88.4995 136.956 88.3053C138.373 86.7328 140.415 85.3453 141.986 83.8711C145.628 80.4541 151.922 74.5468 151.962 69.2737C151.979 67.0433 150.872 65.6401 149.405 64.1293Z" fill="#640503"/>
<path d="M133.205 88.6568C134.484 88.6438 135.693 88.4989 136.956 88.3047C134.868 90.6548 129.488 94.0167 128.976 96.9771L128.384 96.7983L128.493 96.5028C128.323 95.7622 127.791 95.2427 127.316 94.6734C127.501 94.2482 127.512 93.75 127.694 93.3084C128.592 91.1185 131.129 89.5817 133.205 88.6568Z" fill="#B3041B"/>
<path d="M130.3 74.2415C131.056 71.179 132.317 68.7849 135.135 67.1121C137.576 65.6634 140.63 65.2413 143.364 66.0386C144.69 66.4256 145.846 67.1702 146.503 68.4123C147.206 69.7393 147.066 70.8521 146.72 72.2595C145.692 74.5856 144.427 75.4572 142.693 77.1542C139.987 78.5597 137.772 79.2988 134.717 79.4748C134.292 79.2634 134.054 79.1141 133.566 79.1412C129.297 79.3773 124.749 77.3152 121.421 74.8044C123.039 75.3392 124.738 76.1801 126.435 76.3565C124.881 75.494 122.485 75.263 121.212 74.0429C120.783 73.633 120.518 73.0499 120.559 72.4511C120.626 71.4794 121.475 70.6778 122.171 70.0967C123.218 69.2236 123.957 69.0597 125.295 69.2039C125.183 70.3882 125.118 71.3167 125.94 72.2656C126.966 73.4505 128.839 73.8627 130.3 74.2415Z" fill="#640503"/>
<path d="M131.896 75.0316C133.28 73.0409 135.474 71.4339 137.691 70.4853C139.204 69.8378 142.609 68.9733 144.115 69.8224C144.543 70.0637 144.581 70.1992 144.738 70.6303C144.664 71.3521 144.449 71.7882 144.092 72.4146C139.901 72.9828 136.392 75.2909 131.896 75.0316Z" fill="#F01539"/>
<path d="M130.3 74.2415C131.056 71.179 132.317 68.7849 135.135 67.1121C137.576 65.6634 140.63 65.2413 143.364 66.0386C144.69 66.4256 145.846 67.1702 146.503 68.4123C147.206 69.7393 147.066 70.8521 146.72 72.2595C146.534 71.4666 146.377 70.6532 146.15 69.8716C144.693 68.4732 143.175 67.6736 141.096 67.6999C138.572 67.7314 135.257 69.175 133.501 71.0339C132.523 72.0681 131.561 73.4029 131.215 74.7923L131.337 75.0775C131.52 75.0732 131.723 75.0944 131.896 75.0311C136.391 75.2905 139.9 72.9824 144.091 72.4142C142.178 75.1556 138.057 76.5836 134.91 77.151C131.971 77.6807 129.233 77.3494 126.435 76.3565C124.881 75.494 122.485 75.263 121.212 74.0429C120.783 73.633 120.518 73.0499 120.559 72.4511C120.626 71.4794 121.475 70.6778 122.171 70.0967C123.218 69.2236 123.957 69.0597 125.295 69.2039C125.183 70.3882 125.118 71.3167 125.94 72.2656C126.966 73.4505 128.839 73.8627 130.3 74.2415Z" fill="#B3041B"/>
<path d="M115.074 64.5032C115.203 62.4725 115.919 60.6568 117.448 59.2783C121.292 55.8142 128.394 54.8575 133.35 55.2445C139.493 55.7247 147.769 57.5313 151.922 62.4524C152.708 63.3833 153.431 64.4984 154.271 65.366C154.583 68.2568 154.575 70.8816 153.272 73.5559C153.557 69.7633 152.611 66.592 150.287 63.5888C147.807 60.6073 143.932 59.1612 140.146 58.8127C134.274 58.2724 128.364 60.2206 123.874 64.0076C121.706 65.836 119.438 68.3872 119.231 71.3382C119.154 72.4333 119.261 72.9948 119.95 73.8589C120.516 78.2931 124.507 83.2676 127.946 85.9116C129.56 87.1529 131.29 87.9824 133.206 88.6523C131.129 89.5773 128.593 91.114 127.694 93.3038C127.513 93.7455 127.501 94.2438 127.317 94.6688C122.811 90.0161 120.54 83.9458 119.13 77.7005C117.805 71.8337 117.897 65.6191 121.204 60.4167C117.554 62.9271 116.49 65.7625 115.24 69.8132C115.213 68.6627 115.488 65.3378 115.074 64.5032Z" fill="#BA0214"/>
<path d="M100.818 79.6172C100.869 79.6864 100.919 79.7547 100.969 79.8246C102.043 81.3445 102.559 83.1783 103.778 84.6745C109.469 91.6581 119.816 95.1376 128.384 96.7953L128.975 96.974L129.627 97.0699C130.348 96.3937 131.088 95.6904 131.948 95.1952C133.203 95.2211 135.242 93.4628 136.278 92.7386L136.514 92.7999C138.154 93.2172 139.848 93.3586 141.505 93.7221C146.881 94.9013 153.444 96.9158 157.713 100.474L159.616 101.681C160.285 102.909 161.675 104.516 162.847 105.272C156.093 109.791 141.005 118.096 139.402 126.65C139.167 127.901 139.261 129.201 139.484 130.447C137.916 129.552 135.666 129.242 133.901 128.829C128.576 127.583 122.934 126.797 117.749 125.079C117.842 124.738 117.889 124.618 117.666 124.315C117.295 123.814 116.696 123.361 116.264 122.9C114.83 121.369 113.564 119.888 112.713 117.96C111.226 116.134 110.08 114.177 109.14 112.022C105.064 104.611 100.949 89.6179 101.078 81.2768L100.818 79.6172Z" fill="#F01539"/>
<path d="M100.818 79.6172C100.869 79.6864 100.919 79.7547 100.969 79.8246C102.043 81.3445 102.559 83.1783 103.778 84.6745C109.469 91.6581 119.816 95.1376 128.384 96.7953L128.975 96.974L129.627 97.0699C130.864 97.3214 132.096 97.5461 133.345 97.7296C135.336 98.3662 137.406 98.7599 139.362 99.5084C144.52 101.484 151.608 105.872 154.325 110.828L150.946 108.419C149.898 107.64 148.707 107.071 147.537 106.503C143.129 103.926 137.855 102.348 132.985 100.896C125.533 98.6746 117.741 96.5488 111.017 92.5425C106.543 89.876 102.42 86.5208 101.078 81.2767L100.818 79.6172Z" fill="url(#paint5_linear_4691_32158)"/>
<path d="M147.537 106.508C148.707 107.076 149.899 107.646 150.947 108.425C148.54 109.407 145.981 110.274 143.784 111.684C136.79 116.17 133.352 122.071 123.98 121.758C121.711 121.683 119.138 121.301 117.035 120.414C115.506 119.769 114.216 118.667 112.714 117.965C111.227 116.139 110.08 114.182 109.141 112.028C111.036 113.052 112.723 114.465 114.655 115.47C117.068 116.724 119.956 117.5 122.663 117.721C133.715 118.62 137.924 109.454 147.295 106.58L147.537 106.508Z" fill="#BA0214"/>
<path d="M136.28 92.7422L136.516 92.8034C138.157 93.2208 139.85 93.3622 141.507 93.7256C146.883 94.9048 153.446 96.9194 157.715 100.477L159.618 101.684C160.287 102.913 161.677 104.52 162.849 105.276C156.095 109.794 141.007 118.1 139.404 126.654C139.169 127.905 139.263 129.205 139.486 130.451C137.918 129.556 135.668 129.246 133.903 128.833C128.578 127.587 122.936 126.801 117.751 125.082C117.844 124.741 117.891 124.621 117.668 124.319C117.297 123.818 116.698 123.365 116.266 122.904C114.832 121.372 113.566 119.891 112.715 117.964C114.217 118.665 115.507 119.767 117.037 120.412C119.14 121.3 121.713 121.681 123.982 121.757C133.353 122.069 136.791 116.168 143.785 111.682C145.983 110.272 148.541 109.405 150.948 108.423L154.327 110.832C151.61 105.875 144.522 101.487 139.363 99.512C137.408 98.7635 135.338 98.3698 133.346 97.7332C132.097 97.5497 130.865 97.3249 129.629 97.0735C130.35 96.3972 131.09 95.6939 131.95 95.1988C133.205 95.2247 135.244 93.4663 136.28 92.7422Z" fill="#B3041B"/>
<path d="M136.279 92.7422L136.514 92.8034C138.155 93.2208 139.848 93.3622 141.505 93.7256C146.881 94.9048 153.444 96.9194 157.714 100.477C155.111 100.189 152.398 99.0377 149.841 98.3968C145.353 97.2723 140.649 96.8805 136.06 96.3379C134.789 96.1873 133.224 95.8067 131.969 95.8754C131.43 95.9048 131.051 96.3375 130.691 96.6935C130.809 96.8982 132.924 97.5481 133.345 97.7332C132.096 97.5497 130.864 97.3249 129.627 97.0735C130.348 96.3972 131.088 95.6939 131.948 95.1988C133.203 95.2247 135.242 93.4663 136.279 92.7422Z" fill="#BA0214"/>
<defs>
<linearGradient id="paint0_linear_4691_32158" x1="69.4422" y1="158.617" x2="28.5021" y2="191.034" gradientUnits="userSpaceOnUse">
<stop stop-color="#8B0009"/>
<stop offset="1" stop-color="#C20413"/>
</linearGradient>
<linearGradient id="paint1_linear_4691_32158" x1="230.943" y1="132.175" x2="299.676" y2="131.131" gradientUnits="userSpaceOnUse">
<stop stop-color="#790000"/>
<stop offset="1" stop-color="#C90719"/>
</linearGradient>
<linearGradient id="paint2_linear_4691_32158" x1="158.39" y1="57.7982" x2="184.595" y2="67.7424" gradientUnits="userSpaceOnUse">
<stop stop-color="#FD6889"/>
<stop offset="1" stop-color="#FA99B7"/>
</linearGradient>
<linearGradient id="paint3_linear_4691_32158" x1="119.686" y1="68.8703" x2="82.1339" y2="75.1933" gradientUnits="userSpaceOnUse">
<stop stop-color="#FD637F"/>
<stop offset="1" stop-color="#FA9DB8"/>
</linearGradient>
<linearGradient id="paint4_linear_4691_32158" x1="125.669" y1="75.4499" x2="97.8771" y2="78.5417" gradientUnits="userSpaceOnUse">
<stop stop-color="#630500"/>
<stop offset="1" stop-color="#A0081B"/>
</linearGradient>
<linearGradient id="paint5_linear_4691_32158" x1="129.014" y1="89.9056" x2="125.881" y2="101.455" gradientUnits="userSpaceOnUse">
<stop stop-color="#FF6D91"/>
<stop offset="1" stop-color="#FF98B2"/>
</linearGradient>
</defs>
</svg>
