<svg width="347" height="364" viewBox="0 0 347 364" fill="none" xmlns="http://www.w3.org/2000/svg">
<path d="M152.455 328.586C152.824 330.381 152.752 331.936 151.737 333.522C151.618 333.705 151.49 333.882 151.353 334.053C151.216 334.223 151.071 334.387 150.918 334.543C150.764 334.699 150.604 334.847 150.435 334.987C150.267 335.126 150.092 335.258 149.911 335.38C149.73 335.502 149.543 335.615 149.35 335.719C149.157 335.822 148.96 335.916 148.758 335.999C148.556 336.083 148.35 336.156 148.141 336.219C147.931 336.283 147.719 336.335 147.504 336.377C145.728 336.719 143.968 336.367 142.495 335.312C141.776 334.796 141.291 334.235 140.827 333.487C140.862 332.406 140.702 331.318 140.725 330.224C140.741 330.296 140.759 330.369 140.775 330.442C140.955 331.304 141.481 331.902 142.113 332.502C143.193 333.526 145.031 334.184 146.517 334.085C149.721 333.871 150.482 330.869 152.213 328.857C152.293 328.766 152.374 328.677 152.455 328.586Z" fill="#7ECC47"/>
<path d="M62.6779 155.326C62.0396 153.626 57.8545 149.428 56.521 147.761C49.5862 139.093 40.7613 126.326 38.8848 115.259C38.5418 113.238 38.5786 111.276 38.6624 109.234C38.7013 110.334 39.0985 111.351 39.1491 112.389C38.6992 120.174 52.2098 140.658 57.1964 147.471C58.4813 149.226 64.0932 155.277 64.3002 156.72C63.6477 156.295 63.1685 155.935 62.6779 155.326Z" fill="#EBC067"/>
<path d="M305.983 324.173C307.08 325.662 307.526 327.352 308.995 328.668C310.375 329.904 312.181 330.184 313.973 330.04C316.508 329.836 319.048 328.824 320.676 326.806C322.606 324.413 322.326 322.302 322.043 319.479L322.408 319.07C323.711 320.642 324.472 322.285 324.295 324.37C324.08 326.918 322.6 329.388 320.642 330.99C320.512 331.097 320.378 331.201 320.243 331.301C320.107 331.402 319.969 331.499 319.829 331.593C319.688 331.686 319.546 331.777 319.401 331.863C319.256 331.95 319.109 332.033 318.96 332.112C318.811 332.192 318.66 332.268 318.507 332.34C318.355 332.412 318.201 332.48 318.044 332.545C317.888 332.609 317.731 332.67 317.572 332.727C317.413 332.784 317.253 332.836 317.091 332.885C316.93 332.934 316.767 332.979 316.603 333.02C316.439 333.061 316.275 333.098 316.109 333.131C315.943 333.164 315.777 333.193 315.61 333.217C315.443 333.242 315.276 333.263 315.108 333.279C314.94 333.296 314.771 333.308 314.603 333.317C314.434 333.325 314.265 333.329 314.096 333.329C313.928 333.329 313.759 333.325 313.59 333.317C313.422 333.309 313.253 333.297 313.085 333.28C310.98 333.072 308.604 332.145 307.288 330.421C306.017 328.756 305.671 326.785 305.621 324.746L305.414 324.499L305.983 324.173Z" fill="#7ECC47"/>
<path d="M274.449 291.431C274.836 291.349 274.715 291.361 275.049 291.333C276.638 291.197 278.011 291.081 279.434 290.273C285.906 291.354 292.439 292.056 298.918 293.087C304.206 293.898 309.452 294.926 314.656 296.17C319.859 297.415 325.003 298.872 330.086 300.541C329.912 300.887 329.749 301.17 329.5 301.467C327.592 301.012 325.674 300.61 323.744 300.26C323.564 300.054 323.47 299.935 323.252 299.747C321.835 298.524 314.1 297.174 311.892 296.762C303.84 295.261 295.55 294.338 287.436 293.173C283.198 292.564 278.719 291.334 274.449 291.431Z" fill="#0F521F"/>
<path d="M142.384 326.208C143.779 325.007 145.183 324.195 147.086 324.298C147.29 324.31 147.492 324.333 147.694 324.366C147.895 324.4 148.094 324.443 148.291 324.497C148.488 324.55 148.682 324.614 148.872 324.687C149.063 324.761 149.249 324.844 149.431 324.936C149.613 325.029 149.79 325.13 149.961 325.241C150.133 325.351 150.298 325.47 150.458 325.598C150.617 325.725 150.77 325.861 150.916 326.004C151.061 326.147 151.199 326.297 151.329 326.454C151.861 327.084 152.192 327.802 152.456 328.575C152.375 328.666 152.294 328.755 152.215 328.847C150.483 330.859 149.723 333.86 146.519 334.074C145.033 334.173 143.195 333.515 142.115 332.491C141.483 331.892 140.956 331.293 140.776 330.431C140.761 330.358 140.743 330.286 140.727 330.213C141.009 328.713 141.654 327.528 142.384 326.208Z" fill="#91DB4F"/>
<path d="M343.214 299.695C344.986 300.833 346.263 302.497 346.694 304.583C347.175 306.914 346.563 309.325 345.246 311.279C345.146 311.426 345.042 311.571 344.935 311.714C344.828 311.856 344.717 311.996 344.603 312.132C344.489 312.269 344.372 312.403 344.251 312.534C344.131 312.665 344.007 312.793 343.88 312.918C343.753 313.043 343.623 313.165 343.49 313.284C343.358 313.402 343.222 313.517 343.083 313.629C342.944 313.741 342.803 313.849 342.659 313.954C342.515 314.059 342.369 314.161 342.22 314.258C342.071 314.356 341.919 314.45 341.766 314.54C341.613 314.63 341.457 314.717 341.299 314.799C341.142 314.882 340.982 314.96 340.82 315.035C340.658 315.11 340.495 315.18 340.33 315.247C340.164 315.314 339.998 315.376 339.829 315.434C339.661 315.493 339.491 315.547 339.32 315.597C339.149 315.648 338.977 315.693 338.804 315.735C338.631 315.777 338.457 315.814 338.282 315.847C335.473 316.366 332.694 315.764 330.386 314.076C328.676 312.826 327.777 310.861 327.137 308.898C327.032 308.575 327.087 308.702 326.863 308.402L326.852 308.199C327.19 307.174 327.201 306.008 327.542 304.933C327.831 303.967 328.308 303.08 328.898 302.267C328.833 304.221 328.393 305.989 328.488 307.985C328.814 308.49 329.141 309.014 329.554 309.453C330.909 310.893 332.989 311.607 334.929 311.665C337.48 311.743 340.061 310.784 341.878 308.978C343.797 307.07 344.781 304.682 343.808 302.073C343.57 301.436 343.098 300.632 343.156 299.947C343.164 299.862 343.195 299.78 343.214 299.695Z" fill="#7ECC47"/>
<path d="M178.156 343.07C180.703 343.381 182.472 344.292 184.275 346.097C184.763 347.101 185.258 348.613 185.951 349.447C186.044 352.445 185.675 355.189 183.549 357.499C183.442 357.615 183.332 357.728 183.219 357.838C183.106 357.948 182.99 358.056 182.872 358.16C182.754 358.264 182.633 358.366 182.509 358.464C182.386 358.562 182.26 358.658 182.131 358.749C182.003 358.841 181.872 358.93 181.739 359.015C181.607 359.1 181.472 359.182 181.335 359.261C181.198 359.339 181.059 359.414 180.918 359.486C180.777 359.557 180.635 359.625 180.49 359.689C180.346 359.753 180.201 359.814 180.053 359.871C179.906 359.928 179.757 359.981 179.607 360.03C179.457 360.079 179.306 360.125 179.154 360.166C179.002 360.208 178.848 360.246 178.694 360.279C178.54 360.313 178.385 360.343 178.229 360.369C178.074 360.395 177.917 360.417 177.761 360.435C177.604 360.453 177.446 360.468 177.289 360.478C177.131 360.488 176.974 360.494 176.816 360.496C174.274 360.554 171.648 359.659 169.841 357.834C168.004 355.98 167.398 353.779 167.352 351.247C168.452 351.951 169.06 354.072 170.173 355.046C171.413 356.13 173.404 356.596 175.02 356.466C177.14 356.296 179.078 355.093 180.38 353.443C181.599 351.897 182.345 349.91 182.028 347.927C181.632 345.459 180.003 344.462 178.156 343.07Z" fill="#7ECC47"/>
<path d="M237.246 298.759C237.313 298.724 237.377 298.686 237.445 298.655C237.747 298.516 237.998 298.439 238.265 298.234C241.357 298.936 244.265 300.425 247.154 301.698C251.493 303.611 255.839 305.597 260.265 307.301C275.375 313.116 290.642 318.278 306.009 323.353L305.983 324.174L305.414 324.5C288.328 320.022 271.546 313.826 255.296 306.935C249.217 304.357 243.096 301.83 237.246 298.759Z" fill="#0F521F"/>
<path d="M167.352 351.242C167.36 349.072 168.291 347.021 169.8 345.477C169.918 345.358 170.038 345.241 170.162 345.127C170.285 345.014 170.411 344.903 170.54 344.796C170.669 344.689 170.801 344.584 170.935 344.483C171.069 344.382 171.205 344.285 171.344 344.191C171.483 344.097 171.624 344.006 171.767 343.918C171.91 343.831 172.055 343.747 172.202 343.667C172.35 343.587 172.499 343.51 172.65 343.437C172.801 343.365 172.954 343.296 173.108 343.23C173.263 343.165 173.419 343.103 173.577 343.046C173.734 342.988 173.893 342.934 174.053 342.885C174.213 342.835 174.374 342.789 174.537 342.747C174.699 342.705 174.863 342.667 175.027 342.633C175.191 342.599 175.356 342.569 175.522 342.544C175.688 342.518 175.854 342.496 176.021 342.478C176.188 342.46 176.355 342.447 176.522 342.438C176.69 342.428 176.857 342.423 177.025 342.422C177.229 342.853 177.334 342.848 177.791 342.983C177.911 343.019 178.034 343.038 178.156 343.065C180.002 344.457 181.632 345.454 182.027 347.922C182.345 349.904 181.599 351.891 180.379 353.437C179.078 355.088 177.14 356.29 175.02 356.461C173.404 356.591 171.413 356.125 170.173 355.04C169.06 354.066 168.452 351.946 167.352 351.242Z" fill="#91DB4F"/>
<path d="M174.911 345.002C175.505 344.98 176.026 344.982 176.599 345.161C177.213 345.352 177.777 345.721 178.017 346.345C178.272 347.004 178.104 347.766 177.834 348.393C177.153 349.972 176.003 350.946 174.438 351.575C173.754 351.565 173.131 351.57 172.496 351.278C171.852 350.984 171.294 350.524 171.065 349.833C170.781 348.974 171.055 348.045 171.507 347.299C172.306 345.98 173.472 345.398 174.911 345.002Z" fill="#C4EF9A"/>
<path d="M330.088 300.537C330.475 300.466 330.386 300.529 330.654 300.345C332.312 299.211 334.075 298.305 336.097 298.044C338.528 297.731 341.251 298.129 343.215 299.693C343.196 299.777 343.165 299.86 343.158 299.945C343.099 300.63 343.572 301.434 343.809 302.071C344.782 304.68 343.799 307.069 341.88 308.976C340.062 310.783 337.482 311.742 334.93 311.664C332.991 311.605 330.91 310.891 329.556 309.451C329.143 309.012 328.816 308.488 328.49 307.983C328.395 305.987 328.834 304.219 328.9 302.265L329.502 301.463C329.751 301.166 329.914 300.883 330.088 300.537Z" fill="#91DB4F"/>
<path d="M334.42 299.867C335.3 299.824 336.255 299.809 337.092 300.114C337.777 300.364 338.464 300.868 338.704 301.585C338.858 302.04 338.798 302.512 338.611 302.944C338.092 304.142 336.739 304.712 335.614 305.175C334.923 305.305 334.26 305.344 333.56 305.245C332.794 305.136 332.05 304.807 331.641 304.117C331.297 303.538 331.313 302.878 331.538 302.265C332.021 300.946 333.214 300.385 334.42 299.867Z" fill="#C4EF9A"/>
<path d="M312.321 316.314C315.091 315.776 318.003 315.624 320.461 317.287C321.142 317.747 321.943 318.389 322.407 319.075L322.042 319.483C322.326 322.306 322.605 324.418 320.675 326.81C319.047 328.829 316.507 329.841 313.972 330.044C312.181 330.188 310.374 329.909 308.994 328.673C307.525 327.356 307.079 325.667 305.982 324.178L306.008 323.357C306.544 321.705 307.002 320.398 308.117 319.016C308.165 318.975 308.215 318.936 308.263 318.894C309.529 317.808 310.878 317.133 312.321 316.314Z" fill="#91DB4F"/>
<path d="M313.288 318.05C313.753 318.029 314.217 318.014 314.679 318.073C315.475 318.173 316.479 318.423 316.924 319.163C317.236 319.68 317.18 320.305 316.973 320.848C316.313 322.577 314.798 323.326 313.236 324.064C312.365 324.193 311.405 324.3 310.572 323.944C310.005 323.702 309.576 323.278 309.406 322.677C309.222 322.025 309.405 321.286 309.702 320.695C310.473 319.159 311.711 318.535 313.288 318.05Z" fill="#C4EF9A"/>
<path d="M235.734 329.73C237.772 328.214 240.12 327.27 242.708 327.657C244.825 327.975 246.857 329.117 248.053 330.916C249.193 332.629 249.46 334.716 249.028 336.705C248.513 339.069 247.033 341.226 244.965 342.494C243.013 343.69 240.388 344.115 238.159 343.565C235.917 343.013 233.95 340.144 232.955 339.975C233.123 339.951 233.298 339.867 233.458 339.81C233.595 339.253 233.221 338.694 232.994 338.196C232.892 337.633 232.773 337.06 232.746 336.487C232.622 333.803 233.99 331.621 235.734 329.73Z" fill="#7ECC47"/>
<path d="M241.535 328.678C242.664 328.623 243.517 328.584 244.524 329.147C245.368 329.619 245.908 330.288 246.149 331.232C246.568 332.871 246.073 334.792 245.183 336.192C243.835 338.311 241.93 339.325 239.557 339.875C238.339 339.932 237.496 339.897 236.436 339.243C235.591 338.721 235.091 337.961 234.893 336.991C234.566 335.397 235.038 333.711 235.919 332.373C237.228 330.385 239.231 329.152 241.535 328.678Z" fill="#91DB4F"/>
<path d="M30.2341 307.442C32.2222 307.34 34.162 307.867 35.9639 308.671C36.8846 309.651 38.5188 311.019 38.7224 312.4C38.8547 313.295 38.8261 313.924 39.1645 314.803C39.3851 314.233 39.3161 313.696 39.3067 313.093C39.642 313.376 39.6337 313.499 39.8563 313.852C39.9412 313.986 40.1364 314.225 40.2422 314.357L40.0258 314.266L40.1021 314.516C40.4782 315.791 40.5267 316.881 40.4084 318.191C40.3754 318.557 39.9907 320.282 40.0605 320.473C40.0998 320.581 40.214 320.645 40.3035 320.717C40.3419 320.748 40.3938 320.757 40.4389 320.776C39.0021 321.376 37.3598 323.57 35.6593 324.452C33.4684 325.589 30.5493 325.72 28.233 324.919C28.0833 324.867 27.9349 324.811 27.7879 324.751C27.641 324.692 27.4957 324.629 27.3523 324.562C27.2084 324.495 27.0665 324.424 26.9264 324.35C26.7865 324.275 26.6486 324.198 26.5125 324.116C26.3764 324.035 26.2424 323.95 26.1107 323.862C25.979 323.774 25.8496 323.682 25.7225 323.587C25.5956 323.492 25.4712 323.394 25.3489 323.293C25.227 323.192 25.1076 323.088 24.9908 322.981C24.8739 322.873 24.76 322.763 24.649 322.65C24.5379 322.537 24.4299 322.421 24.3247 322.302C24.2196 322.183 24.1175 322.062 24.0184 321.938C23.9196 321.814 23.824 321.688 23.7314 321.559C23.6388 321.43 23.5497 321.299 23.464 321.166C23.3783 321.033 23.2959 320.897 23.2169 320.76C23.1383 320.622 23.0631 320.483 22.9911 320.342C22.9196 320.2 22.8515 320.057 22.7869 319.912C22.7263 319.78 22.669 319.646 22.6155 319.511C22.5615 319.376 22.5112 319.24 22.4643 319.102C22.4175 318.964 22.3742 318.825 22.3345 318.686C22.2948 318.546 22.2586 318.405 22.2258 318.263C22.1932 318.121 22.1641 317.979 22.1388 317.836C22.1135 317.692 22.0918 317.549 22.0738 317.404C22.0558 317.26 22.0416 317.115 22.031 316.97C22.0203 316.825 22.0134 316.68 22.01 316.535C22.0067 316.389 22.0071 316.244 22.0113 316.098C22.0157 315.953 22.0236 315.808 22.0349 315.663C22.0466 315.518 22.0619 315.373 22.0807 315.229C22.0997 315.085 22.1223 314.941 22.1484 314.798C22.1748 314.655 22.2049 314.513 22.2383 314.371C22.2718 314.23 22.3088 314.089 22.3493 313.949C22.3901 313.81 22.4344 313.671 22.4821 313.534C22.5298 313.396 22.581 313.26 22.6355 313.125C24.3174 309.027 26.566 309.1 29.9491 307.573L30.2341 307.442Z" fill="#91DB4F"/>
<path d="M29.8292 309.276C30.574 309.248 31.3269 309.206 32.0594 309.374C32.9491 309.579 33.9033 310.009 34.3529 310.853C34.6649 311.437 34.6465 312.081 34.409 312.684C33.8516 314.098 32.5034 314.694 31.2016 315.259C30.2193 315.416 29.2401 315.376 28.2487 315.366C27.4913 314.879 26.7755 314.498 26.4391 313.611C26.2019 312.986 26.2529 312.293 26.5432 311.695C27.1886 310.365 28.5132 309.748 29.8292 309.276Z" fill="#C4EF9A"/>
<path d="M17.927 305.982C17.5741 307.07 16.4837 308.216 15.6073 308.917C13.6401 310.491 10.8827 311.339 8.36961 311.053C5.96254 310.779 3.28767 309.066 1.84477 307.187C1.75487 307.072 1.66812 306.954 1.5845 306.835C1.50066 306.715 1.42018 306.593 1.34283 306.469C1.26548 306.345 1.19126 306.219 1.12018 306.091C1.04931 305.963 0.981577 305.834 0.917396 305.703C0.853216 305.572 0.792381 305.439 0.734891 305.304C0.6774 305.17 0.623674 305.034 0.573291 304.897C0.522909 304.76 0.476081 304.622 0.432807 304.482C0.389532 304.342 0.350019 304.202 0.314061 304.06C0.278104 303.919 0.245702 303.776 0.217062 303.633C0.188421 303.489 0.163541 303.345 0.142427 303.201C0.121312 303.056 0.103751 302.911 0.0901627 302.766C0.076365 302.62 0.0665415 302.474 0.0602698 302.328C0.0539981 302.182 0.051696 302.036 0.0531594 301.89C0.0546228 301.744 0.0596412 301.598 0.0686306 301.452C0.07762 301.306 0.0901648 301.161 0.10668 301.015C0.123196 300.87 0.143262 300.726 0.167094 300.581C0.580607 298.171 2.10442 296.055 4.09839 294.678C6.29661 293.16 9.01789 292.674 11.6319 293.155C14.4824 293.681 16.2696 295.255 17.8722 297.553C18.167 298.446 18.4488 299.313 18.6173 300.241L18.8195 300.469C19.1537 302.442 18.7731 304.195 17.927 305.982Z" fill="#91DB4F"/>
<path d="M8.02665 294.763C8.704 294.723 9.36022 294.707 10.0302 294.837C10.824 294.99 11.6479 295.409 12.0232 296.165C12.2661 296.655 12.2584 297.256 12.0857 297.767C11.5904 299.232 10.2573 299.853 8.95235 300.437C8.10839 300.496 7.17747 300.631 6.36822 300.327C5.65743 300.061 4.99953 299.567 4.74385 298.823C4.55967 298.286 4.63075 297.663 4.85319 297.15C5.43144 295.819 6.74326 295.221 8.02665 294.763Z" fill="#C4EF9A"/>
<path d="M85.1032 342.697C83.9559 344.432 82.3696 346.235 80.5318 347.231C78.2759 348.454 75.5136 348.613 73.0875 347.831C70.6564 347.048 68.5038 345.368 67.363 343.059C66.2491 340.805 66.2295 338.032 67.1311 335.702C68.0568 333.31 70.0428 331.509 72.4008 330.566C74.2754 329.816 76.6933 329.422 78.5945 330.223C78.9582 331.033 79.7598 331.334 80.5082 331.788C81.2104 332.214 81.867 333.03 82.3199 333.711L82.4244 333.545C82.0732 333.023 81.6952 332.515 81.4502 331.932C83.5211 333.191 84.5921 335.523 85.1377 337.792C85.3399 338.633 85.5268 339.584 85.4375 340.45C85.3972 340.838 84.8344 342.348 84.8904 342.559C84.9117 342.64 85.0322 342.651 85.1032 342.697Z" fill="#7ECC47"/>
<path d="M74.4832 332.338C74.9667 332.3 75.499 332.294 75.9761 332.395C76.7262 332.555 77.5632 332.928 77.9372 333.637C78.3137 334.352 78.1595 335.243 77.8626 335.956C77.1313 337.71 75.7327 338.494 74.049 339.126C73.0773 339.26 72.1572 339.266 71.301 338.709C70.7501 338.351 70.4083 337.818 70.2925 337.176C70.1177 336.206 70.4549 335.197 71.0018 334.402C71.8769 333.129 73.0173 332.642 74.4832 332.338Z" fill="#C4EF9A"/>
<path d="M218.524 306.819C218.561 306.765 218.594 306.708 218.635 306.656C219.042 306.138 219.555 305.684 220.221 305.594L219.89 307.039C218.545 309.967 218.411 314.194 219.511 317.207C221.918 323.795 228.794 326.588 234.687 329.263L235.734 329.736C233.99 331.627 232.622 333.809 232.747 336.493C232.774 337.066 232.893 337.639 232.995 338.202C233.222 338.7 233.595 339.259 233.458 339.816C233.298 339.873 233.123 339.957 232.955 339.981C229.633 339.596 225.355 338.838 222.549 341.144C221.218 342.238 220.438 343.923 220.155 345.599L219.855 345.428C218.279 343.239 217.269 340.443 216.436 337.9C214.142 330.896 212.454 322.881 214.65 315.66C215.583 312.589 217.079 309.676 218.524 306.819Z" fill="#2D7F2C"/>
<path d="M219.854 345.424C219.843 344.917 219.842 344.411 219.892 343.906C220.072 342.098 220.845 340.419 222.288 339.276C225.276 336.908 229.522 337.732 232.994 338.198C233.221 338.696 233.595 339.255 233.458 339.812C233.298 339.869 233.123 339.953 232.955 339.977C229.633 339.592 225.355 338.834 222.549 341.14C221.218 342.234 220.438 343.919 220.155 345.595L219.854 345.424Z" fill="#2D7F2C"/>
<path d="M177.683 33.6097C183.822 22.3015 196.222 4.84911 208.975 1.12582C212.825 0.00152111 216.252 0.411062 219.759 2.35591C233.386 9.91411 241.971 25.7168 246.057 40.2481C249.06 50.9242 249.561 62.3484 243.915 72.2786C243.461 73.0772 242.961 73.877 242.409 74.6112C243.221 71.0136 244.381 67.6541 244.891 63.9596C246.26 54.0483 244.599 43.0438 239.401 34.3872C238.341 32.623 236.959 30.9786 235.711 29.3408C236.038 29.041 236.007 29.0375 236.139 28.6524C235.57 25.8979 230.883 19.2779 228.755 17.2041C226.225 13.8571 220.339 7.35819 215.953 6.77221C210.728 6.07396 204.288 10.1792 200.439 13.2991C197.741 15.4861 195.359 17.9943 193.098 20.623C187.884 26.686 170.406 50.0223 165.17 52.9286C164.752 53.1604 164.532 53.1702 164.072 53.1646C166.838 50.3484 170.372 46.8377 171.726 43.0837C172.643 40.9725 176.267 35.8086 177.683 33.6097Z" fill="#61B235"/>
<path d="M12.8382 221.125C13.0186 221.572 13.2093 222.008 13.3347 222.474C12.7987 226.95 16.2391 232.714 18.8694 236.082C23.6336 242.184 30.038 246.142 36.6898 249.853C38.6081 250.923 41.0576 251.98 42.7022 253.413C43.5654 253.92 44.4236 254.387 45.3244 254.825C47.9535 255.454 57.4586 261.388 60.6419 263.125C61.5569 263.625 62.7831 264.533 63.7834 264.714C65.5029 267.019 66.854 269.727 68.3728 272.182C70.1176 275.002 80.7782 291.764 82.7312 293.023L84.0317 293.318C85.0504 294.798 86.1423 296.262 87.0916 297.786C84.3735 297.405 77.5689 294.477 74.7728 293.279C73.5365 292.749 72.149 291.98 70.8595 291.636C69.8788 291.374 68.7391 291.737 67.6911 291.529L67.9833 291.407C68.3822 291.461 68.6845 291.406 69.0796 291.349L68.96 291.098C68.47 290.872 68.0141 290.704 67.4954 290.554L68.1842 290.27L68.2484 290.03L67.4118 289.464C63.8522 288.537 49.5461 279.481 46.6732 276.936C40.1329 272.914 31.2763 263.588 26.4891 257.52C19.0752 248.122 11.3955 233.404 12.8382 221.125Z" fill="#2D7F2C"/>
<path d="M46.6719 276.932L47.0262 276.773C48.167 277.581 51.9116 280.614 53.1097 280.743C52.0233 279.656 50.6661 279.187 49.6411 277.962L49.7251 277.911C53.6667 280.999 58.1528 283.581 62.5706 285.922C64.5223 286.957 66.9081 287.89 68.6903 289.146C68.2512 289.227 67.8197 289.277 67.4102 289.46C63.8508 288.533 49.5449 279.477 46.6719 276.932Z" fill="#0F521F"/>
<path d="M68.6922 289.148C73.8774 292.079 79.8984 294.229 85.4758 296.322C84.5735 295.271 83.4697 294.185 82.7315 293.022L84.032 293.317C85.0508 294.797 86.1427 296.261 87.092 297.785C84.3738 297.403 77.5693 294.476 74.7732 293.277C73.5368 292.747 72.1493 291.979 70.8599 291.635C69.8792 291.373 68.7394 291.735 67.6914 291.528L67.9837 291.405C68.3825 291.459 68.6848 291.405 69.08 291.348L68.9604 291.097C68.4704 290.871 68.0144 290.703 67.4957 290.553L68.1846 290.268L68.2487 290.029L67.4121 289.463C67.8216 289.28 68.2531 289.23 68.6922 289.148Z" fill="#091F12"/>
<path d="M45.3241 254.828C48.4073 256.818 51.6249 259.058 53.6272 262.204C54.4128 263.437 55.2422 264.872 54.8431 266.389C54.5932 267.341 53.9349 268.077 53.0939 268.562C51.3353 269.576 49.1818 269.364 47.3028 268.828C42.624 267.494 37.8912 263.336 35.5901 259.099C34.7654 257.579 33.9467 255.474 34.5456 253.752C34.7714 253.103 35.1977 252.608 35.8286 252.319C37.8652 251.388 40.7786 252.664 42.7022 253.415C43.5651 253.923 44.4235 254.39 45.3241 254.828Z" fill="#CE5E0C"/>
<path d="M131.843 31.4965C142.143 28.9503 153.81 28.0952 164.269 30.1789C168.704 30.8721 173.516 31.8921 177.681 33.6168C176.266 35.8156 172.642 40.9795 171.724 43.0908C170.37 46.8448 166.836 50.3555 164.071 53.1717C162.284 54.587 160.465 55.9339 158.536 57.1502C157.145 57.8137 155.73 58.4417 154.272 58.9456C148.29 61.0156 141.86 60.8062 136.157 57.9689C127.713 53.7685 123.222 44.9188 120.305 36.3466C119.969 35.9787 120.047 35.9538 120.014 35.4818C121.178 35.1138 122.35 34.4233 123.52 33.9923C126.248 32.9877 129.032 32.2251 131.843 31.4965Z" fill="#61B235"/>
<path d="M120.305 36.3516L120.404 36.5113C121.696 38.6284 122.649 40.9922 123.798 43.1942C127.618 50.512 132.521 56.6452 140.889 58.6819C147.187 60.2155 153.797 58.7701 159.266 55.4227C164.329 52.3236 168.023 47.6345 171.724 43.0957C170.369 46.8497 166.835 50.3604 164.07 53.1766C162.283 54.5919 160.465 55.9388 158.535 57.1551C157.144 57.8187 155.729 58.4467 154.272 58.9505C148.289 61.0206 141.859 60.8111 136.156 57.9738C127.713 53.7734 123.222 44.9237 120.305 36.3516Z" fill="#020101"/>
<path d="M131.845 31.4966C142.145 28.9503 153.811 28.0952 164.27 30.1789C165.32 31.3458 166.169 32.3106 166.047 33.9912C165.929 35.6028 164.85 36.8597 163.64 37.8293C158.476 41.9663 149.662 42.4889 143.385 41.6736C139.809 41.2089 135.233 40.0726 132.898 37.0846C131.778 35.6515 131.436 34.0495 131.704 32.2751C131.744 32.0146 131.791 31.7549 131.845 31.4966Z" fill="#F99D12"/>
<path d="M48.2741 292.965C51.5183 292.37 65.0628 290.33 67.4962 290.557C68.0146 290.706 68.4708 290.875 68.9608 291.101L69.0804 291.352C68.6851 291.409 68.383 291.463 67.9841 291.409L67.6919 291.532C68.7401 291.739 69.8796 291.376 70.8603 291.638C72.1498 291.982 73.5373 292.751 74.7736 293.281C77.5697 294.479 84.3743 297.407 87.0924 297.788C88.4582 299.973 89.0687 302.905 89.8045 305.362C89.9471 306.251 90.0997 306.771 89.6101 307.575C77.451 312.016 64.5957 315.134 52.0123 318.169C48.1884 319.091 44.2208 319.725 40.4415 320.785C40.3961 320.766 40.3442 320.757 40.306 320.726C40.2165 320.654 40.1022 320.59 40.0631 320.482C39.9932 320.291 40.3779 318.566 40.4109 318.2C40.5293 316.89 40.4808 315.8 40.1047 314.525L40.0284 314.275L40.2447 314.366C40.1389 314.234 39.9439 313.995 39.8588 313.86C39.6364 313.508 39.6445 313.385 39.3092 313.102C39.3186 313.705 39.3876 314.242 39.167 314.811C38.8286 313.933 38.8572 313.304 38.7249 312.409C38.5211 311.028 36.8871 309.66 35.9664 308.68C34.1646 307.876 32.2247 307.349 30.2366 307.451C26.1441 306.889 22.0291 306.489 17.928 305.992C18.7741 304.204 19.1546 302.451 18.8203 300.478L18.6181 300.251C18.4494 299.323 18.1678 298.456 17.873 297.563L37.2749 294.531C40.8959 293.967 44.6196 293.203 48.2741 292.965Z" fill="#61B235"/>
<path d="M18.8198 300.475C25.6994 300.345 32.6582 301.145 39.5274 301.51C46.4018 301.874 53.2797 301.866 60.1562 302.142C55.781 304.719 41.0104 308.615 35.9661 308.677C34.1643 307.873 32.2244 307.346 30.2363 307.448C26.1438 306.886 22.0288 306.486 17.9277 305.989C18.7736 304.201 19.1543 302.448 18.8198 300.475Z" fill="#43961D"/>
<path d="M48.2725 292.965C51.5166 292.37 65.0611 290.33 67.4946 290.557C68.013 290.706 68.4692 290.875 68.9592 291.101L69.0788 291.352C68.6835 291.409 68.3814 291.463 67.9825 291.409L67.6902 291.532C68.7384 291.739 69.878 291.376 70.8587 291.638C72.1481 291.982 73.5356 292.751 74.772 293.281C77.5681 294.479 84.3727 297.407 87.0908 297.788C88.4566 299.973 89.067 302.905 89.8029 305.362C89.9455 306.251 90.0981 306.771 89.6085 307.575C77.4494 312.016 64.5941 315.134 52.0106 318.169C48.1868 319.091 44.2191 319.725 40.4398 320.785C40.7317 319.335 40.8395 318.003 40.8519 316.528C40.708 315.404 40.4484 314.412 40.1074 313.336C47.9522 312.123 72.2608 306.213 77.8039 300.947C74.9514 299.926 71.5429 299.697 68.5442 299.189C63.5371 298.34 52.3437 295.47 48.2725 292.965Z" fill="#2D7F2C"/>
<path d="M89.8025 305.359C89.9451 306.248 90.0977 306.768 89.6081 307.572C77.449 312.013 64.5938 315.131 52.0103 318.167C48.1864 319.088 44.2188 319.722 40.4395 320.782C40.7313 319.332 40.8392 318 40.8515 316.525C40.9527 317.07 40.9397 317.634 41.3223 318.044C45.1221 317.591 49.03 316.313 52.7792 315.451C59.7136 313.855 66.7178 312.347 73.5696 310.424C79.0215 308.893 84.3769 306.989 89.8025 305.359Z" fill="#43961D"/>
<path d="M274.451 291.435C278.721 291.338 283.2 292.568 287.438 293.177C295.552 294.342 303.842 295.265 311.894 296.766C314.101 297.178 321.837 298.529 323.254 299.751C323.472 299.939 323.565 300.059 323.745 300.265C325.675 300.614 327.594 301.017 329.502 301.472L328.9 302.274C328.31 303.087 327.833 303.974 327.544 304.94C327.202 306.016 327.191 307.182 326.853 308.206L326.864 308.409C317.546 307.02 310.496 308.133 301.325 308.429C303.041 309.519 304.867 310.42 306.555 311.556C308.629 312.952 310.467 314.654 312.323 316.319C310.88 317.137 309.531 317.813 308.265 318.899C308.217 318.94 308.167 318.98 308.119 319.02C307.004 320.403 306.546 321.71 306.01 323.362C290.643 318.286 275.377 313.125 260.266 307.31C255.84 305.606 251.494 303.62 247.156 301.707C244.266 300.433 241.358 298.944 238.266 298.243C237.999 298.448 237.748 298.524 237.446 298.664C237.378 298.695 237.314 298.733 237.247 298.768L236.34 298.44C239.448 295.976 243.159 293.815 246.605 291.84L247.041 292.054C249.165 291.8 251.388 291.94 253.532 291.862C260.504 291.669 267.477 291.527 274.451 291.435Z" fill="#2D7F2C"/>
<path d="M246.605 291.828L247.041 292.042L246.801 292.613C247.993 293.477 251.556 293.165 253.108 293.345C249.691 295.623 246.144 296.484 242.177 297.299C240.883 297.565 239.491 297.734 238.266 298.231C237.999 298.436 237.748 298.512 237.446 298.652C237.378 298.683 237.314 298.721 237.247 298.756L236.34 298.428C239.448 295.964 243.159 293.803 246.605 291.828Z" fill="#0F521F"/>
<path d="M275.334 304.259C278.788 303.627 282.319 303.399 285.786 302.783C299.943 300.267 309.159 298.045 323.744 300.26C325.674 300.61 327.592 301.012 329.5 301.467L328.898 302.27C328.308 303.083 327.831 303.97 327.542 304.936C327.201 306.011 327.189 307.177 326.851 308.202L326.862 308.405C317.544 307.015 310.494 308.129 301.323 308.424C303.039 309.514 304.866 310.416 306.553 311.552C308.627 312.947 310.465 314.649 312.321 316.314C310.878 317.133 309.53 317.808 308.263 318.895C308.215 318.936 308.166 318.975 308.117 319.016C303.71 316.735 297.779 315.168 293.056 313.137C289.129 311.413 285.267 309.556 281.468 307.566C279.415 306.478 277.428 305.267 275.334 304.259Z" fill="#61B235"/>
<path d="M296.818 306.356C307.638 303.756 316.469 302.724 327.543 304.933C327.202 306.008 327.191 307.174 326.853 308.199L326.864 308.402C317.545 307.012 310.496 308.126 301.324 308.421L299.887 307.714C298.88 307.469 297.767 306.802 296.818 306.356Z" fill="#2D7F2C"/>
<path d="M299.887 307.717C302.82 307.922 305.929 307.006 308.87 306.747C311.542 306.511 325.175 306.142 326.797 307.586L326.853 308.201L326.864 308.405C317.545 307.015 310.496 308.128 301.324 308.424L299.887 307.717Z" fill="url(#paint0_linear_4689_10973)"/>
<path d="M28.1563 205.946C34.3471 203.203 42.0696 200.566 48.8409 200.203C47.8115 213.56 48.9969 226.393 52.9942 239.219C53.6523 241.04 54.9169 243.626 55.0729 245.494C55.5205 245.789 55.8637 246.217 55.9802 246.756C56.0471 247.064 56.0358 247.158 56.0389 247.449L55.7588 247.746C56.4738 248.265 59.0269 255.074 59.6125 256.369C60.9091 259.195 62.2999 261.974 63.7851 264.706C62.7847 264.525 61.5586 263.616 60.6436 263.117C57.4603 261.38 47.9554 255.446 45.3261 254.817C44.4252 254.379 43.5671 253.912 42.7039 253.404C41.0592 251.972 38.6097 250.915 36.6914 249.845C30.0397 246.134 23.6353 242.176 18.8711 236.074C16.2408 232.706 12.8003 226.941 13.3364 222.466C13.2109 222 13.0203 221.564 12.8398 221.117C12.8934 220.109 13.0612 218.966 13.4365 218.028C15.6558 212.489 22.9843 208.207 28.1563 205.946Z" fill="#61B235"/>
<path d="M55.758 247.754C45.6102 244.558 35.9195 238.044 30.1094 229.008C32.2497 231.138 34.1517 233.818 36.707 235.457C41.0235 239.838 49.312 243.72 55.0721 245.502C55.5197 245.797 55.863 246.225 55.9794 246.764C56.0463 247.073 56.035 247.166 56.0381 247.457L55.758 247.754Z" fill="#091F12"/>
<path d="M36.7051 235.453C42.3607 237.021 47.1359 238.354 52.9914 239.223C53.6495 241.045 54.914 243.631 55.07 245.498C49.3101 243.716 41.0217 239.835 36.7051 235.453Z" fill="#2D7F2C"/>
<path d="M12.8398 221.123C12.8934 220.115 13.0612 218.972 13.4365 218.035C15.6556 212.496 22.9841 208.213 28.1561 205.953C30.5153 207.179 32.341 208.909 33.1118 211.534C33.874 214.131 33.3649 216.804 32.0322 219.117C30.0932 222.483 26.4669 225.381 22.6834 226.346C20.4683 226.911 17.9249 226.763 15.9602 225.509C14.8549 224.804 13.8611 223.676 13.3364 222.472C13.2109 222.006 13.0203 221.57 12.8398 221.123Z" fill="#DC7D0C"/>
<path d="M211.293 187.906C221.515 179.898 229.149 170.488 241.567 165.289C244.564 170.992 247.745 176.703 249.517 182.935C252.522 193.502 249.819 207.473 246.596 217.821C242.547 230.82 236.594 243.892 229.452 255.498C227.656 258.389 225.79 261.233 223.853 264.031C222.779 265.588 220.725 267.968 220.072 269.639L220.347 269.665C220.313 269.915 220.299 270.142 220.152 270.358C219.422 271.434 214.14 277.401 213.159 278.198C212.753 279.166 212.665 279.97 212.671 281.012L212.435 279.921C211.853 280.301 204.203 293.159 203.79 294.449C202.459 296.062 201.718 297.374 201.598 299.515L201.497 300.11C199.629 303.456 196.313 308.368 197.41 312.386C197.8 313.817 198.788 314.882 200.075 315.579C201.582 316.394 203.703 316.818 205.374 316.298C205.764 316.176 205.698 316.196 206.019 316.053C210.966 314.651 215.121 310.464 218.524 306.813C217.079 309.669 215.583 312.583 214.649 315.653C212.454 322.874 214.141 330.89 216.436 337.894C217.269 340.436 218.279 343.233 219.854 345.422L220.155 345.593C220.269 345.641 220.383 345.69 220.498 345.736C224.274 347.253 226.78 346.565 228.815 351.271C229.759 353.452 229.652 355.938 228.743 358.111C227.716 360.562 225.767 362.373 223.301 363.333C221.033 364.216 218.47 364.259 216.236 363.244C214.037 362.244 212.377 360.233 211.573 357.978C211.428 357.568 211.291 357.156 211.162 356.742C210.926 354.484 211.994 353.013 212.549 350.924L212.629 350.613C209.922 346.999 206.484 343.783 201.872 342.982C195.771 341.922 190.65 346.205 185.951 349.441C185.258 348.607 184.763 347.095 184.275 346.091C182.472 344.286 180.703 343.376 178.156 343.064C178.035 343.037 177.911 343.018 177.792 342.983C177.335 342.848 177.229 342.852 177.025 342.421C177.09 342.395 177.154 342.37 177.219 342.343C179.265 341.486 181.022 339.721 181.864 337.668C181.186 336.292 180.186 335.224 178.875 334.417C176.905 333.205 174.901 332.925 172.677 333.458C172.483 333.69 172.526 333.589 172.448 333.863C172.152 334.898 171.874 335.983 171.417 336.961C170.464 339.003 168.221 340.699 166.137 341.434C164.023 342.179 161.784 342.028 159.774 341.038C157.467 339.901 155.631 337.728 154.871 335.273C154.121 332.846 154.442 330.081 155.646 327.855C157.421 324.574 161.01 322.51 164.758 322.846C166.421 322.996 168.036 323.596 169.71 323.704C171.39 323.811 173.142 323.545 174.745 323.047C182.087 320.768 187.647 311.794 191.106 305.317L189.606 305.758C189.737 304.471 193.096 297.281 193.828 295.256C197.265 285.753 200.813 275.895 203.042 266.041C208.044 249.568 211.954 232.289 212.323 215.012C212.208 212.524 212.36 209.98 212.358 207.485C212.352 201.133 212.215 194.507 211.187 188.232L211.293 187.906Z" fill="#61B235"/>
<path d="M220.073 269.641L220.347 269.667C220.314 269.916 220.3 270.144 220.153 270.36C219.423 271.435 214.141 277.403 213.16 278.2C213.219 277.934 213.28 277.68 213.367 277.422C214.521 274.011 216.864 271.264 220.073 269.641Z" fill="#F99D12"/>
<path d="M171.693 329.263C175.426 328.309 181.917 325.481 185.315 327.613C186.105 328.109 186.92 328.819 187.113 329.777C187.331 330.859 186.692 331.964 186.067 332.795C185.369 333.722 182.719 337.357 181.864 337.671C181.187 336.295 180.187 335.227 178.876 334.42C176.905 333.208 174.902 332.927 172.678 333.461C172.139 332.128 172.089 330.641 171.693 329.263Z" fill="#2D7F2C"/>
<path d="M212.322 215.01C212.451 214.098 212.56 213.183 212.648 212.266C212.799 221.024 212.459 229.69 211.121 238.363C209.667 247.793 207.09 257.081 204.497 266.249C201.522 276.761 198.402 287.187 194.524 297.409C193.604 299.835 192.661 303.255 191.105 305.315L189.605 305.756C189.737 304.469 193.095 297.279 193.827 295.255C197.264 285.751 200.812 275.893 203.041 266.04C208.044 249.566 211.953 232.287 212.322 215.01Z" fill="url(#paint1_linear_4689_10973)"/>
<path d="M162.014 324.143C163.508 323.96 165.221 324.06 166.575 324.755C166.713 324.824 166.847 324.901 166.977 324.984C167.107 325.068 167.233 325.158 167.354 325.254C167.474 325.351 167.589 325.454 167.699 325.563C167.809 325.672 167.913 325.787 168.011 325.907C168.108 326.027 168.2 326.152 168.284 326.281C168.369 326.41 168.446 326.544 168.516 326.682C168.587 326.819 168.65 326.961 168.705 327.105C168.761 327.249 168.809 327.396 168.849 327.546C169.314 329.292 168.769 331.115 167.849 332.616C166.481 334.85 164.454 336.299 161.91 336.859C160.487 336.903 159.354 336.758 158.094 336.047C156.772 335.3 155.695 333.911 155.367 332.417C154.974 330.622 155.909 328.749 156.921 327.31C158.291 325.361 159.729 324.557 162.014 324.143Z" fill="#91DB4F"/>
<path d="M162.292 325.61C162.771 325.559 163.314 325.505 163.792 325.566C164.309 325.632 164.877 325.951 165.169 326.384C165.534 326.924 165.507 327.567 165.327 328.161C164.831 329.8 163.717 330.718 162.252 331.485C161.617 331.521 160.979 331.545 160.372 331.32C159.783 331.1 159.236 330.706 159.022 330.087C158.831 329.531 158.949 328.892 159.163 328.363C159.773 326.85 160.894 326.252 162.292 325.61Z" fill="#C4EF9A"/>
<path d="M214.055 349.072C216.528 347.546 219.168 346.297 222.154 347.057C223.971 347.52 225.615 348.711 226.501 350.38C227.255 351.801 227.306 353.412 226.795 354.923C226.717 355.158 226.626 355.389 226.525 355.615C226.423 355.841 226.31 356.062 226.186 356.277C226.063 356.491 225.928 356.7 225.783 356.901C225.639 357.103 225.485 357.297 225.321 357.483C225.157 357.669 224.984 357.846 224.802 358.015C224.621 358.184 224.431 358.343 224.234 358.493C224.036 358.643 223.831 358.783 223.62 358.912C223.408 359.042 223.191 359.161 222.967 359.268C221.237 360.111 218.52 360.46 216.651 359.804C214.494 359.047 212.811 355.929 211.569 355.598C211.237 356.038 211.252 356.208 211.163 356.739C210.926 354.48 211.994 353.009 212.549 350.921L212.63 350.61C213.097 350.09 213.572 349.578 214.055 349.072Z" fill="#91DB4F"/>
<path d="M217.437 349.781C217.815 349.945 218.155 350.126 218.567 350.177C218.959 350.476 219.382 350.781 219.696 351.165C220.289 351.89 220.396 352.671 220.302 353.582C220.205 354.51 219.849 355.442 219.085 356.023C218.365 356.572 217.353 356.747 216.477 356.553C215.572 356.352 214.84 355.775 214.383 354.974C214.007 354.316 213.917 353.532 214.172 352.814C214.655 351.455 216.183 350.362 217.437 349.781Z" fill="#C4EF9A"/>
<path d="M184.275 346.091C187.738 342.322 195.851 333.072 201.099 332.886C202.978 332.82 204.573 333.746 205.882 335.026C209.454 338.516 212.097 344.5 214.055 349.075C213.572 349.58 213.097 350.093 212.63 350.613C209.923 346.998 206.484 343.782 201.873 342.981C195.771 341.922 190.65 346.205 185.951 349.44C185.258 348.607 184.763 347.095 184.275 346.091Z" fill="#2D7F2C"/>
<path d="M231.972 188.642C232.196 188.625 232.42 188.617 232.644 188.617C232.868 188.618 233.092 188.627 233.316 188.645C233.539 188.663 233.762 188.69 233.983 188.726C234.205 188.762 234.424 188.806 234.642 188.859C234.86 188.912 235.076 188.974 235.289 189.044C235.502 189.114 235.712 189.193 235.919 189.279C236.126 189.366 236.329 189.461 236.528 189.563C236.728 189.666 236.923 189.776 237.114 189.895C240.278 191.829 242.096 195.569 242.936 199.064C244.215 204.39 243.554 210.546 240.607 215.229C238.84 218.037 236.47 220.063 233.172 220.81C231.127 220.97 229.232 220.541 227.512 219.391C224.219 217.188 222.555 212.923 221.868 209.172C220.91 203.938 221.804 197.818 224.886 193.397C226.655 190.861 228.891 189.21 231.972 188.642Z" fill="#91DB4F"/>
<path d="M62.6783 155.328C63.1692 155.936 63.6481 156.297 64.3006 156.722L64.2847 156.819C66.1102 158.697 70.4466 162.993 71.7838 164.915C75.5219 168.636 79.607 171.96 83.7595 175.204C83.4493 178.002 82.9327 180.77 82.6015 183.565C82.5762 184.522 82.5183 185.469 82.4464 186.424C82.2742 195.213 83.305 203.584 84.593 212.262C87.0546 227.6 94.7811 248.337 101.088 262.714C102.262 265.389 103.314 268.415 104.784 270.927C105.741 274.737 108.796 278.714 109.693 282.317C112.642 284.447 115.483 286.74 118.458 288.828C120.571 290.312 122.806 291.61 124.979 293.001C121.841 294.037 118.685 294.871 115.486 295.692C118.455 301.821 121.92 307.279 126.335 312.46C127.993 314.405 129.838 316.214 131.449 318.189C132.596 319.169 133.596 320.315 134.777 321.253C137.112 323.107 139.813 324.71 142.383 326.218C141.654 327.538 141.009 328.723 140.726 330.223C140.703 331.317 140.863 332.405 140.828 333.486C137.179 331.352 132.512 328.784 128.129 329.916C125.264 330.657 123.144 332.838 121.753 335.357C120.913 336.877 120.295 338.576 119.849 340.253C121.927 342.082 123.587 344.382 123.747 347.248C123.875 349.55 122.905 351.806 121.32 353.451C119.596 355.242 117.192 356.163 114.727 356.194C112.146 356.227 109.581 355.351 107.756 353.487C105.911 351.603 105.205 349.066 105.318 346.48C105.399 344.615 106.521 343.469 106.96 341.785C106.172 338.772 105.107 335.257 102.198 333.602C100.767 332.787 99.2004 332.791 97.6552 333.263C93.3225 334.587 88.6539 338.817 85.6726 342.099L85.1019 342.704C85.0308 342.657 84.9104 342.647 84.8886 342.565C84.8326 342.354 85.3954 340.845 85.4357 340.457C85.5252 339.591 85.3381 338.64 85.1359 337.799C84.5905 335.53 83.5195 333.198 81.4484 331.939C81.6934 332.521 82.0714 333.029 82.4226 333.552L82.3181 333.717C81.8653 333.037 81.2086 332.22 80.5064 331.794C79.758 331.341 78.9565 331.039 78.5927 330.229C78.9916 330.316 79.3894 330.392 79.7906 330.466C79.9601 330.347 80.045 330.296 80.1903 330.164C82.9722 327.637 87.2944 317.759 88.4802 313.914C89.1176 311.845 89.5447 309.74 89.6081 307.574C90.0977 306.77 89.9448 306.249 89.8025 305.361C89.0666 302.903 88.4564 299.972 87.0904 297.787C86.1411 296.263 85.0492 294.799 84.0304 293.319L82.7299 293.024C80.7769 291.765 70.1163 275.003 68.3715 272.183C66.8525 269.727 65.5014 267.02 63.7821 264.715C62.2968 261.983 60.906 259.204 59.6096 256.378C59.024 255.083 56.4708 248.275 55.7559 247.755L56.036 247.458C56.0327 247.167 56.0442 247.073 55.9773 246.765C55.8608 246.226 55.5175 245.798 55.07 245.503C54.914 243.635 53.6494 241.049 52.9913 239.228C48.994 226.402 47.8086 213.569 48.838 200.212C50.3196 185.245 55.5173 168.533 62.6783 155.328Z" fill="#61B235"/>
<path d="M71.7832 164.914C75.5213 168.635 79.6065 171.959 83.759 175.203C83.4487 178.001 82.9321 180.769 82.601 183.564C80.8823 181.627 72.6851 167.428 71.7832 164.914Z" fill="#2D7F2C"/>
<path d="M112.417 340.301C113.554 340.174 114.653 340.17 115.769 340.462C117.472 340.908 118.546 341.93 119.447 343.388C119.65 345.147 119.634 346.24 118.741 347.832C117.795 349.52 116.181 350.716 114.336 351.247C112.741 351.653 111.224 351.578 109.736 350.808C108.51 350.175 107.518 349.062 107.146 347.721C106.76 346.329 107.139 344.833 107.849 343.611C108.883 341.831 110.462 340.818 112.417 340.301Z" fill="#91DB4F"/>
<path d="M112.183 341.328C112.419 341.362 112.533 341.374 112.781 341.435C113.483 341.607 114.077 341.885 114.433 342.561C114.749 343.161 114.711 343.819 114.5 344.441C114.057 345.749 113.185 346.44 111.996 347.045C111.607 347.02 111.195 346.999 110.833 346.841C110.756 346.807 110.68 346.769 110.606 346.726C110.533 346.684 110.461 346.638 110.393 346.589C110.323 346.539 110.257 346.486 110.194 346.43C110.13 346.374 110.07 346.314 110.013 346.251C109.955 346.189 109.901 346.123 109.85 346.055C109.8 345.987 109.753 345.916 109.71 345.844C109.666 345.771 109.627 345.696 109.591 345.618C109.556 345.541 109.524 345.462 109.497 345.382C109.241 344.612 109.4 343.762 109.756 343.05C110.304 341.953 111.06 341.662 112.183 341.328Z" fill="#C4EF9A"/>
<path d="M84.2676 334.283C89.0278 331.36 92.1128 326.374 96.3813 323.372C97.206 322.792 98.1587 322.324 99.1835 322.291C100.361 322.252 101.363 322.814 102.15 323.658C104.296 325.959 108.251 336.518 108.141 339.605C108.104 340.646 107.664 341.089 106.96 341.779C106.172 338.766 105.107 335.251 102.198 333.595C100.767 332.781 99.2002 332.784 97.6551 333.256C93.3224 334.58 88.6538 338.811 85.6724 342.092C85.9001 339.199 85.5 336.924 84.2676 334.283Z" fill="#2D7F2C"/>
<path d="M81.0996 249.211L81.3352 249.41C81.9505 253.011 82.3475 256.648 82.8916 260.261C83.6785 265.397 84.5607 270.518 85.5383 275.622L85.4852 275.758L85.2276 275.771C81.8459 275.915 78.9516 275.162 76.4195 272.819C73.342 269.971 71.3879 265.48 71.2466 261.306C71.1318 257.93 71.9655 253.983 74.4123 251.509C76.344 249.556 78.4847 249.198 81.0996 249.211Z" fill="#F99D12"/>
<path d="M62.6781 155.328C63.169 155.936 63.6479 156.297 64.3004 156.722L64.2845 156.819C62.2542 161.344 60.4379 165.953 58.8359 170.647C57.2337 175.341 55.8527 180.099 54.6932 184.921C49.3611 207.899 50.713 225.9 58.9206 247.986C63.8403 261.226 70.6992 273.183 78.3847 284.983C80.216 287.795 82.2029 290.507 84.0304 293.319L82.7299 293.024C80.7769 291.765 70.1163 275.003 68.3715 272.182C66.8525 269.727 65.5014 267.02 63.7821 264.715C62.2968 261.983 60.906 259.204 59.6096 256.378C59.024 255.083 56.4708 248.274 55.7559 247.755L56.036 247.458C56.0327 247.167 56.0442 247.073 55.9773 246.764C55.8608 246.226 55.5175 245.798 55.07 245.503C54.914 243.635 53.6494 241.049 52.9913 239.227C48.994 226.402 47.8086 213.569 48.838 200.212C50.3194 185.245 55.5171 168.533 62.6781 155.328Z" fill="#0F521F"/>
<path d="M80.6803 223.243C80.0634 224.472 79.4398 225.691 78.6639 226.829C76.865 229.47 74.1304 231.832 70.8925 232.376C68.7779 232.731 66.6999 232.19 64.9867 230.913C61.3401 228.193 59.1965 222.69 58.5574 218.328C57.7546 212.848 58.8333 206.524 62.2412 202.046C63.7259 200.096 66.3623 198.086 68.8735 197.818C70.9069 197.6 73.273 198.647 74.8177 199.908C78.9029 203.243 80.4652 209.738 80.8829 214.742C81.0426 216.655 80.9458 218.602 81.1822 220.503L81.2054 220.676C81.1116 221.563 80.905 222.383 80.6803 223.243Z" fill="#91DB4F"/>
<path d="M81.2046 220.673C82.3527 219.125 83.1911 214.464 84.2029 212.358L84.5932 212.258C87.0548 227.596 94.7813 248.333 101.089 262.71C102.262 265.385 103.315 268.411 104.785 270.923C105.741 274.733 108.797 278.711 109.693 282.313C112.642 284.443 115.483 286.736 118.458 288.824C120.571 290.308 122.806 291.606 124.98 292.997C121.841 294.033 118.686 294.867 115.486 295.688C118.455 301.817 121.921 307.275 126.335 312.456C127.993 314.401 129.838 316.21 131.449 318.186C132.597 319.165 133.596 320.311 134.777 321.249C137.112 323.104 139.813 324.706 142.384 326.214C141.654 327.534 141.009 328.719 140.726 330.219C140.703 331.313 140.863 332.402 140.828 333.482C137.179 331.348 132.513 328.78 128.129 329.912C125.264 330.653 123.145 332.834 121.753 335.353C120.913 336.873 120.295 338.572 119.849 340.249C119.056 339.658 118.186 339.319 117.224 339.127C116.852 332.896 115.98 326.811 115.819 320.542C109.938 319.913 103.347 316.296 98.6455 312.802C96.5591 311.252 93.7302 309.299 92.3272 307.132C89.436 302.666 86.3833 281.928 85.4854 275.757L85.5385 275.621C84.561 270.517 83.6788 265.396 82.8919 260.26C82.3475 256.647 81.9507 253.009 81.3355 249.409L81.0999 249.21C80.1292 243.239 79.971 236.923 80.235 230.886C80.3452 228.36 80.803 225.759 80.6793 223.241C80.9042 222.38 81.1107 221.56 81.2046 220.673Z" fill="#2D7F2C"/>
<path d="M109.693 282.312C112.643 284.443 115.484 286.735 118.458 288.824C120.571 290.308 122.806 291.606 124.98 292.997C121.841 294.033 118.686 294.867 115.486 295.688C118.455 301.816 121.921 307.275 126.335 312.456C127.993 314.401 129.838 316.209 131.449 318.185C131.285 318.374 131.401 318.264 131.052 318.458C130.824 318.379 130.631 318.311 130.429 318.174C128.976 317.182 127.639 315.538 126.435 314.252C119.117 306.444 115.66 299.021 112.013 289.172C111.187 286.94 110.164 284.651 109.693 282.312Z" fill="#0F521F"/>
<path d="M95.9834 277.203C96.6543 277.297 97.2639 277.427 97.88 277.718C101.008 279.196 103.566 282.987 104.738 286.143C105.413 287.959 105.886 290.207 104.987 292.027C104.415 293.186 103.602 293.601 102.423 294.004C101.393 293.91 100.423 293.715 99.4947 293.239C96.4548 291.682 94.0589 288.338 93.0646 285.12C92.5102 283.326 92.1765 281.022 93.1541 279.322C93.8372 278.134 94.7017 277.582 95.9834 277.203Z" fill="#CE5E0C"/>
<path d="M81.3359 249.414C85.206 250.884 87.6358 254.354 89.2732 258.014C90.9935 261.859 92.0145 266.835 90.5137 270.915C89.7922 272.876 88.3529 274.535 86.4089 275.357C86.1248 275.477 85.8396 275.559 85.5392 275.626C84.5617 270.522 83.6794 265.401 82.8926 260.264C82.3482 256.652 81.9512 253.015 81.3359 249.414Z" fill="#CE5E0C"/>
<path d="M257.526 101.648C262.038 106.241 266.16 111.306 270.183 116.326C273.198 120.089 276.307 123.813 279.063 127.771C293.921 149.12 304.374 174.53 307.651 200.401C315.739 201.512 323.136 203.444 330.629 206.739C335.812 208.964 342.217 213.052 344.337 218.584C344.666 219.442 344.867 220.276 345.03 221.178C345.32 222.731 345.736 225.063 345.249 226.586C344.666 241.091 334.498 254.161 324.205 263.672C313.139 273.898 300.779 282.6 286.62 287.96C284.257 288.854 281.837 289.506 279.435 290.276C278.013 291.083 276.641 291.2 275.05 291.335C274.717 291.363 274.838 291.351 274.451 291.433C267.477 291.525 260.504 291.667 253.532 291.86C251.388 291.938 249.165 291.797 247.041 292.051L246.605 291.838C243.159 293.812 239.448 295.973 236.34 298.438C230.896 301.369 225.669 304.767 219.891 307.036L220.221 305.591C219.556 305.682 219.043 306.136 218.636 306.653C218.595 306.705 218.562 306.762 218.525 306.817C215.122 310.467 210.967 314.655 206.02 316.056C205.699 316.199 205.765 316.179 205.374 316.301C203.704 316.821 201.583 316.398 200.076 315.582C198.789 314.885 197.801 313.821 197.411 312.39C196.314 308.371 199.63 303.459 201.498 300.113L201.599 299.518C201.718 297.377 202.46 296.066 203.791 294.453C204.204 293.163 211.854 280.304 212.435 279.924L212.672 281.016C212.666 279.973 212.754 279.17 213.16 278.202C214.141 277.405 219.423 271.437 220.153 270.362C220.3 270.146 220.314 269.918 220.347 269.669L220.073 269.643C220.726 267.971 222.78 265.592 223.854 264.034C225.791 261.236 227.657 258.392 229.452 255.502C236.595 243.895 242.548 230.824 246.597 217.824C249.82 207.476 252.523 193.505 249.517 182.938C247.745 176.706 244.564 170.995 241.568 165.293C229.15 170.492 221.516 179.901 211.294 187.909C210.903 184.332 210.434 180.764 209.887 177.207C219.02 171.335 227.833 164.982 234.898 156.642C236.154 155.701 237.321 154.04 238.305 152.814C243.482 146.363 248.185 139.388 251.732 131.901C252.703 128.684 254.18 125.628 255.128 122.387L256.308 118.321L256.46 117.16C256.587 116.83 256.559 116.494 256.571 116.142C259.106 111.888 258.364 106.235 257.526 101.648Z" fill="#2D7F2C"/>
<path d="M291.1 253.995C292.241 252.768 294.382 251.717 295.789 250.73C297.191 249.745 298.537 248.665 299.902 247.628C305.985 243.014 311.793 238.219 317.424 233.062L317.722 233.145C310.805 240.48 305.376 246.129 297.051 251.937C295.381 253.102 293.653 254.411 291.879 255.402C291.474 255.469 291.59 255.425 291.282 255.546C290.878 255.704 290.618 255.866 290.171 255.771C290.149 255.1 290.689 254.499 291.1 253.995Z" fill="#020101"/>
<path d="M206.275 293.609C207.704 294.014 208.94 294.558 209.715 295.904C210.397 297.088 210.419 298.597 210.032 299.881C209.578 301.387 208.539 302.763 207.136 303.501C206.274 303.953 205.247 304.164 204.3 303.868C203.354 303.574 202.58 302.794 202.143 301.922C201.857 301.351 201.669 300.732 201.496 300.118L201.597 299.523C201.716 297.382 202.458 296.071 203.789 294.458C204.631 294.025 205.341 293.767 206.275 293.609Z" fill="#DC7D0C"/>
<path d="M203.79 294.458C204.632 294.026 205.341 293.767 206.276 293.609C205.199 295.75 203.257 297.801 201.598 299.523C201.717 297.382 202.459 296.071 203.79 294.458Z" fill="#F99D12"/>
<path d="M287.537 252.164L287.662 252.522C286.999 253.909 285.667 254.92 285.056 256.24C285.554 256.453 285.888 256.54 286.424 256.296C287.56 255.781 288.814 254.428 290.068 254.407L291.102 253.99C290.691 254.495 290.15 255.095 290.172 255.766C290.62 255.861 290.879 255.7 291.284 255.541C291.592 255.421 291.476 255.464 291.88 255.397C290.088 256.741 288.176 258.077 286.503 259.565C279.366 266.018 273.069 273.424 265.233 279.112L265.194 278.88C264.508 279.004 261.733 281.531 261.078 282.099C262.372 280.567 264.08 279.103 265.637 277.837C265.954 277.58 265.892 277.425 265.966 277.037C266.743 275.853 272.554 270.741 274.074 269.106C279.011 263.791 283.312 258.045 287.537 252.164Z" fill="#0F521F"/>
<path d="M290.068 254.409L291.101 253.992C290.69 254.497 290.15 255.097 290.172 255.768C290.62 255.863 290.879 255.702 291.283 255.543C291.591 255.423 291.475 255.466 291.88 255.399C290.088 256.743 288.175 258.078 286.503 259.567C285.947 259.008 285.572 258.528 285.455 257.727C285.798 256.37 288.839 255.64 289.905 254.594C289.964 254.536 290.014 254.471 290.068 254.409Z" fill="url(#paint2_linear_4689_10973)"/>
<path d="M220.345 269.663C222.268 269.441 224.21 269.801 225.742 271.051C227.442 272.436 228.341 274.661 228.506 276.808C228.761 280.13 227.233 283.803 225.02 286.246C223.599 287.816 221.676 289.084 219.501 289.143C217.929 289.185 216.325 288.629 215.223 287.489C213.66 285.872 212.738 283.25 212.67 281.01C212.664 279.968 212.752 279.164 213.158 278.196C214.139 277.399 219.421 271.432 220.151 270.356C220.298 270.14 220.312 269.913 220.345 269.663Z" fill="#DC7D0C"/>
<path d="M255.127 122.383C257.504 122.62 259.371 123.302 261.461 124.429C263.537 126.749 265.246 129.107 266.535 131.953L266.648 132.353C267.502 135.378 268.27 138.956 266.537 141.834C265.88 142.927 264.883 143.704 263.638 144.005C261.862 144.436 259.988 143.823 258.473 142.896C254.52 140.478 252.774 136.201 251.73 131.897C252.702 128.68 254.178 125.624 255.127 122.383Z" fill="#CE5E0C"/>
<path d="M345.029 221.181C344.57 221.998 344.291 222.942 343.89 223.796C343.176 225.314 341.907 226.405 340.313 226.934C338.152 227.651 335.833 227.06 333.889 226.005C330.513 224.175 328.007 220.866 326.916 217.211C326.182 214.751 325.88 211.682 327.196 209.375C328.006 207.955 329.092 207.203 330.629 206.742C335.812 208.968 342.216 213.055 344.337 218.587C344.665 219.445 344.866 220.279 345.029 221.181Z" fill="#CE5E0C"/>
<path d="M257.964 285.03C262.18 286.416 272.981 289.644 277.107 289.223C280.942 288.833 286.378 286.396 289.982 284.815C309.613 276.202 330.72 258.922 340.435 239.511C341.151 238.077 341.802 236.614 342.39 235.123C342.978 233.632 343.5 232.118 343.955 230.582C344.339 229.264 344.478 227.834 344.973 226.562L345.248 226.59C344.665 241.095 334.497 254.165 324.204 263.676C313.138 273.902 300.778 282.604 286.618 287.964C284.256 288.858 281.836 289.51 279.434 290.28C278.012 291.087 276.639 291.204 275.049 291.339C274.716 291.367 274.837 291.355 274.45 291.437C267.476 291.528 260.503 291.671 253.531 291.864C251.387 291.942 249.164 291.801 247.04 292.055L246.604 291.841C248.511 290.522 250.514 289.359 252.403 287.998C257.137 284.584 261.561 280.868 265.964 277.045C265.89 277.433 265.952 277.588 265.636 277.845C264.078 279.111 262.37 280.575 261.076 282.107C261.731 281.538 264.506 279.012 265.192 278.888L265.231 279.12C262.925 281.212 260.394 283.083 257.964 285.03Z" fill="url(#paint3_linear_4689_10973)"/>
<path d="M256.931 286.109C258.539 286.298 260.57 287.352 262.159 287.897C264.552 288.715 266.964 289.472 269.396 290.17C267.121 290.289 264.846 290.384 262.569 290.455L250.086 290.58C252.538 289.422 254.74 287.689 256.931 286.109Z" fill="#2D7F2C"/>
<path d="M286.752 189.743C282.617 187.99 278.905 184.849 275.953 181.514C271.362 176.326 267.575 168.742 268.041 161.644C268.206 159.132 269.047 156.644 271.019 154.975C273.103 153.212 275.413 152.927 278.021 153.11L278.146 153.234C279.046 158.12 280.471 162.976 281.687 167.794C282.967 172.871 284.068 177.953 285.169 183.07C285.628 185.206 286.585 187.594 286.752 189.743Z" fill="#DC7D0C"/>
<path d="M206.02 316.054C206.79 314.797 209.518 313.296 210.701 312.12C215.365 307.481 219.039 301.876 222.864 296.557C225.433 292.985 228.049 289.44 230.388 285.71C243.002 265.589 254.81 237.093 255.945 213.14C256.236 207.001 255.674 200.69 254.542 194.655C253.174 187.363 250.637 180.528 247.805 173.697C247.472 172.892 244.234 165.471 244.235 165.344L244.822 165.962C257.109 184.498 260.71 206.565 256.288 228.279C254.823 235.473 252.919 242.987 250.319 249.852C249.243 252.849 248.12 255.754 246.873 258.685C259.729 254.622 272.628 249.996 283.851 242.366C286.038 240.879 288.091 239.171 290.159 237.525C294.033 234.44 296.776 232.467 299.511 228.218L299.714 228.264C299.531 229.15 298.701 230.262 298.228 231.04C295.581 234.581 292.267 237.433 288.856 240.208C276.112 250.575 261.476 257.05 245.61 261.016C243.58 265.871 241.349 270.631 238.918 275.298C236.488 279.964 233.865 284.521 231.051 288.967C227.544 294.572 223.702 299.968 220.222 305.589C219.556 305.679 219.043 306.133 218.636 306.651C218.595 306.702 218.562 306.76 218.525 306.814C215.122 310.465 210.967 314.652 206.02 316.054Z" fill="#0F521F"/>
<path d="M278.146 153.234C285.661 155.134 290.733 160.519 294.6 167.012C297.26 171.478 303.148 184.317 303.339 189.133C301.258 191.242 299.016 192.286 296.003 192.297C293.393 192.306 288.809 191.364 286.753 189.743C286.586 187.594 285.629 185.206 285.17 183.07C284.069 177.953 282.968 172.871 281.687 167.795C280.472 162.976 279.047 158.121 278.146 153.234Z" fill="#CE5E0C"/>
<path d="M314.17 255.075C314.866 256.875 315.189 258.544 314.838 260.471C314.038 264.87 310.164 268.512 306.693 270.997C302.094 274.29 295.05 278.335 289.118 277.211C287.375 276.88 285.789 276.031 284.833 274.493C283.649 272.586 283.609 270.129 284.18 268.015C285.849 261.842 291.866 257.011 297.181 253.994C300.44 252.144 304.766 250.093 308.597 251.161C310.551 251.422 312.236 252.643 313.429 254.177C313.61 254.413 313.783 254.653 313.95 254.899L314.17 255.075Z" fill="#CE5E0C"/>
<path d="M308.598 251.164C310.552 251.425 312.237 252.646 313.43 254.18C313.611 254.416 313.785 254.657 313.951 254.903C311.838 255.64 309.658 257.232 307.672 258.3C308.158 255.825 308.954 254.19 310.197 252.036C309.9 251.612 309.091 251.603 308.582 251.496L308.598 251.164Z" fill="#F99D12"/>
<path d="M308.717 215.734C319.032 219.717 328.24 226.862 336.927 233.531C330.905 242.58 323.305 249.323 314.169 255.082L313.949 254.907C313.782 254.661 313.609 254.42 313.428 254.184C312.235 252.65 310.55 251.429 308.596 251.168C310.129 247.984 318.19 235.749 317.722 233.146C318.628 232.264 319.363 231.232 320.212 230.297C316.347 232.794 311.525 235.922 306.66 234.808C306.238 234.711 305.915 234.633 305.65 234.278C306.122 231.172 306.946 228.147 307.544 225.066C308.14 221.992 308.466 218.853 308.717 215.734Z" fill="#61B235"/>
<path d="M257.527 101.648C262.038 106.241 266.161 111.306 270.183 116.326C273.198 120.089 276.308 123.813 279.063 127.771C293.921 149.12 304.374 174.53 307.652 200.401C308.997 216.534 306.202 226.701 300.29 241.466C300.827 236.559 302.435 231.911 303.527 227.119C306.418 214.437 306.62 201.764 303.339 189.138C303.149 184.322 297.261 171.483 294.601 167.017C290.734 160.524 285.661 155.139 278.147 153.24L278.023 153.116C276.672 149.839 269.006 133.446 266.537 131.958C265.248 129.112 263.539 126.753 261.463 124.434C259.373 123.306 257.506 122.624 255.129 122.387L256.309 118.321L256.461 117.16C256.587 116.831 256.56 116.494 256.572 116.143C259.106 111.888 258.364 106.235 257.527 101.648Z" fill="url(#paint4_linear_4689_10973)"/>
<path d="M255.127 122.386L256.307 118.32C258.062 119.92 260.654 122.152 261.461 124.433C259.371 123.305 257.504 122.623 255.127 122.386Z" fill="#2D7F2C"/>
<path d="M298.227 231.039C298.075 234.324 292.703 243.678 290.859 246.752C289.795 248.525 288.449 250.327 287.536 252.164C283.311 258.045 279.01 263.791 274.073 269.106C272.553 270.742 266.742 275.853 265.965 277.037C261.561 280.86 257.138 284.576 252.403 287.99C250.515 289.352 248.511 290.514 246.604 291.834C243.159 293.808 239.447 295.97 236.339 298.434C230.896 301.366 225.669 304.763 219.891 307.033L220.221 305.588C223.701 299.967 227.543 294.57 231.05 288.966C233.864 284.52 236.487 279.963 238.918 275.297C241.349 270.63 243.579 265.87 245.609 261.015C261.475 257.049 276.111 250.574 288.855 240.207C292.266 237.432 295.58 234.58 298.227 231.039Z" fill="#F99D12"/>
<path d="M244.82 165.961C248.934 166.06 258.065 173.968 260.882 176.924C264.642 180.868 268.029 185.218 272.014 188.938C275.075 191.796 278.448 194.31 281.56 197.113C290.275 204.966 297.382 214.895 299.82 226.539C296.102 229.519 292.74 232.884 288.848 235.66C278.725 242.882 262.821 249.036 250.318 249.852C252.918 242.986 254.822 235.473 256.287 228.278C260.709 206.564 257.108 184.497 244.82 165.961Z" fill="#61B235"/>
<path d="M274.406 211.909C276.521 211.784 278.724 212.282 280.548 213.366C282.816 214.715 284.353 216.901 284.974 219.456C285.014 219.621 285.05 219.787 285.081 219.955C285.113 220.121 285.141 220.289 285.164 220.458C285.187 220.626 285.206 220.795 285.22 220.964C285.234 221.134 285.245 221.304 285.25 221.474C285.256 221.644 285.257 221.814 285.254 221.983C285.251 222.153 285.243 222.323 285.231 222.493C285.22 222.662 285.204 222.831 285.183 223C285.162 223.169 285.137 223.337 285.108 223.505C285.079 223.672 285.045 223.839 285.008 224.005C284.97 224.171 284.928 224.335 284.881 224.499C284.835 224.663 284.785 224.825 284.73 224.986C284.675 225.146 284.617 225.306 284.554 225.464C284.491 225.622 284.424 225.778 284.353 225.933C284.282 226.087 284.207 226.24 284.128 226.39C284.05 226.541 283.967 226.689 283.88 226.836C283.794 226.982 283.704 227.126 283.61 227.268C282.019 229.667 279.698 230.832 276.945 231.355C274.666 231.441 272.376 231.097 270.386 229.918C270.249 229.836 270.114 229.751 269.981 229.662C269.848 229.573 269.718 229.481 269.589 229.385C269.461 229.29 269.336 229.191 269.212 229.089C269.089 228.987 268.969 228.882 268.851 228.774C268.733 228.666 268.618 228.555 268.506 228.441C268.394 228.327 268.285 228.21 268.179 228.09C268.073 227.971 267.97 227.849 267.87 227.724C267.77 227.599 267.673 227.472 267.58 227.342C267.486 227.213 267.396 227.08 267.31 226.946C267.223 226.812 267.14 226.675 267.06 226.537C266.981 226.398 266.905 226.258 266.832 226.115C266.76 225.973 266.691 225.828 266.625 225.682C266.56 225.537 266.499 225.389 266.442 225.24C266.384 225.091 266.33 224.94 266.28 224.788C266.23 224.637 266.184 224.484 266.142 224.329C266.1 224.175 266.062 224.02 266.028 223.864C265.435 221.23 265.966 218.257 267.497 216.026C269.143 213.626 271.612 212.413 274.406 211.909Z" fill="#DC7D0C"/>
<path d="M39.1496 112.391C40.7617 116.402 42.7297 119.838 45.3352 123.305C46.5425 126.215 48.9019 129.097 50.6661 131.743C63.4133 150.863 82.5933 166.133 103.782 174.918C111.268 178.022 119.08 180.113 127.033 181.613C127.847 181.768 128.662 181.916 129.479 182.056C130.296 182.196 131.114 182.329 131.933 182.455C132.752 182.58 133.572 182.698 134.393 182.808C135.215 182.918 136.037 183.021 136.86 183.116C137.683 183.212 138.507 183.299 139.332 183.38C140.157 183.46 140.982 183.533 141.808 183.598C142.634 183.663 143.461 183.72 144.288 183.77C145.115 183.82 145.942 183.863 146.77 183.897C147.598 183.932 148.426 183.959 149.255 183.979C150.083 183.998 150.912 184.01 151.741 184.015C152.569 184.019 153.398 184.016 154.226 184.006C155.055 183.995 155.883 183.976 156.712 183.95C157.54 183.924 158.368 183.891 159.196 183.85C160.023 183.809 160.85 183.76 161.677 183.704C162.504 183.648 163.33 183.584 164.156 183.513C164.981 183.442 165.806 183.363 166.63 183.276C167.454 183.19 168.278 183.096 169.1 182.994C169.922 182.893 170.744 182.783 171.564 182.667C172.384 182.55 173.204 182.426 174.022 182.295C174.84 182.163 175.657 182.024 176.473 181.878C177.288 181.731 178.102 181.577 178.915 181.416C179.728 181.254 180.539 181.085 181.349 180.909C182.159 180.733 182.967 180.549 183.773 180.358C184.579 180.167 185.384 179.968 186.186 179.762C186.989 179.556 187.79 179.343 188.589 179.122C189.387 178.902 190.184 178.674 190.978 178.439C191.773 178.204 192.565 177.962 193.356 177.712C194.146 177.462 194.934 177.205 195.719 176.941C196.505 176.677 197.288 176.406 198.068 176.128C198.848 175.849 199.626 175.564 200.401 175.271C201.177 174.979 201.95 174.679 202.719 174.372C203.489 174.065 204.256 173.751 205.02 173.431C211.739 170.631 218.66 167.388 224.708 163.33C226.121 162.382 233.918 156.618 234.897 156.64C227.832 164.98 219.018 171.332 209.886 177.205C210.433 180.762 210.902 184.329 211.293 187.907L211.187 188.233C212.215 194.508 212.352 201.133 212.358 207.486C212.36 209.981 212.207 212.525 212.322 215.013C211.953 232.29 208.044 249.569 203.041 266.042C200.812 275.895 197.265 285.754 193.828 295.257C193.096 297.282 189.737 304.471 189.606 305.758C188.111 306.195 186.589 306.528 185.069 306.868C159.961 312.496 145.75 306.169 124.98 293C122.807 291.608 120.571 290.31 118.458 288.827C115.484 286.738 112.643 284.445 109.694 282.315C108.797 278.713 105.742 274.735 104.785 270.925C103.315 268.413 102.263 265.387 101.089 262.712C94.7817 248.336 87.0552 227.599 84.5936 212.26C83.3058 203.583 82.2747 195.211 82.447 186.422C82.5189 185.468 82.5768 184.52 82.6021 183.563C82.9332 180.768 83.4498 178 83.76 175.202C79.6076 171.958 75.5224 168.634 71.7843 164.913C70.447 162.992 66.1107 158.696 64.2853 156.817L64.3011 156.72C64.0942 155.277 58.4823 149.226 57.1974 147.471C52.2104 140.659 38.6998 120.175 39.1496 112.391Z" fill="#FCED91"/>
<path d="M83.7588 175.203C87.7365 177.851 91.5535 180.79 95.508 183.488C100.655 186.999 105.896 190.353 110.853 194.137C126.588 206.15 140.664 221.919 146.731 241.099L146.614 240.912C144.944 238.215 143.755 235.29 141.942 232.654C129.528 214.603 115.92 208.294 98.0187 197.292C94.9548 195.408 91.8802 193.466 88.9812 191.333C86.8269 189.749 84.7037 187.832 82.4453 186.423C82.5172 185.468 82.5751 184.521 82.6004 183.564C82.932 180.769 83.4484 178.001 83.7588 175.203Z" fill="#EBC067"/>
<path d="M148.592 238.789C151.259 231.067 155.301 224.01 160.118 217.44C173.352 199.39 190.509 187.888 209.886 177.211C210.434 180.768 210.903 184.336 211.293 187.913L211.187 188.239C205.495 193.213 198.439 196.781 191.848 200.373C170.908 211.782 161.374 218.353 148.592 238.789Z" fill="#EBC067"/>
<path d="M104.785 270.919C104.456 269.113 103.629 267.267 103.016 265.529C102.01 262.696 101.044 259.848 100.12 256.987C95.5434 242.776 90.6296 224.914 91.3199 209.934L91.2402 209.946L91.5225 210.091C92.6058 230.038 98.8896 244.921 112.785 259.244C124.076 270.883 139.242 279.78 155.819 279.959C167.868 280.089 177.52 274.234 185.915 266.002C199.312 252.866 204.914 237.146 205.901 218.731C206.048 215.998 205.984 213.229 206.014 210.491L206.31 210.369L206.29 210.253L206.047 210.089L206.097 209.82L206.225 209.943C207.934 220.816 207.325 238.654 205.684 249.617C205.174 252.93 204.614 256.235 204.005 259.532C203.655 261.451 203.019 263.72 203.033 265.66C203.034 265.785 203.038 265.911 203.041 266.036C200.812 275.889 197.264 285.748 193.828 295.251C193.096 297.276 189.737 304.465 189.606 305.752C188.111 306.189 186.588 306.522 185.069 306.862C159.96 312.49 145.749 306.163 124.98 292.994C122.806 291.603 120.571 290.304 118.458 288.821C115.484 286.732 112.643 284.439 109.693 282.309C108.797 278.706 105.741 274.729 104.785 270.919Z" fill="#F99D12"/>
<path d="M60.5059 23.1808C64.796 15.1526 74.544 3.16702 83.4477 0.462464C87.3989 -0.737726 90.8786 0.564901 94.3324 2.45895C104.821 8.21028 111.337 17.596 116.612 27.9966C117.744 30.228 119.204 32.7162 119.912 35.1216C119.947 35.2408 119.979 35.361 120.013 35.4806C120.046 35.9526 119.968 35.9775 120.304 36.3454C123.221 44.9175 127.712 53.7673 136.156 57.9676C141.858 60.8049 148.289 61.0144 154.271 58.9444C155.729 58.4405 157.144 57.8125 158.534 57.149C160.464 55.9327 162.283 54.5855 164.07 53.1704C164.53 53.1761 164.749 53.1663 165.168 52.9344C170.403 50.0281 187.881 26.6919 193.096 20.6288C195.356 18.0002 197.739 15.4919 200.437 13.305C204.285 10.185 210.725 6.07979 215.951 6.77804C220.336 7.36402 226.223 13.8631 228.753 17.2099C230.881 19.2838 235.567 25.9037 236.136 28.6582C236.004 29.0433 236.036 29.0469 235.708 29.3467C236.956 30.9844 238.339 32.6286 239.398 34.3931C244.596 43.0496 246.257 54.0541 244.889 63.9655C244.379 67.6599 243.218 71.0194 242.406 74.6171C242.699 75.8584 242.976 77.0885 243.42 78.287C247.47 89.5353 249.434 92.974 257.524 101.646C258.361 106.232 259.103 111.885 256.569 116.14C256.556 116.492 256.584 116.828 256.457 117.157L256.306 118.318L255.126 122.384C254.177 125.626 252.7 128.682 251.729 131.898C248.182 139.385 243.479 146.36 238.302 152.811C237.319 154.037 236.152 155.699 234.896 156.64C233.916 156.618 226.119 162.382 224.706 163.33C218.658 167.388 211.737 170.631 205.018 173.431C204.254 173.751 203.487 174.065 202.717 174.372C201.948 174.679 201.175 174.979 200.4 175.271C199.625 175.564 198.847 175.849 198.066 176.128C197.286 176.406 196.503 176.677 195.717 176.941C194.932 177.206 194.144 177.462 193.354 177.712C192.564 177.962 191.771 178.204 190.977 178.439C190.182 178.674 189.386 178.902 188.587 179.123C187.788 179.343 186.988 179.556 186.185 179.762C185.382 179.968 184.578 180.167 183.771 180.358C182.965 180.549 182.157 180.733 181.347 180.909C180.538 181.085 179.726 181.254 178.913 181.416C178.101 181.577 177.287 181.731 176.471 181.878C175.655 182.024 174.838 182.163 174.02 182.295C173.202 182.426 172.383 182.55 171.562 182.667C170.742 182.784 169.92 182.893 169.098 182.994C168.276 183.096 167.452 183.19 166.628 183.276C165.804 183.363 164.979 183.442 164.154 183.513C163.329 183.584 162.502 183.648 161.676 183.704C160.849 183.76 160.021 183.809 159.194 183.85C158.366 183.891 157.538 183.925 156.71 183.95C155.882 183.976 155.053 183.995 154.225 184.006C153.396 184.016 152.568 184.019 151.739 184.015C150.91 184.01 150.082 183.998 149.253 183.979C148.425 183.959 147.597 183.932 146.769 183.897C145.941 183.862 145.113 183.82 144.286 183.77C143.459 183.72 142.632 183.663 141.806 183.598C140.98 183.533 140.155 183.46 139.33 183.38C138.505 183.299 137.681 183.212 136.858 183.116C136.035 183.021 135.213 182.918 134.392 182.808C133.57 182.698 132.75 182.58 131.931 182.455C131.112 182.329 130.294 182.196 129.477 182.056C128.661 181.916 127.845 181.768 127.031 181.613C119.078 180.113 111.267 178.022 103.78 174.918C82.5924 166.132 63.4124 150.862 50.6653 131.742C48.901 129.095 46.5416 126.214 45.3343 123.304C42.7289 119.836 40.7608 116.401 39.1488 112.389C39.0982 111.351 38.7008 110.334 38.6621 109.234C39.1124 102.566 47.3954 92.6117 50.8699 86.2972C52.8426 82.7119 54.187 79.0455 55.2814 75.12C54.9197 73.5714 54.2664 72.0287 53.7748 70.5114C52.9369 67.9183 52.2928 65.2781 51.8427 62.5905C49.9963 51.4278 52.1134 40.6028 56.6946 30.3911C57.7788 27.9732 58.9543 25.3313 60.5059 23.1808Z" fill="url(#paint5_linear_4689_10973)"/>
<path d="M60.5078 23.1808C64.7978 15.1526 74.5459 3.16702 83.4496 0.462464C87.4007 -0.737726 90.8805 0.564901 94.3343 2.45895C104.823 8.21028 111.339 17.596 116.614 27.9966C117.746 30.228 119.206 32.7162 119.914 35.1216C119.949 35.2408 119.981 35.361 120.014 35.4806C120.048 35.9526 119.97 35.9775 120.306 36.3454C123.223 44.9175 127.714 53.7673 136.158 57.9676C141.86 60.8049 148.291 61.0144 154.273 58.9444C155.73 58.4405 157.146 57.8125 158.536 57.149C158.377 57.3808 158.209 57.5953 158.002 57.7881C155.829 59.804 148.451 63.3477 145.437 63.1765C143.11 63.0446 140.376 61.2304 138.307 60.1579C134.43 58.1491 130.956 56.0406 127.764 53.0093C121.768 47.3142 117.649 38.9653 113.555 31.839C110.493 26.5089 107.112 21.1895 103.118 16.5016C99.4373 12.1805 93.1542 5.77541 87.0694 5.42398C80.4503 5.04183 73.5633 11.7939 69.3454 16.2069C68.259 17.3437 67.3709 18.6946 66.2134 19.7466C66.1979 19.1987 66.5748 18.7883 66.9219 18.3829C71.3586 13.1977 79.2407 5.44217 86.3028 5.06023C89.8007 4.87103 92.2025 6.60682 94.9182 8.52721C95.7149 9.09082 96.6609 9.492 97.4003 10.1137C103.992 15.6579 109.433 23.7791 113.69 31.2263C116.447 36.0504 118.956 40.976 122.101 45.5878C124.432 49.0054 127.342 52.084 130.407 54.8308L130.705 54.7404L130.71 55.0137L130.789 54.9683C127.972 52.1392 124.84 48.5934 123.472 44.7932C122.837 43.0312 121.77 41.4495 121.051 39.7198C120.167 37.5937 119.663 35.31 118.746 33.1975C115.779 26.3643 107.295 11.3336 101.148 7.58102C99.3711 6.49581 97.8366 5.03138 96.0669 3.90624C92.6261 1.71868 88.5834 -0.425396 84.3893 0.581416C74.9429 2.84925 65.8107 15.2937 60.822 23.2215L60.5078 23.1808Z" fill="#61B235"/>
<path d="M132.098 104.289C132.531 104.355 132.96 104.434 133.378 104.572C136.519 105.613 139.204 108.904 140.589 111.805C141.529 113.774 142.387 116.538 141.578 118.657C141.106 119.89 140.31 120.576 139.127 121.093C138.103 121.06 137.205 120.969 136.265 120.521C133.215 119.067 130.809 115.58 129.648 112.499C128.966 110.688 128.457 108.364 129.355 106.549C129.949 105.346 130.858 104.715 132.098 104.289Z" fill="#020101"/>
<path d="M158.116 104.474C158.943 104.425 159.739 104.434 160.493 104.824C161.334 105.26 161.883 105.968 162.119 106.881C162.803 109.531 161.469 112.889 160.13 115.157C158.625 117.708 156.444 120.372 153.471 121.134C152.893 121.101 152.254 121.068 151.707 120.871C150.754 120.527 149.916 119.772 149.542 118.826C148.75 116.821 149.564 113.898 150.45 112.009C152.021 108.656 154.581 105.745 158.116 104.474Z" fill="#020101"/>
<path d="M86.5329 134.965C85.8637 134.28 77.7705 130.254 76.3243 129.427C71.0918 126.425 65.9349 123.297 60.8533 120.046C58.5048 118.531 56.2409 116.887 53.8889 115.381L53.9493 115.326L53.7227 115.103C54.0049 115.046 63.4279 121.076 64.244 121.568C67.5759 123.601 70.9629 125.538 74.405 127.378C77.8473 129.218 81.3391 130.958 84.8801 132.6C88.4213 134.241 92.0062 135.78 95.635 137.217C99.2638 138.655 102.931 139.987 106.635 141.216C116.874 144.569 127.739 147.32 138.486 148.286C166.965 150.847 194.946 141.052 219.504 127.393C224.726 124.489 229.901 121.251 234.839 117.895C237.621 116.004 240.515 113.529 243.522 112.046C243.576 112.02 243.631 111.995 243.685 111.969C238.213 116.576 232.082 120.694 226.049 124.53C215.17 131.447 204.258 137.48 192.317 142.389C190.33 142.914 188.296 143.9 186.344 144.594C182.459 145.994 178.513 147.194 174.506 148.192C165.884 150.312 156.665 151.894 147.762 151.931C131.777 151.997 115.179 147.104 100.477 141.193C95.7433 139.289 91.2302 136.922 86.5329 134.965Z" fill="#020101"/>
<path d="M110.344 62.5537C110.47 62.5656 110.595 62.5803 110.721 62.5897C112.422 62.7138 114.859 61.8061 116.562 61.4468C121.864 60.3291 128.311 60.7669 132.197 65.0247C133.413 66.3562 134.104 67.9802 133.997 69.7971C133.63 76.0905 121.285 87.7497 116.326 91.9528C104.549 101.936 91.0917 110.645 74.9802 109.306C67.3538 108.672 60.2409 105.783 53.498 102.321C55.0244 96.7678 56.2979 91.4274 56.9878 85.6983C56.7505 83.6719 55.0382 78.6786 55.3729 77.4046C55.4276 77.5279 55.5064 77.644 55.5374 77.7753C55.7906 78.8343 56.0065 79.9053 56.3594 80.9608C58.3994 87.0634 63.3649 93.6104 69.1829 96.5167C74.6321 99.2388 81.1843 99.5018 86.9384 97.5693C95.7363 94.6139 102.087 87.2601 106.062 79.163L105.444 78.7265C105.847 77.2305 106.935 75.7315 107.513 74.2596C108.837 70.8902 109.524 67.2202 110.199 63.6761L110.344 62.5537Z" fill="#61B235"/>
<path d="M105.444 78.73C105.848 77.234 106.935 75.7351 107.513 74.2631C108.838 70.8938 109.524 67.2238 110.199 63.6797C110.713 64.4774 111.115 65.8443 110.794 66.7902C110.764 66.8772 110.71 66.9531 110.668 67.0348C110.653 77.5827 105.981 89.1119 98.5552 96.5771C93.6844 101.474 87.4769 104.199 80.5246 104.211C74.7893 104.22 68.9257 102.098 64.8621 97.9949C62.3744 95.4829 60.334 92.3586 58.7044 89.2351C58.1119 88.0995 57.6394 86.7864 56.9882 85.702C56.751 83.6757 55.0386 78.6824 55.3733 77.4084C55.4281 77.5317 55.5069 77.6477 55.5378 77.779C55.791 78.8381 56.0069 79.9091 56.3598 80.9646C58.3998 87.0672 63.3653 93.6142 69.1833 96.5205C74.6325 99.2426 81.1848 99.5056 86.9388 97.5731C95.7367 94.6176 102.088 87.2639 106.063 79.1667L105.444 78.73Z" fill="#43961D"/>
<path d="M245.844 110.307C243.37 107.997 228.253 110.441 224.316 110.77C223.069 110.873 221.789 110.809 220.54 110.757C219.044 110.706 217.553 110.598 216.066 110.436C214.579 110.273 213.1 110.055 211.629 109.783C210.158 109.511 208.699 109.184 207.253 108.803C205.806 108.422 204.375 107.987 202.961 107.5C190.679 103.227 179.676 94.4053 170.735 85.1502C167.641 81.9475 164.453 78.5796 162.516 74.5197C161.342 72.0591 160.891 69.4407 161.892 66.8292C162.857 64.3161 164.905 62.6525 167.32 61.6093C172.707 59.2814 180.823 60.3194 186.126 62.3769C186.46 65.4126 186.544 68.422 187.043 71.4495C188.761 81.8762 193.506 92.9137 201.922 99.6566C207.015 103.737 213.695 106.263 220.274 105.494C226.313 104.787 231.594 101.972 235.323 97.1565C240.112 90.9718 240.927 85.2501 243.42 78.2913C247.47 89.5395 249.434 92.9783 257.524 101.65C258.361 106.236 259.103 111.889 256.569 116.144C256.384 115.325 256.985 114.052 257.201 113.229C258.208 109.399 258.868 104.288 256.301 100.885C255.734 100.133 254.943 99.5125 254.224 98.9094C252.514 102.792 250.016 106.232 247.638 109.721C244.786 113.906 242.368 117.985 238.673 121.548C237.709 122.478 236.513 123.079 235.431 123.857C226.741 130.11 216.902 135.24 206.912 139.11C202.882 140.671 198.614 141.951 194.403 142.926C193.116 143.224 191.712 143.132 190.48 143.518C184.932 145.259 180.112 147.203 174.338 148.636C165.22 150.9 155.087 152.526 145.655 152.338C143.601 152.298 141.507 152.018 139.464 151.811C123.041 150.152 107.279 144.804 92.2832 138.095C90.902 137.477 87.2968 136.097 86.5312 134.971C91.2285 136.927 95.7416 139.295 100.475 141.198C115.178 147.109 131.775 152.002 147.761 151.936C156.663 151.899 165.882 150.317 174.504 148.197C178.511 147.199 182.458 146 186.342 144.6C188.294 143.905 190.328 142.919 192.315 142.395C204.257 137.486 215.169 131.452 226.048 124.535C232.08 120.7 238.211 116.581 243.683 111.974C244.452 111.491 245.165 110.908 245.844 110.307Z" fill="#61B235"/>
<path d="M245.847 110.3C246.22 110.034 246.553 109.645 247.015 109.691C246.657 110.991 245.542 112.445 244.804 113.56C240.29 120.377 234.523 124.7 227.512 128.672C217.986 134.07 208.266 138.743 197.699 141.714C196.276 142.115 194.03 142.976 192.57 142.674L192.318 142.387C204.26 137.479 215.172 131.445 226.051 124.528C232.083 120.692 238.215 116.574 243.687 111.967C244.455 111.484 245.168 110.901 245.847 110.3Z" fill="#7ECC47"/>
<path d="M45.3359 123.305C47.7645 125.285 49.8731 127.833 52.1976 129.971C56.1744 133.628 60.619 136.947 65.0039 140.094C65.9566 140.786 66.9178 141.465 67.8874 142.133C68.857 142.801 69.8345 143.457 70.8202 144.101C71.8057 144.745 72.799 145.377 73.8001 145.997C74.8013 146.616 75.8098 147.223 76.8258 147.819C77.842 148.413 78.8651 148.996 79.8956 149.566C80.9256 150.135 81.9627 150.692 83.0069 151.237C84.0508 151.781 85.1013 152.313 86.1582 152.831C87.215 153.35 88.2781 153.855 89.3476 154.348C90.4169 154.841 91.4921 155.32 92.5733 155.786C93.6546 156.252 94.7412 156.705 95.8334 157.145C96.9257 157.584 98.0232 158.01 99.126 158.423C100.228 158.835 101.336 159.234 102.449 159.62C103.561 160.005 104.678 160.377 105.799 160.736C106.921 161.093 108.047 161.438 109.177 161.768C110.307 162.099 111.441 162.415 112.579 162.718C113.716 163.02 114.858 163.309 116.003 163.584C117.147 163.859 118.295 164.119 119.447 164.366C120.598 164.612 121.752 164.845 122.909 165.063C124.066 165.281 125.225 165.485 126.387 165.675C127.55 165.865 128.714 166.04 129.88 166.201C131.046 166.363 132.214 166.51 133.384 166.642C134.554 166.775 135.725 166.893 136.898 166.997C138.071 167.1 139.245 167.19 140.42 167.265C141.595 167.34 142.77 167.401 143.947 167.447C145.123 167.493 146.3 167.525 147.477 167.543C148.654 167.56 149.832 167.563 151.009 167.551C152.186 167.54 153.363 167.514 154.54 167.474C155.717 167.433 156.893 167.379 158.068 167.31C159.243 167.24 160.418 167.157 161.591 167.059C162.764 166.961 163.936 166.849 165.106 166.722C166.277 166.595 167.446 166.454 168.613 166.299C169.78 166.144 170.945 165.974 172.108 165.79C199.997 161.196 232.184 146.1 250.877 124.479C252.895 122.144 254.399 119.575 256.186 117.086L256.46 117.158L256.308 118.319L255.128 122.385C254.179 125.627 252.703 128.682 251.732 131.899C248.185 139.386 243.481 146.361 238.305 152.812C237.321 154.038 236.154 155.7 234.898 156.641C233.919 156.619 226.122 162.383 224.708 163.331C218.66 167.388 211.74 170.632 205.021 173.431C204.257 173.752 203.49 174.066 202.72 174.373C201.95 174.68 201.178 174.98 200.402 175.272C199.627 175.565 198.849 175.85 198.069 176.128C197.288 176.407 196.505 176.678 195.72 176.942C194.935 177.206 194.147 177.463 193.356 177.713C192.566 177.963 191.774 178.205 190.979 178.44C190.185 178.675 189.388 178.903 188.589 179.123C187.791 179.344 186.99 179.557 186.187 179.763C185.384 179.969 184.58 180.168 183.774 180.359C182.967 180.55 182.159 180.734 181.349 180.91C180.54 181.086 179.729 181.255 178.916 181.417C178.103 181.578 177.289 181.732 176.473 181.879C175.658 182.025 174.841 182.164 174.023 182.296C173.204 182.427 172.385 182.551 171.565 182.668C170.745 182.784 169.923 182.894 169.101 182.995C168.278 183.097 167.455 183.191 166.631 183.277C165.807 183.363 164.982 183.443 164.157 183.514C163.331 183.585 162.505 183.649 161.678 183.705C160.851 183.761 160.024 183.81 159.196 183.851C158.369 183.892 157.541 183.926 156.713 183.951C155.884 183.977 155.056 183.996 154.227 184.007C153.399 184.017 152.57 184.02 151.741 184.016C150.913 184.011 150.084 183.999 149.256 183.98C148.427 183.96 147.599 183.933 146.771 183.898C145.943 183.863 145.116 183.821 144.289 183.771C143.461 183.721 142.635 183.664 141.809 183.599C140.983 183.534 140.158 183.461 139.333 183.381C138.508 183.3 137.684 183.213 136.861 183.117C136.037 183.022 135.215 182.919 134.394 182.809C133.573 182.699 132.753 182.581 131.934 182.456C131.114 182.33 130.296 182.197 129.48 182.057C128.663 181.917 127.848 181.769 127.034 181.614C119.081 180.114 111.269 178.023 103.783 174.919C82.5941 166.133 63.414 150.862 50.6669 131.743C48.9024 129.096 46.5432 126.215 45.3359 123.305Z" fill="#EBC067"/>
<path d="M105.442 78.7205C103.362 82.4594 100.914 85.9097 97.725 88.7919C92.9086 93.1453 86.7835 95.4846 80.2718 95.1207C73.8373 94.7609 68.2417 91.5448 64.0296 86.7722C56.7144 78.4838 53.2821 65.8447 53.9688 54.964C54.611 44.7922 58.5637 33.6489 66.4227 26.7856C71.111 22.6914 77.3082 20.1554 83.5922 20.6364C90.6723 21.1787 96.7418 25.1025 101.227 30.4363C108.716 39.3421 111.299 51.1552 110.343 62.5473L110.197 63.6701C109.522 67.2142 108.836 70.8842 107.512 74.2536C106.934 75.7255 105.846 77.2245 105.442 78.7205Z" fill="#020101"/>
<path d="M108.501 52.7656C109.731 63.7521 107.577 75.0259 100.529 83.7723C96.3002 89.0207 90.7366 92.7308 83.9273 93.4449C78.0398 94.0627 72.4271 92.1611 67.8887 88.4144C61.9105 83.4788 57.9864 75.6089 56.5508 68.076C57.8415 68.889 58.4511 71.5127 59.2068 72.8912C60.1779 74.6621 61.5493 76.4268 62.8701 77.9575C67.1434 82.9096 73.0796 86.2524 79.664 86.6958C86.0283 87.1246 91.9228 84.4811 96.637 80.3233C101.918 75.6658 105.835 68.9171 107.106 61.9706C107.592 59.3116 107.613 56.707 107.858 54.0394C107.921 53.3518 107.962 53.2032 108.501 52.7656Z" fill="#DC7D0C"/>
<path d="M55.657 60.7556C55.5813 59.9313 55.5299 59.1055 55.5027 58.2779C55.4758 57.4504 55.4733 56.6228 55.4954 55.7953C55.5172 54.9679 55.5636 54.1417 55.6342 53.317C55.7051 52.4923 55.8 51.6701 55.9192 50.8508C56.0383 50.0317 56.1817 49.2168 56.3492 48.4059C56.5169 47.5951 56.7082 46.7901 56.9229 45.9906C57.138 45.1912 57.3763 44.3987 57.6382 43.6135C57.9002 42.8282 58.1849 42.0512 58.4929 41.2829C61.2677 34.3082 66.646 27.2132 73.7086 24.1922C79.2276 21.8313 84.4787 22.1723 89.9643 24.3358C95.8779 26.1406 100.935 32.5977 103.739 37.8191C106.243 42.4829 107.724 47.5443 108.5 52.7653C107.962 53.2031 107.921 53.3517 107.858 54.0393C107.613 56.7068 107.592 59.3115 107.105 61.9704C105.835 68.9172 101.917 75.6657 96.6365 80.3232C91.9221 84.4811 86.0278 87.1244 79.6635 86.6957C73.0791 86.2523 67.143 82.9095 62.8696 77.9573C61.5488 76.4266 60.1772 74.6618 59.2064 72.8911C58.4506 71.5126 57.841 68.8887 56.5503 68.0759C55.8815 65.9254 55.3896 62.9827 55.657 60.7556Z" fill="#F99D12"/>
<path d="M93.449 42.7966C93.4095 41.7484 93.3895 40.7086 93.2159 39.6719C97.7445 45.1167 100.073 50.7836 99.4174 57.9492C98.947 63.0934 96.8796 68.7108 92.8187 72.1131C92.3998 72.4639 92.0716 72.7334 91.5117 72.7938C93.5713 70.3236 94.9085 67.7234 95.7742 64.621C97.7985 57.3653 97.1962 49.3792 93.449 42.7966Z" fill="#FEFEFE"/>
<path d="M55.657 60.7556C55.5813 59.9313 55.5299 59.1055 55.5027 58.2779C55.4758 57.4504 55.4733 56.6228 55.4954 55.7953C55.5172 54.9679 55.5636 54.1417 55.6342 53.317C55.7051 52.4923 55.8 51.6701 55.9192 50.8508C56.0383 50.0317 56.1817 49.2168 56.3492 48.4059C56.5169 47.5951 56.7082 46.7901 56.9229 45.9906C57.138 45.1912 57.3763 44.3987 57.6382 43.6135C57.9002 42.8282 58.1849 42.0512 58.4929 41.2829C61.2677 34.3082 66.646 27.2132 73.7086 24.1922C79.2276 21.8313 84.4787 22.1723 89.9643 24.3358L90.1109 24.4554C93.4185 27.1171 96.5788 28.9672 98.8218 32.7344C93.7037 28.4925 88.1556 25.8751 81.3623 26.5154C75.4433 27.0732 69.9293 30.4622 66.2275 35.016C60.4883 42.0765 57.9004 50.736 57.4463 59.7116C57.3083 62.4362 57.4622 65.1941 57.2561 67.9076C56.7932 65.5031 56.2417 63.1332 55.657 60.7556Z" fill="#FEFEFE"/>
<path d="M74.0714 37.4704C77.9068 35.8197 81.4963 34.9172 85.5348 36.5158C88.7371 37.7833 91.2025 40.2703 93.4499 42.7936C97.197 49.3759 97.7993 57.3622 95.7748 64.6179C94.9091 67.7203 93.572 70.3203 91.5123 72.7908C89.5014 74.6942 87.4615 76.2475 84.7931 77.1111C84.5784 77.1795 84.362 77.2424 84.1442 77.3001C83.9263 77.3578 83.7075 77.4101 83.4871 77.4569C83.2666 77.5035 83.0452 77.5447 82.8227 77.5806C82.6003 77.6164 82.377 77.6463 82.1531 77.671C81.9294 77.6954 81.7049 77.7144 81.4798 77.728C81.2548 77.7414 81.0299 77.7491 80.8047 77.7512C80.5793 77.7533 80.354 77.75 80.129 77.741C79.9039 77.732 79.6791 77.7174 79.4548 77.6973C79.2305 77.6772 79.0068 77.6515 78.7836 77.6202C78.5603 77.5888 78.3383 77.552 78.1171 77.5096C77.8957 77.4673 77.6758 77.4197 77.4569 77.3661C77.238 77.3128 77.0206 77.2541 76.8044 77.1897C76.5885 77.1255 76.3744 77.0559 76.1618 76.9811C75.9494 76.9062 75.7391 76.8262 75.5304 76.7411C75.322 76.6556 75.1157 76.565 74.9114 76.4695C74.7076 76.374 74.5061 76.2734 74.3071 76.1678C68.7696 73.2716 66.4079 67.9139 64.5987 62.2738L64.475 62.4335L64.1768 62.3963C62.09 59.1405 62.1866 53.7347 62.916 50.0748C63.7742 45.7663 66.1004 40.9106 69.928 38.4774C71.2022 37.6673 72.5721 37.1674 74.0714 37.4704Z" fill="#020101"/>
<path d="M64.5987 62.2755L64.475 62.4352L64.1768 62.398C62.09 59.1422 62.1866 53.7364 62.916 50.0765C63.7742 45.768 66.1004 40.9123 69.928 38.4791C71.2015 37.669 72.5715 37.1691 74.0706 37.4723C71.6113 39.175 69.4841 41.3039 67.9557 43.8938C69.8956 43.3528 71.9874 42.78 73.8599 43.8698C75.2131 44.6579 76.1582 46.1042 76.503 47.6136C76.8697 49.2208 76.6002 50.7601 75.6778 52.1352C74.7799 53.4736 73.1058 54.728 71.4925 54.9914C70.344 55.1787 69.255 54.7921 68.3347 54.1114C67.1703 53.2508 66.5093 51.9266 65.7078 50.7542L65.3908 50.8368C63.8323 53.8108 64.0232 59.018 64.5987 62.2755Z" fill="#FEFEFE"/>
<path d="M186.129 62.3713C186.168 54.1822 187.562 46.2608 190.875 38.7348C194.971 29.4314 203.062 18.7675 212.855 15.0635C216.319 13.7531 221.108 13.1786 224.563 14.8115C225.93 15.4571 227.204 16.5877 228.548 17.1394C228.615 17.1672 228.686 17.186 228.756 17.2088C230.884 19.2826 235.57 25.9026 236.139 28.6571C236.007 29.0422 236.039 29.0457 235.711 29.3455C236.959 30.9833 238.341 32.6275 239.401 34.3919C244.599 43.0485 246.26 54.053 244.892 63.9643C244.382 67.6587 243.221 71.0183 242.409 74.6159C242.702 75.8573 242.979 77.0874 243.423 78.2859C240.929 85.2447 240.114 90.9664 235.326 97.1511C231.597 101.967 226.316 104.782 220.276 105.488C213.697 106.258 207.018 103.732 201.925 99.6512C193.509 92.9083 188.764 81.8708 187.045 71.4441C186.546 68.4164 186.462 65.407 186.129 62.3713Z" fill="#020101"/>
<path d="M192.635 45.4983C195.368 37.1112 200.138 28.7216 208.302 24.6164C213.248 22.1297 218.916 21.5782 224.181 23.3788C231.358 25.8327 236.398 31.667 239.627 38.3434C245.474 50.4287 244.775 63.1564 240.396 75.5254L240.338 75.6891C240.288 73.3772 241.868 68.9072 242.153 65.9998C243.157 55.7467 241.767 43.7517 235.032 35.5038C231.151 30.7817 226.229 27.3364 220.016 26.7316C213.519 26.0988 207.708 28.6487 202.793 32.7591C202.11 33.3284 201.45 33.9229 200.812 34.543C200.175 35.1633 199.563 35.8073 198.976 36.4747C198.388 37.1422 197.828 37.8312 197.294 38.542C196.759 39.2528 196.254 39.983 195.776 40.7329C194.829 42.194 193.904 44.3548 192.635 45.4983Z" fill="#FEFEFE"/>
<path d="M235.033 35.5C241.769 43.7479 243.158 55.7429 242.154 65.996C241.869 68.9031 240.289 73.3734 240.339 75.6853C239.118 81.1114 233.469 87.9617 229.014 91.1345C224.644 94.2476 219.434 95.6117 214.123 94.6538C207.526 93.464 201.979 89.002 198.218 83.6073C197.909 83.1672 197.608 82.7211 197.315 82.2693C197.023 81.8176 196.739 81.3601 196.465 80.8973C196.19 80.4342 195.924 79.9662 195.668 79.4931C195.411 79.0202 195.164 78.5425 194.925 78.06C194.687 77.5773 194.459 77.0902 194.239 76.5987C194.02 76.1074 193.81 75.6117 193.61 75.1121C193.41 74.6127 193.219 74.1095 193.039 73.6025C192.858 73.0957 192.687 72.5854 192.526 72.0718C192.365 71.5584 192.214 71.042 192.073 70.5227C191.932 70.0034 191.801 69.4814 191.68 68.9569C191.559 68.4325 191.448 67.9059 191.347 67.377C191.247 66.8483 191.156 66.318 191.076 65.7859C190.996 65.2536 190.926 64.7201 190.867 64.1854C190.807 63.6504 190.758 63.1146 190.719 62.5779C190.681 62.0411 190.652 61.5038 190.634 60.9659C190.616 60.428 190.609 59.8901 190.611 59.3518C190.606 57.717 190.559 55.9958 190.842 54.3838C190.89 55.4414 190.745 56.5822 190.879 57.6168C191.045 58.899 191.526 60.2599 191.908 61.4913C193.784 67.5286 196.747 73.323 201.478 77.6203C205.122 80.9297 209.936 83.1501 214.929 82.9161C218.643 82.7418 223.669 80.6349 226.206 77.9009C226.659 77.4121 226.878 77.0548 226.916 76.3664C227.375 75.821 228.26 75.2737 228.813 74.7809C230.337 73.4246 231.468 71.7471 232.448 69.9641C236.527 62.5378 235.865 54.6083 233.567 46.7631C233.636 46.701 233.71 46.6439 233.774 46.5764C235.343 44.9094 234.949 37.873 235.033 35.5Z" fill="#DC7D0C"/>
<path d="M186.129 62.3713C186.168 54.1822 187.562 46.2608 190.875 38.7348C194.971 29.4314 203.062 18.7675 212.855 15.0635C216.319 13.7531 221.108 13.1786 224.563 14.8115C225.93 15.4571 227.204 16.5877 228.548 17.1394C228.615 17.1672 228.686 17.186 228.756 17.2088C230.884 19.2826 235.57 25.9026 236.139 28.6571C236.007 29.0422 236.039 29.0457 235.711 29.3455C231.002 24.3414 225.81 20.6979 218.701 20.4705C212.147 20.261 206.328 22.7419 201.626 27.2468C193.56 34.9746 189.338 46.7348 189.119 57.7715C188.9 68.8209 192.636 80.4099 200.466 88.4169C205.053 93.1088 210.922 96.2197 217.572 96.254C223.648 96.2854 229.197 93.4918 233.44 89.2555C237.938 84.7633 239.566 80.021 242.409 74.6159C242.701 75.8573 242.978 77.0874 243.422 78.2859C240.929 85.2447 240.114 90.9664 235.326 97.1511C231.596 101.967 226.316 104.782 220.276 105.488C213.697 106.258 207.017 103.732 201.925 99.6512C193.509 92.9083 188.764 81.8708 187.045 71.4441C186.546 68.4164 186.462 65.407 186.129 62.3713Z" fill="url(#paint6_linear_4689_10973)"/>
<path d="M192.635 45.4951C193.904 44.3514 194.83 42.1906 195.776 40.7301C196.254 39.9803 196.76 39.2498 197.294 38.5392C197.828 37.8284 198.389 37.1394 198.976 36.4719C199.564 35.8044 200.176 35.1605 200.813 34.5402C201.45 33.9202 202.11 33.3254 202.793 32.7563C207.708 28.6459 213.52 26.096 220.017 26.7288C226.229 27.3336 231.152 30.7789 235.032 35.501C234.949 37.8742 235.342 44.9106 233.773 46.5772C233.709 46.6445 233.636 46.7018 233.567 46.7639C231.944 42.3518 228.762 38.0496 224.419 36.0036C221.497 34.6272 218.054 34.5818 215.045 35.7113C210.865 37.2797 207.886 40.9074 206.11 44.8927C203.074 51.707 203.047 59.7352 205.746 66.6549C207.529 71.228 210.548 75.3345 215.159 77.3318C215.345 77.4136 215.533 77.4903 215.723 77.5626C215.912 77.6348 216.104 77.7021 216.297 77.7648C216.49 77.8273 216.684 77.8852 216.88 77.9379C217.076 77.9908 217.274 78.0386 217.472 78.0817C217.67 78.1248 217.869 78.1628 218.07 78.1961C218.27 78.2291 218.471 78.2569 218.673 78.2797C218.875 78.3029 219.077 78.3209 219.279 78.3336C219.482 78.3468 219.684 78.3545 219.887 78.3572C220.09 78.36 220.293 78.3575 220.496 78.3499C220.699 78.3426 220.901 78.3303 221.103 78.3127C221.305 78.295 221.507 78.2724 221.708 78.245C221.91 78.2176 222.11 78.1848 222.309 78.1469C222.509 78.1093 222.707 78.0669 222.904 78.0192C223.102 77.9718 223.298 77.9195 223.493 77.862C223.687 77.8045 223.881 77.7424 224.072 77.6753C224.264 77.6084 224.453 77.5367 224.642 77.4602C225.418 77.1514 226.175 76.7542 226.915 76.3675C226.877 77.0559 226.658 77.4132 226.205 77.9019C223.668 80.636 218.642 82.7428 214.928 82.9172C209.935 83.1511 205.121 80.9307 201.478 77.6214C196.746 73.3238 193.783 67.5296 191.908 61.4923C191.525 60.2608 191.044 58.9 190.879 57.6179C190.745 56.5833 190.89 55.4424 190.842 54.3848C190.892 51.5166 191.589 48.1619 192.635 45.4951Z" fill="#F99D12"/>
<path d="M226.916 76.368C226.176 76.7547 225.418 77.1519 224.642 77.4607C224.454 77.5372 224.264 77.6089 224.072 77.6758C223.881 77.7427 223.688 77.805 223.493 77.8625C223.299 77.92 223.102 77.9723 222.905 78.0197C222.708 78.0674 222.509 78.11 222.31 78.1474C222.11 78.1853 221.91 78.2179 221.709 78.2455C221.508 78.2731 221.306 78.2957 221.104 78.3132C220.902 78.3306 220.699 78.3431 220.496 78.3504C220.294 78.358 220.091 78.3605 219.888 78.3578C219.685 78.355 219.482 78.3471 219.28 78.3341C219.077 78.3214 218.875 78.3034 218.673 78.2802C218.472 78.2574 218.271 78.2294 218.07 78.1966C217.87 78.1633 217.671 78.1253 217.473 78.0822C217.274 78.0392 217.077 77.9913 216.881 77.9384C216.685 77.8855 216.49 77.8278 216.297 77.7653C216.105 77.7026 215.913 77.6353 215.723 77.5631C215.534 77.491 215.346 77.4141 215.16 77.3323C210.548 75.3348 207.53 71.2285 205.746 66.6554C203.048 59.7357 203.075 51.7075 206.111 44.8932C207.886 40.9079 210.866 37.2802 215.045 35.7119C218.055 34.5825 221.497 34.6277 224.42 36.0041C228.763 38.0501 231.945 42.3521 233.568 46.7644C235.865 54.6097 236.527 62.5391 232.448 69.9654C231.468 71.7485 230.337 73.4259 228.814 74.7823C228.26 75.2754 227.375 75.8225 226.916 76.368Z" fill="#020101"/>
<path d="M224.977 43.869C225.949 43.7478 227.007 43.6734 227.946 43.9976C229.335 44.477 230.441 45.5214 231.075 46.8374C231.777 48.2943 231.886 50.0769 231.347 51.6028C230.702 53.4277 229.539 54.3891 227.824 55.1559C226.907 55.2724 226.018 55.3008 225.122 55.0245C223.676 54.5785 222.529 53.5581 221.828 52.2288C221.731 52.0414 221.643 51.8497 221.565 51.6534C221.487 51.4571 221.419 51.2575 221.361 51.0545C221.303 50.8515 221.256 50.646 221.219 50.438C221.182 50.2302 221.156 50.0211 221.14 49.8104C221.125 49.5997 221.12 49.3889 221.125 49.178C221.131 48.9669 221.148 48.7565 221.175 48.5471C221.202 48.3378 221.24 48.1304 221.288 47.9247C221.336 47.719 221.394 47.5162 221.463 47.3168C222.096 45.5342 223.317 44.6302 224.977 43.869Z" fill="#FEFEFE"/>
<defs>
<linearGradient id="paint0_linear_4689_10973" x1="313.374" y1="307.868" x2="313.38" y2="306.764" gradientUnits="userSpaceOnUse">
<stop stop-color="#1A4C17"/>
<stop offset="1" stop-color="#19651B"/>
</linearGradient>
<linearGradient id="paint1_linear_4689_10973" x1="198.189" y1="257.865" x2="207.957" y2="261.679" gradientUnits="userSpaceOnUse">
<stop stop-color="#19851F"/>
<stop offset="1" stop-color="#0E5A23"/>
</linearGradient>
<linearGradient id="paint2_linear_4689_10973" x1="289.47" y1="256.438" x2="285.859" y2="258.112" gradientUnits="userSpaceOnUse">
<stop stop-color="#102B0F"/>
<stop offset="1" stop-color="#134214"/>
</linearGradient>
<linearGradient id="paint3_linear_4689_10973" x1="296.29" y1="259.803" x2="306.931" y2="276.878" gradientUnits="userSpaceOnUse">
<stop stop-color="#094318"/>
<stop offset="1" stop-color="#165B18"/>
</linearGradient>
<linearGradient id="paint4_linear_4689_10973" x1="262.673" y1="182.826" x2="299.187" y2="157.483" gradientUnits="userSpaceOnUse">
<stop stop-color="#0B4823"/>
<stop offset="1" stop-color="#27772A"/>
</linearGradient>
<linearGradient id="paint5_linear_4689_10973" x1="157.277" y1="167.522" x2="131.533" y2="-6.5723" gradientUnits="userSpaceOnUse">
<stop stop-color="#74B61F"/>
<stop offset="1" stop-color="#8DD523"/>
</linearGradient>
<linearGradient id="paint6_linear_4689_10973" x1="190.399" y1="87.763" x2="244.919" y2="34.0287" gradientUnits="userSpaceOnUse">
<stop stop-color="#4AA00F"/>
<stop offset="1" stop-color="#6DBA1C"/>
</linearGradient>
</defs>
</svg>
