<svg width="166" height="278" viewBox="0 0 166 278" fill="none" xmlns="http://www.w3.org/2000/svg">
<path d="M158.247 13C158.247 13.9395 157.398 14.8448 155.798 15.716C155.798 15.716 155.793 15.716 155.787 15.716C151.22 18.1928 140.567 20.3166 126.235 21.7458C126.213 21.7458 126.19 21.7515 126.167 21.7515C113.965 22.97 99.1097 23.6818 83.0814 23.6818C69.3932 23.6818 56.5591 23.1636 45.5072 22.2526C45.4958 22.2526 45.4844 22.2526 45.4731 22.2469C23.0163 20.4021 7.91602 16.9515 7.91602 13C7.91602 7.09538 41.567 2.3125 83.0814 2.3125C124.596 2.3125 158.247 7.09538 158.247 13Z" fill="white"/>
<path d="M155.852 68.1118L155.835 68.2884L155.829 68.3339C154.838 72.9346 122.85 76.6299 83.5393 76.6299C64.6469 76.6299 47.4513 75.7759 34.5773 74.3808L32.9375 62.0251C45.9766 60.5219 63.8384 59.5938 83.5393 59.5938C123.476 59.5937 155.852 63.4087 155.852 68.1118Z" fill="#BEE3F7"/>
<path d="M21.0564 72.4129L37.0107 238.738C29.8933 240.315 25.6798 242.268 25.6798 244.386L11.2344 68.2734C11.4621 69.7823 15.0094 71.1944 21.0564 72.4129Z" fill="#79C3E7"/>
<path d="M165.978 12.9764L143.122 265.775C125.944 270.717 109.676 273.296 97.9239 274.145C77.8301 275.602 62.2914 273.877 56.4153 273.114C45.2211 271.662 35.6154 269.333 32.6944 268.605C28.5436 267.568 25.0532 266.566 22.434 265.775H22.4283L0.0455523 12.8512C0.0455523 12.8455 0.0398572 12.8341 0.0398572 12.8284L0 12.3615V12.3558C0 12.3501 0 12.3444 0 12.3387C0 12.3273 0 12.3102 0 12.2989C0.489676 5.49463 37.4602 0 82.9888 0C128.819 0 165.978 5.56865 165.978 12.4355C165.978 12.6234 165.949 12.8113 165.892 12.9992L165.978 12.9764ZM142.507 242.583C148.252 168.443 153.998 94.2969 159.737 20.1564C140.623 24.3073 123.945 26.3514 110.798 27.4048C110.798 27.4048 76.5831 30.1436 40.2958 26.1294C35.4674 25.5998 26.9834 24.6319 16.0397 22.0753C11.9572 21.1187 8.65475 20.202 6.5423 19.5928C6.94088 27.0973 7.53304 37.7279 8.33019 50.4594C10.2092 80.4721 12.0142 102.61 14.3088 130.527C16.5294 157.539 19.2682 189.083 21.0048 209.929C22.081 222.803 22.639 229.243 22.6276 229.789C22.5821 233.342 23.0774 235.449 23.476 240.494C23.6013 242.094 23.3735 244.126 24.4838 246.341C25.5087 248.38 27.0518 249.57 27.6952 250.06C29.9671 251.773 32.2845 252.263 33.3948 252.485C46.0922 255.036 52.1676 255.292 52.1676 255.292C75.8828 257.519 69.3063 256.716 84.2585 256.71C89.161 256.71 95.225 256.454 107.347 255.981C107.347 255.981 111.595 255.816 130.385 253.14C130.909 253.066 132.833 252.776 135.105 251.773C136.825 251.016 140.509 249.388 141.932 245.704C142.416 244.468 142.507 243.341 142.507 242.583ZM155.797 15.7152C157.397 14.844 158.245 13.9387 158.245 12.9992C158.245 7.09462 124.594 2.31173 83.0799 2.31173C41.5656 2.31173 7.91454 7.09462 7.91454 12.9992C7.91454 16.9508 23.0148 20.4013 45.4716 22.2461C45.483 22.2518 45.4944 22.2518 45.5057 22.2518C56.5576 23.1628 69.3917 23.681 83.0799 23.681C99.1082 23.681 113.964 22.9692 126.166 21.7507C126.188 21.7507 126.211 21.7451 126.234 21.7451C140.566 20.3159 151.219 18.1921 155.785 15.7152C155.791 15.7152 155.797 15.7152 155.797 15.7152Z" fill="#C5EBF0"/>
<path d="M155.832 68.3438L139.935 244.388C139.935 239.172 114.357 234.948 82.8075 234.948C73.1563 234.948 64.0632 235.34 56.0917 236.041L34.5801 74.3907C47.454 75.7857 64.6496 76.6398 83.542 76.6398C122.853 76.6398 154.841 72.9444 155.832 68.3438Z" fill="#79C3E7"/>
<path d="M37.0125 238.734L38.1171 250.265C30.3336 248.653 25.6816 246.609 25.6816 244.383C25.6816 242.265 29.8951 240.312 37.0125 238.734Z" fill="#4B9FCF"/>
<path d="M38.1144 250.26L37.0098 238.73C42.066 237.614 48.5798 236.692 56.0901 236.031L58.3392 252.914C50.4246 252.293 43.5122 251.382 38.1144 250.26Z" fill="#79C3E7"/>
<path d="M20.2495 64L21.058 72.4156C15.0111 71.1971 11.4638 69.785 11.236 68.2761L11.2246 68.1224C11.2246 66.6249 14.4986 65.2185 20.2495 64Z" fill="#BEE3F7"/>
<path d="M82.8057 234.938C114.356 234.938 139.933 239.162 139.933 244.378C139.933 249.594 114.356 253.819 82.8057 253.819C74.0484 253.819 65.7524 253.494 58.3389 252.913L56.0898 236.031C64.0613 235.33 73.1545 234.938 82.8057 234.938Z" fill="#4B9FCF"/>
<path d="M37.011 238.739L21.0566 72.4141C24.7121 73.1486 29.2786 73.8148 34.5797 74.3899L56.0913 236.04C48.581 236.701 42.0672 237.623 37.011 238.739Z" fill="#BEE3F7"/>
<path d="M21.0585 72.4034L20.25 63.9878C23.6607 63.259 27.9482 62.5985 32.9417 62.0234L34.5816 74.3792C29.2805 73.8041 24.714 73.138 21.0585 72.4034Z" fill="#DAF3FD"/>
<path d="M159.736 20.1653C153.996 94.3057 148.251 168.452 142.506 242.592C142.506 243.35 142.415 244.477 141.931 245.712C140.507 249.396 136.823 251.025 135.104 251.782C132.832 252.784 130.907 253.075 130.384 253.149C111.594 255.825 107.346 255.99 107.346 255.99C95.2237 256.463 89.1597 256.719 84.2572 256.719C69.305 256.725 75.8815 257.527 52.1663 255.301C52.1663 255.301 46.0909 255.045 33.3935 252.494C32.2832 252.272 29.9658 251.782 27.6939 250.068C27.0505 249.579 25.5074 248.389 24.4825 246.35C23.3722 244.135 23.6 242.103 23.4747 240.503C23.0761 235.458 22.5808 233.351 22.6263 229.798C22.6377 229.251 22.0797 222.812 21.0036 209.938C19.2669 189.092 16.5281 157.548 14.3075 130.536C12.0129 102.619 10.2079 80.4809 8.3289 50.4683C7.53176 37.7367 6.93959 27.1061 6.54102 19.6016C8.65346 20.2108 11.9559 21.1275 16.0385 22.0841C26.9822 24.6407 35.4661 25.6086 40.2945 26.1382C76.5818 30.1524 110.797 27.4136 110.797 27.4136C123.944 26.3602 140.621 24.3161 159.736 20.1653ZM38.1138 250.273C43.5116 251.395 50.424 252.306 58.3385 252.927C65.752 253.507 74.048 253.832 82.8053 253.832C114.355 253.832 139.932 249.607 139.932 244.392L155.83 68.3471L155.835 68.3016C155.847 68.2447 155.852 68.182 155.852 68.1251C155.852 63.4219 123.477 59.607 83.5398 59.607C63.8389 59.607 45.9771 60.5351 32.938 62.0383C27.9444 62.6134 23.6569 63.2739 20.2463 64.0027C14.4954 65.2212 11.2214 66.6276 11.2214 68.1251C11.2214 68.1763 11.2271 68.2276 11.2328 68.2788L25.6783 244.392C25.6783 246.618 30.3302 248.662 38.1138 250.273Z" fill="white"/>
<path d="M22.4315 265.773C25.0507 266.565 28.541 267.567 32.6919 268.603C35.6129 269.332 45.2185 271.661 56.4127 273.113C62.2889 273.876 77.8275 275.601 97.9214 274.143C109.674 273.295 125.941 270.716 143.12 265.773L142.983 267.305C142.846 268.791 141.787 270.027 140.341 270.385L136.537 271.342C100.125 280.452 62.0042 280.207 25.7169 270.625C24.84 270.397 24.0827 269.896 23.5247 269.235C22.9667 268.575 22.6023 267.744 22.5226 266.838L22.4258 265.773H22.4315Z" fill="#BBD1CF"/>
</svg>
