<svg width="344" height="364" viewBox="0 0 344 364" fill="none" xmlns="http://www.w3.org/2000/svg">
<path d="M66.3223 205.403C66.3223 205.403 180.832 178.032 277.467 207.358C277.467 207.358 208.336 286.354 170.844 295.872C170.844 295.872 80.2863 245.342 66.3223 205.403Z" fill="#A70E13"/>
<path opacity="0.6" d="M66.3223 205.403C66.3223 205.403 180.832 178.032 277.467 207.358C277.467 207.358 208.336 286.354 170.844 295.872C170.844 295.872 80.2863 245.342 66.3223 205.403Z" fill="#A70E13"/>
<path d="M127.007 194.492C127.007 194.492 128.758 218.425 127.007 238.272C126.853 240.022 128.315 242.762 128.899 244.34C130.669 249.121 132.958 253.728 135.776 257.978C144.215 270.706 156.75 278.034 172.016 278.787C172.387 278.805 172.758 278.824 173.129 278.842C172.306 278.842 171.483 278.842 170.66 278.842C186.384 278.864 199.771 270.603 208.243 257.628C210.98 253.436 213.209 248.907 214.938 244.21C215.507 242.664 216.933 239.984 216.782 238.272C215.031 218.425 216.782 194.492 216.782 194.492H127.007Z" fill="#DB9561"/>
<path opacity="0.6" d="M127.008 194.492C127.008 194.492 127.227 197.493 127.433 202.247C131.045 206.964 135.196 211.219 139.557 215.274C149.065 224.115 160.114 233.395 173.067 233.497C186.02 233.395 197.069 224.116 206.577 215.274C209.974 212.115 213.248 208.837 216.237 205.312C216.466 198.817 216.783 194.492 216.783 194.492H127.008Z" fill="#DB9561"/>
<path d="M222.533 230.125C213.424 251.944 171.905 268.679 171.905 268.679V268.704C171.898 268.705 171.892 268.708 171.886 268.709V268.679C171.886 268.679 130.367 251.944 121.258 230.125L112.746 238.637C121.505 259.618 168.048 282.812 171.61 284.563C171.62 284.576 171.631 284.589 171.641 284.602C171.67 284.628 171.703 284.643 171.741 284.649C171.761 284.656 171.781 284.656 171.802 284.657C171.822 284.667 171.835 284.673 171.835 284.673V284.658C171.876 284.659 171.917 284.656 171.957 284.642L171.959 284.641V284.673C171.959 284.673 221.938 260.456 231.047 238.637L222.533 230.125Z" fill="#FEDBB4"/>
<path d="M263.647 248.641L272.711 249.945C272.711 249.945 335.196 280.441 335.196 312.24C335.196 312.24 274.247 357.731 171.782 357.731H172.009C69.5437 357.731 8.59473 312.24 8.59473 312.24C8.59473 280.441 71.0797 249.945 71.0797 249.945L80.1437 248.641C80.1437 248.641 128.291 287.087 170.629 295.874C170.629 295.874 234.178 274.9 263.647 248.641Z" fill="#A70E13"/>
<path opacity="0.3" d="M73.4029 342.743C83.2549 345.876 94.1489 348.782 106.016 351.187C111.18 347.489 116.508 344.023 121.625 340.259C127.619 335.849 133.143 330.85 138.539 325.735C143.868 320.683 149.006 315.429 153.921 309.972C158.285 305.127 162.489 300.159 166.305 294.877C125.081 284.521 80.1439 248.641 80.1439 248.641L71.0799 249.945C71.0799 249.945 68.3529 251.277 64.0479 253.667C65.1539 255.325 93.9399 297.745 145.755 299.236C145.755 299.236 129.223 331.154 73.4029 342.743Z" fill="#A70E13"/>
<path opacity="0.3" d="M270.3 342.743C260.448 345.876 249.554 348.782 237.687 351.187C232.523 347.489 227.195 344.023 222.078 340.259C216.084 335.849 210.56 330.85 205.164 325.735C199.835 320.683 194.697 315.429 189.782 309.972C185.419 305.127 181.214 300.159 177.398 294.877C218.622 284.521 263.559 248.641 263.559 248.641L272.623 249.945C272.623 249.945 275.349 251.277 279.655 253.667C278.549 255.325 249.764 297.745 197.948 299.236C197.948 299.236 214.48 331.154 270.3 342.743Z" fill="#A70E13"/>
<path opacity="0.6" d="M226.005 346.372C223.203 344.188 220.571 341.792 217.784 339.586C214.971 337.359 212.117 335.184 209.343 332.908C206.6 330.657 203.924 328.307 201.512 325.7C199.112 323.107 196.99 320.245 194.892 317.406C190.618 311.622 186.465 305.52 180.97 300.799C178.827 298.957 176.737 297.06 173.768 296.946C171.219 296.848 168.52 297.144 166.913 299.318C166.187 300.3 165.605 301.383 164.924 302.395C163.994 303.778 162.965 305.099 161.943 306.415C159.72 309.278 157.377 312.046 154.934 314.723C150.165 319.947 145.019 324.816 139.651 329.418C130.2 337.521 120.09 344.796 109.962 352.021C128.338 355.488 148.948 357.719 171.592 357.726C194.487 357.718 215.301 355.437 233.83 351.903C231.158 350.151 228.528 348.338 226.005 346.372Z" fill="#A70E13"/>
<path d="M264.713 240.909C274.521 231.359 283.812 203.742 283.812 203.742C243.156 191.616 181.911 190.004 172.511 189.825V189.805C172.511 189.805 172.3 189.807 171.896 189.814C171.492 189.807 171.281 189.805 171.281 189.805V189.825C161.881 190.004 100.636 191.616 59.9785 203.742C59.9785 203.742 69.2705 231.359 79.0775 240.909C79.0775 240.909 73.9155 244.522 72.6255 249.943C72.6255 249.943 99.5445 278.036 162.405 296.066C157.177 303.899 137.078 330.398 94.2555 348.197C103.08 350.385 112.539 352.319 122.597 353.866C132.29 345.165 158.511 320.714 172.051 299.139L171.879 299.027L171.896 299.013L172.051 299.139L172.049 298.89L172.572 298.466C173.021 298.35 173.461 298.232 173.906 298.116C187.508 319.628 214.293 345.207 223.94 353.866C233.997 352.318 243.457 350.384 252.281 348.197C208.129 329.845 188.137 302.248 183.691 295.395C244.904 277.348 271.165 249.944 271.165 249.944C269.874 244.523 264.713 240.909 264.713 240.909ZM170.871 298.374C170.988 298.404 171.102 298.435 171.219 298.465L171.742 298.889L171.741 298.938L170.871 298.374ZM171.895 293.211C169.294 290.767 109.743 234.888 73.1405 208.131C73.1405 208.131 128.838 196.235 171.28 202.025V202.195C171.484 202.165 171.69 202.139 171.895 202.11C172.099 202.139 172.306 202.165 172.51 202.195V202.025C214.952 196.235 270.648 208.131 270.648 208.131C234.048 234.888 174.497 290.766 171.895 293.211Z" fill="#F4BA65"/>
<path d="M271.164 249.945C271.164 249.945 242.639 279.721 175.734 297.637C235.846 274.566 261.727 242.057 261.727 242.057C246.02 256.642 208.401 275.388 208.401 275.388C256.394 245.023 274.955 221.299 282.029 208.68C278.868 217.069 271.93 233.883 264.711 240.912C264.711 240.912 269.874 244.525 271.164 249.945Z" fill="#F4BA65"/>
<path d="M72.6248 249.945C72.6248 249.945 101.15 279.721 168.055 297.637C107.943 274.566 82.0618 242.057 82.0618 242.057C97.7688 256.642 135.388 275.388 135.388 275.388C87.3948 245.023 68.8338 221.299 61.7598 208.68C64.9208 217.069 71.8588 233.883 79.0778 240.912C79.0778 240.912 73.9158 244.525 72.6248 249.945Z" fill="#F4BA65"/>
<path d="M158.367 348.306H149.362C146.138 348.306 143.525 345.693 143.525 342.469V338.415C143.525 335.191 146.138 332.578 149.362 332.578H158.367C161.591 332.578 164.204 335.191 164.204 338.415V342.469C164.204 345.693 161.591 348.306 158.367 348.306Z" fill="#FDB913"/>
<path opacity="0.6" d="M158.367 343.753H149.362C146.222 343.753 143.668 341.272 143.537 338.164C143.534 338.247 143.525 338.329 143.525 338.413V342.467C143.525 345.691 146.138 348.304 149.362 348.304H158.367C161.591 348.304 164.204 345.691 164.204 342.467V338.413C164.204 338.329 164.195 338.248 164.192 338.164C164.06 341.271 161.507 343.753 158.367 343.753Z" fill="#FDB913"/>
<path d="M194.427 348.306H185.422C182.198 348.306 179.585 345.693 179.585 342.469V338.415C179.585 335.191 182.199 332.578 185.422 332.578H194.427C197.651 332.578 200.264 335.191 200.264 338.415V342.469C200.265 345.693 197.651 348.306 194.427 348.306Z" fill="#FDB913"/>
<path opacity="0.6" d="M194.427 343.753H185.422C182.282 343.753 179.728 341.272 179.597 338.164C179.593 338.247 179.584 338.329 179.584 338.413V342.467C179.584 345.691 182.198 348.304 185.421 348.304H194.426C197.65 348.304 200.263 345.691 200.263 342.467V338.413C200.263 338.329 200.254 338.248 200.251 338.164C200.121 341.271 197.567 343.753 194.427 343.753Z" fill="#FDB913"/>
<path d="M225.156 90.5965C221.365 62.4105 181.871 64.4285 171.542 65.4465C161.213 64.4275 121.718 62.4105 117.928 90.5965C113.566 123.031 122.538 208.256 171.493 208.37V208.371C171.509 208.371 171.526 208.37 171.542 208.37C171.559 208.37 171.575 208.371 171.591 208.371V208.37C220.546 208.257 229.518 123.031 225.156 90.5965Z" fill="#DB9561"/>
<path d="M230.789 75.7227C230.789 75.7227 239.163 63.6847 232.185 52.6937C232.185 52.6937 232.708 24.6047 204.271 29.8387C204.271 29.8387 199.037 3.14569 172.344 11.3457C172.344 11.3457 168.855 4.19269 159.085 5.41369C149.315 6.63469 144.081 13.6137 144.605 17.4517C144.605 17.4517 137.278 14.3117 128.205 21.8137C119.133 29.3157 123.32 33.8517 123.32 33.8517C123.32 33.8517 119.656 31.5837 111.456 39.2597C103.256 46.9367 105.699 58.1017 108.49 60.1957L114.771 74.6757L230.789 75.7227Z" fill="#3A3F4F"/>
<path d="M100.823 144.528C101.668 148.244 103.338 151.739 105.488 154.872C107.472 157.764 109.899 160.447 112.691 162.583C114.729 164.142 117.634 165.967 120.304 165.017C121.775 164.494 122.696 163.149 123.3 161.778C124.054 160.066 124.436 158.215 124.504 156.35C124.64 152.623 123.664 148.94 122.528 145.422C121.428 142.013 119.979 138.502 117.31 136.01C117.291 135.992 117.268 135.982 117.246 135.969C116.758 135.303 116.206 134.682 115.585 134.124C113.325 132.092 110.345 131.238 107.342 131.647C104.719 132.005 102.412 133.458 101.249 135.878C99.9548 138.574 100.178 141.693 100.823 144.528Z" fill="#DB9561"/>
<path opacity="0.35" d="M122.527 145.419C121.427 142.01 119.978 138.499 117.309 136.007C117.29 135.989 117.267 135.979 117.245 135.966C116.757 135.3 116.205 134.679 115.584 134.121C114.439 133.092 113.11 132.366 111.688 131.953C111.91 134.794 112.218 137.627 112.628 140.447C113.543 146.727 114.95 152.931 116.83 158.992C117.484 161.102 118.198 163.191 118.959 165.264C119.41 165.245 119.859 165.17 120.302 165.013C121.773 164.49 122.694 163.145 123.299 161.774C124.052 160.062 124.434 158.211 124.502 156.346C124.639 152.62 123.663 148.937 122.527 145.419Z" fill="#DB9561"/>
<path d="M102.506 140.711C104.212 137.514 108.767 139.944 110.802 141.462C114.142 143.953 116.363 147.754 117.601 151.673C118.342 154.018 118.746 156.462 118.883 158.916C118.893 159.104 118.594 159.036 118.577 158.887C118.415 157.499 118.191 156.117 117.888 154.755C117.466 155.079 116.726 155.119 116.278 155.064C115.484 154.967 114.716 154.62 114.035 154.213C112.728 153.432 111.522 152.391 110.509 151.255C110.42 151.155 110.592 151.121 110.659 151.192C111.621 152.208 112.763 153.104 113.978 153.795C114.605 154.152 115.278 154.492 115.998 154.611C116.297 154.66 116.607 154.673 116.904 154.603C117.234 154.526 117.438 154.308 117.734 154.176C117.74 154.173 117.747 154.174 117.753 154.172C117.186 151.821 116.367 149.539 115.178 147.41C113.468 144.348 110.881 141.482 107.545 140.191C105.933 139.567 104.004 139.341 102.853 140.9C102.741 141.05 102.413 140.885 102.506 140.711Z" fill="#746556"/>
<path d="M242.556 144.528C241.711 148.244 240.041 151.739 237.891 154.872C235.906 157.764 233.48 160.447 230.688 162.583C228.65 164.142 225.745 165.967 223.075 165.017C221.604 164.494 220.683 163.149 220.079 161.778C219.325 160.066 218.943 158.215 218.875 156.35C218.738 152.623 219.715 148.94 220.851 145.422C221.951 142.013 223.4 138.502 226.069 136.01C226.088 135.992 226.111 135.982 226.133 135.969C226.621 135.303 227.173 134.682 227.794 134.124C230.054 132.092 233.034 131.238 236.037 131.647C238.66 132.005 240.967 133.458 242.13 135.878C243.423 138.574 243.201 141.693 242.556 144.528Z" fill="#DB9561"/>
<path opacity="0.35" d="M220.85 145.419C221.95 142.01 223.399 138.499 226.068 136.007C226.087 135.989 226.11 135.979 226.132 135.966C226.62 135.3 227.172 134.679 227.793 134.121C228.938 133.092 230.267 132.366 231.69 131.953C231.468 134.794 231.159 137.627 230.749 140.447C229.835 146.727 228.427 152.931 226.547 158.992C225.893 161.102 225.179 163.191 224.418 165.264C223.967 165.245 223.517 165.17 223.074 165.013C221.603 164.49 220.682 163.145 220.078 161.774C219.324 160.062 218.942 158.211 218.874 156.346C218.738 152.62 219.715 148.937 220.85 145.419Z" fill="#DB9561"/>
<path d="M240.873 140.711C239.167 137.514 234.612 139.944 232.577 141.462C229.236 143.953 227.016 147.754 225.778 151.673C225.037 154.018 224.633 156.462 224.496 158.916C224.486 159.104 224.785 159.036 224.802 158.887C224.964 157.499 225.188 156.117 225.491 154.755C225.913 155.079 226.653 155.119 227.101 155.064C227.895 154.967 228.663 154.62 229.344 154.213C230.651 153.432 231.857 152.391 232.87 151.255C232.959 151.155 232.787 151.121 232.72 151.192C231.758 152.208 230.616 153.104 229.401 153.795C228.774 154.152 228.101 154.492 227.381 154.611C227.082 154.66 226.772 154.673 226.475 154.603C226.145 154.526 225.941 154.308 225.645 154.176C225.639 154.173 225.632 154.174 225.626 154.172C226.193 151.821 227.012 149.539 228.201 147.41C229.911 144.348 232.498 141.482 235.834 140.191C237.446 139.567 239.374 139.341 240.526 140.9C240.637 141.05 240.966 140.885 240.873 140.711Z" fill="#746556"/>
<path d="M173.775 192.262C195.586 201.895 193.687 180.917 193.687 180.917C189.904 177.02 185.069 174.419 180.201 172.131C176.748 170.508 170.276 168.235 171.76 163.231C173.051 158.88 180.684 161.146 183.688 162.014C189.125 163.584 193.994 166.5 197.599 170.89C197.9 171.256 201.626 176.012 201.324 176.142C219.166 168.667 223.265 118.998 223.265 118.998C212.897 105.737 215.549 78.0078 215.549 78.0078L228.636 82.4568C228.636 82.4568 236.022 116.062 224.574 142.096C224.574 142.096 230.941 154.045 221.066 160.826C221.066 160.826 227.257 163.626 222.245 167.164C222.245 167.164 228.288 171.144 223.424 173.797C223.424 173.797 228.583 177.924 226.814 183.525C225.045 189.126 222.097 188.094 222.097 188.094C222.097 188.094 225.929 193.4 222.834 199.002C219.739 204.603 214.58 201.508 214.58 201.508C214.58 201.508 219.592 209.32 214.727 214.774C209.863 220.228 203.377 216.395 203.377 216.395C203.377 216.395 207.799 225.091 199.397 230.987C190.995 236.883 184.657 230.397 184.657 230.397C184.657 230.397 181.856 239.536 174.339 239.536C174.339 239.536 174.545 242.036 171.694 242.036C168.843 242.036 168.715 239.536 168.715 239.536C161.198 239.536 158.397 230.397 158.397 230.397C158.397 230.397 152.059 236.883 143.657 230.987C135.255 225.091 139.677 216.395 139.677 216.395C139.677 216.395 133.191 220.227 128.327 214.774C123.463 209.32 128.474 201.508 128.474 201.508C128.474 201.508 123.315 204.603 120.22 199.002C117.125 193.401 120.957 188.094 120.957 188.094C120.957 188.094 118.009 189.126 116.24 183.525C114.471 177.924 119.63 173.797 119.63 173.797C114.766 171.144 120.809 167.164 120.809 167.164C115.797 163.626 121.988 160.826 121.988 160.826C112.112 154.046 118.48 142.096 118.48 142.096C107.032 116.062 114.418 82.4568 114.418 82.4568L127.505 78.0078C127.505 78.0078 130.157 105.736 119.789 118.998C119.789 118.998 123.888 168.667 141.73 176.142C141.428 176.013 145.154 171.257 145.455 170.89C149.059 166.5 153.929 163.584 159.366 162.014C162.37 161.146 170.003 158.881 171.294 163.231C172.778 168.235 166.307 170.507 162.853 172.131C157.985 174.419 153.15 177.02 149.367 180.917C149.367 180.917 147.469 201.895 169.279 192.262C169.986 191.95 170.752 191.786 171.525 191.786C172.301 191.786 173.068 191.95 173.775 192.262Z" fill="#3A3F4F"/>
<path d="M185.089 176.883C185.089 176.883 180.28 184.191 171.348 184.191H171.353C162.421 184.191 157.612 176.883 157.612 176.883H185.089Z" fill="#934A48"/>
<path opacity="0.6" d="M185.089 176.883C185.089 176.883 180.28 184.191 171.348 184.191H171.353C162.421 184.191 157.612 176.883 157.612 176.883H185.089Z" fill="#934A48"/>
<path d="M156.408 176.456C156.408 176.456 169.987 181.967 186.648 176.554C186.648 176.554 183.98 176.505 181.371 175.373C178.762 174.241 174.789 172.913 171.409 174.291C171.409 174.291 167.614 172.716 162.752 174.98C157.891 177.243 156.408 176.456 156.408 176.456Z" fill="#934A48"/>
<path d="M126.027 114.982C126.027 114.982 134.658 114.566 143.705 117.894C152.752 121.222 160.551 121.638 164.815 114.878C160.818 113.379 156.818 111.89 152.814 110.412C149.419 109.159 145.938 107.381 142.278 107.121C139.689 106.938 137.017 107.355 134.553 108.147C132.701 108.742 130.901 109.586 129.348 110.769C128.608 111.333 127.924 111.976 127.344 112.705C127.172 112.921 126.082 114.979 126.027 114.982Z" fill="#231F20"/>
<path d="M156.07 132.33C156.07 132.33 152.081 113.183 130.474 126.945C130.474 126.945 137.455 142.435 156.07 132.33Z" fill="white"/>
<path d="M144.388 135.605C148.082 135.605 151.077 132.61 151.077 128.916C151.077 125.221 148.082 122.227 144.388 122.227C140.694 122.227 137.699 125.221 137.699 128.916C137.699 132.61 140.694 135.605 144.388 135.605Z" fill="#6D6E71"/>
<path d="M148.224 128.914C148.224 131.032 146.507 132.75 144.388 132.75C142.27 132.75 140.552 131.033 140.552 128.914C140.552 126.796 142.269 125.078 144.388 125.078C146.507 125.078 148.224 126.796 148.224 128.914Z" fill="#241F20"/>
<path d="M143.342 127.554C143.342 128.887 142.262 129.967 140.929 129.967C139.596 129.967 138.516 128.887 138.516 127.554C138.516 126.221 139.596 125.141 140.929 125.141C142.262 125.141 143.342 126.222 143.342 127.554Z" fill="white"/>
<path d="M156.069 132.332C156.069 132.332 155.135 121.224 144.864 120.984C134.593 120.744 129.361 126.792 129.361 126.792L132.385 129.96L131.329 126.984C131.329 126.984 149.328 115.368 156.069 132.332Z" fill="#241F20"/>
<path d="M217.029 114.982C217.029 114.982 208.398 114.566 199.351 117.894C190.304 121.222 182.505 121.638 178.241 114.878C182.238 113.379 186.238 111.89 190.242 110.412C193.637 109.159 197.117 107.381 200.778 107.121C203.367 106.938 206.039 107.355 208.503 108.147C210.355 108.742 212.155 109.586 213.708 110.769C214.448 111.333 215.132 111.976 215.712 112.705C215.883 112.921 216.973 114.979 217.029 114.982Z" fill="#231F20"/>
<path d="M186.986 132.33C186.986 132.33 190.975 113.183 212.582 126.945C212.582 126.945 205.601 142.435 186.986 132.33Z" fill="white"/>
<path d="M198.668 135.605C202.362 135.605 205.357 132.61 205.357 128.916C205.357 125.221 202.362 122.227 198.668 122.227C194.973 122.227 191.979 125.221 191.979 128.916C191.979 132.61 194.973 135.605 198.668 135.605Z" fill="#6D6E71"/>
<path d="M202.502 128.914C202.502 131.032 200.785 132.75 198.666 132.75C196.548 132.75 194.83 131.033 194.83 128.914C194.83 126.796 196.547 125.078 198.666 125.078C200.785 125.078 202.502 126.796 202.502 128.914Z" fill="#241F20"/>
<path d="M197.621 127.554C197.621 128.887 196.541 129.967 195.208 129.967C193.875 129.967 192.795 128.887 192.795 127.554C192.795 126.221 193.875 125.141 195.208 125.141C196.54 125.141 197.621 126.222 197.621 127.554Z" fill="white"/>
<path d="M186.986 132.332C186.986 132.332 187.92 121.224 198.191 120.984C208.463 120.744 213.694 126.792 213.694 126.792L210.67 129.96L211.726 126.984C211.726 126.984 193.727 115.368 186.986 132.332Z" fill="#241F20"/>
<g opacity="0.7">
<path d="M183.886 153.233L172.771 134.234H172.778L161.663 153.233L172.743 155.915L183.886 153.233Z" fill="#FCDAAB"/>
<path d="M172.627 134.492V155.872L161.663 153.233L172.627 134.492Z" fill="#FCDAAB"/>
</g>
<path d="M230.44 86.1646C234.353 79.6426 237.707 64.3626 237.707 64.3626L243.484 61.0086L239.198 45.9146L228.39 53.9276C238.825 72.5616 220.005 71.2566 211.619 61.0086C203.234 50.7596 214.6 44.9836 214.6 44.9836L208.823 28.5856L199.88 44.4246C215.956 60.5466 190.01 67.4976 178.451 51.3196C169.887 39.3336 187.582 31.5676 187.582 31.5676L172.116 9.76562H172.119L156.653 31.5676C156.653 31.5676 174.348 39.3336 165.784 51.3196C154.225 67.4986 128.279 60.5476 144.355 44.4246L135.411 28.5856L129.634 44.9836C129.634 44.9836 141.001 50.7606 132.616 61.0086C124.231 71.2576 105.41 72.5616 115.845 53.9276L105.037 45.9146L100.751 61.0086L106.528 64.3626C106.528 64.3626 109.882 79.6426 113.795 86.1646C113.795 86.1646 124.969 78.3656 171.349 78.3656C217.729 78.3656 230.44 86.1646 230.44 86.1646Z" fill="#FFD400"/>
<path opacity="0.6" d="M237.707 60.8943C237.707 60.8943 234.353 76.1742 230.44 82.6962C230.44 82.6962 217.728 74.8973 171.348 74.8973C124.968 74.8973 113.794 82.6962 113.794 82.6962C109.881 76.1742 106.527 60.8943 106.527 60.8943L101.596 58.0312L100.75 61.0093L106.527 64.3632C106.527 64.3632 109.881 79.6432 113.794 86.1652C113.794 86.1652 124.968 78.3663 171.348 78.3663C217.728 78.3663 230.44 86.1652 230.44 86.1652C234.353 79.6432 237.707 64.3632 237.707 64.3632L243.484 61.0093L242.638 58.0312L237.707 60.8943Z" fill="#FFD400"/>
<path d="M171.593 55.3672L180.226 65.7292L171.593 76.0902H171.588L162.955 65.7292L171.588 55.3672" fill="#FEDBB4"/>
<path opacity="0.6" d="M171.493 55.4844L162.955 65.7314L171.493 75.9784V55.4844Z" fill="#FEDBB4"/>
<path d="M138.73 62.6797L144.317 69.3847L138.73 76.0897H138.727L133.14 69.3847L138.727 62.6797" fill="#FEDBB4"/>
<path opacity="0.6" d="M138.665 62.75L133.14 69.381L138.665 76.012V62.75Z" fill="#FEDBB4"/>
<path d="M204.454 62.6797L210.04 69.3847L204.454 76.0897H204.45L198.864 69.3847L204.45 62.6797" fill="#FEDBB4"/>
<path opacity="0.6" d="M204.389 62.75L198.864 69.381L204.389 76.012V62.75Z" fill="#FEDBB4"/>
</svg>
