<svg width="224" height="345" viewBox="0 0 224 345" fill="none" xmlns="http://www.w3.org/2000/svg">
<path d="M74.3794 0C75.2747 0.00517257 76.1581 0.0846087 77.0488 0.163675C78.2419 4.76061 81.8327 11.1151 83.662 15.7941C82.8828 15.9503 82.1043 16.1277 81.3136 16.2134L75.9005 17.4715C74.8701 14.7673 71.42 7.34652 71.1377 5.10421C70.9511 3.62006 73.4842 1.17898 74.3794 0Z" fill="#A15526"/>
<path d="M77.0488 0.164062C79.9732 0.295594 82.9023 0.46481 85.8289 0.523925C88.5234 6.41178 91.1134 12.3414 93.7001 18.2765C95.0017 21.2622 96.484 24.2483 97.5909 27.3082C96.1544 28.1909 95.7669 31.2205 93.451 32.9101L93.3321 32.9988C92.571 32.9138 91.7622 32.7631 90.9978 32.8111C89.9662 30.3693 88.8696 27.9511 87.8048 25.5237C86.6994 22.2535 85.0297 18.9815 83.662 15.7948C81.8327 11.1155 78.2418 4.761 77.0488 0.164062Z" fill="#CB8C4F"/>
<path d="M75.9006 17.469L81.3137 16.2109C81.95 17.7993 82.5973 19.3666 83.3307 20.9135C83.6621 21.8472 83.8841 22.837 84.2277 23.7573C84.1431 25.022 83.5136 25.7425 83.1725 26.8823C81.6234 27.2525 80.0601 27.568 78.5024 27.9002L41.628 36.0263C35.7948 37.3368 29.8567 38.4803 24.0882 40.0435C24.0471 40.0302 24.0035 40.0232 23.9651 40.004C23.0684 39.5544 22.284 35.8789 21.8606 34.7797C21.2469 33.2039 20.3037 31.4685 19.9893 29.8225C24.4709 28.6595 29.0715 27.8234 33.5865 26.7796C47.6518 23.529 61.7762 20.4547 75.9006 17.469Z" fill="#943411"/>
<path d="M75.9006 17.469L81.3137 16.2109C81.95 17.7993 82.5973 19.3666 83.3307 20.9135C78.8856 22.4247 73.4514 23.2279 68.7987 24.2498L37.5701 31.1563L27.1943 33.5128C25.4286 33.9174 23.5853 34.2344 21.8606 34.7797C21.2469 33.2039 20.3037 31.4685 19.9893 29.8225C24.4709 28.6595 29.0715 27.8234 33.5865 26.7796C47.6518 23.529 61.7762 20.4547 75.9006 17.469Z" fill="#EB7B1F"/>
<path d="M190.751 297.803C192.186 297.997 196.412 296.22 198.209 295.875C198.94 297.503 199.931 299.227 200.456 300.917C200.053 301.228 199.555 301.281 199.068 301.385L199.249 307.095C198.173 307.378 196.939 307.59 195.994 308.196C191.396 309.89 184.962 311.099 180.076 312.284L149.149 319.882C143.731 321.215 137.196 322.508 132.033 324.268C131.27 322.447 130.643 320.562 129.977 318.704C129.133 317.04 128.487 314.98 127.921 313.194C139.79 310.585 151.543 307.293 163.36 304.449L180.56 300.276C183.923 299.479 187.461 298.846 190.751 297.803Z" fill="#943411"/>
<path d="M190.751 297.803C192.186 297.997 196.412 296.22 198.209 295.875C198.94 297.503 199.931 299.227 200.456 300.917C200.053 301.228 199.555 301.281 199.068 301.385L129.977 318.704C129.133 317.04 128.487 314.98 127.921 313.194C139.79 310.585 151.543 307.293 163.36 304.449L180.56 300.276C183.923 299.479 187.461 298.846 190.751 297.803Z" fill="#EB7B1F"/>
<path d="M175.146 261.008C177.432 261.166 180.714 259.754 182.912 259.094C183.695 260.809 184.537 262.518 185.221 264.275C185.904 265.94 186.597 267.601 187.254 269.277C184.826 270.064 182.278 270.625 179.895 271.513L190.75 297.8C187.461 298.843 183.922 299.476 180.559 300.273L163.359 304.445C151.542 307.289 139.789 310.582 127.92 313.191C126.803 310.829 125.974 308.182 125.033 305.731C122.683 299.608 120.446 293.448 118.02 287.354L118.169 287.043C117.258 286.49 116.426 282.828 116.008 281.672C115.168 279.911 114.563 277.9 113.925 276.056L157.72 265.371C161.185 264.521 164.632 263.623 168.078 262.7C170.382 262.083 172.779 261.301 175.146 261.008Z" fill="#FEFEFE"/>
<path d="M175.146 261.008C177.432 261.166 180.714 259.754 182.912 259.094C183.695 260.809 184.537 262.518 185.221 264.275C185.904 265.94 186.597 267.601 187.254 269.277C184.826 270.064 182.278 270.625 179.895 271.513L140.582 281.321C133.148 283.146 125.433 284.634 118.169 287.043C117.258 286.49 116.426 282.828 116.008 281.672C115.168 279.911 114.563 277.9 113.925 276.056L157.72 265.371C161.185 264.521 164.632 263.623 168.078 262.7C170.382 262.083 172.779 261.301 175.146 261.008Z" fill="#943411"/>
<path d="M175.146 261.008C177.432 261.166 180.714 259.754 182.912 259.094C183.695 260.809 184.537 262.518 185.221 264.275C162.145 270.014 138.978 275.528 116.008 281.672C115.168 279.911 114.563 277.9 113.925 276.056L157.72 265.371C161.185 264.521 164.632 263.623 168.078 262.7C170.382 262.083 172.779 261.301 175.146 261.008Z" fill="#EB7B1F"/>
<path d="M2.80649 13.4219C3.25466 13.4843 4.14508 13.4836 4.41959 13.8416C5.30484 14.9951 9.2286 26.7309 10.184 29.2817L30.6013 83.447L67.1115 178.812L127.255 341.387C127.552 342.213 128.486 344.065 128.353 344.851C128.344 344.907 128.302 344.952 128.277 345.003C126.186 344.524 124.112 343.613 122.088 342.891C119.401 341.934 116.684 341.06 113.972 340.176C110.23 328.5 105.98 316.945 101.938 305.368L77.0875 234.678L0 18.7518C0.899288 16.9525 1.83257 15.182 2.80649 13.4219Z" fill="#A15526"/>
<path d="M2.80664 13.4168C6.30182 13.1227 10.121 13.5849 13.6421 13.6869L19.9892 29.8231C20.3036 31.4691 21.2468 33.2045 21.8605 34.7803C22.2839 35.8795 23.0683 39.5549 23.965 40.0046C24.0035 40.0238 24.0471 40.0308 24.0881 40.0441L23.8889 40.3729C25.4377 44.9854 27.3941 49.4948 29.2255 54.0008C29.9124 55.6911 30.5094 57.8547 31.4601 59.3866C31.8166 61.0758 32.7558 62.8374 33.4356 64.4353C34.0028 65.7898 34.7531 69.0988 35.9148 69.8034L35.7171 70.0217C36.5199 72.5245 44.5947 93.9803 45.375 94.5478L45.2125 94.7828C45.5664 96.451 46.3493 98.3371 47.0616 99.8922L49.1059 105.152C50.2982 108.182 58.0238 128.693 58.8307 129.581C58.5477 130.57 60.0803 133.607 60.5059 134.67C61.2071 136.294 61.7565 138.504 62.6787 139.971C63.4853 142.592 72.4216 165.58 73.0867 166.015C72.7427 166.905 74.3048 170.179 74.7038 171.227C75.3515 172.874 75.9368 174.962 76.8017 176.492C78.724 182.083 80.8832 187.595 82.97 193.127C84.1416 196.233 85.1691 199.573 86.556 202.581C87.0522 204.325 87.7561 206.128 88.505 207.781C89.1275 209.422 89.9792 211.178 90.3412 212.889C93.4178 221.389 96.3662 230.055 99.8713 238.382C100.749 240.053 101.269 241.95 101.92 243.724C102.557 245.518 103.126 247.384 103.885 249.129C105.515 254.182 107.599 259.117 109.448 264.094C110.91 268.03 112.172 272.252 113.925 276.056C114.563 277.9 115.168 279.91 116.008 281.671C116.427 282.827 117.258 286.489 118.169 287.042L118.021 287.353C120.447 293.447 122.684 299.607 125.033 305.73C125.974 308.181 126.803 310.828 127.921 313.19C128.487 314.976 129.133 317.035 129.977 318.7C130.643 320.558 131.27 322.443 132.033 324.263C134.226 330.1 136.198 336.221 138.78 341.886C137.21 342.465 129.525 345.022 128.277 344.998C128.302 344.948 128.344 344.902 128.353 344.846C128.486 344.06 127.552 342.208 127.255 341.383L67.1116 178.808L30.6014 83.4423L10.1842 29.277C9.22875 26.7262 5.30499 14.9904 4.41974 13.8369C4.14523 13.4789 3.25481 13.4793 2.80664 13.4168Z" fill="#CB8C4F"/>
<path d="M81.3134 16.2162C82.1041 16.1305 82.8825 15.9532 83.6618 15.7969C85.0295 18.9839 86.6992 22.2556 87.8046 25.5257C88.8694 27.9531 89.966 30.3713 90.9976 32.8131C91.762 32.7651 92.5707 32.9159 93.3319 33.0008L93.4508 32.9122C95.7667 31.2226 96.1542 28.1929 97.5907 27.3103L184.047 228.227L212.463 293.902L219.248 309.555C220.564 312.559 221.987 315.555 223.187 318.604C219.708 319.84 216.123 321.056 212.53 321.91C208.252 320.451 204.034 318.752 199.81 317.142C198.431 314.216 197.348 311.141 195.994 308.196C196.939 307.59 198.173 307.379 199.248 307.096L199.068 301.385C199.554 301.282 200.052 301.229 200.455 300.918C199.93 299.228 198.939 297.503 198.208 295.875C196.411 296.221 192.186 297.998 190.75 297.804L179.895 271.517C182.279 270.629 184.826 270.068 187.254 269.281C186.597 267.605 185.904 265.944 185.221 264.279C184.538 262.522 183.695 260.813 182.912 259.098C180.714 259.758 177.432 261.17 175.146 261.012C172.78 261.305 170.382 262.087 168.078 262.704C164.632 263.627 161.185 264.525 157.72 265.375L113.925 276.06C112.172 272.256 110.909 268.034 109.447 264.099C107.599 259.121 105.515 254.187 103.885 249.134C103.126 247.389 102.557 245.523 101.92 243.728C101.269 241.955 100.749 240.058 99.8711 238.386C96.3659 230.06 93.4176 221.393 90.341 212.893C89.9789 211.183 89.1273 209.426 88.5047 207.786C87.7558 206.133 87.052 204.33 86.5558 202.586C85.1688 199.578 84.1413 196.237 82.9697 193.132C80.883 187.6 78.7238 182.088 76.8014 176.496C75.9365 174.967 75.3513 172.879 74.7036 171.232C74.3046 170.183 72.7425 166.91 73.0864 166.019C72.4214 165.585 63.485 142.596 62.6785 139.976C61.7563 138.508 61.2069 136.298 60.5056 134.674C60.08 133.611 58.5475 130.575 58.8305 129.586C58.0235 128.698 50.2979 108.187 49.1057 105.157L47.0614 99.8969C46.3491 98.3418 45.5662 96.4557 45.2122 94.7875L45.3748 94.5525C44.5945 93.985 36.5197 72.5292 35.7168 70.0264L35.9145 69.8081C34.7529 69.1035 34.0025 65.7945 33.4354 64.4401C32.7556 62.8421 31.8164 61.0805 31.4598 59.3913C30.5092 57.8595 29.9121 55.6958 29.2253 54.0055C27.3938 49.4995 25.4375 44.9901 23.8887 40.3776L24.0878 40.0488C29.8563 38.4856 35.7944 37.3421 41.6276 36.0316L78.5021 27.9055C80.0598 27.5733 81.623 27.2578 83.1722 26.8876C83.5132 25.7478 84.1428 25.0273 84.2274 23.7626C83.8838 22.8423 83.6618 21.8525 83.3303 20.9188C82.5969 19.3719 81.9496 17.8046 81.3134 16.2162Z" fill="#A15526"/>
<path d="M81.3132 16.2162C82.1039 16.1305 82.8824 15.9532 83.6616 15.7969C85.0294 18.9839 86.699 22.2556 87.8044 25.5257C88.8693 27.9531 89.9658 30.3713 90.9974 32.8131C92.4313 36.7543 94.3381 40.5975 95.9778 44.4647C96.5058 45.7095 97.2226 47.0928 97.5714 48.3914C98.7178 50.7154 99.6496 53.1665 100.67 55.5503L106.308 68.7292L109.856 76.9721C110.571 78.614 111.418 80.298 111.953 82.0035C111.964 82.107 111.973 82.2104 111.987 82.3131C112.239 84.1919 113.552 85.9402 114.072 87.7772C114.266 88.4648 114.599 89.1165 114.897 89.765C114.456 90.0324 114.005 90.1093 113.502 89.9615C113.135 89.8533 112.869 89.5115 112.726 89.166C111.953 87.3084 112.169 86.0026 110.884 84.1509L110.675 84.087C110.195 83.1093 109.48 80.812 108.562 80.2508C106.022 80.822 103.473 81.4682 100.91 81.9174L94.899 67.6951C93.4606 64.3625 91.8671 61.0232 90.7229 57.5779C93.1244 57.2107 95.5877 56.3864 97.9157 55.6866L98.0805 55.4852C98.1415 54.7655 97.6183 54.3181 97.5462 53.5965C96.9665 52.5875 96.6111 51.4599 95.8585 50.5576C95.1358 49.0155 94.4453 47.4659 93.7832 45.8964C91.4179 46.3542 89.081 47.0795 86.6971 47.4098C85.2632 44.5201 84.1234 41.3778 82.855 38.4054C81.3805 34.9498 79.6787 31.469 78.502 27.9055C80.0596 27.5733 81.6229 27.2578 83.172 26.8876C83.5131 25.7478 84.1426 25.0273 84.2272 23.7626C83.8836 22.8423 83.6616 21.8525 83.3302 20.9188C82.5968 19.3719 81.9495 17.8046 81.3132 16.2162Z" fill="#6B210E"/>
<path d="M83.172 26.8894L85.6279 26.6094L93.7832 45.8983C91.4179 46.356 89.081 47.0813 86.6971 47.4116C85.2632 44.522 84.1234 41.3796 82.855 38.4073C81.3805 34.9516 79.6787 31.4708 78.502 27.9073C80.0596 27.5752 81.6229 27.2596 83.172 26.8894Z" fill="#A15526"/>
<path d="M90.7227 57.5788C93.1242 57.2116 95.5875 56.3873 97.9155 55.6875C98.2284 57.3896 107.405 78.6574 108.562 80.2516C106.022 80.8228 103.473 81.4691 100.91 81.9183L94.8988 67.696C93.4604 64.3634 91.8669 61.0241 90.7227 57.5788Z" fill="#A15526"/>
<path d="M115.441 90.1641C116.269 92.559 117.441 94.9003 118.45 97.2279L124.024 110.279L144.969 159.781L194.628 279.379C198.813 289.482 203.333 299.481 207.63 309.543C208.753 312.173 212.176 319.38 212.53 321.903C208.252 320.445 204.033 318.745 199.809 317.135C198.43 314.209 197.348 311.134 195.993 308.189C196.938 307.583 198.172 307.372 199.248 307.089L199.067 301.378C199.554 301.275 200.052 301.222 200.455 300.911C199.93 299.221 198.939 297.496 198.208 295.869C196.411 296.214 192.185 297.991 190.75 297.797L179.894 271.51C182.278 270.622 184.826 270.062 187.253 269.274C186.596 267.598 185.903 265.937 185.22 264.272C184.537 262.515 183.694 260.806 182.912 259.091C180.714 259.751 177.432 261.163 175.146 261.005C174.074 257.368 172.078 253.792 170.636 250.258L166.356 239.62C165.614 237.761 164.961 235.67 163.967 233.939C166.004 233.732 169.402 232.464 171.451 231.806C170.989 230.131 170.165 228.467 169.479 226.873L167.376 221.877C165.016 222.419 162.218 223.522 159.839 223.692L149.34 198.155C151.935 197.743 154.611 196.941 157.137 196.211C156.516 194.578 155.811 192.972 155.138 191.36C154.324 189.699 153.764 187.861 152.997 186.164C150.276 186.684 147.659 187.649 144.948 188.224C144.126 185.431 142.818 182.671 141.717 179.969C139.329 174.103 136.819 168.28 134.469 162.399L142.05 160.556C141.28 158.982 140.681 157.266 140.012 155.643L137.889 150.48C135.235 151.084 132.616 151.887 129.927 152.321C126.667 143.637 123.195 134.852 119.403 126.388L126.581 124.387C126.664 124.33 126.753 124.282 126.832 124.218C127.043 124.047 127.209 123.92 127.193 123.639C127.121 122.39 125.962 120.317 125.106 119.427C124.186 117.9 123.688 116.126 122.734 114.611C121.158 111.693 120.011 108.326 118.716 105.261C116.645 100.357 114.435 95.5003 112.475 90.5516C113.403 90.2808 114.479 90.2306 115.441 90.1641Z" fill="#6B210E"/>
<path d="M157.137 196.219C158.999 201.369 161.165 206.428 163.231 211.498C164.638 214.949 165.937 218.449 167.376 221.885C165.017 222.427 162.218 223.53 159.839 223.7L149.341 198.163C151.935 197.751 154.612 196.948 157.137 196.219Z" fill="#A15526"/>
<path d="M142.05 160.562C143.406 163.921 151.918 185.29 152.998 186.171C150.276 186.691 147.659 187.656 144.949 188.231C144.126 185.437 142.818 182.677 141.718 179.976C139.329 174.109 136.82 168.287 134.47 162.406L142.05 160.562Z" fill="#A15526"/>
<path d="M119.403 126.392L126.582 124.391C129.168 130.125 131.676 135.909 134.11 141.71C135.109 144.09 136.517 148.551 137.89 150.484C135.235 151.088 132.617 151.891 129.928 152.325C126.667 143.641 123.196 134.856 119.403 126.392Z" fill="#A15526"/>
<path d="M187.255 269.273C189.454 274.969 191.875 280.607 194.29 286.214C195.479 288.972 197.552 293.088 198.209 295.868C196.412 296.214 192.186 297.99 190.751 297.796L179.896 271.509C182.279 270.622 184.827 270.061 187.255 269.273Z" fill="#A15526"/>
<path d="M171.451 231.812C173.686 237.365 176.044 242.854 178.367 248.368C179.874 251.944 181.301 255.567 182.912 259.097C180.714 259.757 177.432 261.169 175.146 261.011C174.074 257.374 172.078 253.798 170.636 250.264L166.356 239.626C165.614 237.768 164.961 235.676 163.967 233.945C166.004 233.738 169.402 232.47 171.451 231.812Z" fill="#A15526"/>
<path d="M62.6787 139.972C65.3939 139.148 68.2581 138.6 71.0191 137.936L87.4852 134.002C98.1259 131.501 108.723 128.711 119.403 126.391C123.196 134.854 126.667 143.64 129.928 152.324C132.617 151.89 135.235 151.086 137.89 150.482L140.013 155.646C140.682 157.268 141.28 158.985 142.051 160.558L134.47 162.401C136.82 168.282 139.33 174.105 141.718 179.971C142.818 182.673 144.126 185.433 144.949 188.227L111.588 196.423C103.27 198.421 94.7682 200.184 86.556 202.581C85.169 199.573 84.1415 196.233 82.97 193.127C80.8832 187.595 78.724 182.083 76.8017 176.492C75.9367 174.962 75.3515 172.874 74.7038 171.227C74.3048 170.179 72.7427 166.905 73.0867 166.015C72.4216 165.581 63.4853 142.592 62.6787 139.972Z" fill="#FEFEFE"/>
<path d="M129.929 152.326C132.617 151.892 135.236 151.088 137.89 150.484L140.013 155.648C140.682 157.271 141.281 158.987 142.051 160.561L134.471 162.404C124.718 164.541 115.019 167.125 105.312 169.473C95.8092 171.771 86.21 173.837 76.8022 176.494C75.9373 174.965 75.352 172.877 74.7044 171.23C74.3053 170.181 72.7432 166.908 73.0872 166.017C78.8579 164.356 84.8865 163.172 90.7293 161.745L129.929 152.326Z" fill="#943411"/>
<path d="M129.929 152.326C132.617 151.892 135.236 151.088 137.89 150.484L140.013 155.648L95.7231 166.039C88.7301 167.732 81.6153 169.233 74.7044 171.23C74.3053 170.181 72.7432 166.908 73.0872 166.017C78.8579 164.356 84.8865 163.172 90.7293 161.745L129.929 152.326Z" fill="#EB7B1F"/>
<path d="M62.6787 139.972C65.3939 139.148 68.2581 138.6 71.0191 137.936L87.4852 134.002C98.1259 131.501 108.723 128.711 119.403 126.391C123.196 134.854 126.667 143.64 129.928 152.324L90.7288 161.743C84.886 163.17 78.8574 164.354 73.0867 166.015C72.4216 165.581 63.4853 142.592 62.6787 139.972Z" fill="#FEFEFE"/>
<path d="M144.949 188.225C147.659 187.649 150.276 186.684 152.998 186.164C153.764 187.861 154.325 189.7 155.139 191.36C155.812 192.972 156.517 194.578 157.137 196.211C154.612 196.941 151.935 197.743 149.341 198.156L159.839 223.692C162.218 223.523 165.016 222.419 167.376 221.877L169.479 226.873C170.165 228.468 170.989 230.131 171.451 231.806C169.402 232.464 166.005 233.732 163.967 233.939C164.962 235.67 165.614 237.762 166.356 239.62L170.636 250.258C172.078 253.792 174.074 257.368 175.146 261.005C172.779 261.298 170.382 262.08 168.078 262.697C164.632 263.62 161.185 264.518 157.72 265.368L113.925 276.054C112.172 272.25 110.909 268.028 109.447 264.092C107.598 259.115 105.515 254.18 103.885 249.127C103.126 247.382 102.557 245.516 101.92 243.721C101.269 241.948 100.749 240.051 99.871 238.38C96.3658 230.053 93.4174 221.387 90.3409 212.887C89.9788 211.176 89.1272 209.42 88.5046 207.779C87.7557 206.126 87.0519 204.323 86.5557 202.579C94.7679 200.182 103.269 198.419 111.587 196.421L144.949 188.225Z" fill="#FEFEFE"/>
<path d="M167.376 221.883L169.479 226.879C170.165 228.473 170.989 230.137 171.451 231.812C169.402 232.47 166.005 233.738 163.967 233.945C158.587 235.623 152.918 236.745 147.444 238.088L118.547 245.411C113.675 246.657 108.701 247.701 103.885 249.133C103.126 247.388 102.557 245.522 101.92 243.727C101.269 241.954 100.749 240.057 99.8711 238.386L159.839 223.698C162.218 223.528 165.017 222.425 167.376 221.883Z" fill="#943411"/>
<path d="M167.376 221.883L169.479 226.879C167.754 227.769 165.299 228.094 163.398 228.546L153.497 230.906L120.093 239.201C114.051 240.699 107.885 241.962 101.92 243.727C101.269 241.954 100.749 240.057 99.8711 238.386L159.839 223.698C162.218 223.528 165.017 222.425 167.376 221.883Z" fill="#EB7B1F"/>
<path d="M144.949 188.225C147.659 187.649 150.276 186.684 152.998 186.164C153.764 187.861 154.325 189.7 155.139 191.36C155.812 192.972 156.517 194.578 157.137 196.211C154.612 196.941 151.935 197.743 149.341 198.156L159.839 223.692L99.871 238.38C96.3658 230.053 93.4174 221.387 90.3409 212.887C89.9788 211.176 89.1272 209.42 88.5046 207.779C87.7557 206.126 87.0519 204.323 86.5557 202.579C94.7679 200.182 103.269 198.419 111.587 196.421L144.949 188.225Z" fill="#FEFEFE"/>
<path d="M144.949 188.225C147.659 187.649 150.276 186.684 152.998 186.164C153.764 187.861 154.325 189.7 155.139 191.36C155.812 192.972 156.517 194.578 157.137 196.211C154.612 196.941 151.935 197.743 149.341 198.156C129.782 203.459 109.877 207.529 90.3409 212.887C89.9788 211.176 89.1272 209.42 88.5046 207.779C87.7557 206.126 87.0519 204.323 86.5557 202.579C94.7679 200.182 103.269 198.419 111.587 196.421L144.949 188.225Z" fill="#943411"/>
<path d="M144.949 188.225C147.659 187.649 150.276 186.684 152.998 186.164C153.764 187.861 154.325 189.7 155.139 191.36C140.039 194.862 125.017 198.575 109.985 202.357C102.826 204.158 95.6298 205.849 88.5046 207.779C87.7557 206.126 87.0519 204.323 86.5557 202.579C94.7679 200.182 103.269 198.419 111.587 196.421L144.949 188.225Z" fill="#EB7B1F"/>
<path d="M78.5021 27.8984C79.6789 31.462 81.3806 34.9427 82.8552 38.3984C84.1236 41.3708 85.2634 44.5131 86.6973 47.4027C89.0811 47.0724 91.418 46.3471 93.7833 45.8894C94.4454 47.4589 95.136 49.0084 95.8587 50.5506C96.6113 51.4528 96.9667 52.5804 97.5464 53.5895C97.6184 54.311 98.1416 54.7585 98.0806 55.4782L97.9159 55.6796C95.5878 56.3793 93.1246 57.2036 90.723 57.5709C91.8673 61.0162 93.4608 64.3554 94.8991 67.688L100.91 81.9104C103.473 81.4611 106.022 80.8149 108.562 80.2437C109.48 80.8049 110.195 83.1023 110.675 84.0799L110.885 84.1438C112.169 85.9956 111.953 87.3013 112.726 89.159C112.869 89.5045 113.135 89.8462 113.502 89.9545C114.005 90.1023 114.456 90.0254 114.897 89.7579C114.599 89.1095 114.266 88.4577 114.072 87.7702C113.552 85.9332 112.239 84.1848 111.987 82.3061C111.973 82.2034 111.965 82.0999 111.953 81.9965C113.328 84.5587 114.356 87.462 115.441 90.164C114.479 90.2305 113.404 90.2807 112.475 90.5515C114.436 95.5002 116.645 100.357 118.717 105.261C120.012 108.326 121.158 111.693 122.735 114.611C123.688 116.125 124.187 117.9 125.106 119.427C125.963 120.317 127.122 122.39 127.194 123.639C127.21 123.92 127.043 124.047 126.832 124.218C126.754 124.281 126.665 124.33 126.581 124.386L119.403 126.388C108.723 128.708 98.1257 131.499 87.485 134L71.0189 137.933C68.2578 138.598 65.3937 139.146 62.6785 139.969C61.7563 138.501 61.2069 136.291 60.5056 134.667C60.08 133.604 58.5475 130.568 58.8305 129.579C58.0235 128.691 50.2979 108.18 49.1057 105.15L47.0614 99.8899C46.3491 98.3348 45.5662 96.4486 45.2122 94.7805L45.3748 94.5455C44.5945 93.978 36.5197 72.5222 35.7168 70.0194L35.9145 69.801C34.7529 69.0965 34.0025 65.7875 33.4354 64.433C32.7556 62.8351 31.8164 61.0734 31.4598 59.3842C30.5092 57.8524 29.9121 55.6888 29.2253 53.9985C27.3938 49.4924 25.4375 44.9831 23.8887 40.3706L24.0878 40.0418C29.8563 38.4786 35.7944 37.335 41.6276 36.0245L78.5021 27.8984Z" fill="#FEFEFE"/>
<path d="M104.86 92.2266C107.357 92.1993 109.885 90.431 112.475 90.5529C114.436 95.5016 116.645 100.359 118.717 105.263C120.012 108.328 121.158 111.695 122.735 114.612C120.155 115.151 117.605 115.852 115.025 116.375C112.514 110.921 110.341 105.297 108.073 99.739C107.082 97.3116 106.194 94.4708 104.86 92.2266Z" fill="#A15526"/>
<path d="M122.735 114.617C123.688 116.132 124.187 117.906 125.106 119.434C125.963 120.323 127.122 122.396 127.194 123.646C127.21 123.926 127.043 124.053 126.832 124.224C126.754 124.288 126.665 124.336 126.582 124.393L119.403 126.394C108.723 128.715 98.1258 131.505 87.4851 134.006L71.0189 137.94C68.2579 138.604 65.3938 139.152 62.6785 139.975C61.7563 138.507 61.2069 136.298 60.5057 134.673C60.0801 133.61 58.5475 130.574 58.8305 129.585C64.3293 128.116 69.8976 126.949 75.4422 125.672L95.2291 120.95C101.83 119.436 108.468 118.08 115.025 116.38C117.605 115.856 120.155 115.156 122.735 114.617Z" fill="#943411"/>
<path d="M122.735 114.617C123.688 116.132 124.187 117.906 125.106 119.434C103.581 124.542 81.9763 129.333 60.5057 134.673C60.0801 133.61 58.5475 130.574 58.8305 129.585C64.3293 128.116 69.8976 126.949 75.4422 125.672L95.2291 120.95C101.83 119.436 108.468 118.08 115.025 116.38C117.605 115.856 120.155 115.156 122.735 114.617Z" fill="#EB7B1F"/>
<path d="M108.562 80.25C109.48 80.8112 110.195 83.1086 110.674 84.0862L110.884 84.1501C112.169 86.0019 111.953 87.3076 112.726 89.1653C112.869 89.5107 113.135 89.8525 113.502 89.9608C114.005 90.1086 114.456 90.0317 114.896 89.7642C114.599 89.1158 114.266 88.464 114.072 87.7765C113.552 85.9395 112.238 84.1911 111.986 82.3124C111.972 82.2097 111.964 82.1062 111.953 82.0028C113.328 84.565 114.356 87.4683 115.441 90.1702C114.479 90.2368 113.404 90.287 112.475 90.5578C109.885 90.4359 107.357 92.2042 104.86 92.2315C100.949 93.4319 96.785 94.125 92.7947 95.0546L64.837 101.431C59.6038 102.62 54.2561 103.654 49.1054 105.156L47.0611 99.8962C46.3488 98.3411 45.5659 96.4549 45.2119 94.7868L45.3745 94.5518C52.7742 92.5969 60.2807 91.0943 67.7277 89.34C78.7309 86.7486 89.7917 83.9661 100.91 81.9167C103.473 81.4674 106.022 80.8212 108.562 80.25Z" fill="#943411"/>
<path d="M108.562 80.25C109.48 80.8112 110.195 83.1086 110.674 84.0862L110.867 84.9142C110.333 85.5449 62.7543 95.9983 57.4269 97.2666C54.6286 97.9332 49.5683 98.8107 47.0611 99.8962C46.3488 98.3411 45.5659 96.4549 45.2119 94.7868L45.3745 94.5518C52.7742 92.5969 60.2807 91.0943 67.7277 89.34C78.7309 86.7486 89.7917 83.9661 100.91 81.9167C103.473 81.4674 106.022 80.8212 108.562 80.25Z" fill="#EB7B1F"/>
<path d="M35.9145 69.8005C41.0194 68.3695 46.3697 67.4181 51.5471 66.2669L80.5304 59.7953C83.9218 59.0308 87.3446 58.3891 90.723 57.5703C91.8672 61.0156 93.4608 64.3549 94.8991 67.6875L100.91 81.9098C89.7919 83.9593 78.7311 86.7417 67.728 89.3332C60.281 91.0874 52.7745 92.5901 45.3747 94.5449C44.5944 93.9774 36.5197 72.5216 35.7168 70.0188L35.9145 69.8005Z" fill="#FEFEFE"/>
<path d="M78.5021 27.8984C79.6789 31.462 81.3806 34.9427 82.8552 38.3984C84.1236 41.3708 85.2634 44.5131 86.6973 47.4027C89.0811 47.0724 91.418 46.3471 93.7834 45.8894C94.4454 47.4589 95.136 49.0084 95.8587 50.5506C96.6113 51.4528 96.9667 52.5804 97.5464 53.5895C97.6184 54.311 98.1416 54.7585 98.0806 55.4782L97.9159 55.6796C95.5878 56.3793 93.1246 57.2036 90.723 57.5709C87.3446 58.3896 83.9219 59.0314 80.5305 59.7958L51.5471 66.2674C46.3698 67.4187 41.0195 68.3701 35.9145 69.801C34.7529 69.0965 34.0025 65.7875 33.4354 64.433C32.7556 62.8351 31.8164 61.0734 31.4598 59.3842C30.5092 57.8524 29.9121 55.6888 29.2253 53.9985C27.3938 49.4924 25.4375 44.9831 23.8887 40.3706L24.0878 40.0418C29.8563 38.4786 35.7944 37.335 41.6276 36.0245L78.5021 27.8984Z" fill="#FEFEFE"/>
<path d="M93.7835 45.8906C94.4456 47.4601 95.1361 49.0097 95.8588 50.5518C96.6114 51.4541 96.9668 52.5817 97.5465 53.5907C97.6186 54.3123 98.1417 54.7597 98.0808 55.4795L97.916 55.6808C95.588 56.3806 93.1247 57.2049 90.7232 57.5721C87.3447 58.3909 83.922 59.0326 80.5306 59.7971L51.5472 66.2687C46.3699 67.42 41.0196 68.3713 35.9146 69.8023C34.753 69.0977 34.0026 65.7887 33.4355 64.4343C32.7557 62.8363 31.8165 61.0747 31.46 59.3855C33.8597 58.6628 36.3876 58.2058 38.8375 57.683L51.5066 55.0036C63.2387 52.4753 74.9335 49.7885 86.6974 47.404C89.0812 47.0737 91.4181 46.3484 93.7835 45.8906Z" fill="#943411"/>
<path d="M93.7835 45.8906C94.4456 47.4601 95.1361 49.0097 95.8588 50.5518C90.3855 52.1749 84.1684 53.1773 78.561 54.4054L48.7596 61.037L38.9173 63.1552C37.1169 63.5431 35.1812 63.8509 33.4355 64.4343C32.7557 62.8363 31.8165 61.0747 31.46 59.3855C33.8597 58.6628 36.3876 58.2058 38.8375 57.683L51.5066 55.0036C63.2387 52.4753 74.9335 49.7885 86.6974 47.404C89.0812 47.0737 91.4181 46.3484 93.7835 45.8906Z" fill="#EB7B1F"/>
</svg>
