<svg width="269" height="264" viewBox="0 0 269 264" fill="none" xmlns="http://www.w3.org/2000/svg">
<path d="M186.532 0.0477461C188.245 -0.125831 189.757 0.178581 191.315 0.883977C192.829 1.56953 194.232 2.51123 195.581 3.47188C198.477 5.53425 201.138 7.87083 203.229 10.7699C203.946 11.7633 204.708 12.8728 205.119 14.0334L205.203 14.2809C205.322 14.618 205.441 14.9449 205.504 15.2985C205.868 17.3431 205.123 19.3669 203.968 21.0344C203.589 21.582 203.009 22.1179 202.707 22.7005C202.301 23.4839 202.1 24.5283 201.837 25.3792C201.46 26.602 200.997 27.7831 200.467 28.9478C198.205 33.9214 195.087 38.2606 191.966 42.709C199.689 40.721 207.466 40.272 215.343 41.5396C230.64 44.001 244.623 52.7012 253.657 65.2745C261.153 75.7079 265.637 87.8302 267.738 100.445C268.619 105.733 269.113 111.362 268.251 116.684C267.295 115.869 266.519 114.816 265.623 113.93C263.795 112.122 261.704 110.654 259.515 109.321C253.444 105.625 246.636 103.9 239.895 101.909C229.96 98.9739 219.572 95.4349 211.09 89.3287L213.322 95.3501C215.037 100.283 216.18 105.543 216.971 110.697C220.417 133.121 215.959 156.626 206.064 176.927C187.482 215.047 151.705 243.308 112.028 257.018L105.889 258.909L95.8349 261.412C74.5711 265.856 51.4906 265.092 31.8706 255.055C17.8211 247.868 6.82429 235.381 2.02116 220.286C-0.418843 212.617 -0.534222 204.221 1.05656 196.371C1.80951 192.655 3.00734 189.016 4.22165 185.429C5.96501 180.279 7.86459 175.312 8.95011 169.96L12.979 144.533C15.8357 127.115 20.5058 109.493 28.6927 93.7687C32.5148 86.4274 36.8562 79.3955 41.9893 72.8916C55.6175 55.6239 74.778 41.3746 95.8711 34.7581C104.121 32.1702 112.481 30.4697 121.128 29.9999C139.622 28.9953 158.402 33.8205 174.723 42.3459C175.759 40.4423 176.493 38.268 177.182 36.216C178.884 31.1449 180.097 25.9182 180.642 20.593C180.96 17.4847 181.018 14.3607 180.896 11.2401C180.828 9.51515 180.457 7.47802 180.664 5.7863C180.774 4.88428 181.116 4.03375 181.593 3.26622C182.782 1.35162 184.413 0.548057 186.532 0.0477461Z" fill="#0A0705"/>
<path d="M174.168 48.8872C175.43 47.4858 176.467 45.7073 177.456 44.1033C183.378 34.4958 185.276 23.894 185.497 12.7656L189.591 17.1954C188.974 20.0471 188.566 22.8915 187.799 25.7176C185.984 32.4073 183.001 38.9544 179.043 44.6503C177.676 46.6183 176.169 48.6024 174.418 50.2445C174.075 50.8498 173.025 51.2114 172.792 51.7174C172.518 51.5691 172.288 51.4651 172.088 51.2197L174.168 48.8872Z" fill="#686761"/>
<path d="M187.055 4.32812L188.446 4.51425C189.986 4.87526 191.491 5.85108 192.778 6.7391C195.594 8.68273 198.607 11.1904 200.467 14.104C201.087 15.0748 201.651 16.1962 201.364 17.3778C201.046 18.6866 200.177 19.5191 199.052 20.1886L198.731 20.2932C196.852 20.7825 195.055 20.2484 193.417 19.296C189.787 17.1853 186.487 13.1953 185.403 9.10341C185.089 7.91899 184.73 6.25688 185.444 5.1473C185.839 4.53307 186.384 4.44277 187.055 4.32812Z" fill="#8C8B88"/>
<path d="M189.592 17.2031C191.528 19.0988 194.011 21.7097 196.912 21.6875L198.534 21.5408C196.924 26.8861 194.438 31.7059 191.255 36.2895C189.967 38.145 188.511 39.8785 187.113 41.6506C183.692 45.9862 180.107 50.0243 176.262 53.9836C175.224 53.2352 173.967 52.2245 172.793 51.725C173.026 51.219 174.076 50.8576 174.419 50.2521C176.17 48.61 177.677 46.6261 179.044 44.658C183.001 38.9619 185.984 32.4149 187.8 25.7252C188.567 22.8991 188.975 20.0548 189.592 17.2031Z" fill="#45453D"/>
<path d="M182.912 52.0312L183.149 52.1317C183.746 52.3727 184.422 52.457 185.048 52.6032L188.825 53.579L201.314 57.7045C208.702 60.5007 215.973 63.6634 222.867 67.5354C238.191 76.1429 252.518 88.0038 262.961 102.197C264.019 103.635 264.94 105.137 265.828 106.684C266.201 107.332 266.486 108.048 266.895 108.668L267.012 107.725L267.068 114.166C265.367 112.375 263.656 110.613 261.665 109.137C258.198 106.568 254.254 104.822 250.233 103.314L229.873 96.591C222.358 93.7399 214.986 90.044 208.477 85.3081C201.488 80.222 195.202 73.6069 190.368 66.4507C187.414 62.0777 184.896 57.1818 182.73 52.3749L182.912 52.0312Z" fill="#51A018"/>
<path d="M182.912 52.0359C184.288 50.2127 185.906 48.5505 187.407 46.827C187.654 46.5433 188.24 45.6562 188.526 45.4921C188.875 45.2915 189.628 45.2012 190.033 45.079C193.046 44.1713 195.95 43.3517 199.079 42.9059C213.568 40.8402 228.963 45.2992 240.584 54.0659C250.557 61.5893 257.283 72.0763 261.664 83.6559C262.616 86.1729 263.544 88.7244 264.245 91.3237C265.326 95.3329 266.044 99.5111 266.607 103.624L267.013 107.73L266.895 108.673C266.486 108.053 266.201 107.337 265.828 106.689C264.94 105.142 264.019 103.64 262.961 102.202C252.518 88.0086 238.191 76.1477 222.867 67.5402C215.973 63.6683 208.702 60.5055 201.314 57.7093L188.825 53.5838L185.048 52.608C184.422 52.4619 183.746 52.3776 183.149 52.1366L182.912 52.0359Z" fill="#7CC22B"/>
<path d="M200.089 80.8906L202.331 82.9814C202.784 83.3751 203.46 83.7902 203.807 84.2768C204.128 84.7287 204.307 85.4147 204.52 85.9318L206.241 90.1299C208.627 96.3683 210.66 102.697 211.903 109.268C212.782 113.919 213.197 118.672 213.325 123.399C214.205 155.775 198.871 187.084 176.968 210.221C172.711 214.718 167.982 218.654 163.182 222.544C143.086 238.828 119.634 251.219 94.1345 256.325C87.7482 257.603 81.3111 258.521 74.7906 258.684C55.4385 259.169 35.1441 254.297 20.7873 240.644C16.0341 236.123 12.4028 231.008 9.61885 225.062C8.87801 223.479 8.06701 221.761 7.61133 220.074C8.5326 220.412 9.37686 221.652 10.0437 222.359L13.7001 226.013C24.2351 235.582 38.3567 239.801 52.3607 240.446C62.0376 240.892 71.6782 239.693 81.1069 237.553C109.748 231.05 134.856 215.388 156.319 195.704C174.169 179.334 188.135 158.436 195.847 135.451C199.068 125.853 201.217 116.097 201.789 105.965C202.08 100.802 202.117 95.5423 201.512 90.4L200.84 85.7999C200.557 84.2875 199.999 82.6026 200.078 81.0674L200.089 80.8906Z" fill="#F88407"/>
<path d="M7.61124 220.072L7.06659 218.48C6.05634 215.036 5.26926 211.571 5.05703 207.977C4.66042 201.262 6.24873 194.23 8.4008 187.902C10.253 182.456 12.2662 177.173 13.4442 171.521L18.4129 141.408C20.4603 129.686 23.4927 118.051 27.9242 106.994C30.168 101.396 32.8682 95.9487 35.77 90.664C37.3335 87.8169 39.146 85.1374 40.9673 82.4512C54.7624 62.104 75.7733 45.5163 99.5415 38.6263C116.742 33.6399 134.616 33.8689 151.88 38.4727C159.015 40.3755 166.188 43.0582 172.662 46.6344C172.014 48.0076 171.136 49.275 170.301 50.5389C165.906 48.2595 160.415 47.61 155.574 48.553C159.462 48.7502 163.033 49.2225 166.569 50.9589C171.832 53.5422 177.06 58.1668 180.154 63.1522C181.894 65.9574 183.134 69.0289 184.207 72.1413L184.206 71.9994C184.189 70.3499 183.841 68.7383 183.469 67.1374C182.572 63.2778 181.217 59.6514 178.345 56.8245C178.971 55.7769 180.403 54.5516 181.346 53.7679L185.477 62.1428C188.032 66.8463 191.109 71.1834 194.64 75.206L200.089 80.8893L200.078 81.0659C199.998 82.6011 200.556 84.286 200.84 85.7985L201.512 90.3986C202.116 95.5408 202.08 100.801 201.788 105.964C201.217 116.096 199.067 125.852 195.847 135.449C188.134 158.434 174.168 179.332 156.318 195.703C134.855 215.386 109.747 231.048 81.1065 237.551C71.6778 239.692 62.0372 240.89 52.3604 240.444C38.3563 239.799 24.2347 235.58 13.6997 226.011L10.0434 222.358C9.37677 221.651 8.53252 220.41 7.61124 220.072Z" fill="#FEB611"/>
<path d="M112.973 44.528C116.836 44.228 122.424 44.4859 125.504 47.1434C126.456 47.9641 127.164 49.1834 127.229 50.4558C127.282 51.4873 126.902 52.332 126.409 53.2158C124.413 56.7991 120.77 58.713 117.298 60.6235C110.427 64.4043 103.287 67.7244 96.5918 71.8245C81.4786 81.0799 70.728 94.5132 60.6387 108.79C55.2582 116.403 50.4491 124.414 44.2379 131.41C42.9553 132.927 40.7403 135.085 38.6957 135.4C37.9404 135.516 36.7296 134.971 36.1329 134.517C34.6894 133.418 34.0982 130.846 33.9276 129.115C33.6598 126.398 34.06 123.722 34.5627 121.061C35.8136 114.436 38.266 108.477 41.241 102.464C45.1628 94.5376 50.0253 86.8647 55.6714 80.0459C66.1393 67.4035 78.6949 56.8911 93.6872 50.0777C99.9288 47.2411 106.13 45.1694 112.973 44.528Z" fill="#FDDC0E"/>
</svg>
