<svg width="214" height="233" viewBox="0 0 214 233" fill="none" xmlns="http://www.w3.org/2000/svg">
<path d="M213.535 226.577C213.535 230.127 210.038 233.004 205.733 233.004H24.3251C20.0199 233.004 16.5254 230.127 16.5254 226.577V9.68235C16.5254 6.13531 20.0199 3.25781 24.3251 3.25781H205.733C210.038 3.25781 213.535 6.13531 213.535 9.68235V226.577Z" fill="#CA4E2F"/>
<path d="M207.609 9.125H71.9473V227.132H207.609V9.125Z" fill="white"/>
<path d="M204.647 226.481C204.647 230.081 201.153 233 196.845 233H15.4403C11.1323 233 7.64062 230.081 7.64062 226.481V6.51852C7.64062 2.92151 11.1323 0 15.4403 0H196.845C201.153 0 204.647 2.92179 204.647 6.51852V226.481Z" fill="#EB5837"/>
<path opacity="0.2" d="M171.515 224.03C146.758 223.917 121.422 219.343 97.008 215.522C80.753 212.977 62.1299 210.218 48.9268 199.547C41.9406 193.902 36.3574 184.717 34.2019 175.965C31.5263 165.12 31.2415 153.366 31.4766 142.238C31.6092 135.797 31.9111 129.32 31.7504 122.873C30.9923 92.436 30.5274 61.9763 31.4517 31.5389C31.77 21.0307 32.0272 10.5196 31.994 0H15.4403C11.1323 0 7.64062 2.92179 7.64062 6.51852V226.481C7.64062 230.081 11.1323 233 15.4403 233H196.845C201.153 233 204.647 230.081 204.647 226.481V221.053C193.76 223.103 182.635 224.08 171.515 224.03Z" fill="#EB5837"/>
<path d="M18.8539 20.9813C21.7267 20.9813 24.0555 18.6525 24.0555 15.7797C24.0555 12.907 21.7267 10.5781 18.8539 10.5781C15.9812 10.5781 13.6523 12.907 13.6523 15.7797C13.6523 18.6525 15.9812 20.9813 18.8539 20.9813Z" fill="#9E3E23"/>
<path d="M21.454 15.7766C21.454 17.6941 19.9017 19.2462 17.9871 19.2462H3.46696C1.55232 19.2462 0 17.6941 0 15.7766C0 13.862 1.55203 12.3125 3.46696 12.3125H17.9871C19.902 12.3128 21.454 13.862 21.454 15.7766Z" fill="#292929"/>
<path d="M24.0555 35.9253C24.0555 38.8 21.726 41.1297 18.8539 41.1297C15.9793 41.1297 13.6523 38.8002 13.6523 35.9253C13.6523 33.0535 15.9793 30.7266 18.8539 30.7266C21.7257 30.7266 24.0555 33.0535 24.0555 35.9253Z" fill="#9E3E23"/>
<path d="M21.454 35.9279C21.454 37.8454 19.9017 39.3974 17.9871 39.3974H3.46696C1.55232 39.3974 0 37.8454 0 35.9279C0 34.0133 1.55203 32.4609 3.46696 32.4609H17.9871C19.902 32.4612 21.454 34.0133 21.454 35.9279Z" fill="#292929"/>
<path d="M24.0555 56.0659C24.0555 58.9377 21.726 61.2704 18.8539 61.2704C15.9793 61.2704 13.6523 58.938 13.6523 56.0659C13.6523 53.1938 15.9793 50.8672 18.8539 50.8672C21.7257 50.8672 24.0555 53.1941 24.0555 56.0659Z" fill="#9E3E23"/>
<path d="M21.454 56.0657C21.454 57.9832 19.9017 59.5352 17.9871 59.5352H3.46696C1.55232 59.5352 0 57.9832 0 56.0657C0 54.1539 1.55203 52.6016 3.46696 52.6016H17.9871C19.902 52.6018 21.454 54.1539 21.454 56.0657Z" fill="#292929"/>
<path d="M24.0555 76.2144C24.0555 79.089 21.726 81.4185 18.8539 81.4185C15.9793 81.4185 13.6523 79.089 13.6523 76.2144C13.6523 73.3451 15.9793 71.0156 18.8539 71.0156C21.7257 71.0156 24.0555 73.3451 24.0555 76.2144Z" fill="#9E3E23"/>
<path d="M21.454 76.2141C21.454 78.1316 19.9017 79.6837 17.9871 79.6837H3.46696C1.55232 79.6837 0 78.1316 0 76.2141C0 74.3023 1.55203 72.75 3.46696 72.75H17.9871C19.902 72.7503 21.454 74.3023 21.454 76.2141Z" fill="#292929"/>
<path d="M24.0555 96.3578C24.0555 99.2268 21.726 101.557 18.8539 101.557C15.9793 101.557 13.6523 99.2268 13.6523 96.3578C13.6523 93.4832 15.9793 91.1562 18.8539 91.1562C21.7257 91.1563 24.0555 93.4832 24.0555 96.3578Z" fill="#9E3E23"/>
<path d="M21.454 96.3576C21.454 98.2722 19.9017 99.8243 17.9871 99.8243H3.46696C1.55232 99.8243 0 98.2722 0 96.3576C0 94.443 1.55203 92.8906 3.46696 92.8906H17.9871C19.902 92.8909 21.454 94.443 21.454 96.3576Z" fill="#292929"/>
<path d="M24.0555 116.506C24.0555 119.378 21.726 121.705 18.8539 121.705C15.9793 121.705 13.6523 119.378 13.6523 116.506C13.6523 113.634 15.9793 111.305 18.8539 111.305C21.7257 111.305 24.0555 113.634 24.0555 116.506Z" fill="#9E3E23"/>
<path d="M21.454 116.506C21.454 118.424 19.9017 119.978 17.9871 119.978H3.46696C1.55232 119.978 0 118.424 0 116.506C0 114.594 1.55203 113.039 3.46696 113.039H17.9871C19.902 113.039 21.454 114.594 21.454 116.506Z" fill="#292929"/>
<path d="M24.0555 136.655C24.0555 139.527 21.726 141.856 18.8539 141.856C15.9793 141.856 13.6523 139.527 13.6523 136.655C13.6523 133.783 15.9793 131.453 18.8539 131.453C21.7257 131.453 24.0555 133.783 24.0555 136.655Z" fill="#9E3E23"/>
<path d="M21.454 136.657C21.454 138.572 19.9017 140.127 17.9871 140.127H3.46696C1.55232 140.127 0 138.572 0 136.657C0 134.742 1.55203 133.188 3.46696 133.188H17.9871C19.902 133.188 21.454 134.742 21.454 136.657Z" fill="#292929"/>
<path d="M24.0555 156.793C24.0555 159.665 21.726 161.992 18.8539 161.992C15.9793 161.992 13.6523 159.665 13.6523 156.793C13.6523 153.921 15.9793 151.594 18.8539 151.594C21.7257 151.594 24.0555 153.921 24.0555 156.793Z" fill="#9E3E23"/>
<path d="M21.454 156.795C21.454 158.71 19.9017 160.262 17.9871 160.262H3.46696C1.55232 160.262 0 158.71 0 156.795C0 154.88 1.55203 153.328 3.46696 153.328H17.9871C19.902 153.328 21.454 154.88 21.454 156.795Z" fill="#292929"/>
<path d="M24.0555 176.944C24.0555 179.816 21.726 182.145 18.8539 182.145C15.9793 182.145 13.6523 179.816 13.6523 176.944C13.6523 174.072 15.9793 171.742 18.8539 171.742C21.7257 171.742 24.0555 174.072 24.0555 176.944Z" fill="#9E3E23"/>
<path d="M21.454 176.944C21.454 178.858 19.9017 180.41 17.9871 180.41H3.46696C1.55232 180.41 0 178.858 0 176.944C0 175.026 1.55203 173.477 3.46696 173.477H17.9871C19.902 173.477 21.454 175.026 21.454 176.944Z" fill="#292929"/>
<path d="M24.0555 197.087C24.0555 199.956 21.726 202.286 18.8539 202.286C15.9793 202.286 13.6523 199.956 13.6523 197.087C13.6523 194.213 15.9793 191.883 18.8539 191.883C21.7257 191.883 24.0555 194.213 24.0555 197.087Z" fill="#9E3E23"/>
<path d="M21.454 197.084C21.454 198.999 19.9017 200.551 17.9871 200.551H3.46696C1.55232 200.551 0 198.999 0 197.084C0 195.17 1.55203 193.617 3.46696 193.617H17.9871C19.902 193.617 21.454 195.17 21.454 197.084Z" fill="#292929"/>
<path d="M20.8554 222.043C23.5095 220.943 24.7699 217.9 23.6705 215.246C22.5711 212.592 19.5282 211.332 16.8741 212.431C14.22 213.531 12.9596 216.573 14.059 219.228C15.1584 221.882 18.2012 223.142 20.8554 222.043Z" fill="#9E3E23"/>
<path d="M21.454 217.233C21.454 219.147 19.9017 220.699 17.9871 220.699H3.46696C1.55232 220.699 0 219.147 0 217.233C0 215.318 1.55203 213.766 3.46696 213.766H17.9871C19.902 213.766 21.454 215.318 21.454 217.233Z" fill="#292929"/>
<path opacity="0.3" d="M44.3629 46.3182C44.3544 46.8716 44.3464 47.4196 44.3379 47.9588C43.8788 74.8578 44.8166 101.834 44.5205 128.763C44.2936 149.351 44.5952 169.388 59.7905 185.178C74.3052 200.26 92.5909 205.459 112.512 209.125C126.296 211.656 140.204 213.505 153.972 216.138C164.575 218.164 185.098 223.258 189.343 208.621C193.039 195.855 190.569 181.75 189.736 168.677C188.801 154.032 187.849 139.371 188.076 124.69C188.41 102.794 188.986 80.8697 187.785 58.9901C187.257 49.3257 188.607 35.4888 181.997 27.4955C170.542 13.6614 150.179 14.8736 134.054 15.7561C117.096 16.6829 100.097 17.0483 83.1285 16.1851C72.2494 15.626 55.6043 11.841 48.7288 23.1795C44.717 29.7923 44.4873 38.6656 44.3629 46.3182Z" fill="white"/>
<path d="M132.41 8.03263C132.41 8.03263 133.914 7.9094 136.544 7.75862C139.175 7.63539 142.935 7.37955 147.445 7.21629C151.955 7.03087 157.217 6.87328 162.856 6.76652C165.675 6.72648 168.586 6.64215 171.549 6.63392C174.507 6.61319 177.514 6.59104 180.522 6.57031C182.024 6.57599 183.53 6.58139 185.026 6.58678C186.678 6.56037 188.38 6.86618 189.943 7.42783C191.523 7.98691 193.003 8.88588 194.215 10.0577C195.457 11.2168 196.268 12.6973 196.91 14.1499C198.068 17.1089 197.961 20.2437 197.87 22.7185C197.79 25.3027 197.713 27.7458 197.643 30.0006C197.496 34.5105 197.253 38.2691 197.139 40.9004C196.997 43.5317 196.878 45.0355 196.878 45.0355C196.862 45.2152 196.705 45.3495 196.528 45.3342C196.364 45.3217 196.24 45.1931 196.228 45.0355C196.228 45.0355 196.109 43.5317 195.966 40.9004C195.852 38.2691 195.609 34.5105 195.462 30.0006C195.392 27.7458 195.316 25.3027 195.235 22.7185C195.219 22.0726 195.202 21.4167 195.185 20.7542C195.155 20.1094 195.086 19.5105 195.042 18.8782C194.892 17.6373 194.599 16.4255 194.154 15.2746C193.614 14.1846 193.004 13.1067 192.076 12.3057C191.171 11.4951 190.084 10.8573 188.875 10.4271C187.652 10.0052 186.371 9.77008 185.026 9.80473C183.529 9.81012 182.024 9.8158 180.521 9.8212C177.514 9.80047 174.506 9.77832 171.549 9.75759C168.586 9.74936 165.675 9.66474 162.856 9.62471C157.217 9.51823 151.954 9.36036 147.444 9.17494C142.935 9.01167 139.175 8.75584 136.543 8.6326C133.914 8.48183 132.41 8.35888 132.41 8.35888C132.318 8.35065 132.252 8.27171 132.26 8.1817C132.268 8.10163 132.333 8.03944 132.41 8.03263Z" fill="white"/>
</svg>
