<svg width="93" height="327" viewBox="0 0 93 327" fill="none" xmlns="http://www.w3.org/2000/svg">
<path d="M63.9197 10.7661V12.9213H65.0896V20.3297C65.0896 21.7835 63.9041 22.969 62.4502 22.969H29.7331C28.2793 22.969 27.0938 21.7835 27.0938 20.3297V12.9213H28.2125V10.7661H27.0938V2.63935C27.0938 1.18551 28.2793 0 29.7331 0H62.4502C63.9041 0 65.0896 1.18551 65.0896 2.63935V10.7661H63.9197Z" fill="#0A8958"/>
<path d="M63.9181 10.7656H28.2109V12.9208H63.9181V10.7656Z" fill="#067749"/>
<path d="M74.7817 147.686C76.5025 146.292 75.033 141.564 75.033 141.564C79.2086 139.893 80.688 132.377 78.2318 118.178C75.7685 103.979 84.128 81.7025 86.1001 73.6254C88.0707 65.5568 84.1295 59.4263 84.1295 59.4263L55.8392 29.8596V22.9609H36.2108H33.2535H31.6335V29.9178L2.95989 59.4263C2.95989 59.4263 -1.50105 65.5568 0.72941 73.6254C2.95987 81.7025 12.4226 103.979 9.64131 118.178C6.85146 132.377 8.52253 139.895 13.2575 141.564C13.2575 141.564 11.5864 146.292 13.5329 147.686C13.5329 147.686 -9.29416 190.008 4.34556 203.088C4.34556 203.088 1.28882 207.264 1.56425 213.396V311.671C1.56425 311.671 2.23298 324.76 15.8131 326.989H72.7685C84.7712 324.758 85.3633 311.671 85.3633 311.671V213.396C85.6061 207.265 82.8985 203.088 82.8985 203.088C94.9538 190.008 74.7817 147.686 74.7817 147.686Z" fill="#A5C2D3"/>
<path d="M82.8959 203.09C82.8959 203.09 85.6019 207.265 85.3606 213.397V311.672C85.3606 311.672 84.7671 324.761 72.7658 326.99H19.2746C7.27186 324.76 6.67982 311.672 6.67982 311.672V213.397C6.43704 207.267 9.14452 203.09 9.14452 203.09C-2.90789 190.01 17.2628 147.688 17.2628 147.688C15.542 146.293 17.0115 141.566 17.0115 141.566C12.8359 139.895 11.3566 132.378 13.8128 118.179C16.2761 103.98 7.91643 81.7039 5.94437 73.6268C3.97373 65.5583 7.91501 59.4277 7.91501 59.4277L17.3778 49.6299L36.2039 30.1436V22.9609H55.8322V29.8596L74.7506 49.6299L84.1225 59.4277C84.1225 59.4277 88.0652 65.5583 86.0931 73.6268C84.1225 81.7039 75.7615 103.98 78.2248 118.179C80.681 132.378 79.2016 139.896 75.0261 141.566C75.0261 141.566 76.4955 146.293 74.7748 147.688C74.7748 147.688 94.9483 190.01 82.8959 203.09Z" fill="#D7E8F2"/>
<path d="M78.6428 147.688C80.5893 146.293 78.9182 141.566 78.9182 141.566C83.6545 139.895 85.3242 132.378 82.5343 118.179C79.753 103.98 89.2158 81.7039 91.4462 73.6268C93.6767 65.5583 89.2158 59.4277 89.2158 59.4277L60.5421 29.9178V22.9609H58.7972H55.8398V29.8596L84.1301 59.4277C84.1301 59.4277 88.0728 65.5583 86.1008 73.6268C84.1301 81.7039 75.7691 103.98 78.2324 118.179C80.6886 132.378 79.2093 139.896 75.0337 141.566C75.0337 141.566 76.5032 146.293 74.7824 147.688C74.7824 147.688 94.953 190.01 82.9006 203.09C82.9006 203.09 85.6067 207.265 85.3654 213.397V311.672C85.3654 311.672 84.7719 324.761 72.7706 326.99H76.3626C89.9526 324.76 90.6114 311.672 90.6114 311.672V213.397C90.8868 207.267 87.8301 203.09 87.8301 203.09C101.47 190.01 78.6428 147.688 78.6428 147.688Z" fill="#7DA6BA"/>
<path d="M82.8994 203.085C82.8994 203.085 85.6054 207.26 85.3641 213.392V311.667C85.3641 311.667 84.7706 324.756 72.7693 326.985H67.9492C77.8805 324.755 78.3732 311.667 78.3732 311.667V213.392C78.5734 207.262 76.3358 203.085 76.3358 203.085C86.3082 190.005 69.6118 147.683 69.6118 147.683C71.04 146.289 69.8205 141.561 69.8205 141.561C73.279 139.89 74.4972 132.373 72.4683 118.174C70.4295 103.975 77.3467 81.699 78.9837 73.6219C80.6121 65.5534 77.3467 59.4228 77.3467 59.4228L73.0618 54.0107H78.9084L74.757 49.625L84.1289 59.4228C84.1289 59.4228 88.0716 65.5534 86.0995 73.6219C84.1289 81.699 75.7679 103.975 78.2312 118.174C80.6874 132.373 79.208 139.891 75.0324 141.561C75.0324 141.561 76.5019 146.289 74.7811 147.683C74.7811 147.683 94.9518 190.005 82.8994 203.085Z" fill="#CC7B1B"/>
<path d="M76.3308 203.085C76.3308 203.085 78.5698 207.26 78.3682 213.392V311.667C78.3682 311.667 77.8755 324.756 67.9443 326.985H19.2746C7.27186 324.755 6.67982 311.667 6.67982 311.667V213.392C6.43704 207.262 9.14452 203.085 9.14452 203.085C-2.90789 190.005 17.2628 147.683 17.2628 147.683C15.542 146.289 17.0115 141.561 17.0115 141.561C12.8359 139.89 11.3566 132.373 13.8128 118.174C16.2761 103.975 7.91643 81.699 5.94437 73.6219C3.97373 65.5534 7.91501 59.4228 7.91501 59.4228L17.3778 49.625H74.7506L78.9021 54.0107H73.0554L77.3403 59.4228C77.3403 59.4228 80.6057 65.5534 78.9773 73.6219C77.3403 81.699 70.4246 103.975 72.462 118.174C74.4922 132.373 73.2727 139.891 69.8141 141.561C69.8141 141.561 71.0337 146.289 69.6054 147.683C69.6054 147.683 86.3033 190.005 76.3308 203.085Z" fill="#E59A2C"/>
<path d="M76.3317 203.085C76.3317 203.085 78.5707 207.26 78.3705 213.392V311.667C78.3705 311.667 77.8807 324.756 67.9494 326.985H23.6924C13.7611 324.755 13.2712 311.667 13.2712 311.667V213.392C13.071 207.262 15.31 203.085 15.31 203.085C5.33757 190.005 22.027 147.683 22.027 147.683C20.6029 146.289 21.8197 141.561 21.8197 141.561C18.364 139.89 17.1415 132.373 19.1732 118.174C21.212 103.975 14.2935 81.699 12.6636 73.6219C11.0323 65.5534 14.2949 59.4228 14.2949 59.4228L22.1249 49.625H69.5949L77.3483 59.4228C77.3483 59.4228 80.6109 65.5534 78.9795 73.6219C77.3482 81.699 70.4311 103.975 72.4699 118.174C74.5016 132.373 73.2792 139.891 69.8235 141.561C69.8235 141.561 71.0402 146.289 69.6162 147.683C69.6162 147.683 86.3041 190.005 76.3317 203.085Z" fill="#F5C938"/>
<path d="M63.7515 49.625L67.2257 54.0107H13.1523L17.3875 49.625H63.7515Z" fill="#E59A2C"/>
<path d="M78.9113 54.0107H73.0633L69.5977 49.625H74.76L78.9113 54.0107Z" fill="#CC7B1B"/>
<path d="M60.5408 22.9609H31.6328V27.2174H60.5408V22.9609Z" fill="#A5C2D3"/>
<path d="M22.1287 49.6298L40.2492 31.9508H52.9179L69.6001 49.6298H74.7596L55.8411 29.8609V27.2188H36.2128V30.1449L17.3867 49.6298H22.1287Z" fill="#BED8E5"/>
<path d="M74.7558 49.6298H69.5963L52.9141 31.9508V27.2188H55.8374V29.8609L74.7558 49.6298Z" fill="#AAC9D6"/>
<path d="M73.0622 54.0107H67.2242L63.75 49.625H69.5966L73.0622 54.0107Z" fill="#DB8C23"/>
<path d="M76.3387 203.098C76.3387 203.098 78.5777 207.273 78.376 213.405V311.68C78.376 311.68 77.8834 324.769 67.9521 326.998H62.1055C72.0368 324.768 72.5294 311.68 72.5294 311.68V213.405C72.7296 207.275 70.4906 203.098 70.4906 203.098C80.4631 190.017 63.7752 147.696 63.7752 147.696C65.1949 146.301 63.9839 141.573 63.9839 141.573C67.4339 139.902 68.6606 132.386 66.6232 118.187C64.5858 103.988 71.5101 81.7118 73.1385 73.6347C74.767 65.5662 71.51 59.4356 71.51 59.4356L67.2252 54.0234H73.0633L77.3481 59.4356C77.3481 59.4356 80.6136 65.5662 78.9851 73.6347C77.3481 81.7118 70.4324 103.988 72.4698 118.187C74.5001 132.386 73.2805 139.904 69.822 141.573C69.822 141.573 71.0415 146.301 69.6132 147.696C69.6132 147.696 86.3111 190.017 76.3387 203.098Z" fill="#F2BB22"/>
<path d="M74.6283 326.584C74.6283 326.584 47.8827 312.455 17.6133 326.584H74.6283Z" fill="#E59A2C"/>
<path d="M16.0273 326.992H76.3036C76.3036 326.992 46.9911 317.307 16.0273 326.992Z" fill="#A5C2D3"/>
<path d="M63.7509 49.6298L47.9062 31.9508V27.2188H52.918V31.9508L69.5975 49.6298H63.7509Z" fill="#C1D9E5"/>
<path d="M52.918 27.2188H47.9062V31.9523H52.918V27.2188Z" fill="#9ABECC"/>
<path d="M52.9141 27.2188H55.8374V29.8609L57.8378 31.9508H52.9141V27.2188Z" fill="#8AB4C1"/>
<path d="M60.5421 29.9192V27.2188H55.8398V29.8609L57.8403 31.9508H62.517L60.5421 29.9192Z" fill="#6A98AA"/>
<path d="M60.5421 22.9609H55.8398V27.2174H60.5421V22.9609Z" fill="#477984"/>
<path d="M55.8374 22.9609H52.9141V27.2174H55.8374V22.9609Z" fill="#578796"/>
<path d="M52.918 22.9609H47.9062V27.2174H52.918V22.9609Z" fill="#6794A5"/>
<path d="M47.9034 22.9609H31.6328V27.2174H47.9034V22.9609Z" fill="#7DA6BA"/>
<path d="M29.5273 47.1909H55.8371L46.0222 35.1484H41.2901L29.5273 47.1909Z" fill="white"/>
<path d="M58.4863 146.247H27.7213C26.5727 146.247 25.6328 145.307 25.6328 144.159C25.6328 143.01 26.5727 142.07 27.7213 142.07H58.4863C59.6349 142.07 60.5748 143.01 60.5748 144.159C60.5734 145.307 59.6349 146.247 58.4863 146.247Z" fill="#FFE633"/>
<path d="M59.0769 145.063H27.1293C26.3058 145.063 25.6328 144.39 25.6328 143.567C25.6328 142.743 26.3058 142.07 27.1293 142.07H59.0769C59.9003 142.07 60.5733 142.743 60.5733 143.567C60.5733 144.39 59.9003 145.063 59.0769 145.063Z" fill="#EFB616"/>
<path d="M67.1743 204.057H18.6111C18.1852 204.057 17.8359 203.707 17.8359 203.281V203.033C17.8359 202.607 18.1852 202.258 18.6111 202.258H67.1743C67.6003 202.258 67.9495 202.607 67.9495 203.033V203.281C67.9495 203.707 67.6003 204.057 67.1743 204.057Z" fill="#FFE633"/>
<path d="M67.6329 202.894H18.154C17.9793 202.894 17.8359 202.75 17.8359 202.576C17.8359 202.401 17.9793 202.258 18.154 202.258H67.6329C67.8075 202.258 67.9509 202.401 67.9509 202.576C67.9509 202.75 67.8075 202.894 67.6329 202.894Z" fill="#EFB616"/>
<path d="M59.2161 60.7344H56.2091H46.3346H39.8704H29.9959H26.9888C26.9888 60.7344 18.2189 61.7083 19.332 71.4536C20.4451 81.1975 28.1019 98.4591 25.596 109.178C23.0901 119.898 21.2799 133.262 26.2917 135.349H30.1222H56.0827H59.9132C64.925 133.26 63.1148 119.898 60.609 109.178C58.1031 98.4591 65.7599 81.1975 66.873 71.4536C67.9861 61.7083 59.2161 60.7344 59.2161 60.7344Z" fill="#FAD73C"/>
<path d="M59.8645 160.475C58.1935 156.952 57.0804 153.299 52.2077 151.735C50.947 151.33 49.6265 151.137 48.3601 151.07C38.4175 149.695 32.6177 151.735 32.6177 151.735C27.7451 153.301 26.632 156.952 24.9609 160.475C23.2898 163.997 8.95162 197.132 33.0352 198.829H39.2622H45.5646H51.7917C75.8724 197.132 61.5342 163.997 59.8645 160.475Z" fill="#FAD73C"/>
<path d="M42.8917 210.421H28.1361C28.1361 210.421 20.201 209.725 20.0618 218.077C19.9227 226.43 20.0618 304.526 20.0618 304.526C20.0618 304.526 19.7836 314.827 27.3012 314.967C27.3012 314.967 45.6773 309.398 59.3184 314.967C59.3184 314.967 65.4433 312.739 65.5825 304.804V217.382C65.5825 217.382 65.1651 210.406 56.9517 210.406C48.7383 210.405 42.8917 210.421 42.8917 210.421Z" fill="#FAD73C"/>
<g opacity="0.5">
<path d="M26.9737 198.996H16.1153C12.6071 186.075 20.1574 162.262 23.5577 152.641H34.4161C31.0158 162.262 23.4654 186.076 26.9737 198.996Z" fill="white"/>
<path d="M33.903 140.541H23.0446C21.074 137.267 20.631 130.209 22.251 118.95C22.5094 117.146 22.6272 115.208 22.6272 113.188H33.4856C33.4856 115.209 33.3691 117.147 33.1093 118.95C31.4894 130.208 31.9324 137.267 33.903 140.541Z" fill="white"/>
<path d="M26.5995 74.3876C27.6345 79.5243 30.8092 90.3912 32.4632 101.274H21.6048C19.9508 90.3898 16.7776 79.5243 15.7411 74.3876C14.1127 66.319 17.3696 60.1884 17.3696 60.1884L25.2039 50.3906H36.0623L28.228 60.1884C28.228 60.1884 24.9711 66.319 26.5995 74.3876Z" fill="white"/>
<path d="M27.2072 214.15V310.704H16.3488V214.15C16.2821 212.128 16.4823 210.317 16.7747 208.805H27.6331C27.3407 210.317 27.1404 212.128 27.2072 214.15Z" fill="white"/>
</g>
</svg>
