<svg width="353" height="294" viewBox="0 0 353 294" fill="none" xmlns="http://www.w3.org/2000/svg">
<path d="M271.946 78.2534C271.054 67.8398 229.399 66.0542 229.399 66.0542L189.132 63.2714C172.932 59.3252 154.997 57.1287 136.122 57.1287C128.749 57.1287 121.521 57.469 114.481 58.1117L27.0752 52.0703L0.594718 74.9805C0.594718 74.9805 -0.530246 103.695 5.97985 134.288C11.2651 171.112 67.5105 200.093 136.122 200.093C206.838 200.093 264.414 169.306 266.601 130.876C267.885 121.933 272.722 87.2994 271.946 78.2534Z" fill="#717375"/>
<path opacity="0.5" d="M271.947 78.2534C271.055 67.8398 229.4 66.0542 229.4 66.0542L189.133 63.2714C172.933 59.3252 154.997 57.1287 136.123 57.1287C128.749 57.1287 121.522 57.469 114.482 58.1117L27.0761 52.0703L0.595536 74.9805C0.595536 74.9805 0.572708 75.5626 0.552734 76.6462C2.73917 89.9895 7.09065 102.888 15.3777 113.833C20.9847 121.239 28.084 127.442 35.7091 132.698C43.4312 138.02 51.8017 142.368 60.4747 145.918C69.1862 149.483 78.2088 152.263 87.3604 154.447C97.2319 156.803 107.285 158.633 117.393 159.569C128.293 160.578 139.393 160.824 150.304 159.863C155.632 159.393 160.967 158.808 166.322 159.164C169.512 159.376 172.536 160.393 174.819 162.708C179.367 167.321 180.001 174.674 180.583 180.778C181.057 185.756 181.108 190.76 180.939 195.765C229.732 185.999 264.902 160.748 266.602 130.876C267.886 121.933 272.723 87.2994 271.947 78.2534Z" fill="#656769"/>
<path d="M136.122 149.065C211.3 149.065 272.244 115.695 272.244 74.5323C272.244 33.3692 211.3 0 136.122 0C60.9439 0 0 33.3692 0 74.5323C0 115.695 60.9439 149.065 136.122 149.065Z" fill="#9FA1A4"/>
<path d="M135.858 144.257C208.755 144.257 267.849 112.767 267.849 73.9215C267.849 35.0763 208.755 3.58594 135.858 3.58594C62.9622 3.58594 3.86816 35.0763 3.86816 73.9215C3.86816 112.767 62.9622 144.257 135.858 144.257Z" fill="#717375"/>
<path d="M135.858 144.257C208.755 144.257 267.849 112.767 267.849 73.9215C267.849 35.0763 208.755 3.58594 135.858 3.58594C62.9622 3.58594 3.86816 35.0763 3.86816 73.9215C3.86816 112.767 62.9622 144.257 135.858 144.257Z" fill="#515355"/>
<path d="M135.859 144.256C186.469 144.256 230.419 129.074 252.566 106.793C235.177 81.0996 189.487 62.7578 135.859 62.7578C82.2307 62.7578 36.5409 81.0989 19.1514 106.793C41.2983 129.074 85.2482 144.256 135.859 144.256Z" fill="#404244"/>
<path d="M51.0382 37.3751C51.5654 37.1839 52.094 36.997 52.6247 36.8151C54.9638 36.0133 57.7987 35.3848 59.7069 36.957C60.6793 37.7581 61.1865 38.9801 61.6166 40.1643C63.2438 44.642 64.2967 49.3281 64.7418 54.0719C64.8931 55.682 64.9687 57.3427 64.465 58.8792C63.4007 62.1264 60.1114 63.9968 57.1774 65.7474C49.4995 70.3279 42.535 76.1032 36.6127 82.8009C40.0112 83.7932 43.4988 81.8657 46.5683 80.103C76.7241 62.7856 112.187 54.8616 146.846 57.6958C148.128 57.8006 150.048 56.9403 149.301 55.8917C149.182 55.7248 149.007 55.6063 148.834 55.4951C143.066 51.7656 135.93 51.0302 129.099 50.2983C122.268 49.5671 115.113 48.6154 109.558 44.5721C104.004 40.5295 100.841 32.3473 104.552 26.567C106.97 22.8005 111.507 21.0399 115.82 19.8408C125.167 17.2427 134.938 16.1762 144.624 16.697C149.972 16.9845 155.688 17.6757 160.378 15.0898C155.741 11.4895 149.618 10.5571 143.773 10.005C106.323 6.46817 61.725 11.5936 32.558 37.517C29.4385 40.2891 22.2735 45.528 22.4576 50.2647C22.4754 50.7313 22.5838 51.2156 22.8884 51.5687C25.2083 54.2645 35.1489 44.871 37.0507 43.8003C41.5278 41.2807 46.2102 39.1278 51.0382 37.3751Z" fill="#717375"/>
<path d="M232.524 137.02C232.524 137.02 212.887 147.954 197.49 151.971C184.555 155.345 186.108 171.159 192.227 177.984C193.392 179.284 197.513 182.377 198.94 182.877C207.866 186.001 240.558 166.141 245.467 155.876C248.844 148.816 245.988 141.945 241.674 138.693C239.715 137.217 234.893 136.253 232.524 137.02Z" fill="#404244"/>
<path d="M235.872 139.252C235.872 139.252 216.235 150.186 200.837 154.203C185.44 158.22 190.572 179.866 199.498 182.99C208.425 186.114 241.004 168.709 245.914 158.443C250.822 148.177 243.458 136.797 235.872 139.252Z" fill="#656769"/>
<path d="M191.144 169.652C191.351 167.127 191.925 164.583 193.079 162.314C194.27 159.973 196.169 158.131 198.431 156.825C200.74 155.492 203.311 154.69 205.857 153.947C212.38 152.041 218.882 149.875 225.139 147.213C226.323 146.709 227.508 146.203 228.647 145.602C229.517 145.143 230.371 144.656 231.229 144.174C233.194 143.069 235.173 141.976 237.252 141.097C238.537 140.554 239.961 140.068 241.394 139.815C239.698 138.906 237.792 138.637 235.872 139.259C235.872 139.259 216.235 150.193 200.837 154.21C192.791 156.309 190.358 163.22 191.135 169.787C191.139 169.741 191.14 169.696 191.144 169.652Z" fill="#656769"/>
<path opacity="0.5" d="M241.905 149.646C239.979 151.245 238.192 153.363 237.589 155.845C237.549 156.01 237.361 156.113 237.2 156.067C236.54 155.875 235.972 155.524 235.455 155.076C234.922 154.613 234.459 154.074 233.926 153.61C233.359 153.118 232.711 152.691 232.061 152.317C230.644 151.503 229.08 150.952 227.475 150.651C224.536 150.099 221.471 150.526 218.685 151.557C215.869 152.598 213.265 154.265 211.118 156.363C209.177 158.259 207.717 160.494 206.718 163.013C205.942 164.969 205.353 166.999 204.456 168.907C203.67 170.579 202.567 172.268 200.834 173.071C198.815 174.005 196.3 173.618 194.367 172.645C192.86 171.887 191.748 170.624 191.064 169.125C191.596 175.36 195.079 181.441 199.496 182.987C208.422 186.11 241.002 168.705 245.911 158.44C247.812 154.464 247.868 150.325 246.787 146.883C244.999 147.463 243.323 148.469 241.905 149.646Z" fill="#656769"/>
<path d="M271.226 192.286L234.981 157.236C234.981 157.236 234.964 157.304 234.933 157.421C233.173 155.176 230.717 153.444 227.764 152.599C220.319 150.47 212.558 154.778 210.429 162.222C208.877 167.646 210.745 173.236 214.752 176.695L252.984 216.343L271.226 192.286Z" fill="#A2B2B2"/>
<path d="M248.114 178.971C246.672 179.53 245.308 180.427 243.78 180.744C240.676 181.387 237.677 179.511 235.381 177.642C234.132 176.625 232.976 175.503 231.822 174.382C230.629 173.223 229.403 172.102 228.164 170.992C225.481 168.594 222.719 166.173 220.683 163.177C219.868 161.978 218.975 160.55 219.458 159.046C219.856 157.809 220.93 156.911 221.953 156.134C221.193 155.829 220.374 155.807 219.566 156.039C217.665 156.586 216.111 158.131 214.886 159.616C214.204 160.444 213.542 161.352 213.001 162.315C212.57 163.837 212.646 165.442 213.651 166.753C214.06 166.329 214.461 165.896 214.876 165.477C215.158 165.192 215.463 164.893 215.836 164.73C216.718 164.343 217.518 165.108 218.102 165.68C219.331 166.883 220.469 168.193 221.625 169.466C222.825 170.788 224.013 172.121 225.197 173.458C226.421 174.84 227.64 176.227 228.864 177.609C230.025 178.921 231.164 180.267 232.38 181.528C234.197 183.411 236.59 185.05 237.665 187.52C238.264 188.896 238.096 190.421 237.946 191.872C237.785 193.43 237.721 194.956 238.377 196.379C238.676 195.876 238.803 195.264 238.917 194.703C239.07 193.952 239.186 193.194 239.455 192.473C240.044 190.899 240.877 189.428 241.816 188.039C242.745 186.662 243.745 185.275 244.935 184.11C247.033 182.053 249.686 180.752 252.087 179.104C250.925 178.181 249.46 178.448 248.114 178.971Z" fill="#A2B2B2"/>
<path d="M258.223 179.714C253.768 180.629 249.432 182.523 245.918 185.422C242.296 188.411 239.639 192.535 239.201 197.283C239.181 197.502 238.942 197.701 238.725 197.556C236.894 196.324 235.321 194.76 233.811 193.161C232.203 191.457 230.591 189.758 228.982 188.055C225.971 184.87 223.075 181.59 220.194 178.289C217.868 175.624 215.338 173.074 213.54 170.002C212.696 168.558 211.983 166.951 211.778 165.277C211.594 163.783 211.843 162.244 212.263 160.809C212.833 158.856 213.777 156.85 215.086 155.188C212.921 156.937 211.253 159.345 210.429 162.225C208.877 167.649 210.745 173.238 214.752 176.698L252.984 216.346L271.226 192.288L258.223 179.714Z" fill="#A2B2B2"/>
<path d="M272.298 210.179C276.498 202.904 275.314 194.357 269.653 191.088C263.992 187.82 255.998 191.068 251.798 198.343C247.597 205.618 248.781 214.165 254.442 217.434C260.103 220.702 268.097 217.454 272.298 210.179Z" fill="#7F5632"/>
<path d="M338.297 244.729L280.805 189.133C280.805 189.133 274.042 183.117 269.358 181.778C257.55 178.399 245.239 185.234 241.861 197.042C239.4 205.646 242.364 214.512 248.718 219.999L309.361 282.888L338.297 244.729Z" fill="#BA7D4E"/>
<g opacity="0.51">
<path d="M246.476 213.644C246.57 211.892 246.898 210.071 247.873 208.579C247.986 208.407 248.216 208.37 248.37 208.515C249.284 209.38 249.768 210.638 250.148 211.809C250.964 214.32 251.305 216.95 252.125 219.461C252.773 221.449 253.529 223.401 254.236 225.367C253.932 224.236 253.622 223.105 253.313 221.975C252.751 219.913 252.163 217.842 251.744 215.745C251.498 214.511 251.329 213.262 251.106 212.024C250.846 210.575 250.551 209.116 250.061 207.725C249.758 206.864 249.326 205.754 248.488 205.258C247.708 205.933 247.153 206.82 246.778 207.779C245.932 209.945 245.765 212.352 245.782 214.656C245.789 215.45 245.828 216.244 245.885 217.037C246.133 217.349 246.391 217.652 246.655 217.951C246.489 216.522 246.398 215.083 246.476 213.644Z" fill="#BA7D4E"/>
<path d="M274.332 243.931C270.915 236.591 267.903 229.071 264.852 221.574C263.309 217.783 261.757 213.995 260.134 210.237C258.9 207.378 257.676 204.5 256.201 201.755C255.013 199.544 253.596 197.083 251.47 195.645C250.601 195.058 249.564 194.679 248.508 194.899C247.208 195.17 246.15 196.157 245.342 197.161C243.429 199.538 242.619 202.724 242.283 205.701C242.121 207.122 242.059 208.567 242.104 210.009C242.222 210.37 242.346 210.729 242.482 211.083C242.788 208.81 243.279 206.56 243.678 204.298C243.911 202.979 244.169 201.652 244.623 200.388C245.033 199.244 245.613 198.082 246.628 197.36C250.527 194.587 253.527 200.987 254.722 203.697C255.719 205.96 256.607 208.277 257.535 210.569C258.937 214.034 260.346 217.496 261.795 220.942C264.679 227.803 267.725 234.605 271.179 241.202C272.026 242.819 272.9 244.423 273.799 246.012L276.891 249.218C276.011 247.469 275.158 245.706 274.332 243.931Z" fill="#BA7D4E"/>
<path d="M328.771 249.012C327.344 245.362 326.04 241.652 324.442 238.071C322.287 233.239 319.662 228.655 316.966 224.11L310.542 217.898C310.879 218.433 311.218 218.965 311.553 219.501C313.982 223.384 316.339 227.318 318.433 231.393C320.326 235.077 321.821 238.948 323.29 242.816C325.083 247.538 326.831 252.355 329.076 256.902L330.986 254.382C330.204 252.611 329.476 250.815 328.771 249.012Z" fill="#BA7D4E"/>
<path d="M286.067 196.23C285.411 194.924 284.649 193.675 283.885 192.43C283.736 192.188 283.593 191.941 283.448 191.696L282.489 190.767C283.763 192.792 284.966 194.988 285.346 197.351C285.378 197.558 285.263 197.742 285.041 197.751C283.42 197.818 281.841 196.785 280.568 195.896C279.258 194.981 278.044 193.942 276.813 192.925C275.304 191.678 273.809 190.43 272.392 189.075C269.757 186.552 267.34 183.817 265.006 181.015C264.301 180.96 263.598 180.927 262.898 180.94C265.489 184.277 268.866 186.939 272.134 189.585C275.516 192.324 278.47 195.534 281.745 198.395C282.723 199.249 283.758 200.119 284.948 200.66C285.397 200.865 285.985 201.08 286.476 200.899C286.916 200.737 287.156 200.249 287.188 199.804C287.277 198.587 286.594 197.282 286.067 196.23Z" fill="#BA7D4E"/>
<path d="M315.527 235.041C314.949 233.588 314.201 232.212 313.569 230.783C311.885 226.971 309.914 223.282 307.681 219.764C305.376 216.132 302.798 212.667 300.325 209.148C299.803 208.407 299.279 207.665 298.755 206.924C300.307 209.666 301.97 212.34 303.556 215.062C304.38 216.476 305.183 217.903 305.948 219.349C306.66 220.697 307.3 222.074 307.965 223.444C308.535 224.616 309.169 225.755 309.679 226.955C310.148 228.057 310.558 229.246 310.498 230.461C310.486 230.718 310.244 230.83 310.023 230.734C309.595 230.548 309.181 230.332 308.781 230.091C305.249 227.955 302.781 224.404 300.094 221.36C296.729 217.548 293.222 213.864 289.649 210.246C285.977 206.526 282.299 202.814 278.64 199.08C275.041 195.408 271.358 191.832 267.34 188.616C267.057 188.389 266.767 188.17 266.481 187.945C267.263 188.709 268.029 189.486 268.781 190.272C273.027 194.709 276.896 199.483 281.026 204.025C283.499 206.744 286.102 209.348 288.663 211.983C291.358 214.755 294.055 217.525 296.728 220.318C298.087 221.738 299.439 223.164 300.782 224.599C301.736 225.618 302.719 226.621 303.622 227.687C304.889 229.182 306.061 230.755 307.305 232.268C308.776 234.061 310.304 235.843 312.058 237.369C312.761 237.98 313.512 238.558 314.348 238.978C314.906 239.259 315.553 239.482 316.186 239.403C316.658 237.997 316.043 236.34 315.527 235.041Z" fill="#BA7D4E"/>
<path d="M313.889 253.387C311.088 250.76 308.392 248.015 305.911 245.082C303.293 241.986 300.838 238.749 298.45 235.474C293.67 228.922 289.175 222.168 284.421 215.598C279.825 209.244 274.938 203.051 269.284 197.598C266.344 194.763 263.153 192.189 260.035 189.554C257.658 187.545 255.294 185.521 252.947 183.477C252.628 183.643 252.313 183.818 252.003 183.999C254.947 186.607 258.061 189.014 261.09 191.52C264.219 194.111 267.185 196.863 269.954 199.837C275.466 205.76 280.218 212.344 284.645 219.102C286.861 222.487 289.071 225.888 290.999 229.446C292.888 232.931 294.578 236.517 296.268 240.1C297.96 243.685 299.652 247.271 301.541 250.757C303.435 254.247 305.607 257.534 307.872 260.792C310.746 264.927 313.738 269.003 316.961 272.881L324.593 262.815C320.984 259.719 317.358 256.641 313.889 253.387Z" fill="#BA7D4E"/>
<path d="M311.929 278.409C309.454 275.841 307.099 273.157 304.651 270.563C298.798 264.358 294.053 257.306 289.948 249.851C285.475 241.725 281.158 233.511 277.141 225.149C275.209 221.129 273.343 217.108 271.055 213.271C268.838 209.553 266.373 205.981 263.693 202.581C261.062 199.245 258.238 196.165 254.963 193.449C252.503 191.409 249.92 189.523 247.39 187.57C246.58 188.392 245.829 189.281 245.149 190.231C250.187 188.53 254.646 194.226 257.501 197.885C262.513 204.307 267.555 210.749 271.708 217.776C273.856 221.413 275.638 225.246 277.368 229.095C279.125 233.003 280.797 236.947 282.523 240.869C284.261 244.817 286.055 248.751 287.954 252.626C289.825 256.445 291.886 260.168 294.012 263.849C295.913 267.138 298.164 270.156 300.363 273.247C300.639 273.635 300.914 274.026 301.187 274.419L309.361 282.896L312.399 278.889C312.243 278.729 312.084 278.57 311.929 278.409Z" fill="#BA7D4E"/>
</g>
<path opacity="0.4" d="M280.805 189.133C280.805 189.133 274.042 183.117 269.358 181.778C257.55 178.399 245.239 185.233 241.861 197.042C239.4 205.646 242.364 214.511 248.718 219.999L309.361 282.888L338.296 244.729L280.805 189.133ZM307.17 240.725C306.608 243.449 304.874 245.767 302.689 247.429C300.45 249.132 297.707 250.197 294.91 250.478C291.773 250.791 288.684 249.848 285.911 248.437C282.802 246.856 280.029 244.674 277.41 242.39C276.136 241.28 274.895 240.133 273.654 238.986C272.291 237.726 270.889 236.511 269.508 235.27C263.522 229.894 257.709 224.245 252.717 217.918C248.477 212.544 243.706 206.277 244.288 199.044C244.521 196.144 245.571 193.281 247.065 190.799C250.531 185.042 257.01 183.027 262.809 186.806C264.397 187.84 265.952 188.927 267.477 190.053C270.588 192.35 273.58 194.807 276.476 197.37C282.382 202.596 287.904 208.25 293.165 214.121C295.516 216.745 297.824 219.406 299.974 222.199C302.142 225.014 304.177 227.99 305.618 231.25C306.907 234.167 307.829 237.531 307.17 240.725Z" fill="#BA7D4E"/>
<path d="M339.998 273.114C346.661 261.575 344.783 248.018 335.804 242.833C326.824 237.649 314.144 242.801 307.482 254.34C300.819 265.88 302.697 279.437 311.676 284.621C320.656 289.806 333.336 284.654 339.998 273.114Z" fill="#AA7347"/>
<path d="M339.402 273.116C345.471 262.605 343.76 250.256 335.581 245.534C327.403 240.812 315.853 245.504 309.784 256.015C303.715 266.526 305.426 278.875 313.605 283.597C321.784 288.319 333.334 283.627 339.402 273.116Z" fill="#7F5632"/>
<path d="M197.184 169.632C198.295 166.976 201.009 165.582 203.244 166.518C205.48 167.454 206.391 170.365 205.28 173.021C204.168 175.677 201.455 177.071 199.219 176.135C196.983 175.199 196.072 172.287 197.184 169.632Z" fill="#404244"/>
<path d="M235.416 149.843C236.527 147.187 239.241 145.793 241.477 146.729C243.712 147.665 244.623 150.576 243.512 153.232C242.401 155.888 239.687 157.281 237.451 156.346C235.216 155.41 234.305 152.498 235.416 149.843Z" fill="#404244"/>
<path opacity="0.43" d="M314.805 240.298C312.668 238.556 309.963 239.333 307.474 239.595C306.116 239.738 304.847 239.698 303.589 239.111C302.31 238.514 301.207 237.605 300.085 236.762C295.347 233.198 290.501 229.782 285.805 226.161C276.426 218.928 267.417 211.113 259.861 201.95C258.811 200.676 257.779 199.382 256.802 198.052C255.84 196.743 254.87 195.262 254.542 193.646C253.912 190.547 256.481 188.526 258.602 186.744C259.558 185.941 258.984 184.611 257.764 184.932C255.536 185.518 253.44 186.744 251.768 188.343C250.354 189.416 249.107 190.714 248.039 192.142C247.085 193.417 246.38 194.948 245.862 196.45C245.352 197.931 244.909 199.567 244.967 201.147C244.994 201.858 245.182 202.59 245.642 203.147C246.235 203.866 247.114 204.048 247.974 204.266C249.583 204.673 250.785 205.638 251.915 206.819C254.4 209.419 256.583 212.315 258.958 215.016C268.733 226.132 279.642 236.239 291.455 245.158C292.999 246.324 294.691 247.403 295.981 248.862C297.319 250.374 297.728 252.362 297.786 254.335C297.84 256.163 297.616 257.987 297.93 259.803C298.221 261.494 298.984 262.9 300.18 264.122C300.551 264.501 301.122 263.973 301.198 263.594C301.624 261.476 302.127 259.361 302.926 257.349C303.727 255.33 304.784 253.486 305.881 251.621C308.011 248.002 310.849 244.909 314.218 242.408C314.723 242.03 315.547 240.903 314.805 240.298Z" fill="#BA7D4E"/>
<path opacity="0.5" d="M237.378 28.9688C236.99 32.6704 236.466 36.3563 235.748 40.0072C234.25 47.6209 231.963 55.6084 227.198 61.8745C222.887 67.5443 216.567 70.6238 209.405 69.909C207.099 69.6793 204.894 69.0865 202.684 68.411C199.011 67.2882 195.305 66.2766 191.571 65.3764C184.115 63.5787 176.552 62.224 168.938 61.3031C153.845 59.4783 138.566 59.3435 123.426 60.6632C108.17 61.9922 93.0535 64.7957 78.2806 68.814C71.0429 70.7829 63.8736 72.8909 56.9362 75.7707C50.4604 78.4593 44.0608 81.5945 38.4489 85.8297C33.9718 89.2082 29.3357 93.1659 23.5675 93.9121C19.9515 94.38 16.3491 93.3428 13.6105 90.9238C7.89435 85.874 6.35421 77.0597 5.61874 69.8691C5.41686 67.8959 5.28204 65.9064 5.20357 63.9111C4.32971 67.1797 3.86816 70.5197 3.86816 73.9174C3.86816 87.8813 11.5047 100.895 24.6739 111.837C25.6049 108.322 27.8527 104.92 30.1889 102.19C33.0523 98.8435 36.383 95.9045 39.8834 93.2429C42.9052 90.9459 46.0932 88.8009 49.4767 87.0688C62.0146 80.65 75.6875 76.1951 89.4154 73.1684C102.978 70.178 116.808 68.6892 130.679 68.2655C140.856 67.9544 151.058 67.958 161.215 68.7634C171.686 69.5937 182.189 71.2409 192.173 74.5858C201.602 77.7445 210.635 82.5262 217.688 89.6362C221.225 93.2016 224.48 97.3875 226.484 102.019C228.36 106.355 228.984 111.098 228.182 115.76C227.543 119.475 226.121 122.948 224.204 126.171C251.001 113.298 267.849 94.6568 267.849 73.9174C267.849 56.8246 256.403 41.1579 237.378 28.9688Z" fill="#656769"/>
</svg>
