<svg width="155" height="306" viewBox="0 0 155 306" fill="none" xmlns="http://www.w3.org/2000/svg">
<path d="M129.531 303.629H24.9567C13.1433 303.629 3.56641 294.053 3.56641 282.239V23.7731C3.56641 11.9597 13.1433 2.38281 24.9567 2.38281H129.531C141.345 2.38281 150.922 11.9597 150.922 23.7731V282.239C150.922 294.053 141.345 303.629 129.531 303.629Z" fill="#DD223D"/>
<path d="M25.1698 301.274C14.6856 301.274 6.15625 292.745 6.15625 282.261V23.7948C6.15625 13.3106 14.6856 4.78125 25.1698 4.78125H129.745C140.229 4.78125 148.758 13.3106 148.758 23.7948V282.261C148.758 292.745 140.229 301.274 129.745 301.274H25.1698Z" fill="black"/>
<path d="M143.79 23.7758V282.242C143.79 290.103 137.391 296.502 129.53 296.502H24.9555C21.5865 296.502 18.4849 295.326 16.0429 293.365C12.7868 290.75 10.6953 286.734 10.6953 282.242V23.7758C10.6953 15.9149 17.0946 9.51562 24.9555 9.51562H48.1283C49.0136 9.51562 49.7445 10.1573 49.8811 11.0011C49.9049 11.0961 49.9109 11.1971 49.9109 11.2981V13.0807C49.9109 17.3468 53.3689 20.8049 57.6351 20.8049H96.8507C101.117 20.8049 104.575 17.3468 104.575 13.0807V11.2981C104.575 10.3118 105.371 9.51562 106.357 9.51562H129.53C133.167 9.51562 136.482 10.8822 139.001 13.1282C141.937 15.7366 143.79 19.5453 143.79 23.7758Z" fill="#2DBCE8"/>
<path d="M57.2636 15.8281C58.4847 15.8281 59.4746 14.8382 59.4746 13.6172C59.4746 12.3961 58.4847 11.4062 57.2636 11.4062C56.0426 11.4062 55.0527 12.3961 55.0527 13.6172C55.0527 14.8382 56.0426 15.8281 57.2636 15.8281Z" fill="#1E1E1E"/>
<path d="M83.1632 15.8281H71.3184C70.0973 15.8281 69.1074 14.8382 69.1074 13.6172C69.1074 12.3961 70.0973 11.4062 71.3184 11.4062H83.1632C84.3843 11.4062 85.3741 12.3961 85.3741 13.6172C85.3741 14.8382 84.3843 15.8281 83.1632 15.8281Z" fill="#1E1E1E"/>
<path d="M139.001 13.1282L10.6953 141.434V50.1928L49.8811 11.0011C49.9049 11.0961 49.9109 11.1971 49.9109 11.2981V13.0807C49.9109 17.3468 53.3689 20.8049 57.6351 20.8049H96.8507C101.117 20.8049 104.575 17.3468 104.575 13.0807V11.2981C104.575 10.3118 105.371 9.51562 106.357 9.51562H129.53C133.167 9.51562 136.482 10.8822 139.001 13.1282Z" fill="#7DE7FF"/>
<path d="M143.791 165.609V256.851L104.147 296.494H24.9556C21.5866 296.494 18.485 295.318 16.043 293.357L143.791 165.609Z" fill="#7DE7FF"/>
<path d="M143.79 24.7969V85.783L10.6953 218.878V157.892L143.79 24.7969Z" fill="#7DE7FF"/>
<path d="M143.79 107.641V138.134L10.6953 271.229V240.736L143.79 107.641Z" fill="#7DE7FF"/>
<path d="M129.529 2.3767C141.343 2.3767 150.92 11.9536 150.92 23.767V282.233C150.92 294.046 141.343 303.623 129.529 303.623H24.9545C13.1411 303.623 3.5642 294.046 3.5642 282.233V23.767C3.5642 11.9536 13.1411 2.3767 24.9545 2.3767H129.529ZM129.529 0H24.9545C11.8494 0 1.1875 10.6619 1.1875 23.767V282.233C1.1875 295.338 11.8494 306 24.9545 306H129.529C142.634 306 153.296 295.338 153.296 282.233V23.767C153.296 10.6619 142.634 0 129.529 0Z" fill="black"/>
<path d="M24.955 301.243C14.4708 301.243 5.94141 292.714 5.94141 282.23V23.7636C5.94141 13.2794 14.4708 4.75 24.955 4.75H129.53C140.014 4.75 148.543 13.2794 148.543 23.7636V282.23C148.543 292.714 140.014 301.243 129.53 301.243H24.955Z" stroke="black" stroke-width="2" stroke-miterlimit="10"/>
<path d="M143.79 23.7758V282.242C143.79 290.103 137.391 296.502 129.53 296.502H24.9555C17.0946 296.502 10.6953 290.103 10.6953 282.242V23.7758C10.6953 15.9149 17.0946 9.51562 24.9555 9.51562H48.1283C49.1147 9.51562 49.9108 10.3118 49.9108 11.2981V13.0807C49.9108 17.3468 53.3689 20.8049 57.6351 20.8049H96.8507C101.117 20.8049 104.575 17.3468 104.575 13.0807V11.2981C104.575 10.3118 105.371 9.51562 106.357 9.51562H129.53C137.391 9.51562 143.79 15.9149 143.79 23.7758Z" stroke="black" stroke-width="2" stroke-miterlimit="10"/>
<path d="M48.1289 9.51562C49.1152 9.51562 49.9114 10.3118 49.9114 11.2981V13.0807C49.9114 17.3468 53.3695 20.8049 57.6357 20.8049H96.8512C101.117 20.8049 104.576 17.3468 104.576 13.0807V11.2981C104.576 10.3118 105.372 9.51562 106.358 9.51562" stroke="black" stroke-width="2" stroke-miterlimit="10"/>
<path d="M1.43553 62.9844H0V74.2737H1.43553V62.9844Z" fill="black"/>
<path d="M1.43553 85.5625H0V107.547H1.43553V85.5625Z" fill="black"/>
<path d="M154.484 92.1172H153.049V127.154H154.484V92.1172Z" fill="black"/>
<path d="M57.2636 15.8281C58.4847 15.8281 59.4746 14.8382 59.4746 13.6172C59.4746 12.3961 58.4847 11.4062 57.2636 11.4062C56.0426 11.4062 55.0527 12.3961 55.0527 13.6172C55.0527 14.8382 56.0426 15.8281 57.2636 15.8281Z" stroke="black" stroke-width="2" stroke-miterlimit="10"/>
<path d="M83.1632 15.8281H71.3184C70.0973 15.8281 69.1074 14.8382 69.1074 13.6172C69.1074 12.3961 70.0973 11.4062 71.3184 11.4062H83.1632C84.3843 11.4062 85.3741 12.3961 85.3741 13.6172C85.3741 14.8382 84.3843 15.8281 83.1632 15.8281Z" stroke="black" stroke-width="2" stroke-miterlimit="10"/>
</svg>
