<svg width="23" height="40" viewBox="0 0 23 40" fill="none" xmlns="http://www.w3.org/2000/svg">
<path d="M21.7944 35.3488C20.4458 35.7143 19.0988 36.0829 18.0879 37.1451C16.1597 37.9051 14.3152 38.9217 12.1869 39.0673C11.0028 38.9519 10.8855 37.893 10.4909 37.108C8.17844 32.5083 5.98729 27.8434 3.36067 23.4109C2.58552 22.1028 1.54057 20.9545 0.619141 19.733C4.68783 19.1091 8.12753 17.0989 11.3421 14.698C14.829 12.0937 17.4168 8.66849 19.7077 5.00484C20.5234 3.70037 20.8562 2.30314 20.7087 0.78125C21.0341 1.04109 21.0891 1.40486 21.068 1.78257C20.8074 6.47239 21.4302 11.1358 21.4875 15.82C21.559 21.6596 21.9355 27.4958 22.2055 33.3322C22.2306 33.8751 22.4374 34.4096 22.5598 34.9478C22.3047 35.0814 22.0495 35.2151 21.7944 35.3488Z" fill="#215961"/>
</svg>
