<svg width="326" height="325" viewBox="0 0 326 325" fill="none" xmlns="http://www.w3.org/2000/svg">
<path d="M167.922 278.588V312.228C167.922 319.11 173.501 324.689 180.383 324.689H313.54C320.422 324.689 326.001 319.11 326.001 312.228V179.07C326.001 172.188 320.422 166.609 313.54 166.609H289.512C285.759 186.702 268.142 201.914 246.961 201.914C225.78 201.914 208.163 186.702 204.41 166.609H180.383C173.501 166.609 167.922 172.188 167.922 179.07V212.688C149.724 212.688 134.972 227.441 134.972 245.638C134.972 263.836 149.724 278.588 167.922 278.588Z" fill="#F7931E"/>
<path d="M158.079 46.1001V12.4608C158.079 5.57877 152.5 0 145.618 0H12.461C5.57898 0 0 5.57898 0 12.4608V145.618C0 152.5 5.57898 158.079 12.461 158.079H36.4884C40.2416 137.987 57.8586 122.775 79.0396 122.775C100.221 122.775 117.838 137.987 121.591 158.079H145.618C152.5 158.079 158.079 152.5 158.079 145.618V112C176.277 112 191.029 97.2477 191.029 79.05C191.029 60.8522 176.277 46.1001 158.079 46.1001Z" fill="#FF7BAC"/>
<path d="M12.461 166.614H46.1003C46.1003 148.416 60.8525 133.664 79.0502 133.664C97.2479 133.664 112 148.416 112 166.614H145.618C152.5 166.614 158.079 172.193 158.079 179.075V203.501C138.908 207.959 124.62 225.137 124.62 245.664C124.62 266.191 138.908 283.37 158.079 287.828V312.232C158.079 319.114 152.5 324.693 145.618 324.693H12.461C5.57898 324.693 0 319.114 0 312.232V179.075C0.000212573 172.193 5.57919 166.614 12.461 166.614Z" fill="#7AC943"/>
<path d="M279.899 158.259H313.538C320.42 158.259 325.999 152.68 325.999 145.798V12.6407C325.999 5.75867 320.42 0.179688 313.538 0.179688H180.381C173.499 0.179688 167.92 5.75867 167.92 12.6407V36.6681C188.012 40.4213 203.224 58.0383 203.224 79.2193C203.224 100.4 188.012 118.017 167.92 121.77V145.798C167.92 152.68 173.499 158.259 180.381 158.259H213.999C213.999 176.456 228.751 191.209 246.949 191.209C265.146 191.209 279.899 176.456 279.899 158.259Z" fill="#29ABE2"/>
</svg>
