<svg width="298" height="323" viewBox="0 0 298 323" fill="none" xmlns="http://www.w3.org/2000/svg">
<path d="M280.365 187.765C280.365 187.765 285.867 79.8469 284.888 75.7842C283.91 71.7216 268.534 37.1023 236.941 18.2505C201.612 -2.83087 172.674 8.04609 171.344 14.4699V124.612L266.511 174.071L280.365 187.765Z" fill="#EA873D"/>
<path d="M279.935 103.896C276.827 92.0873 280.867 68.1595 262.222 72.8208C258.182 73.7531 254.453 75.3068 250.103 75.9283C223.465 79.6519 196.563 83.9033 171.344 74.812V124.612L266.511 174.071L280.365 187.766C280.365 187.766 282.468 146.521 283.842 114.068C282.227 110.831 280.87 107.469 279.935 103.896Z" fill="#E07934"/>
<path d="M266.509 174.074L280.363 187.768C280.363 187.768 281.007 175.131 281.815 158.344C273.627 161.261 265.988 165.302 258.832 170.084L266.509 174.074Z" fill="#E07934"/>
<path d="M280.347 188.014L266.401 174.229L171.158 124.731L171.162 14.4385C171.901 10.8682 181.104 5.70312 195.809 5.70312C205.142 5.70312 219.87 7.85341 237.037 18.0972C253.704 28.0422 265.548 42.2754 272.549 52.4644C280.572 64.1407 284.589 73.7497 285.07 75.747C286.043 79.7896 280.776 183.374 280.552 187.781L280.547 187.87L280.347 188.014ZM171.531 124.505L266.623 173.925L280.201 187.347C280.574 180.005 285.638 79.6979 284.708 75.8342C284.231 73.8539 280.236 64.3086 272.242 52.6751C265.262 42.5167 253.455 28.3272 236.847 18.4167C219.752 8.21647 205.095 6.07532 195.809 6.07532C189.395 6.07532 183.267 7.11646 178.553 9.0069C174.607 10.5893 171.919 12.6906 171.53 14.4956L171.531 124.505Z" fill="#703D1A"/>
<path d="M297.404 73.3595C296.844 69.2969 288.968 51.9192 268.869 32.0103C247.291 10.6369 220.937 0.467566 201.044 0.187385C181.151 -0.0927956 173.947 7.32414 171.344 14.4689C172.153 12.7878 185.019 1.0381 226.061 22.5197C267.065 43.982 280.365 79.0951 280.365 84.1469V187.764L297.177 175.662L297.404 73.3595Z" fill="#F59642"/>
<path d="M280.359 84.0059C280.362 84.0577 280.365 84.1121 280.365 84.1588V187.776L297.177 175.674L297.404 73.3714C297.372 73.1341 297.313 72.8495 297.229 72.5234C293.847 78.5627 287.273 83.2882 280.359 84.0059Z" fill="#E07934"/>
<path d="M280.18 187.849V84.1535C280.18 81.5353 276.635 71.3291 268.438 59.6003C261.057 49.0385 247.699 34.0613 225.975 22.6912C209.82 14.2355 196.233 9.94807 185.593 9.94807C175.842 9.94807 171.953 13.6418 171.513 14.556L171.17 14.4117C174.655 4.84878 184.342 0 199.961 0C200.319 0 200.682 0.00263707 201.048 0.00772271C211.433 0.153982 222.966 2.92641 234.402 8.02532C246.908 13.6019 258.873 21.8522 269.001 31.8846C289.212 51.905 297.03 69.2775 297.59 73.3406L297.592 73.3665L297.364 175.764L297.287 175.82L280.348 188.014L280.18 187.849ZM185.593 9.57588C196.294 9.57588 209.939 13.8776 226.148 22.3614C247.938 33.7665 261.339 48.7913 268.743 59.3872C277.089 71.3289 280.553 81.41 280.553 84.1535V187.408L296.992 175.573L297.22 73.3787C296.649 69.3259 288.861 52.081 268.739 32.149C245.47 9.10084 218.513 0.62591 201.043 0.379916C200.678 0.374736 200.318 0.372193 199.961 0.372193C185.098 0.372193 175.677 4.78502 171.934 13.4932C173.542 12.0113 177.698 9.57588 185.593 9.57588Z" fill="#703D1A"/>
<path d="M280.769 179.138C279.568 180.166 97.7715 304.46 97.7715 304.46L98.0685 295.229L98.9336 268.387L248.317 165.066L279.679 143.375C281.733 146.301 281.666 154.946 281.853 160.317C282.04 165.687 281.972 178.112 280.769 179.138Z" fill="#EAEADC"/>
<path d="M280.769 179.138C279.568 180.166 97.7715 304.46 97.7715 304.46L98.0685 295.229L274.73 174.611C274.73 174.611 273.788 155.954 271.08 155.841C268.372 155.728 246.756 166.97 246.756 166.97L248.317 165.066L279.679 143.375C281.733 146.301 281.666 154.946 281.853 160.317C282.04 165.687 281.972 178.112 280.769 179.138Z" fill="#D6D6CC"/>
<path d="M144.051 259.488C144.3 258.991 163.158 240.877 169.113 237.155C187.138 222.019 209.56 223.508 212.289 214.079C214.436 206.467 213.665 198.395 211.065 190.828L98.9307 268.386L98.498 281.816C115.267 287.776 134.622 267.924 144.051 259.488Z" fill="#D6D6CC"/>
<path d="M97.5723 304.821L98.7492 268.288L98.8262 268.234L279.724 143.117L279.83 143.268C281.649 145.859 281.828 152.627 281.973 158.064C281.993 158.855 282.014 159.611 282.038 160.311C282.2 164.976 282.229 178.137 280.89 179.281C279.693 180.303 105.298 299.539 97.875 304.614L97.5723 304.821ZM99.1152 268.487L97.968 304.1C106.377 298.35 279.422 180.034 280.648 178.998C281.711 178.09 281.876 166.358 281.666 160.324C281.642 159.623 281.621 158.866 281.6 158.074C281.468 153.072 281.287 146.258 279.628 143.636L99.1152 268.487Z" fill="#6B6B66"/>
<path d="M280.364 144.188L203.697 196.683L200.175 190.42L187.389 167.681L275.926 111.414L277.716 111.636L280.364 111.964C281.857 118.409 281.297 141.946 280.364 144.188Z" fill="#EAEADC"/>
<path d="M280.362 144.184L203.695 196.679L200.174 190.417C207.628 185.782 249.156 159.836 258.831 151.029C269.471 141.343 270.322 134.796 270.322 130.444C270.322 124.425 249.06 134.496 248.804 134.618L277.715 111.633L280.362 111.961C281.856 118.406 281.296 141.943 280.362 144.184Z" fill="#D6D6CC"/>
<path d="M203.633 196.948L187.139 167.617L187.287 167.522L275.881 111.219L280.514 111.794L280.544 111.92C282.03 118.332 281.547 141.827 280.534 144.257L280.513 144.308L280.468 144.339L203.633 196.948ZM187.636 167.742L203.758 196.412L280.21 144.064C281.127 141.56 281.616 118.529 280.21 112.131L275.968 111.605L187.636 167.742Z" fill="#6B6B66"/>
<path d="M94.323 239.668C94.323 239.668 280.48 113.664 280.358 111.964C280.077 108.088 195.015 31.1797 195.015 31.1797L17.5254 158.451L94.323 239.668Z" fill="#FFFFF3"/>
<path d="M249.385 131.701C257.201 126.095 271.56 118.762 280.304 111.413C262.287 92.8404 195.017 31.1797 195.017 31.1797L150.893 62.8192C152.045 66.5725 154.508 69.9511 157.201 72.6441C164.894 80.5845 176.804 88.0287 172.586 99.443C168.864 109.617 161.42 118.301 156.457 128.227C155.713 129.716 153.976 129.964 153.479 131.205C153.231 131.949 153.479 132.693 153.231 133.19C150.005 138.897 147.276 144.852 149.261 151.056C150.75 156.267 154.72 160.981 160.675 162.222C164.149 162.966 168.119 163.463 170.849 161.974C172.939 160.834 173.981 159.064 175.172 157.083C176.167 155.427 177.349 150.91 182.482 149.504C187.385 148.161 192.458 151.946 201.506 152.375C208.566 152.71 210.643 146.837 217.499 145.1C229.823 145.867 245.023 134.829 249.385 131.701Z" fill="#EAEADC"/>
<path d="M94.2948 239.915L94.1862 239.8L17.2422 158.428L17.4155 158.304L195.027 30.9453L195.138 31.046C198.613 34.1883 280.259 108.049 280.542 111.955C280.567 112.305 280.626 113.124 187.49 176.611C141.497 207.962 94.891 239.511 94.4257 239.826L94.2948 239.915ZM17.8057 158.482L94.3482 239.43C100.139 235.509 277.437 115.464 280.164 111.937C279.438 108.506 224.295 57.9112 195 31.4227L17.8057 158.482Z" fill="#6B6B66"/>
<path d="M274.983 75.1925C273.265 69.4833 247.389 47.1595 233.473 36.5118C219.556 25.8642 198.087 18.4766 192.376 18.4766C183.036 18.4766 176.223 24.4884 168.001 32.6016C159.78 40.7148 145.962 63.4509 146.299 71.283C146.548 77.0787 151.864 84.9865 165.582 93.8596C179.3 102.733 193.777 114.666 200.596 119.954C207.414 125.242 217.07 135.836 221.375 138.064C231.234 136.855 251.966 106.387 261.306 94.8464C270.646 83.3054 274.983 75.1925 274.983 75.1925Z" fill="#EFF7FA"/>
<path d="M266.151 74.5282C258.348 76.8357 248.899 91.0447 240.515 85.0149C234.412 80.6251 241.999 65.8678 240.433 59.5555C240.433 59.5555 238.827 61.011 238.827 60.9176C234.718 61.6648 230.701 63.1592 226.872 65.0272C220.707 68.016 214.169 69.6038 207.631 71.752C205.577 72.4058 203.615 73.0596 201.467 73.5266C201 73.62 200.626 73.4332 200.159 73.5266C198.572 73.9936 197.077 73.62 195.583 73.8068C195.489 73.8068 195.396 74.087 195.303 74.087C190.726 74.087 186.149 74.7407 181.666 73.2463C180.078 72.686 178.397 72.4991 176.903 71.7519C175.595 71.0981 174.194 70.7245 172.887 70.1641C170.832 69.2302 168.87 68.2028 166.909 67.2687C160.514 64.0713 152.971 61.2911 154.71 50.7422C149.897 58.8487 146.121 67.151 146.299 71.2903C146.548 77.086 151.864 84.9939 165.582 93.8669C179.3 102.74 193.777 114.674 200.596 119.961C207.414 125.249 217.07 135.844 221.375 138.072C231.234 136.862 251.966 106.395 261.306 94.8537C270.646 83.3126 274.983 75.1998 274.983 75.1998C274.976 75.1765 274.967 75.1522 274.96 75.1285C274.834 75.0879 274.713 75.052 274.599 75.0209C270.957 74.1804 269.727 73.4709 266.151 74.5282Z" fill="#D0E7EF"/>
<path d="M221.333 138.312L221.268 138.279C218.839 137.021 214.76 133.164 210.442 129.08C207.01 125.835 203.461 122.478 200.454 120.146C199.149 119.134 197.579 117.891 195.761 116.451C188.108 110.391 176.543 101.233 165.456 94.0626C153.244 86.1637 146.358 78.0798 146.067 71.3001C145.912 67.6946 148.708 60.6375 153.74 51.9378C158.308 44.038 163.842 36.3857 167.838 32.4424C171.564 28.7649 175.546 24.9532 179.644 22.3074C183.931 19.5393 187.977 18.25 192.377 18.25C198.403 18.25 219.961 25.8865 233.615 36.3333C241.154 42.1012 251.102 50.4245 258.96 57.5379C265.828 63.7552 274.221 71.8545 275.207 75.1322L275.235 75.2245L275.19 75.3095C275.146 75.3908 270.735 83.5741 261.488 95.0003C259.562 97.3799 257.192 100.512 254.448 104.138C243.846 118.146 229.326 137.331 221.404 138.303L221.333 138.312ZM192.377 18.7171C183.126 18.7171 176.507 24.5437 168.166 32.7749C164.198 36.6913 158.694 44.305 154.144 52.1717C149.156 60.7964 146.382 67.7611 146.533 71.28C146.698 75.1164 149.409 83.1267 165.71 93.6705C176.815 100.853 188.391 110.019 196.051 116.085C197.868 117.524 199.437 118.767 200.74 119.777C203.765 122.123 207.323 125.487 210.763 128.741C215.018 132.765 219.039 136.568 221.419 137.83C224.821 137.366 229.815 133.386 236.681 125.668C242.62 118.992 248.972 110.6 254.076 103.856C256.822 100.227 259.195 97.092 261.125 94.7065C269.834 83.9458 274.236 76.0783 274.731 75.1755C273.876 72.6402 268.176 66.5109 258.647 57.8842C250.798 50.7787 240.861 42.4651 233.332 36.7043C227.217 32.0262 218.846 27.4167 209.76 23.7247C202.389 20.7295 195.404 18.7171 192.377 18.7171Z" fill="#8EB1BA"/>
<path d="M220.906 137.728C218.098 135.444 221.261 127.256 227.799 121.528C234.337 115.799 242.191 110.989 248.418 103.206C254.644 95.4223 256.637 90.6277 259.065 85.2728C261.494 79.9178 266.013 71.7131 272.203 73.2109C278.306 74.6875 276.002 84.9763 271.705 94.1221C267.409 103.268 261.494 111.549 255.765 118.586C250.037 125.622 241.008 132.471 236.213 135.522C231.419 138.573 224.241 140.441 220.906 137.728Z" fill="#C5E3EA"/>
<path d="M225.36 139.282C223.728 139.282 222.035 138.954 220.76 137.916C220.054 137.342 219.67 136.396 219.648 135.181C219.576 131.295 222.941 125.482 227.647 121.359C229.707 119.553 231.852 117.875 234.123 116.098C238.971 112.304 243.985 108.381 248.236 103.066C254.073 95.77 256.186 91.0903 258.423 86.1358C258.566 85.8196 258.709 85.5023 258.854 85.1829C260.569 81.4009 262.268 78.5689 264.049 76.5253C266.685 73.4993 269.448 72.3103 272.259 72.9905C273.724 73.3449 274.793 74.2046 275.436 75.5458C276.334 77.42 276.397 80.1927 275.621 83.7869C274.953 86.8828 273.672 90.4933 271.918 94.2279C268.259 102.016 263.035 110.033 255.947 118.74C249.922 126.14 240.487 133.087 236.34 135.726C233.832 137.322 230.812 138.523 228.055 139.023C227.24 139.171 226.31 139.282 225.36 139.282ZM221.054 137.554C224.226 140.133 231.189 138.45 236.089 135.332C240.214 132.707 249.597 125.799 255.585 118.445C262.649 109.768 267.853 101.782 271.495 94.0294C275.302 85.9254 276.618 79.0911 275.014 75.7477C274.435 74.5391 273.471 73.7642 272.15 73.4445C269.521 72.8084 266.914 73.9482 264.401 76.8321C262.65 78.8411 260.975 81.6358 259.279 85.3759C259.134 85.6949 258.991 86.0121 258.848 86.3281C256.599 91.3101 254.475 96.0159 248.601 103.358C244.315 108.715 239.28 112.655 234.411 116.465C232.145 118.238 230.005 119.913 227.954 121.71C225.613 123.762 223.608 126.206 222.158 128.78C220.809 131.175 220.083 133.445 220.114 135.173C220.134 136.261 220.451 137.063 221.054 137.554Z" fill="#8EB1BA"/>
<path d="M135.967 118.231C135.967 118.231 153.402 102.103 160.562 98.4297C169.28 99.3637 175.991 101.847 181.235 105.528C186.478 109.21 191.197 118.231 191.197 118.231C191.197 118.231 185.243 129.937 182.212 135.354C179.18 140.771 168.47 149.177 168.47 149.177L135.967 118.231Z" fill="#87D0FD"/>
<path d="M161.44 98.5302C161.15 98.495 160.857 98.4613 160.562 98.4297C153.402 102.103 135.967 118.231 135.967 118.231L138.233 120.388C144.399 112.39 159.792 99.8975 161.44 98.5302Z" fill="#BBE8FF"/>
<path d="M182.21 135.348C185.241 129.931 191.195 118.225 191.195 118.225C191.195 118.225 187.727 111.595 183.433 107.383C181.297 108.014 179.681 108.508 179.681 108.508C181.944 110.708 183.267 113.265 182.037 117.503C179.675 125.646 171.121 135.36 159.383 140.521L168.468 149.171C168.468 149.171 179.178 140.765 182.21 135.348Z" fill="#6FC4EF"/>
<path d="M168.455 149.483L135.625 118.226L135.808 118.057C135.982 117.895 153.348 101.866 160.455 98.2194L160.517 98.1875L160.586 98.1949C169.014 99.0979 175.812 101.433 181.368 105.334C186.598 109.006 191.356 118.029 191.404 118.12L191.459 118.226L191.405 118.334C191.345 118.451 185.414 130.106 182.415 135.465C179.395 140.861 169.052 149.014 168.614 149.358L168.455 149.483ZM136.308 118.231L168.483 148.866C169.822 147.798 179.233 140.194 182.007 135.237C184.847 130.163 190.323 119.428 190.933 118.231C190.385 117.21 185.933 109.11 181.1 105.717C175.625 101.873 168.921 99.5667 160.606 98.667C153.912 102.141 138.185 116.506 136.308 118.231Z" fill="#1D5E72"/>
<path d="M149.297 130.777L148.857 130.62C151.471 123.297 155.688 116.416 160.731 111.242L161.066 111.568C156.068 116.694 151.889 123.516 149.297 130.777Z" fill="#1D5E72"/>
<path d="M181.231 105.517C178.505 103.603 175.38 102.014 171.785 100.797C167.723 103.122 163.126 107.035 160.896 111.411C160.882 111.439 160.911 111.469 160.939 111.455C164.917 109.533 171.254 109.775 176.592 109.817C180.439 109.848 182.776 109.066 184.239 108.208C183.278 107.177 182.265 106.243 181.231 105.517Z" fill="#F9C89F"/>
<path d="M160.926 111.697C160.856 111.697 160.787 111.669 160.736 111.617C160.656 111.535 160.637 111.411 160.689 111.31C163.036 106.704 167.9 102.757 171.669 100.599L171.761 100.547L171.86 100.581C175.37 101.768 178.568 103.367 181.366 105.331C182.339 106.014 183.364 106.93 184.411 108.054L184.609 108.267L184.358 108.414C182.457 109.529 179.842 110.081 176.591 110.056C176.16 110.052 175.722 110.048 175.28 110.043C170.297 109.989 164.649 109.928 161.042 111.67C161.005 111.688 160.965 111.697 160.926 111.697ZM171.81 101.057C168.255 103.11 163.749 106.75 161.38 111.007C165.084 109.465 170.489 109.524 175.285 109.576C175.727 109.581 176.164 109.585 176.595 109.589C179.619 109.614 182.06 109.131 183.865 108.156C182.912 107.155 181.982 106.334 181.098 105.713C178.363 103.793 175.239 102.227 171.81 101.057Z" fill="black"/>
<path d="M160.387 104.423C160.2 104.96 160.854 111.498 160.854 111.498C160.854 111.498 167.556 113.833 168.723 114.02C169.891 114.207 172.062 112.059 173.113 112.316C174.164 112.573 179.884 117.149 180.585 117.266C181.224 117.372 184.326 112.958 184.834 108.869C184.638 108.646 184.44 108.427 184.239 108.212C182.776 109.07 180.439 109.852 176.592 109.821C171.254 109.778 164.917 109.537 160.94 111.459C160.912 111.473 160.882 111.442 160.896 111.415C163.126 107.039 167.724 103.126 171.785 100.801C168.647 99.7386 165.15 98.9607 161.242 98.5C161.54 99.8185 162.813 102.874 162.792 103.209C162.769 103.583 160.574 103.886 160.387 104.423Z" fill="#BBE8FF"/>
<path d="M184.239 108.212C183.959 108.375 183.647 108.537 183.3 108.69C183.223 110.474 182.431 112.226 180.821 113.223C180.261 113.596 179.514 113.596 178.86 113.41C177.085 112.662 175.778 111.168 174.003 110.421C171.855 109.58 170.454 111.822 168.399 112.102C165.947 112.465 163.672 111.593 161.316 111.286C161.188 111.342 161.063 111.399 160.939 111.459C160.911 111.473 160.882 111.442 160.896 111.415C161.175 110.867 161.491 110.327 161.839 109.797C161.765 108.551 161.427 106.238 161.954 105.217C162.354 104.445 163.601 104.92 163.823 104.256C164.336 102.715 162.667 99.9905 161.404 98.5201C161.35 98.5136 161.296 98.5064 161.242 98.5C161.539 99.8185 162.813 102.874 162.792 103.209C162.769 103.583 160.574 103.886 160.387 104.423C160.2 104.96 160.854 111.498 160.854 111.498C160.854 111.498 167.556 113.833 168.723 114.02C169.891 114.207 172.062 112.059 173.113 112.316C174.164 112.573 179.884 117.149 180.585 117.266C181.224 117.372 184.326 112.958 184.834 108.869C184.638 108.646 184.44 108.427 184.239 108.212Z" fill="#87D0FD"/>
<path d="M180.61 117.498C180.588 117.498 180.567 117.497 180.547 117.493C180.201 117.436 179.248 116.767 177.157 115.256C175.56 114.102 173.572 112.665 173.057 112.54C172.623 112.433 171.838 112.895 171.079 113.341C170.191 113.862 169.352 114.354 168.686 114.248C167.512 114.06 161.052 111.812 160.777 111.716L160.637 111.667L160.622 111.519C160.512 110.418 159.973 104.901 160.167 104.344C160.295 103.976 160.853 103.768 161.691 103.493C161.989 103.395 162.428 103.251 162.554 103.155C162.513 102.938 162.232 102.165 161.982 101.477C161.604 100.439 161.176 99.2625 161.015 98.5485L160.942 98.2266L161.27 98.2652C165.099 98.7167 168.662 99.4943 171.86 100.577L172.351 100.743L171.901 101C168.332 103.044 163.769 106.71 161.379 111.003C165.084 109.461 170.489 109.52 175.284 109.572C175.726 109.576 176.163 109.581 176.594 109.585C179.765 109.61 182.294 109.079 184.121 108.007L184.283 107.913L184.41 108.049C184.608 108.262 184.81 108.485 185.01 108.712L185.079 108.791L185.066 108.895C184.604 112.607 182.031 116.572 181.022 117.325C180.864 117.442 180.732 117.498 180.61 117.498ZM172.926 112.058C173.01 112.058 173.091 112.067 173.168 112.086C173.73 112.223 175.22 113.281 177.431 114.878C178.708 115.801 180.294 116.947 180.611 117.03C180.828 116.972 181.648 116.135 182.63 114.391C183.235 113.317 184.285 111.193 184.589 108.941C184.457 108.793 184.325 108.646 184.194 108.503C182.307 109.556 179.748 110.077 176.59 110.052C176.159 110.048 175.721 110.043 175.279 110.039C170.495 109.987 165.098 109.928 161.483 111.466C163.108 112.027 167.82 113.636 168.76 113.787C169.262 113.867 170.065 113.395 170.843 112.938C171.61 112.487 172.341 112.058 172.926 112.058ZM160.608 104.496C160.51 104.827 160.733 107.808 161.011 110.704C163.359 106.536 167.691 102.963 171.221 100.857C168.276 99.8999 165.028 99.1988 161.553 98.7696C161.745 99.4626 162.101 100.44 162.42 101.317C162.878 102.575 163.037 103.032 163.025 103.221C163.004 103.553 162.54 103.706 161.836 103.937C161.429 104.071 160.672 104.319 160.608 104.496Z" fill="#1D5E72"/>
<path d="M193.781 211.142C193.688 211.888 191.384 215.407 191.384 215.407C188.462 216.488 183.01 219.14 176.817 222.87C174.149 224.477 171.343 226.284 168.542 228.254C168.114 228.554 167.684 228.859 167.256 229.167C162.736 232.427 158.175 236.091 153.961 239.67C151.075 242.12 148.35 244.532 145.912 246.746C144.258 248.247 142.736 249.659 141.384 250.93C136.938 255.111 131.55 259.95 126.357 264.211C124.24 265.947 122.157 267.589 120.183 269.049C119.042 269.892 117.792 270.752 116.474 271.581C109.906 275.721 101.623 279.166 96.6457 276.521C90.6679 273.346 13.0527 159.491 13.0527 159.491C13.0527 159.491 14.6655 151.966 22.0149 145.427C22.1698 145.287 22.3268 145.15 22.4861 145.013C25.4284 142.496 28.2375 140.719 31.2378 139.013C36.1138 136.24 41.4987 133.655 48.7934 128.385C48.8343 128.356 48.8753 128.325 48.9174 128.295C51.1027 126.712 53.9232 124.618 56.9873 122.313C60.3507 119.784 64.0066 117.001 67.4349 114.363C70.3475 112.12 73.0963 109.983 75.3591 108.195C77.1961 106.745 78.7133 105.525 79.74 104.665C84.8766 100.369 91.2278 100.275 99.3535 103.451C107.48 106.626 113.457 118.613 120.183 123.781C126.907 128.949 141.011 138.381 146.708 145.62C152.405 152.859 158.196 166.963 161.279 171.446C164.361 175.929 178.278 179.759 185.002 187.137C191.727 194.516 193.876 210.394 193.781 211.142Z" fill="#043BFD"/>
<path d="M176.816 222.878C174.148 224.485 171.341 226.293 168.54 228.262C167.281 221.051 164.843 208.986 161.689 202.55C159.938 198.974 155.093 196.194 149.485 192.975C142.352 188.882 133.474 183.788 127.124 174.586C117.52 160.671 115.523 158.954 105.928 150.706C105.032 149.935 104.073 149.111 103.04 148.219C94.8438 141.137 91.1344 136.316 87.5479 131.652C85.6289 129.157 83.8157 126.801 81.3174 124.109C76.5518 118.977 70.4624 115.764 67.4336 114.371C70.3463 112.129 73.095 109.991 75.3578 108.203C79.1389 110.321 83.9171 113.529 87.9896 117.914C90.7758 120.915 92.8041 123.551 94.7652 126.1C98.2265 130.601 101.497 134.852 108.993 141.329C110.019 142.216 110.972 143.036 111.863 143.8C121.702 152.258 124.347 154.531 134.618 169.415C139.797 176.918 147.351 181.253 154.018 185.078C160.636 188.877 166.887 192.463 169.867 198.545C172.965 204.869 175.345 215.195 176.816 222.878Z" fill="#6889FE"/>
<path d="M153.962 239.669C151.076 242.12 148.351 244.532 145.913 246.745C144.374 235.811 141.104 223.139 134.199 215.726C131.987 213.353 128.938 210.898 125.71 208.298C119.98 203.684 113.486 198.454 109.322 191.739C105.006 184.779 95.6922 177.754 88.2085 172.109C86.2053 170.598 84.3136 169.171 82.6871 167.87C78.8913 164.834 75.2103 161.779 71.8993 157.801C68.3412 153.525 65.4833 148.539 62.9063 142.109C61.1558 137.739 58.1634 134.071 54.0135 131.209C51.8157 129.693 49.8397 128.801 48.7949 128.385C48.8359 128.355 48.8769 128.324 48.919 128.295C51.1043 126.712 53.9247 124.617 56.9888 122.312C61.7204 125.109 67.9394 130.19 71.3587 138.722C75.9935 150.287 80.8797 154.763 88.376 160.76C89.9012 161.98 91.7416 163.369 93.6914 164.839C101.781 170.941 111.849 178.534 117.061 186.942C120.406 192.336 126.006 196.845 131.421 201.206C134.91 204.015 138.205 206.669 140.861 209.519C144.805 213.753 148.066 219.523 150.553 226.67C151.917 230.59 153.059 234.943 153.962 239.669Z" fill="#6889FE"/>
<path d="M126.559 261.667C126.497 262.524 126.43 263.373 126.358 264.213C124.241 265.95 122.158 267.592 120.183 269.052C119.043 269.895 117.793 270.755 116.475 271.584C116.845 268.337 117.208 264.69 117.484 260.938C119.06 239.434 116.386 233.706 115.53 232.462C108.075 221.644 93.4731 209.332 74.4162 197.796C55.6916 186.462 48.0668 173.108 41.9398 162.378C40.7436 160.283 39.6133 158.304 38.4558 156.427C34.0464 149.28 26.0062 146.438 22.0156 145.429C22.1705 145.289 22.3275 145.153 22.4868 145.016C25.429 142.499 28.2382 140.722 31.2384 139.016C36.3353 141.294 42.2062 145.162 46.2057 151.646C47.4441 153.655 48.6119 155.699 49.8469 157.863C55.744 168.19 62.4274 179.895 79.1306 190.006C99.559 202.371 114.738 215.266 123.028 227.296C125.202 230.451 126.471 235.478 126.907 242.664C127.222 247.865 127.105 254.259 126.559 261.667Z" fill="#6889FE"/>
<g opacity="0.53">
<path d="M37.4857 139.831C43.5878 136.842 53.4148 128.374 54.7848 128.975C56.1546 129.575 57.907 137.727 59.09 136.793C60.2731 135.859 62.766 123.751 69.2417 117.353C72.9748 113.665 81.2537 106.185 85.9409 101.586C83.6899 102.074 81.6316 103.086 79.7385 104.67C74.6014 108.966 57.1925 122.304 48.9164 128.3C37.0546 136.893 30.2364 138.387 22.4842 145.018C14.732 151.65 13.0508 159.495 13.0508 159.495C13.0508 159.495 13.239 159.772 13.5962 160.295C14.9198 160.945 16.315 161.625 16.315 161.625C17.6848 152.035 31.3835 142.82 37.4857 139.831Z" fill="#6889FE"/>
</g>
<g opacity="0.42">
<path d="M96.6461 276.537C102.624 279.713 113.365 274.109 120.183 269.065C127.001 264.021 135.127 256.83 141.385 250.945C147.643 245.061 157.543 236.188 167.257 229.183C176.97 222.178 187.011 217.041 191.385 215.422C191.385 215.422 193.689 211.904 193.782 211.157C193.876 210.41 191.728 194.532 185.003 187.153C178.278 179.774 164.361 175.945 161.279 171.462C159.948 169.526 158.112 165.797 155.998 161.602C152.432 176.578 132.134 187.253 137.529 187.767C143.597 188.344 161.263 184.583 160.885 189.362C160.507 194.141 152.152 203.448 133.846 213.348C123.959 218.695 108.579 228.643 95.9367 229.143C85.1712 229.569 71.7458 217.746 64.4493 209.979C46.01 190.351 75.0498 164.042 78.5839 160.795C81.4629 158.15 87.5965 150.744 91.4198 146.474C94.8978 138.549 75.097 160.671 52.8676 167.022C40.142 170.658 20.2886 166.612 13.477 158.057C13.431 158.193 13.3892 158.321 13.3516 158.439C13.383 158.83 13.4298 159.406 13.4915 160.15C19.7448 169.312 90.9316 273.501 96.6461 276.537Z" fill="#032CBE"/>
</g>
<path d="M100.802 277.691C99.1659 277.691 97.7412 277.372 96.5357 276.731C90.5757 273.565 16.0296 164.277 12.8591 159.626L12.8027 159.544L12.8237 159.446C12.8412 159.364 13.2662 157.424 14.6527 154.639C15.9299 152.074 18.2994 148.291 22.3337 144.84C26.3529 141.402 30.1059 139.347 34.4514 136.968C38.483 134.761 43.0527 132.259 48.7807 128.11C57.2065 122.006 74.4827 108.761 79.59 104.489C84.5988 100.3 90.906 99.9023 99.4388 103.237C104.346 105.155 108.443 110.204 112.405 115.087C115.095 118.402 117.635 121.533 120.324 123.599C121.818 124.747 123.718 126.136 125.729 127.607C132.782 132.763 142.441 139.825 146.891 145.479C150.392 149.928 153.966 157.033 156.838 162.742C158.687 166.417 160.284 169.591 161.471 171.318C162.863 173.343 166.556 175.25 170.831 177.459C175.847 180.05 181.532 182.987 185.174 186.984C188.724 190.878 190.94 197.064 192.174 201.568C193.498 206.401 194.073 210.695 194.013 211.174C193.916 211.952 191.818 215.173 191.58 215.538L191.537 215.602L191.465 215.629C187.469 217.108 177.399 222.144 167.392 229.361C157.729 236.33 148.002 245.031 141.544 251.104C137.889 254.54 128.505 263.187 120.321 269.241C118.009 270.951 113.357 274.115 108.182 276.089C105.383 277.157 102.916 277.691 100.802 277.691ZM13.3029 159.448C15.8035 163.114 90.9641 273.242 96.7548 276.319C102.431 279.334 112.847 274.188 120.043 268.865C128.207 262.826 137.575 254.194 141.224 250.763C147.692 244.681 157.435 235.966 167.119 228.982C177.104 221.781 187.163 216.739 191.231 215.218C192.112 213.867 193.487 211.613 193.55 211.116C193.587 210.786 193.083 206.65 191.719 201.676C190.499 197.227 188.313 191.121 184.829 187.298C181.243 183.363 175.597 180.447 170.617 177.874C166.285 175.636 162.544 173.704 161.086 171.582C159.88 169.829 158.277 166.642 156.421 162.951C153.558 157.261 149.996 150.179 146.524 145.768C142.114 140.164 132.485 133.124 125.454 127.984C123.44 126.511 121.538 125.121 120.04 123.97C117.307 121.869 114.75 118.718 112.042 115.381C108.119 110.545 104.061 105.545 99.2687 103.672C90.9116 100.406 84.7538 100.779 79.8896 104.848C74.7767 109.124 57.4861 122.38 49.0547 128.488C43.3027 132.655 38.7193 135.164 34.6756 137.378C30.3529 139.744 26.6197 141.788 22.6372 145.195C15.4901 151.309 13.527 158.537 13.3029 159.448Z" fill="#021E7F"/>
<path d="M57.8672 176.569C71.1231 169.657 80.1606 159.16 88.9005 149.009C95.6735 141.142 101.699 135.567 107.844 131.548C110.71 129.637 113.188 128.977 113.188 128.977C105.236 133.052 97.8549 139.324 89.2544 149.313C82.3246 157.363 75.2084 165.628 65.9462 172.173C60.7568 175.605 57.8672 176.569 57.8672 176.569Z" fill="#021E7F"/>
<path d="M84.9883 191.119C85.1215 191.074 98.362 186.612 102.582 183.677C106.776 180.76 110.527 176.501 112.876 171.992C112.876 171.992 112.525 173.848 110.374 176.782C108.243 179.586 105.642 182.117 102.849 184.06C100.405 185.76 95.1464 187.908 90.9873 189.47C87.8703 190.641 84.9883 191.119 84.9883 191.119Z" fill="#021E7F"/>
<path d="M158.377 206.895C158.56 206.783 176.826 195.59 187.753 186.461L188.053 186.819C181.834 192.015 173.25 197.873 166.956 201.989C162.164 205.122 158.377 206.895 158.377 206.895Z" fill="#021E7F"/>
<path d="M79.7402 104.665C82.3555 100.182 90.0143 93.4568 93.5635 91.1218C97.1127 88.7868 99.8213 86.265 104.398 86.6386C108.975 87.0122 112.57 90.9447 116.4 95.6332C120.229 100.322 121.117 102.648 127.468 106.505C133.819 110.362 158.881 128.482 164.423 135.144C169.965 141.807 173.888 149.653 179.118 155.132C184.349 160.611 195.494 165.717 199.915 170.014C204.336 174.31 207.014 179.167 209.255 186.639C211.497 194.111 212.742 201.458 211.435 204.634C210.127 207.81 204.845 210.759 201.861 211.888C198.725 213.075 191.821 215.718 191.385 215.406C190.949 215.095 189.112 209.6 186.964 202.782C184.816 195.963 181.687 191.901 178.604 188.725C175.522 185.549 165.98 179.291 162.431 177.237C158.881 175.182 154.959 170.387 151.97 163.6C148.981 156.813 143.813 147.473 137.213 141.62C130.612 135.767 123.265 130.762 118.097 126.384C112.929 122.006 109.068 116.713 105.924 113.538C102.779 110.362 99.5413 106.066 93.0033 103.45C86.465 100.835 79.7402 104.665 79.7402 104.665Z" fill="#9BC5FE"/>
<path d="M127.413 113.181C126.231 128.262 140.898 127.909 148.59 134.609C150.823 136.594 153.605 140.916 156.335 142.901C160.305 145.879 164.648 147.569 169.114 146.329C169.988 146.023 170.916 145.779 171.87 145.56C169.547 142.088 167.186 138.47 164.421 135.146C159.104 128.754 135.82 111.817 128.331 107.047C128.179 109.941 127.62 110.546 127.413 113.181Z" fill="#7CAEE5"/>
<path d="M102.992 89.5772C106.269 88.851 109.663 90.376 112.932 91.6399C110.289 88.8803 107.581 86.8984 104.398 86.6386C99.8214 86.265 97.1128 88.7868 93.5635 91.1218C90.0143 93.4568 82.3555 100.182 79.7402 104.665C79.7402 104.665 82.2099 103.259 85.6107 102.733C89.2313 97.4228 97.2325 90.8536 102.992 89.5772Z" fill="#C3DCFE"/>
<path d="M162.428 177.24C165.977 179.295 175.52 185.553 178.602 188.728C181.684 191.904 184.813 195.967 186.961 202.785C189.109 209.603 190.946 215.098 191.382 215.41C191.818 215.721 198.722 213.078 201.859 211.892C204.843 210.762 210.125 207.813 211.432 204.637C212.74 201.462 211.494 194.114 209.253 186.642C207.011 179.17 204.334 174.313 199.913 170.017C195.492 165.721 184.346 160.615 179.116 155.135C178.676 154.674 178.245 154.195 177.822 153.703C177.822 153.703 177.821 153.703 177.821 153.703C181.668 159.158 182.19 169.804 176.62 171.995C168.401 175.228 156.867 167.593 153.085 160.098C149.404 152.8 146.153 149.108 140.004 144.391C145.271 150.149 149.414 157.807 151.967 163.604C154.956 170.391 158.879 175.185 162.428 177.24Z" fill="#7CAEE5"/>
<path d="M191.51 215.662C191.382 215.662 191.301 215.64 191.249 215.603C191.059 215.467 190.614 215.149 186.741 202.858C184.518 195.802 181.296 191.839 178.437 188.894C175.346 185.71 165.735 179.426 162.314 177.445C158.471 175.22 154.623 170.211 151.756 163.701C149.83 159.327 144.543 148.439 137.058 141.801C133.249 138.424 129.102 135.261 125.442 132.47C122.711 130.387 120.131 128.42 117.946 126.569C114.562 123.702 111.773 120.487 109.313 117.651C108.044 116.189 106.846 114.807 105.758 113.708C105.239 113.184 104.725 112.638 104.18 112.059C101.439 109.144 98.3314 105.84 92.9165 103.674C89.6021 102.348 86.233 102.742 83.9906 103.306C81.5482 103.921 79.8725 104.865 79.8559 104.874L79.1016 105.303L79.5387 104.553C82.2815 99.8515 90.1575 93.0893 93.4353 90.9329C93.9832 90.5724 94.5158 90.2043 95.0307 89.8482C97.8262 87.9153 100.467 86.0904 104.417 86.4121C106.562 86.5871 108.659 87.5463 110.828 89.3442C112.707 90.9017 114.487 92.9282 116.581 95.4917C117.382 96.4732 118.069 97.3695 118.675 98.1601C121.039 101.245 122.601 103.283 127.589 106.312C133.907 110.148 158.978 128.239 164.603 135.001C167.131 138.041 169.327 141.331 171.45 144.512C174.021 148.365 176.45 152.005 179.287 154.977C182.12 157.945 186.65 160.771 191.031 163.503C194.641 165.755 198.051 167.882 200.078 169.853C204.473 174.123 207.196 178.969 209.479 186.578C210.702 190.653 213.36 200.578 211.651 204.729C210.323 207.954 205.118 210.912 201.944 212.113L201.417 212.312C194.442 214.955 192.231 215.662 191.51 215.662ZM191.507 215.206C192.298 215.269 198.788 212.809 201.252 211.876L201.779 211.676C204.758 210.549 209.957 207.617 211.219 204.552C212.365 201.768 211.548 195.099 209.032 186.713C206.774 179.186 204.086 174.399 199.753 170.188C197.761 168.253 194.372 166.138 190.784 163.9C186.378 161.152 181.823 158.31 178.949 155.3C176.084 152.298 173.644 148.642 171.062 144.772C168.945 141.6 166.756 138.321 164.244 135.3C158.646 128.57 133.648 110.538 127.347 106.711C122.284 103.637 120.701 101.571 118.305 98.4444C117.671 97.6179 117.016 96.7632 116.219 95.7873C112.416 91.1312 108.9 87.2469 104.379 86.8778C100.595 86.5684 98.1396 88.2666 95.2964 90.2326C94.7793 90.5902 94.2444 90.96 93.6921 91.3234C90.0848 93.6967 83.2316 99.7867 80.3805 104.087C81.1113 103.747 82.3308 103.244 83.8629 102.857C86.1761 102.273 89.6545 101.866 93.09 103.24C98.6008 105.445 101.746 108.789 104.521 111.739C105.063 112.316 105.575 112.86 106.09 113.38C107.189 114.49 108.392 115.877 109.666 117.346C112.115 120.169 114.891 123.369 118.248 126.213C120.424 128.056 122.999 130.02 125.725 132.099C129.391 134.895 133.546 138.063 137.368 141.452C144.922 148.151 150.245 159.111 152.184 163.513C154.97 169.84 158.844 174.897 162.548 177.041C165.985 179.032 175.652 185.354 178.772 188.569C181.669 191.553 184.934 195.569 187.186 202.718C190.373 212.83 191.264 214.909 191.507 215.206Z" fill="#3E5773"/>
<path d="M146.909 99.5733C144.528 100.272 136.153 103.683 132.617 105.641L130.549 108.633L139.511 115.01C144.99 110.11 155.422 101.058 160.561 98.4213C157.356 97.9499 153.167 97.7363 146.909 99.5733Z" fill="#87D0FD"/>
<path d="M146.909 99.5732C144.651 100.236 137.001 103.338 133.201 105.327C136.615 104.68 143.014 101.869 148.508 100.545C153.385 99.369 156.416 99.2429 158.513 99.6218C159.259 99.1427 159.948 98.736 160.561 98.4214C157.356 97.9499 153.167 97.7363 146.909 99.5732Z" fill="#BBE8FF"/>
<path d="M139.528 115.311L130.227 108.693L132.457 105.466L132.505 105.44C136.012 103.498 144.354 100.084 146.844 99.3524C153.245 97.4739 157.556 97.7463 160.596 98.1936L161.317 98.2996L160.669 98.6324C155.589 101.238 145.33 110.123 139.667 115.187L139.528 115.311ZM130.873 108.58L139.495 114.715C144.974 109.819 154.566 101.522 159.822 98.5584C156.744 98.1656 152.797 98.0918 146.976 99.8005C144.514 100.523 136.291 103.888 132.778 105.822L130.873 108.58Z" fill="#1D5E72"/>
<path d="M221.055 89.1293C220.526 89.9233 219.374 91.0441 218.782 92.7564C218.191 94.4688 215.731 101.91 209.131 106.144C202.531 110.378 191.071 111.25 180.364 106.331C168.844 101.038 163.597 92.0858 161.092 85.4401C158.734 79.1823 159.037 72.7844 159.364 70.0524C159.691 67.3204 172.394 45.5581 172.394 45.5581C190.14 39.0201 214.61 40.3277 225.071 53.4038C235.532 66.4798 221.055 89.1293 221.055 89.1293Z" fill="#F9C89F"/>
<path d="M180.367 106.338C191.074 111.258 202.534 110.386 209.135 106.151C215.735 101.917 218.194 94.4765 218.786 92.7641C219.377 91.0518 220.529 89.9309 221.059 89.1371C221.059 89.1371 235.536 66.4876 225.075 53.4115C214.614 40.3355 190.143 39.0279 172.397 45.5659C172.397 45.5659 170.563 48.7074 168.272 52.7529L169.155 53.0811C169.155 53.0811 170.287 59.6182 170.375 59.8988C170.462 60.1795 168.018 68.1111 167.699 72.6447C170.182 69.0524 174.665 61.9816 177.716 61.1583C180.767 60.3351 188.473 57.6362 189.757 54.9178C194.777 57.5331 199.136 66.5928 198.762 70.3755C201.689 67.4957 203.868 65.0673 205.051 62.1408C204.786 66.7964 206.845 71.5849 206.845 71.5849C207.529 68.5945 210.638 64.8805 212.919 64.0087C212.71 66.0012 209.278 68.3461 209.278 68.3461C211.527 69.5504 215.855 67.9315 218.19 66.8107C221.459 69.6127 221.21 73.43 221.054 76.3998C220.898 79.3695 217.618 82.5953 215.406 81.0002C213.52 85.1171 211.748 88.1674 211.748 88.1674C214.036 89.7271 214.08 97.4543 207.262 102.105C199.788 107.204 188.924 107.097 182.467 104.748C177.066 102.782 172.029 100.798 165.953 94.5833C169.103 98.9569 173.678 103.265 180.367 106.338Z" fill="#ECA77F"/>
<path d="M195.41 109.916C190.299 109.916 185.082 108.757 180.266 106.544C175.063 104.153 170.656 100.788 167.167 96.5424C164.543 93.3484 162.426 89.6412 160.874 85.5239C158.342 78.8043 158.901 71.9628 159.133 70.0262C159.461 67.2777 171.672 46.3323 172.192 45.442L172.234 45.3696L172.313 45.3407C190.007 38.8218 214.647 40.0014 225.254 53.2596C227.672 56.2826 228.963 60.0636 229.091 64.4973C229.192 68.0291 228.559 71.9806 227.209 76.2422C224.914 83.4846 221.288 89.1999 221.252 89.2567L221.25 89.2605C221.106 89.4766 220.924 89.7065 220.715 89.9729C220.141 90.7016 219.427 91.6086 219.003 92.8342L218.967 92.9407C218.632 93.9139 217.847 96.1928 216.322 98.7774C214.411 102.015 212.034 104.56 209.257 106.342C205.88 108.508 201.276 109.774 196.294 109.905C196 109.912 195.705 109.916 195.41 109.916ZM172.553 45.7497C171.747 47.1348 159.904 67.5058 159.596 70.0814C159.368 71.9917 158.816 78.7387 161.311 85.3591C164.929 94.9585 171.372 101.943 180.461 106.12C191.843 111.349 202.999 109.802 209.005 105.949C213.254 103.223 216.457 98.7952 218.525 92.7884L218.562 92.6814C219.011 91.3813 219.784 90.4001 220.348 89.6837C220.551 89.4261 220.726 89.2033 220.86 89.0032C220.938 88.8792 224.505 83.2335 226.767 76.0915C228.856 69.4912 230.227 60.2228 224.889 53.5509C220.096 47.5592 211.767 43.5844 201.437 42.3589C192.004 41.2397 181.482 42.4756 172.553 45.7497Z" fill="#87402C"/>
<path d="M212.745 70.0301C213.221 68.6011 216.716 68.1087 219.439 70.933C221.929 73.5171 222.303 76.2568 222.552 77.5644C220.933 75.0115 219.439 74.3576 217.648 73.5793C215.858 72.8011 212.153 71.8047 212.745 70.0301Z" fill="#374049"/>
<path d="M212.745 70.0327C212.931 69.4759 213.574 69.0613 214.452 68.9297C212.918 70.8464 216.027 71.4749 218.142 72.5977C220.78 73.9987 221.824 75.4235 222.552 77.567C220.933 75.0141 219.439 74.3602 217.648 73.5819C215.858 72.8036 212.153 71.8073 212.745 70.0327Z" fill="#2A333A"/>
<path d="M223.008 78.7268L222.352 77.6928C220.768 75.1947 219.349 74.5778 217.553 73.7968C217.243 73.6621 216.87 73.5189 216.475 73.3673C214.465 72.5953 211.963 71.6344 212.521 69.9597C212.714 69.3809 213.303 68.9404 214.139 68.7513C215.47 68.4497 217.7 68.799 219.604 70.7743C221.992 73.2518 222.473 75.8665 222.732 77.2712C222.748 77.3606 222.763 77.445 222.779 77.5241L223.008 78.7268ZM212.964 70.1074C212.547 71.3585 214.914 72.2676 216.643 72.9314C217.042 73.0849 217.42 73.2299 217.739 73.3686C219.303 74.0485 220.681 74.6478 222.108 76.5213C221.797 75.099 221.148 73.0486 219.268 71.0983C217.499 69.2629 215.455 68.9323 214.242 69.2066C213.58 69.3567 213.102 69.6934 212.964 70.1074Z" fill="#111519"/>
<path d="M195.993 62.2731C197.162 61.0204 194.997 57.8805 191.292 57.0568C187.587 56.2332 184.349 58.4125 183.197 59.5022C186.248 58.9419 189.175 59.7202 191.199 61.0901C193.222 62.4599 194.686 63.6741 195.993 62.2731Z" fill="#374049"/>
<path d="M195.993 62.2838C196.413 61.8339 196.403 61.1407 196.046 60.3986C195.142 62.8436 192.813 60.0387 190.291 59.198C186.69 57.9978 184.5 58.6688 183.197 59.5129C186.248 58.9525 189.175 59.7308 191.199 61.1007C193.222 62.4706 194.685 63.6848 195.993 62.2838Z" fill="#2A333A"/>
<path d="M194.715 63.1306C193.755 63.1306 192.71 62.4135 191.563 61.6261C191.402 61.5154 191.237 61.4022 191.068 61.2879C188.893 59.8156 185.967 59.2355 183.24 59.7364L182.465 59.8788L183.037 59.3372C184.42 58.029 187.726 56.0292 191.343 56.8335C194.08 57.4418 195.976 59.2594 196.435 60.7405C196.646 61.4214 196.55 62.0239 196.165 62.4369C195.703 62.931 195.221 63.1306 194.715 63.1306ZM185.193 59.0933C187.4 59.0933 189.593 59.7251 191.33 60.9011C191.5 61.016 191.665 61.1298 191.828 61.241C193.756 62.5646 194.809 63.2044 195.823 62.1183C196.164 61.7526 196.102 61.2423 195.989 60.8786C195.58 59.5593 193.777 57.8529 191.242 57.2892C188.266 56.6277 185.505 57.977 183.968 59.1588C184.375 59.1149 184.784 59.0933 185.193 59.0933Z" fill="#111519"/>
<path d="M211.744 88.1677C210.68 88.1677 209.504 87.9624 208.298 87.3865C205.942 86.262 204.774 84.597 204.21 83.3982C203.597 82.0948 204.008 81.0004 204.008 81.0004C210.012 73.2862 218.792 76.9915 216.069 86.5136C216.069 86.5136 215.144 87.6649 213.408 88.0037C212.898 88.1033 212.339 88.1677 211.744 88.1677Z" fill="#ECA77F"/>
<path d="M216.307 80.9771C215.375 77.525 212.173 76.0248 208.762 77.2858C210.227 76.9906 211.93 77.0534 213.282 77.691C215.258 78.6225 216.272 80.9611 216.307 80.9771Z" fill="#87402C"/>
<path d="M211.744 88.1516C210.68 88.1516 209.504 87.9463 208.298 87.3704C205.942 86.2459 204.774 84.581 204.21 83.3822C203.597 82.0787 204.008 80.9844 204.008 80.9844C204.01 81.0235 204.245 84.9187 208.499 86.9489C212.444 88.8321 216.033 86.5212 216.069 86.4976C216.069 86.4976 215.144 87.6488 213.408 87.9877C212.898 88.0873 212.339 88.1516 211.744 88.1516Z" fill="black"/>
<path d="M189.799 75.7884C188.161 75.7884 186.029 75.5058 183.981 74.3933C182.609 73.6481 181.67 72.7876 181.029 71.9871C179.899 70.5767 180.143 69.2019 180.143 69.2019C186.328 60.8906 195.568 65.8098 192.535 75.0358C192.535 75.0358 191.42 75.7884 189.799 75.7884Z" fill="#ECA77F"/>
<path d="M184.854 65.4025C186.328 65.0653 188.204 65.1893 189.466 65.8417C190.89 66.5774 191.754 67.2719 192.898 69.5906C191.987 65.8956 188.505 64.0334 184.854 65.4025Z" fill="#87402C"/>
<path d="M189.799 75.7896C188.161 75.7896 186.029 75.5071 183.981 74.3945C182.609 73.6493 181.67 72.7888 181.029 71.9884C179.899 70.5779 180.143 69.2031 180.143 69.2031C180.148 69.2313 180.631 72.0427 184.204 73.9842C188.118 76.111 192.491 75.0481 192.535 75.037C192.535 75.037 191.42 75.7896 189.799 75.7896Z" fill="black"/>
<path d="M195.872 85.4922C197.028 86.7321 197.542 88.2148 196.819 89.6853C195.498 92.3695 191.986 92.3746 189.59 90.6735C188.646 90.0034 188.095 88.992 187.699 87.852C189.116 89.8452 192.394 90.5872 194.417 89.6817C195.717 89.0996 196.612 87.9197 195.872 85.4922Z" fill="#ECA77F"/>
<path d="M193.15 92.0815C193.033 92.0815 192.915 92.0778 192.794 92.0704C191.302 91.9786 189.884 91.3383 188.821 90.3559C187.597 89.0226 187.697 87.8545 187.697 87.8545C188.415 89.9208 190.523 91.4628 192.823 91.6043C194.544 91.7104 195.924 90.9742 196.607 89.5846C197.011 88.7648 197.021 87.9062 196.637 87.0329C195.903 85.3604 193.785 83.7958 191.24 83.0469C191.24 83.0469 192.936 83.0469 195.028 84.4227C195.968 85.1443 196.685 85.98 197.065 86.8452C197.5 87.8364 197.487 88.855 197.026 89.7909C196.304 91.2594 194.903 92.0815 193.15 92.0815Z" fill="#87402C"/>
<path d="M179.493 88.75C181.198 92.1357 186.031 96.5489 193.55 98.6504C190.888 98.2301 189.23 98.5336 187.409 99.1875C185.587 99.8414 183.486 99.5274 181.875 97.8799C178.925 94.8634 179.493 88.75 179.493 88.75Z" fill="#A40000"/>
<path d="M184.242 94.1783C183.104 93.3027 181.227 93.4942 179.996 94.368C180.354 95.6573 180.936 96.9297 181.874 97.8889C182.564 98.5948 183.345 99.0551 184.155 99.3002C185.107 97.5878 185.881 95.4269 184.242 94.1783Z" fill="#6A0000"/>
<path d="M184.517 96.5042C183.178 95.7451 181.677 95.7747 180.859 96.4991C181.14 97.0001 181.476 97.4673 181.877 97.8772C183.204 99.2344 184.864 99.6859 186.426 99.4375C186.506 98.4069 185.773 97.2162 184.517 96.5042Z" fill="#FDA4B8"/>
<path d="M183.45 96.0774C182.441 95.816 181.463 95.9707 180.859 96.506C181.14 97.007 181.476 97.4742 181.877 97.8841C182.558 98.5804 183.326 99.0378 184.124 99.2851C182.155 97.8861 181.886 96.5026 183.45 96.0774Z" fill="#E97983"/>
<path d="M185.596 99.7443C184.151 99.7443 182.795 99.158 181.709 98.0474C181.314 97.6442 180.96 97.1641 180.655 96.6203L180.562 96.4561L180.703 96.3313C181.615 95.5234 183.23 95.5137 184.631 96.308C185.933 97.046 186.747 98.3137 186.658 99.4626L186.643 99.6461L186.462 99.6751C186.17 99.7214 185.881 99.7443 185.596 99.7443ZM181.161 96.5635C181.423 97.0011 181.719 97.3897 182.042 97.7209C183.187 98.8913 184.657 99.4268 186.197 99.2406C186.175 98.3184 185.475 97.3235 184.4 96.7143C183.246 96.0599 181.948 96.0076 181.161 96.5635Z" fill="#BC4D5B"/>
<path d="M185.612 99.7434C184.176 99.7434 182.795 99.159 181.707 98.0465C178.716 94.988 179.236 88.9858 179.26 88.7318L179.335 87.9219L179.701 88.6484C181.294 91.8116 185.892 96.2713 193.612 98.4289L195.568 98.8215L193.513 98.8844C190.876 98.468 189.252 98.7771 187.487 99.4106C186.865 99.6341 186.233 99.7434 185.612 99.7434ZM179.688 89.5846C179.655 91.3275 179.829 95.4582 182.041 97.7201C183.468 99.1798 185.445 99.6476 187.329 98.9712C188.629 98.5047 189.856 98.2066 191.431 98.2273C185.324 96.0527 181.429 92.4483 179.688 89.5846Z" fill="#87402C"/>
<path d="M181.369 101.16C179.992 100.354 180.079 99.1094 180.079 99.1094C180.729 100.496 182.539 101.55 184.582 101.731C184.582 101.731 182.895 102.054 181.369 101.16Z" fill="#87402C"/>
<path d="M168.472 58.3467C169.157 61.2421 167.165 65.7253 167.819 71.6096C169.36 67.3598 171.508 61.0086 176.552 58.627C181.502 59.1407 187.993 54.891 189.814 49.5672C191.215 52.9296 194.578 55.6382 196.586 58.6737C198.594 61.7091 199.668 66.5193 199.388 68.901C201.956 65.3751 202.96 62.5264 204.058 59.234C204.058 64.2777 205.319 68.7141 206.673 70.8623C207 67.2664 211.935 60.5416 213.118 56.3853C213.678 61.7559 211.343 66.239 209.849 68.0136C213.445 67.4999 219.749 62.83 221.244 59.9345C220.73 64.6513 224.606 70.5822 224.419 76.1862C224.232 81.7902 222.611 85.9465 221.057 89.122C226.817 83.2846 234.788 75.6279 238.211 67.2197C241.761 58.5024 241.605 44.7103 234.974 41.4413C239.893 41.0677 243.348 37.643 243.348 37.643C240.048 38.4213 235.16 36.6156 232.607 35.1523C229.322 33.2692 220.403 26.4038 213.491 25.283C206.58 24.1622 200.291 26.2169 196.088 31.1049C193.971 28.1784 190.165 25.9134 185.627 25.7188C182.385 25.5798 176.287 27.0576 171.586 26.4038C175.197 28.6765 178.217 29.6728 180.303 30.2644C176.256 30.3889 171.119 32.7862 167.196 36.4911C163.273 40.1959 162.744 41.4413 160.253 44.2433C157.763 47.0453 154.058 49.2557 152.812 49.5671C155.957 50.2831 160.534 49.3492 162.277 48.2595C160.845 50.7191 160.378 56.0117 160.378 56.0117L168.472 58.3467Z" fill="#374049"/>
<path d="M162.005 44.3643C166.226 39.5075 168.803 36.363 173.998 33.6544C179.193 30.9458 185.217 31.5548 186.712 32.0209C185.03 30.2453 178.632 28.0037 177.698 27.957C180.173 27.7701 183.583 27.023 186.945 27.6301C190.307 28.2372 195.157 30.9675 197.075 33.0582C198.433 30.0471 204.123 27.4659 208.349 27.023C215.479 26.2758 219.576 29.2241 222.005 30.6185C224.433 32.0129 229.32 35.1115 233.505 36.9234C236.912 38.3985 240.674 38.9582 243.281 37.7226C243.324 37.6824 243.348 37.6586 243.348 37.6586C240.048 38.437 235.16 36.6312 232.607 35.1679C229.321 33.2848 220.403 26.4194 213.491 25.2986C206.579 24.1778 200.29 26.2326 196.087 31.1205C193.97 28.194 190.164 25.929 185.627 25.7345C182.384 25.5955 176.287 27.0732 171.585 26.4194C175.197 28.6921 178.217 29.6884 180.303 30.28C176.255 30.4045 171.118 32.8018 167.196 36.5067C163.273 40.2116 162.743 41.4569 160.253 44.2589C157.861 46.9499 154.35 49.0942 152.973 49.5358L153.682 49.5009C153.682 49.5009 157.734 49.2788 162.005 44.3643Z" fill="#6A7884"/>
<path d="M176.549 58.6272C181.5 59.141 187.991 54.8913 189.812 49.5675C191.213 52.9299 194.576 55.6385 196.584 58.674C198.592 61.7094 199.666 66.5196 199.386 68.9013C201.954 65.3754 202.958 62.5267 204.056 59.2343C204.056 64.2779 205.317 68.7144 206.671 70.8626C206.998 67.2667 211.933 60.5419 213.116 56.3856C213.676 61.7561 211.341 66.2393 209.847 68.0139C213.443 67.5002 219.747 62.8302 221.242 59.9348C220.728 64.6516 224.604 70.5824 224.417 76.1864C224.23 81.7904 222.609 85.9468 221.055 89.1223C226.814 83.2849 234.786 75.6281 238.209 67.22C241.712 58.6169 241.606 45.0721 235.228 41.5765C234.849 41.4469 234.471 41.3427 234.102 41.2734C237.316 44.0198 237.893 50.9182 237.333 56.6062C236.772 62.2942 233.036 73.3342 227.899 75.6918C228.927 70.4839 227.036 65.8416 226.919 62.6615C226.779 58.8599 225.782 51.3541 222.976 47.181C223.282 52.846 219.12 60.4918 215.351 61.8226C216.485 58.2033 215.29 47.1355 211.86 45.6755C212.819 47.7181 212.628 51.7122 211.554 54.5283C210.48 57.3444 208.052 60.0715 207.211 62.2664C206.698 60.7253 206.838 57.3629 206.978 54.0471C207.118 50.7314 206.464 45.7812 204.643 42.8392C205.437 48.7233 202.775 58.2969 200.86 60.0351C200.673 57.8037 197.825 54.2807 195.443 51.8523C193.061 49.4239 189.839 45.5478 189.503 42.4189C188.094 44.1001 186.476 50.2646 182.88 53.1133C179.285 55.962 173.914 57.1995 171.422 57.1702C171.895 57.3977 173.61 58.0151 173.61 58.0151C173.61 58.0151 168.834 63.3002 167.809 71.5275C167.812 71.5551 167.814 71.5822 167.817 71.6099C169.358 67.3601 171.506 61.0089 176.549 58.6272Z" fill="#2A333A"/>
<path d="M220.219 90.3058L220.848 89.0208C222.303 86.0494 223.996 81.9045 224.187 76.1797C224.279 73.4337 223.376 70.5933 222.503 67.8465C221.714 65.3653 220.963 63.0044 220.964 60.8316C220.048 62.1199 218.437 63.6425 216.472 65.0581C214.036 66.813 211.573 68.0048 209.883 68.2462L209.277 68.3328L209.672 67.8647C210.93 66.3703 213.101 62.4203 212.964 57.5698C212.315 59.2477 211.259 61.206 210.231 63.1117C208.683 65.9801 207.083 68.9463 206.907 70.885L206.845 71.5716L206.477 70.9883C205.271 69.0757 204.056 65.1995 203.855 60.5676C202.831 63.5274 201.772 66.0286 199.578 69.04L199.053 69.7603L199.157 68.8752C199.436 66.5093 198.369 61.7913 196.393 58.8041C195.612 57.6241 194.598 56.4638 193.617 55.3417C192.199 53.7187 190.737 52.0452 189.836 50.1816C188.874 52.5495 186.953 54.8206 184.488 56.4814C181.892 58.2308 179.019 59.0982 176.595 58.8674C171.85 61.1467 169.741 66.9834 168.199 71.25L167.698 72.6315L167.588 71.637C167.232 68.431 167.661 65.5878 168.006 63.3032C168.289 61.4305 168.534 59.8046 168.276 58.5343L160.13 56.1845L160.146 55.9929C160.164 55.7929 160.56 51.4434 161.737 48.813C159.559 49.8127 155.542 50.4297 152.762 49.7966L151.809 49.5795L152.757 49.3423C153.96 49.0415 157.654 46.8189 160.08 44.0899C160.908 43.1587 161.519 42.3984 162.111 41.6631C163.294 40.1917 164.412 38.8019 167.037 36.323C170.566 32.9902 175.148 30.6544 179.054 30.1361C177.007 29.489 174.441 28.4771 171.463 26.6031L170.544 26.0246L171.619 26.1742C174.432 26.5654 177.75 26.1856 180.678 25.8504C182.642 25.6256 184.337 25.4314 185.638 25.4872C189.846 25.6677 193.735 27.6232 196.104 30.7347C198.183 28.3924 200.737 26.7064 203.702 25.7208C206.734 24.7127 210.041 24.4884 213.53 25.0542C218.95 25.9331 225.47 30.2313 229.784 33.0755C230.972 33.8587 231.999 34.5352 232.725 34.9514C235.189 36.3637 240.038 38.1858 243.296 37.4174L244.103 37.2271L243.514 37.8105C243.378 37.9456 240.276 40.9721 235.726 41.5975C238.463 43.334 240.199 47.084 240.644 52.269C241.07 57.2341 240.242 62.8568 238.429 67.3094C235.233 75.1594 228.168 82.2836 222.491 88.008C222.059 88.4436 221.636 88.8703 221.224 89.2877L220.219 90.3058ZM221.613 58.7138L221.477 59.9612C221.224 62.2838 222.061 64.9171 222.948 67.7051C223.833 70.4896 224.748 73.3689 224.654 76.1953C224.485 81.2531 223.163 85.0928 221.851 87.99C221.953 87.8869 222.056 87.7832 222.16 87.6789C227.807 81.984 234.835 74.8966 237.996 67.133C239.783 62.7455 240.598 57.2037 240.179 52.3087C239.714 46.8949 237.83 43.1104 234.871 41.6521L234.105 41.2745L234.957 41.2099C238.555 40.9366 241.381 38.9777 242.572 38.0128C239.24 38.379 234.821 36.6911 232.492 35.3564C231.753 34.9329 230.722 34.2528 229.527 33.4652C225.246 30.6429 218.776 26.378 213.455 25.515C206.623 24.4072 200.357 26.5005 196.266 31.2587L196.073 31.483L195.9 31.2433C193.633 28.11 189.789 26.1325 185.618 25.9537C184.354 25.8993 182.594 26.101 180.731 26.3142C178.127 26.6123 175.216 26.9454 172.597 26.7471C175.74 28.5976 178.379 29.477 180.368 30.0411L181.82 30.4528L180.312 30.4992C176.275 30.6234 171.19 33.0426 167.357 36.6622C164.756 39.1192 163.648 40.4969 162.474 41.9556C161.879 42.6952 161.264 43.46 160.429 44.3999C158.275 46.8229 155.315 48.7359 153.683 49.4866C156.785 49.8997 160.701 48.971 162.154 48.0629L162.955 47.5626L162.48 48.3784C161.242 50.504 160.731 54.877 160.63 55.8426L168.669 58.1616L168.701 58.2944C169.026 59.6712 168.767 61.3865 168.468 63.3726C168.15 65.4789 167.794 67.8348 167.961 70.5344C169.521 66.2363 171.702 60.6609 176.453 58.4172L176.512 58.3894L176.577 58.3961C181.528 58.9106 187.853 54.5831 189.595 49.493L189.794 48.91L190.031 49.4788C190.867 51.4845 192.444 53.2892 193.969 55.0344C194.96 56.168 195.984 57.3403 196.782 58.5463C198.606 61.3036 199.675 65.5073 199.666 68.1082C201.792 65.0287 202.749 62.4271 203.837 59.1617L204.292 57.7966V59.2355C204.292 63.9216 205.377 67.9597 206.546 70.1721C206.966 68.179 208.414 65.4947 209.819 62.89C211.074 60.564 212.372 58.1588 212.894 56.3229L213.225 55.1592L213.351 56.3626C213.879 61.4241 211.91 65.6262 210.419 67.6665C214.095 66.7724 219.684 62.4512 221.037 59.8289L221.613 58.7138Z" fill="#111519"/>
<path d="M176.531 58.8616C174.17 58.6512 171.424 57.1719 171.424 57.1719C171.452 57.182 174.272 58.1916 176.572 58.3965L176.531 58.8616Z" fill="#111519"/>
<path d="M189.598 49.6563C188.33 46.6187 189.066 43.1719 189.066 43.1719C189.063 43.2052 188.806 46.5465 190.029 49.4763L189.598 49.6563Z" fill="#111519"/>
<path d="M184.225 31.1818C184.206 31.1765 182.322 30.6569 180.285 30.5048L180.32 30.0391C182.405 30.1947 184.225 31.1818 184.225 31.1818Z" fill="#111519"/>
<path d="M197.077 33.0512C197.075 33.0463 196.812 32.5088 195.9 31.2505L196.279 30.9766C197.222 32.2786 197.077 33.0512 197.077 33.0512Z" fill="#111519"/>
<path d="M204.288 59.29L203.832 59.1867C205.618 51.3178 205.345 43.7801 203.102 39.0234C203.102 39.0234 204.448 40.3447 205.04 43.883C205.793 48.2958 205.553 53.7155 204.288 59.29Z" fill="#111519"/>
<path d="M213.345 56.449L212.89 56.3462C214.128 50.8587 213.014 47.5211 211.861 45.6875C211.861 45.6875 213.486 46.9166 213.834 50.3976C213.987 52.0538 213.885 54.0548 213.345 56.449Z" fill="#111519"/>
<path d="M221.455 60.0397L221.033 59.8394C222.467 56.8193 222.973 54.6775 222.978 54.6562C222.978 54.6562 222.912 56.9702 221.455 60.0397Z" fill="#111519"/>
<path d="M168.077 59.5823C168.44 57.0488 166.565 54.7555 164.012 54.5376C161.459 54.3197 156.727 56.5924 155.98 63.0058C155.474 67.3525 157.066 71.0116 159.881 72.1646C160.96 72.6066 162.243 72.7017 163.544 72.059L168.077 59.5823Z" fill="#F9C89F"/>
<path d="M164.177 65.8358C165.532 65.0084 166.037 62.1154 165.244 60.0839C164.45 58.0524 162.362 57.85 161.062 58.3871C159.487 59.0381 159.37 60.0897 159.38 60.7095C160.208 59.7881 161.842 59.8816 162.379 60.3485C162.916 60.8155 163.126 62.3473 161.796 62.8891C160.465 63.4308 161.048 65.1353 161.422 65.7891C161.796 66.4429 162.146 68.381 161.515 69.0114C160.885 69.6418 157.709 70.6692 156.238 67.7038C157.382 70.7627 158.946 72.3535 161.047 72.2519C162.705 72.1717 163.608 70.3654 163.376 68.3499C163.169 66.5598 161.093 64.4508 162.922 63.7728C163.955 63.3899 164.399 64.8435 164.177 65.8358Z" fill="#ECA77F"/>
<path d="M161.831 72.7855C160.53 72.7856 159.344 72.3516 158.337 71.496C156.297 69.7631 155.329 66.5815 155.748 62.9853C156.175 59.3253 157.844 57.2278 159.169 56.1127C160.932 54.629 162.838 54.2093 164.033 54.3114C165.35 54.4238 166.61 55.1137 167.488 56.2041C167.624 56.3729 167.748 56.5484 167.86 56.7289C168.699 58.2949 168.078 59.5888 168.078 59.5888C168.213 58.544 167.866 57.4173 167.124 56.4972C166.325 55.5055 165.184 54.8784 163.993 54.7767C161.879 54.597 156.983 56.4262 156.212 63.0395C155.817 66.4289 156.747 69.5328 158.639 71.1401C159.98 72.2792 161.676 72.5993 163.544 72.0656C163.544 72.0656 163.034 72.7172 161.831 72.7855Z" fill="#87402C"/>
<path d="M164.716 64.8821C165.053 62.5474 164.532 60.7696 163.246 59.8762C162.29 59.2115 160.979 59.1295 159.984 59.6722C159.984 59.6722 160.396 58.7617 162.016 58.8964C162.548 58.9813 163.065 59.1811 163.513 59.4926C164.033 59.8545 164.746 60.5678 165.087 61.8816C165.417 63.5451 164.716 64.8821 164.716 64.8821Z" fill="#87402C"/>
<path d="M162.427 69.5504C162.544 68.3361 162.163 67.6415 161.721 66.8373C161.402 66.2582 161.073 65.6594 160.89 64.8122C160.73 64.0744 160.812 63.5197 161.132 63.1634C161.261 63.0195 161.42 62.9182 161.594 62.848C162.58 62.5766 163.171 63.2204 163.171 63.2204C162.673 63.167 161.837 63.0774 161.479 63.4755C161.265 63.714 161.22 64.1304 161.346 64.7134C161.515 65.4942 161.828 66.0626 162.13 66.6124C163.051 68.377 162.427 69.5504 162.427 69.5504Z" fill="#87402C"/>
<path d="M198.775 37.2578C198.775 37.2578 202.632 43.6466 201.065 57.3485C203.355 47.1884 203.837 39.8609 198.775 37.2578Z" fill="#6A7884"/>
<path d="M202.029 34.5391C202.029 34.5391 213.446 40.8998 208.762 58.8699C212.415 50.6587 212.876 38.034 202.029 34.5391Z" fill="#6A7884"/>
<path d="M206.564 32.4874C206.564 32.4874 222.638 36.5334 219.264 56.4442C222.397 46.2262 219.535 32.2464 206.564 32.4874Z" fill="#6A7884"/>
<path d="M191.431 34.5393C191.934 34.51 173.95 36.8291 169.973 55.509C170.455 46.832 173.691 35.5734 191.431 34.5393Z" fill="#6A7884"/>
<path d="M224.445 38.2656C224.445 38.2656 236.256 51.1584 231.435 68.8754C236.627 60.5632 233.672 41.2635 224.445 38.2656Z" fill="#6A7884"/>
<path d="M215.098 111.593C215.728 110.682 216.866 109.445 217.313 107.927C218.483 105.779 226.376 98.2369 226.376 98.2369C228.104 97.0226 231.162 94.4075 231.723 93.0765C232.283 91.7456 232.619 88.7189 232.89 87.6827C233.264 86.2583 234.819 85.7675 235.937 86.4801C237.385 87.4024 236.953 90.3212 236.533 92.9598C237.689 91.3603 238.156 89.0603 238.891 88.4299C239.74 87.702 241.32 88.3364 241.857 89.7841C242.394 91.2319 241.273 94.4542 240.246 95.9485C241.25 95.0379 243.211 91.6988 244.729 92.4227C246.247 93.1465 246.433 95.8784 243.865 99.2175C244.869 98.8906 246.34 98.5871 246.503 99.8013C246.667 101.016 245.674 102.545 243.561 104.004C241.861 105.179 239.755 105.872 238.821 106.736C237.887 107.6 235.643 110.237 232.213 112.223C229.271 113.928 225.967 113.858 225.687 113.928C225.407 113.998 223.317 116.356 221.892 118.131C219.954 116.683 215.098 111.593 215.098 111.593Z" fill="#F9C89F"/>
<path d="M243.516 97.4473C242.567 99.0976 239.642 101.609 238.617 102.279C240.209 101.759 242.769 100.047 243.946 99.1906C243.918 99.1994 243.89 99.2082 243.863 99.2171C246.431 95.8781 246.245 93.146 244.727 92.4222C244.467 92.2982 244.194 92.2934 243.915 92.3753C244.847 93.477 244.554 95.6416 243.516 97.4473Z" fill="#ECA77F"/>
<path d="M240.583 91.1404C240.545 92.448 239.727 94.3627 239.057 95.6859C238.388 97.0092 237.019 98.5262 236.217 99.3554C237.407 98.7755 239 97.4974 240.247 95.9522C241.274 94.457 242.393 91.2368 241.856 89.7896C241.399 88.5576 240.188 87.9152 239.314 88.1995C240.43 88.7276 240.617 89.9753 240.583 91.1404Z" fill="#ECA77F"/>
<path d="M235.273 88.823C235.483 90.1773 235.328 91.9285 234.857 93.2828C234.385 94.6371 233.476 96.5683 232.693 97.4474C233.296 97.0149 235.656 94.5663 236.531 92.9594C236.951 90.3209 237.383 87.4021 235.935 86.4798C235.251 86.0436 234.403 86.059 233.762 86.4625C234.645 86.7429 235.083 87.6015 235.273 88.823Z" fill="#ECA77F"/>
<path d="M225.685 113.927C225.965 113.857 229.269 113.927 232.211 112.223C235.641 110.236 237.885 107.6 238.819 106.736C239.753 105.872 241.859 105.178 243.56 104.004C245.673 102.544 246.665 101.015 246.502 99.8007C246.419 99.1833 245.997 98.9588 245.471 98.9297C245.944 100.147 244.913 101.531 243.026 102.716C241.017 103.977 239.266 104.654 238.029 105.261C236.791 105.868 234.515 108.564 232.938 109.682C231.361 110.799 229.879 111.579 228.338 111.846C226.797 112.113 225.593 111.859 224.836 111.963C224.274 112.04 221.573 114.186 219.699 116.204C220.547 117.008 221.338 117.718 221.891 118.131C223.315 116.356 225.405 113.997 225.685 113.927Z" fill="#ECA77F"/>
<path d="M221.933 118.459L221.752 118.324C219.821 116.882 215.127 111.969 214.928 111.76L214.797 111.623L214.905 111.466C215.049 111.259 215.218 111.035 215.397 110.799C216.001 110 216.753 109.005 217.088 107.867L217.095 107.844L217.107 107.822C218.282 105.666 225.891 98.3831 226.214 98.0742L226.241 98.052C228.061 96.773 230.984 94.2351 231.507 92.9921C231.862 92.15 232.13 90.5715 232.346 89.3031C232.464 88.6043 232.567 88.0008 232.664 87.6297C232.853 86.9083 233.344 86.3447 234.01 86.0836C234.681 85.8209 235.448 85.8977 236.063 86.2894C237.429 87.1603 237.27 89.5731 236.943 91.8347C237.219 91.2994 237.45 90.7402 237.664 90.2227C238.023 89.3558 238.332 88.6072 238.739 88.2588C239.128 87.9251 239.676 87.8177 240.242 87.9643C241.051 88.174 241.754 88.8427 242.075 89.7091C242.474 90.7832 242.038 92.6872 241.39 94.261C242.441 92.9874 243.679 91.6699 244.829 92.2182C245.412 92.4962 245.811 93.0212 245.982 93.7364C246.312 95.1132 245.756 96.9391 244.452 98.8162C245.245 98.6333 245.826 98.6654 246.217 98.9115C246.508 99.0941 246.682 99.3851 246.735 99.7764C246.917 101.129 245.808 102.742 243.694 104.203C242.873 104.77 241.951 105.23 241.138 105.637C240.23 106.091 239.446 106.483 238.979 106.914C238.804 107.076 238.572 107.312 238.304 107.584C237.116 108.791 235.127 110.811 232.33 112.432C229.801 113.897 226.972 114.078 226.042 114.137C225.924 114.145 225.803 114.153 225.755 114.159C225.441 114.346 223.626 116.35 222.074 118.283L221.933 118.459ZM215.399 111.577C216.166 112.375 220.042 116.387 221.854 117.814C222.626 116.867 225.173 113.822 225.63 113.708C225.692 113.692 225.786 113.686 226.012 113.671C227.01 113.608 229.661 113.438 232.096 112.028C234.839 110.439 236.799 108.447 237.971 107.256C238.243 106.98 238.479 106.741 238.662 106.571C239.177 106.095 239.989 105.689 240.929 105.219C241.728 104.819 242.634 104.367 243.428 103.818C245.393 102.462 246.429 101.011 246.272 99.8388C246.238 99.5878 246.139 99.4137 245.969 99.3069C245.719 99.1499 245.163 99.0465 243.937 99.4459L243.219 99.6794L243.679 99.0815C245.161 97.1557 245.852 95.1982 245.528 93.8452C245.39 93.2718 245.079 92.855 244.628 92.6398C243.674 92.1853 242.353 93.8134 241.388 95.0029C241.007 95.4721 240.678 95.8773 240.402 96.1279L238.917 97.4749L240.053 95.8225C241.045 94.3798 242.147 91.2454 241.637 89.8717C241.368 89.1461 240.788 88.5885 240.124 88.4164C239.702 88.3072 239.318 88.3771 239.043 88.6133C238.721 88.889 238.431 89.5898 238.096 90.4012C237.733 91.2784 237.321 92.2728 236.722 93.1028L236.148 93.8971L236.302 92.9293C236.684 90.5292 237.16 87.5423 235.812 86.6833C235.322 86.3715 234.712 86.3098 234.18 86.5184C233.647 86.7274 233.269 87.1642 233.116 87.7481C233.024 88.0994 232.923 88.6935 232.806 89.3814C232.586 90.6735 232.313 92.2816 231.938 93.1734C231.328 94.6206 228.12 97.2997 226.524 98.4239C226.167 98.7656 218.687 105.943 217.529 108.024C217.166 109.233 216.392 110.257 215.769 111.081C215.638 111.254 215.512 111.421 215.399 111.577Z" fill="#87402C"/>
<path d="M217.314 108.092C217.267 105.85 217.197 101.957 218.925 99.7004C220.653 97.4439 221.33 96.8368 222.941 95.4591C224.552 94.0815 226.677 91.4662 227.798 91.98C228.919 92.4936 229.386 96.4439 225.019 100.003C226.35 101.507 227.334 104.344 225.776 106.711L217.314 108.092Z" fill="#F9C89F"/>
<path d="M225.021 100.003C229.387 96.4437 228.92 92.4934 227.8 91.9798C227.426 91.8085 226.94 91.9862 226.4 92.3486C228.113 92.688 226.939 95.6423 226.191 96.5996C225.256 97.7977 223.926 98.7011 223.599 99.5417C223.273 100.382 224.557 101.807 225.071 102.694C225.584 103.581 226.064 105.031 225.777 106.711C227.336 104.344 226.352 101.507 225.021 100.003Z" fill="#ECA77F"/>
<path d="M217.082 108.097C217.036 105.929 216.952 101.894 218.741 99.5589C220.458 97.3158 221.123 96.7084 222.791 95.2823C223.196 94.9353 223.63 94.5139 224.089 94.0677C225.543 92.6542 226.916 91.319 227.896 91.7683C228.34 91.9717 228.665 92.5596 228.765 93.3406C228.979 95.018 228.188 97.6394 225.351 100.032C226.19 101.065 226.796 102.523 226.868 104.008C226.946 105.878 225.777 106.712 225.777 106.712C227.047 104.574 226.245 101.74 224.846 100.158L224.684 99.9759L224.873 99.8222C227.71 97.5097 228.505 94.9883 228.302 93.3997C228.225 92.7982 227.989 92.3244 227.702 92.1927C227.012 91.877 225.572 93.2771 224.415 94.4024C223.95 94.854 223.511 95.2805 223.094 95.637C221.454 97.0395 220.801 97.6367 219.112 99.8428C217.423 102.048 217.504 105.977 217.548 108.087L217.082 108.097Z" fill="#87402C"/>
<path d="M238.617 102.274C238.653 102.255 242.251 100.358 243.706 99.0391L244.02 99.3852C243.441 99.9092 242.56 100.509 241.687 101.052C240.296 101.917 238.617 102.274 238.617 102.274Z" fill="#87402C"/>
<path d="M236.217 99.3491C236.239 99.3341 238.493 97.8269 240.061 95.8047L240.43 96.0908C240.029 96.6083 239.589 97.0898 239.153 97.5221C237.832 98.8316 236.217 99.3491 236.217 99.3491Z" fill="#87402C"/>
<path d="M232.695 97.4348C232.725 97.4033 235.623 94.2674 236.323 92.8438L236.742 93.05C236.479 93.5843 235.941 94.326 235.355 95.0629C234.312 96.3736 232.695 97.4348 232.695 97.4348Z" fill="#87402C"/>
<path d="M190.161 116.536C191.632 116.91 198.069 125.215 198.848 126.242C201.095 123.854 204.148 121.58 205.705 119.463C207.261 117.346 209.876 113.547 210.406 112.427C210.561 110.963 210.592 109.531 211.838 109.531C213.083 109.531 217.37 111.653 220.306 114.077C223.243 116.5 224.385 119.245 224.229 119.836C224.073 120.428 222.392 120.49 221.022 122.358C219.652 124.226 216.757 131.387 213.955 136.431C211.153 141.474 207.51 145.07 201.206 145.584C194.901 146.097 189.832 142.158 187.383 140.493C184.977 138.859 182.125 136.368 181.869 135.913C179.957 132.508 180.658 125.923 183.18 121.767C185.701 117.61 189.253 116.306 190.161 116.536Z" fill="#87D0FD"/>
<path d="M197.108 129.115C197.357 128.01 198.776 126.184 198.776 126.184C198.776 126.184 198.776 126.173 198.777 126.152C197.741 124.795 191.596 116.905 190.163 116.541C189.602 116.399 188.033 116.843 186.322 118.18C188.97 118.946 196.675 128.309 197.108 129.115Z" fill="#6FC4EF"/>
<path d="M201.373 125.429C202.711 124.122 205.062 122.394 206.183 120.962C207.304 119.529 211.213 114.097 211.538 113.069C211.803 112.23 211.538 110.298 212.501 109.652C212.232 109.579 212.007 109.539 211.838 109.539C210.593 109.539 210.562 110.971 210.406 112.434C209.877 113.555 207.262 117.354 205.705 119.471C204.148 121.588 201.096 123.862 198.848 126.25C198.848 126.25 196.834 129.036 196.504 131.109C197.964 128.286 200.218 126.557 201.373 125.429Z" fill="#BBE8FF"/>
<path d="M181.87 135.918C182.126 136.373 184.979 138.864 187.384 140.499C189.833 142.163 194.902 146.103 201.207 145.589C207.511 145.075 211.154 141.48 213.956 136.436C216.758 131.392 219.653 124.232 221.023 122.364C222.393 120.496 224.075 120.433 224.23 119.842C224.386 119.25 223.244 116.506 220.307 114.082C220.296 114.073 220.285 114.064 220.274 114.055C220.631 116.638 218.415 118.974 217.302 120.181C216.138 121.442 212.348 128.353 210.834 131.622C209.319 134.891 207.195 139.421 203.273 140.309C199.35 141.196 193.629 138.68 190.107 136.49C186.71 134.378 181.806 130.981 181.587 125.446C180.473 129.167 180.46 133.407 181.87 135.918Z" fill="#6FC4EF"/>
<path d="M200.084 145.869C194.711 145.87 190.315 142.817 187.879 141.126C187.654 140.97 187.445 140.824 187.252 140.693C184.823 139.043 181.954 136.547 181.666 136.034C180.727 134.361 180.359 131.9 180.63 129.106C180.892 126.398 181.749 123.682 182.98 121.652C184.387 119.334 186.026 118.014 187.153 117.315C188.557 116.444 189.705 116.186 190.219 116.317C191.757 116.707 197.784 124.479 198.868 125.89C199.756 124.966 200.756 124.059 201.725 123.179C203.212 121.83 204.617 120.555 205.517 119.331C207.066 117.225 209.629 113.497 210.178 112.369C210.189 112.263 210.2 112.157 210.211 112.051C210.345 110.701 210.484 109.305 211.838 109.305C213.181 109.305 217.507 111.47 220.455 113.904C223.298 116.25 224.661 119.121 224.455 119.903C224.367 120.24 224.02 120.413 223.541 120.653C222.892 120.978 222.003 121.423 221.211 122.503C220.518 123.448 219.407 125.816 218.121 128.558C216.902 131.156 215.521 134.1 214.159 136.551C210.852 142.504 206.863 145.364 201.225 145.823C200.841 145.855 200.459 145.869 200.084 145.869ZM189.916 116.75C188.887 116.75 185.722 118.034 183.38 121.895C180.857 126.052 180.247 132.552 182.073 135.805C182.302 136.211 185.081 138.653 187.514 140.307C187.708 140.439 187.919 140.585 188.145 140.742C190.703 142.518 195.464 145.824 201.187 145.358C206.653 144.912 210.528 142.126 213.751 136.324C215.105 133.887 216.483 130.95 217.698 128.359C218.995 125.595 220.115 123.208 220.835 122.227C221.694 121.055 222.68 120.562 223.332 120.235C223.66 120.071 223.969 119.917 224.004 119.784C224.108 119.388 223.161 116.742 220.158 114.264C217.154 111.784 212.975 109.772 211.838 109.772C210.952 109.772 210.819 110.655 210.675 112.097C210.663 112.217 210.651 112.337 210.639 112.458L210.634 112.497L210.618 112.533C210.086 113.658 207.508 117.412 205.893 119.608C204.966 120.87 203.544 122.16 202.039 123.525C201.007 124.461 199.94 125.43 199.018 126.409L198.829 126.61L198.662 126.39C196.474 123.501 191.28 117.068 190.104 116.769C190.053 116.756 189.99 116.75 189.916 116.75Z" fill="#1D5E72"/>
<path d="M196.504 131.104C196.504 131.104 196.86 128.217 198.671 126.094L199.026 126.397C197.281 128.444 196.512 131.078 196.504 131.104Z" fill="#1D5E72"/>
<path d="M153.663 119.296C154.987 119.88 154.224 122.612 152.729 125.367C151.235 128.122 149.033 130.78 147.639 130.107C145.623 129.133 145.818 125.857 147.265 122.588C148.713 119.319 151.829 118.487 153.663 119.296Z" fill="#6FC4EF"/>
<path d="M148.112 130.453C147.914 130.453 147.722 130.411 147.539 130.323C145.562 129.368 145.371 126.297 147.053 122.499C147.922 120.537 149.259 119.624 150.228 119.204C151.426 118.685 152.746 118.641 153.759 119.088C154.098 119.238 154.336 119.506 154.466 119.886C154.991 121.424 153.571 124.313 152.936 125.484C151.626 127.898 149.669 130.453 148.112 130.453ZM152.229 119.254C150.598 119.254 148.565 120.238 147.48 122.688C146.193 125.595 145.775 128.952 147.742 129.902C147.857 129.958 147.982 129.985 148.114 129.985C149.33 129.985 151.186 127.731 152.525 125.261C153.787 122.936 154.347 120.983 154.024 120.037C153.936 119.782 153.788 119.611 153.57 119.515C153.186 119.346 152.726 119.254 152.229 119.254Z" fill="#1D5E72"/>
<path d="M151.147 119.062C152.688 120.183 154.976 120.956 155.77 121.06C156.564 121.164 160.393 121.187 161.608 121.538C162.822 121.888 165.25 123.102 166.955 123.966C168.659 124.83 169.803 125.904 169.757 126.721C169.71 127.539 168.356 128.402 167.445 128.122C168.589 130.011 169.617 131.391 170.434 132.559C171.251 133.726 171.952 135.151 171.765 136.061C171.578 136.972 170.34 136.902 169.78 136.598C170.667 138.046 171.531 139.961 170.761 140.311C169.99 140.661 168.457 140.28 166.628 138.583C164.968 137.044 163.585 135.711 163.585 135.711C164.62 137.276 167.865 140.895 166.301 142.202C164.736 143.51 161.141 139.751 159.996 137.953C160.767 139.751 161.514 142.343 160.44 142.856C159.366 143.37 157.346 140.297 156.634 139.074C155.878 137.774 155.14 137.322 154.112 136.785C153.085 136.248 151.661 135.034 150.867 132.909C150.073 130.784 150.151 129.632 149.255 128.846C148.915 128.547 146.205 127.412 145.418 127.218C144.239 124.508 148.298 119.646 151.147 119.062Z" fill="#F9C89F"/>
<path d="M145.418 127.226C146.204 127.42 148.914 128.555 149.255 128.854C150.15 129.64 150.072 130.792 150.866 132.917C151.66 135.042 153.084 136.256 154.112 136.793C155.139 137.33 155.877 137.781 156.634 139.081C157.346 140.305 159.366 143.378 160.44 142.864C160.785 142.699 160.941 142.318 160.97 141.819C160.203 142.004 158.981 140.242 158.503 139.288C157.972 138.229 157.135 136.875 156.357 136.128C155.578 135.381 153.383 133.544 153.01 132.671C152.636 131.799 152.387 128.702 151.515 127.255C150.644 125.807 148.822 124.92 146.157 124.344C146.157 124.344 145.855 124.582 145.382 125.003C145.154 125.809 145.136 126.579 145.418 127.226Z" fill="#ECA77F"/>
<path d="M167.938 132.237C167.16 131.256 165.494 130.12 163.883 130.31C164.342 130.5 165.76 131.306 166.755 132.611C167.751 133.915 169.65 136.475 169.65 136.475L169.846 136.64C170.432 136.914 171.585 136.947 171.765 136.07C171.787 135.963 171.795 135.849 171.794 135.729C170.675 136.3 168.662 133.15 167.938 132.237Z" fill="#ECA77F"/>
<path d="M161.774 137.696C161.12 136.918 159.921 135.237 157.842 134.625C158.224 135.041 159.368 136.96 160.11 138.23C160.072 138.137 160.034 138.046 159.996 137.956C161.14 139.754 164.736 143.514 166.301 142.206C166.635 141.927 166.749 141.542 166.713 141.094C165.408 142.383 162.391 138.431 161.774 137.696Z" fill="#ECA77F"/>
<path d="M166.1 125.214C165.104 124.452 163.361 124.031 161.902 124.403C162.312 124.494 163.407 124.81 164.575 125.463C165.742 126.117 167.408 128.032 167.408 128.032L167.569 128.159C168.337 128.305 169.345 127.733 169.659 127.079C168.626 127.475 166.959 125.872 166.1 125.214Z" fill="#ECA77F"/>
<path d="M169.418 138.681C168.375 138.089 167.036 136.579 165.775 135.645C164.514 134.711 163.144 133.201 160.887 132.547C161.338 133.076 163.585 135.719 163.585 135.719C163.585 135.719 164.969 137.051 166.628 138.591C168.457 140.288 169.99 140.669 170.761 140.319C171.079 140.174 171.118 139.763 170.993 139.229C170.676 139.315 170.259 139.158 169.418 138.681Z" fill="#ECA77F"/>
<path d="M160.185 143.145C158.846 143.146 157.003 140.172 156.432 139.19C155.708 137.947 155.001 137.513 154.004 136.991C153.308 136.628 151.589 135.51 150.647 132.99C150.356 132.209 150.177 131.546 150.033 131.013C149.783 130.087 149.618 129.475 149.101 129.021C148.8 128.757 146.145 127.637 145.362 127.445L145.25 127.417L145.204 127.311C144.663 126.068 145.172 124.61 145.694 123.606C146.889 121.306 149.263 119.209 151.099 118.833L151.2 118.812L151.284 118.873C152.784 119.964 155.021 120.726 155.8 120.828C156.049 120.86 156.641 120.886 157.328 120.916C158.804 120.981 160.827 121.069 161.672 121.313C162.828 121.646 165.044 122.735 167.06 123.757C168.918 124.699 170.04 125.84 169.989 126.734C169.965 127.162 169.666 127.606 169.17 127.951C168.766 128.232 168.31 128.391 167.894 128.407C168.712 129.726 169.458 130.777 170.123 131.714C170.298 131.96 170.465 132.196 170.625 132.424C171.119 133.13 172.241 134.901 171.993 136.108C171.92 136.466 171.705 136.737 171.372 136.892C171.048 137.044 170.648 137.063 170.29 137.005C170.802 137.916 171.474 139.318 171.245 140.068C171.18 140.28 171.046 140.437 170.857 140.523C170.052 140.889 168.476 140.616 166.469 138.754C166.042 138.358 165.633 137.975 165.26 137.624C166.504 139.377 167.656 141.373 166.45 142.381C166.12 142.657 165.702 142.758 165.208 142.681C163.777 142.459 161.975 140.796 160.777 139.379C161.224 140.789 161.549 142.584 160.54 143.066C160.427 143.12 160.308 143.145 160.185 143.145ZM145.591 127.023C146.524 127.29 149.04 128.346 149.409 128.67C150.033 129.218 150.222 129.92 150.484 130.891C150.633 131.442 150.801 132.067 151.085 132.827C151.97 135.196 153.572 136.239 154.22 136.578C155.256 137.119 156.051 137.607 156.835 138.955C158.019 140.99 159.65 142.974 160.339 142.645C161.15 142.257 160.643 140.055 159.781 138.044L160.193 137.827C161.081 139.222 163.611 141.961 165.28 142.22C165.64 142.276 165.925 142.211 166.151 142.023C167.262 141.094 165.382 138.557 164.137 136.879C163.839 136.476 163.581 136.129 163.389 135.839L162.221 134.074L163.746 135.542C163.76 135.556 165.147 136.891 166.786 138.411C168.51 140.01 169.976 140.411 170.664 140.098C170.709 140.077 170.765 140.04 170.798 139.931C170.95 139.435 170.472 138.175 169.581 136.72L169.126 135.978L169.891 136.392C170.213 136.567 170.796 136.646 171.175 136.469C171.374 136.376 171.492 136.227 171.536 136.014C171.682 135.3 171.199 134.058 170.242 132.692C170.083 132.465 169.916 132.23 169.742 131.984C169.005 130.947 168.17 129.771 167.245 128.243L166.927 127.718L167.514 127.899C167.898 128.017 168.444 127.887 168.904 127.567C169.27 127.313 169.508 126.983 169.523 126.707C169.563 126.023 168.488 125.004 166.849 124.174C165.539 123.51 162.812 122.128 161.543 121.761C160.751 121.533 158.761 121.446 157.307 121.383C156.582 121.351 156.008 121.326 155.739 121.291C154.935 121.185 152.658 120.417 151.095 119.313C149.421 119.715 147.205 121.71 146.108 123.821C145.464 125.062 145.282 126.193 145.591 127.023Z" fill="#87402C"/>
<path d="M167.246 128.245C165.874 126.049 163.309 124.891 161.902 124.396C161.902 124.396 163.049 124.297 164.287 124.961C165.498 125.642 166.785 126.626 167.642 127.998L167.246 128.245Z" fill="#87402C"/>
<path d="M169.592 136.738C168.033 134.57 165.745 131.545 163.885 130.305C163.885 130.305 165.039 130.428 166.235 131.777C167.585 133.217 168.937 135.028 169.971 136.465L169.592 136.738Z" fill="#87402C"/>
<path d="M163.393 135.848C163.384 135.835 162.451 134.543 160.885 132.539C160.885 132.539 162.041 133.337 163.343 134.991C163.619 135.363 163.769 135.569 163.772 135.574L163.393 135.848Z" fill="#87402C"/>
<path d="M159.904 138.3C159.893 138.277 158.776 135.98 157.84 134.609C157.84 134.609 158.892 135.361 159.784 137.028C160.094 137.622 160.305 138.056 160.325 138.097L159.904 138.3Z" fill="#87402C"/>
<path d="M135.325 108.798C137.409 108.878 139.18 109.298 140.538 109.888C142.349 110.675 143.723 111.762 145.538 113.283C148.713 115.945 148.947 116.599 150.862 117.766C152.776 118.934 153.664 119.307 153.664 119.307C151.772 119.144 149.352 121.004 148.044 123.152C146.737 125.301 146.083 128.928 147.639 130.118C145.631 129.068 143.787 128.344 141.358 127.503C138.93 126.663 134.314 125.114 131.699 122.779C129.084 120.444 128.212 117.891 127.652 115.494C127.091 113.096 127.496 109.167 129.053 107.894C130.609 106.621 133.038 105.438 133.038 105.438L135.325 108.798Z" fill="#87D0FD"/>
<path d="M146.294 115.801C147.614 117.175 149.673 118.671 151.45 119.86C152.206 119.46 152.972 119.247 153.667 119.307C153.667 119.307 152.78 118.933 150.865 117.766C148.95 116.598 148.717 115.944 145.541 113.282C143.726 111.761 142.352 110.674 140.541 109.887C139.184 109.297 137.412 108.877 135.328 108.797C139.659 109.919 144.657 114.096 146.294 115.801Z" fill="#BBE8FF"/>
<path d="M127.656 115.493C128.216 117.89 129.088 120.443 131.703 122.778C134.318 125.113 138.934 126.662 141.362 127.503C143.79 128.343 145.635 129.067 147.643 130.118C146.482 129.229 146.551 126.984 147.205 125.009C143.809 126.33 136.306 122.962 133.379 120.3C130.231 117.436 127.671 112.356 128.792 108.148C127.455 109.629 127.129 113.238 127.656 115.493Z" fill="#6FC4EF"/>
<path d="M147.532 130.324C145.471 129.246 143.613 128.53 141.282 127.723L141.05 127.642C138.625 126.805 134.113 125.246 131.544 122.952C128.892 120.584 127.997 117.993 127.425 115.546C126.882 113.224 127.183 109.121 128.905 107.712C130.465 106.436 132.836 105.275 132.936 105.227L133.301 105.548C133.277 105.559 130.718 106.833 129.201 108.074C127.762 109.251 127.309 113 127.88 115.439C128.434 117.812 129.3 120.322 131.855 122.604C134.354 124.835 138.809 126.374 141.202 127.201L141.435 127.282C143.437 127.975 145.094 128.602 146.83 129.447C146.046 127.752 146.758 124.817 147.845 123.03C148.918 121.267 150.892 119.481 152.768 119.126C152.304 118.882 151.634 118.51 150.741 117.965C149.595 117.266 149.043 116.751 148.129 115.897C147.489 115.299 146.692 114.554 145.388 113.461C142.238 110.82 140.494 109.519 135.325 108.797C135.325 108.797 137.439 108.492 139.84 109.361C142.124 110.189 143.638 111.384 145.688 113.103C147.002 114.204 147.804 114.954 148.448 115.556C149.34 116.389 149.878 116.892 150.984 117.566C152.855 118.707 153.746 119.088 153.755 119.091L153.644 119.539C151.784 119.378 149.438 121.311 148.244 123.273C146.897 125.486 146.402 128.876 147.782 129.932L147.532 130.324Z" fill="#1D5E72"/>
<path d="M11.7356 248.097L23.0936 240.171L9.81445 223.516L11.7356 248.097Z" fill="#E07934"/>
<path d="M11.5577 248.182L9.58398 222.93L23.365 240.215L11.7141 248.345L11.5577 248.182ZM10.0498 224.111L11.8982 247.763L22.8267 240.137L10.0498 224.111Z" fill="#703D1A"/>
<path d="M0.1875 236.059L11.7288 248.086L11.7514 229.047L69.857 288.827L69.843 307.776L84.4649 322.372V248.319L0.1875 162.117V236.059Z" fill="#EA873D"/>
<path d="M0.1875 204.477V236.055L11.7288 248.083L11.7514 229.043L69.857 288.823L69.8429 307.772L84.4648 322.369V248.315L83.8381 247.674C54.4724 258.241 12.0408 223.91 0.1875 204.477Z" fill="#E07934"/>
<path d="M84.4407 322.613L69.6556 307.853V307.776L69.6696 288.903L11.9357 229.505L11.9136 248.184L11.7038 248.33L0 236.134V162.018L0.209358 161.875L84.6498 248.243V322.471L84.4407 322.613ZM70.028 307.699L84.2776 321.924V248.395L0.372288 162.574V235.985L11.5421 247.624L11.5646 228.589L11.8836 228.917L70.0418 288.752V288.827L70.028 307.699Z" fill="#703D1A"/>
<path d="M0.1875 162.117L13.7005 152.773L98.5162 239.162L98.4853 312.835L84.4649 322.372V248.319L0.1875 162.117Z" fill="#E07934"/>
<path d="M0.1875 162.117L13.7005 152.773L98.5162 239.162L84.4649 248.319L0.1875 162.117Z" fill="#F59642"/>
<path d="M98.4109 238.989L84.3613 248.148L84.5646 248.46L98.6142 239.301L98.4109 238.989Z" fill="#703D1A"/>
<path d="M84.2775 322.45V248.394L0 162.193L0.209361 161.875L13.7222 152.531L13.832 152.643L98.701 239.086V239.162L98.6701 312.933L84.6498 322.471L84.2775 322.45ZM0.473436 162.145L84.6498 248.243V322.021L98.298 312.736L98.3288 239.238L13.6762 153.016L0.473436 162.145Z" fill="#703D1A"/>
</svg>
