<svg width="32" height="32" viewBox="0 0 32 32" fill="none" xmlns="http://www.w3.org/2000/svg">
<path d="M23.9596 11.546C23.7428 11.2776 23.4283 11.1063 23.0852 11.0698C22.7421 11.0333 22.3985 11.1346 22.1301 11.3514C21.8617 11.5682 21.6904 11.8827 21.6539 12.2258C21.6174 12.5689 21.7187 12.9125 21.9355 13.1809C22.591 14.0721 22.9446 15.1496 22.9446 16.2559C22.9446 17.3623 22.591 18.4397 21.9355 19.331C21.7808 19.5217 21.6834 19.7523 21.6546 19.9962C21.6258 20.24 21.6667 20.487 21.7727 20.7085C21.8787 20.93 22.0454 21.1169 22.2533 21.2474C22.4613 21.3779 22.702 21.4468 22.9476 21.4459C23.1414 21.4466 23.3329 21.4038 23.5081 21.3207C23.6832 21.2377 23.8375 21.1164 23.9596 20.9659C24.9888 19.6114 25.546 17.9571 25.546 16.2559C25.546 14.5548 24.9888 12.9005 23.9596 11.546Z" fill="white"/>
<path d="M25.7238 7.47192C25.5926 7.36287 25.4412 7.28073 25.2783 7.23019C25.1153 7.17965 24.944 7.1617 24.7741 7.17736C24.6043 7.19302 24.4391 7.242 24.2882 7.32148C24.1372 7.40096 24.0034 7.5094 23.8943 7.6406C23.7853 7.7718 23.7031 7.92319 23.6526 8.08614C23.6021 8.24908 23.5841 8.42038 23.5998 8.59027C23.6154 8.76015 23.6644 8.92528 23.7439 9.07624C23.8234 9.2272 23.9318 9.36102 24.063 9.47007C25.1037 10.2744 25.9513 11.3011 26.544 12.4752C27.1367 13.6493 27.4593 14.9411 27.4884 16.256C27.4593 17.5709 27.1367 18.8627 26.544 20.0368C25.9513 21.2109 25.1037 22.2376 24.063 23.0419C23.9316 23.1508 23.823 23.2846 23.7434 23.4356C23.6638 23.5865 23.6148 23.7517 23.5991 23.9217C23.5834 24.0916 23.6015 24.263 23.6521 24.4259C23.7028 24.5889 23.7851 24.7403 23.8943 24.8714C24.0163 25.0179 24.1691 25.1357 24.3418 25.2164C24.5145 25.2971 24.7028 25.3388 24.8934 25.3385C25.1966 25.3391 25.4904 25.2335 25.7238 25.0401C27.0608 23.9948 28.1465 22.6632 28.9009 21.143C29.6554 19.6229 30.0595 17.9529 30.0834 16.256C30.0595 14.5591 29.6554 12.8891 28.9009 11.369C28.1465 9.84883 27.0608 8.51715 25.7238 7.47192Z" fill="white"/>
<path d="M19.0164 4.73633C18.8191 4.62245 18.5954 4.5625 18.3676 4.5625C18.1399 4.5625 17.9161 4.62245 17.7189 4.73633L9.32406 10.5102H2.83656C2.49244 10.5102 2.16242 10.6469 1.91909 10.8902C1.67576 11.1336 1.53906 11.4636 1.53906 11.8077V20.7086C1.53906 21.0527 1.67576 21.3827 1.91909 21.626C2.16242 21.8694 2.49244 22.0061 2.83656 22.0061H9.32406L17.641 27.7151C17.8689 27.8625 18.1352 27.9392 18.4066 27.9356C18.7507 27.9356 19.0807 27.7989 19.324 27.5556C19.5674 27.3123 19.7041 26.9823 19.7041 26.6381V5.87813C19.7034 5.64341 19.6391 5.41325 19.518 5.21218C19.3969 5.01111 19.2236 4.84665 19.0164 4.73633Z" fill="white"/>
</svg>
