<svg width="299" height="285" viewBox="0 0 299 285" fill="none" xmlns="http://www.w3.org/2000/svg">
<path d="M289.175 101.276L199.122 90.6562L236.234 95.0329L234.848 100.103C230.253 116.918 222.967 132.799 213.193 147.304C203.57 161.585 191.782 174.175 178.156 184.726C164.388 195.388 149.103 203.684 132.725 209.385C115.783 215.282 98.0143 218.272 79.9119 218.272C76.4216 218.272 72.8815 218.157 69.3896 217.931L64.237 217.598L71.1485 182.867L53.2944 272.585C51.5705 281.247 60.7791 287.958 68.4976 283.664L149.168 238.784L229.839 283.664C237.558 287.958 246.766 281.248 245.042 272.585L227.188 182.867L295.057 119.123C301.478 113.092 297.924 102.308 289.175 101.276Z" fill="#FFC200"/>
<path d="M69.391 217.926C72.8829 218.152 76.423 218.267 79.9132 218.267C98.0157 218.267 115.785 215.277 132.727 209.38C149.104 203.679 164.389 195.383 178.158 184.721C191.784 174.17 203.571 161.58 213.194 147.3C222.968 132.794 230.254 116.913 234.85 100.098L236.235 95.0281L199.124 90.6514L158.516 5.88629C154.757 -1.9621 143.583 -1.9621 139.823 5.88629L99.2157 90.6514L9.16282 101.271C0.414194 102.303 -3.13978 113.087 3.28135 119.118L71.1498 182.862L64.2383 217.593L69.391 217.926Z" fill="#FFD400"/>
</svg>
