<svg width="303" height="336" viewBox="0 0 303 336" fill="none" xmlns="http://www.w3.org/2000/svg">
<path d="M277.81 82.6645C278.511 82.6219 278.768 82.5723 279.285 83.1341C279.737 83.6248 279.819 84.3108 279.731 84.949C279.684 85.2847 279.576 85.5169 279.391 85.8018C278.045 85.6879 276.718 85.3625 275.389 85.2836C275.751 84.7344 275.68 84.3029 275.645 83.6598L275.628 83.3937L275.838 83.2105C276.363 83.1287 277.024 83.0948 277.475 82.7952C277.545 82.748 277.612 82.6952 277.681 82.6455L277.81 82.6645Z" fill="#AF1F27"/>
<path d="M274.406 85.4663L275.388 85.2812C276.717 85.3601 278.044 85.6855 279.39 85.7994C280.765 86.6127 281.772 87.6715 282.189 89.2614C282.438 90.2127 282.399 91.2284 281.895 92.0905C281.446 92.8582 280.657 93.5661 279.835 93.9071C278.964 94.0285 277.809 93.986 276.984 94.2114C275.625 94.2432 273.941 94.1678 272.917 93.1458C271.663 91.893 271.87 90.162 271.922 88.5643C272.578 87.3758 273.065 86.5979 274.229 85.8191L274.436 85.6841L274.406 85.4663Z" fill="#EB915A"/>
<path d="M281.636 66.2195C282.071 65.2163 282.353 64.0911 282.687 63.0469C282.758 63.1347 282.827 63.223 282.899 63.3097C283.512 64.0493 284.34 64.5789 284.971 65.2993C286.022 66.5007 286.203 68.9951 286.089 70.5615C285.814 74.3759 283.57 77.264 280.75 79.6403C280.104 80.1769 279.449 80.7018 278.784 81.2148C278.52 81.1834 278.268 81.1395 278.008 81.0805L277.846 81.3273L278.197 81.6905L277.809 82.6658L277.681 82.6469C277.699 82.2179 277.716 81.9826 277.498 81.6051L276.534 81.4451C276.112 81.063 276.198 80.6877 276.139 80.1335C276.525 79.5846 276.699 78.9682 276.913 78.3379C278.477 74.2916 280.129 70.2904 281.636 66.2195Z" fill="#EB915A"/>
<path d="M281.638 66.2188C282.808 68.6372 283.045 70.4771 282.133 73.0727C281.421 75.0979 280.058 77.0327 278.077 77.9774C277.709 78.1524 277.309 78.2463 276.914 78.337C278.479 74.2908 280.131 70.2896 281.638 66.2188Z" fill="#C26C3B"/>
<path d="M283.276 308.5C283.511 311.365 283.604 314.251 283.923 317.107C279.916 318.261 276.721 318.333 272.695 318.764C272.218 317.733 271.858 310.612 271.721 309.074C275.563 308.743 279.427 308.76 283.276 308.5Z" fill="#AF1F27"/>
<path d="M276.986 94.2105C277.81 93.9851 278.966 94.0277 279.837 93.9062C278.969 98.9171 278.429 103.785 273.944 106.948C269.446 110.119 263.175 110.598 257.863 111.379C256.145 111.632 254.393 111.999 252.672 112.166L251.58 112.175L250.8 112.051L250.502 111.982L250.443 111.779C251.94 111.489 253.765 111.573 255.188 111.101C256.379 110.706 257.515 109.968 258.678 109.469C260.903 108.514 263.191 107.673 265.27 106.417C269.06 104.128 274.821 98.0971 276.986 94.2105Z" fill="#482C24"/>
<path d="M271.291 88.1745C271.683 88.0634 271.664 88.0477 271.888 87.7031C271.892 87.9607 271.878 88.1781 271.849 88.4381L271.923 88.5631C271.871 90.1609 271.664 91.8918 272.918 93.1445C273.942 94.1667 275.626 94.242 276.984 94.2102C274.82 98.0968 269.059 104.128 265.269 106.417C263.19 107.673 260.901 108.514 258.677 109.469C257.514 109.968 256.378 110.706 255.187 111.101C253.764 111.572 251.939 111.489 250.442 111.779C249.18 111.819 247.933 111.809 246.672 111.762C246.551 110.309 246.596 108.823 246.582 107.365C246.972 107.296 247.36 107.215 247.744 107.121C258.231 104.563 265.813 97.1487 271.291 88.1745Z" fill="#321B17"/>
<path d="M293.618 145.469C296.718 150.894 302.369 161.115 300.656 167.35C298.418 175.493 286.818 184.086 279.724 188.258C278.632 186.511 276.592 182.43 275.346 181.233C276.736 181.154 280.349 177.214 281.433 176.068C283.389 174 287.907 169.19 287.694 166.223C287.407 162.238 283.018 158.376 280.198 156.035C284.971 152.866 289.487 149.439 293.618 145.469Z" fill="#C26C3B"/>
<path d="M250.107 1.85938C261.817 4.85165 271.841 11.8529 278.044 22.3379C285.541 35.0079 286.469 48.5782 282.808 62.5905L282.687 63.0419C282.353 64.0862 282.071 65.2114 281.637 66.2146C280.13 70.2854 278.478 74.2866 276.913 78.3328C276.699 78.9632 276.525 79.5796 276.139 80.1285C276.198 80.6827 276.112 81.0581 276.534 81.4401L277.498 81.6001C277.717 81.9776 277.699 82.2129 277.681 82.6419C277.612 82.6915 277.545 82.7444 277.474 82.7915C277.023 83.0911 276.362 83.125 275.837 83.2069L275.628 83.3901L275.645 83.6561C275.68 84.2993 275.751 84.7307 275.388 85.28L274.407 85.465L274.436 85.6829L274.23 85.8179C273.066 86.5968 272.579 87.3746 271.922 88.5631L271.849 88.4381C271.877 88.1781 271.891 87.9606 271.888 87.7032C271.663 88.0478 271.682 88.0635 271.291 88.1745C271.434 87.5625 271.887 86.8389 272.144 86.2489C272.803 84.7372 273.447 83.1941 273.924 81.6138C275.715 75.6713 277.103 62.6703 275.759 56.5624L275.874 56.2317C276.725 53.8208 275.854 47.3805 275.58 44.627C274.094 29.7011 268.169 16.0461 256.173 6.61813C254.538 5.33291 250.763 3.79069 250.107 1.85938Z" fill="url(#paint0_linear_4691_32355)"/>
<path d="M276.139 80.1328C276.198 80.687 276.111 81.0624 276.534 81.4445L277.498 81.6044C277.716 81.9819 277.698 82.2173 277.681 82.6462C277.612 82.6959 277.545 82.7487 277.474 82.7959C277.023 83.0955 276.362 83.1294 275.837 83.2112L275.628 83.3944L275.645 83.6605C275.68 84.3036 275.75 84.7351 275.388 85.2843L274.406 85.4694C274.576 83.6665 275.268 81.7131 276.139 80.1328Z" fill="white"/>
<path d="M206.212 262.5C206.178 267.259 205.22 272.844 204.654 277.633C204.114 282.191 203.448 286.73 202.892 291.284C202.224 296.751 201.644 302.239 200.737 307.673C200.126 311.337 199.076 314.898 198.443 318.538C195.17 318.196 191.864 317.409 188.682 316.59C188.892 313.788 189.385 310.951 189.741 308.158C190.263 304.013 190.72 299.861 191.111 295.701C191.992 286.588 192.332 277.427 193.331 268.324C195.788 267.946 203.517 263.794 206.212 262.5Z" fill="#C73645"/>
<path d="M234.061 321.506C235.937 321.23 237.799 321.623 239.627 322.048C240.583 322.114 242.851 322.035 243.57 322.574L245.609 322.595C247.888 322.524 250.2 322.545 252.469 322.313C253.417 322.284 254.41 322.177 255.339 322.392C257.9 322.935 260.023 324.025 262.337 325.222C270.256 324.931 293.885 326.111 300.505 328.705C301.129 328.95 301.825 329.193 302.11 329.847C301.989 330.363 301.792 330.564 301.334 330.833C298.303 332.606 293.462 332.858 290 333.279C278.834 334.637 267.581 335.049 256.345 335.26C248.129 335.441 239.912 335.5 231.694 335.436C225.093 335.338 218.474 335.025 211.874 334.789C205.803 334.603 199.739 334.281 193.683 333.824C188.745 333.478 183.786 333.204 178.949 332.082C177.621 331.774 175.556 331.387 174.79 330.152C174.78 329.655 174.78 329.561 175.144 329.173C177.868 326.268 209.141 324.087 214.207 324.48C214.271 324.485 214.335 324.491 214.399 324.497C216.041 323.828 217.647 323.128 219.245 322.355L220.205 322.493C221.278 322.014 227.721 322.56 229.83 322.278L230.849 322.334C231.608 322.349 232.556 322.437 233.279 322.198C233.712 322.055 233.865 321.902 234.061 321.506Z" fill="#A0B7C3"/>
<path d="M234.061 321.506C235.938 321.23 237.8 321.623 239.628 322.048C240.583 322.114 242.851 322.035 243.57 322.574L243.509 322.735L243.284 323.784C242.294 324.285 232.648 323.794 230.866 323.76L230.85 322.334C231.608 322.349 232.556 322.437 233.279 322.198C233.713 322.055 233.865 321.902 234.061 321.506Z" fill="white"/>
<path d="M220.204 322.489C221.278 322.009 227.721 322.555 229.83 322.273L230.849 322.33L230.865 323.756L230.941 325.119C231.079 326.587 231.033 328.074 231.028 329.548C226.422 329.487 221.803 329.592 217.196 329.601C214.489 329.606 211.767 329.671 209.072 329.389C210.252 327.082 212.266 325.827 214.399 324.493C216.041 323.823 217.647 323.123 219.245 322.351L220.204 322.489Z" fill="#24282A"/>
<path d="M220.206 322.489C221.28 322.009 227.722 322.555 229.832 322.273L230.85 322.33L230.867 323.756L230.942 325.119C229.723 325.624 228.649 326.079 227.301 326.055C225.036 326.433 217.473 327.602 215.669 326.539L215.6 326.22C216.363 324.572 218.819 324.126 219.979 322.768C220.057 322.677 220.13 322.582 220.206 322.489Z" fill="#E93D17"/>
<path d="M229.831 322.273L230.85 322.33L230.866 323.756L230.941 325.119C229.722 325.624 228.648 326.079 227.301 326.055C228.253 325.006 229.362 322.681 229.831 322.273Z" fill="#AF1F27"/>
<path d="M245.609 322.592C247.888 322.522 250.201 322.543 252.469 322.311C253.417 322.281 254.41 322.174 255.339 322.389C257.901 322.932 260.023 324.023 262.338 325.22C263.71 326.348 265.501 327.556 266.379 329.115L266.407 329.506C265.438 329.822 246.094 329.737 243.396 329.777C243.413 328.592 243.365 327.367 243.462 326.189C243.51 325.037 243.525 323.885 243.509 322.733L243.57 322.571L245.609 322.592Z" fill="url(#paint1_linear_4691_32355)"/>
<path d="M245.609 322.594C247.888 322.524 250.201 322.545 252.469 322.312C254.806 323.958 257.59 324.735 259.856 326.569C255.717 327.776 250.429 326.778 246.205 326.199L243.461 326.191C243.509 325.039 243.525 323.887 243.508 322.735L243.57 322.573L245.609 322.594Z" fill="#E37C4F"/>
<path d="M243.57 322.57L245.609 322.591C245.633 323.902 245.669 324.973 246.205 326.196L243.461 326.188C243.509 325.036 243.525 323.884 243.508 322.732L243.57 322.57Z" fill="#AF1F27"/>
<path d="M262.715 115.391C276.435 121.122 286.709 132.555 293.617 145.464C289.486 149.434 284.97 152.861 280.198 156.03C283.018 158.371 287.407 162.233 287.693 166.218C287.907 169.185 283.389 173.995 281.433 176.063C280.349 177.209 276.735 181.149 275.345 181.228C274.61 181.471 273.897 181.631 273.343 182.201C273.215 182.542 273.196 182.623 273.225 183.006C273.172 183.078 273.092 183.193 273.023 183.249C271.448 184.515 265.153 182.696 263.054 182.426C262.217 183.037 258.633 182.682 257.418 182.672C259.877 178.324 261.456 173.031 262.741 168.215C266.062 155.771 271.142 134.8 266.799 122.412C266.21 120.731 265.434 118.837 264.328 117.422C263.86 116.822 263.192 116.268 262.828 115.604C262.79 115.534 262.753 115.462 262.715 115.391Z" fill="#991D37"/>
<path d="M271.922 152.562C273.981 154.068 275.834 155.845 277.715 157.562C278.575 157.128 279.385 156.551 280.197 156.031C283.017 158.372 287.405 162.234 287.692 166.218C287.906 169.186 283.388 173.995 281.432 176.064C280.347 177.21 276.734 181.149 275.344 181.228C274.609 181.472 273.895 181.632 273.342 182.202C273.214 182.543 273.195 182.624 273.224 183.006C273.17 183.079 273.091 183.194 273.022 183.249C271.447 184.516 265.152 182.696 263.053 182.427C265.447 176.083 267.631 169.537 269.4 162.995C270.333 159.544 271.066 156.034 271.922 152.562Z" fill="white"/>
<path d="M256.581 193.885C257.567 193.729 264.291 192.141 264.432 192.239C263.167 193.028 258.785 193.683 258.439 194.179C260.452 194.921 266.724 193.878 269.14 193.691C271.106 198.723 272.249 203.967 273.336 209.248C276.579 225.015 277.92 241.164 279.369 257.174C280.983 274.258 282.286 291.365 283.276 308.496C279.427 308.756 275.564 308.739 271.721 309.071C269.55 290.741 267.598 272.29 264.392 254.108C264.263 254.06 264.112 254.05 264.005 253.965C263.65 253.681 263.442 253.014 263.312 252.602C262.227 249.155 261.632 245.501 260.632 242.012C259.092 236.643 257.148 231.396 255.6 226.029C254.364 221.74 253.122 217.6 251.561 213.413C251.048 212.034 250.612 210.515 249.885 209.236C248.388 210.597 246.953 213.775 245.817 215.567C243.817 218.721 241.391 221.467 239.424 224.51C238.926 225.28 238.61 226.086 238.317 226.947L238.04 227.269L237.908 226.386C236.924 227.062 234.294 231.174 233.333 232.411C230.82 235.643 225.478 241.816 222.28 244.124C222.416 243.04 222.584 242.08 222.217 241.029C224.35 238.924 226.408 236.749 228.392 234.503C230.376 232.257 232.28 229.945 234.105 227.568C235.014 226.397 236.204 225.073 236.841 223.739C237.437 221.934 241.584 216.183 242.837 214.065C245.519 209.537 247.896 204.815 250.465 200.218C250.953 199.344 253.92 193.664 254.538 193.272C254.666 193.19 254.83 193.189 254.976 193.147L256.581 193.885Z" fill="#991D37"/>
<path d="M236.84 223.739C240.639 219.56 244.271 213.32 247.167 208.457C248.205 206.713 249.112 204.762 250.311 203.133C251.808 206.157 252.933 209.379 254.083 212.548C258.991 226.076 262.044 239.936 264.392 254.108C264.263 254.06 264.112 254.05 264.005 253.964C263.65 253.681 263.442 253.013 263.312 252.601C262.227 249.155 261.632 245.5 260.632 242.011C259.092 236.642 257.148 231.396 255.6 226.029C254.364 221.74 253.122 217.6 251.561 213.413C251.048 212.034 250.612 210.515 249.885 209.235C248.388 210.597 246.953 213.775 245.817 215.566C243.817 218.721 241.391 221.466 239.424 224.51C238.926 225.279 238.61 226.085 238.316 226.946L238.04 227.268L237.908 226.385C236.924 227.062 234.294 231.174 233.333 232.41C230.82 235.643 225.478 241.816 222.28 244.123C222.416 243.04 222.584 242.08 222.217 241.029C224.35 238.924 226.408 236.749 228.392 234.503C230.376 232.256 232.28 229.945 234.105 227.568C235.014 226.397 236.203 225.073 236.84 223.739Z" fill="#EB915A"/>
<path d="M222.28 244.128C225.477 241.821 230.819 235.648 233.332 232.416C234.293 231.179 236.923 227.067 237.907 226.391L238.039 227.273C237.848 238.174 236.994 249.046 236.476 259.933L234.532 308.121C234.45 310.148 233.631 320.486 234.061 321.507C233.866 321.903 233.713 322.056 233.28 322.198C232.556 322.438 231.608 322.35 230.85 322.335L229.831 322.278C227.722 322.561 221.279 322.014 220.205 322.494L219.245 322.355C218.663 322.015 217.651 322.072 216.978 322.012C215.041 321.918 213.124 321.707 211.197 321.496C207.963 321.12 204.314 321.021 201.215 320.032C200.786 319.595 200.802 319.289 200.678 318.698L198.443 318.539C199.076 314.899 200.126 311.338 200.737 307.675C201.644 302.24 202.224 296.753 202.892 291.286C203.448 286.731 204.114 282.192 204.654 277.635C205.22 272.845 206.178 267.26 206.212 262.501C206.92 261.996 207.879 261.608 208.66 261.206C208.9 259.531 209.063 257.837 209.262 256.156C209.303 255.038 209.467 253.943 209.668 252.844C213.589 249.316 217.459 245.879 221.191 242.14L222.216 241.034C222.583 242.085 222.415 243.045 222.28 244.128Z" fill="#EB953B"/>
<path d="M221.191 242.137L222.216 241.031C222.583 242.083 222.415 243.042 222.279 244.126L221.956 244.759C221.922 251.546 221.483 258.249 221.084 265.019L219.205 294.441C218.733 301.898 218.232 309.316 217.554 316.759C217.422 318.206 217.51 320.691 216.978 322.009C215.041 321.916 213.124 321.705 211.197 321.493C207.963 321.117 204.314 321.018 201.215 320.03C200.786 319.592 200.802 319.286 200.678 318.695L198.443 318.537C199.076 314.897 200.126 311.335 200.737 307.672C201.644 302.238 202.224 296.75 202.892 291.283C203.448 286.729 204.114 282.189 204.654 277.632C205.22 272.842 206.178 267.257 206.212 262.499C206.92 261.993 207.879 261.605 208.66 261.203C208.9 259.528 209.063 257.835 209.262 256.154C209.303 255.035 209.467 253.94 209.668 252.841C213.588 249.314 217.459 245.876 221.191 242.137Z" fill="#EB953B"/>
<path d="M208.66 261.203C207.332 274.521 205.622 287.791 203.532 301.01C202.658 306.909 201.308 312.767 200.678 318.695L198.443 318.537C199.076 314.897 200.126 311.335 200.737 307.672C201.644 302.238 202.224 296.75 202.892 291.283C203.448 286.729 204.114 282.189 204.654 277.632C205.22 272.842 206.178 267.257 206.212 262.499C206.92 261.993 207.879 261.606 208.66 261.203Z" fill="#AF1F27"/>
<path d="M221.191 242.137L222.216 241.031C222.583 242.083 222.415 243.042 222.279 244.126L221.956 244.759C221.922 251.546 221.483 258.249 221.084 265.019L219.205 294.441C218.733 301.898 218.232 309.316 217.553 316.759C217.422 318.206 217.51 320.691 216.978 322.009C215.041 321.916 213.123 321.705 211.197 321.493C211.691 313.937 213.193 306.35 214.228 298.847C214.673 295.618 214.977 292.37 215.394 289.137L218.798 262.29C219.449 256.788 220.363 251.341 220.806 245.814C216.933 249.174 212.904 252.546 209.262 256.154C209.302 255.035 209.467 253.94 209.668 252.841C213.588 249.314 217.458 245.876 221.191 242.137Z" fill="#EB915A"/>
<path d="M221.192 242.137L222.216 241.031C222.583 242.083 222.415 243.042 222.28 244.126L221.956 244.759C221.643 245.008 221.621 245.113 221.207 245.128C220.912 244.341 221.237 243.182 221.201 242.316L221.192 242.137Z" fill="#C26C3B"/>
<path d="M238.316 226.953C238.61 226.092 238.926 225.286 239.423 224.517C241.39 221.473 243.817 218.727 245.817 215.573C246.953 213.782 248.387 210.604 249.885 209.242C250.612 210.521 251.047 212.041 251.561 213.419C253.122 217.606 254.364 221.747 255.6 226.035C257.147 231.403 259.092 236.649 260.631 242.018C261.632 245.507 262.227 249.162 263.312 252.608C263.442 253.02 263.65 253.688 264.004 253.971C264.112 254.057 264.263 254.067 264.392 254.115C267.598 272.297 269.55 290.747 271.721 309.078C271.859 310.615 272.218 317.736 272.695 318.767C272.681 319.043 272.756 319.368 272.533 319.562C271.293 320.648 263.648 321.114 261.583 321.319C259.72 321.464 257.885 321.568 256.031 321.282C255.661 321.622 255.527 321.944 255.34 322.394C254.411 322.179 253.418 322.286 252.47 322.316C250.202 322.548 247.889 322.527 245.61 322.597L243.571 322.576C242.852 322.038 240.584 322.116 239.629 322.05C237.801 321.625 235.938 321.233 234.062 321.508C233.631 320.488 234.451 310.15 234.532 308.122L236.476 259.935C236.995 249.047 237.849 238.176 238.04 227.275L238.316 226.953Z" fill="#EB953B"/>
<path d="M238.04 227.275L238.316 226.953C238.649 233.838 238.66 240.717 238.761 247.606C239.032 258.997 239.15 270.389 239.114 281.783C239.193 295.203 239.638 308.629 239.629 322.05C237.801 321.625 235.938 321.233 234.062 321.508C233.631 320.488 234.451 310.15 234.532 308.122L236.476 259.935C236.995 249.047 237.849 238.176 238.04 227.275Z" fill="#EB915A"/>
<path d="M256.03 321.276C256.523 319.457 255.63 305.96 255.502 302.951C254.897 286.951 254.099 270.961 253.11 254.981C252.534 244.219 252.125 233.41 251.138 222.677C250.878 219.857 250.616 217.016 250.269 214.204C250.188 213.548 249.972 212.942 249.9 212.283L250.068 212.231L250.097 212.148L250.221 212.208C250.47 213.282 250.462 214.47 250.641 215.572C251.406 220.296 251.995 224.999 252.525 229.753L255.77 259.07C257.333 273.519 259.101 287.908 260.331 302.393C260.869 308.722 261.653 314.943 261.582 321.313C259.719 321.458 257.884 321.562 256.03 321.276Z" fill="#EB915A"/>
<path d="M258.24 113.602C259.592 114.099 261.552 114.56 262.714 115.389C262.752 115.46 262.789 115.533 262.827 115.603C263.191 116.267 263.859 116.821 264.327 117.421C265.432 118.836 266.209 120.73 266.798 122.411C271.141 134.799 266.061 155.77 262.74 168.214C261.455 173.03 259.876 178.323 257.417 182.671C258.631 182.681 262.216 183.035 263.053 182.425C265.152 182.695 271.447 184.514 273.022 183.248C273.091 183.192 273.17 183.077 273.224 183.005C273.195 182.622 273.214 182.541 273.342 182.2C273.895 181.63 274.609 181.47 275.344 181.227C276.591 182.424 278.63 186.504 279.723 188.252C280.093 188.816 280.455 189.337 280.32 190.054C280.236 190.493 279.967 190.939 279.589 191.186C279.188 191.448 278.715 191.477 278.271 191.327C277.764 191.155 277.505 190.714 277.258 190.261C275.305 191.303 273.323 192.455 271.226 193.178C270.538 193.414 269.809 193.47 269.139 193.691C266.722 193.878 260.451 194.921 258.437 194.179C258.783 193.683 263.166 193.028 264.43 192.238C264.29 192.141 257.565 193.729 256.58 193.884L254.975 193.147C254.829 193.188 254.665 193.189 254.537 193.271C253.919 193.664 250.951 199.344 250.464 200.217C247.895 204.814 245.518 209.536 242.836 214.065C241.582 216.182 237.435 221.933 236.839 223.739C236.202 225.073 235.012 226.397 234.103 227.568C232.278 229.945 230.374 232.256 228.39 234.503C226.407 236.749 224.348 238.924 222.215 241.029L221.191 242.135C217.458 245.874 213.588 249.311 209.667 252.838C209.466 253.938 209.302 255.033 209.261 256.151C209.062 257.832 208.899 259.525 208.659 261.2C207.878 261.603 206.92 261.991 206.211 262.496C203.516 263.79 195.788 267.942 193.33 268.32L193.524 266.422C193.532 261.896 193.902 257.306 194.168 252.785C194.347 252.339 195.098 242.004 195.163 240.666C195.474 236.714 196.241 232.807 196.565 228.865C197.064 228.726 197.682 228.629 197.95 228.136C198.649 226.853 197.481 223.44 197.154 221.966C197.754 220.849 197.58 218.525 197.686 217.22C197.739 217.271 197.791 217.323 197.844 217.373C198.988 218.444 200.81 219.552 202.405 219.496C202.675 219.321 202.791 219.275 202.807 218.939C202.852 218.006 199.253 213.435 198.573 212.488C199.752 207.348 201.308 202.273 203.564 197.496C205.198 194.033 207.562 190.835 208.427 187.058C209.231 183.545 209.011 179.838 208.844 176.267C212.179 174.96 215.411 173.437 218.542 171.698C239.032 160.296 252.063 135.406 258.24 113.602Z" fill="#C73645"/>
<path d="M193.524 266.428C195.433 264.546 197.715 262.934 199.792 261.234C203.124 258.485 206.416 255.688 209.667 252.844C209.466 253.943 209.302 255.038 209.261 256.156C209.062 257.837 208.899 259.531 208.659 261.206C207.878 261.608 206.92 261.996 206.211 262.501C203.516 263.795 195.788 267.947 193.33 268.325L193.524 266.428Z" fill="#991D37"/>
<path d="M275.345 181.227C276.592 182.424 278.631 186.504 279.724 188.252C280.094 188.817 280.456 189.337 280.321 190.054C280.237 190.493 279.968 190.939 279.59 191.186C279.189 191.448 278.716 191.477 278.272 191.327C277.765 191.155 277.506 190.714 277.259 190.261C275.306 191.303 273.324 192.455 271.227 193.178C270.539 193.414 269.81 193.47 269.14 193.691C266.723 193.878 260.452 194.921 258.438 194.179C258.784 193.683 263.167 193.028 264.431 192.238C264.291 192.141 257.566 193.729 256.581 193.884L254.976 193.147L255.733 192.728C257.982 191.475 260.614 191.381 262.964 190.404L262.945 190.247C262.402 190.116 255.169 192.015 253.42 191.959C253.071 191.632 253.022 191.611 252.928 191.148C253.536 189.647 258.978 188.723 260.581 188.43C261.202 188.317 262.155 188.359 262.681 188.029L262.449 187.842C261.092 187.685 259.159 188.358 257.782 188.624C256.392 188.892 252.869 189.944 251.702 189.021C251.475 188.842 251.523 188.699 251.486 188.434C252.817 186.917 262.479 185.497 264.817 184.962C262.437 184.87 258.322 185.196 256.196 184.408C255.747 184.242 255.603 184.139 255.401 183.71L255.617 183.294C256.157 182.827 256.73 182.787 257.418 182.671C258.632 182.681 262.217 183.035 263.054 182.425C265.153 182.695 271.448 184.514 273.023 183.247C273.092 183.192 273.171 183.077 273.225 183.005C273.196 182.622 273.215 182.541 273.343 182.2C273.896 181.63 274.61 181.47 275.345 181.227Z" fill="#E37C4F"/>
<path d="M275.345 181.227C276.591 182.424 278.631 186.504 279.724 188.252C280.094 188.817 280.456 189.337 280.32 190.054C280.237 190.493 279.968 190.939 279.59 191.186C279.189 191.448 278.716 191.477 278.272 191.327C277.765 191.155 277.506 190.714 277.259 190.261C276.285 187.801 274.547 185.314 273.225 183.005C273.196 182.622 273.215 182.541 273.343 182.2C273.896 181.63 274.61 181.47 275.345 181.227Z" fill="#0F0C0D"/>
<path d="M2.31108 45.0138C15.3049 45.2324 28.3266 44.9613 41.3237 45.0048L184.636 45.1369C184.556 48.7292 185.013 52.5551 185.838 56.0599L62.9117 56.0653L28.226 56.1039L18.6612 56.076C16.9834 56.0667 15.109 55.9046 13.4587 56.1563L12.223 164.26C11.8419 189.726 11.2663 215.213 11.2417 240.68L17.742 240.697L195.164 240.669C195.099 242.007 194.348 252.342 194.168 252.788L194.13 252.491C193.55 251.976 192.311 252.173 191.531 252.173L55.8944 252.166C37.2676 252.188 18.6252 252.008 0 252.225L1.72762 96.0838C2.02082 79.0616 2.21536 62.0383 2.31108 45.0138Z" fill="#EB953B"/>
<path d="M184.636 45.1371C185.025 41.8856 185.341 38.7161 186.098 35.5173C186.182 35.1592 186.27 34.8024 186.363 34.4467C186.456 34.091 186.553 33.7364 186.654 33.3828C186.756 33.0294 186.861 32.6775 186.972 32.3268C187.082 31.9761 187.196 31.6266 187.315 31.2786C187.434 30.9307 187.557 30.5843 187.684 30.2394C187.812 29.8946 187.944 29.5514 188.08 29.2098C188.216 28.8681 188.356 28.5283 188.5 28.1902C188.645 27.8521 188.793 27.5159 188.946 27.1814C189.098 26.8471 189.255 26.5146 189.416 26.1839C189.577 25.8535 189.742 25.5251 189.911 25.1987C190.08 24.872 190.254 24.5477 190.431 24.2255C190.608 23.9034 190.789 23.5835 190.974 23.2659C191.159 22.948 191.348 22.6327 191.541 22.3199C191.734 22.0068 191.931 21.6962 192.131 21.3882C192.332 21.0801 192.536 20.7745 192.744 20.4715C192.953 20.1684 193.164 19.8679 193.38 19.5701C193.596 19.2723 193.815 18.9772 194.038 18.6848C194.261 18.3925 194.487 18.1031 194.718 17.8163C194.948 17.5296 195.181 17.2457 195.418 16.9647C195.655 16.6838 195.896 16.4058 196.14 16.1309C196.384 15.856 196.632 15.584 196.882 15.3151C197.133 15.0462 197.387 14.7806 197.645 14.518C197.902 14.2554 198.162 13.9961 198.426 13.7401C198.69 13.484 198.957 13.2312 199.227 12.9817C199.497 12.7322 199.77 12.4861 200.047 12.2435C200.323 12.0007 200.602 11.7616 200.884 11.5258C201.166 11.29 201.451 11.0577 201.739 10.829C202.026 10.6002 202.317 10.3751 202.611 10.1536C202.904 9.93211 203.2 9.71425 203.499 9.50014C203.798 9.28593 204.1 9.07548 204.404 8.86886C204.708 8.66215 205.014 8.45928 205.323 8.26017C205.632 8.06105 205.944 7.86586 206.258 7.67442C219.37 -0.377038 235.371 -1.6896 250.109 1.86255C250.764 3.79396 254.539 5.33609 256.174 6.62113C268.171 16.0491 274.096 29.7042 275.581 44.63C275.855 47.3834 276.727 53.8238 275.875 56.2347L275.76 56.5654C277.104 62.6733 275.717 75.6743 273.925 81.6168C273.448 83.1971 272.805 84.7402 272.145 86.2519C271.888 86.8418 271.435 87.5653 271.292 88.1775C265.813 97.1516 258.231 104.566 247.745 107.124C247.36 107.218 246.973 107.299 246.583 107.368C246.597 108.826 246.552 110.312 246.672 111.765C247.934 111.812 249.181 111.822 250.443 111.782L250.501 111.985L250.799 112.053L251.579 112.177L252.671 112.169C254.235 112.978 256.51 113.074 258.241 113.604C252.064 135.409 239.033 160.299 218.544 171.701C215.413 173.44 212.18 174.963 208.845 176.27C209.013 179.841 209.233 183.548 208.428 187.06C207.563 190.838 205.2 194.036 203.565 197.499C201.309 202.276 199.753 207.351 198.575 212.491C199.254 213.438 202.853 218.009 202.808 218.942C202.792 219.277 202.677 219.324 202.406 219.499C200.811 219.555 198.989 218.446 197.846 217.376C197.792 217.326 197.74 217.274 197.687 217.223C197.581 218.528 197.755 220.852 197.155 221.969C197.482 223.443 198.65 226.856 197.951 228.139C197.683 228.632 197.065 228.729 196.567 228.868C196.243 232.81 195.476 236.717 195.165 240.669L17.7426 240.697L11.2422 240.68C11.2669 215.213 11.8425 189.726 12.2235 164.26L13.4592 56.1564C15.1095 55.9046 16.984 56.0668 18.6617 56.076L28.2265 56.1039L62.9123 56.0653L185.839 56.0599C185.013 52.5553 184.556 48.7294 184.636 45.1371Z" fill="#304948"/>
<path d="M89.2655 131.328C89.3469 131.357 89.4322 131.377 89.509 131.416C89.9976 131.668 90.0604 131.763 90.2108 132.255C89.5401 135.571 81.0003 142.596 78.1812 145.188C79.5793 144.991 80.9035 144.96 82.2895 145.279C82.4488 145.316 82.6071 145.357 82.7645 145.402C82.9216 145.447 83.0777 145.496 83.2326 145.549C83.3874 145.602 83.5407 145.659 83.6926 145.719C83.8445 145.78 83.9947 145.845 84.1433 145.913C84.2919 145.981 84.4387 146.053 84.5836 146.129C84.7286 146.205 84.8716 146.284 85.0125 146.368C85.1533 146.451 85.2922 146.537 85.4289 146.627C85.5656 146.717 85.6997 146.811 85.8313 146.908C85.9633 147.004 86.0925 147.105 86.2192 147.208C86.3461 147.311 86.4702 147.418 86.5916 147.527C86.7128 147.637 86.8312 147.75 86.947 147.866C87.0627 147.981 87.1754 148.1 87.2852 148.221C87.3947 148.343 87.5011 148.467 87.6044 148.594C87.7077 148.72 87.8078 148.85 87.9047 148.982C88.0014 149.114 88.0947 149.248 88.1848 149.384C88.2747 149.521 88.3613 149.66 88.4444 149.801C89.8211 152.14 90.1393 154.653 89.3965 157.254C88.6548 159.852 86.5274 161.831 84.226 163.095C80.9002 164.921 77.1175 165.255 73.4921 164.159C71.8421 163.66 69.2998 162.541 68.4702 160.978C68.4809 160.473 68.4791 160.486 68.817 160.11C69.6304 160.041 71.4671 161.663 72.4074 162.086C72.9519 162.331 73.5109 162.536 74.0845 162.701C74.658 162.867 75.2405 162.991 75.8319 163.073C79.6259 163.611 82.9411 162.435 85.9431 160.152C87.1608 159.016 88.0101 157.745 88.4233 156.113C88.9036 154.216 88.7493 152.432 87.7251 150.735C86.5548 148.798 84.5899 147.474 82.3972 146.965C79.3731 146.263 77.4939 146.857 75.0399 148.552C74.597 148.858 73.9756 149.427 73.4975 149.614C73.1385 149.754 73.0443 149.599 72.7471 149.439L72.6707 149.052C73.3485 147.014 79.8984 141.899 81.8119 139.974C79.1018 140.863 70.5408 143.341 67.9203 143.202C67.0304 143.155 66.2525 142.954 65.625 142.298L65.6739 142.073C66.6282 141.584 68.2177 141.676 69.3159 141.501C74.5723 140.662 81.1984 139.873 85.2788 136.173C86.8395 134.758 88.0369 133.025 89.2655 131.328Z" fill="white"/>
<path d="M187.261 207.23C189.704 207.453 191.718 206.973 193.861 205.781C195.633 207.875 197.089 210.194 198.573 212.494C199.253 213.442 202.852 218.013 202.807 218.945C202.791 219.281 202.675 219.327 202.405 219.502C200.81 219.558 198.988 218.45 197.845 217.38C197.791 217.329 197.739 217.278 197.686 217.227C197.58 218.531 197.754 220.856 197.154 221.972C197.481 223.447 198.649 226.859 197.95 228.142C197.682 228.635 197.064 228.732 196.565 228.871C195.428 226.989 193.552 218.262 192.795 215.358C192.507 217.593 195.318 225.701 195.63 228.669C195.681 229.149 195.594 229.233 195.333 229.607C194.821 229.856 194.767 229.885 194.207 229.811C192.14 228.408 191.599 220.02 190.327 217.343C190.695 219.027 192.753 227.998 192.248 228.921C191.81 229.03 191.378 228.837 191.001 228.616C189.197 227.555 189.078 220.019 188.433 217.798C188.062 220.604 189.343 223.188 189.031 225.927C188.754 226.302 188.726 226.412 188.292 226.56C188.005 226.438 187.916 226.332 187.74 226.061C187.184 225.204 186.933 223.841 186.744 222.841C185.763 217.648 186.128 212.367 187.261 207.23Z" fill="#EB915A"/>
<path d="M197.155 221.968C196.627 220.158 194.534 214.979 195.033 213.391C195.645 213.707 197.194 216.473 197.687 217.222C197.581 218.527 197.755 220.851 197.155 221.968Z" fill="#24282A"/>
<path d="M186.408 150.907C188.172 142.243 195.567 126.708 201.913 120.594C202.014 129.81 202.938 142.965 209.846 149.704C210.074 149.926 210.301 150.138 210.542 150.344C209.766 151.188 208.723 152.842 207.815 153.401C205.463 154.63 204.149 157.5 202.443 159.426C197.204 156.959 193.414 156.171 188.321 152.633C187.638 152.108 187.03 151.501 186.408 150.907Z" fill="#C73645"/>
<path d="M191.334 80.9609C191.918 81.4731 192.488 82.0373 193.163 82.428L194.185 82.8422L194.207 82.9369L193.281 82.9765C193.256 83.34 193.206 83.185 193.348 83.4096C193.622 83.8418 193.721 84.0653 193.706 84.5967L194.015 84.9674C194.478 84.9623 194.615 84.8934 194.983 84.5713C195.047 84.5157 195.097 84.4453 195.154 84.3825C196.581 84.6981 197.645 85.0142 198.501 86.3106C198.86 86.8541 199.125 87.4605 199.391 88.053C199.799 89.5933 199.848 90.8654 199.05 92.2952C198.915 92.5367 198.761 92.7619 198.606 92.9906C201.242 98.5195 205.15 103.993 209.749 108.085C210.479 108.735 213.718 110.893 213.921 111.205L213.651 111.417C211.767 111.641 209.783 111.74 207.887 111.745C201.97 111.759 191.537 111.307 187.23 106.951C184.908 104.603 183.756 101.549 183.806 98.2681C183.897 92.3063 187.045 85.0903 191.334 80.9609Z" fill="#482C24"/>
<path d="M195.154 84.3828C196.581 84.6985 197.645 85.0145 198.501 86.3109C198.86 86.8544 199.125 87.4609 199.391 88.0534C199.799 89.5937 199.848 90.8657 199.05 92.2956C198.915 92.537 198.761 92.7623 198.606 92.9909C197.703 93.7959 196.869 94.2827 195.682 94.5601C194.346 94.8719 192.945 94.6948 191.775 93.9595C190.591 93.2152 189.808 91.9796 189.561 90.61C189.3 89.1622 189.587 87.4906 190.48 86.2989C191.293 85.2147 192.398 84.7482 193.706 84.5972L194.015 84.9679C194.478 84.9629 194.615 84.894 194.983 84.5719C195.047 84.516 195.097 84.4457 195.154 84.3828Z" fill="#EB953B"/>
<path d="M129.192 139.703L131.411 139.707C131.396 142.436 131.451 145.168 131.477 147.898C127.016 148.948 120.993 152.661 116.484 152.014C115.412 151.86 114.844 151.362 114.22 150.513C112.492 147.095 111.795 143.519 109.848 140.042C116.294 139.856 122.743 139.743 129.192 139.703Z" fill="#304948"/>
<path d="M188.32 152.633C193.413 156.171 197.203 156.958 202.442 159.426C204.148 157.5 205.462 154.629 207.814 153.4C206.442 155.579 206.308 157.27 206.433 159.786C206.479 160.263 206.518 160.57 206.737 161.008C207.911 165.433 208.32 171.63 208.845 176.266C209.012 179.838 209.232 183.545 208.427 187.057C207.562 190.834 205.199 194.032 203.564 197.495C201.309 202.272 199.752 207.347 198.574 212.487C197.089 210.187 195.634 207.868 193.862 205.774C191.718 206.966 189.705 207.446 187.261 207.223C187.094 207.19 186.928 207.154 186.761 207.122C185.93 206.963 185.378 206.78 184.747 206.187C184.24 205.711 183.953 205.176 183.966 204.466C183.986 203.382 184.83 202.691 185.557 202.016C184.617 199.341 184.286 196.511 183.985 193.702C183.849 192.429 183.739 191.153 183.653 189.874C183.567 188.596 183.506 187.317 183.47 186.037C183.434 184.756 183.424 183.475 183.438 182.194C183.451 180.913 183.49 179.633 183.554 178.354C183.617 177.074 183.706 175.797 183.819 174.521C183.933 173.245 184.071 171.971 184.234 170.701C184.396 169.43 184.584 168.163 184.796 166.9C185.008 165.637 185.245 164.378 185.506 163.124C186.225 159.644 187.509 156.339 188.266 152.885L188.32 152.633Z" fill="#EB915A"/>
<path d="M185.559 202.02C188.043 200.61 190.666 200.663 193.416 200.885C194.447 201.203 194.818 201.609 195.313 202.563C195.449 202.827 195.576 203.096 195.694 203.368C195.18 204.306 194.65 205.039 193.863 205.779C191.719 206.971 189.706 207.45 187.262 207.228C187.095 207.195 186.929 207.158 186.762 207.127C185.931 206.968 185.379 206.785 184.748 206.192C184.241 205.716 183.954 205.18 183.967 204.47C183.987 203.387 184.831 202.696 185.559 202.02Z" fill="#E93D17"/>
<path d="M202.443 159.432C204.149 157.506 205.462 154.635 207.814 153.406C206.442 155.585 206.309 157.276 206.434 159.792C206.479 160.269 206.519 160.575 206.738 161.014C207.912 165.439 208.32 171.636 208.845 176.272C209.012 179.844 209.232 183.55 208.428 187.063C207.562 190.84 205.199 194.038 203.565 197.501C201.309 202.278 199.753 207.353 198.574 212.493C197.089 210.192 195.634 207.874 193.862 205.78C194.65 205.041 195.179 204.308 195.693 203.37C195.575 203.097 195.448 202.829 195.313 202.564C194.817 201.611 194.446 201.204 193.415 200.887C192.293 187.348 195.054 170.992 202.443 159.432Z" fill="#304948"/>
<path d="M13.4591 56.1562C15.7036 56.3809 18.0206 56.2756 20.2773 56.2752L31.3449 56.2655L67.6709 56.2469L185.995 56.2383C186.197 57.155 187.665 60.8202 187.504 61.3895L187.356 61.4045C184.984 60.7117 178.492 61.107 175.64 61.1106L150.998 61.1738L22.5094 61.0588C22.4286 74.2438 21.5908 87.4816 21.1555 100.664L18.9356 172.57C18.5121 189.602 18.1937 206.635 17.9807 223.67C17.8921 229.339 17.9292 235.032 17.7426 240.697L11.2422 240.68C11.2669 215.213 11.8425 189.726 12.2235 164.26L13.4591 56.1562Z" fill="#123233"/>
<path d="M224.45 107.297C232.119 108.864 238.901 109.122 246.582 107.367C246.596 108.825 246.551 110.311 246.672 111.763C247.933 111.811 249.18 111.821 250.442 111.781L250.5 111.984L250.798 112.052L251.579 112.176L252.671 112.167C254.234 112.976 256.51 113.073 258.24 113.603C252.063 135.408 239.033 160.298 218.543 171.699C215.412 173.439 212.179 174.962 208.845 176.269C208.32 171.633 207.912 165.435 206.737 161.01C206.518 160.572 206.479 160.266 206.434 159.788C206.309 157.272 206.442 155.581 207.814 153.403C208.722 152.844 209.766 151.19 210.542 150.346C210.301 150.14 210.073 149.927 209.846 149.706C202.937 142.966 202.014 129.812 201.912 120.596C202.941 119.629 204.218 118.86 205.427 118.143C211.192 114.723 217.414 113.569 224.017 113.137L224.147 112.979C224.333 111.738 224.303 110.379 224.396 109.119L224.45 107.297Z" fill="#EB953B"/>
<path d="M250.798 112.052L251.579 112.176C242.436 133.442 228.581 151.812 206.737 161.01C206.519 160.572 206.479 160.265 206.434 159.788C207.568 159.486 208.791 158.404 209.811 157.801C219.403 152.138 227.504 144.328 234.291 135.557C233.666 135.143 233.076 134.721 232.537 134.197C229.603 131.343 222.782 118.964 223.181 114.967C223.249 114.288 223.57 114.182 224.06 113.782C224.947 115.327 225.958 119.015 226.925 121.062C229.187 125.847 232.177 130.101 235.156 134.451C239.12 129.139 242.832 123.879 245.665 117.865C246.336 116.869 246.85 115.552 247.352 114.446C247.747 113.617 248.305 112.829 248.788 112.047L250.798 112.052Z" fill="#AF1F27"/>
<path d="M224.451 107.297C232.12 108.864 238.902 109.122 246.583 107.367C246.597 108.825 246.552 110.311 246.672 111.763C247.934 111.811 249.181 111.821 250.443 111.781L250.501 111.984L250.799 112.052L248.789 112.047C248.306 112.83 247.748 113.617 247.353 114.447C246.851 115.552 246.337 116.869 245.666 117.866C242.833 123.88 239.121 129.14 235.157 134.451C232.178 130.102 229.188 125.847 226.926 121.062C225.959 119.015 224.948 115.328 224.061 113.782L224.018 113.137L224.147 112.979C224.334 111.738 224.303 110.379 224.397 109.119L224.451 107.297Z" fill="#E37C4F"/>
<path d="M224.451 107.297C232.12 108.864 238.902 109.122 246.583 107.367C246.597 108.825 246.552 110.311 246.672 111.763C247.934 111.811 249.181 111.821 250.443 111.781L250.501 111.984L250.799 112.052L248.789 112.047C248.306 112.83 247.748 113.617 247.353 114.447C246.851 115.552 246.337 116.869 245.666 117.866C243.731 117.616 241.835 117.326 239.958 116.775C235.81 115.559 227.484 111.993 224.396 109.119L224.451 107.297Z" fill="#C26C3B"/>
<path d="M250.499 111.982L250.798 112.05L248.788 112.045C248.305 112.828 247.746 113.615 247.352 114.445C246.88 113.663 246.933 112.86 246.9 111.977C248.102 112.004 249.297 112.015 250.499 111.982Z" fill="#E37C4F"/>
<path d="M201.912 120.599C202.941 119.632 204.218 118.864 205.427 118.146C211.192 114.727 217.414 113.573 224.017 113.141L224.06 113.786C223.57 114.186 223.249 114.292 223.181 114.971C222.782 118.967 229.603 131.346 232.537 134.201C233.076 134.725 233.666 135.147 234.291 135.56C227.505 144.332 219.403 152.142 209.811 157.805C208.791 158.408 207.568 159.489 206.434 159.791C206.309 157.276 206.442 155.585 207.814 153.406C208.723 152.848 209.766 151.194 210.542 150.35C210.301 150.144 210.073 149.931 209.846 149.71C202.937 142.97 202.014 129.815 201.912 120.599Z" fill="#EB953B"/>
<path d="M184.635 45.1372C185.024 41.8856 185.341 38.7161 186.098 35.5173C186.181 35.1592 186.27 34.8024 186.362 34.4467C186.455 34.091 186.552 33.7364 186.654 33.3828C186.755 33.0294 186.861 32.6775 186.971 32.3268C187.081 31.9761 187.196 31.6266 187.315 31.2786C187.433 30.9307 187.557 30.5843 187.684 30.2394C187.812 29.8946 187.943 29.5514 188.079 29.2098C188.215 28.8681 188.355 28.5283 188.5 28.1902C188.644 27.8521 188.793 27.5159 188.945 27.1814C189.098 26.8471 189.255 26.5146 189.416 26.184C189.577 25.8535 189.742 25.5251 189.911 25.1987C190.08 24.872 190.253 24.5477 190.43 24.2255C190.607 23.9034 190.789 23.5835 190.974 23.2659C191.159 22.948 191.348 22.6327 191.54 22.3199C191.733 22.0068 191.93 21.6962 192.131 21.3882C192.331 21.0801 192.536 20.7745 192.744 20.4715C192.952 20.1684 193.164 19.8679 193.38 19.5701C193.595 19.2723 193.814 18.9772 194.037 18.6848C194.26 18.3925 194.487 18.1031 194.717 17.8163C194.947 17.5296 195.181 17.2457 195.418 16.9647C195.655 16.6838 195.895 16.4058 196.14 16.1309C196.384 15.856 196.631 15.584 196.882 15.3151C197.133 15.0462 197.387 14.7806 197.644 14.518C197.901 14.2554 198.162 13.9961 198.426 13.7401C198.69 13.484 198.957 13.2312 199.227 12.9817C199.497 12.7322 199.77 12.4861 200.046 12.2435C200.322 12.0007 200.601 11.7616 200.883 11.5258C201.165 11.29 201.45 11.0577 201.738 10.829C202.026 10.6002 202.317 10.3751 202.61 10.1536C202.904 9.93211 203.2 9.71425 203.499 9.50014C203.798 9.28593 204.099 9.07548 204.403 8.86886C204.707 8.66215 205.014 8.45928 205.323 8.26017C205.632 8.06105 205.943 7.86586 206.257 7.67442C219.369 -0.377038 235.37 -1.6896 250.108 1.86255C250.764 3.79396 254.539 5.33609 256.174 6.62113C268.17 16.0491 274.095 29.7042 275.58 44.63C275.854 47.3834 276.726 53.8238 275.875 56.2347L275.759 56.5654C273.457 47.4577 265.802 41.7388 258.124 37.158C252.297 33.6821 246.358 30.8284 240.169 28.0717C238.458 27.31 236.73 26.2872 234.959 25.7019C225.185 32.4386 205.974 40.542 199.384 49.4897C197.494 52.0563 196.392 55.1683 195.827 58.2842C194.298 66.7276 196.087 80.0361 199.63 87.8234L199.392 88.0499C199.126 87.4575 198.86 86.8511 198.502 86.3075C197.646 85.0111 196.582 84.695 195.155 84.3794C195.098 84.4423 195.048 84.5126 194.984 84.5682C194.615 84.8903 194.479 84.9593 194.016 84.9643L193.707 84.5936C193.722 84.0621 193.623 83.8386 193.349 83.4065C193.207 83.1819 193.256 83.3369 193.281 82.9734L194.208 82.9338L194.185 82.8391L193.164 82.4249C192.489 82.0343 191.919 81.47 191.334 80.9578C191.025 80.6678 190.737 80.3643 190.453 80.05C187.651 76.9559 183.594 71.7558 183.917 67.2911C184.098 64.7855 185.535 62.9756 187.355 61.4046L187.504 61.3896C187.665 60.8203 186.197 57.1553 185.994 56.2385L67.6708 56.2471L31.3447 56.2656L20.2771 56.2753C18.0205 56.2757 15.7035 56.381 13.459 56.1564C15.1093 55.9046 16.9838 56.0668 18.6615 56.076L28.2263 56.1039L62.912 56.0653L185.839 56.0599C185.013 52.5553 184.555 48.7294 184.635 45.1372Z" fill="url(#paint2_linear_4691_32355)"/>
<path d="M194.751 80.2656L195.651 80.3338L196.448 82.0491C195.53 82.488 194.664 82.9348 194.287 83.9362L194.401 84.1433L194.956 84.134L195.155 84.379C195.098 84.4419 195.047 84.5122 194.984 84.5679C194.615 84.89 194.479 84.9589 194.016 84.964L193.706 84.5932C193.722 84.0618 193.623 83.8383 193.349 83.4062C193.207 83.1816 193.256 83.3365 193.281 82.973L194.208 82.9334L194.185 82.8388L193.164 82.4246C193.16 81.8271 193.111 81.2443 193.324 80.6758C193.828 80.2885 194.128 80.3306 194.751 80.2656Z" fill="white"/>
<path d="M187.503 61.3906C188.33 62.1741 188.799 63.6848 189.223 64.7418C190.895 68.7783 192.177 73.0181 194.111 76.939C194.687 78.0561 195.194 79.1646 195.651 80.3352L194.751 80.2669C194.128 80.3319 193.828 80.2898 193.324 80.6769C193.111 81.2454 193.16 81.8283 193.164 82.4257C192.489 82.0351 191.919 81.4708 191.334 80.9587C191.024 80.6687 190.737 80.3651 190.453 80.0508C187.651 76.9567 183.594 71.7566 183.917 67.2919C184.098 64.7864 185.534 62.9765 187.355 61.4054L187.503 61.3906Z" fill="#EB915A"/>
<path d="M190.776 75.3249C190.767 75.4117 190.747 75.4981 190.75 75.5853C190.763 75.9503 190.845 76.111 190.79 76.4984C189.824 74.9611 188.749 73.3672 188.072 71.6762C187.314 69.7839 187.204 68.0525 187.999 66.1641C188.27 68.0615 188.64 69.7724 189.34 71.5612C189.802 72.7404 190.563 74.09 190.776 75.3249Z" fill="#EB915A"/>
<path d="M189.224 64.7422C190.896 68.7787 192.178 73.0184 194.111 76.9393C193.328 77.2836 192.829 77.7093 192.224 78.3064C191.523 77.4057 191.159 76.3868 190.777 75.3283C190.564 74.0934 189.803 72.7438 189.341 71.5646C188.641 69.7759 188.271 68.0649 188 66.1675C188.356 65.5132 188.603 65.1618 189.224 64.7422Z" fill="#E37C4F"/>
<path d="M234.959 25.7031C236.729 26.2884 238.458 27.3113 240.168 28.073C246.358 30.8296 252.297 33.6834 258.124 37.1593C265.802 41.74 273.456 47.459 275.759 56.5667C277.103 62.6746 275.716 75.6756 273.924 81.6181C273.447 83.1983 272.804 84.7414 272.145 86.2531C271.888 86.8431 271.435 87.5666 271.291 88.1788C265.813 97.1529 258.231 104.567 247.744 107.125C247.36 107.219 246.972 107.3 246.582 107.369C238.901 109.125 232.119 108.866 224.45 107.299L224.396 109.121C224.302 110.382 224.333 111.741 224.146 112.981C223.599 112.951 223.005 113.101 222.491 112.905C223.071 112.812 223.505 112.761 223.991 112.398C224.086 112.002 224.008 112.036 223.809 111.707C220.53 112.302 216.969 111.485 213.651 111.416L213.921 111.203C213.718 110.892 210.479 108.733 209.749 108.084C205.15 103.991 201.242 98.5177 198.606 92.9888C198.761 92.7603 198.915 92.5349 199.05 92.2935C199.848 90.8635 199.799 89.5915 199.391 88.0513L199.629 87.8248C196.086 80.0374 194.298 66.7289 195.827 58.2855C196.391 55.1696 197.494 52.0577 199.384 49.4911C205.974 40.5433 225.184 32.4399 234.959 25.7031Z" fill="#EB915A"/>
<path d="M237.093 66.8438C239.29 68.8839 235.345 73.6908 236.63 75.5986C237.443 76.8053 239.18 75.8954 240.303 76.325C240.865 76.54 241.032 76.7607 241.238 77.2885C241.11 77.6864 241.075 77.6674 240.713 77.8891C239.536 77.8713 238.373 77.8073 237.264 77.3717C236.387 77.0274 235.598 76.4346 235.258 75.5271C234.599 73.7648 236.36 68.6143 237.093 66.8438Z" fill="#C26C3B"/>
<path d="M235.321 43.2019C235.894 43.1504 236.534 43.0619 237.093 43.2337C237.971 43.5033 238.728 44.2162 239.123 45.035C239.181 45.156 239.232 45.2795 239.276 45.4058C239.321 45.5319 239.359 45.6602 239.39 45.7904C239.421 45.9206 239.446 46.0521 239.463 46.185C239.481 46.3178 239.491 46.4511 239.495 46.5849C239.498 46.7188 239.495 46.8524 239.485 46.986C239.474 47.1196 239.457 47.2521 239.432 47.3839C239.408 47.5155 239.377 47.6456 239.339 47.7743C239.301 47.9026 239.257 48.0287 239.205 48.1525C238.751 49.2285 238 49.7888 236.943 50.2052C236.513 50.2312 236.108 50.2473 235.681 50.1737C234.746 50.0123 233.878 49.5002 233.373 48.6842C232.861 47.8575 232.783 46.8422 233.037 45.9165C233.399 44.5936 234.175 43.8807 235.321 43.2019Z" fill="#C73645"/>
<path d="M251.801 49.8405C253.631 49.7234 255.454 50.1241 257.141 50.8162C260.588 52.2308 263.642 55.0992 265.063 58.5675C264.037 57.7436 262.965 56.9811 261.899 56.2105C258.67 54.3303 254.792 53.1364 251.026 53.5671C249.93 53.6925 248.922 54.1124 247.808 54.1732C247.446 53.901 247.418 53.7946 247.24 53.3704C247.26 52.9846 247.325 52.719 247.546 52.3943C248.545 50.9327 250.11 50.1462 251.801 49.8405Z" fill="url(#paint3_linear_4691_32355)"/>
<path d="M228.434 91.6669C232.542 89.9366 237.476 88.946 241.752 90.7102C242.359 90.9605 242.916 91.2958 243.472 91.6409C243.178 91.968 242.878 92.2861 242.54 92.569C240.426 94.3418 237.621 94.9149 234.925 94.7035C232.465 94.5107 230.069 93.56 228.434 91.6669Z" fill="#C73645"/>
<path d="M219.933 49.683C220.393 49.6199 220.94 49.6109 221.408 49.6434C221.598 49.6567 221.788 49.6793 221.976 49.7112C222.164 49.7431 222.351 49.7842 222.535 49.8344C222.719 49.8849 222.901 49.9442 223.079 50.0123C223.258 50.0806 223.432 50.1573 223.603 50.2426C223.774 50.3281 223.94 50.4218 224.102 50.5237C224.264 50.6256 224.42 50.7351 224.571 50.8523C224.721 50.9694 224.866 51.0938 225.005 51.2254C225.143 51.3569 225.275 51.4949 225.4 51.6393C225.911 52.236 226.391 53.2124 226.316 54.0034C225.584 54.3249 222.064 53.5609 220.96 53.5259C218.32 53.442 215.998 53.9016 213.506 54.7391C211.572 55.5173 209.834 56.4751 208.076 57.5946C208.439 56.9578 208.841 56.3465 209.282 55.7608C211.868 52.2947 215.706 50.3084 219.933 49.683Z" fill="#482C24"/>
<path d="M228.434 91.6626C227.427 90.1785 224.653 85.9794 224.987 84.0995L225.402 83.9688L225.901 84.2977C227.064 83.6681 230.061 84.4548 231.456 84.5916C234.029 84.8441 236.783 84.7266 239.362 84.5552C241.036 84.4442 245.703 83.7813 247.096 84.121C247.285 84.1671 247.345 84.2195 247.491 84.3145C247.365 86.9765 245.264 89.7917 243.473 91.6366C242.916 91.2916 242.359 90.9562 241.752 90.7059C237.476 88.9417 232.543 89.9324 228.434 91.6626Z" fill="#0F0C0D"/>
<path d="M225.9 84.2961C227.063 83.6664 230.061 84.4532 231.455 84.59C234.029 84.8425 236.783 84.7249 239.361 84.5536C241.036 84.4425 245.703 83.7797 247.096 84.1194C247.284 84.1654 247.345 84.2179 247.491 84.3129C244.88 86.295 242.137 87.2703 238.859 87.4827C234.438 87.7695 229.375 87.3181 225.9 84.2961Z" fill="white"/>
<path d="M219.346 71.9793C220.47 73.3753 222.749 73.831 223.091 75.8387C223.238 76.7015 223.026 77.5504 222.471 78.2279C221.17 79.8174 218.217 80.5367 216.24 80.7784C213.103 81.1619 209.418 80.7745 206.886 78.7017C206.179 78.1236 205.566 77.3311 205.535 76.3815C205.504 75.4612 206.002 74.6145 206.619 73.9698C209.218 71.2543 213.753 71.6557 217.199 71.5078C217.912 71.6883 218.621 71.8507 219.346 71.9793Z" fill="#E37C4F"/>
<path d="M254.631 72.1702L257.408 71.5938C257.46 71.6034 257.513 71.6134 257.566 71.6224C260.731 72.1566 264.322 71.6823 266.554 74.63C267.13 75.391 267.49 76.3685 267.325 77.3281C267.155 78.3134 266.403 79.0819 265.607 79.6251C262.934 81.4475 258.78 81.8439 255.676 81.1789C253.786 80.7743 251.49 79.8729 250.385 78.2166C249.949 77.5638 249.654 76.6857 249.824 75.8979C250.05 74.8458 250.948 74.0741 251.837 73.5559C252.726 73.0376 253.694 72.5955 254.631 72.1702Z" fill="#E37C4F"/>
<path d="M217.199 71.5084C215.349 70.5549 213.85 69.3889 213.232 67.3001C212.723 65.5766 212.894 63.7903 213.763 62.2168C214.667 60.5794 216.251 59.0648 218.082 58.5496C219.648 58.1089 221.564 58.3981 222.967 59.2045C224.789 60.2512 225.965 62.2014 226.446 64.2078C226.825 65.787 226.564 67.3451 225.689 68.7151C224.796 70.1153 223.185 71.3774 221.543 71.7363C220.834 71.8917 220.069 71.9227 219.346 71.9799C218.621 71.8512 217.913 71.6888 217.199 71.5084Z" fill="white"/>
<path d="M218.443 61.9832C219.171 61.9646 219.885 61.9703 220.585 62.2028C220.736 62.2532 220.883 62.3112 221.028 62.3767C221.172 62.4421 221.313 62.5147 221.45 62.5945C221.588 62.6742 221.721 62.7607 221.849 62.8538C221.978 62.9469 222.101 63.0462 222.22 63.152C222.338 63.2575 222.451 63.3688 222.558 63.4859C222.665 63.6028 222.766 63.725 222.861 63.8523C222.956 63.9795 223.044 64.1111 223.126 64.2473C223.208 64.3835 223.282 64.5234 223.35 64.6669C223.413 64.804 223.469 64.9441 223.518 65.0873C223.567 65.2301 223.608 65.3752 223.642 65.5226C223.676 65.6697 223.702 65.8183 223.721 65.9683C223.74 66.1181 223.751 66.2685 223.755 66.4198C223.758 66.5707 223.754 66.7214 223.742 66.8718C223.73 67.0225 223.711 67.1722 223.683 67.3207C223.656 67.4693 223.621 67.6162 223.579 67.7614C223.537 67.9064 223.487 68.0489 223.431 68.1889C222.832 69.6795 221.733 70.4548 220.29 71.0258C219.379 71.0891 218.485 71.1219 217.64 70.7162C216.421 70.1309 215.594 69.0724 215.222 67.7835C214.854 66.5093 214.971 65.0255 215.668 63.8806C216.338 62.7799 217.223 62.2789 218.443 61.9832Z" fill="#0F0C0D"/>
<path d="M220.011 62.9062C220.297 63.0012 220.747 63.1477 220.971 63.3594C221.294 63.6637 221.452 63.9801 221.43 64.4297C221.403 64.9844 220.987 65.3597 220.623 65.7235C220.238 65.6439 219.784 65.545 219.476 65.2811C219.137 64.99 218.99 64.6443 219.044 64.1997C219.111 63.6448 219.622 63.2523 220.011 62.9062Z" fill="white"/>
<path d="M254.629 72.1731C253.951 72.1088 253.299 72.021 252.64 71.8471C250.806 71.3621 249.197 70.3446 248.267 68.6491C248.21 68.5479 248.157 68.4454 248.106 68.3416C248.055 68.2376 248.007 68.1324 247.961 68.026C247.916 67.9195 247.873 67.812 247.833 67.7035C247.794 67.595 247.757 67.4853 247.723 67.3746C247.689 67.2641 247.657 67.1528 247.629 67.0407C247.601 66.9283 247.575 66.8154 247.553 66.7021C247.531 66.5886 247.511 66.4746 247.495 66.36C247.479 66.2455 247.465 66.1307 247.455 66.0155C247.444 65.9 247.437 65.7845 247.433 65.6691C247.428 65.5533 247.427 65.4377 247.428 65.3219C247.43 65.2062 247.435 65.0906 247.442 64.9752C247.45 64.8597 247.461 64.7446 247.474 64.6299C247.488 64.5149 247.505 64.4004 247.524 64.2863C247.544 64.1723 247.567 64.0588 247.593 63.9459C247.618 63.8331 247.647 63.721 247.678 63.6099C247.71 63.4984 247.744 63.388 247.781 63.2784C247.819 63.1644 247.86 63.0514 247.903 62.9392C247.946 62.827 247.993 62.7161 248.042 62.6063C248.09 62.4965 248.142 62.388 248.196 62.2806C248.251 62.1734 248.307 62.0675 248.367 61.963C248.427 61.8587 248.489 61.7559 248.553 61.6545C248.618 61.5533 248.685 61.4536 248.755 61.3555C248.825 61.2577 248.897 61.1615 248.971 61.067C249.045 60.9728 249.122 60.8803 249.201 60.7899C249.28 60.6992 249.361 60.6106 249.445 60.5242C249.528 60.4376 249.614 60.3532 249.702 60.271C249.789 60.1886 249.879 60.1085 249.97 60.0306C250.062 59.9527 250.155 59.8773 250.251 59.8042C250.346 59.7309 250.443 59.66 250.542 59.5917C250.641 59.5234 250.741 59.4576 250.844 59.3942C250.946 59.3309 251.049 59.2702 251.155 59.2121C251.26 59.1538 251.366 59.0982 251.474 59.0454C253.2 58.2186 255.349 58.118 257.15 58.7675C259.204 59.5093 260.739 61.087 261.588 63.0708C262.258 64.6343 262.424 66.3567 261.757 67.9516C260.93 69.9251 259.288 70.8425 257.406 71.5968L254.629 72.1731Z" fill="white"/>
<path d="M253.496 61.8203C254.343 61.9099 255.066 62.0035 255.799 62.466C256.876 63.1474 257.558 64.2531 257.78 65.4991C258.018 66.8347 257.7 68.285 256.893 69.3795C256.079 70.4827 255.132 70.907 253.817 71.1308C253.052 70.9637 252.324 70.7823 251.644 70.3783C250.456 69.6719 249.557 68.4942 249.291 67.1278C249.06 65.9432 249.294 64.6633 250.004 63.678C250.889 62.4502 252.055 62.0406 253.496 61.8203Z" fill="#0F0C0D"/>
<path d="M254.61 62.9141C255.047 62.9791 255.43 63.0791 255.806 63.3276C256.137 63.5468 256.374 63.9396 256.393 64.3361C256.421 64.8928 256.033 65.2752 255.69 65.6542C255.249 65.6635 254.755 65.691 254.379 65.4088C254.034 65.1506 253.873 64.7921 253.881 64.3657C253.893 63.7615 254.239 63.3497 254.61 62.9141Z" fill="white"/>
<path d="M199.629 87.8203C202.571 95.3756 209.438 101.501 216.759 104.726C219.242 105.82 221.845 106.56 224.45 107.295L224.395 109.117C224.302 110.377 224.333 111.736 224.146 112.977C223.599 112.946 223.005 113.097 222.491 112.901C223.071 112.808 223.504 112.756 223.991 112.394C224.086 111.998 224.008 112.032 223.809 111.702C220.53 112.297 216.968 111.48 213.651 111.411L213.921 111.199C213.718 110.887 210.478 108.728 209.749 108.079C205.149 103.987 201.242 98.5133 198.605 92.9843C198.761 92.7558 198.915 92.5304 199.05 92.289C199.848 90.859 199.799 89.587 199.391 88.0468L199.629 87.8203Z" fill="#321B17"/>
<defs>
<linearGradient id="paint0_linear_4691_32355" x1="246.783" y1="59.3711" x2="281.692" y2="24.8194" gradientUnits="userSpaceOnUse">
<stop stop-color="#321718"/>
<stop offset="1" stop-color="#241B17"/>
</linearGradient>
<linearGradient id="paint1_linear_4691_32355" x1="256.046" y1="322.76" x2="252.973" y2="332.243" gradientUnits="userSpaceOnUse">
<stop stop-color="#2C0E0B"/>
<stop offset="1" stop-color="#19393C"/>
</linearGradient>
<linearGradient id="paint2_linear_4691_32355" x1="167.468" y1="101.332" x2="139.732" y2="35.1961" gradientUnits="userSpaceOnUse">
<stop stop-color="#442A25"/>
<stop offset="1" stop-color="#42362E"/>
</linearGradient>
<linearGradient id="paint3_linear_4691_32355" x1="259.096" y1="60.1056" x2="251.697" y2="49.2682" gradientUnits="userSpaceOnUse">
<stop stop-color="#351415"/>
<stop offset="1" stop-color="#532C26"/>
</linearGradient>
</defs>
</svg>
