<svg width="261" height="272" viewBox="0 0 261 272" fill="none" xmlns="http://www.w3.org/2000/svg">
<path d="M132.671 0.476562H11.4424V70.2883H132.671V0.476562Z" fill="#332631"/>
<path d="M130.022 2.97656H13.8379V67.3311H130.022V2.97656Z" fill="#24454E"/>
<path d="M127.168 8.375H16.6914V17.7516H127.168V8.375Z" fill="#5BB994"/>
<path d="M122.939 20.4062H36.8711V23.6679H122.939V20.4062Z" fill="#FEC749"/>
<path d="M122.939 26.4688H36.8711V29.7304H122.939V26.4688Z" fill="#332631"/>
<path d="M122.939 32.5391H36.8711V35.8007H122.939V32.5391Z" fill="#332631"/>
<path d="M122.939 38.6016H36.8711V41.8632H122.939V38.6016Z" fill="#332631"/>
<path d="M122.939 44.6641H36.8711V47.9257H122.939V44.6641Z" fill="#FF8C6D"/>
<path d="M122.939 50.7266H36.8711V53.9882H122.939V50.7266Z" fill="#332631"/>
<path d="M122.939 56.7891H36.8711V60.0507H122.939V56.7891Z" fill="#332631"/>
<path d="M33.303 20.4062H19.7988V23.6679H33.303V20.4062Z" fill="#FEC749"/>
<path d="M33.303 26.4688H19.7988V29.7304H33.303V26.4688Z" fill="#C197E1"/>
<path d="M33.303 32.5391H19.7988V35.8007H33.303V32.5391Z" fill="#F3EBBD"/>
<path d="M33.303 38.6016H19.7988V41.8632H33.303V38.6016Z" fill="#B3DCCC"/>
<path d="M33.303 44.6641H19.7988V47.9257H33.303V44.6641Z" fill="#FF8C6D"/>
<path d="M33.303 50.7266H19.7988V53.9882H33.303V50.7266Z" fill="#B3DCCC"/>
<path d="M33.303 56.7891H19.7988V60.0507H33.303V56.7891Z" fill="#DDC4EE"/>
<path d="M147.348 29.9297H132.672V34.9233H147.348V29.9297Z" fill="#231922"/>
<path d="M176.987 64.3361C194.436 64.3361 208.581 50.1911 208.581 32.7423C208.581 15.2935 194.436 1.14844 176.987 1.14844C159.539 1.14844 145.394 15.2935 145.394 32.7423C145.394 50.1911 159.539 64.3361 176.987 64.3361Z" fill="#231922"/>
<path d="M176.987 60.7635C192.464 60.7635 205.01 48.2174 205.01 32.7411C205.01 17.2648 192.464 4.71875 176.987 4.71875C161.511 4.71875 148.965 17.2648 148.965 32.7411C148.965 48.2174 161.511 60.7635 176.987 60.7635Z" fill="#24454E"/>
<path d="M195.106 37.3996C197.492 27.3931 191.315 17.3466 181.309 14.9599C171.302 12.5733 161.256 18.7503 158.869 28.7567C156.483 38.7632 162.66 48.8098 172.666 51.1964C182.673 53.5831 192.719 47.406 195.106 37.3996Z" fill="#21735D"/>
<path d="M176.971 33.9H176.895C176.456 33.9 176.1 33.5439 176.1 33.1051V10.3879C176.1 9.94908 176.455 9.59375 176.895 9.59375H176.971C177.41 9.59375 177.766 9.94991 177.766 10.3879V33.1059C177.766 33.5447 177.411 33.9 176.971 33.9Z" fill="white"/>
<path d="M193.283 33.0285V33.1054C193.283 33.5441 192.927 33.9003 192.488 33.9003H176.733C176.295 33.9003 175.938 33.5441 175.938 33.1054V33.0285C175.938 32.5897 176.295 32.2344 176.733 32.2344H192.488C192.927 32.2336 193.283 32.5897 193.283 33.0285Z" fill="white"/>
<path d="M176.988 36.5856C179.113 36.5856 180.836 34.863 180.836 32.7381C180.836 30.6132 179.113 28.8906 176.988 28.8906C174.863 28.8906 173.141 30.6132 173.141 32.7381C173.141 34.863 174.863 36.5856 176.988 36.5856Z" fill="#C197E1"/>
<path d="M219.802 192.958C223.722 192.67 235.066 204.18 235.066 204.18L249.932 204.882V209.562C249.932 209.562 238.04 212.45 231.951 210.964C228.01 210.003 219.044 204.327 217.083 200.581C215.907 198.336 217.361 193.138 219.802 192.958Z" fill="#DB8462"/>
<path d="M219.802 192.958C222.381 192.769 228.173 197.685 231.834 201.071C229.84 202.041 227.385 204.126 226.578 208.562C222.662 206.32 218.369 203.036 217.083 200.581C215.907 198.336 217.362 193.138 219.802 192.958Z" fill="#E8D738"/>
<path d="M249.128 211.071C253.018 211.317 256.687 211.499 257.45 211.473C258.192 210.157 253.323 208.871 253.32 209.038C253.249 208.838 261.069 209.186 260.997 208.348C260.854 207.13 253.799 206.32 253.827 206.508C253.712 206.317 260.426 204.984 260.283 203.755C259.25 202.532 252.807 203.906 252.879 204.057C252.766 203.928 258.25 200.964 257.673 199.811C256.234 198.826 250.182 202.452 250.319 202.596C250.322 202.595 250.094 200.587 249.94 199.316C249.833 198.438 248.793 198.031 248.793 198.031C248.793 198.031 248.325 200.777 247.004 202.014C246.12 202.842 244.93 204.478 245.305 207.805C245.539 209.881 246.606 210.911 249.128 211.071Z" fill="#DB8462"/>
<path d="M250.89 204.125C250.89 204.125 250.998 206.16 249.265 206.948L251.994 208.518L250.89 204.125Z" fill="#D86249"/>
<path d="M194.201 163.986C194.349 161.603 195.134 158.97 197.335 158.206C199.457 157.469 201.64 158.769 203.484 160.538C204.489 159.218 205.843 157.866 207.603 156.473C210.41 154.254 214.04 153.125 217.873 153.125H218.81C227.395 153.125 234.547 159.343 236.115 167.576C236.49 169.543 235.798 171.567 234.335 172.916C233.474 178.296 231.119 180.692 231.119 180.692V178.856L231.081 179.716C231.081 186.524 226.348 192.125 220.279 192.809V199.597C216.342 199.39 212.871 197.126 210.949 193.799C209.864 194.301 208.647 194.585 207.345 194.572C202.622 194.523 198.624 190.679 198.498 185.936C198.421 183.037 199.821 180.516 202.016 179.023L201.948 175.916C199.936 175.771 197.834 174.597 196.508 172.899C194.539 170.377 194.011 167.059 194.201 163.986ZM219.664 192.86C219.662 192.86 219.659 192.861 219.658 192.861C219.66 192.861 219.662 192.861 219.664 192.86Z" fill="#272C3D"/>
<path d="M203.661 231.151L203.149 217.151C204.818 215.793 206.863 214.32 208.348 214.108C213.874 213.318 218.77 212.797 221.944 221.506L227.676 236.231L235.112 260.28L231.811 262.247C231.811 262.247 226.053 256.756 224.098 254.73C218.192 248.612 220.584 243.893 220.584 243.893L204.691 232.242C204.325 231.895 203.983 231.53 203.661 231.151Z" fill="#1A4C74"/>
<path d="M232.228 250.953L235.111 260.277L231.81 262.245C231.81 262.245 226.882 257.545 224.596 255.238L232.228 250.953Z" fill="#DB8462"/>
<path d="M230.123 261.709C229.99 261.504 230.313 261.153 230.571 261.221C231.003 261.336 231.469 261.4 232.018 261.165C233.741 260.43 233.619 258.194 234.644 256.811C235.644 255.463 238.053 256.966 238.053 256.966C238.16 256.893 238.27 256.812 238.381 256.731C238.383 256.74 238.386 256.748 238.389 256.757C240.359 254.9 242.86 252.951 245.99 253.824C247.121 254.14 248.275 255.397 248.867 257.002C248.867 257.002 248.99 258.275 244.886 261.251C242.48 262.996 238.745 265.678 234.068 266.411C233.523 266.496 233.055 266.333 232.811 265.953L230.123 261.709Z" fill="#EA3240"/>
<path d="M243.661 260.075C242.09 257.305 242.393 255.208 243.212 253.749C244.074 253.555 244.997 253.548 245.99 253.825C246.904 254.08 247.825 254.953 248.459 256.118C248.497 256.188 248.535 256.257 248.572 256.328C248.603 256.39 248.632 256.454 248.662 256.518C248.735 256.675 248.805 256.836 248.867 257.003C248.867 257.003 248.99 258.276 244.886 261.252C244.786 261.324 244.681 261.401 244.577 261.476C242.168 263.216 238.551 265.709 234.068 266.412C233.523 266.497 233.055 266.334 232.811 265.954L232.726 265.82C237.425 264.348 241.043 262.144 243.661 260.075Z" fill="white"/>
<path d="M193.345 242.419C194.65 240.18 200.049 234.669 200.049 234.669L200.747 226.345C199.355 222.872 201.423 217.931 201.906 217.517C203.677 216.001 206.441 214.389 208.351 214.117C212.671 213.5 220.656 218.345 220.656 218.345C220.656 218.345 222.589 228.641 212.575 238.22C206.958 243.592 189.542 261.557 189.542 261.557L187.336 259.054C187.336 259.054 191.146 246.194 193.345 242.419Z" fill="#23689E"/>
<path d="M213.115 223.273C212.4 223.802 211.617 224.2 210.813 224.519C210.006 224.825 209.172 225.062 208.316 225.151C208.105 225.193 207.888 225.188 207.674 225.209C207.459 225.228 207.245 225.238 207.029 225.227L206.382 225.221L205.736 225.157C205.3 225.137 204.879 225.02 204.443 224.96C204.011 224.882 203.592 224.745 203.151 224.661C203.549 224.855 203.957 225.042 204.374 225.205C204.803 225.326 205.226 225.5 205.674 225.558C206.557 225.763 207.478 225.752 208.38 225.667C209.284 225.562 210.166 225.287 210.977 224.888C211.789 224.493 212.535 223.952 213.115 223.273Z" fill="#1D5785"/>
<path d="M200.815 220.049C201.206 218.69 201.7 217.686 201.906 217.509C203.676 215.993 206.441 214.382 208.35 214.109C212.67 213.492 220.655 218.337 220.655 218.337C220.655 218.337 220.878 219.529 220.78 221.475C218.051 222.62 213.48 223.404 206.254 221.699C204.218 221.218 202.417 220.656 200.815 220.049Z" fill="#1D5785"/>
<path d="M187.344 259.027C187.353 258.999 187.369 258.945 187.392 258.869C187.4 258.84 187.41 258.807 187.421 258.771C187.43 258.744 187.439 258.713 187.448 258.683C187.458 258.647 187.471 258.607 187.483 258.566C187.492 258.534 187.502 258.503 187.512 258.468C187.531 258.405 187.553 258.335 187.574 258.263C187.592 258.204 187.611 258.141 187.631 258.077C187.639 258.048 187.649 258.019 187.658 257.99C187.724 257.772 187.799 257.526 187.883 257.255C187.892 257.225 187.901 257.195 187.911 257.165C187.937 257.078 187.965 256.99 187.993 256.898C188.005 256.857 188.019 256.814 188.032 256.772C188.082 256.612 188.134 256.446 188.188 256.273C188.2 256.232 188.213 256.191 188.226 256.149C188.26 256.042 188.294 255.933 188.329 255.822C188.332 255.815 188.334 255.807 188.336 255.8C188.406 255.576 188.479 255.344 188.555 255.106C188.569 255.065 188.582 255.023 188.595 254.981C188.632 254.865 188.669 254.748 188.707 254.63C188.722 254.583 188.737 254.536 188.752 254.489C188.818 254.282 188.886 254.072 188.955 253.858C188.973 253.802 188.992 253.745 189.01 253.688C189.048 253.571 189.087 253.452 189.126 253.332C189.145 253.273 189.165 253.213 189.184 253.154C189.26 252.923 189.337 252.689 189.416 252.452C189.429 252.411 189.442 252.37 189.456 252.329C189.499 252.2 189.542 252.071 189.585 251.941C189.604 251.884 189.623 251.828 189.642 251.771C189.721 251.537 189.8 251.302 189.88 251.066C189.899 251.011 189.917 250.956 189.936 250.901C189.977 250.781 190.018 250.661 190.059 250.54C190.086 250.463 190.113 250.386 190.139 250.309C190.214 250.091 190.29 249.873 190.366 249.655C190.388 249.592 190.41 249.529 190.432 249.466C190.472 249.352 190.512 249.239 190.553 249.126C190.583 249.038 190.614 248.951 190.645 248.864C190.685 248.754 190.724 248.644 190.763 248.534C190.822 248.371 190.881 248.208 190.94 248.047L199.022 251.829C193.936 257.022 189.541 261.557 189.541 261.557L187.335 259.053C187.337 259.052 187.341 259.039 187.344 259.027Z" fill="#DB8462"/>
<path d="M186.087 260.624C186.086 260.622 186.086 260.619 186.086 260.619L186.087 260.618C186.084 260.573 186.092 260.53 186.095 260.487C186.092 260.481 186.09 260.475 186.088 260.469L186.096 260.461C186.107 260.333 186.133 260.21 186.191 260.101L188.103 256.578C188.196 256.402 188.52 256.518 188.553 256.739C188.607 257.11 188.704 257.489 189.023 257.825C190.036 258.895 191.519 257.985 192.815 258.287C193.935 258.547 193.932 260.958 193.91 261.611C195.786 261.812 199.231 262.708 200.56 264.344C201.353 265.156 201.762 266.678 201.562 268.148C201.562 268.148 201.128 269.117 196.754 269.109C195.022 269.105 192.708 269.092 190.273 268.47C190.032 268.408 189.807 268.281 189.633 268.099C187.356 265.712 186.401 262.054 186.155 260.947C186.119 260.838 186.094 260.729 186.087 260.624Z" fill="#EA3240"/>
<path d="M186.087 260.611C186.084 260.566 186.093 260.523 186.095 260.48C186.093 260.474 186.091 260.468 186.088 260.462L186.096 260.454C186.107 260.326 186.133 260.203 186.191 260.094L186.48 259.562C187.73 262.938 188.866 264.88 189.64 265.948C190.176 266.687 191.035 267.121 191.932 267.121H194.031C194.028 267.078 194.022 267.037 194.021 266.993C193.947 264.99 194.824 263.209 196.243 262.06C197.898 262.509 199.686 263.262 200.559 264.338C201.168 264.962 201.547 266.005 201.602 267.122C201.602 267.122 201.602 267.123 201.602 267.123C201.61 267.29 201.612 267.458 201.605 267.627C201.599 267.798 201.585 267.97 201.562 268.141C201.562 268.141 201.128 269.111 196.753 269.102C196.576 269.102 196.391 269.101 196.202 269.1C196.074 269.099 195.942 269.097 195.809 269.096C195.74 269.095 195.673 269.094 195.602 269.093C195.447 269.09 195.289 269.086 195.128 269.081C195.078 269.08 195.027 269.078 194.977 269.077C194.804 269.071 194.629 269.064 194.45 269.056C193.169 268.992 191.744 268.84 190.273 268.464C190.032 268.403 189.807 268.275 189.633 268.093C187.356 265.707 186.402 262.048 186.155 260.942C186.119 260.832 186.094 260.724 186.087 260.618C186.087 260.616 186.086 260.612 186.086 260.612L186.087 260.611Z" fill="white"/>
<path d="M216.297 189.531L211.965 189.269C209.377 189.112 206.935 190.655 205.968 193.033C204.572 196.467 203.121 206.115 202.342 212.212C201.981 215.039 201.226 217.435 201.226 217.435C201.226 217.435 205.396 220.139 212.027 220.195C215.977 220.228 220.422 220.584 221.819 218.881C221.819 218.881 221.088 216.947 221.827 214.771C223.748 209.114 226.569 198.154 221.976 192.559C221.442 191.908 220.863 191.288 220.153 190.813C219.027 190.058 217.697 189.616 216.297 189.531Z" fill="#FDEF6A"/>
<path d="M201.295 217.473C201.272 217.458 201.261 217.453 201.251 217.446C201.236 217.437 201.227 217.431 201.227 217.431C201.227 217.431 201.981 215.035 202.343 212.208C202.377 211.938 202.413 211.661 202.45 211.379C202.461 211.295 202.473 211.208 202.484 211.123C202.511 210.918 202.538 210.712 202.566 210.501C202.576 210.425 202.588 210.347 202.598 210.27C202.628 210.046 202.659 209.821 202.69 209.591C202.701 209.511 202.713 209.431 202.724 209.351C202.755 209.123 202.787 208.894 202.82 208.662C202.833 208.571 202.846 208.479 202.859 208.387C202.891 208.163 202.923 207.938 202.956 207.71C202.971 207.613 202.985 207.514 202.999 207.416C203.032 207.191 203.065 206.966 203.099 206.739C203.114 206.64 203.129 206.539 203.144 206.439C203.178 206.214 203.212 205.988 203.247 205.761C203.263 205.655 203.279 205.549 203.296 205.443C203.33 205.223 203.364 205.003 203.399 204.783C203.405 204.74 203.412 204.698 203.419 204.655L203.419 204.655C203.807 202.208 204.239 199.76 204.689 197.663L212.845 197.352L211.063 204.401C209.99 208.643 213.247 212.764 217.621 212.666C219.722 212.62 221.505 212.001 222.906 211.252C222.55 212.554 222.175 213.747 221.829 214.767C221.09 216.943 221.821 218.877 221.821 218.877C220.423 220.58 215.979 220.224 212.028 220.191C205.913 220.139 201.901 217.84 201.312 217.482C201.305 217.479 201.299 217.476 201.295 217.473Z" fill="#DECE35"/>
<path d="M213.619 179.984L220.54 186.348L219.653 190.49C220.041 190.712 220.414 190.964 220.84 191.333C221.241 192.967 221.567 195.553 219.499 195.705C216.29 195.942 216.533 191.994 211.965 189.267C212.572 189.219 213.619 179.984 213.619 179.984Z" fill="#D86249"/>
<path d="M213.62 179.984L220.54 186.348L219.654 190.49C220.042 190.712 220.415 190.964 220.841 191.333C221 191.982 221.145 192.781 221.135 193.518C221.029 193.509 220.926 193.505 220.818 193.495C218.843 193.299 216.768 192.673 214.821 191.696C214.119 190.869 213.23 190.021 211.966 189.266C212.573 189.219 213.62 179.984 213.62 179.984Z" fill="#C94327"/>
<path d="M226.276 175.797C224.49 179.065 225.239 182.813 227.948 184.167C230.658 185.522 234.303 183.972 236.089 180.704C237.875 177.436 237.127 173.689 234.417 172.334C231.707 170.979 228.062 172.53 226.276 175.797Z" fill="#C94327"/>
<path d="M227.844 182.034C227.855 181.901 227.881 181.785 227.896 181.657C227.876 181.75 227.863 181.827 227.856 181.889C227.873 181.224 227.975 180.68 228.151 180.253C229.562 174.721 234.97 174.164 234.97 174.164C232.23 175.745 230.52 177.49 229.461 178.936C231.405 178.179 234.41 179.783 234.41 179.783C230.844 178.879 229.223 179.627 228.478 180.496C227.987 181.431 227.844 182.034 227.844 182.034Z" fill="#C94327"/>
<path d="M220.861 191.796C231.668 192.867 237.058 184.668 234.072 179.16V168.071C234.072 162.885 229.676 158.68 224.253 158.68H217.469C212.046 158.68 207.65 162.884 207.65 168.071V179.16C207.65 186.139 214.788 191.194 220.861 191.796Z" fill="#DB8462"/>
<path d="M229.617 179.357C229.617 180.535 229.082 181.49 228.422 181.49C227.761 181.49 227.225 180.535 227.225 179.357C227.225 178.179 227.761 175.039 228.422 175.039C229.082 175.039 229.617 178.179 229.617 179.357Z" fill="#C94327"/>
<path d="M228.238 183.954C228.422 183.954 228.594 183.946 228.749 183.931C228.936 183.914 229.072 183.756 229.054 183.577C229.036 183.399 228.874 183.269 228.683 183.285C228.537 183.298 225.096 183.58 224.531 181.016C224.493 180.84 224.313 180.729 224.129 180.764C223.946 180.802 223.828 180.974 223.866 181.149C224.36 183.389 226.709 183.954 228.238 183.954Z" fill="#C94327"/>
<path d="M233.203 175.614C233.203 176.584 232.86 177.37 232.436 177.37C232.013 177.37 231.67 176.584 231.67 175.614C231.67 174.645 232.013 173.859 232.436 173.859C232.86 173.859 233.203 174.645 233.203 175.614Z" fill="#2E230E"/>
<path d="M236.215 173.712C236.215 173.712 232.022 171.405 229.762 171.108C229.762 171.108 230.383 168.42 233.384 169.71C236.384 170.999 236.215 173.712 236.215 173.712Z" fill="#272C3D"/>
<path d="M221.82 175.607C221.82 176.576 222.164 177.362 222.587 177.362C223.01 177.362 223.354 176.576 223.354 175.607C223.354 174.637 223.01 173.852 222.587 173.852C222.164 173.851 221.82 174.637 221.82 175.607Z" fill="#2E230E"/>
<path d="M218.587 173.69C218.587 173.69 222.803 171.422 225.066 171.145C225.066 171.145 224.654 168.381 221.641 169.642C218.627 170.905 218.587 173.69 218.587 173.69Z" fill="#272C3D"/>
<path d="M220.75 181.582C220.701 181.582 220.65 181.571 220.603 181.549C220.434 181.471 220.364 181.277 220.445 181.116L221.516 178.996C221.597 178.834 221.8 178.767 221.969 178.844C222.138 178.922 222.209 179.117 222.127 179.278L221.057 181.398C220.998 181.514 220.877 181.582 220.75 181.582Z" fill="#C94327"/>
<path d="M218.611 181.582C218.562 181.582 218.511 181.571 218.463 181.549C218.294 181.471 218.224 181.277 218.305 181.116L219.376 178.996C219.458 178.834 219.661 178.767 219.829 178.844C219.999 178.922 220.069 179.117 219.988 179.278L218.917 181.398C218.858 181.514 218.737 181.582 218.611 181.582Z" fill="#C94327"/>
<path d="M233.62 181.581C233.494 181.581 233.373 181.514 233.314 181.398L232.243 179.278C232.162 179.117 232.232 178.922 232.402 178.844C232.571 178.767 232.773 178.834 232.855 178.996L233.926 181.116C234.008 181.277 233.937 181.471 233.768 181.549C233.72 181.571 233.67 181.581 233.62 181.581Z" fill="#C94327"/>
<path d="M221.941 150.54C217.693 150.509 212.966 151.597 209.966 153.676C203.536 158.132 201.873 163.293 203.065 167.242C204.109 170.699 205.842 171.848 205.842 171.848C206.809 176.656 209.405 179.388 209.405 179.388V173.765C209.405 173.765 216.801 173.656 215.982 161.662C215.982 161.662 230.409 161.043 234.073 168.065C234.351 168.598 234.073 177.36 234.073 177.36C234.073 177.36 235.872 176.223 236.792 171.185C236.792 171.185 240.549 168.447 239.683 164.346C238.054 156.625 231.115 150.606 221.941 150.54Z" fill="#353C54"/>
<path d="M210.973 175.797C212.759 179.065 212.01 182.813 209.301 184.167C206.591 185.522 202.946 183.972 201.16 180.704C199.374 177.436 200.122 173.689 202.832 172.334C205.542 170.979 209.186 172.53 210.973 175.797Z" fill="#DB8462"/>
<path d="M209.404 182.034C209.393 181.901 209.367 181.785 209.353 181.657C209.373 181.75 209.386 181.827 209.392 181.889C209.375 181.224 209.274 180.68 209.098 180.253C207.686 174.721 202.279 174.164 202.279 174.164C205.018 175.745 206.728 177.49 207.788 178.936C205.844 178.179 202.838 179.783 202.838 179.783C206.404 178.879 208.025 179.627 208.77 180.496C209.261 181.431 209.404 182.034 209.404 182.034Z" fill="#C94327"/>
<path d="M193.726 205.067C193.726 205.067 201.576 194.512 205.193 191.501C206.273 190.602 209.182 188.963 210.461 189.543C212.12 190.296 213.421 194.57 213.051 196.353C212.334 199.813 205.892 207.444 199.632 211.001C191.217 215.784 177.623 205.44 177.623 205.44V201.069L193.726 205.067Z" fill="#DB8462"/>
<path d="M205.193 191.501C206.273 190.602 209.182 188.963 210.461 189.543C212.12 190.296 213.421 194.57 213.051 196.353C212.622 198.425 210.14 201.99 206.874 205.282C205.676 203.225 203.116 199.53 199.39 197.827C201.479 195.281 203.697 192.746 205.193 191.501Z" fill="#FDEF6A"/>
<path d="M147.824 156.599C154.368 162.143 161.72 185.755 161.72 185.755L177.622 199.854C177.622 199.854 179.283 205.87 177.622 205.455C164.27 202.117 155.72 197.143 150.768 191.408C146.594 186.572 141.261 174.961 139.555 168.444C137.071 158.956 144.812 154.048 147.824 156.599Z" fill="#D67049"/>
<path d="M144.957 180.747C142.629 176.23 140.317 171.351 139.556 168.445C137.072 158.956 144.813 154.048 147.825 156.599C151.881 160.036 156.247 170.413 158.981 177.807C155.854 177.98 150.46 178.6 144.957 180.747Z" fill="#6925AE"/>
<path d="M180.454 197.82C181.486 197.656 182.533 198.065 183.227 198.904L184.36 200.271C184.792 200.792 184.693 201.592 184.151 201.965L182.544 203.071L184.815 209.394C184.946 209.934 184.781 210.504 184.389 210.868L183.562 211.637C183.109 212.058 182.448 212.118 181.925 211.787L178.054 208.824L174.41 209.642C173.79 209.782 173.143 209.552 172.721 209.042L171.17 207.169C171.041 207.014 170.949 206.837 170.875 206.65L170.874 206.651C170.874 206.651 169.293 203.419 170.015 200.858C170.095 200.574 170.252 200.323 170.436 200.104L172.426 197.727C173.036 196.997 173.955 196.658 174.874 196.822L180.454 197.82Z" fill="#D67049"/>
<path d="M174.313 200.923C174.617 200.454 174.851 199.914 175.087 199.383C174.882 198.474 174.442 196.743 173.91 195.915C173.403 195.124 172.517 195.373 172.517 195.373C172.517 195.373 172.566 198.113 172.608 200.079C172.613 200.313 172.592 200.54 172.559 200.765C173.149 200.661 173.761 200.699 174.313 200.923Z" fill="#C94327"/>
<path d="M175.796 198.6C176.605 198.207 178.88 197.835 179.883 198.331C178.926 198.689 177.769 199.222 177.155 199.885C177.155 199.885 177.037 200.136 176.905 200.523C176.9 200.524 176.895 200.526 176.891 200.528C176.895 200.527 176.9 200.526 176.904 200.525C176.665 201.224 176.376 202.372 176.632 203.338L176.048 203.742C176.048 203.742 174.854 202.898 173.937 203.769L173.35 203.781L172.95 204.004L172.493 199.854C172.496 199.853 172.499 199.853 172.503 199.852C172.443 198.751 172.78 197.677 173.825 196.84C177.122 194.547 179.953 195.21 180.189 195.854C180.535 196.799 176.721 198.094 175.796 198.6Z" fill="#DB8462"/>
<path d="M175.398 204.103C175.488 205.459 175.565 207.645 175.498 208.944C176.158 207.148 176.47 205.642 176.282 204.314C176.275 204.264 176.3 203.8 177.486 203.89C177.733 203.909 177.858 204.205 177.923 204.443C178.33 205.939 179.053 208.223 179.053 208.223C178.95 206.99 178.776 205.749 178.522 204.578C178.477 204.368 179.063 204.169 179.296 204.107C179.593 204.026 180.132 204.123 180.238 204.411C180.767 205.855 181.591 207.878 182.216 209.158C181.91 207.462 181.288 205.652 180.719 204.105C180.631 203.864 180.524 203.531 180.913 203.39C181.292 203.253 182.073 202.858 182.073 202.858C182.073 202.858 180.816 202.948 179.578 203.465C178.685 203.839 177.812 203.64 177.124 202.979C176.702 202.575 176.849 201.188 177.153 199.891C176.958 199.863 175.849 201.593 176.405 203.093C175.268 202.899 173.16 203.551 173.051 204.132C172.967 204.58 172.955 205.013 172.993 205.444C173.029 205.862 173.063 206.257 172.93 206.581C172.834 206.814 172.666 206.987 172.468 207.094C172.481 207.309 173.326 207.227 173.497 206.814C173.688 206.352 173.645 205.863 173.603 205.39C173.569 205.001 173.537 204.633 173.636 204.314C173.667 204.215 173.674 204.192 174.029 204.024L174.021 204.009C174.264 203.894 174.508 203.785 174.753 203.69C175.054 203.575 175.377 203.782 175.398 204.103Z" fill="#C94327"/>
<path d="M102.431 227.949C105.309 225.688 115.168 220.795 115.168 220.795C115.168 220.795 116.176 203.142 117.19 198.617C117.987 195.063 119.501 186.461 119.501 186.461L147.826 201.161C147.826 201.161 135.157 227.306 128.823 231.941C120.961 237.695 90.8839 249.899 90.8839 249.899L90.0346 240.065C90.0346 240.065 99.0353 230.617 102.431 227.949Z" fill="#09101F"/>
<path d="M91.4323 238.432C91.802 238.334 92.0693 238.98 91.8029 239.329C91.3572 239.913 90.9574 240.569 90.9124 241.494C90.7709 244.395 93.9254 245.292 95.1393 247.473C96.3229 249.6 92.6456 252.434 92.6456 252.434C92.6753 252.627 92.7121 252.829 92.7494 253.032C92.7355 253.032 92.7217 253.031 92.7083 253.032C93.9427 256.837 94.9475 261.471 91.6547 265.675C90.4643 267.195 87.9649 268.294 85.3642 268.394C85.3642 268.394 83.5315 267.963 82.1871 260.464C81.3984 256.068 80.2105 249.257 82.3315 241.993C82.5783 241.147 83.1168 240.534 83.8007 240.357L91.4323 238.432Z" fill="#8E51CC"/>
<path d="M84.6245 259.223C89.4808 258.237 92.16 259.694 93.6182 261.608C93.3083 262.974 92.6999 264.341 91.6544 265.676C90.6927 266.903 88.8782 267.844 86.8518 268.219C86.7308 268.242 86.6103 268.266 86.4878 268.285C86.3812 268.301 86.275 268.314 86.1674 268.326C85.9015 268.359 85.6341 268.385 85.3634 268.396C85.3634 268.396 83.5308 267.965 82.1864 260.465C82.1534 260.283 82.1199 260.091 82.0859 259.901C81.3054 255.503 80.2977 248.957 82.3308 241.994C82.5776 241.149 83.1161 240.536 83.8 240.358L84.042 240.297C82.9224 247.95 83.5308 254.358 84.6245 259.223Z" fill="white"/>
<path d="M116.738 192.254C117.089 190.833 117.646 189.72 118.261 189.038C119.64 187.513 121.292 186.338 123.09 185.438C133.186 180.38 147.829 190.59 147.829 190.59V201.16C147.829 201.16 158.812 216.491 160.603 220.427C164.563 229.131 174.977 255.872 174.977 255.872L166.265 257.14C166.265 257.14 150.398 244.473 148.583 238.819C147.999 237.002 147.173 231.761 147.082 231.176C147.045 231.229 120.435 211.53 120.435 211.53C113.459 206.326 115.278 198.161 116.738 192.254Z" fill="#17264A"/>
<path d="M147.83 192.778V200.051C145.78 201.496 141.551 202.899 132.874 201.923C123.032 200.816 118.788 200.008 115.703 197.142C115.97 195.423 116.366 193.764 116.74 192.253C116.921 191.521 117.157 190.872 117.426 190.32L129.657 191.894L147.83 192.778Z" fill="#09101F"/>
<path d="M164.895 256.452C164.753 256.098 165.322 255.703 165.685 255.905C166.292 256.244 166.962 256.522 167.838 256.39C170.604 255.974 171.082 252.549 173.052 250.832C175.003 249.132 178.181 252.435 178.181 252.435C178.368 252.365 178.564 252.285 178.76 252.204C178.762 252.218 178.763 252.233 178.764 252.247C182.44 250.147 187.061 248.071 191.599 250.737C193.234 251.697 194.496 254.136 194.727 256.85C194.727 256.85 194.377 258.834 186.973 261.614C182.751 263.199 176.371 265.562 169.372 264.773C168.563 264.682 167.932 264.269 167.683 263.64L164.895 256.452Z" fill="#8E51CC"/>
<path d="M185.573 259.385C184.215 254.576 185.464 251.453 187.297 249.484C188.717 249.527 190.161 249.893 191.599 250.738C192.92 251.514 193.986 253.259 194.473 255.328C194.503 255.45 194.533 255.572 194.558 255.697C194.58 255.806 194.598 255.915 194.617 256.025C194.663 256.296 194.703 256.571 194.727 256.851C194.727 256.851 194.378 258.835 186.973 261.615C186.796 261.681 186.611 261.751 186.426 261.82C182.212 263.394 176.078 265.531 169.372 264.774C168.563 264.683 167.932 264.271 167.683 263.641L167.596 263.418C174.86 263.154 180.915 261.394 185.573 259.385Z" fill="white"/>
<path d="M148.901 157.931C146.796 153.647 133.307 151.383 133.307 151.383C133.307 151.383 120.431 152.75 117.85 156.687C114.874 161.226 119.913 174.386 119.216 179.947C119.099 180.884 118.667 182.47 118.207 183.992C117.3 186.994 116.795 190.051 116.68 193.099L116.62 194.68C116.62 194.68 125.175 199.156 135.721 199.045C142.054 198.979 145.894 199.001 147.877 196.285C147.877 196.285 152.271 164.787 148.901 157.931Z" fill="#8E51CC"/>
<path d="M130.72 176.934C128.468 176.738 126.8 174.755 126.995 172.502L127.457 167.164L135.612 167.87L135.15 173.208C134.956 175.461 132.972 177.129 130.72 176.934Z" fill="#7938BA"/>
<path d="M116.68 193.102C116.796 190.054 117.301 186.997 118.208 183.995C118.276 183.768 118.343 183.541 118.409 183.315C118.789 182.016 119.117 180.747 119.217 179.949C119.529 177.453 118.687 173.427 117.932 169.336L124.854 174.818L124.26 178.829C123.6 183.277 128.416 188.51 132.868 189.137C139.846 190.121 144.941 188.828 149.116 185.697C148.514 191.725 147.878 196.288 147.878 196.288C145.895 199.004 142.055 198.981 135.721 199.048C125.176 199.159 116.621 194.682 116.621 194.682L116.68 193.102Z" fill="#6925AE"/>
<path d="M127.996 152.24C128.71 151.495 130.097 149.323 131.003 141.741L131.581 142.131L131.678 141.648L141.002 144.388L140.993 145.126L142.878 145.434C142.786 148.485 142.437 151.464 142.132 153.57C142.556 153.733 142.978 153.898 143.393 154.064C144.804 157.223 146.564 162.646 142.619 163.723C136.496 165.394 135.826 156.538 125.921 152.712C126.531 152.541 127.382 152.397 127.996 152.24Z" fill="#D86249"/>
<path d="M137.308 153.287C134.045 152.411 131.385 151.356 129.194 150.18C129.811 148.637 130.485 146.073 131.003 141.741L131.581 142.131L131.678 141.648L141.002 144.388L140.993 145.127L142.878 145.434C142.786 148.485 142.437 151.465 142.132 153.57C142.485 153.706 142.834 153.844 143.182 153.982C141.368 154.055 139.408 153.851 137.308 153.287Z" fill="#C94327"/>
<path d="M146.753 131.863C143.948 135.465 143.921 140.086 146.697 142.208C149.489 144.343 154.069 143.154 156.922 139.529C159.787 135.89 159.801 131.209 156.961 129.098C154.135 126.999 149.568 128.247 146.753 131.863Z" fill="#C94327"/>
<path d="M147.079 139.625C147.122 139.467 147.179 139.334 147.226 139.182C147.181 139.29 147.149 139.381 147.126 139.454C147.302 138.658 147.546 138.023 147.849 137.541C150.775 131.139 157.169 131.408 157.169 131.408C153.613 132.84 151.225 134.641 149.664 136.193C152.083 135.628 155.186 138.106 155.186 138.106C151.271 136.372 149.227 136.982 148.167 137.893C147.384 138.928 147.079 139.625 147.079 139.625Z" fill="#C94327"/>
<path d="M119.678 102.73C119.044 101.704 119.596 100.339 120.778 100.102C121.676 99.9216 122.459 99.9317 123.142 100.066C122.966 99.0989 123.156 98.2082 123.458 97.486C123.924 96.3733 125.356 96.0299 126.236 96.8541C127.364 97.9107 127.865 99.0147 128.02 100.042C137.115 95.3315 148.834 98.1757 155.289 104.182C157.622 102.027 160.862 100.967 164.163 101.614C169.739 102.707 173.35 108.235 172.228 113.959C171.863 115.822 171.036 117.471 169.902 118.818C169.712 119.123 169.511 119.421 169.286 119.699C167.413 122.01 164.255 122.782 161.237 122.523C160.224 129.673 155.649 135.219 155.649 135.219L155.615 135.112C155.348 136.398 155.106 137.689 154.884 138.983L134.505 134.925L131.839 148.314C130.025 147.04 128.387 145.479 126.959 143.792C126.224 143.889 125.45 143.803 124.713 143.667C123.482 143.44 122.229 143.074 121.284 142.253C120.338 141.433 119.779 140.061 120.223 138.891C119.529 139.523 118.521 140.189 117.741 139.669C117.27 139.354 117.129 138.735 117.062 138.173C116.712 135.252 117.193 131.289 119.565 129.167C116.894 122.317 115.237 112.604 122.134 104.691C120.944 104.324 120.169 103.522 119.678 102.73Z" fill="#353C54"/>
<path d="M123.621 131.093C128.348 125.785 129.293 120.726 129.115 117.089C130.182 117.88 131.294 118.607 132.47 119.215C133.993 120.003 135.836 120.597 137.32 119.905C138.805 119.209 139.11 116.745 137.532 116.148C140.496 117.532 143.495 118.813 146.522 119.99C147.891 120.522 149.464 121.032 150.848 120.386C151.58 120.044 152.03 119.226 152.08 118.489C153.877 120.058 156.004 121.247 158.284 121.943C158.25 122.747 158.153 123.563 157.98 124.383C156.879 129.654 154.736 133.717 155.654 139.025C156.528 144.085 149.607 154.282 137.469 151.024C121.128 146.639 121.589 137.222 120.662 131.528L123.621 131.093Z" fill="#DB8462"/>
<path d="M145.763 142.584C147.037 142.584 147.979 142.286 148.002 142.278C148.296 142.182 148.456 141.865 148.36 141.571C148.263 141.277 147.947 141.117 147.653 141.212C147.457 141.276 142.813 142.721 140.814 138.216C140.688 137.933 140.357 137.806 140.074 137.931C139.791 138.056 139.663 138.388 139.789 138.671C141.233 141.925 143.866 142.584 145.763 142.584Z" fill="#C94327"/>
<path d="M148.783 137.297C148.467 138.906 147.35 139.189 146.091 138.921C144.83 138.653 143.903 137.935 144.219 136.32C144.449 135.151 146.083 132.26 147.343 132.534C148.601 132.808 149.011 136.133 148.783 137.297Z" fill="#C94327"/>
<path d="M137.316 137.804C137.258 137.79 137.202 137.764 137.152 137.723C136.975 137.58 136.941 137.318 137.075 137.138L138.837 134.78C138.972 134.601 139.223 134.574 139.4 134.716C139.577 134.86 139.611 135.121 139.477 135.301L137.716 137.657C137.619 137.787 137.462 137.838 137.316 137.804Z" fill="#C94327"/>
<path d="M134.822 137.225C134.764 137.211 134.708 137.185 134.658 137.144C134.48 137 134.445 136.737 134.58 136.557L136.35 134.195C136.484 134.015 136.738 133.987 136.914 134.131C137.092 134.275 137.127 134.538 136.992 134.717L135.225 137.078C135.127 137.208 134.969 137.259 134.822 137.225Z" fill="#C94327"/>
<path d="M152.054 141.267C151.912 141.233 151.791 141.118 151.753 140.959L151.055 138.057C151.001 137.836 151.128 137.615 151.339 137.565C151.549 137.515 151.761 137.652 151.815 137.873L152.511 140.773C152.564 140.994 152.438 141.214 152.228 141.266C152.169 141.28 152.11 141.279 152.054 141.267Z" fill="#C94327"/>
<path d="M154.506 141.829C154.363 141.796 154.243 141.68 154.204 141.522L153.506 138.62C153.453 138.399 153.58 138.178 153.79 138.127C154.001 138.078 154.213 138.215 154.267 138.436L154.963 141.336C155.017 141.557 154.89 141.777 154.68 141.829C154.621 141.842 154.562 141.842 154.506 141.829Z" fill="#C94327"/>
<path d="M135.66 126.779C135.66 126.779 142.278 124.711 144.945 125.008C144.945 125.008 144.187 121.834 140.403 122.54C136.594 123.251 135.66 126.779 135.66 126.779Z" fill="#353C54"/>
<path d="M139.387 130.04C139.138 131.311 139.437 132.44 140.054 132.561C140.672 132.682 141.375 131.75 141.624 130.478C141.873 129.206 141.575 128.077 140.957 127.956C140.339 127.835 139.636 128.768 139.387 130.04Z" fill="#2E230E"/>
<path d="M157.714 131.571C157.714 131.571 153.156 127.34 150.664 126.338C150.664 126.338 152.379 123.624 155.456 126.065C158.514 128.49 157.714 131.571 157.714 131.571Z" fill="#353C54"/>
<path d="M151.405 132.402C151.15 133.704 151.456 134.86 152.088 134.984C152.721 135.108 153.44 134.153 153.695 132.851C153.95 131.549 153.645 130.393 153.012 130.269C152.381 130.144 151.661 131.1 151.405 132.402Z" fill="#2E230E"/>
<path d="M127.953 128.173C129.191 132.567 127.472 136.857 124.1 137.774C120.709 138.696 116.916 135.866 115.642 131.432C114.364 126.981 116.117 122.641 119.545 121.759C122.953 120.882 126.711 123.763 127.953 128.173Z" fill="#DB8462"/>
<path d="M124.721 135.24C124.741 135.077 124.738 134.932 124.752 134.774C124.753 134.891 124.748 134.987 124.742 135.063C124.879 134.26 124.893 133.579 124.794 133.019C124.502 125.986 118.479 123.82 118.479 123.82C121.232 126.489 122.763 129.059 123.622 131.085C121.595 129.648 117.787 130.772 117.787 130.772C122.066 130.644 123.729 131.981 124.367 133.224C124.701 134.479 124.721 135.24 124.721 135.24Z" fill="#C94327"/>
<path d="M95.5978 211.365H95.5968C95.5968 211.365 95.6576 207.768 97.4644 205.815C97.6653 205.598 97.9188 205.446 98.1818 205.335L98.4439 205.223C98.8126 192.571 104.142 182.479 104.142 182.479C104.142 182.479 112.984 161.537 117.853 156.682C119.098 155.44 123.417 155.062 124.857 156.07C127.286 157.769 129.58 163.482 129.06 166.401C128.152 171.503 114.883 187.369 114.883 187.369L106.171 206.36L108.142 207.856C109.136 208.179 109.883 209.019 110.121 210.082L110.508 211.814C110.63 212.362 110.338 212.91 109.863 213.131C109.622 212.603 108.449 213.389 107.894 213.315C107.175 213.22 105.38 211.534 105.27 213.245C105.12 215.569 105.149 217.901 105.177 220.23C105.181 220.499 105.191 220.789 105.356 221.001C105.46 221.135 105.612 221.21 105.778 221.239C105.757 221.247 105.739 221.26 105.718 221.266L104.631 221.574C104.037 221.743 103.421 221.497 103.105 220.964L101.004 216.565L97.386 215.637C96.7705 215.479 96.2989 214.98 96.1545 214.335L95.6236 211.961C95.5806 211.765 95.5786 211.564 95.5978 211.365Z" fill="#DB8462"/>
<path d="M117.853 156.682C119.098 155.44 123.417 155.062 124.857 156.07C127.286 157.769 129.58 163.482 129.06 166.401C128.535 169.353 123.874 175.904 120.037 180.905C118.137 178.028 114.196 173.218 108.712 172.362C111.61 166.282 115.284 159.243 117.853 156.682Z" fill="#8E51CC"/>
<path d="M77.6055 160.611C82.0968 157.947 87.9176 160.252 89.3165 165.283C91.8834 174.514 93.112 186.44 93.112 186.44L98.874 199.998C98.6507 201.672 98.4953 203.416 98.4431 205.214L98.181 205.326C97.918 205.438 97.664 205.589 97.4637 205.806C96.2914 207.073 95.8558 209.027 95.6932 210.247C82.9165 196.446 81.1221 188.507 81.1221 188.507L74.2228 170.27C72.8549 166.656 74.2821 162.582 77.6055 160.611Z" fill="#FBB885"/>
<path opacity="0.38" d="M74.2217 170.27C72.8544 166.656 74.2815 162.582 77.6049 160.611C82.0962 157.947 87.9171 160.252 89.316 165.283C90.4088 169.213 91.2587 173.63 91.8747 177.409C91.5576 178.043 91.2807 178.696 91.0703 179.377C89.987 182.886 91.329 186.54 91.8608 190.02C92.5624 194.614 91.911 199.402 90.0229 203.647C82.3569 193.95 81.1211 188.508 81.1211 188.508L74.2217 170.27Z" fill="#EA9588"/>
<path d="M105.269 213.24C105.379 211.529 107.174 213.215 107.893 213.31C108.448 213.384 109.621 212.597 109.862 213.126C109.902 213.212 109.919 213.33 109.902 213.497C109.819 214.285 109.701 215.07 109.546 215.848C109.451 216.326 109.341 216.804 109.151 217.253C108.94 217.751 108.633 218.202 108.328 218.649C107.957 219.194 107.586 219.739 107.215 220.284C106.995 220.606 106.763 220.94 106.422 221.127C106.229 221.233 105.992 221.272 105.778 221.234C105.613 221.205 105.46 221.13 105.356 220.996C105.191 220.784 105.181 220.494 105.177 220.225C105.148 217.896 105.12 215.564 105.269 213.24Z" fill="#FBB885"/>
<path d="M20.2027 268.208C20.2027 269.799 21.4921 271.088 23.0823 271.088C24.6725 271.088 25.9619 269.799 25.9619 268.208C25.9619 266.618 24.6725 265.328 23.0823 265.328C21.4921 265.328 20.2027 266.617 20.2027 268.208Z" fill="#2B4348"/>
<path d="M1.11358 271.088C-0.47677 271.088 -1.766 269.799 -1.766 268.208C-1.766 266.618 -0.47677 265.328 1.11358 265.328C2.70393 265.328 3.99316 266.618 3.99316 268.208C3.99316 269.799 2.70393 271.088 1.11358 271.088Z" fill="#2B4348"/>
<path d="M-0.516537 212.492H23.7913C25.2797 212.492 26.7322 212.947 27.9546 213.796L39.2988 222.213L30.9686 262.108C30.2148 265.341 27.3328 267.629 24.0128 267.629H0.0281868C-0.618416 267.629 -1.25591 267.478 -1.8346 267.189L-11.3285 260.296C-14.1966 258.344 -15.5687 254.828 -14.781 251.448L-7.10165 217.72C-6.38809 214.659 -3.65916 212.492 -0.516537 212.492Z" fill="#5ECCA0"/>
<path d="M12.1494 228.644L-5.25151 214.437C-4.64508 213.842 -3.93008 213.364 -3.14191 213.031L12.1494 224.503V228.644Z" fill="#8EE3B9"/>
<path d="M-10.2501 261.078L-10.7872 260.688L-0.871037 218.489C-0.567345 217.194 0.575197 216.289 1.90571 216.289H31.3157L32.1416 216.902H1.90571C0.860716 216.902 -0.0355377 217.612 -0.275143 218.629L-10.2501 261.078Z" fill="#477793"/>
<path d="M39.7682 224.356L30.9678 262.107C30.214 265.341 27.3321 267.629 24.012 267.629H-0.310261C-2.1329 267.629 -3.48302 265.935 -3.07746 264.158L5.98409 224.471C6.41739 222.573 8.10516 221.227 10.0517 221.227H37.2846C38.9269 221.226 40.1412 222.756 39.7682 224.356Z" fill="#477793"/>
<path d="M18.0691 226.059H31.0045C32.1179 226.059 33.1108 225.312 33.4183 224.242L39.373 203.523H21.2117L15.6558 222.854C15.4363 223.619 15.5846 224.423 16.0638 225.059C16.542 225.695 17.2728 226.059 18.0691 226.059ZM37.7456 204.749L32.2399 223.903C32.083 224.452 31.5741 224.834 31.004 224.834H18.0686C17.6612 224.834 17.2867 224.648 17.0423 224.322C16.7969 223.997 16.7209 223.585 16.8338 223.193L22.1348 204.749H37.7456Z" fill="#2B4348"/>
<path d="M19.9478 205.358H40.0643C40.741 205.358 41.29 204.809 41.29 204.132C41.29 203.455 40.741 202.906 40.0643 202.906H19.9478C19.2711 202.906 18.7221 203.455 18.7221 204.132C18.7221 204.809 19.2716 205.358 19.9478 205.358Z" fill="#2B4348"/>
<path d="M32.1416 233.75C32.1416 233.75 28.482 235.493 22.3086 235.493C17.043 235.493 12.1495 233.75 12.1495 233.75L8.5095 250.396C8.5095 250.396 12.1495 251.597 18.3439 251.597C23.9424 251.597 28.4136 250.396 28.4136 250.396L32.1416 233.75Z" fill="#2E4D5F"/>
<path d="M-0.618357 226.118C-0.232881 226.118 0.146358 225.937 0.385008 225.598C0.774309 225.045 0.641835 224.279 0.0884912 223.89L-2.69926 221.927C-3.2526 221.537 -4.01735 221.67 -4.4076 222.224C-4.79691 222.777 -4.66443 223.542 -4.11109 223.932L-1.32331 225.895C-1.10857 226.045 -0.862268 226.118 -0.618357 226.118Z" fill="white"/>
<path d="M40.238 140.855C30.2553 148.6 30.7575 162.649 38.1575 171.463C40.6053 174.378 43.833 176.833 47.9675 177.16C52.7295 177.537 57.8459 174.858 60.9192 171.251C63.8371 167.826 65.1815 163.594 65.3531 159.651C67.347 161.248 70.4174 160.868 72.5672 159.391C74.6361 157.969 75.9996 155.718 76.9499 153.462C80.2317 145.666 79.2336 136.118 74.387 128.76C73.672 127.675 72.856 126.601 71.8058 125.8C67.2145 122.296 60.6337 124.299 58.0975 128.451C54.3604 134.568 46.9374 135.657 40.238 140.855Z" fill="#5F2D13"/>
<path d="M80.9306 225.08C88.6277 213.735 88.4842 193.586 88.4842 193.586H64.996L62.3321 219.752C62.3321 219.752 53.9301 228.021 51.8497 231.381C48.3431 237.043 41.924 256.338 41.924 256.338L45.0953 260.093C45.0953 260.093 74.2728 234.893 80.9306 225.08Z" fill="#23689E"/>
<path d="M62.3619 219.469L64.1171 202.227C69.2364 203.376 73.8597 204.558 74.7569 205.255C76.118 206.312 81.4621 211.747 85.2666 215.662C84.2073 219.046 82.8021 222.326 80.9307 225.085C80.0168 226.432 78.6772 228.07 77.0482 229.891C70.0145 227.454 65.3778 223.403 62.3619 219.469Z" fill="#1C5581"/>
<path d="M53.1328 253.001C48.4454 257.207 45.0952 260.101 45.0952 260.101L41.9239 256.346C41.9239 256.346 43.0048 253.099 44.5194 248.883C47.2775 250.48 50.1418 251.925 53.1328 253.001Z" fill="#FBB885"/>
<path d="M43.2037 248.603L54.1228 254.922L55.3447 252.499L44.4256 246.18L43.2037 248.603Z" fill="#BEE2FF"/>
<path d="M39.9623 258.706C39.9619 258.704 39.9609 258.699 39.9609 258.699L39.9628 258.698C39.9614 258.63 39.9752 258.567 39.9815 258.501C39.9786 258.492 39.9753 258.483 39.9724 258.474L39.9853 258.462C40.0087 258.27 40.0537 258.086 40.1469 257.923L43.2097 252.636C43.3584 252.373 43.8377 252.546 43.8745 252.878C43.9357 253.434 44.061 254.003 44.5201 254.507C45.9817 256.112 48.2567 254.748 50.1846 255.2C51.8499 255.591 51.7131 259.208 51.6452 260.188C54.4483 260.49 59.5671 261.834 61.471 264.289C62.6159 265.507 63.1468 267.79 62.7671 269.994C62.7671 269.994 62.0631 271.449 55.4999 271.436C52.903 271.431 49.4309 271.412 45.8129 270.478C45.4542 270.386 45.1227 270.194 44.8726 269.921C41.5874 266.341 40.3555 260.853 40.046 259.192C39.9982 259.028 39.9671 258.865 39.9623 258.706Z" fill="#36334B"/>
<path d="M39.9631 258.698C39.9617 258.631 39.9755 258.567 39.9818 258.502C39.9789 258.493 39.9755 258.483 39.9727 258.474L39.9856 258.462C40.009 258.271 40.054 258.086 40.1472 257.923L40.6097 257.125C42.2999 262.19 43.8982 265.103 45.0016 266.706C45.7649 267.814 47.0294 268.465 48.3747 268.465H51.524C51.5226 268.401 51.5154 268.338 51.5154 268.274C51.5154 265.267 52.9282 262.596 55.1205 260.871C57.5797 261.545 60.2192 262.675 61.4708 264.289C62.3508 265.225 62.8625 266.79 62.8831 268.465C62.8831 268.465 62.8831 268.466 62.8831 268.467C62.886 268.717 62.8802 268.97 62.8602 269.224C62.8415 269.48 62.8109 269.738 62.7669 269.995C62.7669 269.995 62.0629 271.449 55.4998 271.436C55.2334 271.436 54.9569 271.435 54.6729 271.433C54.4811 271.432 54.2831 271.429 54.0837 271.426C53.9803 271.425 53.8785 271.423 53.7733 271.422C53.5404 271.418 53.3036 271.412 53.0616 271.405C52.987 271.403 52.9114 271.4 52.8359 271.398C52.5757 271.389 52.3151 271.379 52.0463 271.366C50.128 271.271 47.9988 271.043 45.8132 270.479C45.4545 270.387 45.123 270.196 44.8724 269.922C41.5873 266.342 40.3553 260.854 40.0459 259.193C39.998 259.029 39.9669 258.866 39.9626 258.707C39.9622 258.705 39.9612 258.7 39.9612 258.7L39.9631 258.698Z" fill="white"/>
<path d="M57.3678 193.594L81.7632 193.637C81.7632 193.637 93.1816 212.604 95.8034 219.532C99.088 228.211 105.106 260.611 105.106 260.611L100.075 264.181C100.075 264.181 88.5066 248.243 86.7017 243.673C85.463 240.537 84.0894 230.242 84.0894 230.242C84.0894 230.242 62.1389 219.143 58.4415 206.19C56.559 199.596 57.3678 193.594 57.3678 193.594Z" fill="#359CED"/>
<path d="M57.3688 193.594L81.7642 193.637C81.7642 193.637 83.891 197.171 86.5186 201.742C84.1086 202.857 81.7886 203.157 79.0726 203.398C70.5319 204.155 62.8573 202.767 57.3535 200.275C56.9919 196.396 57.3688 193.594 57.3688 193.594Z" fill="#3589CB"/>
<g opacity="0.35">
<path d="M97.7001 255.855C97.7398 255.855 97.7795 255.847 97.8183 255.832C97.9771 255.767 98.0536 255.585 97.9885 255.425C97.988 255.424 97.8628 255.118 97.6437 254.564C97.5801 254.405 97.3984 254.325 97.2401 254.389C97.0803 254.453 97.0019 254.633 97.065 254.793C97.286 255.353 97.4122 255.661 97.4122 255.661C97.4615 255.782 97.5777 255.855 97.7001 255.855Z" fill="#23689E"/>
<path d="M96.6965 253.305C96.7338 253.305 96.7711 253.298 96.8075 253.284C96.9682 253.223 97.0485 253.043 96.9873 252.883C96.7936 252.376 96.5779 251.805 96.3455 251.18C96.2857 251.018 96.1068 250.935 95.9452 250.996C95.784 251.056 95.7022 251.235 95.762 251.396C95.9949 252.024 96.2116 252.596 96.4057 253.105C96.4531 253.229 96.5712 253.305 96.6965 253.305ZM95.4272 249.89C95.4626 249.89 95.498 249.883 95.5329 249.871C95.6946 249.813 95.7783 249.635 95.7199 249.473C95.5229 248.928 95.3187 248.355 95.1101 247.76C95.0532 247.597 94.8753 247.511 94.7137 247.569C94.5515 247.625 94.4664 247.803 94.5233 247.965C94.7328 248.562 94.9375 249.137 95.135 249.684C95.1804 249.811 95.3 249.89 95.4272 249.89ZM94.223 246.452C94.256 246.452 94.2899 246.447 94.3229 246.436C94.486 246.38 94.5726 246.204 94.5176 246.04C94.3267 245.479 94.1345 244.903 93.9418 244.316C93.8887 244.153 93.7122 244.063 93.5491 244.118C93.3855 244.172 93.2971 244.347 93.3502 244.511C93.5434 245.1 93.7361 245.677 93.9279 246.241C93.9724 246.37 94.0934 246.452 94.223 246.452ZM93.0885 242.991C93.1196 242.991 93.1507 242.986 93.1823 242.977C93.3458 242.925 93.4372 242.75 93.3855 242.586C93.2052 242.014 93.0264 241.434 92.8499 240.85C92.8002 240.686 92.627 240.592 92.4625 240.642C92.298 240.691 92.2052 240.865 92.2545 241.03C92.4314 241.616 92.6108 242.198 92.792 242.773C92.8336 242.906 92.9565 242.991 93.0885 242.991ZM92.0383 239.503C92.066 239.503 92.0957 239.5 92.1239 239.492C92.2889 239.444 92.3846 239.272 92.3372 239.107C92.1708 238.525 92.0086 237.94 91.8513 237.357C91.8068 237.191 91.637 237.092 91.4701 237.137C91.3042 237.182 91.2061 237.352 91.2511 237.518C91.4084 238.105 91.572 238.693 91.7394 239.278C91.7781 239.415 91.9029 239.503 92.0383 239.503ZM91.0947 235.985C91.1191 235.985 91.1444 235.982 91.1693 235.976C91.3362 235.935 91.4381 235.766 91.3965 235.599C91.2496 235.006 91.1095 234.417 90.977 233.833C90.9393 233.665 90.7752 233.559 90.605 233.599C90.4371 233.637 90.3323 233.803 90.3706 233.971C90.5031 234.558 90.6442 235.152 90.7924 235.749C90.8278 235.891 90.955 235.985 91.0947 235.985ZM90.297 232.432C90.317 232.432 90.3371 232.43 90.3577 232.426C90.526 232.393 90.636 232.229 90.6026 232.06C90.484 231.455 90.3764 230.86 90.2821 230.279C90.2549 230.108 90.0927 229.988 89.9258 230.021C89.7556 230.048 89.6408 230.208 89.6681 230.377C89.7623 230.966 89.8708 231.568 89.9918 232.18C90.0215 232.329 90.1516 232.432 90.297 232.432Z" fill="#23689E"/>
<path d="M89.7233 228.837C89.7352 228.837 89.7477 228.836 89.7596 228.835C89.9304 228.815 90.0523 228.66 90.0332 228.489C89.9968 228.178 89.9658 227.872 89.9395 227.571L89.9241 227.394L89.7644 227.318C89.7601 227.316 89.4712 227.176 88.9509 226.896C88.7983 226.816 88.6113 226.872 88.5291 227.022C88.4478 227.173 88.5042 227.362 88.6553 227.444C88.9648 227.611 89.1948 227.728 89.3354 227.799C89.3579 228.049 89.3847 228.303 89.4143 228.561C89.4335 228.72 89.5674 228.837 89.7233 228.837Z" fill="#23689E"/>
<path d="M87.1419 226.541C87.2475 226.541 87.3513 226.487 87.4092 226.388C87.4972 226.241 87.4489 226.05 87.3006 225.962C86.8176 225.675 86.2743 225.342 85.6813 224.962C85.5387 224.869 85.345 224.91 85.2518 225.056C85.159 225.201 85.2011 225.393 85.346 225.486C85.9453 225.87 86.4943 226.207 86.9836 226.497C87.0333 226.527 87.0878 226.541 87.1419 226.541ZM83.9175 224.479C84.0165 224.479 84.1135 224.432 84.1743 224.344C84.2709 224.202 84.2345 224.008 84.093 223.911C83.5961 223.571 83.0757 223.205 82.5382 222.812C82.3995 222.711 82.2053 222.742 82.1029 222.88C82.002 223.02 82.0326 223.214 82.1709 223.315C82.7146 223.711 83.2398 224.081 83.7415 224.424C83.7955 224.461 83.8567 224.479 83.9175 224.479ZM80.8246 222.226C80.9173 222.226 81.0092 222.185 81.0709 222.105C81.1761 221.97 81.1512 221.774 81.0149 221.669C80.529 221.293 80.0311 220.898 79.5242 220.483C79.3912 220.373 79.1956 220.393 79.0866 220.526C78.978 220.659 78.9971 220.855 79.1306 220.964C79.6409 221.382 80.1435 221.782 80.6347 222.161C80.6911 222.205 80.7581 222.226 80.8246 222.226ZM77.8651 219.8C77.9521 219.8 78.0382 219.764 78.1004 219.693C78.2128 219.563 78.1989 219.367 78.0693 219.254C77.6001 218.847 77.1272 218.423 76.6499 217.984C76.5222 217.869 76.3261 217.877 76.2099 218.002C76.0936 218.129 76.1018 218.326 76.228 218.442C76.7101 218.885 77.1879 219.312 77.6609 219.724C77.7197 219.775 77.7929 219.8 77.8651 219.8ZM75.051 217.209C75.1319 217.209 75.2127 217.177 75.2734 217.115C75.394 216.992 75.3911 216.795 75.2686 216.675C74.822 216.239 74.3743 215.789 73.9271 215.325C73.8071 215.201 73.6101 215.198 73.4871 215.316C73.3633 215.436 73.3594 215.633 73.4785 215.756C73.9305 216.225 74.3834 216.68 74.8334 217.12C74.8942 217.18 74.9726 217.209 75.051 217.209ZM72.3967 214.454C72.4713 214.454 72.5464 214.428 72.6057 214.374C72.7329 214.258 72.7425 214.061 72.6268 213.934C72.2064 213.471 71.7869 212.994 71.3704 212.505C71.2575 212.373 71.0605 212.359 70.9318 212.469C70.8013 212.581 70.7855 212.777 70.8964 212.908C71.3182 213.402 71.741 213.883 72.1662 214.352C72.2274 214.42 72.3121 214.454 72.3967 214.454ZM69.917 211.541C69.9849 211.541 70.0537 211.518 70.1106 211.473C70.245 211.366 70.2675 211.17 70.1599 211.036C69.7692 210.545 69.3818 210.043 68.9982 209.529C68.8954 209.391 68.7003 209.363 68.563 209.466C68.4253 209.568 68.397 209.763 68.4999 209.901C68.8868 210.42 69.2785 210.928 69.674 211.423C69.7352 211.501 69.8256 211.541 69.917 211.541ZM67.6309 208.475C67.6921 208.475 67.7543 208.457 67.8083 208.42C67.9494 208.321 67.9843 208.128 67.8868 207.986C67.5281 207.47 67.1751 206.943 66.8284 206.406C66.7346 206.262 66.5414 206.22 66.3984 206.314C66.2545 206.406 66.2124 206.599 66.3061 206.744C66.6567 207.288 67.0135 207.82 67.3755 208.342C67.4358 208.428 67.5328 208.475 67.6309 208.475ZM65.5586 205.261C65.6131 205.261 65.6681 205.247 65.7179 205.217C65.8656 205.129 65.9139 204.937 65.8259 204.79C65.5041 204.251 65.1884 203.701 64.8804 203.14C64.7967 202.99 64.6064 202.936 64.4576 203.017C64.307 203.101 64.2525 203.29 64.3347 203.44C64.6466 204.007 64.9656 204.563 65.2913 205.108C65.3496 205.207 65.4529 205.261 65.5586 205.261ZM63.7164 201.909C63.7637 201.909 63.811 201.898 63.856 201.875C64.01 201.798 64.0712 201.611 63.9937 201.458C63.7111 200.896 63.4366 200.325 63.1697 199.744C63.098 199.588 62.9129 199.519 62.7579 199.591C62.602 199.662 62.5331 199.847 62.6049 200.003C62.8741 200.591 63.1525 201.169 63.4385 201.737C63.493 201.846 63.6025 201.909 63.7164 201.909Z" fill="#23689E"/>
<path d="M62.1244 198.436C62.1645 198.436 62.2047 198.429 62.2435 198.413C62.4027 198.346 62.4773 198.165 62.4118 198.006C62.2932 197.721 62.177 197.433 62.0632 197.143C62.0005 196.983 61.8192 196.903 61.6595 196.968C61.4998 197.031 61.4213 197.211 61.4845 197.372C61.6002 197.665 61.7174 197.956 61.8369 198.244C61.8867 198.364 62.0024 198.436 62.1244 198.436Z" fill="#23689E"/>
</g>
<path d="M103.944 254.539C104.659 258.207 105.106 260.613 105.106 260.613L100.075 264.183C100.075 264.183 97.7298 260.951 94.9875 256.982C97.9613 256.195 101.121 255.992 103.944 254.539Z" fill="#FBB885"/>
<path d="M94.8212 259.239L106.535 254.306L105.331 251.852L93.6174 256.784L94.8212 259.239Z" fill="#BEE2FF"/>
<path d="M97.6313 263.413C97.4883 263.092 98.0421 262.695 98.3999 262.863C98.9987 263.144 99.6582 263.365 100.512 263.195C103.19 262.662 103.557 259.524 105.38 257.895C107.158 256.307 110.285 259.076 110.285 259.076C110.457 259.005 110.638 258.924 110.818 258.843C110.82 258.855 110.822 258.868 110.824 258.881C114.132 256.861 118.233 254.865 122.56 256.963C124.124 257.722 125.491 259.793 125.958 262.188C125.958 262.188 125.827 263.99 119.15 266.959C115.236 268.7 109.168 271.365 102.207 271.058C101.397 271.022 100.757 270.662 100.496 270.067L97.6313 263.413Z" fill="#36334B"/>
<path d="M117.661 264.972C116.058 260.683 117.006 257.858 118.549 256.064C119.846 256.039 121.186 256.291 122.56 256.957C123.823 257.57 124.947 259.041 125.582 260.839C125.62 260.947 125.659 261.053 125.694 261.163C125.724 261.258 125.752 261.354 125.779 261.451C125.847 261.691 125.91 261.933 125.958 262.183C125.958 262.183 125.827 263.985 119.15 266.954C118.988 267.026 118.818 267.102 118.648 267.177C114.731 268.911 108.879 271.347 102.206 271.053C101.396 271.017 100.757 270.657 100.495 270.062L100.404 269.851C107.579 269.138 113.361 267.104 117.661 264.972Z" fill="white"/>
<path d="M85.8212 179.907C86.4176 175.742 91.8205 172.662 91.8291 168.454C91.8377 164.303 87.5965 156.243 84.2774 153.751C81.9186 151.979 72.9241 150.539 72.9241 150.539C72.9241 150.539 64.7449 152.445 62.1728 153.524C57.0215 155.685 55.7642 160.752 58.9016 175.633C60.4052 182.764 61.2082 184.916 58.2272 190.723C56.9617 193.188 57.0373 194.7 57.0373 194.7C57.0373 194.7 65.8573 199.239 76.7487 198.273C83.2238 197.699 88.2517 196.865 90.0394 193.602C90.0394 193.602 85.3138 183.453 85.8212 179.907Z" fill="#FDEF6A"/>
<path d="M68.5476 151.456L70.1158 140.945L79.5657 143.211L79.8957 151.922C80.747 152.186 81.6069 152.469 82.441 152.754C84.0102 155.838 86.0418 161.166 82.1555 162.44C76.1247 164.418 75.2088 155.842 65.1238 152.521C66.2635 152.139 67.4323 151.771 68.5476 151.456Z" fill="#EA9588"/>
<path d="M82.1543 152.658C81.3494 152.719 80.5215 152.747 79.6678 152.733C75.1411 152.658 71.5155 152.008 68.6387 150.845L70.1156 140.945L79.5655 143.211L79.8955 151.922C80.6511 152.156 81.4101 152.406 82.1543 152.658Z" fill="#EA6464"/>
<path d="M84.0128 156.664C84.7038 159.152 84.645 161.634 82.1547 162.45C77.9934 163.815 76.2664 160.155 72.283 156.664H84.0128Z" fill="white"/>
<path d="M58.2278 190.723C58.3636 190.458 58.4846 190.208 58.6051 189.958C58.762 189.631 58.9055 189.317 59.0375 189.012C59.0385 189.01 59.0389 189.008 59.0399 189.007C59.1661 188.715 59.2795 188.433 59.3837 188.157C59.3904 188.139 59.3986 188.12 59.4053 188.102C59.5028 187.841 59.5889 187.589 59.6678 187.341C59.6779 187.309 59.6894 187.276 59.6989 187.245C59.7721 187.009 59.8352 186.779 59.8926 186.551C59.9031 186.51 59.9146 186.468 59.9247 186.426C59.9773 186.208 60.0213 185.993 60.06 185.779C60.0686 185.731 60.0787 185.683 60.0863 185.636C60.1212 185.428 60.1485 185.222 60.1714 185.016C60.1772 184.965 60.1839 184.913 60.1887 184.861C60.2083 184.66 60.2207 184.458 60.2293 184.255C60.2317 184.2 60.2346 184.146 60.236 184.091C60.2417 183.889 60.2413 183.687 60.2365 183.482C60.2351 183.427 60.2346 183.371 60.2327 183.315C60.2255 183.109 60.213 182.9 60.1963 182.689C60.192 182.633 60.1882 182.577 60.1829 182.521C60.1638 182.306 60.1399 182.088 60.1121 181.865C60.1054 181.81 60.0987 181.755 60.0911 181.699C60.0605 181.47 60.026 181.236 59.9878 180.996C59.9797 180.944 59.971 180.893 59.9624 180.84C59.9208 180.589 59.8754 180.332 59.8257 180.068C59.8175 180.024 59.8094 179.981 59.8013 179.938C59.7472 179.652 59.6889 179.359 59.6267 179.055C59.6234 179.039 59.62 179.023 59.6167 179.007C59.412 178.006 59.1681 176.899 58.9012 175.635C57.9298 171.028 57.3808 167.364 57.2369 164.434L59.95 159.5L66.6375 163.923L66.4811 174.53C66.3677 182.239 74.1949 187.798 81.2841 184.771C83.145 183.976 84.7046 182.684 85.7988 180.904C86.0561 185.048 90.0391 193.604 90.0391 193.604C88.2513 196.867 83.2234 197.701 76.7483 198.275C65.8565 199.242 57.0369 194.703 57.0369 194.703C57.0369 194.703 56.9623 193.189 58.2278 190.723Z" fill="#DECE35"/>
<path d="M87.0494 129.361C85.3368 132.609 86.1297 136.292 88.8204 137.588C91.5115 138.884 95.0817 137.302 96.7944 134.054C98.507 130.807 97.7141 127.123 95.0229 125.828C92.3318 124.532 88.762 126.114 87.0494 129.361Z" fill="#EA6464"/>
<path d="M88.6878 135.487C88.6964 135.356 88.7203 135.243 88.7327 135.115C88.7141 135.208 88.7031 135.284 88.6968 135.345C88.704 134.689 88.7958 134.151 88.9632 133.727C90.2732 128.254 95.5957 127.625 95.5957 127.625C92.9184 129.225 91.2579 130.97 90.2354 132.41C92.1408 131.635 95.127 133.172 95.127 133.172C91.5989 132.333 90.0111 133.095 89.2899 133.962C88.8193 134.892 88.6878 135.487 88.6878 135.487Z" fill="#FF4141"/>
<path d="M94.5773 132.599L93.6643 123.777C92.4778 123.575 95.5171 110.322 68.6673 115.063C58.3206 115.768 57.3594 122.013 57.3594 122.013L61.3561 135.61L61.0022 135.226L61.0405 135.646C61.8449 144.504 66.462 149.95 79.2654 150.161C92.0755 150.371 98.7434 140.66 94.5773 132.599Z" fill="#FBB885"/>
<path d="M61.1929 107.452C61.1929 107.452 61.1068 107.461 60.9538 107.484C53.5475 108.189 49.2408 116.674 54.6255 132.064L58.5692 132.581L61.357 135.61L65.1003 132.979C65.1003 132.979 63.7315 130.017 66.4624 128.765C69.8852 127.195 71.3999 120.956 68.6676 115.062C95.5174 110.321 92.4781 123.574 93.6647 123.776L94.1233 128.829L94.1243 128.829C96.2535 128.018 104.621 115.171 93.0845 104.933C74.7601 88.67 61.1929 107.452 61.1929 107.452Z" fill="#903319"/>
<path d="M89.6229 134.143C89.7171 135.178 88.8448 136.103 87.674 136.209C86.5032 136.316 85.4783 135.563 85.3841 134.528C85.2904 133.494 85.9886 130.648 87.1589 130.542C88.3302 130.435 89.5287 133.108 89.6229 134.143Z" fill="#EA6464"/>
<path d="M87.7246 139.359C87.9584 139.337 88.1751 139.307 88.3707 139.271C88.6055 139.227 88.7605 139.01 88.7174 138.785C88.6744 138.562 88.4534 138.416 88.2133 138.458C88.0283 138.491 83.6933 139.246 82.6813 136.056C82.6115 135.838 82.3714 135.717 82.1419 135.784C81.9133 135.852 81.7841 136.084 81.853 136.302C82.7373 139.087 85.7848 139.535 87.7246 139.359Z" fill="#EA6464"/>
<path d="M93.0629 128.196C93.1748 129.427 92.8295 130.464 92.2925 130.513C91.7549 130.561 91.2288 129.603 91.1169 128.373C91.0055 127.142 91.3503 126.105 91.8878 126.057C92.4249 126.007 92.9515 126.965 93.0629 128.196Z" fill="#330033"/>
<path d="M94.3578 124.958C94.3578 124.958 90.33 122.835 88.1769 122.872C88.1769 122.872 88.7168 119.402 91.5921 120.47C94.4674 121.538 94.3578 124.958 94.3578 124.958Z" fill="#903319"/>
<path d="M78.6169 129.498C78.7288 130.729 79.2549 131.686 79.7924 131.638C80.33 131.589 80.6748 130.552 80.5629 129.321C80.451 128.091 79.9249 127.133 79.3874 127.181C78.8508 127.23 78.505 128.267 78.6169 129.498Z" fill="#330033"/>
<path d="M74.2936 127.437C74.2936 127.437 79.3837 124.072 82.2236 123.459C82.2236 123.459 81.3809 119.998 77.7022 121.947C74.023 123.897 74.2936 127.437 74.2936 127.437Z" fill="#903319"/>
<path d="M77.9474 137.203C77.8847 137.208 77.8192 137.201 77.7565 137.179C77.5327 137.099 77.4208 136.861 77.5059 136.647L78.6203 133.832C78.7054 133.618 78.955 133.51 79.1779 133.588C79.4017 133.668 79.5137 133.906 79.4285 134.12L78.3142 136.934C78.253 137.089 78.1076 137.188 77.9474 137.203Z" fill="#EA6464"/>
<path d="M75.2286 137.445C75.166 137.451 75.1009 137.443 75.0383 137.421C74.8145 137.341 74.703 137.103 74.7877 136.889L75.902 134.074C75.9871 133.86 76.2373 133.752 76.4601 133.83C76.684 133.91 76.7959 134.148 76.7107 134.362L75.5959 137.176C75.5347 137.33 75.3888 137.43 75.2286 137.445Z" fill="#EA6464"/>
<path d="M94.2811 135.714C94.1209 135.728 93.9592 135.656 93.8712 135.516L92.2681 132.948C92.1462 132.753 92.2131 132.499 92.4188 132.38C92.6249 132.262 92.8894 132.324 93.0118 132.519L94.6149 135.087C94.7369 135.283 94.6699 135.537 94.4643 135.655C94.4064 135.689 94.3438 135.708 94.2811 135.714Z" fill="#EA6464"/>
<path d="M65.0199 130.673C67.2754 134.036 66.833 138.167 64.0323 139.9C61.2316 141.634 57.1325 140.314 54.8775 136.951C52.622 133.588 53.064 129.457 55.8651 127.723C58.6658 125.99 62.7645 127.311 65.0199 130.673Z" fill="#FBB885"/>
<path d="M64.9085 139.852C64.9869 140.718 64.3494 141.483 63.4847 141.561C62.6196 141.639 61.8549 141.002 61.7764 140.137C61.698 139.272 62.3355 138.507 63.2007 138.428C64.0654 138.35 64.8301 138.988 64.9085 139.852Z" fill="white"/>
<path d="M63.9355 137.585C63.9107 137.443 63.8715 137.32 63.8428 137.183C63.8739 137.282 63.8949 137.364 63.9088 137.43C63.8251 136.712 63.6615 136.133 63.4286 135.687C61.3563 129.837 55.4465 129.766 55.4465 129.766C58.5681 131.209 60.5921 132.929 61.8805 134.391C59.7006 133.762 56.6043 135.794 56.6043 135.794C60.3764 134.465 62.2062 135.116 63.0976 135.983C63.7222 136.947 63.9355 137.585 63.9355 137.585Z" fill="#EA6464"/>
<path d="M25.0032 202.402L28.6958 199.652C30.089 198.615 32.0388 198.79 33.2249 200.059L35.5339 202.529L44.8455 184.678C44.8455 184.678 51.1308 165.665 54.7942 160.156C56.0913 158.206 60.102 152.915 62.7262 154.458C64.8314 155.695 67.2103 161.651 66.7889 164.056C65.5426 171.178 54.3787 189.77 54.3787 189.77L38.8654 206.094H26.3537C25.6101 206.094 24.9539 205.608 24.7368 204.897L24.4704 204.024C24.2877 203.425 24.501 202.776 25.0032 202.402Z" fill="#FBB885"/>
<path d="M20.1003 203.039H30.1504L28.4497 205.491H20.1003C19.4235 205.491 18.8745 204.942 18.8745 204.265C18.8745 203.588 19.424 203.039 20.1003 203.039Z" fill="#2B4348"/>
</svg>
