<svg width="364" height="251" viewBox="0 0 364 251" fill="none" xmlns="http://www.w3.org/2000/svg">
<path d="M346.197 77.5348C346.057 77.7944 345.734 77.8915 345.474 77.7515C345.214 77.6116 345.117 77.2877 345.257 77.0281C352.48 63.6232 356.929 48.7279 358.24 33.5576C358.256 33.3686 358.374 33.2197 358.531 33.1381C354.646 29.5121 349.786 27.2152 344.46 26.7619C337.668 26.1839 330.989 28.206 325.259 31.7926C313.203 39.3383 305.188 51.6751 296.436 62.5438C291.468 68.7135 285.669 73.9787 279.718 79.178C273.552 84.5656 267.176 89.9317 262.449 96.6803C257.822 103.287 254.075 110.489 249.116 116.866C244.307 123.051 238.507 128.74 232.695 133.977C230.415 136.031 228.043 138.026 225.586 139.913C224.577 145.113 223.558 150.324 221.871 155.291C220.259 160.039 218.076 164.469 215.461 168.639C221.742 168.415 228.015 167.801 234.189 166.866C245.619 165.14 256.935 162.32 267.857 158.447C279.784 154.217 291.223 148.701 301.795 141.875C310.201 136.449 318.071 130.22 325.178 123.132C341.758 106.605 352.846 86.0675 359.267 63.6925C360.98 57.7182 363.371 48.7218 363.896 39.9954C362.63 37.7547 361.083 35.6907 359.282 33.8696C357.934 49.1108 353.455 64.0651 346.197 77.5348Z" fill="#A8C7CE"/>
<path d="M363.972 38.3596C363.989 37.8434 363.998 37.3288 364 36.8167C364 36.7897 363.999 36.7631 363.999 36.7363C364.001 36.2379 363.995 35.7417 363.981 35.2485C363.979 35.2066 363.977 35.165 363.976 35.1231C363.96 34.6462 363.94 34.1716 363.909 33.701C363.905 33.6392 363.899 33.5785 363.895 33.5167C363.864 33.0666 363.828 32.6188 363.782 32.1756C363.774 32.0959 363.762 32.0178 363.754 31.9386C363.707 31.5153 363.657 31.0943 363.596 30.6783C363.581 30.5799 363.562 30.4839 363.547 30.3861C363.486 29.9919 363.422 29.5991 363.346 29.2123C363.324 29.0973 363.296 28.9855 363.272 28.8712C363.196 28.5057 363.119 28.1408 363.03 27.7832C362.998 27.6517 362.958 27.5245 362.923 27.394C362.834 27.0584 362.745 26.7227 362.644 26.3948C362.599 26.2483 362.545 26.1074 362.497 25.9625C362.396 25.6569 362.296 25.3504 362.184 25.0525C362.122 24.8902 362.051 24.7347 361.986 24.5749C361.875 24.3017 361.768 24.0266 361.646 23.7606C361.567 23.5862 361.475 23.4199 361.391 23.2487C361.271 23.0056 361.156 22.7594 361.027 22.5231C360.926 22.3384 360.811 22.1628 360.704 21.9823C360.578 21.7696 360.457 21.5525 360.322 21.3461C360.192 21.1472 360.048 20.959 359.91 20.766C359.783 20.5885 359.663 20.4055 359.529 20.2334C359.352 20.005 359.158 19.7894 358.967 19.5706C358.858 19.445 358.758 19.3129 358.644 19.1906C358.333 18.8548 358.006 18.5312 357.662 18.2211C340.336 15.1476 304.517 34.0298 304.517 34.0298L261.525 85.7109C252.746 98.6004 242.773 110.829 230.816 120.813C230.749 120.869 230.68 120.922 230.613 120.978C228.105 126.937 226.846 133.411 225.586 139.91C228.043 138.023 230.416 136.027 232.695 133.973C238.508 128.737 244.307 123.048 249.117 116.863C254.076 110.485 257.822 103.283 262.449 96.6769C267.176 89.9282 273.552 84.5622 279.719 79.1747C285.67 73.9751 291.468 68.7099 296.436 62.5405C305.189 51.6718 313.203 39.335 325.259 31.7892C330.989 28.2026 337.668 26.1806 344.46 26.7585C349.786 27.2119 354.646 29.5087 358.531 33.1347C358.618 33.0894 358.714 33.0593 358.818 33.0683C359.112 33.0938 359.33 33.3524 359.305 33.6463C359.298 33.7198 359.289 33.7929 359.283 33.8666C361.083 35.6877 362.631 37.7515 363.896 39.9924C363.896 39.9919 363.896 39.9915 363.896 39.9909C363.928 39.4592 363.953 38.9287 363.97 38.3998C363.971 38.386 363.971 38.3728 363.972 38.3596Z" fill="#92B8BF"/>
<path d="M351.875 14.8715C345.63 12.7263 338.764 14.2046 332.461 16.1415C318.824 20.3413 306.022 26.5984 293.513 33.5174C291.618 34.5658 289.731 35.6329 287.848 36.7067C280.062 41.1455 272.358 45.7571 264.607 50.2062C257.734 54.1548 250.72 58.0075 243.552 61.5007C239.252 63.5965 234.896 65.563 230.482 67.3431C218.713 72.0901 206.532 75.5113 193.89 76.5271C191.005 76.7582 188.123 76.8623 185.245 76.8585C183.806 76.8568 182.368 76.8278 180.931 76.7744C178.057 76.6674 175.187 76.462 172.319 76.1769C168.018 75.7494 163.725 75.1429 159.437 74.4211C153.801 73.47 148.177 72.3187 142.565 71.1144C139.76 70.5125 136.957 69.8972 134.158 69.2873C131.358 68.6773 128.562 68.0727 125.769 67.4917C125.066 67.3456 124.362 67.2009 123.656 67.058C123.055 66.9361 122.452 66.8166 121.849 66.6975C121.786 66.6851 121.723 66.6725 121.66 66.66C120.911 66.5126 120.161 66.3673 119.409 66.2247C118.88 66.1245 118.35 66.0271 117.82 65.9294C117.726 65.9122 117.633 65.8944 117.539 65.877C116.739 65.7307 115.939 65.5869 115.138 65.4478C114.667 65.3658 114.194 65.2871 113.722 65.2079C113.618 65.1903 113.514 65.1723 113.409 65.1548C112.137 64.9429 110.862 64.7419 109.586 64.5514C109.482 64.5359 109.377 64.5198 109.273 64.5043C109.081 64.476 108.888 64.4455 108.696 64.4178C107.608 64.26 106.518 64.1139 105.427 63.9746C105.329 63.9619 105.231 63.9491 105.133 63.9368C104.884 63.9053 104.635 63.8716 104.386 63.8411C103.342 63.7136 102.298 63.5987 101.253 63.4902C101.169 63.4814 101.084 63.4726 100.999 63.464C100.689 63.4322 100.38 63.3979 100.07 63.368C99.0704 63.2716 98.0711 63.1883 97.0721 63.1115C97.0062 63.1063 96.9404 63.1017 96.8745 63.0966C95.5436 62.9959 94.2134 62.9134 92.884 62.8508C92.8483 62.849 92.8125 62.8475 92.7769 62.846C91.419 62.7832 90.0622 62.7409 88.7075 62.7215C88.705 62.7215 88.7027 62.7215 88.7002 62.7215C86.0291 62.6836 83.3649 62.7307 80.7149 62.8844C78.5814 63.0081 76.4567 63.1988 74.3437 63.4636C74.0801 63.4965 73.8176 63.5365 73.5543 63.5721C79.5517 56.3765 82.5756 49.0299 84.2701 37.0724C85.5635 27.9441 82.042 11.7552 75.7487 3.72684C75.2443 3.71823 74.7099 3.90642 74.4431 4.32971C72.4212 7.53878 72.609 11.2554 72.3859 14.8996C72.2747 16.7132 72.0886 18.5974 71.2439 20.2368C70.521 21.6403 69.3226 22.4419 67.9775 23.1891C66.6084 23.9499 65.199 24.6589 64.1546 25.8627C62.9745 27.2229 62.5104 29.0869 62.3743 30.8476C62.2227 32.8088 62.5143 34.7829 62.2972 36.7381C62.0579 38.8938 61.0118 40.7783 59.275 42.083C57.7131 43.2562 56.0177 44.2513 54.8422 45.8614C53.8999 47.152 53.5151 48.6612 53.063 50.1636C51.3559 55.8386 65.5336 64.9266 65.5336 64.9266C52.1412 64.1995 43.8099 57.5681 42.7346 58.7026C41.4898 60.016 40.6756 61.631 39.6592 63.1104C37.4027 66.3947 33.4914 66.7398 29.9782 67.9209C27.7583 68.6673 25.7087 69.8388 24.2196 71.6785C22.8636 73.3531 22.0761 75.4969 20.5193 77.0111C19.1636 78.3292 17.1875 79.0636 15.587 80.0319C13.983 81.0024 12.4905 82.1913 11.7069 83.9392C11.4312 84.5541 11.6387 85.4367 12.2077 85.8269C17.7475 89.6266 25.3084 89.1881 31.6847 88.6098C34.9388 88.3146 38.1614 87.9125 41.3493 87.35C41.5053 87.2947 41.6755 87.2455 41.8286 87.189C52.1383 83.3796 59.8786 79.0913 65.2956 70.8277C65.6653 70.2637 66.0241 69.6801 66.3723 69.078C67.4944 69.377 68.6167 69.7042 69.7378 70.0548C79.9045 73.2311 89.8602 78.4178 96.46 84.1337C103.919 90.5976 110.83 97.6454 117.649 104.792C126.886 114.463 137.161 123.509 148.678 130.244C161.018 137.464 175.092 141.537 189.302 139.959C190.917 139.779 192.511 139.523 194.093 139.223C192.49 140.115 190.983 141.115 189.87 142.556C187.651 145.428 187.504 149.346 186.191 152.731C186.17 152.786 186.154 152.843 186.132 152.897C184.193 157.73 180.109 160.839 175.494 163.537C168.139 167.838 159.432 171.093 155.89 178.599C153.071 184.572 154.283 191.993 150.863 197.643C149.043 200.65 146.091 202.815 144.097 205.711C142.423 208.142 141.488 210.992 140.573 213.798C138.16 221.204 136.141 230.434 133.728 237.84C147.848 227.345 161.968 216.851 176.088 206.357C190.715 195.486 205.96 183.787 215.464 168.632C218.079 164.462 220.262 160.032 221.875 155.284C223.562 150.317 224.581 145.106 225.589 139.907C226.849 133.408 228.108 126.934 230.616 120.974C230.683 120.919 230.752 120.865 230.819 120.81C242.776 110.826 252.749 98.5973 261.528 85.7076L304.519 34.0265C304.519 34.0265 340.339 15.1445 357.665 18.2178C356.098 16.8014 354.19 15.6656 351.875 14.8715Z" fill="#302F5B"/>
<path d="M255.503 187.84C256.075 194.42 260.858 200.221 260.748 206.825C260.689 210.34 259.229 213.696 258.964 217.202C258.741 220.145 259.368 223.078 259.991 225.963C261.634 233.578 264.536 242.569 266.18 250.183C273.096 234.007 280.013 217.83 286.93 201.654C295.077 182.599 303.371 162.216 301.796 141.875C291.223 148.701 279.785 154.216 267.858 158.446C264.612 168.313 254.578 177.185 255.503 187.84Z" fill="#202043"/>
<path d="M186.128 152.912C186.149 152.858 186.165 152.801 186.186 152.747C174.19 151.476 162.58 146.614 152.228 140.664C139.855 133.554 129.001 124.542 119.409 114.011C108.425 101.951 98.2634 89.0021 84.9199 79.3916C80.098 75.9187 75.0786 72.6648 69.7332 70.0705C68.6121 69.7202 67.4898 69.393 66.3677 69.0938C66.0197 69.696 65.6607 70.2794 65.291 70.8434C104.05 90.9267 124.209 139.28 164.002 158.899C167.728 160.737 171.57 162.268 175.489 163.553C180.104 160.854 184.188 157.745 186.128 152.912Z" fill="#A8C7CE"/>
<path d="M119.41 113.995C129.003 124.527 139.856 133.538 152.229 140.649C162.582 146.599 174.191 151.461 186.188 152.731C187.501 149.345 187.647 145.428 189.866 142.556C190.98 141.115 192.487 140.115 194.09 139.223C192.508 139.523 190.913 139.779 189.299 139.959C175.089 141.536 161.015 137.464 148.674 130.244C137.158 123.509 126.882 114.463 117.646 104.792C110.827 97.6453 103.916 90.5975 96.4566 84.1336C89.8568 78.4179 79.9013 73.2312 69.7344 70.0547C75.0798 72.6492 80.0992 75.9029 84.921 79.3757C98.2646 88.9867 108.426 101.935 119.41 113.995Z" fill="#92B8BF"/>
<path d="M12.205 85.8336C11.6362 85.4435 11.4287 84.5609 11.7042 83.946C12.4878 82.198 13.9803 81.0091 15.5843 80.0387C17.1848 79.0703 19.1611 78.3357 20.5166 77.0178C22.0736 75.5038 22.8611 73.3598 24.2169 71.6852C25.7062 69.8456 27.7558 68.6741 29.9755 67.9276C33.4888 66.7466 37.4001 66.4014 39.6565 63.1171C40.6729 61.6378 41.4871 60.0227 42.7319 58.7094C43.8073 57.5749 52.1385 64.2063 65.5309 64.9334C65.5309 64.9334 51.3532 55.8451 53.0603 50.1704C53.5124 48.6679 53.8972 47.1587 54.8395 45.8682C56.015 44.2581 57.7106 43.2631 59.2723 42.0897C61.0091 40.7848 62.0552 38.9006 62.2945 36.7449C62.5114 34.7896 62.22 32.8156 62.3717 30.8544C62.5078 29.0936 62.972 27.2297 64.1519 25.8694C65.1963 24.6656 66.6055 23.9567 67.9748 23.1959C69.3199 22.4484 70.5182 21.647 71.2413 20.2435C72.0859 18.604 72.272 16.7199 72.3833 14.9063C72.6063 11.2621 72.4185 7.54552 74.4404 4.33645C74.7073 3.91297 75.2416 3.72496 75.746 3.73358H75.7462C75.7459 3.7332 75.7455 3.73281 75.7455 3.73281C75.1572 2.98234 74.5436 2.3069 73.9087 1.71016C73.8431 1.64832 73.7766 1.58993 73.7104 1.52982C73.468 1.31023 73.2222 1.10519 72.9735 0.911056C72.891 0.84673 72.8092 0.780105 72.7261 0.71865C72.4114 0.485657 72.093 0.267785 71.7687 0.0778683C71.7679 0.0774854 71.7674 0.0769132 71.7666 0.0765303C71.6617 0.0150753 71.5514 -0.00694404 71.4463 0.00186259C71.3414 0.0106692 71.2418 0.0503041 71.1591 0.112333C70.9933 0.236584 70.8932 0.450618 70.947 0.687632C71.3475 2.45413 71.6297 4.61463 71.6621 6.87927C71.7011 9.59688 71.3803 12.4648 70.4726 14.9823C70.2222 15.6767 69.9149 16.3355 69.5705 16.9661C69.4149 17.2506 69.2479 17.5257 69.0718 17.7941C68.4595 18.7278 67.7335 19.5696 66.8483 20.2562C65.1321 21.5875 63.1386 22.8482 61.5704 24.308C61.5505 24.3264 61.5295 24.3446 61.5097 24.3631C60.287 25.5132 59.3324 26.7888 58.9876 28.3211C58.6694 29.735 58.9464 31.168 59.0416 32.5914C59.0605 32.8761 59.0724 33.1602 59.0707 33.4439C59.0672 34.0112 59.01 34.576 58.849 35.1363C58.6449 35.8468 58.3468 36.5611 57.9431 37.221C57.7413 37.5511 57.5129 37.8673 57.2567 38.1629C57.2456 38.1758 57.2309 38.1857 57.2196 38.1983C56.9722 38.4792 56.7029 38.7438 56.403 38.9795C55.7962 39.4567 55.2205 39.9099 54.6773 40.3481C54.1342 40.7864 53.6234 41.2094 53.1457 41.6266C52.6681 42.0438 52.2233 42.4548 51.8127 42.8689C51.6073 43.0761 51.4104 43.2838 51.2221 43.4932C50.8455 43.9125 50.5032 44.3393 50.1959 44.7825C49.9598 45.123 49.7512 45.4778 49.557 45.8419C49.2457 46.4255 48.9819 47.04 48.7803 47.7112C48.5349 48.5289 48.372 49.4239 48.2942 50.4269C48.2904 50.4737 48.2759 50.5169 48.2611 50.5602C48.2366 50.6318 48.2033 50.6996 48.1537 50.7555C48.0743 50.8451 47.9667 50.9096 47.8443 50.9335C47.4165 51.017 47.0075 51.1068 46.616 51.2031C45.1801 51.5563 43.9865 52.002 42.9425 52.5392C42.6783 52.6753 42.4235 52.8181 42.1782 52.9667C41.2788 53.5114 40.4912 54.1357 39.7694 54.8573C38.2857 56.3406 37.0489 58.2124 35.5288 60.5322C35.3188 60.8526 35.0715 61.1536 34.7952 61.4347C33.9664 62.278 32.8778 62.9431 31.756 63.4242C31.1263 63.6939 30.4662 63.8599 29.7923 63.9798C27.9406 64.3093 25.9786 64.2712 24.2117 64.9303C22.8099 65.4535 21.7101 66.3258 20.7754 67.3782C20.1524 68.0796 19.6028 68.8609 19.0865 69.6721C18.3119 70.8888 17.6117 72.1722 16.85 73.3533C16.3937 74.0605 15.904 74.7273 15.3829 75.3557C14.3406 76.6125 13.1724 77.7149 11.8934 78.676C9.33522 80.5979 6.33388 81.9545 3.00995 82.8491C2.17887 83.0729 1.32769 83.2676 0.458321 83.4352C0.339431 83.4579 0.241028 83.5125 0.166363 83.586C-0.0576319 83.8066 -0.0687347 84.1985 0.214801 84.4255C0.231648 84.4389 0.251174 84.4495 0.267831 84.4629C0.872999 84.9438 1.51263 85.3939 2.18691 85.811C2.42048 85.9554 2.67893 86.0751 2.92016 86.2119C3.39457 86.4813 3.86285 86.7568 4.36464 86.9978C4.67613 87.1474 5.01173 87.2703 5.33298 87.4093C5.79227 87.6078 6.24256 87.8163 6.72041 87.9938C7.09201 88.1316 7.48467 88.2428 7.86642 88.368C8.31862 88.5164 8.76183 88.6759 9.22705 88.807C9.65915 88.9288 10.1091 89.0245 10.5515 89.1317C10.9855 89.237 11.4115 89.3538 11.8545 89.4453C12.3525 89.5483 12.8648 89.6257 13.3723 89.7118C13.7745 89.78 14.1699 89.86 14.5773 89.9176C15.1451 89.9984 15.7233 90.0541 16.2994 90.1152C16.6554 90.1531 17.0068 90.2019 17.3655 90.2324C18.008 90.2869 18.6569 90.3176 19.3053 90.3493C19.6022 90.3639 19.8965 90.3886 20.1942 90.3985C20.9069 90.4223 21.622 90.4234 22.3367 90.4213C22.5708 90.4207 22.8046 90.4284 23.0387 90.425C23.8162 90.4137 24.5919 90.3811 25.3658 90.3411C25.5344 90.3325 25.7041 90.3302 25.8724 90.32C26.7073 90.2703 27.5366 90.2002 28.3604 90.119C28.4632 90.1087 28.5676 90.1027 28.6702 90.092C29.544 90.0015 30.4082 89.8922 31.2616 89.7683C31.3114 89.761 31.3627 89.7558 31.4123 89.7484C32.3014 89.6172 33.1767 89.4685 34.0352 89.3036C34.0484 89.3011 34.0621 89.299 34.0754 89.2966C36.7011 88.7904 39.1635 88.1322 41.3458 87.3576C41.3462 87.3574 41.3466 87.3574 41.347 87.3572H41.3468C38.1589 87.9197 34.9363 88.3215 31.6822 88.6169C25.3057 89.1949 17.7448 89.6333 12.205 85.8336Z" fill="#25264F"/>
<path d="M253.486 89.2185C251.722 89.887 249.75 88.9987 249.081 87.2345C248.415 85.4749 249.297 83.5095 251.052 82.8359C250.743 82.8763 250.433 82.9428 250.128 83.0584C248.01 83.861 246.943 86.229 247.746 88.3472C248.549 90.4654 250.916 91.5317 253.035 90.7292C254.81 90.0562 255.83 88.283 255.646 86.4794C255.482 87.68 254.699 88.7588 253.486 89.2185Z" fill="#202246"/>
<path d="M255.469 84.8159C254.8 83.0517 252.828 82.1635 251.064 82.8319C251.059 82.8336 251.056 82.8365 251.051 82.8382C249.296 83.5117 248.413 85.4771 249.08 87.2367C249.748 89.0009 251.72 89.889 253.485 89.2207C254.697 88.761 255.48 87.6822 255.644 86.4816C255.719 85.9358 255.677 85.3672 255.469 84.8159Z" fill="white"/>
<path d="M254.484 84.1479C254.598 84.4906 254.506 84.8687 254.215 85.0789C253.853 85.341 253.333 85.2388 253.056 84.8504C252.778 84.4621 252.847 83.9348 253.209 83.6728C253.328 83.5872 253.464 83.5539 253.602 83.5431C253.146 83.3791 252.634 83.3618 252.146 83.547C251.058 83.9594 250.51 85.1756 250.922 86.2636C251.335 87.3516 252.551 87.8994 253.639 87.4872C254.727 87.0748 255.275 85.8587 254.862 84.7705C254.773 84.5345 254.64 84.329 254.484 84.1479Z" fill="black"/>
<path d="M358.24 33.558C356.928 48.7284 352.48 63.6235 345.257 77.0283C345.117 77.2879 345.215 77.6118 345.474 77.7518C345.734 77.8917 346.057 77.7947 346.197 77.5351C353.455 64.0653 357.934 49.1111 359.282 33.8702C359.288 33.7967 359.297 33.7234 359.304 33.6499C359.329 33.356 359.112 33.0974 358.818 33.0719C358.713 33.0629 358.618 33.093 358.531 33.1383C358.374 33.2201 358.256 33.3692 358.24 33.558Z" fill="#8AB5BD"/>
<path d="M326.961 88.965C327.203 89.1337 327.536 89.0743 327.704 88.8325C336.021 76.9095 342.206 63.507 345.883 49.4424C345.958 49.1571 345.787 48.8654 345.502 48.7909C345.216 48.7164 344.924 48.8872 344.85 49.1724C341.206 63.1141 335.073 76.4029 326.829 88.2214C326.66 88.4634 326.719 88.7962 326.961 88.965Z" fill="#8AB5BD"/>
<path d="M340.324 86.0556C340.06 85.9247 339.74 86.0328 339.609 86.2972C331.358 102.96 318.928 117.539 303.779 128.32C303.539 128.491 303.483 128.825 303.654 129.065C303.825 129.305 304.158 129.361 304.398 129.19C319.692 118.305 332.235 103.594 340.566 86.7713C340.697 86.5067 340.588 86.1864 340.324 86.0556Z" fill="#8AB5BD"/>
<path d="M326.789 62.2448C327.042 62.3953 327.37 62.3118 327.521 62.0582C333.749 51.5658 338.41 40.1467 341.303 28.2933C341.372 28.0067 341.197 27.718 340.91 27.6481C340.624 27.5783 340.335 27.7538 340.265 28.0402V28.04C337.397 39.7902 332.776 51.1121 326.602 61.5129C326.452 61.7666 326.535 62.0942 326.789 62.2448Z" fill="#8AB5BD"/>
<path d="M292.165 110.277C291.951 110.48 291.942 110.818 292.145 111.032C292.347 111.246 292.685 111.255 292.899 111.052C303.446 101.056 312.389 89.374 319.288 76.5843C319.428 76.3248 319.331 76.0009 319.071 75.861C318.812 75.721 318.488 75.8179 318.348 76.0775C311.504 88.7669 302.628 100.359 292.165 110.277Z" fill="#8AB5BD"/>
<path d="M320.068 97.8288C319.821 97.6678 319.49 97.7377 319.329 97.9847C311.832 109.498 300.36 117.833 289.09 125.922C288.85 126.094 288.795 126.428 288.967 126.667C289.14 126.907 289.473 126.962 289.713 126.79C300.98 118.695 312.576 110.301 320.224 98.5674C320.385 98.3205 320.315 97.9898 320.068 97.8288Z" fill="#8AB5BD"/>
<path d="M292.601 135.242C277.811 145.265 260.96 152.718 243.425 156.992C243.158 157.057 242.994 157.326 243.059 157.593C243.124 157.86 243.394 158.024 243.661 157.959C261.312 153.657 278.269 146.157 293.159 136.066C293.387 135.912 293.446 135.603 293.292 135.375C293.138 135.147 292.828 135.088 292.601 135.242Z" fill="#8AB5BD"/>
<path d="M282.556 122.504C282.79 122.309 282.821 121.962 282.627 121.729C282.432 121.496 282.085 121.464 281.852 121.659C268.579 132.725 252.817 140.549 236.086 144.378C235.79 144.446 235.604 144.741 235.672 145.037C235.74 145.333 236.035 145.518 236.331 145.451C253.234 141.582 269.15 133.681 282.556 122.504Z" fill="#8AB5BD"/>
<path d="M240.523 131.619C277.124 113.921 307.052 81.9249 323.957 42.4404C324.082 42.149 323.947 41.8119 323.656 41.687C323.364 41.5624 323.027 41.6974 322.903 41.9888L322.902 41.9886C306.102 81.23 276.357 113.019 240.023 130.585C239.738 130.723 239.619 131.066 239.757 131.352C239.895 131.637 240.238 131.757 240.523 131.619Z" fill="#8AB5BD"/>
<path d="M162.77 152.433C154.022 148.065 145.893 142.459 138.7 135.836C138.483 135.637 138.146 135.651 137.946 135.868C137.746 136.085 137.76 136.422 137.977 136.622C145.244 143.313 153.455 148.975 162.293 153.388C162.556 153.52 162.877 153.413 163.009 153.149C163.141 152.885 163.034 152.564 162.77 152.433Z" fill="#8AB5BD"/>
<path d="M237.835 83.5755C238.249 82.4496 238.614 81.1415 238.016 80.1015C237.247 78.7641 235.386 78.654 233.848 78.7725C225.248 79.4355 216.939 82.12 208.423 83.4924C193.076 85.9656 177.495 84.0857 162.369 81.0834C149.292 78.4882 136.401 75.0348 123.297 72.5726C116.809 71.3535 110.27 70.3641 103.684 69.8724C100.28 69.6186 96.8678 69.4945 93.4545 69.5324C91.808 69.5506 88.4261 68.9753 88.3396 70.4584C88.326 70.6939 88.3951 70.9813 88.5678 71.3311C89.1521 72.5159 95.1892 74.3732 96.5674 75.1577C98.95 76.5142 101.241 78.027 103.465 79.6277C108.177 83.0178 112.547 86.8547 116.848 90.7438C125.333 98.4157 133.571 106.54 143.401 112.516C159.475 122.287 179.614 125.486 197.687 120.268C215.76 115.05 231.343 101.231 237.835 83.5755Z" fill="#3A3A68"/>
<path d="M219.156 131.336C213.079 141.719 197.419 142.454 195.8 147.112C194.182 151.769 193.822 156.911 191.321 161.161C185.81 170.524 171.922 172.468 166.87 182.086C164.802 186.026 164.583 190.665 163.057 194.845C159.654 204.162 150.179 210.249 146.787 219.57C161.211 214.727 173.42 204.315 184.671 194.073C191.99 187.41 199.115 180.454 204.983 172.484C210.851 164.514 215.59 157.208 218.885 147.875C221.475 140.541 219.156 131.336 219.156 131.336Z" fill="#3A3A68"/>
<path d="M322.14 78.5009C319.998 81.4773 319.482 84.7691 320.988 85.8531C322.495 86.9372 325.452 85.403 327.594 82.4267C329.736 79.4503 330.252 76.1585 328.746 75.0745C327.24 73.9903 324.282 75.5244 322.14 78.5009Z" fill="#92B8BF"/>
<path d="M325.779 96.5632C324.581 98.2271 324.293 100.067 325.135 100.673C325.977 101.28 327.631 100.422 328.828 98.7578C330.026 97.0939 330.314 95.2535 329.472 94.6476C328.629 94.0416 326.976 94.8991 325.779 96.5632Z" fill="#92B8BF"/>
<path d="M334.673 66.1645C335.698 64.389 335.801 62.5291 334.902 62.0102C334.004 61.4916 332.445 62.5103 331.419 64.2858C330.394 66.0613 330.292 67.921 331.19 68.4398C332.089 68.9587 333.648 67.94 334.673 66.1645Z" fill="#92B8BF"/>
<path d="M313.127 95.2183C311.443 96.9019 310.769 98.9577 311.621 99.8096C312.473 100.662 314.529 99.9875 316.212 98.3039C317.896 96.6201 318.57 94.5645 317.718 93.7126C316.866 92.8606 314.81 93.5347 313.127 95.2183Z" fill="#92B8BF"/>
<path d="M336.346 79.5911C335.172 81.2216 334.89 83.0251 335.715 83.619C336.54 84.2128 338.161 83.3726 339.334 81.742C340.508 80.1114 340.79 78.308 339.965 77.7141C339.14 77.12 337.519 77.9605 336.346 79.5911Z" fill="#92B8BF"/>
<path d="M315.93 109.317C314.832 110.416 314.392 111.757 314.948 112.313C315.504 112.869 316.845 112.429 317.944 111.331C319.043 110.232 319.483 108.891 318.927 108.334C318.371 107.778 317.029 108.218 315.93 109.317Z" fill="#92B8BF"/>
<path d="M310.803 82.8825C311.977 81.2518 312.259 79.4487 311.434 78.8546C310.609 78.2608 308.988 79.1012 307.815 80.7318C306.641 82.3624 306.359 84.1658 307.184 84.7597C308.009 85.3535 309.629 84.5133 310.803 82.8825Z" fill="#92B8BF"/>
<path d="M321.239 67.6288C322.677 65.3711 322.916 62.951 321.773 62.2237C320.63 61.4964 318.539 62.7369 317.102 64.9947C315.664 67.2525 315.425 69.6725 316.568 70.4C317.711 71.1274 319.802 69.8866 321.239 67.6288Z" fill="#92B8BF"/>
</svg>
